%TF.GenerationSoftware,KiCad,Pcbnew,10.0.3*%
%TF.CreationDate,2026-08-30T15:30:07-04:00*%
%TF.ProjectId,pen-mixer,70656e2d-6d69-4786-9572-2e6b69636164,v2*%
%TF.SameCoordinates,Original*%
%TF.FileFunction,Drillmap*%
%TF.FilePolarity,Positive*%
%FSLAX45Y45*%
G04 Gerber Fmt 4.5, Leading zero omitted, Abs format (unit mm)*
G04 Created by KiCad (PCBNEW 10.0.3) date 2026-08-30 15:30:07*
%MOMM*%
%LPD*%
G01*
G04 APERTURE LIST*
%ADD10C,0.100000*%
%ADD11C,0.200000*%
G04 APERTURE END LIST*
D10*
X9574520Y-4448520D02*
X9574520Y-7538520D01*
X9574520Y-4448520D02*
G75*
G02*
X9774520Y-4248520I200000J0D01*
G01*
X9774520Y-4248520D02*
X10664520Y-4248520D01*
X9774520Y-7738520D02*
G75*
G02*
X9574520Y-7538520I0J200000D01*
G01*
X9774520Y-7738520D02*
X10664520Y-7738520D01*
X10664520Y-4248520D02*
G75*
G02*
X10864520Y-4448520I0J-200000D01*
G01*
X10864520Y-4448520D02*
X10864520Y-7538520D01*
X10864520Y-7538520D02*
G75*
G02*
X10664520Y-7738520I-200000J0D01*
G01*
D11*
D10*
X9679970Y-6818490D02*
X9699970Y-6838490D01*
X9699970Y-6818490D02*
X9679970Y-6838490D01*
X9708290Y-5862570D02*
X9728290Y-5882570D01*
X9728290Y-5862570D02*
X9708290Y-5882570D01*
X9787110Y-5253310D02*
X9807110Y-5273310D01*
X9807110Y-5253310D02*
X9787110Y-5273310D01*
X9799260Y-5460510D02*
X9819260Y-5480510D01*
X9819260Y-5460510D02*
X9799260Y-5480510D01*
X9816840Y-6777910D02*
X9836840Y-6797910D01*
X9836840Y-6777910D02*
X9816840Y-6797910D01*
X9839520Y-5778730D02*
X9859520Y-5798730D01*
X9859520Y-5778730D02*
X9839520Y-5798730D01*
X9915200Y-6757700D02*
X9935200Y-6777700D01*
X9935200Y-6757700D02*
X9915200Y-6777700D01*
X9935360Y-5823430D02*
X9955360Y-5843430D01*
X9955360Y-5823430D02*
X9935360Y-5843430D01*
X9965150Y-5460820D02*
X9985150Y-5480820D01*
X9985150Y-5460820D02*
X9965150Y-5480820D01*
X9995540Y-5509730D02*
X10015540Y-5529730D01*
X10015540Y-5509730D02*
X9995540Y-5529730D01*
X10004710Y-6207290D02*
X10024710Y-6227290D01*
X10024710Y-6207290D02*
X10004710Y-6227290D01*
X10013270Y-6701540D02*
X10033270Y-6721540D01*
X10033270Y-6701540D02*
X10013270Y-6721540D01*
X10084520Y-7029160D02*
X10104520Y-7049160D01*
X10104520Y-7029160D02*
X10084520Y-7049160D01*
X10103020Y-5675770D02*
X10123020Y-5695770D01*
X10123020Y-5675770D02*
X10103020Y-5695770D01*
X10108820Y-6210220D02*
X10128820Y-6230220D01*
X10128820Y-6210220D02*
X10108820Y-6230220D01*
X10124270Y-4992690D02*
X10144270Y-5012690D01*
X10144270Y-4992690D02*
X10124270Y-5012690D01*
X10174180Y-5513070D02*
X10194180Y-5533070D01*
X10194180Y-5513070D02*
X10174180Y-5533070D01*
X10182580Y-4992780D02*
X10202580Y-5012780D01*
X10202580Y-4992780D02*
X10182580Y-5012780D01*
X10207180Y-6815460D02*
X10227180Y-6835460D01*
X10227180Y-6815460D02*
X10207180Y-6835460D01*
X10270070Y-5480600D02*
X10290070Y-5500600D01*
X10290070Y-5480600D02*
X10270070Y-5500600D01*
X10284520Y-7030230D02*
X10304520Y-7050230D01*
X10304520Y-7030230D02*
X10284520Y-7050230D01*
X10313280Y-5006450D02*
X10333280Y-5026450D01*
X10333280Y-5006450D02*
X10313280Y-5026450D01*
X10386470Y-5004970D02*
X10406470Y-5024970D01*
X10406470Y-5004970D02*
X10386470Y-5024970D01*
X10389210Y-5636280D02*
X10409210Y-5656280D01*
X10409210Y-5636280D02*
X10389210Y-5656280D01*
X10408750Y-6110290D02*
X10428750Y-6130290D01*
X10428750Y-6110290D02*
X10408750Y-6130290D01*
X10409520Y-6511970D02*
X10429520Y-6531970D01*
X10429520Y-6511970D02*
X10409520Y-6531970D01*
X10420390Y-7088360D02*
X10440390Y-7108360D01*
X10440390Y-7088360D02*
X10420390Y-7108360D01*
X10508630Y-6353520D02*
X10528630Y-6373520D01*
X10528630Y-6353520D02*
X10508630Y-6373520D01*
X10559520Y-6463610D02*
X10579520Y-6483610D01*
X10579520Y-6463610D02*
X10559520Y-6483610D01*
X10602780Y-6247810D02*
X10622780Y-6267810D01*
X10622780Y-6247810D02*
X10602780Y-6267810D01*
X10616190Y-5457600D02*
X10636190Y-5477600D01*
X10636190Y-5457600D02*
X10616190Y-5477600D01*
X10627990Y-5021400D02*
X10647990Y-5041400D01*
X10647990Y-5021400D02*
X10627990Y-5041400D01*
X10632690Y-5215170D02*
X10652690Y-5235170D01*
X10652690Y-5215170D02*
X10632690Y-5235170D01*
X10659800Y-5408370D02*
X10679800Y-5428370D01*
X10679800Y-5408370D02*
X10659800Y-5428370D01*
X10694520Y-5868520D02*
X10714520Y-5888520D01*
X10714520Y-5868520D02*
X10694520Y-5888520D01*
X10714810Y-6671480D02*
X10734810Y-6691480D01*
X10734810Y-6671480D02*
X10714810Y-6691480D01*
X10777520Y-6827690D02*
X10797520Y-6847690D01*
X10797520Y-6827690D02*
X10777520Y-6847690D01*
X9817520Y-7005020D02*
G75*
G02*
X9757520Y-7005020I-30000J0D01*
G01*
X9757520Y-7005020D02*
G75*
G02*
X9817520Y-7005020I30000J0D01*
G01*
X9757520Y-6950020D02*
X9757520Y-7060020D01*
X9817520Y-7060020D02*
G75*
G02*
X9757520Y-7060020I-30000J0D01*
G01*
X9817520Y-7060020D02*
X9817520Y-6950020D01*
X9817520Y-6950020D02*
G75*
G03*
X9757520Y-6950020I-30000J0D01*
G01*
X9817520Y-7425020D02*
G75*
G02*
X9757520Y-7425020I-30000J0D01*
G01*
X9757520Y-7425020D02*
G75*
G02*
X9817520Y-7425020I30000J0D01*
G01*
X9757520Y-7385020D02*
X9757520Y-7465020D01*
X9817520Y-7465020D02*
G75*
G02*
X9757520Y-7465020I-30000J0D01*
G01*
X9817520Y-7465020D02*
X9817520Y-7385020D01*
X9817520Y-7385020D02*
G75*
G03*
X9757520Y-7385020I-30000J0D01*
G01*
X10681520Y-7005020D02*
G75*
G02*
X10621520Y-7005020I-30000J0D01*
G01*
X10621520Y-7005020D02*
G75*
G02*
X10681520Y-7005020I30000J0D01*
G01*
X10621520Y-6950020D02*
X10621520Y-7060020D01*
X10681520Y-7060020D02*
G75*
G02*
X10621520Y-7060020I-30000J0D01*
G01*
X10681520Y-7060020D02*
X10681520Y-6950020D01*
X10681520Y-6950020D02*
G75*
G03*
X10621520Y-6950020I-30000J0D01*
G01*
X10681520Y-7425020D02*
G75*
G02*
X10621520Y-7425020I-30000J0D01*
G01*
X10621520Y-7425020D02*
G75*
G02*
X10681520Y-7425020I30000J0D01*
G01*
X10621520Y-7385020D02*
X10621520Y-7465020D01*
X10681520Y-7465020D02*
G75*
G02*
X10621520Y-7465020I-30000J0D01*
G01*
X10681520Y-7465020D02*
X10681520Y-7385020D01*
X10681520Y-7385020D02*
G75*
G03*
X10621520Y-7385020I-30000J0D01*
G01*
X9930520Y-7024520D02*
X9930520Y-7089520D01*
X9898020Y-7057020D02*
X9963020Y-7057020D01*
X10508520Y-7024520D02*
X10508520Y-7089520D01*
X10476020Y-7057020D02*
X10541020Y-7057020D01*
X10642805Y-5821804D02*
X10642805Y-5765235D01*
X10586236Y-5765235D01*
X10586236Y-5821804D01*
X10642805Y-5821804D01*
X10822805Y-5821804D02*
X10822805Y-5765235D01*
X10766236Y-5765235D01*
X10766236Y-5821804D01*
X10822805Y-5821804D01*
D11*
X9830297Y-8055004D02*
X9830297Y-7855004D01*
X9830297Y-7855004D02*
X9877916Y-7855004D01*
X9877916Y-7855004D02*
X9906487Y-7864528D01*
X9906487Y-7864528D02*
X9925535Y-7883575D01*
X9925535Y-7883575D02*
X9935059Y-7902623D01*
X9935059Y-7902623D02*
X9944583Y-7940718D01*
X9944583Y-7940718D02*
X9944583Y-7969289D01*
X9944583Y-7969289D02*
X9935059Y-8007385D01*
X9935059Y-8007385D02*
X9925535Y-8026432D01*
X9925535Y-8026432D02*
X9906487Y-8045480D01*
X9906487Y-8045480D02*
X9877916Y-8055004D01*
X9877916Y-8055004D02*
X9830297Y-8055004D01*
X10030297Y-8055004D02*
X10030297Y-7921670D01*
X10030297Y-7959766D02*
X10039821Y-7940718D01*
X10039821Y-7940718D02*
X10049344Y-7931194D01*
X10049344Y-7931194D02*
X10068392Y-7921670D01*
X10068392Y-7921670D02*
X10087440Y-7921670D01*
X10154106Y-8055004D02*
X10154106Y-7921670D01*
X10154106Y-7855004D02*
X10144583Y-7864528D01*
X10144583Y-7864528D02*
X10154106Y-7874051D01*
X10154106Y-7874051D02*
X10163630Y-7864528D01*
X10163630Y-7864528D02*
X10154106Y-7855004D01*
X10154106Y-7855004D02*
X10154106Y-7874051D01*
X10277916Y-8055004D02*
X10258868Y-8045480D01*
X10258868Y-8045480D02*
X10249344Y-8026432D01*
X10249344Y-8026432D02*
X10249344Y-7855004D01*
X10382678Y-8055004D02*
X10363630Y-8045480D01*
X10363630Y-8045480D02*
X10354106Y-8026432D01*
X10354106Y-8026432D02*
X10354106Y-7855004D01*
X10611249Y-8055004D02*
X10611249Y-7855004D01*
X10611249Y-7855004D02*
X10677916Y-7997861D01*
X10677916Y-7997861D02*
X10744583Y-7855004D01*
X10744583Y-7855004D02*
X10744583Y-8055004D01*
X10925535Y-8055004D02*
X10925535Y-7950242D01*
X10925535Y-7950242D02*
X10916011Y-7931194D01*
X10916011Y-7931194D02*
X10896964Y-7921670D01*
X10896964Y-7921670D02*
X10858868Y-7921670D01*
X10858868Y-7921670D02*
X10839821Y-7931194D01*
X10925535Y-8045480D02*
X10906487Y-8055004D01*
X10906487Y-8055004D02*
X10858868Y-8055004D01*
X10858868Y-8055004D02*
X10839821Y-8045480D01*
X10839821Y-8045480D02*
X10830297Y-8026432D01*
X10830297Y-8026432D02*
X10830297Y-8007385D01*
X10830297Y-8007385D02*
X10839821Y-7988337D01*
X10839821Y-7988337D02*
X10858868Y-7978813D01*
X10858868Y-7978813D02*
X10906487Y-7978813D01*
X10906487Y-7978813D02*
X10925535Y-7969289D01*
X11020773Y-7921670D02*
X11020773Y-8121670D01*
X11020773Y-7931194D02*
X11039821Y-7921670D01*
X11039821Y-7921670D02*
X11077916Y-7921670D01*
X11077916Y-7921670D02*
X11096964Y-7931194D01*
X11096964Y-7931194D02*
X11106487Y-7940718D01*
X11106487Y-7940718D02*
X11116011Y-7959766D01*
X11116011Y-7959766D02*
X11116011Y-8016908D01*
X11116011Y-8016908D02*
X11106487Y-8035956D01*
X11106487Y-8035956D02*
X11096964Y-8045480D01*
X11096964Y-8045480D02*
X11077916Y-8055004D01*
X11077916Y-8055004D02*
X11039821Y-8055004D01*
X11039821Y-8055004D02*
X11020773Y-8045480D01*
X11201725Y-8035956D02*
X11211249Y-8045480D01*
X11211249Y-8045480D02*
X11201725Y-8055004D01*
X11201725Y-8055004D02*
X11192202Y-8045480D01*
X11192202Y-8045480D02*
X11201725Y-8035956D01*
X11201725Y-8035956D02*
X11201725Y-8055004D01*
X11201725Y-7931194D02*
X11211249Y-7940718D01*
X11211249Y-7940718D02*
X11201725Y-7950242D01*
X11201725Y-7950242D02*
X11192202Y-7940718D01*
X11192202Y-7940718D02*
X11201725Y-7931194D01*
X11201725Y-7931194D02*
X11201725Y-7950242D01*
D10*
X9549520Y-8373520D02*
X9569520Y-8393520D01*
X9569520Y-8373520D02*
X9549520Y-8393520D01*
D11*
X9868392Y-8275004D02*
X9887440Y-8275004D01*
X9887440Y-8275004D02*
X9906487Y-8284528D01*
X9906487Y-8284528D02*
X9916011Y-8294051D01*
X9916011Y-8294051D02*
X9925535Y-8313099D01*
X9925535Y-8313099D02*
X9935059Y-8351194D01*
X9935059Y-8351194D02*
X9935059Y-8398813D01*
X9935059Y-8398813D02*
X9925535Y-8436909D01*
X9925535Y-8436909D02*
X9916011Y-8455956D01*
X9916011Y-8455956D02*
X9906487Y-8465480D01*
X9906487Y-8465480D02*
X9887440Y-8475004D01*
X9887440Y-8475004D02*
X9868392Y-8475004D01*
X9868392Y-8475004D02*
X9849344Y-8465480D01*
X9849344Y-8465480D02*
X9839821Y-8455956D01*
X9839821Y-8455956D02*
X9830297Y-8436909D01*
X9830297Y-8436909D02*
X9820773Y-8398813D01*
X9820773Y-8398813D02*
X9820773Y-8351194D01*
X9820773Y-8351194D02*
X9830297Y-8313099D01*
X9830297Y-8313099D02*
X9839821Y-8294051D01*
X9839821Y-8294051D02*
X9849344Y-8284528D01*
X9849344Y-8284528D02*
X9868392Y-8275004D01*
X10020773Y-8455956D02*
X10030297Y-8465480D01*
X10030297Y-8465480D02*
X10020773Y-8475004D01*
X10020773Y-8475004D02*
X10011249Y-8465480D01*
X10011249Y-8465480D02*
X10020773Y-8455956D01*
X10020773Y-8455956D02*
X10020773Y-8475004D01*
X10106487Y-8294051D02*
X10116011Y-8284528D01*
X10116011Y-8284528D02*
X10135059Y-8275004D01*
X10135059Y-8275004D02*
X10182678Y-8275004D01*
X10182678Y-8275004D02*
X10201725Y-8284528D01*
X10201725Y-8284528D02*
X10211249Y-8294051D01*
X10211249Y-8294051D02*
X10220773Y-8313099D01*
X10220773Y-8313099D02*
X10220773Y-8332147D01*
X10220773Y-8332147D02*
X10211249Y-8360718D01*
X10211249Y-8360718D02*
X10096964Y-8475004D01*
X10096964Y-8475004D02*
X10220773Y-8475004D01*
X10344583Y-8275004D02*
X10363630Y-8275004D01*
X10363630Y-8275004D02*
X10382678Y-8284528D01*
X10382678Y-8284528D02*
X10392202Y-8294051D01*
X10392202Y-8294051D02*
X10401725Y-8313099D01*
X10401725Y-8313099D02*
X10411249Y-8351194D01*
X10411249Y-8351194D02*
X10411249Y-8398813D01*
X10411249Y-8398813D02*
X10401725Y-8436909D01*
X10401725Y-8436909D02*
X10392202Y-8455956D01*
X10392202Y-8455956D02*
X10382678Y-8465480D01*
X10382678Y-8465480D02*
X10363630Y-8475004D01*
X10363630Y-8475004D02*
X10344583Y-8475004D01*
X10344583Y-8475004D02*
X10325535Y-8465480D01*
X10325535Y-8465480D02*
X10316011Y-8455956D01*
X10316011Y-8455956D02*
X10306487Y-8436909D01*
X10306487Y-8436909D02*
X10296964Y-8398813D01*
X10296964Y-8398813D02*
X10296964Y-8351194D01*
X10296964Y-8351194D02*
X10306487Y-8313099D01*
X10306487Y-8313099D02*
X10316011Y-8294051D01*
X10316011Y-8294051D02*
X10325535Y-8284528D01*
X10325535Y-8284528D02*
X10344583Y-8275004D01*
X10535059Y-8275004D02*
X10554106Y-8275004D01*
X10554106Y-8275004D02*
X10573154Y-8284528D01*
X10573154Y-8284528D02*
X10582678Y-8294051D01*
X10582678Y-8294051D02*
X10592202Y-8313099D01*
X10592202Y-8313099D02*
X10601725Y-8351194D01*
X10601725Y-8351194D02*
X10601725Y-8398813D01*
X10601725Y-8398813D02*
X10592202Y-8436909D01*
X10592202Y-8436909D02*
X10582678Y-8455956D01*
X10582678Y-8455956D02*
X10573154Y-8465480D01*
X10573154Y-8465480D02*
X10554106Y-8475004D01*
X10554106Y-8475004D02*
X10535059Y-8475004D01*
X10535059Y-8475004D02*
X10516011Y-8465480D01*
X10516011Y-8465480D02*
X10506487Y-8455956D01*
X10506487Y-8455956D02*
X10496964Y-8436909D01*
X10496964Y-8436909D02*
X10487440Y-8398813D01*
X10487440Y-8398813D02*
X10487440Y-8351194D01*
X10487440Y-8351194D02*
X10496964Y-8313099D01*
X10496964Y-8313099D02*
X10506487Y-8294051D01*
X10506487Y-8294051D02*
X10516011Y-8284528D01*
X10516011Y-8284528D02*
X10535059Y-8275004D01*
X10687440Y-8475004D02*
X10687440Y-8341670D01*
X10687440Y-8360718D02*
X10696964Y-8351194D01*
X10696964Y-8351194D02*
X10716011Y-8341670D01*
X10716011Y-8341670D02*
X10744583Y-8341670D01*
X10744583Y-8341670D02*
X10763630Y-8351194D01*
X10763630Y-8351194D02*
X10773154Y-8370242D01*
X10773154Y-8370242D02*
X10773154Y-8475004D01*
X10773154Y-8370242D02*
X10782678Y-8351194D01*
X10782678Y-8351194D02*
X10801725Y-8341670D01*
X10801725Y-8341670D02*
X10830297Y-8341670D01*
X10830297Y-8341670D02*
X10849345Y-8351194D01*
X10849345Y-8351194D02*
X10858868Y-8370242D01*
X10858868Y-8370242D02*
X10858868Y-8475004D01*
X10954106Y-8475004D02*
X10954106Y-8341670D01*
X10954106Y-8360718D02*
X10963630Y-8351194D01*
X10963630Y-8351194D02*
X10982678Y-8341670D01*
X10982678Y-8341670D02*
X11011249Y-8341670D01*
X11011249Y-8341670D02*
X11030297Y-8351194D01*
X11030297Y-8351194D02*
X11039821Y-8370242D01*
X11039821Y-8370242D02*
X11039821Y-8475004D01*
X11039821Y-8370242D02*
X11049345Y-8351194D01*
X11049345Y-8351194D02*
X11068392Y-8341670D01*
X11068392Y-8341670D02*
X11096964Y-8341670D01*
X11096964Y-8341670D02*
X11116011Y-8351194D01*
X11116011Y-8351194D02*
X11125535Y-8370242D01*
X11125535Y-8370242D02*
X11125535Y-8475004D01*
X11516011Y-8265480D02*
X11344583Y-8522623D01*
X11773154Y-8275004D02*
X11792202Y-8275004D01*
X11792202Y-8275004D02*
X11811249Y-8284528D01*
X11811249Y-8284528D02*
X11820773Y-8294051D01*
X11820773Y-8294051D02*
X11830297Y-8313099D01*
X11830297Y-8313099D02*
X11839821Y-8351194D01*
X11839821Y-8351194D02*
X11839821Y-8398813D01*
X11839821Y-8398813D02*
X11830297Y-8436909D01*
X11830297Y-8436909D02*
X11820773Y-8455956D01*
X11820773Y-8455956D02*
X11811249Y-8465480D01*
X11811249Y-8465480D02*
X11792202Y-8475004D01*
X11792202Y-8475004D02*
X11773154Y-8475004D01*
X11773154Y-8475004D02*
X11754106Y-8465480D01*
X11754106Y-8465480D02*
X11744583Y-8455956D01*
X11744583Y-8455956D02*
X11735059Y-8436909D01*
X11735059Y-8436909D02*
X11725535Y-8398813D01*
X11725535Y-8398813D02*
X11725535Y-8351194D01*
X11725535Y-8351194D02*
X11735059Y-8313099D01*
X11735059Y-8313099D02*
X11744583Y-8294051D01*
X11744583Y-8294051D02*
X11754106Y-8284528D01*
X11754106Y-8284528D02*
X11773154Y-8275004D01*
X11925535Y-8455956D02*
X11935059Y-8465480D01*
X11935059Y-8465480D02*
X11925535Y-8475004D01*
X11925535Y-8475004D02*
X11916011Y-8465480D01*
X11916011Y-8465480D02*
X11925535Y-8455956D01*
X11925535Y-8455956D02*
X11925535Y-8475004D01*
X12058868Y-8275004D02*
X12077916Y-8275004D01*
X12077916Y-8275004D02*
X12096964Y-8284528D01*
X12096964Y-8284528D02*
X12106487Y-8294051D01*
X12106487Y-8294051D02*
X12116011Y-8313099D01*
X12116011Y-8313099D02*
X12125535Y-8351194D01*
X12125535Y-8351194D02*
X12125535Y-8398813D01*
X12125535Y-8398813D02*
X12116011Y-8436909D01*
X12116011Y-8436909D02*
X12106487Y-8455956D01*
X12106487Y-8455956D02*
X12096964Y-8465480D01*
X12096964Y-8465480D02*
X12077916Y-8475004D01*
X12077916Y-8475004D02*
X12058868Y-8475004D01*
X12058868Y-8475004D02*
X12039821Y-8465480D01*
X12039821Y-8465480D02*
X12030297Y-8455956D01*
X12030297Y-8455956D02*
X12020773Y-8436909D01*
X12020773Y-8436909D02*
X12011249Y-8398813D01*
X12011249Y-8398813D02*
X12011249Y-8351194D01*
X12011249Y-8351194D02*
X12020773Y-8313099D01*
X12020773Y-8313099D02*
X12030297Y-8294051D01*
X12030297Y-8294051D02*
X12039821Y-8284528D01*
X12039821Y-8284528D02*
X12058868Y-8275004D01*
X12249345Y-8275004D02*
X12268392Y-8275004D01*
X12268392Y-8275004D02*
X12287440Y-8284528D01*
X12287440Y-8284528D02*
X12296964Y-8294051D01*
X12296964Y-8294051D02*
X12306487Y-8313099D01*
X12306487Y-8313099D02*
X12316011Y-8351194D01*
X12316011Y-8351194D02*
X12316011Y-8398813D01*
X12316011Y-8398813D02*
X12306487Y-8436909D01*
X12306487Y-8436909D02*
X12296964Y-8455956D01*
X12296964Y-8455956D02*
X12287440Y-8465480D01*
X12287440Y-8465480D02*
X12268392Y-8475004D01*
X12268392Y-8475004D02*
X12249345Y-8475004D01*
X12249345Y-8475004D02*
X12230297Y-8465480D01*
X12230297Y-8465480D02*
X12220773Y-8455956D01*
X12220773Y-8455956D02*
X12211249Y-8436909D01*
X12211249Y-8436909D02*
X12201726Y-8398813D01*
X12201726Y-8398813D02*
X12201726Y-8351194D01*
X12201726Y-8351194D02*
X12211249Y-8313099D01*
X12211249Y-8313099D02*
X12220773Y-8294051D01*
X12220773Y-8294051D02*
X12230297Y-8284528D01*
X12230297Y-8284528D02*
X12249345Y-8275004D01*
X12382678Y-8275004D02*
X12516011Y-8275004D01*
X12516011Y-8275004D02*
X12430297Y-8475004D01*
X12601726Y-8475004D02*
X12639821Y-8475004D01*
X12639821Y-8475004D02*
X12658868Y-8465480D01*
X12658868Y-8465480D02*
X12668392Y-8455956D01*
X12668392Y-8455956D02*
X12687440Y-8427385D01*
X12687440Y-8427385D02*
X12696964Y-8389290D01*
X12696964Y-8389290D02*
X12696964Y-8313099D01*
X12696964Y-8313099D02*
X12687440Y-8294051D01*
X12687440Y-8294051D02*
X12677916Y-8284528D01*
X12677916Y-8284528D02*
X12658868Y-8275004D01*
X12658868Y-8275004D02*
X12620773Y-8275004D01*
X12620773Y-8275004D02*
X12601726Y-8284528D01*
X12601726Y-8284528D02*
X12592202Y-8294051D01*
X12592202Y-8294051D02*
X12582678Y-8313099D01*
X12582678Y-8313099D02*
X12582678Y-8360718D01*
X12582678Y-8360718D02*
X12592202Y-8379766D01*
X12592202Y-8379766D02*
X12601726Y-8389290D01*
X12601726Y-8389290D02*
X12620773Y-8398813D01*
X12620773Y-8398813D02*
X12658868Y-8398813D01*
X12658868Y-8398813D02*
X12677916Y-8389290D01*
X12677916Y-8389290D02*
X12687440Y-8379766D01*
X12687440Y-8379766D02*
X12696964Y-8360718D01*
X12773154Y-8275004D02*
X12773154Y-8313099D01*
X12849345Y-8275004D02*
X12849345Y-8313099D01*
X13144583Y-8551194D02*
X13135059Y-8541670D01*
X13135059Y-8541670D02*
X13116011Y-8513099D01*
X13116011Y-8513099D02*
X13106488Y-8494051D01*
X13106488Y-8494051D02*
X13096964Y-8465480D01*
X13096964Y-8465480D02*
X13087440Y-8417861D01*
X13087440Y-8417861D02*
X13087440Y-8379766D01*
X13087440Y-8379766D02*
X13096964Y-8332147D01*
X13096964Y-8332147D02*
X13106488Y-8303575D01*
X13106488Y-8303575D02*
X13116011Y-8284528D01*
X13116011Y-8284528D02*
X13135059Y-8255956D01*
X13135059Y-8255956D02*
X13144583Y-8246432D01*
X13201726Y-8275004D02*
X13325535Y-8275004D01*
X13325535Y-8275004D02*
X13258868Y-8351194D01*
X13258868Y-8351194D02*
X13287440Y-8351194D01*
X13287440Y-8351194D02*
X13306488Y-8360718D01*
X13306488Y-8360718D02*
X13316011Y-8370242D01*
X13316011Y-8370242D02*
X13325535Y-8389290D01*
X13325535Y-8389290D02*
X13325535Y-8436909D01*
X13325535Y-8436909D02*
X13316011Y-8455956D01*
X13316011Y-8455956D02*
X13306488Y-8465480D01*
X13306488Y-8465480D02*
X13287440Y-8475004D01*
X13287440Y-8475004D02*
X13230297Y-8475004D01*
X13230297Y-8475004D02*
X13211249Y-8465480D01*
X13211249Y-8465480D02*
X13201726Y-8455956D01*
X13392202Y-8275004D02*
X13525535Y-8275004D01*
X13525535Y-8275004D02*
X13439821Y-8475004D01*
X13754107Y-8475004D02*
X13754107Y-8275004D01*
X13839821Y-8475004D02*
X13839821Y-8370242D01*
X13839821Y-8370242D02*
X13830297Y-8351194D01*
X13830297Y-8351194D02*
X13811250Y-8341670D01*
X13811250Y-8341670D02*
X13782678Y-8341670D01*
X13782678Y-8341670D02*
X13763630Y-8351194D01*
X13763630Y-8351194D02*
X13754107Y-8360718D01*
X13963630Y-8475004D02*
X13944583Y-8465480D01*
X13944583Y-8465480D02*
X13935059Y-8455956D01*
X13935059Y-8455956D02*
X13925535Y-8436909D01*
X13925535Y-8436909D02*
X13925535Y-8379766D01*
X13925535Y-8379766D02*
X13935059Y-8360718D01*
X13935059Y-8360718D02*
X13944583Y-8351194D01*
X13944583Y-8351194D02*
X13963630Y-8341670D01*
X13963630Y-8341670D02*
X13992202Y-8341670D01*
X13992202Y-8341670D02*
X14011250Y-8351194D01*
X14011250Y-8351194D02*
X14020773Y-8360718D01*
X14020773Y-8360718D02*
X14030297Y-8379766D01*
X14030297Y-8379766D02*
X14030297Y-8436909D01*
X14030297Y-8436909D02*
X14020773Y-8455956D01*
X14020773Y-8455956D02*
X14011250Y-8465480D01*
X14011250Y-8465480D02*
X13992202Y-8475004D01*
X13992202Y-8475004D02*
X13963630Y-8475004D01*
X14144583Y-8475004D02*
X14125535Y-8465480D01*
X14125535Y-8465480D02*
X14116011Y-8446432D01*
X14116011Y-8446432D02*
X14116011Y-8275004D01*
X14296964Y-8465480D02*
X14277916Y-8475004D01*
X14277916Y-8475004D02*
X14239821Y-8475004D01*
X14239821Y-8475004D02*
X14220773Y-8465480D01*
X14220773Y-8465480D02*
X14211250Y-8446432D01*
X14211250Y-8446432D02*
X14211250Y-8370242D01*
X14211250Y-8370242D02*
X14220773Y-8351194D01*
X14220773Y-8351194D02*
X14239821Y-8341670D01*
X14239821Y-8341670D02*
X14277916Y-8341670D01*
X14277916Y-8341670D02*
X14296964Y-8351194D01*
X14296964Y-8351194D02*
X14306488Y-8370242D01*
X14306488Y-8370242D02*
X14306488Y-8389290D01*
X14306488Y-8389290D02*
X14211250Y-8408337D01*
X14382678Y-8465480D02*
X14401726Y-8475004D01*
X14401726Y-8475004D02*
X14439821Y-8475004D01*
X14439821Y-8475004D02*
X14458869Y-8465480D01*
X14458869Y-8465480D02*
X14468392Y-8446432D01*
X14468392Y-8446432D02*
X14468392Y-8436909D01*
X14468392Y-8436909D02*
X14458869Y-8417861D01*
X14458869Y-8417861D02*
X14439821Y-8408337D01*
X14439821Y-8408337D02*
X14411250Y-8408337D01*
X14411250Y-8408337D02*
X14392202Y-8398813D01*
X14392202Y-8398813D02*
X14382678Y-8379766D01*
X14382678Y-8379766D02*
X14382678Y-8370242D01*
X14382678Y-8370242D02*
X14392202Y-8351194D01*
X14392202Y-8351194D02*
X14411250Y-8341670D01*
X14411250Y-8341670D02*
X14439821Y-8341670D01*
X14439821Y-8341670D02*
X14458869Y-8351194D01*
X14535059Y-8551194D02*
X14544583Y-8541670D01*
X14544583Y-8541670D02*
X14563631Y-8513099D01*
X14563631Y-8513099D02*
X14573154Y-8494051D01*
X14573154Y-8494051D02*
X14582678Y-8465480D01*
X14582678Y-8465480D02*
X14592202Y-8417861D01*
X14592202Y-8417861D02*
X14592202Y-8379766D01*
X14592202Y-8379766D02*
X14582678Y-8332147D01*
X14582678Y-8332147D02*
X14573154Y-8303575D01*
X14573154Y-8303575D02*
X14563631Y-8284528D01*
X14563631Y-8284528D02*
X14544583Y-8255956D01*
X14544583Y-8255956D02*
X14535059Y-8246432D01*
D10*
X9569520Y-8647520D02*
G75*
G02*
X9509520Y-8647520I-30000J0D01*
G01*
X9509520Y-8647520D02*
G75*
G02*
X9569520Y-8647520I30000J0D01*
G01*
D11*
X9868392Y-8539004D02*
X9887440Y-8539004D01*
X9887440Y-8539004D02*
X9906487Y-8548528D01*
X9906487Y-8548528D02*
X9916011Y-8558051D01*
X9916011Y-8558051D02*
X9925535Y-8577099D01*
X9925535Y-8577099D02*
X9935059Y-8615194D01*
X9935059Y-8615194D02*
X9935059Y-8662813D01*
X9935059Y-8662813D02*
X9925535Y-8700909D01*
X9925535Y-8700909D02*
X9916011Y-8719956D01*
X9916011Y-8719956D02*
X9906487Y-8729480D01*
X9906487Y-8729480D02*
X9887440Y-8739004D01*
X9887440Y-8739004D02*
X9868392Y-8739004D01*
X9868392Y-8739004D02*
X9849344Y-8729480D01*
X9849344Y-8729480D02*
X9839821Y-8719956D01*
X9839821Y-8719956D02*
X9830297Y-8700909D01*
X9830297Y-8700909D02*
X9820773Y-8662813D01*
X9820773Y-8662813D02*
X9820773Y-8615194D01*
X9820773Y-8615194D02*
X9830297Y-8577099D01*
X9830297Y-8577099D02*
X9839821Y-8558051D01*
X9839821Y-8558051D02*
X9849344Y-8548528D01*
X9849344Y-8548528D02*
X9868392Y-8539004D01*
X10020773Y-8719956D02*
X10030297Y-8729480D01*
X10030297Y-8729480D02*
X10020773Y-8739004D01*
X10020773Y-8739004D02*
X10011249Y-8729480D01*
X10011249Y-8729480D02*
X10020773Y-8719956D01*
X10020773Y-8719956D02*
X10020773Y-8739004D01*
X10201725Y-8539004D02*
X10163630Y-8539004D01*
X10163630Y-8539004D02*
X10144583Y-8548528D01*
X10144583Y-8548528D02*
X10135059Y-8558051D01*
X10135059Y-8558051D02*
X10116011Y-8586623D01*
X10116011Y-8586623D02*
X10106487Y-8624718D01*
X10106487Y-8624718D02*
X10106487Y-8700909D01*
X10106487Y-8700909D02*
X10116011Y-8719956D01*
X10116011Y-8719956D02*
X10125535Y-8729480D01*
X10125535Y-8729480D02*
X10144583Y-8739004D01*
X10144583Y-8739004D02*
X10182678Y-8739004D01*
X10182678Y-8739004D02*
X10201725Y-8729480D01*
X10201725Y-8729480D02*
X10211249Y-8719956D01*
X10211249Y-8719956D02*
X10220773Y-8700909D01*
X10220773Y-8700909D02*
X10220773Y-8653290D01*
X10220773Y-8653290D02*
X10211249Y-8634242D01*
X10211249Y-8634242D02*
X10201725Y-8624718D01*
X10201725Y-8624718D02*
X10182678Y-8615194D01*
X10182678Y-8615194D02*
X10144583Y-8615194D01*
X10144583Y-8615194D02*
X10125535Y-8624718D01*
X10125535Y-8624718D02*
X10116011Y-8634242D01*
X10116011Y-8634242D02*
X10106487Y-8653290D01*
X10344583Y-8539004D02*
X10363630Y-8539004D01*
X10363630Y-8539004D02*
X10382678Y-8548528D01*
X10382678Y-8548528D02*
X10392202Y-8558051D01*
X10392202Y-8558051D02*
X10401725Y-8577099D01*
X10401725Y-8577099D02*
X10411249Y-8615194D01*
X10411249Y-8615194D02*
X10411249Y-8662813D01*
X10411249Y-8662813D02*
X10401725Y-8700909D01*
X10401725Y-8700909D02*
X10392202Y-8719956D01*
X10392202Y-8719956D02*
X10382678Y-8729480D01*
X10382678Y-8729480D02*
X10363630Y-8739004D01*
X10363630Y-8739004D02*
X10344583Y-8739004D01*
X10344583Y-8739004D02*
X10325535Y-8729480D01*
X10325535Y-8729480D02*
X10316011Y-8719956D01*
X10316011Y-8719956D02*
X10306487Y-8700909D01*
X10306487Y-8700909D02*
X10296964Y-8662813D01*
X10296964Y-8662813D02*
X10296964Y-8615194D01*
X10296964Y-8615194D02*
X10306487Y-8577099D01*
X10306487Y-8577099D02*
X10316011Y-8558051D01*
X10316011Y-8558051D02*
X10325535Y-8548528D01*
X10325535Y-8548528D02*
X10344583Y-8539004D01*
X10535059Y-8539004D02*
X10554106Y-8539004D01*
X10554106Y-8539004D02*
X10573154Y-8548528D01*
X10573154Y-8548528D02*
X10582678Y-8558051D01*
X10582678Y-8558051D02*
X10592202Y-8577099D01*
X10592202Y-8577099D02*
X10601725Y-8615194D01*
X10601725Y-8615194D02*
X10601725Y-8662813D01*
X10601725Y-8662813D02*
X10592202Y-8700909D01*
X10592202Y-8700909D02*
X10582678Y-8719956D01*
X10582678Y-8719956D02*
X10573154Y-8729480D01*
X10573154Y-8729480D02*
X10554106Y-8739004D01*
X10554106Y-8739004D02*
X10535059Y-8739004D01*
X10535059Y-8739004D02*
X10516011Y-8729480D01*
X10516011Y-8729480D02*
X10506487Y-8719956D01*
X10506487Y-8719956D02*
X10496964Y-8700909D01*
X10496964Y-8700909D02*
X10487440Y-8662813D01*
X10487440Y-8662813D02*
X10487440Y-8615194D01*
X10487440Y-8615194D02*
X10496964Y-8577099D01*
X10496964Y-8577099D02*
X10506487Y-8558051D01*
X10506487Y-8558051D02*
X10516011Y-8548528D01*
X10516011Y-8548528D02*
X10535059Y-8539004D01*
X10687440Y-8739004D02*
X10687440Y-8605670D01*
X10687440Y-8624718D02*
X10696964Y-8615194D01*
X10696964Y-8615194D02*
X10716011Y-8605670D01*
X10716011Y-8605670D02*
X10744583Y-8605670D01*
X10744583Y-8605670D02*
X10763630Y-8615194D01*
X10763630Y-8615194D02*
X10773154Y-8634242D01*
X10773154Y-8634242D02*
X10773154Y-8739004D01*
X10773154Y-8634242D02*
X10782678Y-8615194D01*
X10782678Y-8615194D02*
X10801725Y-8605670D01*
X10801725Y-8605670D02*
X10830297Y-8605670D01*
X10830297Y-8605670D02*
X10849345Y-8615194D01*
X10849345Y-8615194D02*
X10858868Y-8634242D01*
X10858868Y-8634242D02*
X10858868Y-8739004D01*
X10954106Y-8739004D02*
X10954106Y-8605670D01*
X10954106Y-8624718D02*
X10963630Y-8615194D01*
X10963630Y-8615194D02*
X10982678Y-8605670D01*
X10982678Y-8605670D02*
X11011249Y-8605670D01*
X11011249Y-8605670D02*
X11030297Y-8615194D01*
X11030297Y-8615194D02*
X11039821Y-8634242D01*
X11039821Y-8634242D02*
X11039821Y-8739004D01*
X11039821Y-8634242D02*
X11049345Y-8615194D01*
X11049345Y-8615194D02*
X11068392Y-8605670D01*
X11068392Y-8605670D02*
X11096964Y-8605670D01*
X11096964Y-8605670D02*
X11116011Y-8615194D01*
X11116011Y-8615194D02*
X11125535Y-8634242D01*
X11125535Y-8634242D02*
X11125535Y-8739004D01*
X11516011Y-8529480D02*
X11344583Y-8786623D01*
X11773154Y-8539004D02*
X11792202Y-8539004D01*
X11792202Y-8539004D02*
X11811249Y-8548528D01*
X11811249Y-8548528D02*
X11820773Y-8558051D01*
X11820773Y-8558051D02*
X11830297Y-8577099D01*
X11830297Y-8577099D02*
X11839821Y-8615194D01*
X11839821Y-8615194D02*
X11839821Y-8662813D01*
X11839821Y-8662813D02*
X11830297Y-8700909D01*
X11830297Y-8700909D02*
X11820773Y-8719956D01*
X11820773Y-8719956D02*
X11811249Y-8729480D01*
X11811249Y-8729480D02*
X11792202Y-8739004D01*
X11792202Y-8739004D02*
X11773154Y-8739004D01*
X11773154Y-8739004D02*
X11754106Y-8729480D01*
X11754106Y-8729480D02*
X11744583Y-8719956D01*
X11744583Y-8719956D02*
X11735059Y-8700909D01*
X11735059Y-8700909D02*
X11725535Y-8662813D01*
X11725535Y-8662813D02*
X11725535Y-8615194D01*
X11725535Y-8615194D02*
X11735059Y-8577099D01*
X11735059Y-8577099D02*
X11744583Y-8558051D01*
X11744583Y-8558051D02*
X11754106Y-8548528D01*
X11754106Y-8548528D02*
X11773154Y-8539004D01*
X11925535Y-8719956D02*
X11935059Y-8729480D01*
X11935059Y-8729480D02*
X11925535Y-8739004D01*
X11925535Y-8739004D02*
X11916011Y-8729480D01*
X11916011Y-8729480D02*
X11925535Y-8719956D01*
X11925535Y-8719956D02*
X11925535Y-8739004D01*
X12058868Y-8539004D02*
X12077916Y-8539004D01*
X12077916Y-8539004D02*
X12096964Y-8548528D01*
X12096964Y-8548528D02*
X12106487Y-8558051D01*
X12106487Y-8558051D02*
X12116011Y-8577099D01*
X12116011Y-8577099D02*
X12125535Y-8615194D01*
X12125535Y-8615194D02*
X12125535Y-8662813D01*
X12125535Y-8662813D02*
X12116011Y-8700909D01*
X12116011Y-8700909D02*
X12106487Y-8719956D01*
X12106487Y-8719956D02*
X12096964Y-8729480D01*
X12096964Y-8729480D02*
X12077916Y-8739004D01*
X12077916Y-8739004D02*
X12058868Y-8739004D01*
X12058868Y-8739004D02*
X12039821Y-8729480D01*
X12039821Y-8729480D02*
X12030297Y-8719956D01*
X12030297Y-8719956D02*
X12020773Y-8700909D01*
X12020773Y-8700909D02*
X12011249Y-8662813D01*
X12011249Y-8662813D02*
X12011249Y-8615194D01*
X12011249Y-8615194D02*
X12020773Y-8577099D01*
X12020773Y-8577099D02*
X12030297Y-8558051D01*
X12030297Y-8558051D02*
X12039821Y-8548528D01*
X12039821Y-8548528D02*
X12058868Y-8539004D01*
X12201726Y-8558051D02*
X12211249Y-8548528D01*
X12211249Y-8548528D02*
X12230297Y-8539004D01*
X12230297Y-8539004D02*
X12277916Y-8539004D01*
X12277916Y-8539004D02*
X12296964Y-8548528D01*
X12296964Y-8548528D02*
X12306487Y-8558051D01*
X12306487Y-8558051D02*
X12316011Y-8577099D01*
X12316011Y-8577099D02*
X12316011Y-8596147D01*
X12316011Y-8596147D02*
X12306487Y-8624718D01*
X12306487Y-8624718D02*
X12192202Y-8739004D01*
X12192202Y-8739004D02*
X12316011Y-8739004D01*
X12382678Y-8539004D02*
X12506487Y-8539004D01*
X12506487Y-8539004D02*
X12439821Y-8615194D01*
X12439821Y-8615194D02*
X12468392Y-8615194D01*
X12468392Y-8615194D02*
X12487440Y-8624718D01*
X12487440Y-8624718D02*
X12496964Y-8634242D01*
X12496964Y-8634242D02*
X12506487Y-8653290D01*
X12506487Y-8653290D02*
X12506487Y-8700909D01*
X12506487Y-8700909D02*
X12496964Y-8719956D01*
X12496964Y-8719956D02*
X12487440Y-8729480D01*
X12487440Y-8729480D02*
X12468392Y-8739004D01*
X12468392Y-8739004D02*
X12411249Y-8739004D01*
X12411249Y-8739004D02*
X12392202Y-8729480D01*
X12392202Y-8729480D02*
X12382678Y-8719956D01*
X12677916Y-8539004D02*
X12639821Y-8539004D01*
X12639821Y-8539004D02*
X12620773Y-8548528D01*
X12620773Y-8548528D02*
X12611249Y-8558051D01*
X12611249Y-8558051D02*
X12592202Y-8586623D01*
X12592202Y-8586623D02*
X12582678Y-8624718D01*
X12582678Y-8624718D02*
X12582678Y-8700909D01*
X12582678Y-8700909D02*
X12592202Y-8719956D01*
X12592202Y-8719956D02*
X12601726Y-8729480D01*
X12601726Y-8729480D02*
X12620773Y-8739004D01*
X12620773Y-8739004D02*
X12658868Y-8739004D01*
X12658868Y-8739004D02*
X12677916Y-8729480D01*
X12677916Y-8729480D02*
X12687440Y-8719956D01*
X12687440Y-8719956D02*
X12696964Y-8700909D01*
X12696964Y-8700909D02*
X12696964Y-8653290D01*
X12696964Y-8653290D02*
X12687440Y-8634242D01*
X12687440Y-8634242D02*
X12677916Y-8624718D01*
X12677916Y-8624718D02*
X12658868Y-8615194D01*
X12658868Y-8615194D02*
X12620773Y-8615194D01*
X12620773Y-8615194D02*
X12601726Y-8624718D01*
X12601726Y-8624718D02*
X12592202Y-8634242D01*
X12592202Y-8634242D02*
X12582678Y-8653290D01*
X12773154Y-8539004D02*
X12773154Y-8577099D01*
X12849345Y-8539004D02*
X12849345Y-8577099D01*
X13144583Y-8815194D02*
X13135059Y-8805670D01*
X13135059Y-8805670D02*
X13116011Y-8777099D01*
X13116011Y-8777099D02*
X13106488Y-8758051D01*
X13106488Y-8758051D02*
X13096964Y-8729480D01*
X13096964Y-8729480D02*
X13087440Y-8681861D01*
X13087440Y-8681861D02*
X13087440Y-8643766D01*
X13087440Y-8643766D02*
X13096964Y-8596147D01*
X13096964Y-8596147D02*
X13106488Y-8567575D01*
X13106488Y-8567575D02*
X13116011Y-8548528D01*
X13116011Y-8548528D02*
X13135059Y-8519956D01*
X13135059Y-8519956D02*
X13144583Y-8510432D01*
X13258868Y-8539004D02*
X13277916Y-8539004D01*
X13277916Y-8539004D02*
X13296964Y-8548528D01*
X13296964Y-8548528D02*
X13306488Y-8558051D01*
X13306488Y-8558051D02*
X13316011Y-8577099D01*
X13316011Y-8577099D02*
X13325535Y-8615194D01*
X13325535Y-8615194D02*
X13325535Y-8662813D01*
X13325535Y-8662813D02*
X13316011Y-8700909D01*
X13316011Y-8700909D02*
X13306488Y-8719956D01*
X13306488Y-8719956D02*
X13296964Y-8729480D01*
X13296964Y-8729480D02*
X13277916Y-8739004D01*
X13277916Y-8739004D02*
X13258868Y-8739004D01*
X13258868Y-8739004D02*
X13239821Y-8729480D01*
X13239821Y-8729480D02*
X13230297Y-8719956D01*
X13230297Y-8719956D02*
X13220773Y-8700909D01*
X13220773Y-8700909D02*
X13211249Y-8662813D01*
X13211249Y-8662813D02*
X13211249Y-8615194D01*
X13211249Y-8615194D02*
X13220773Y-8577099D01*
X13220773Y-8577099D02*
X13230297Y-8558051D01*
X13230297Y-8558051D02*
X13239821Y-8548528D01*
X13239821Y-8548528D02*
X13258868Y-8539004D01*
X13563630Y-8739004D02*
X13563630Y-8539004D01*
X13649345Y-8739004D02*
X13649345Y-8634242D01*
X13649345Y-8634242D02*
X13639821Y-8615194D01*
X13639821Y-8615194D02*
X13620773Y-8605670D01*
X13620773Y-8605670D02*
X13592202Y-8605670D01*
X13592202Y-8605670D02*
X13573154Y-8615194D01*
X13573154Y-8615194D02*
X13563630Y-8624718D01*
X13773154Y-8739004D02*
X13754107Y-8729480D01*
X13754107Y-8729480D02*
X13744583Y-8719956D01*
X13744583Y-8719956D02*
X13735059Y-8700909D01*
X13735059Y-8700909D02*
X13735059Y-8643766D01*
X13735059Y-8643766D02*
X13744583Y-8624718D01*
X13744583Y-8624718D02*
X13754107Y-8615194D01*
X13754107Y-8615194D02*
X13773154Y-8605670D01*
X13773154Y-8605670D02*
X13801726Y-8605670D01*
X13801726Y-8605670D02*
X13820773Y-8615194D01*
X13820773Y-8615194D02*
X13830297Y-8624718D01*
X13830297Y-8624718D02*
X13839821Y-8643766D01*
X13839821Y-8643766D02*
X13839821Y-8700909D01*
X13839821Y-8700909D02*
X13830297Y-8719956D01*
X13830297Y-8719956D02*
X13820773Y-8729480D01*
X13820773Y-8729480D02*
X13801726Y-8739004D01*
X13801726Y-8739004D02*
X13773154Y-8739004D01*
X13954107Y-8739004D02*
X13935059Y-8729480D01*
X13935059Y-8729480D02*
X13925535Y-8710432D01*
X13925535Y-8710432D02*
X13925535Y-8539004D01*
X14106488Y-8729480D02*
X14087440Y-8739004D01*
X14087440Y-8739004D02*
X14049345Y-8739004D01*
X14049345Y-8739004D02*
X14030297Y-8729480D01*
X14030297Y-8729480D02*
X14020773Y-8710432D01*
X14020773Y-8710432D02*
X14020773Y-8634242D01*
X14020773Y-8634242D02*
X14030297Y-8615194D01*
X14030297Y-8615194D02*
X14049345Y-8605670D01*
X14049345Y-8605670D02*
X14087440Y-8605670D01*
X14087440Y-8605670D02*
X14106488Y-8615194D01*
X14106488Y-8615194D02*
X14116011Y-8634242D01*
X14116011Y-8634242D02*
X14116011Y-8653290D01*
X14116011Y-8653290D02*
X14020773Y-8672337D01*
X14192202Y-8729480D02*
X14211250Y-8739004D01*
X14211250Y-8739004D02*
X14249345Y-8739004D01*
X14249345Y-8739004D02*
X14268392Y-8729480D01*
X14268392Y-8729480D02*
X14277916Y-8710432D01*
X14277916Y-8710432D02*
X14277916Y-8700909D01*
X14277916Y-8700909D02*
X14268392Y-8681861D01*
X14268392Y-8681861D02*
X14249345Y-8672337D01*
X14249345Y-8672337D02*
X14220773Y-8672337D01*
X14220773Y-8672337D02*
X14201726Y-8662813D01*
X14201726Y-8662813D02*
X14192202Y-8643766D01*
X14192202Y-8643766D02*
X14192202Y-8634242D01*
X14192202Y-8634242D02*
X14201726Y-8615194D01*
X14201726Y-8615194D02*
X14220773Y-8605670D01*
X14220773Y-8605670D02*
X14249345Y-8605670D01*
X14249345Y-8605670D02*
X14268392Y-8615194D01*
X14516012Y-8662813D02*
X14668393Y-8662813D01*
X14592202Y-8739004D02*
X14592202Y-8586623D01*
X15001726Y-8605670D02*
X15001726Y-8739004D01*
X14954107Y-8529480D02*
X14906488Y-8672337D01*
X14906488Y-8672337D02*
X15030297Y-8672337D01*
X15249345Y-8729480D02*
X15268393Y-8739004D01*
X15268393Y-8739004D02*
X15306488Y-8739004D01*
X15306488Y-8739004D02*
X15325535Y-8729480D01*
X15325535Y-8729480D02*
X15335059Y-8710432D01*
X15335059Y-8710432D02*
X15335059Y-8700909D01*
X15335059Y-8700909D02*
X15325535Y-8681861D01*
X15325535Y-8681861D02*
X15306488Y-8672337D01*
X15306488Y-8672337D02*
X15277916Y-8672337D01*
X15277916Y-8672337D02*
X15258869Y-8662813D01*
X15258869Y-8662813D02*
X15249345Y-8643766D01*
X15249345Y-8643766D02*
X15249345Y-8634242D01*
X15249345Y-8634242D02*
X15258869Y-8615194D01*
X15258869Y-8615194D02*
X15277916Y-8605670D01*
X15277916Y-8605670D02*
X15306488Y-8605670D01*
X15306488Y-8605670D02*
X15325535Y-8615194D01*
X15449345Y-8739004D02*
X15430297Y-8729480D01*
X15430297Y-8729480D02*
X15420774Y-8710432D01*
X15420774Y-8710432D02*
X15420774Y-8539004D01*
X15554107Y-8739004D02*
X15535059Y-8729480D01*
X15535059Y-8729480D02*
X15525535Y-8719956D01*
X15525535Y-8719956D02*
X15516012Y-8700909D01*
X15516012Y-8700909D02*
X15516012Y-8643766D01*
X15516012Y-8643766D02*
X15525535Y-8624718D01*
X15525535Y-8624718D02*
X15535059Y-8615194D01*
X15535059Y-8615194D02*
X15554107Y-8605670D01*
X15554107Y-8605670D02*
X15582678Y-8605670D01*
X15582678Y-8605670D02*
X15601726Y-8615194D01*
X15601726Y-8615194D02*
X15611250Y-8624718D01*
X15611250Y-8624718D02*
X15620774Y-8643766D01*
X15620774Y-8643766D02*
X15620774Y-8700909D01*
X15620774Y-8700909D02*
X15611250Y-8719956D01*
X15611250Y-8719956D02*
X15601726Y-8729480D01*
X15601726Y-8729480D02*
X15582678Y-8739004D01*
X15582678Y-8739004D02*
X15554107Y-8739004D01*
X15677916Y-8605670D02*
X15754107Y-8605670D01*
X15706488Y-8539004D02*
X15706488Y-8710432D01*
X15706488Y-8710432D02*
X15716012Y-8729480D01*
X15716012Y-8729480D02*
X15735059Y-8739004D01*
X15735059Y-8739004D02*
X15754107Y-8739004D01*
X15811250Y-8729480D02*
X15830297Y-8739004D01*
X15830297Y-8739004D02*
X15868393Y-8739004D01*
X15868393Y-8739004D02*
X15887440Y-8729480D01*
X15887440Y-8729480D02*
X15896964Y-8710432D01*
X15896964Y-8710432D02*
X15896964Y-8700909D01*
X15896964Y-8700909D02*
X15887440Y-8681861D01*
X15887440Y-8681861D02*
X15868393Y-8672337D01*
X15868393Y-8672337D02*
X15839821Y-8672337D01*
X15839821Y-8672337D02*
X15820774Y-8662813D01*
X15820774Y-8662813D02*
X15811250Y-8643766D01*
X15811250Y-8643766D02*
X15811250Y-8634242D01*
X15811250Y-8634242D02*
X15820774Y-8615194D01*
X15820774Y-8615194D02*
X15839821Y-8605670D01*
X15839821Y-8605670D02*
X15868393Y-8605670D01*
X15868393Y-8605670D02*
X15887440Y-8615194D01*
X15963631Y-8815194D02*
X15973155Y-8805670D01*
X15973155Y-8805670D02*
X15992202Y-8777099D01*
X15992202Y-8777099D02*
X16001726Y-8758051D01*
X16001726Y-8758051D02*
X16011250Y-8729480D01*
X16011250Y-8729480D02*
X16020774Y-8681861D01*
X16020774Y-8681861D02*
X16020774Y-8643766D01*
X16020774Y-8643766D02*
X16011250Y-8596147D01*
X16011250Y-8596147D02*
X16001726Y-8567575D01*
X16001726Y-8567575D02*
X15992202Y-8548528D01*
X15992202Y-8548528D02*
X15973155Y-8519956D01*
X15973155Y-8519956D02*
X15963631Y-8510432D01*
D10*
X9537020Y-8879020D02*
X9537020Y-8944020D01*
X9504520Y-8911520D02*
X9569520Y-8911520D01*
D11*
X9868392Y-8803004D02*
X9887440Y-8803004D01*
X9887440Y-8803004D02*
X9906487Y-8812528D01*
X9906487Y-8812528D02*
X9916011Y-8822051D01*
X9916011Y-8822051D02*
X9925535Y-8841099D01*
X9925535Y-8841099D02*
X9935059Y-8879194D01*
X9935059Y-8879194D02*
X9935059Y-8926813D01*
X9935059Y-8926813D02*
X9925535Y-8964909D01*
X9925535Y-8964909D02*
X9916011Y-8983956D01*
X9916011Y-8983956D02*
X9906487Y-8993480D01*
X9906487Y-8993480D02*
X9887440Y-9003004D01*
X9887440Y-9003004D02*
X9868392Y-9003004D01*
X9868392Y-9003004D02*
X9849344Y-8993480D01*
X9849344Y-8993480D02*
X9839821Y-8983956D01*
X9839821Y-8983956D02*
X9830297Y-8964909D01*
X9830297Y-8964909D02*
X9820773Y-8926813D01*
X9820773Y-8926813D02*
X9820773Y-8879194D01*
X9820773Y-8879194D02*
X9830297Y-8841099D01*
X9830297Y-8841099D02*
X9839821Y-8822051D01*
X9839821Y-8822051D02*
X9849344Y-8812528D01*
X9849344Y-8812528D02*
X9868392Y-8803004D01*
X10020773Y-8983956D02*
X10030297Y-8993480D01*
X10030297Y-8993480D02*
X10020773Y-9003004D01*
X10020773Y-9003004D02*
X10011249Y-8993480D01*
X10011249Y-8993480D02*
X10020773Y-8983956D01*
X10020773Y-8983956D02*
X10020773Y-9003004D01*
X10201725Y-8803004D02*
X10163630Y-8803004D01*
X10163630Y-8803004D02*
X10144583Y-8812528D01*
X10144583Y-8812528D02*
X10135059Y-8822051D01*
X10135059Y-8822051D02*
X10116011Y-8850623D01*
X10116011Y-8850623D02*
X10106487Y-8888718D01*
X10106487Y-8888718D02*
X10106487Y-8964909D01*
X10106487Y-8964909D02*
X10116011Y-8983956D01*
X10116011Y-8983956D02*
X10125535Y-8993480D01*
X10125535Y-8993480D02*
X10144583Y-9003004D01*
X10144583Y-9003004D02*
X10182678Y-9003004D01*
X10182678Y-9003004D02*
X10201725Y-8993480D01*
X10201725Y-8993480D02*
X10211249Y-8983956D01*
X10211249Y-8983956D02*
X10220773Y-8964909D01*
X10220773Y-8964909D02*
X10220773Y-8917290D01*
X10220773Y-8917290D02*
X10211249Y-8898242D01*
X10211249Y-8898242D02*
X10201725Y-8888718D01*
X10201725Y-8888718D02*
X10182678Y-8879194D01*
X10182678Y-8879194D02*
X10144583Y-8879194D01*
X10144583Y-8879194D02*
X10125535Y-8888718D01*
X10125535Y-8888718D02*
X10116011Y-8898242D01*
X10116011Y-8898242D02*
X10106487Y-8917290D01*
X10401725Y-8803004D02*
X10306487Y-8803004D01*
X10306487Y-8803004D02*
X10296964Y-8898242D01*
X10296964Y-8898242D02*
X10306487Y-8888718D01*
X10306487Y-8888718D02*
X10325535Y-8879194D01*
X10325535Y-8879194D02*
X10373154Y-8879194D01*
X10373154Y-8879194D02*
X10392202Y-8888718D01*
X10392202Y-8888718D02*
X10401725Y-8898242D01*
X10401725Y-8898242D02*
X10411249Y-8917290D01*
X10411249Y-8917290D02*
X10411249Y-8964909D01*
X10411249Y-8964909D02*
X10401725Y-8983956D01*
X10401725Y-8983956D02*
X10392202Y-8993480D01*
X10392202Y-8993480D02*
X10373154Y-9003004D01*
X10373154Y-9003004D02*
X10325535Y-9003004D01*
X10325535Y-9003004D02*
X10306487Y-8993480D01*
X10306487Y-8993480D02*
X10296964Y-8983956D01*
X10535059Y-8803004D02*
X10554106Y-8803004D01*
X10554106Y-8803004D02*
X10573154Y-8812528D01*
X10573154Y-8812528D02*
X10582678Y-8822051D01*
X10582678Y-8822051D02*
X10592202Y-8841099D01*
X10592202Y-8841099D02*
X10601725Y-8879194D01*
X10601725Y-8879194D02*
X10601725Y-8926813D01*
X10601725Y-8926813D02*
X10592202Y-8964909D01*
X10592202Y-8964909D02*
X10582678Y-8983956D01*
X10582678Y-8983956D02*
X10573154Y-8993480D01*
X10573154Y-8993480D02*
X10554106Y-9003004D01*
X10554106Y-9003004D02*
X10535059Y-9003004D01*
X10535059Y-9003004D02*
X10516011Y-8993480D01*
X10516011Y-8993480D02*
X10506487Y-8983956D01*
X10506487Y-8983956D02*
X10496964Y-8964909D01*
X10496964Y-8964909D02*
X10487440Y-8926813D01*
X10487440Y-8926813D02*
X10487440Y-8879194D01*
X10487440Y-8879194D02*
X10496964Y-8841099D01*
X10496964Y-8841099D02*
X10506487Y-8822051D01*
X10506487Y-8822051D02*
X10516011Y-8812528D01*
X10516011Y-8812528D02*
X10535059Y-8803004D01*
X10687440Y-9003004D02*
X10687440Y-8869670D01*
X10687440Y-8888718D02*
X10696964Y-8879194D01*
X10696964Y-8879194D02*
X10716011Y-8869670D01*
X10716011Y-8869670D02*
X10744583Y-8869670D01*
X10744583Y-8869670D02*
X10763630Y-8879194D01*
X10763630Y-8879194D02*
X10773154Y-8898242D01*
X10773154Y-8898242D02*
X10773154Y-9003004D01*
X10773154Y-8898242D02*
X10782678Y-8879194D01*
X10782678Y-8879194D02*
X10801725Y-8869670D01*
X10801725Y-8869670D02*
X10830297Y-8869670D01*
X10830297Y-8869670D02*
X10849345Y-8879194D01*
X10849345Y-8879194D02*
X10858868Y-8898242D01*
X10858868Y-8898242D02*
X10858868Y-9003004D01*
X10954106Y-9003004D02*
X10954106Y-8869670D01*
X10954106Y-8888718D02*
X10963630Y-8879194D01*
X10963630Y-8879194D02*
X10982678Y-8869670D01*
X10982678Y-8869670D02*
X11011249Y-8869670D01*
X11011249Y-8869670D02*
X11030297Y-8879194D01*
X11030297Y-8879194D02*
X11039821Y-8898242D01*
X11039821Y-8898242D02*
X11039821Y-9003004D01*
X11039821Y-8898242D02*
X11049345Y-8879194D01*
X11049345Y-8879194D02*
X11068392Y-8869670D01*
X11068392Y-8869670D02*
X11096964Y-8869670D01*
X11096964Y-8869670D02*
X11116011Y-8879194D01*
X11116011Y-8879194D02*
X11125535Y-8898242D01*
X11125535Y-8898242D02*
X11125535Y-9003004D01*
X11516011Y-8793480D02*
X11344583Y-9050623D01*
X11773154Y-8803004D02*
X11792202Y-8803004D01*
X11792202Y-8803004D02*
X11811249Y-8812528D01*
X11811249Y-8812528D02*
X11820773Y-8822051D01*
X11820773Y-8822051D02*
X11830297Y-8841099D01*
X11830297Y-8841099D02*
X11839821Y-8879194D01*
X11839821Y-8879194D02*
X11839821Y-8926813D01*
X11839821Y-8926813D02*
X11830297Y-8964909D01*
X11830297Y-8964909D02*
X11820773Y-8983956D01*
X11820773Y-8983956D02*
X11811249Y-8993480D01*
X11811249Y-8993480D02*
X11792202Y-9003004D01*
X11792202Y-9003004D02*
X11773154Y-9003004D01*
X11773154Y-9003004D02*
X11754106Y-8993480D01*
X11754106Y-8993480D02*
X11744583Y-8983956D01*
X11744583Y-8983956D02*
X11735059Y-8964909D01*
X11735059Y-8964909D02*
X11725535Y-8926813D01*
X11725535Y-8926813D02*
X11725535Y-8879194D01*
X11725535Y-8879194D02*
X11735059Y-8841099D01*
X11735059Y-8841099D02*
X11744583Y-8822051D01*
X11744583Y-8822051D02*
X11754106Y-8812528D01*
X11754106Y-8812528D02*
X11773154Y-8803004D01*
X11925535Y-8983956D02*
X11935059Y-8993480D01*
X11935059Y-8993480D02*
X11925535Y-9003004D01*
X11925535Y-9003004D02*
X11916011Y-8993480D01*
X11916011Y-8993480D02*
X11925535Y-8983956D01*
X11925535Y-8983956D02*
X11925535Y-9003004D01*
X12058868Y-8803004D02*
X12077916Y-8803004D01*
X12077916Y-8803004D02*
X12096964Y-8812528D01*
X12096964Y-8812528D02*
X12106487Y-8822051D01*
X12106487Y-8822051D02*
X12116011Y-8841099D01*
X12116011Y-8841099D02*
X12125535Y-8879194D01*
X12125535Y-8879194D02*
X12125535Y-8926813D01*
X12125535Y-8926813D02*
X12116011Y-8964909D01*
X12116011Y-8964909D02*
X12106487Y-8983956D01*
X12106487Y-8983956D02*
X12096964Y-8993480D01*
X12096964Y-8993480D02*
X12077916Y-9003004D01*
X12077916Y-9003004D02*
X12058868Y-9003004D01*
X12058868Y-9003004D02*
X12039821Y-8993480D01*
X12039821Y-8993480D02*
X12030297Y-8983956D01*
X12030297Y-8983956D02*
X12020773Y-8964909D01*
X12020773Y-8964909D02*
X12011249Y-8926813D01*
X12011249Y-8926813D02*
X12011249Y-8879194D01*
X12011249Y-8879194D02*
X12020773Y-8841099D01*
X12020773Y-8841099D02*
X12030297Y-8822051D01*
X12030297Y-8822051D02*
X12039821Y-8812528D01*
X12039821Y-8812528D02*
X12058868Y-8803004D01*
X12201726Y-8822051D02*
X12211249Y-8812528D01*
X12211249Y-8812528D02*
X12230297Y-8803004D01*
X12230297Y-8803004D02*
X12277916Y-8803004D01*
X12277916Y-8803004D02*
X12296964Y-8812528D01*
X12296964Y-8812528D02*
X12306487Y-8822051D01*
X12306487Y-8822051D02*
X12316011Y-8841099D01*
X12316011Y-8841099D02*
X12316011Y-8860147D01*
X12316011Y-8860147D02*
X12306487Y-8888718D01*
X12306487Y-8888718D02*
X12192202Y-9003004D01*
X12192202Y-9003004D02*
X12316011Y-9003004D01*
X12496964Y-8803004D02*
X12401726Y-8803004D01*
X12401726Y-8803004D02*
X12392202Y-8898242D01*
X12392202Y-8898242D02*
X12401726Y-8888718D01*
X12401726Y-8888718D02*
X12420773Y-8879194D01*
X12420773Y-8879194D02*
X12468392Y-8879194D01*
X12468392Y-8879194D02*
X12487440Y-8888718D01*
X12487440Y-8888718D02*
X12496964Y-8898242D01*
X12496964Y-8898242D02*
X12506487Y-8917290D01*
X12506487Y-8917290D02*
X12506487Y-8964909D01*
X12506487Y-8964909D02*
X12496964Y-8983956D01*
X12496964Y-8983956D02*
X12487440Y-8993480D01*
X12487440Y-8993480D02*
X12468392Y-9003004D01*
X12468392Y-9003004D02*
X12420773Y-9003004D01*
X12420773Y-9003004D02*
X12401726Y-8993480D01*
X12401726Y-8993480D02*
X12392202Y-8983956D01*
X12677916Y-8803004D02*
X12639821Y-8803004D01*
X12639821Y-8803004D02*
X12620773Y-8812528D01*
X12620773Y-8812528D02*
X12611249Y-8822051D01*
X12611249Y-8822051D02*
X12592202Y-8850623D01*
X12592202Y-8850623D02*
X12582678Y-8888718D01*
X12582678Y-8888718D02*
X12582678Y-8964909D01*
X12582678Y-8964909D02*
X12592202Y-8983956D01*
X12592202Y-8983956D02*
X12601726Y-8993480D01*
X12601726Y-8993480D02*
X12620773Y-9003004D01*
X12620773Y-9003004D02*
X12658868Y-9003004D01*
X12658868Y-9003004D02*
X12677916Y-8993480D01*
X12677916Y-8993480D02*
X12687440Y-8983956D01*
X12687440Y-8983956D02*
X12696964Y-8964909D01*
X12696964Y-8964909D02*
X12696964Y-8917290D01*
X12696964Y-8917290D02*
X12687440Y-8898242D01*
X12687440Y-8898242D02*
X12677916Y-8888718D01*
X12677916Y-8888718D02*
X12658868Y-8879194D01*
X12658868Y-8879194D02*
X12620773Y-8879194D01*
X12620773Y-8879194D02*
X12601726Y-8888718D01*
X12601726Y-8888718D02*
X12592202Y-8898242D01*
X12592202Y-8898242D02*
X12582678Y-8917290D01*
X12773154Y-8803004D02*
X12773154Y-8841099D01*
X12849345Y-8803004D02*
X12849345Y-8841099D01*
X13144583Y-9079194D02*
X13135059Y-9069670D01*
X13135059Y-9069670D02*
X13116011Y-9041099D01*
X13116011Y-9041099D02*
X13106488Y-9022051D01*
X13106488Y-9022051D02*
X13096964Y-8993480D01*
X13096964Y-8993480D02*
X13087440Y-8945861D01*
X13087440Y-8945861D02*
X13087440Y-8907766D01*
X13087440Y-8907766D02*
X13096964Y-8860147D01*
X13096964Y-8860147D02*
X13106488Y-8831575D01*
X13106488Y-8831575D02*
X13116011Y-8812528D01*
X13116011Y-8812528D02*
X13135059Y-8783956D01*
X13135059Y-8783956D02*
X13144583Y-8774432D01*
X13211249Y-8822051D02*
X13220773Y-8812528D01*
X13220773Y-8812528D02*
X13239821Y-8803004D01*
X13239821Y-8803004D02*
X13287440Y-8803004D01*
X13287440Y-8803004D02*
X13306488Y-8812528D01*
X13306488Y-8812528D02*
X13316011Y-8822051D01*
X13316011Y-8822051D02*
X13325535Y-8841099D01*
X13325535Y-8841099D02*
X13325535Y-8860147D01*
X13325535Y-8860147D02*
X13316011Y-8888718D01*
X13316011Y-8888718D02*
X13201726Y-9003004D01*
X13201726Y-9003004D02*
X13325535Y-9003004D01*
X13563630Y-9003004D02*
X13563630Y-8803004D01*
X13649345Y-9003004D02*
X13649345Y-8898242D01*
X13649345Y-8898242D02*
X13639821Y-8879194D01*
X13639821Y-8879194D02*
X13620773Y-8869670D01*
X13620773Y-8869670D02*
X13592202Y-8869670D01*
X13592202Y-8869670D02*
X13573154Y-8879194D01*
X13573154Y-8879194D02*
X13563630Y-8888718D01*
X13773154Y-9003004D02*
X13754107Y-8993480D01*
X13754107Y-8993480D02*
X13744583Y-8983956D01*
X13744583Y-8983956D02*
X13735059Y-8964909D01*
X13735059Y-8964909D02*
X13735059Y-8907766D01*
X13735059Y-8907766D02*
X13744583Y-8888718D01*
X13744583Y-8888718D02*
X13754107Y-8879194D01*
X13754107Y-8879194D02*
X13773154Y-8869670D01*
X13773154Y-8869670D02*
X13801726Y-8869670D01*
X13801726Y-8869670D02*
X13820773Y-8879194D01*
X13820773Y-8879194D02*
X13830297Y-8888718D01*
X13830297Y-8888718D02*
X13839821Y-8907766D01*
X13839821Y-8907766D02*
X13839821Y-8964909D01*
X13839821Y-8964909D02*
X13830297Y-8983956D01*
X13830297Y-8983956D02*
X13820773Y-8993480D01*
X13820773Y-8993480D02*
X13801726Y-9003004D01*
X13801726Y-9003004D02*
X13773154Y-9003004D01*
X13954107Y-9003004D02*
X13935059Y-8993480D01*
X13935059Y-8993480D02*
X13925535Y-8974432D01*
X13925535Y-8974432D02*
X13925535Y-8803004D01*
X14106488Y-8993480D02*
X14087440Y-9003004D01*
X14087440Y-9003004D02*
X14049345Y-9003004D01*
X14049345Y-9003004D02*
X14030297Y-8993480D01*
X14030297Y-8993480D02*
X14020773Y-8974432D01*
X14020773Y-8974432D02*
X14020773Y-8898242D01*
X14020773Y-8898242D02*
X14030297Y-8879194D01*
X14030297Y-8879194D02*
X14049345Y-8869670D01*
X14049345Y-8869670D02*
X14087440Y-8869670D01*
X14087440Y-8869670D02*
X14106488Y-8879194D01*
X14106488Y-8879194D02*
X14116011Y-8898242D01*
X14116011Y-8898242D02*
X14116011Y-8917290D01*
X14116011Y-8917290D02*
X14020773Y-8936337D01*
X14192202Y-8993480D02*
X14211250Y-9003004D01*
X14211250Y-9003004D02*
X14249345Y-9003004D01*
X14249345Y-9003004D02*
X14268392Y-8993480D01*
X14268392Y-8993480D02*
X14277916Y-8974432D01*
X14277916Y-8974432D02*
X14277916Y-8964909D01*
X14277916Y-8964909D02*
X14268392Y-8945861D01*
X14268392Y-8945861D02*
X14249345Y-8936337D01*
X14249345Y-8936337D02*
X14220773Y-8936337D01*
X14220773Y-8936337D02*
X14201726Y-8926813D01*
X14201726Y-8926813D02*
X14192202Y-8907766D01*
X14192202Y-8907766D02*
X14192202Y-8898242D01*
X14192202Y-8898242D02*
X14201726Y-8879194D01*
X14201726Y-8879194D02*
X14220773Y-8869670D01*
X14220773Y-8869670D02*
X14249345Y-8869670D01*
X14249345Y-8869670D02*
X14268392Y-8879194D01*
X14344583Y-9079194D02*
X14354107Y-9069670D01*
X14354107Y-9069670D02*
X14373154Y-9041099D01*
X14373154Y-9041099D02*
X14382678Y-9022051D01*
X14382678Y-9022051D02*
X14392202Y-8993480D01*
X14392202Y-8993480D02*
X14401726Y-8945861D01*
X14401726Y-8945861D02*
X14401726Y-8907766D01*
X14401726Y-8907766D02*
X14392202Y-8860147D01*
X14392202Y-8860147D02*
X14382678Y-8831575D01*
X14382678Y-8831575D02*
X14373154Y-8812528D01*
X14373154Y-8812528D02*
X14354107Y-8783956D01*
X14354107Y-8783956D02*
X14344583Y-8774432D01*
X14706488Y-9079194D02*
X14696964Y-9069670D01*
X14696964Y-9069670D02*
X14677916Y-9041099D01*
X14677916Y-9041099D02*
X14668392Y-9022051D01*
X14668392Y-9022051D02*
X14658869Y-8993480D01*
X14658869Y-8993480D02*
X14649345Y-8945861D01*
X14649345Y-8945861D02*
X14649345Y-8907766D01*
X14649345Y-8907766D02*
X14658869Y-8860147D01*
X14658869Y-8860147D02*
X14668392Y-8831575D01*
X14668392Y-8831575D02*
X14677916Y-8812528D01*
X14677916Y-8812528D02*
X14696964Y-8783956D01*
X14696964Y-8783956D02*
X14706488Y-8774432D01*
X14782678Y-8869670D02*
X14782678Y-9003004D01*
X14782678Y-8888718D02*
X14792202Y-8879194D01*
X14792202Y-8879194D02*
X14811250Y-8869670D01*
X14811250Y-8869670D02*
X14839821Y-8869670D01*
X14839821Y-8869670D02*
X14858869Y-8879194D01*
X14858869Y-8879194D02*
X14868392Y-8898242D01*
X14868392Y-8898242D02*
X14868392Y-9003004D01*
X14992202Y-9003004D02*
X14973154Y-8993480D01*
X14973154Y-8993480D02*
X14963631Y-8983956D01*
X14963631Y-8983956D02*
X14954107Y-8964909D01*
X14954107Y-8964909D02*
X14954107Y-8907766D01*
X14954107Y-8907766D02*
X14963631Y-8888718D01*
X14963631Y-8888718D02*
X14973154Y-8879194D01*
X14973154Y-8879194D02*
X14992202Y-8869670D01*
X14992202Y-8869670D02*
X15020773Y-8869670D01*
X15020773Y-8869670D02*
X15039821Y-8879194D01*
X15039821Y-8879194D02*
X15049345Y-8888718D01*
X15049345Y-8888718D02*
X15058869Y-8907766D01*
X15058869Y-8907766D02*
X15058869Y-8964909D01*
X15058869Y-8964909D02*
X15049345Y-8983956D01*
X15049345Y-8983956D02*
X15039821Y-8993480D01*
X15039821Y-8993480D02*
X15020773Y-9003004D01*
X15020773Y-9003004D02*
X14992202Y-9003004D01*
X15116012Y-8869670D02*
X15192202Y-8869670D01*
X15144583Y-8803004D02*
X15144583Y-8974432D01*
X15144583Y-8974432D02*
X15154107Y-8993480D01*
X15154107Y-8993480D02*
X15173154Y-9003004D01*
X15173154Y-9003004D02*
X15192202Y-9003004D01*
X15411250Y-8869670D02*
X15411250Y-9069670D01*
X15411250Y-8879194D02*
X15430297Y-8869670D01*
X15430297Y-8869670D02*
X15468393Y-8869670D01*
X15468393Y-8869670D02*
X15487440Y-8879194D01*
X15487440Y-8879194D02*
X15496964Y-8888718D01*
X15496964Y-8888718D02*
X15506488Y-8907766D01*
X15506488Y-8907766D02*
X15506488Y-8964909D01*
X15506488Y-8964909D02*
X15496964Y-8983956D01*
X15496964Y-8983956D02*
X15487440Y-8993480D01*
X15487440Y-8993480D02*
X15468393Y-9003004D01*
X15468393Y-9003004D02*
X15430297Y-9003004D01*
X15430297Y-9003004D02*
X15411250Y-8993480D01*
X15620773Y-9003004D02*
X15601726Y-8993480D01*
X15601726Y-8993480D02*
X15592202Y-8974432D01*
X15592202Y-8974432D02*
X15592202Y-8803004D01*
X15782678Y-9003004D02*
X15782678Y-8898242D01*
X15782678Y-8898242D02*
X15773154Y-8879194D01*
X15773154Y-8879194D02*
X15754107Y-8869670D01*
X15754107Y-8869670D02*
X15716012Y-8869670D01*
X15716012Y-8869670D02*
X15696964Y-8879194D01*
X15782678Y-8993480D02*
X15763631Y-9003004D01*
X15763631Y-9003004D02*
X15716012Y-9003004D01*
X15716012Y-9003004D02*
X15696964Y-8993480D01*
X15696964Y-8993480D02*
X15687440Y-8974432D01*
X15687440Y-8974432D02*
X15687440Y-8955385D01*
X15687440Y-8955385D02*
X15696964Y-8936337D01*
X15696964Y-8936337D02*
X15716012Y-8926813D01*
X15716012Y-8926813D02*
X15763631Y-8926813D01*
X15763631Y-8926813D02*
X15782678Y-8917290D01*
X15849345Y-8869670D02*
X15925535Y-8869670D01*
X15877916Y-8803004D02*
X15877916Y-8974432D01*
X15877916Y-8974432D02*
X15887440Y-8993480D01*
X15887440Y-8993480D02*
X15906488Y-9003004D01*
X15906488Y-9003004D02*
X15925535Y-9003004D01*
X16068393Y-8993480D02*
X16049345Y-9003004D01*
X16049345Y-9003004D02*
X16011250Y-9003004D01*
X16011250Y-9003004D02*
X15992202Y-8993480D01*
X15992202Y-8993480D02*
X15982678Y-8974432D01*
X15982678Y-8974432D02*
X15982678Y-8898242D01*
X15982678Y-8898242D02*
X15992202Y-8879194D01*
X15992202Y-8879194D02*
X16011250Y-8869670D01*
X16011250Y-8869670D02*
X16049345Y-8869670D01*
X16049345Y-8869670D02*
X16068393Y-8879194D01*
X16068393Y-8879194D02*
X16077916Y-8898242D01*
X16077916Y-8898242D02*
X16077916Y-8917290D01*
X16077916Y-8917290D02*
X15982678Y-8936337D01*
X16249345Y-9003004D02*
X16249345Y-8803004D01*
X16249345Y-8993480D02*
X16230297Y-9003004D01*
X16230297Y-9003004D02*
X16192202Y-9003004D01*
X16192202Y-9003004D02*
X16173154Y-8993480D01*
X16173154Y-8993480D02*
X16163631Y-8983956D01*
X16163631Y-8983956D02*
X16154107Y-8964909D01*
X16154107Y-8964909D02*
X16154107Y-8907766D01*
X16154107Y-8907766D02*
X16163631Y-8888718D01*
X16163631Y-8888718D02*
X16173154Y-8879194D01*
X16173154Y-8879194D02*
X16192202Y-8869670D01*
X16192202Y-8869670D02*
X16230297Y-8869670D01*
X16230297Y-8869670D02*
X16249345Y-8879194D01*
X16325535Y-9079194D02*
X16335059Y-9069670D01*
X16335059Y-9069670D02*
X16354107Y-9041099D01*
X16354107Y-9041099D02*
X16363631Y-9022051D01*
X16363631Y-9022051D02*
X16373154Y-8993480D01*
X16373154Y-8993480D02*
X16382678Y-8945861D01*
X16382678Y-8945861D02*
X16382678Y-8907766D01*
X16382678Y-8907766D02*
X16373154Y-8860147D01*
X16373154Y-8860147D02*
X16363631Y-8831575D01*
X16363631Y-8831575D02*
X16354107Y-8812528D01*
X16354107Y-8812528D02*
X16335059Y-8783956D01*
X16335059Y-8783956D02*
X16325535Y-8774432D01*
D10*
X9557805Y-9203805D02*
X9557805Y-9147236D01*
X9501236Y-9147236D01*
X9501236Y-9203805D01*
X9557805Y-9203805D01*
D11*
X9868392Y-9067004D02*
X9887440Y-9067004D01*
X9887440Y-9067004D02*
X9906487Y-9076528D01*
X9906487Y-9076528D02*
X9916011Y-9086051D01*
X9916011Y-9086051D02*
X9925535Y-9105099D01*
X9925535Y-9105099D02*
X9935059Y-9143194D01*
X9935059Y-9143194D02*
X9935059Y-9190813D01*
X9935059Y-9190813D02*
X9925535Y-9228909D01*
X9925535Y-9228909D02*
X9916011Y-9247956D01*
X9916011Y-9247956D02*
X9906487Y-9257480D01*
X9906487Y-9257480D02*
X9887440Y-9267004D01*
X9887440Y-9267004D02*
X9868392Y-9267004D01*
X9868392Y-9267004D02*
X9849344Y-9257480D01*
X9849344Y-9257480D02*
X9839821Y-9247956D01*
X9839821Y-9247956D02*
X9830297Y-9228909D01*
X9830297Y-9228909D02*
X9820773Y-9190813D01*
X9820773Y-9190813D02*
X9820773Y-9143194D01*
X9820773Y-9143194D02*
X9830297Y-9105099D01*
X9830297Y-9105099D02*
X9839821Y-9086051D01*
X9839821Y-9086051D02*
X9849344Y-9076528D01*
X9849344Y-9076528D02*
X9868392Y-9067004D01*
X10020773Y-9247956D02*
X10030297Y-9257480D01*
X10030297Y-9257480D02*
X10020773Y-9267004D01*
X10020773Y-9267004D02*
X10011249Y-9257480D01*
X10011249Y-9257480D02*
X10020773Y-9247956D01*
X10020773Y-9247956D02*
X10020773Y-9267004D01*
X10144583Y-9152718D02*
X10125535Y-9143194D01*
X10125535Y-9143194D02*
X10116011Y-9133670D01*
X10116011Y-9133670D02*
X10106487Y-9114623D01*
X10106487Y-9114623D02*
X10106487Y-9105099D01*
X10106487Y-9105099D02*
X10116011Y-9086051D01*
X10116011Y-9086051D02*
X10125535Y-9076528D01*
X10125535Y-9076528D02*
X10144583Y-9067004D01*
X10144583Y-9067004D02*
X10182678Y-9067004D01*
X10182678Y-9067004D02*
X10201725Y-9076528D01*
X10201725Y-9076528D02*
X10211249Y-9086051D01*
X10211249Y-9086051D02*
X10220773Y-9105099D01*
X10220773Y-9105099D02*
X10220773Y-9114623D01*
X10220773Y-9114623D02*
X10211249Y-9133670D01*
X10211249Y-9133670D02*
X10201725Y-9143194D01*
X10201725Y-9143194D02*
X10182678Y-9152718D01*
X10182678Y-9152718D02*
X10144583Y-9152718D01*
X10144583Y-9152718D02*
X10125535Y-9162242D01*
X10125535Y-9162242D02*
X10116011Y-9171766D01*
X10116011Y-9171766D02*
X10106487Y-9190813D01*
X10106487Y-9190813D02*
X10106487Y-9228909D01*
X10106487Y-9228909D02*
X10116011Y-9247956D01*
X10116011Y-9247956D02*
X10125535Y-9257480D01*
X10125535Y-9257480D02*
X10144583Y-9267004D01*
X10144583Y-9267004D02*
X10182678Y-9267004D01*
X10182678Y-9267004D02*
X10201725Y-9257480D01*
X10201725Y-9257480D02*
X10211249Y-9247956D01*
X10211249Y-9247956D02*
X10220773Y-9228909D01*
X10220773Y-9228909D02*
X10220773Y-9190813D01*
X10220773Y-9190813D02*
X10211249Y-9171766D01*
X10211249Y-9171766D02*
X10201725Y-9162242D01*
X10201725Y-9162242D02*
X10182678Y-9152718D01*
X10344583Y-9067004D02*
X10363630Y-9067004D01*
X10363630Y-9067004D02*
X10382678Y-9076528D01*
X10382678Y-9076528D02*
X10392202Y-9086051D01*
X10392202Y-9086051D02*
X10401725Y-9105099D01*
X10401725Y-9105099D02*
X10411249Y-9143194D01*
X10411249Y-9143194D02*
X10411249Y-9190813D01*
X10411249Y-9190813D02*
X10401725Y-9228909D01*
X10401725Y-9228909D02*
X10392202Y-9247956D01*
X10392202Y-9247956D02*
X10382678Y-9257480D01*
X10382678Y-9257480D02*
X10363630Y-9267004D01*
X10363630Y-9267004D02*
X10344583Y-9267004D01*
X10344583Y-9267004D02*
X10325535Y-9257480D01*
X10325535Y-9257480D02*
X10316011Y-9247956D01*
X10316011Y-9247956D02*
X10306487Y-9228909D01*
X10306487Y-9228909D02*
X10296964Y-9190813D01*
X10296964Y-9190813D02*
X10296964Y-9143194D01*
X10296964Y-9143194D02*
X10306487Y-9105099D01*
X10306487Y-9105099D02*
X10316011Y-9086051D01*
X10316011Y-9086051D02*
X10325535Y-9076528D01*
X10325535Y-9076528D02*
X10344583Y-9067004D01*
X10535059Y-9067004D02*
X10554106Y-9067004D01*
X10554106Y-9067004D02*
X10573154Y-9076528D01*
X10573154Y-9076528D02*
X10582678Y-9086051D01*
X10582678Y-9086051D02*
X10592202Y-9105099D01*
X10592202Y-9105099D02*
X10601725Y-9143194D01*
X10601725Y-9143194D02*
X10601725Y-9190813D01*
X10601725Y-9190813D02*
X10592202Y-9228909D01*
X10592202Y-9228909D02*
X10582678Y-9247956D01*
X10582678Y-9247956D02*
X10573154Y-9257480D01*
X10573154Y-9257480D02*
X10554106Y-9267004D01*
X10554106Y-9267004D02*
X10535059Y-9267004D01*
X10535059Y-9267004D02*
X10516011Y-9257480D01*
X10516011Y-9257480D02*
X10506487Y-9247956D01*
X10506487Y-9247956D02*
X10496964Y-9228909D01*
X10496964Y-9228909D02*
X10487440Y-9190813D01*
X10487440Y-9190813D02*
X10487440Y-9143194D01*
X10487440Y-9143194D02*
X10496964Y-9105099D01*
X10496964Y-9105099D02*
X10506487Y-9086051D01*
X10506487Y-9086051D02*
X10516011Y-9076528D01*
X10516011Y-9076528D02*
X10535059Y-9067004D01*
X10687440Y-9267004D02*
X10687440Y-9133670D01*
X10687440Y-9152718D02*
X10696964Y-9143194D01*
X10696964Y-9143194D02*
X10716011Y-9133670D01*
X10716011Y-9133670D02*
X10744583Y-9133670D01*
X10744583Y-9133670D02*
X10763630Y-9143194D01*
X10763630Y-9143194D02*
X10773154Y-9162242D01*
X10773154Y-9162242D02*
X10773154Y-9267004D01*
X10773154Y-9162242D02*
X10782678Y-9143194D01*
X10782678Y-9143194D02*
X10801725Y-9133670D01*
X10801725Y-9133670D02*
X10830297Y-9133670D01*
X10830297Y-9133670D02*
X10849345Y-9143194D01*
X10849345Y-9143194D02*
X10858868Y-9162242D01*
X10858868Y-9162242D02*
X10858868Y-9267004D01*
X10954106Y-9267004D02*
X10954106Y-9133670D01*
X10954106Y-9152718D02*
X10963630Y-9143194D01*
X10963630Y-9143194D02*
X10982678Y-9133670D01*
X10982678Y-9133670D02*
X11011249Y-9133670D01*
X11011249Y-9133670D02*
X11030297Y-9143194D01*
X11030297Y-9143194D02*
X11039821Y-9162242D01*
X11039821Y-9162242D02*
X11039821Y-9267004D01*
X11039821Y-9162242D02*
X11049345Y-9143194D01*
X11049345Y-9143194D02*
X11068392Y-9133670D01*
X11068392Y-9133670D02*
X11096964Y-9133670D01*
X11096964Y-9133670D02*
X11116011Y-9143194D01*
X11116011Y-9143194D02*
X11125535Y-9162242D01*
X11125535Y-9162242D02*
X11125535Y-9267004D01*
X11516011Y-9057480D02*
X11344583Y-9314623D01*
X11773154Y-9067004D02*
X11792202Y-9067004D01*
X11792202Y-9067004D02*
X11811249Y-9076528D01*
X11811249Y-9076528D02*
X11820773Y-9086051D01*
X11820773Y-9086051D02*
X11830297Y-9105099D01*
X11830297Y-9105099D02*
X11839821Y-9143194D01*
X11839821Y-9143194D02*
X11839821Y-9190813D01*
X11839821Y-9190813D02*
X11830297Y-9228909D01*
X11830297Y-9228909D02*
X11820773Y-9247956D01*
X11820773Y-9247956D02*
X11811249Y-9257480D01*
X11811249Y-9257480D02*
X11792202Y-9267004D01*
X11792202Y-9267004D02*
X11773154Y-9267004D01*
X11773154Y-9267004D02*
X11754106Y-9257480D01*
X11754106Y-9257480D02*
X11744583Y-9247956D01*
X11744583Y-9247956D02*
X11735059Y-9228909D01*
X11735059Y-9228909D02*
X11725535Y-9190813D01*
X11725535Y-9190813D02*
X11725535Y-9143194D01*
X11725535Y-9143194D02*
X11735059Y-9105099D01*
X11735059Y-9105099D02*
X11744583Y-9086051D01*
X11744583Y-9086051D02*
X11754106Y-9076528D01*
X11754106Y-9076528D02*
X11773154Y-9067004D01*
X11925535Y-9247956D02*
X11935059Y-9257480D01*
X11935059Y-9257480D02*
X11925535Y-9267004D01*
X11925535Y-9267004D02*
X11916011Y-9257480D01*
X11916011Y-9257480D02*
X11925535Y-9247956D01*
X11925535Y-9247956D02*
X11925535Y-9267004D01*
X12058868Y-9067004D02*
X12077916Y-9067004D01*
X12077916Y-9067004D02*
X12096964Y-9076528D01*
X12096964Y-9076528D02*
X12106487Y-9086051D01*
X12106487Y-9086051D02*
X12116011Y-9105099D01*
X12116011Y-9105099D02*
X12125535Y-9143194D01*
X12125535Y-9143194D02*
X12125535Y-9190813D01*
X12125535Y-9190813D02*
X12116011Y-9228909D01*
X12116011Y-9228909D02*
X12106487Y-9247956D01*
X12106487Y-9247956D02*
X12096964Y-9257480D01*
X12096964Y-9257480D02*
X12077916Y-9267004D01*
X12077916Y-9267004D02*
X12058868Y-9267004D01*
X12058868Y-9267004D02*
X12039821Y-9257480D01*
X12039821Y-9257480D02*
X12030297Y-9247956D01*
X12030297Y-9247956D02*
X12020773Y-9228909D01*
X12020773Y-9228909D02*
X12011249Y-9190813D01*
X12011249Y-9190813D02*
X12011249Y-9143194D01*
X12011249Y-9143194D02*
X12020773Y-9105099D01*
X12020773Y-9105099D02*
X12030297Y-9086051D01*
X12030297Y-9086051D02*
X12039821Y-9076528D01*
X12039821Y-9076528D02*
X12058868Y-9067004D01*
X12192202Y-9067004D02*
X12316011Y-9067004D01*
X12316011Y-9067004D02*
X12249345Y-9143194D01*
X12249345Y-9143194D02*
X12277916Y-9143194D01*
X12277916Y-9143194D02*
X12296964Y-9152718D01*
X12296964Y-9152718D02*
X12306487Y-9162242D01*
X12306487Y-9162242D02*
X12316011Y-9181290D01*
X12316011Y-9181290D02*
X12316011Y-9228909D01*
X12316011Y-9228909D02*
X12306487Y-9247956D01*
X12306487Y-9247956D02*
X12296964Y-9257480D01*
X12296964Y-9257480D02*
X12277916Y-9267004D01*
X12277916Y-9267004D02*
X12220773Y-9267004D01*
X12220773Y-9267004D02*
X12201726Y-9257480D01*
X12201726Y-9257480D02*
X12192202Y-9247956D01*
X12506487Y-9267004D02*
X12392202Y-9267004D01*
X12449345Y-9267004D02*
X12449345Y-9067004D01*
X12449345Y-9067004D02*
X12430297Y-9095575D01*
X12430297Y-9095575D02*
X12411249Y-9114623D01*
X12411249Y-9114623D02*
X12392202Y-9124147D01*
X12687440Y-9067004D02*
X12592202Y-9067004D01*
X12592202Y-9067004D02*
X12582678Y-9162242D01*
X12582678Y-9162242D02*
X12592202Y-9152718D01*
X12592202Y-9152718D02*
X12611249Y-9143194D01*
X12611249Y-9143194D02*
X12658868Y-9143194D01*
X12658868Y-9143194D02*
X12677916Y-9152718D01*
X12677916Y-9152718D02*
X12687440Y-9162242D01*
X12687440Y-9162242D02*
X12696964Y-9181290D01*
X12696964Y-9181290D02*
X12696964Y-9228909D01*
X12696964Y-9228909D02*
X12687440Y-9247956D01*
X12687440Y-9247956D02*
X12677916Y-9257480D01*
X12677916Y-9257480D02*
X12658868Y-9267004D01*
X12658868Y-9267004D02*
X12611249Y-9267004D01*
X12611249Y-9267004D02*
X12592202Y-9257480D01*
X12592202Y-9257480D02*
X12582678Y-9247956D01*
X12773154Y-9067004D02*
X12773154Y-9105099D01*
X12849345Y-9067004D02*
X12849345Y-9105099D01*
X13144583Y-9343194D02*
X13135059Y-9333670D01*
X13135059Y-9333670D02*
X13116011Y-9305099D01*
X13116011Y-9305099D02*
X13106488Y-9286051D01*
X13106488Y-9286051D02*
X13096964Y-9257480D01*
X13096964Y-9257480D02*
X13087440Y-9209861D01*
X13087440Y-9209861D02*
X13087440Y-9171766D01*
X13087440Y-9171766D02*
X13096964Y-9124147D01*
X13096964Y-9124147D02*
X13106488Y-9095575D01*
X13106488Y-9095575D02*
X13116011Y-9076528D01*
X13116011Y-9076528D02*
X13135059Y-9047956D01*
X13135059Y-9047956D02*
X13144583Y-9038432D01*
X13211249Y-9086051D02*
X13220773Y-9076528D01*
X13220773Y-9076528D02*
X13239821Y-9067004D01*
X13239821Y-9067004D02*
X13287440Y-9067004D01*
X13287440Y-9067004D02*
X13306488Y-9076528D01*
X13306488Y-9076528D02*
X13316011Y-9086051D01*
X13316011Y-9086051D02*
X13325535Y-9105099D01*
X13325535Y-9105099D02*
X13325535Y-9124147D01*
X13325535Y-9124147D02*
X13316011Y-9152718D01*
X13316011Y-9152718D02*
X13201726Y-9267004D01*
X13201726Y-9267004D02*
X13325535Y-9267004D01*
X13563630Y-9267004D02*
X13563630Y-9067004D01*
X13649345Y-9267004D02*
X13649345Y-9162242D01*
X13649345Y-9162242D02*
X13639821Y-9143194D01*
X13639821Y-9143194D02*
X13620773Y-9133670D01*
X13620773Y-9133670D02*
X13592202Y-9133670D01*
X13592202Y-9133670D02*
X13573154Y-9143194D01*
X13573154Y-9143194D02*
X13563630Y-9152718D01*
X13773154Y-9267004D02*
X13754107Y-9257480D01*
X13754107Y-9257480D02*
X13744583Y-9247956D01*
X13744583Y-9247956D02*
X13735059Y-9228909D01*
X13735059Y-9228909D02*
X13735059Y-9171766D01*
X13735059Y-9171766D02*
X13744583Y-9152718D01*
X13744583Y-9152718D02*
X13754107Y-9143194D01*
X13754107Y-9143194D02*
X13773154Y-9133670D01*
X13773154Y-9133670D02*
X13801726Y-9133670D01*
X13801726Y-9133670D02*
X13820773Y-9143194D01*
X13820773Y-9143194D02*
X13830297Y-9152718D01*
X13830297Y-9152718D02*
X13839821Y-9171766D01*
X13839821Y-9171766D02*
X13839821Y-9228909D01*
X13839821Y-9228909D02*
X13830297Y-9247956D01*
X13830297Y-9247956D02*
X13820773Y-9257480D01*
X13820773Y-9257480D02*
X13801726Y-9267004D01*
X13801726Y-9267004D02*
X13773154Y-9267004D01*
X13954107Y-9267004D02*
X13935059Y-9257480D01*
X13935059Y-9257480D02*
X13925535Y-9238432D01*
X13925535Y-9238432D02*
X13925535Y-9067004D01*
X14106488Y-9257480D02*
X14087440Y-9267004D01*
X14087440Y-9267004D02*
X14049345Y-9267004D01*
X14049345Y-9267004D02*
X14030297Y-9257480D01*
X14030297Y-9257480D02*
X14020773Y-9238432D01*
X14020773Y-9238432D02*
X14020773Y-9162242D01*
X14020773Y-9162242D02*
X14030297Y-9143194D01*
X14030297Y-9143194D02*
X14049345Y-9133670D01*
X14049345Y-9133670D02*
X14087440Y-9133670D01*
X14087440Y-9133670D02*
X14106488Y-9143194D01*
X14106488Y-9143194D02*
X14116011Y-9162242D01*
X14116011Y-9162242D02*
X14116011Y-9181290D01*
X14116011Y-9181290D02*
X14020773Y-9200337D01*
X14192202Y-9257480D02*
X14211250Y-9267004D01*
X14211250Y-9267004D02*
X14249345Y-9267004D01*
X14249345Y-9267004D02*
X14268392Y-9257480D01*
X14268392Y-9257480D02*
X14277916Y-9238432D01*
X14277916Y-9238432D02*
X14277916Y-9228909D01*
X14277916Y-9228909D02*
X14268392Y-9209861D01*
X14268392Y-9209861D02*
X14249345Y-9200337D01*
X14249345Y-9200337D02*
X14220773Y-9200337D01*
X14220773Y-9200337D02*
X14201726Y-9190813D01*
X14201726Y-9190813D02*
X14192202Y-9171766D01*
X14192202Y-9171766D02*
X14192202Y-9162242D01*
X14192202Y-9162242D02*
X14201726Y-9143194D01*
X14201726Y-9143194D02*
X14220773Y-9133670D01*
X14220773Y-9133670D02*
X14249345Y-9133670D01*
X14249345Y-9133670D02*
X14268392Y-9143194D01*
X14344583Y-9343194D02*
X14354107Y-9333670D01*
X14354107Y-9333670D02*
X14373154Y-9305099D01*
X14373154Y-9305099D02*
X14382678Y-9286051D01*
X14382678Y-9286051D02*
X14392202Y-9257480D01*
X14392202Y-9257480D02*
X14401726Y-9209861D01*
X14401726Y-9209861D02*
X14401726Y-9171766D01*
X14401726Y-9171766D02*
X14392202Y-9124147D01*
X14392202Y-9124147D02*
X14382678Y-9095575D01*
X14382678Y-9095575D02*
X14373154Y-9076528D01*
X14373154Y-9076528D02*
X14354107Y-9047956D01*
X14354107Y-9047956D02*
X14344583Y-9038432D01*
X14706488Y-9343194D02*
X14696964Y-9333670D01*
X14696964Y-9333670D02*
X14677916Y-9305099D01*
X14677916Y-9305099D02*
X14668392Y-9286051D01*
X14668392Y-9286051D02*
X14658869Y-9257480D01*
X14658869Y-9257480D02*
X14649345Y-9209861D01*
X14649345Y-9209861D02*
X14649345Y-9171766D01*
X14649345Y-9171766D02*
X14658869Y-9124147D01*
X14658869Y-9124147D02*
X14668392Y-9095575D01*
X14668392Y-9095575D02*
X14677916Y-9076528D01*
X14677916Y-9076528D02*
X14696964Y-9047956D01*
X14696964Y-9047956D02*
X14706488Y-9038432D01*
X14782678Y-9133670D02*
X14782678Y-9267004D01*
X14782678Y-9152718D02*
X14792202Y-9143194D01*
X14792202Y-9143194D02*
X14811250Y-9133670D01*
X14811250Y-9133670D02*
X14839821Y-9133670D01*
X14839821Y-9133670D02*
X14858869Y-9143194D01*
X14858869Y-9143194D02*
X14868392Y-9162242D01*
X14868392Y-9162242D02*
X14868392Y-9267004D01*
X14992202Y-9267004D02*
X14973154Y-9257480D01*
X14973154Y-9257480D02*
X14963631Y-9247956D01*
X14963631Y-9247956D02*
X14954107Y-9228909D01*
X14954107Y-9228909D02*
X14954107Y-9171766D01*
X14954107Y-9171766D02*
X14963631Y-9152718D01*
X14963631Y-9152718D02*
X14973154Y-9143194D01*
X14973154Y-9143194D02*
X14992202Y-9133670D01*
X14992202Y-9133670D02*
X15020773Y-9133670D01*
X15020773Y-9133670D02*
X15039821Y-9143194D01*
X15039821Y-9143194D02*
X15049345Y-9152718D01*
X15049345Y-9152718D02*
X15058869Y-9171766D01*
X15058869Y-9171766D02*
X15058869Y-9228909D01*
X15058869Y-9228909D02*
X15049345Y-9247956D01*
X15049345Y-9247956D02*
X15039821Y-9257480D01*
X15039821Y-9257480D02*
X15020773Y-9267004D01*
X15020773Y-9267004D02*
X14992202Y-9267004D01*
X15116012Y-9133670D02*
X15192202Y-9133670D01*
X15144583Y-9067004D02*
X15144583Y-9238432D01*
X15144583Y-9238432D02*
X15154107Y-9257480D01*
X15154107Y-9257480D02*
X15173154Y-9267004D01*
X15173154Y-9267004D02*
X15192202Y-9267004D01*
X15411250Y-9133670D02*
X15411250Y-9333670D01*
X15411250Y-9143194D02*
X15430297Y-9133670D01*
X15430297Y-9133670D02*
X15468393Y-9133670D01*
X15468393Y-9133670D02*
X15487440Y-9143194D01*
X15487440Y-9143194D02*
X15496964Y-9152718D01*
X15496964Y-9152718D02*
X15506488Y-9171766D01*
X15506488Y-9171766D02*
X15506488Y-9228909D01*
X15506488Y-9228909D02*
X15496964Y-9247956D01*
X15496964Y-9247956D02*
X15487440Y-9257480D01*
X15487440Y-9257480D02*
X15468393Y-9267004D01*
X15468393Y-9267004D02*
X15430297Y-9267004D01*
X15430297Y-9267004D02*
X15411250Y-9257480D01*
X15620773Y-9267004D02*
X15601726Y-9257480D01*
X15601726Y-9257480D02*
X15592202Y-9238432D01*
X15592202Y-9238432D02*
X15592202Y-9067004D01*
X15782678Y-9267004D02*
X15782678Y-9162242D01*
X15782678Y-9162242D02*
X15773154Y-9143194D01*
X15773154Y-9143194D02*
X15754107Y-9133670D01*
X15754107Y-9133670D02*
X15716012Y-9133670D01*
X15716012Y-9133670D02*
X15696964Y-9143194D01*
X15782678Y-9257480D02*
X15763631Y-9267004D01*
X15763631Y-9267004D02*
X15716012Y-9267004D01*
X15716012Y-9267004D02*
X15696964Y-9257480D01*
X15696964Y-9257480D02*
X15687440Y-9238432D01*
X15687440Y-9238432D02*
X15687440Y-9219385D01*
X15687440Y-9219385D02*
X15696964Y-9200337D01*
X15696964Y-9200337D02*
X15716012Y-9190813D01*
X15716012Y-9190813D02*
X15763631Y-9190813D01*
X15763631Y-9190813D02*
X15782678Y-9181290D01*
X15849345Y-9133670D02*
X15925535Y-9133670D01*
X15877916Y-9067004D02*
X15877916Y-9238432D01*
X15877916Y-9238432D02*
X15887440Y-9257480D01*
X15887440Y-9257480D02*
X15906488Y-9267004D01*
X15906488Y-9267004D02*
X15925535Y-9267004D01*
X16068393Y-9257480D02*
X16049345Y-9267004D01*
X16049345Y-9267004D02*
X16011250Y-9267004D01*
X16011250Y-9267004D02*
X15992202Y-9257480D01*
X15992202Y-9257480D02*
X15982678Y-9238432D01*
X15982678Y-9238432D02*
X15982678Y-9162242D01*
X15982678Y-9162242D02*
X15992202Y-9143194D01*
X15992202Y-9143194D02*
X16011250Y-9133670D01*
X16011250Y-9133670D02*
X16049345Y-9133670D01*
X16049345Y-9133670D02*
X16068393Y-9143194D01*
X16068393Y-9143194D02*
X16077916Y-9162242D01*
X16077916Y-9162242D02*
X16077916Y-9181290D01*
X16077916Y-9181290D02*
X15982678Y-9200337D01*
X16249345Y-9267004D02*
X16249345Y-9067004D01*
X16249345Y-9257480D02*
X16230297Y-9267004D01*
X16230297Y-9267004D02*
X16192202Y-9267004D01*
X16192202Y-9267004D02*
X16173154Y-9257480D01*
X16173154Y-9257480D02*
X16163631Y-9247956D01*
X16163631Y-9247956D02*
X16154107Y-9228909D01*
X16154107Y-9228909D02*
X16154107Y-9171766D01*
X16154107Y-9171766D02*
X16163631Y-9152718D01*
X16163631Y-9152718D02*
X16173154Y-9143194D01*
X16173154Y-9143194D02*
X16192202Y-9133670D01*
X16192202Y-9133670D02*
X16230297Y-9133670D01*
X16230297Y-9133670D02*
X16249345Y-9143194D01*
X16325535Y-9343194D02*
X16335059Y-9333670D01*
X16335059Y-9333670D02*
X16354107Y-9305099D01*
X16354107Y-9305099D02*
X16363631Y-9286051D01*
X16363631Y-9286051D02*
X16373154Y-9257480D01*
X16373154Y-9257480D02*
X16382678Y-9209861D01*
X16382678Y-9209861D02*
X16382678Y-9171766D01*
X16382678Y-9171766D02*
X16373154Y-9124147D01*
X16373154Y-9124147D02*
X16363631Y-9095575D01*
X16363631Y-9095575D02*
X16354107Y-9076528D01*
X16354107Y-9076528D02*
X16335059Y-9047956D01*
X16335059Y-9047956D02*
X16325535Y-9038432D01*
M02*
