M48
; DRILL file KiCad 10.0.3 date 2026-08-29T17:36:07
; FORMAT={-:-/ absolute / metric / decimal}
; #@! TF.CreationDate,2026-08-29T17:36:07-04:00
; #@! TF.GenerationSoftware,Kicad,Pcbnew,10.0.3
; #@! TF.FileFunction,MixedPlating,1,4
FMAT,2
METRIC
; #@! TA.AperFunction,Plated,PTH,ViaDrill
T1C0.200
; #@! TA.AperFunction,Plated,PTH,ComponentDrill
T2C0.600
; #@! TA.AperFunction,NonPlated,NPTH,ComponentDrill
T3C0.650
%
G90
G05
T1
X101.191Y-83.116
X101.256Y-73.201
X101.282Y-69.451
X101.442Y-72.656
X101.506Y-82.03
X101.587Y-76.345
X101.717Y-87.891
X102.084Y-80.426
X102.305Y-82.031
X102.403Y-87.57
X102.657Y-72.646
X102.951Y-85.962
X103.39Y-72.226
X103.799Y-76.665
X103.799Y-81.483
X104.2Y-72.241
X104.319Y-75.122
X104.912Y-89.48
X105.012Y-72.229
X105.21Y-76.59
X105.5Y-95.013
X105.593Y-93.127
X106.352Y-82.352
X106.931Y-67.681
X107.322Y-87.302
X107.64Y-78.32
X108.508Y-85.382
X108.596Y-88.28
X109.567Y-72.79
X109.723Y-70.473
X109.724Y-69.824
X110.118Y-89.179
X110.25Y-70.813
T3
X102.61Y-95.185
X108.39Y-95.185
T2
X101.18Y-94.115G85X101.18Y-95.215
G05
X101.18Y-98.465G85X101.18Y-99.265
G05
X109.82Y-94.115G85X109.82Y-95.215
G05
X109.82Y-98.465G85X109.82Y-99.265
G05
M30
