%TF.GenerationSoftware,KiCad,Pcbnew,10.0.3*%
%TF.CreationDate,2026-08-29T17:36:07-04:00*%
%TF.ProjectId,pen-mixer,70656e2d-6d69-4786-9572-2e6b69636164,rev?*%
%TF.SameCoordinates,Original*%
%TF.FileFunction,Copper,L2,Inr*%
%TF.FilePolarity,Positive*%
%FSLAX46Y46*%
G04 Gerber Fmt 4.6, Leading zero omitted, Abs format (unit mm)*
G04 Created by KiCad (PCBNEW 10.0.3) date 2026-08-29 17:36:07*
%MOMM*%
%LPD*%
G01*
G04 APERTURE LIST*
%TA.AperFunction,ComponentPad*%
%ADD10O,1.000000X2.100000*%
%TD*%
%TA.AperFunction,ComponentPad*%
%ADD11O,1.000000X1.800000*%
%TD*%
%TA.AperFunction,ViaPad*%
%ADD12C,0.450000*%
%TD*%
%TA.AperFunction,Conductor*%
%ADD13C,0.150000*%
%TD*%
G04 APERTURE END LIST*
D10*
%TO.N,GND*%
%TO.C,J1*%
X101180000Y-94665000D03*
D11*
X101180000Y-98865000D03*
D10*
X109820000Y-94665000D03*
D11*
X109820000Y-98865000D03*
%TD*%
D12*
%TO.N,+3V3*%
X104319500Y-75121700D03*
X101282300Y-69451000D03*
X107640000Y-78320000D03*
X110118300Y-89179100D03*
%TO.N,GND*%
X102657300Y-72646000D03*
X106352100Y-82352100D03*
X101191300Y-83115800D03*
%TO.N,VBAT*%
X102403400Y-87570000D03*
X107321900Y-87302000D03*
%TO.N,VBAT_SENSE*%
X101716700Y-87891400D03*
X105012500Y-72229200D03*
X104912300Y-89480000D03*
%TO.N,FSR_SENSE*%
X104200000Y-72241200D03*
X108595800Y-88280400D03*
%TO.N,SCL*%
X103798700Y-76664900D03*
X103798700Y-81483100D03*
X109724400Y-69824400D03*
%TO.N,LED_A*%
X108507800Y-85382200D03*
X102950600Y-85961900D03*
%TO.N,USB_DP*%
X110250000Y-70813300D03*
X105500000Y-95013400D03*
%TO.N,USB_DM*%
X105592600Y-93127400D03*
X106930900Y-67680900D03*
%TO.N,IMU_INT1*%
X101586900Y-76345300D03*
X109566700Y-72790300D03*
%TO.N,IMU_INT2*%
X109723300Y-70473300D03*
X105209900Y-76590500D03*
%TO.N,SWDIO*%
X101506400Y-82029700D03*
X101256100Y-73201500D03*
%TO.N,SWDCLK*%
X102305100Y-82031500D03*
X101442400Y-72655800D03*
%TO.N,SDA*%
X102083800Y-80426200D03*
X103390100Y-72226300D03*
%TD*%
%TO.N,+3V3*%
D13*
X104612300Y-72092000D02*
X104612300Y-74828900D01*
X104612300Y-74828900D02*
X104319500Y-75121700D01*
X101971300Y-69451000D02*
X104612300Y-72092000D01*
X101282300Y-69451000D02*
X101971300Y-69451000D01*
%TO.N,GND*%
X109820000Y-98865000D02*
X101180000Y-98865000D01*
X101180000Y-98865000D02*
X101180000Y-95881700D01*
X106352100Y-82352100D02*
X102696900Y-82352100D01*
X102696900Y-82352100D02*
X101933200Y-83115800D01*
X101643400Y-80542400D02*
X102696900Y-81595900D01*
X102696900Y-81595900D02*
X102696900Y-82352100D01*
X101180000Y-94665000D02*
X101180000Y-95881700D01*
X102657300Y-72646000D02*
X102657300Y-79254700D01*
X101933200Y-83115800D02*
X101191300Y-83115800D01*
X101643400Y-80268600D02*
X101643400Y-80542400D01*
X102657300Y-79254700D02*
X101643400Y-80268600D01*
%TO.N,VBAT*%
X102561100Y-87727700D02*
X106896200Y-87727700D01*
X102403400Y-87570000D02*
X102561100Y-87727700D01*
X106896200Y-87727700D02*
X107321900Y-87302000D01*
%TO.N,VBAT_SENSE*%
X103305300Y-89480000D02*
X101716700Y-87891400D01*
X104912300Y-89480000D02*
X103305300Y-89480000D01*
%TO.N,FSR_SENSE*%
X104200000Y-72241200D02*
X104200000Y-73693800D01*
X109066600Y-84242600D02*
X109066600Y-87809600D01*
X104200000Y-73693800D02*
X103390100Y-74503700D01*
X103390100Y-74503700D02*
X103390100Y-78566100D01*
X109066600Y-87809600D02*
X108595800Y-88280400D01*
X103390100Y-78566100D02*
X109066600Y-84242600D01*
%TO.N,SCL*%
X107319500Y-73144100D02*
X107319500Y-72229300D01*
X103798700Y-76664900D02*
X107319500Y-73144100D01*
X107319500Y-72229300D02*
X109724400Y-69824400D01*
%TO.N,LED_A*%
X102950600Y-85961900D02*
X103530300Y-85382200D01*
X103530300Y-85382200D02*
X108507800Y-85382200D01*
%TO.N,USB_DP*%
X110250000Y-70813300D02*
X110250000Y-88128600D01*
X106995800Y-93517600D02*
X105500000Y-95013400D01*
X110250000Y-88128600D02*
X106995800Y-91382800D01*
X106995800Y-91382800D02*
X106995800Y-93517600D01*
%TO.N,IMU_INT2*%
X109723300Y-72077100D02*
X105209900Y-76590500D01*
X109723300Y-70473300D02*
X109723300Y-72077100D01*
%TO.N,SWDIO*%
X100871600Y-73586000D02*
X100871600Y-81394900D01*
X101256100Y-73201500D02*
X100871600Y-73586000D01*
X100871600Y-81394900D02*
X101506400Y-82029700D01*
%TO.N,SWDCLK*%
X101195200Y-80921600D02*
X101195200Y-76183100D01*
X101673200Y-72886600D02*
X101442400Y-72655800D01*
X101673200Y-75705100D02*
X101673200Y-72886600D01*
X102305100Y-82031500D02*
X101195200Y-80921600D01*
X101195200Y-76183100D02*
X101673200Y-75705100D01*
%TO.N,SDA*%
X103390100Y-74041900D02*
X102955900Y-74476100D01*
X102955900Y-74476100D02*
X102955900Y-79554100D01*
X103390100Y-72226300D02*
X103390100Y-74041900D01*
X102955900Y-79554100D02*
X102083800Y-80426200D01*
%TD*%
M02*
