%TF.GenerationSoftware,KiCad,Pcbnew,10.0.3*%
%TF.CreationDate,2026-08-29T19:28:22-04:00*%
%TF.ProjectId,pen-mixer,70656e2d-6d69-4786-9572-2e6b69636164,rev?*%
%TF.SameCoordinates,Original*%
%TF.FileFunction,Copper,L1,Top*%
%TF.FilePolarity,Positive*%
%FSLAX46Y46*%
G04 Gerber Fmt 4.6, Leading zero omitted, Abs format (unit mm)*
G04 Created by KiCad (PCBNEW 10.0.3) date 2026-08-29 19:28:22*
%MOMM*%
%LPD*%
G01*
G04 APERTURE LIST*
G04 Aperture macros list*
%AMRoundRect*
0 Rectangle with rounded corners*
0 $1 Rounding radius*
0 $2 $3 $4 $5 $6 $7 $8 $9 X,Y pos of 4 corners*
0 Add a 4 corners polygon primitive as box body*
4,1,4,$2,$3,$4,$5,$6,$7,$8,$9,$2,$3,0*
0 Add four circle primitives for the rounded corners*
1,1,$1+$1,$2,$3*
1,1,$1+$1,$4,$5*
1,1,$1+$1,$6,$7*
1,1,$1+$1,$8,$9*
0 Add four rect primitives between the rounded corners*
20,1,$1+$1,$2,$3,$4,$5,0*
20,1,$1+$1,$4,$5,$6,$7,0*
20,1,$1+$1,$6,$7,$8,$9,0*
20,1,$1+$1,$8,$9,$2,$3,0*%
G04 Aperture macros list end*
%TA.AperFunction,SMDPad,CuDef*%
%ADD10RoundRect,0.140000X-0.140000X-0.170000X0.140000X-0.170000X0.140000X0.170000X-0.140000X0.170000X0*%
%TD*%
%TA.AperFunction,SMDPad,CuDef*%
%ADD11RoundRect,0.140000X0.170000X-0.140000X0.170000X0.140000X-0.170000X0.140000X-0.170000X-0.140000X0*%
%TD*%
%TA.AperFunction,SMDPad,CuDef*%
%ADD12RoundRect,0.135000X0.185000X-0.135000X0.185000X0.135000X-0.185000X0.135000X-0.185000X-0.135000X0*%
%TD*%
%TA.AperFunction,SMDPad,CuDef*%
%ADD13RoundRect,0.150000X-0.512500X-0.150000X0.512500X-0.150000X0.512500X0.150000X-0.512500X0.150000X0*%
%TD*%
%TA.AperFunction,SMDPad,CuDef*%
%ADD14RoundRect,0.147500X-0.147500X-0.172500X0.147500X-0.172500X0.147500X0.172500X-0.147500X0.172500X0*%
%TD*%
%TA.AperFunction,SMDPad,CuDef*%
%ADD15RoundRect,0.150000X0.150000X-0.512500X0.150000X0.512500X-0.150000X0.512500X-0.150000X-0.512500X0*%
%TD*%
%TA.AperFunction,SMDPad,CuDef*%
%ADD16RoundRect,0.150000X-0.150000X-0.470000X0.150000X-0.470000X0.150000X0.470000X-0.150000X0.470000X0*%
%TD*%
%TA.AperFunction,SMDPad,CuDef*%
%ADD17RoundRect,0.075000X-0.075000X-0.545000X0.075000X-0.545000X0.075000X0.545000X-0.075000X0.545000X0*%
%TD*%
%TA.AperFunction,ComponentPad*%
%ADD18O,1.000000X2.100000*%
%TD*%
%TA.AperFunction,ComponentPad*%
%ADD19O,1.000000X1.800000*%
%TD*%
%TA.AperFunction,SMDPad,CuDef*%
%ADD20R,0.800001X0.800001*%
%TD*%
%TA.AperFunction,SMDPad,CuDef*%
%ADD21R,0.399999X0.399999*%
%TD*%
%TA.AperFunction,SMDPad,CuDef*%
%ADD22RoundRect,0.087500X-0.225000X-0.087500X0.225000X-0.087500X0.225000X0.087500X-0.225000X0.087500X0*%
%TD*%
%TA.AperFunction,SMDPad,CuDef*%
%ADD23RoundRect,0.087500X-0.087500X-0.225000X0.087500X-0.225000X0.087500X0.225000X-0.087500X0.225000X0*%
%TD*%
%TA.AperFunction,ViaPad*%
%ADD24C,0.450000*%
%TD*%
%TA.AperFunction,Conductor*%
%ADD25C,0.150000*%
%TD*%
%TA.AperFunction,Conductor*%
%ADD26C,0.112400*%
%TD*%
%TA.AperFunction,Conductor*%
%ADD27C,0.090000*%
%TD*%
G04 APERTURE END LIST*
D10*
%TO.P,C5,1*%
%TO.N,+3V3*%
X103385200Y-55585200D03*
%TO.P,C5,2*%
%TO.N,GND*%
X104345200Y-55585200D03*
%TD*%
D11*
%TO.P,C3,1*%
%TO.N,VBAT*%
X101745200Y-63365200D03*
%TO.P,C3,2*%
%TO.N,GND*%
X101745200Y-62405200D03*
%TD*%
D12*
%TO.P,R9,1*%
%TO.N,VBAT_SENSE*%
X99545200Y-71995200D03*
%TO.P,R9,2*%
%TO.N,GND*%
X99545200Y-70975200D03*
%TD*%
%TO.P,R7,1*%
%TO.N,SCL*%
X99145200Y-63395200D03*
%TO.P,R7,2*%
%TO.N,+3V3*%
X99145200Y-62375200D03*
%TD*%
D13*
%TO.P,U3,1*%
%TO.N,CHG_STAT*%
X97807700Y-65135200D03*
%TO.P,U3,2*%
%TO.N,GND*%
X97807700Y-66085200D03*
%TO.P,U3,3*%
%TO.N,VBAT*%
X97807700Y-67035200D03*
%TO.P,U3,4*%
%TO.N,VBUS*%
X100082700Y-67035200D03*
%TO.P,U3,5*%
%TO.N,IPROG*%
X100082700Y-65135200D03*
%TD*%
D12*
%TO.P,R3,1*%
%TO.N,IPROG*%
X102745200Y-65995200D03*
%TO.P,R3,2*%
%TO.N,GND*%
X102745200Y-64975200D03*
%TD*%
D10*
%TO.P,C8,1*%
%TO.N,+3V3*%
X98665200Y-61085200D03*
%TO.P,C8,2*%
%TO.N,GND*%
X99625200Y-61085200D03*
%TD*%
D14*
%TO.P,D1,1*%
%TO.N,LED_A*%
X98460200Y-69085200D03*
%TO.P,D1,2*%
%TO.N,CHG_STAT*%
X99430200Y-69085200D03*
%TD*%
D12*
%TO.P,R4,1*%
%TO.N,VBUS*%
X104745200Y-68395200D03*
%TO.P,R4,2*%
%TO.N,LED_A*%
X104745200Y-67375200D03*
%TD*%
D15*
%TO.P,U4,1*%
%TO.N,VBAT*%
X103195200Y-59822700D03*
%TO.P,U4,2*%
%TO.N,GND*%
X104145200Y-59822700D03*
%TO.P,U4,3*%
%TO.N,VBAT*%
X105095200Y-59822700D03*
%TO.P,U4,4*%
%TO.N,N/C*%
X105095200Y-57547700D03*
%TO.P,U4,5*%
%TO.N,+3V3*%
X103195200Y-57547700D03*
%TD*%
D16*
%TO.P,J1,A1*%
%TO.N,GND*%
X98045200Y-76550200D03*
%TO.P,J1,A4*%
%TO.N,VBUS*%
X98845200Y-76550200D03*
D17*
%TO.P,J1,A5*%
%TO.N,CC1*%
X99995200Y-76550200D03*
%TO.P,J1,A6*%
%TO.N,USB_DP*%
X100995200Y-76550200D03*
%TO.P,J1,A7*%
%TO.N,USB_DM*%
X101495200Y-76550200D03*
%TO.P,J1,A8*%
%TO.N,N/C*%
X102495200Y-76550200D03*
D16*
%TO.P,J1,A9*%
%TO.N,VBUS*%
X103645200Y-76550200D03*
%TO.P,J1,A12*%
%TO.N,GND*%
X104445200Y-76550200D03*
%TO.P,J1,B1*%
X104445200Y-76550200D03*
%TO.P,J1,B4*%
%TO.N,VBUS*%
X103645200Y-76550200D03*
D17*
%TO.P,J1,B5*%
%TO.N,CC2*%
X102995200Y-76550200D03*
%TO.P,J1,B6*%
%TO.N,USB_DP*%
X101995200Y-76550200D03*
%TO.P,J1,B7*%
%TO.N,USB_DM*%
X100495200Y-76550200D03*
%TO.P,J1,B8*%
%TO.N,N/C*%
X99495200Y-76550200D03*
D16*
%TO.P,J1,B9*%
%TO.N,VBUS*%
X98845200Y-76550200D03*
%TO.P,J1,B12*%
%TO.N,GND*%
X98045200Y-76550200D03*
D18*
%TO.P,J1,SH*%
X96925200Y-77150200D03*
D19*
X96925200Y-81350200D03*
D18*
X105565200Y-77150200D03*
D19*
X105565200Y-81350200D03*
%TD*%
D11*
%TO.P,C4,1*%
%TO.N,+3V3*%
X104145200Y-63365200D03*
%TO.P,C4,2*%
%TO.N,GND*%
X104145200Y-62405200D03*
%TD*%
D20*
%TO.P,U1,1*%
%TO.N,GND*%
X104745201Y-53985201D03*
D21*
%TO.P,U1,2*%
%TO.N,IMU_INT1*%
X104945198Y-53085200D03*
%TO.P,U1,3*%
%TO.N,N/C*%
X104295199Y-52760200D03*
%TO.P,U1,4*%
%TO.N,IMU_INT2*%
X104945198Y-52435200D03*
%TO.P,U1,5*%
%TO.N,N/C*%
X104295199Y-52110200D03*
%TO.P,U1,6*%
%TO.N,SCL*%
X104945198Y-51785200D03*
D20*
%TO.P,U1,7*%
%TO.N,GND*%
X104745201Y-50885200D03*
D21*
%TO.P,U1,8*%
%TO.N,USB_DP*%
X103845200Y-50685200D03*
%TO.P,U1,9*%
%TO.N,N/C*%
X103520200Y-51335200D03*
%TO.P,U1,10*%
%TO.N,USB_DM*%
X103195200Y-50685200D03*
%TO.P,U1,11*%
%TO.N,N/C*%
X102870200Y-51335200D03*
%TO.P,U1,12*%
%TO.N,VBUS*%
X102545200Y-50685200D03*
%TO.P,U1,13*%
%TO.N,N/C*%
X102220200Y-51335200D03*
%TO.P,U1,14*%
%TO.N,GND*%
X101895200Y-50685200D03*
%TO.P,U1,15*%
%TO.N,N/C*%
X101570200Y-51335200D03*
%TO.P,U1,16*%
%TO.N,GND*%
X101245200Y-50685200D03*
%TO.P,U1,17*%
%TO.N,N/C*%
X100920200Y-51335200D03*
%TO.P,U1,18*%
%TO.N,GND*%
X100595200Y-50685200D03*
%TO.P,U1,19*%
%TO.N,N/C*%
X100270200Y-51335200D03*
%TO.P,U1,20*%
X99945200Y-50685200D03*
%TO.P,U1,21*%
%TO.N,GND*%
X99620200Y-51335200D03*
%TO.P,U1,22*%
%TO.N,N/C*%
X99295200Y-50685200D03*
%TO.P,U1,23*%
%TO.N,GND*%
X98970200Y-51335200D03*
%TO.P,U1,24*%
X98645200Y-50685200D03*
D20*
%TO.P,U1,25*%
X97745200Y-50885200D03*
D21*
%TO.P,U1,26*%
%TO.N,+3V3*%
X97545200Y-51785200D03*
%TO.P,U1,27*%
%TO.N,N/C*%
X98195200Y-52110200D03*
%TO.P,U1,28*%
%TO.N,SWDIO*%
X97545200Y-52435200D03*
%TO.P,U1,29*%
%TO.N,N/C*%
X98195200Y-52760200D03*
%TO.P,U1,30*%
%TO.N,SWDCLK*%
X97545200Y-53085200D03*
D20*
%TO.P,U1,31*%
%TO.N,GND*%
X97745200Y-53985201D03*
D21*
%TO.P,U1,32*%
%TO.N,SDA*%
X98645200Y-54185198D03*
%TO.P,U1,33*%
%TO.N,N/C*%
X98970200Y-53535199D03*
%TO.P,U1,34*%
X99295200Y-54185198D03*
%TO.P,U1,35*%
X99620200Y-53535199D03*
%TO.P,U1,36*%
%TO.N,FSR_SENSE*%
X99945200Y-54185198D03*
%TO.P,U1,37*%
%TO.N,N/C*%
X100270200Y-53535199D03*
%TO.P,U1,38*%
%TO.N,VBAT_SENSE*%
X100595200Y-54185198D03*
%TO.P,U1,39*%
%TO.N,N/C*%
X100920200Y-53535199D03*
%TO.P,U1,40*%
X101245200Y-54185198D03*
%TO.P,U1,41*%
X101570200Y-53535199D03*
%TO.P,U1,42*%
X101895200Y-54185198D03*
%TO.P,U1,43*%
X102220200Y-53535199D03*
%TO.P,U1,44*%
X102545200Y-54185198D03*
%TO.P,U1,45*%
X102870200Y-53535199D03*
%TO.P,U1,46*%
X103195200Y-54185198D03*
%TO.P,U1,47*%
X103520200Y-53535199D03*
%TO.P,U1,48*%
X103845200Y-54185198D03*
%TO.P,U1,49*%
X98970200Y-52760200D03*
%TO.P,U1,50*%
X99620200Y-52760200D03*
%TO.P,U1,51*%
X100270200Y-52760200D03*
%TO.P,U1,52*%
X100920200Y-52760200D03*
%TO.P,U1,53*%
X101570200Y-52760200D03*
%TO.P,U1,54*%
X102220200Y-52760200D03*
%TO.P,U1,55*%
X102870200Y-52760200D03*
%TO.P,U1,56*%
X103520200Y-52760200D03*
%TO.P,U1,57*%
X98970200Y-52110200D03*
%TO.P,U1,58*%
X99620200Y-52110200D03*
%TO.P,U1,59*%
X100270200Y-52110200D03*
%TO.P,U1,60*%
X100920200Y-52110200D03*
%TO.P,U1,61*%
X101570200Y-52110200D03*
%TO.P,U1,62*%
X102220200Y-52110200D03*
%TO.P,U1,63*%
X102870200Y-52110200D03*
%TO.P,U1,64*%
X103520200Y-52110200D03*
%TO.P,U1,65*%
X104945198Y-49935200D03*
%TO.P,U1,66*%
X104945198Y-48935200D03*
%TO.P,U1,67*%
X104945198Y-47935200D03*
D20*
%TO.P,U1,68*%
X104745201Y-46985200D03*
D21*
%TO.P,U1,69*%
X103745200Y-46784700D03*
%TO.P,U1,70*%
X102745200Y-46784700D03*
%TO.P,U1,71*%
X101745200Y-46784700D03*
%TO.P,U1,72*%
X100745200Y-46784700D03*
%TO.P,U1,73*%
X99745200Y-46784700D03*
%TO.P,U1,74*%
X98745200Y-46784700D03*
D20*
%TO.P,U1,75*%
X97745200Y-46985200D03*
D21*
%TO.P,U1,76*%
X97545200Y-47935200D03*
%TO.P,U1,77*%
X97545200Y-48935200D03*
%TO.P,U1,78*%
X97545200Y-49935200D03*
%TD*%
D12*
%TO.P,R2,1*%
%TO.N,CC2*%
X102145200Y-74595200D03*
%TO.P,R2,2*%
%TO.N,GND*%
X102145200Y-73575200D03*
%TD*%
D22*
%TO.P,U2,1*%
%TO.N,GND*%
X97982700Y-58235200D03*
%TO.P,U2,2*%
X97982700Y-58735200D03*
%TO.P,U2,3*%
X97982700Y-59235200D03*
%TO.P,U2,4*%
%TO.N,IMU_INT1*%
X97982700Y-59735200D03*
D23*
%TO.P,U2,5*%
%TO.N,+3V3*%
X98645200Y-59897700D03*
%TO.P,U2,6*%
%TO.N,GND*%
X99145200Y-59897700D03*
%TO.P,U2,7*%
X99645200Y-59897700D03*
D22*
%TO.P,U2,8*%
%TO.N,+3V3*%
X100307700Y-59735200D03*
%TO.P,U2,9*%
%TO.N,IMU_INT2*%
X100307700Y-59235200D03*
%TO.P,U2,10*%
%TO.N,N/C*%
X100307700Y-58735200D03*
%TO.P,U2,11*%
X100307700Y-58235200D03*
D23*
%TO.P,U2,12*%
%TO.N,+3V3*%
X99645200Y-58072700D03*
%TO.P,U2,13*%
%TO.N,SCL*%
X99145200Y-58072700D03*
%TO.P,U2,14*%
%TO.N,SDA*%
X98645200Y-58072700D03*
%TD*%
D12*
%TO.P,R1,1*%
%TO.N,CC1*%
X100345200Y-74595200D03*
%TO.P,R1,2*%
%TO.N,GND*%
X100345200Y-73575200D03*
%TD*%
D11*
%TO.P,C10,1*%
%TO.N,VBAT_SENSE*%
X101545200Y-71965200D03*
%TO.P,C10,2*%
%TO.N,GND*%
X101545200Y-71005200D03*
%TD*%
D12*
%TO.P,R6,1*%
%TO.N,SDA*%
X97345200Y-63395200D03*
%TO.P,R6,2*%
%TO.N,+3V3*%
X97345200Y-62375200D03*
%TD*%
D10*
%TO.P,C6,1*%
%TO.N,+3V3*%
X103385200Y-61435200D03*
%TO.P,C6,2*%
%TO.N,GND*%
X104345200Y-61435200D03*
%TD*%
D12*
%TO.P,R8,1*%
%TO.N,VBAT*%
X97545200Y-71995200D03*
%TO.P,R8,2*%
%TO.N,VBAT_SENSE*%
X97545200Y-70975200D03*
%TD*%
D10*
%TO.P,C7,1*%
%TO.N,+3V3*%
X98665200Y-56485200D03*
%TO.P,C7,2*%
%TO.N,GND*%
X99625200Y-56485200D03*
%TD*%
D11*
%TO.P,C2,1*%
%TO.N,VBAT*%
X102745200Y-68365200D03*
%TO.P,C2,2*%
%TO.N,GND*%
X102745200Y-67405200D03*
%TD*%
%TO.P,C1,1*%
%TO.N,VBUS*%
X104745200Y-65965200D03*
%TO.P,C1,2*%
%TO.N,GND*%
X104745200Y-65005200D03*
%TD*%
D24*
%TO.N,+3V3*%
X98309900Y-55864900D03*
X103385200Y-56433100D03*
%TO.N,GND*%
X101602700Y-50085200D03*
%TO.N,VBAT*%
X97807700Y-67692600D03*
X104608200Y-60687700D03*
X102288800Y-82290100D03*
X102288800Y-68902100D03*
X101254700Y-62874700D03*
X103676800Y-60680000D03*
%TO.N,VBAT_SENSE*%
X100657500Y-71965200D03*
X100595200Y-54711200D03*
%TO.N,SCL*%
X98992000Y-63989500D03*
X100156700Y-57215000D03*
X105474200Y-52315700D03*
%TO.N,VBUS*%
X98845200Y-75611100D03*
X103645200Y-73422600D03*
X100082700Y-67652800D03*
%TO.N,LED_A*%
X105246500Y-67876500D03*
X98460200Y-69737800D03*
%TO.N,USB_DP*%
X102719600Y-75504500D03*
X105470400Y-50543300D03*
%TO.N,USB_DM*%
X101205500Y-75609700D03*
X103711300Y-50167500D03*
%TO.N,IMU_INT1*%
X105086400Y-55334400D03*
X97331500Y-59575700D03*
%TO.N,IMU_INT2*%
X105478500Y-52968500D03*
X100938100Y-58922700D03*
%TO.N,SWDIO*%
X97021900Y-52958500D03*
X97009900Y-51105900D03*
%TO.N,SWDCLK*%
X97023900Y-52235300D03*
%TO.N,SDA*%
X97829000Y-62911400D03*
X99162500Y-54702500D03*
%TD*%
%TO.N,+3V3*%
D25*
X98650200Y-61070200D02*
X97345200Y-62375200D01*
X98645200Y-59897700D02*
X98645200Y-61065200D01*
X96345500Y-55683700D02*
X97147000Y-56485200D01*
X103385200Y-62605200D02*
X103385200Y-61435200D01*
X98645200Y-61065200D02*
X98650200Y-61070200D01*
X98665200Y-56220200D02*
X98665200Y-56485200D01*
X100307700Y-59735200D02*
X102017100Y-59735200D01*
X101164600Y-57873300D02*
X102017100Y-58725800D01*
X102017100Y-59735200D02*
X102017100Y-60067100D01*
X99645200Y-58072700D02*
X99844600Y-57873300D01*
X96885400Y-56746800D02*
X97147000Y-56485200D01*
X98309900Y-55864900D02*
X98665200Y-56220200D01*
X102017100Y-58725800D02*
X102017100Y-59735200D01*
X96907900Y-51785200D02*
X96345500Y-52347600D01*
X104145200Y-63365200D02*
X103385200Y-62605200D01*
X96345500Y-52347600D02*
X96345500Y-55683700D01*
X97345200Y-62375200D02*
X96885400Y-61915400D01*
X102017100Y-60067100D02*
X103385200Y-61435200D01*
X98650200Y-61070200D02*
X98665200Y-61085200D01*
X103195200Y-57547700D02*
X102017100Y-58725800D01*
X99844600Y-57873300D02*
X101164600Y-57873300D01*
X103385200Y-56433100D02*
X103385200Y-57357700D01*
X97147000Y-56485200D02*
X98665200Y-56485200D01*
X99145200Y-61565200D02*
X99145200Y-62375200D01*
X97545200Y-51785200D02*
X96907900Y-51785200D01*
X103385200Y-57357700D02*
X103195200Y-57547700D01*
X103385200Y-55585200D02*
X103385200Y-56433100D01*
X96885400Y-61915400D02*
X96885400Y-56746800D01*
X98665200Y-61085200D02*
X99145200Y-61565200D01*
%TO.N,GND*%
X102745200Y-63405200D02*
X102745200Y-64975200D01*
X99615100Y-56475100D02*
X99625200Y-56485200D01*
X98645200Y-50685200D02*
X98645200Y-50320000D01*
X102745200Y-64975200D02*
X103109800Y-65339800D01*
X98686900Y-51051900D02*
X98645200Y-51051900D01*
X103293200Y-66857200D02*
X102745200Y-67405200D01*
X98066400Y-66085200D02*
X97807700Y-66085200D01*
X98045200Y-75787200D02*
X100257200Y-73575200D01*
X99620200Y-51335200D02*
X98970200Y-51335200D01*
X96925200Y-77150200D02*
X97445200Y-77150200D01*
X99145200Y-59693800D02*
X98686600Y-59235200D01*
D26*
X100110400Y-50320000D02*
X100280400Y-50150000D01*
D25*
X99575200Y-71005200D02*
X99545200Y-70975200D01*
X98640700Y-67988200D02*
X98640700Y-66659500D01*
X100257200Y-73575200D02*
X100345200Y-73575200D01*
X104345200Y-59622700D02*
X104145200Y-59822700D01*
X100425200Y-61085200D02*
X99625200Y-61085200D01*
X101745200Y-62405200D02*
X100425200Y-61085200D01*
X98560400Y-51745000D02*
X98645200Y-51660200D01*
X99545200Y-70975200D02*
X99081100Y-70975200D01*
X103930000Y-51700400D02*
X104745200Y-50885200D01*
X101545200Y-71005200D02*
X102145200Y-71605200D01*
X97745200Y-53985200D02*
X97745200Y-54551900D01*
X104745200Y-65005200D02*
X104745200Y-63005200D01*
X105045200Y-77150200D02*
X104445200Y-76550200D01*
X104410600Y-65339800D02*
X104745200Y-65005200D01*
X98686600Y-59235200D02*
X97982700Y-59235200D01*
X104345200Y-62205200D02*
X104345200Y-61435200D01*
X101545200Y-68605200D02*
X101545200Y-71005200D01*
X103293200Y-65339800D02*
X103293200Y-66857200D01*
X101745200Y-62405200D02*
X102745200Y-63405200D01*
X101602700Y-50685200D02*
X101602700Y-50085200D01*
D26*
X98070400Y-53820000D02*
X98560400Y-53330000D01*
D25*
X97745200Y-50885200D02*
X98311900Y-50885200D01*
D26*
X104420000Y-53820000D02*
X103930000Y-53330000D01*
D25*
X97982700Y-58735200D02*
X97982700Y-58235200D01*
X99145200Y-59897700D02*
X99625200Y-59897700D01*
X105565200Y-77150200D02*
X105045200Y-77150200D01*
X97745200Y-53985200D02*
X97905200Y-53985200D01*
X99625200Y-59897700D02*
X99625200Y-61085200D01*
X101545200Y-71005200D02*
X99575200Y-71005200D01*
X97989800Y-69883900D02*
X97989800Y-68639100D01*
X98045200Y-76550200D02*
X98045200Y-75787200D01*
X101602700Y-50685200D02*
X101895200Y-50685200D01*
X97982700Y-58010200D02*
X99110900Y-56882000D01*
D26*
X99110900Y-56882000D02*
X99110900Y-56761800D01*
D25*
X104345200Y-55585200D02*
X104345200Y-54225200D01*
X98645200Y-50685200D02*
X98645200Y-51051900D01*
X104345200Y-55585200D02*
X104345200Y-59622700D01*
X98511900Y-50685200D02*
X98311900Y-50885200D01*
X98645200Y-50685200D02*
X98511900Y-50685200D01*
X101245200Y-50685200D02*
X101602700Y-50685200D01*
D26*
X98560400Y-53330000D02*
X98560400Y-51745000D01*
D25*
X99081100Y-70975200D02*
X97989800Y-69883900D01*
X102145200Y-71605200D02*
X102145200Y-73575200D01*
X103293200Y-65339800D02*
X104410600Y-65339800D01*
X104745200Y-53985200D02*
X104585200Y-53985200D01*
X97445200Y-77150200D02*
X98045200Y-76550200D01*
X104745200Y-63005200D02*
X104145200Y-62405200D01*
X99397600Y-56475100D02*
X99615100Y-56475100D01*
X104145200Y-61235200D02*
X104345200Y-61435200D01*
X102145200Y-73575200D02*
X100345200Y-73575200D01*
X99397600Y-56204300D02*
X99397600Y-56475100D01*
D26*
X99110900Y-56761800D02*
X99312500Y-56560200D01*
D25*
X98640700Y-66659500D02*
X98066400Y-66085200D01*
D26*
X98645200Y-50320000D02*
X100110400Y-50320000D01*
D25*
X104585200Y-53985200D02*
X104420000Y-53820000D01*
X99145200Y-59897700D02*
X99145200Y-59693800D01*
X99625200Y-59897700D02*
X99645200Y-59897700D01*
X104145200Y-59822700D02*
X104145200Y-61235200D01*
X98970200Y-51335200D02*
X98686900Y-51051900D01*
X97982700Y-59235200D02*
X97982700Y-58735200D01*
X97989800Y-68639100D02*
X98640700Y-67988200D01*
X98645200Y-51660200D02*
X98645200Y-51051900D01*
X99312500Y-56560200D02*
X99397600Y-56475100D01*
X100280400Y-50150000D02*
X100448900Y-50318500D01*
X103109800Y-65339800D02*
X103293200Y-65339800D01*
X103930000Y-51745000D02*
X103930000Y-51700400D01*
X104345200Y-54225200D02*
X104585200Y-53985200D01*
X104145200Y-62405200D02*
X104345200Y-62205200D01*
X100448900Y-50318500D02*
X100595200Y-50318500D01*
X100595200Y-50685200D02*
X100595200Y-50318500D01*
X97905200Y-53985200D02*
X98070400Y-53820000D01*
X101245200Y-50685200D02*
X100595200Y-50685200D01*
X97982700Y-58235200D02*
X97982700Y-58010200D01*
D26*
X103930000Y-53330000D02*
X103930000Y-51745000D01*
D25*
X102745200Y-67405200D02*
X101545200Y-68605200D01*
X97745200Y-54551900D02*
X99397600Y-56204300D01*
%TO.N,VBAT*%
X105095200Y-60200700D02*
X105095200Y-59822700D01*
X103676800Y-60680000D02*
X103676800Y-60304300D01*
X97033900Y-68466400D02*
X97033900Y-71483900D01*
X97033900Y-71483900D02*
X97545200Y-71995200D01*
X101254700Y-62874700D02*
X101745200Y-63365200D01*
X97807700Y-67692600D02*
X97807700Y-67035200D01*
X102288800Y-68902100D02*
X102288800Y-68821600D01*
X97807700Y-67692600D02*
X97033900Y-68466400D01*
X104608200Y-60687700D02*
X105095200Y-60200700D01*
X102288800Y-68821600D02*
X102745200Y-68365200D01*
X103676800Y-60304300D02*
X103195200Y-59822700D01*
%TO.N,VBAT_SENSE*%
X97545200Y-70975200D02*
X98565200Y-71995200D01*
X100627500Y-71995200D02*
X99545200Y-71995200D01*
X100657500Y-71965200D02*
X101545200Y-71965200D01*
X98565200Y-71995200D02*
X99545200Y-71995200D01*
X100595200Y-54185200D02*
X100595200Y-54711200D01*
X100657500Y-71965200D02*
X100627500Y-71995200D01*
%TO.N,SCL*%
D27*
X99832600Y-57215000D02*
X99805400Y-57242200D01*
D25*
X104945200Y-51785200D02*
X105311900Y-51785200D01*
X105311900Y-52153400D02*
X105474200Y-52315700D01*
D27*
X99940700Y-57215000D02*
X99832600Y-57215000D01*
D25*
X99539700Y-57507900D02*
X99424900Y-57507900D01*
X105311900Y-51785200D02*
X105311900Y-52153400D01*
D26*
X99805400Y-57242200D02*
X99539700Y-57507900D01*
D25*
X98992000Y-63989500D02*
X98992000Y-63548400D01*
X99424900Y-57507900D02*
X99145200Y-57787600D01*
X99145200Y-57787600D02*
X99145200Y-58072700D01*
X100156700Y-57215000D02*
X99940700Y-57215000D01*
X98992000Y-63548400D02*
X99145200Y-63395200D01*
%TO.N,CHG_STAT*%
X99053000Y-68708000D02*
X99053000Y-65619400D01*
D26*
X99053000Y-65619400D02*
X98291900Y-65619400D01*
X98291900Y-65619400D02*
X97807700Y-65135200D01*
D25*
X99430200Y-69085200D02*
X99053000Y-68708000D01*
%TO.N,VBUS*%
X104246300Y-67896300D02*
X104246300Y-66464100D01*
X100082700Y-67035200D02*
X100082700Y-67652800D01*
X98845200Y-75611100D02*
X98845200Y-76550200D01*
X105887300Y-50186800D02*
X105194600Y-49494100D01*
X103645200Y-73422600D02*
X103645200Y-76550200D01*
X105194600Y-49494100D02*
X103369600Y-49494100D01*
X104745200Y-65965200D02*
X105887300Y-64823100D01*
X103369600Y-49494100D02*
X102545200Y-50318500D01*
X104745200Y-68395200D02*
X104246300Y-67896300D01*
X103645200Y-69495200D02*
X103645200Y-73422600D01*
X104745200Y-68395200D02*
X103645200Y-69495200D01*
X105887300Y-64823100D02*
X105887300Y-50186800D01*
X102545200Y-50685200D02*
X102545200Y-50318500D01*
X104246300Y-66464100D02*
X104745200Y-65965200D01*
%TO.N,IPROG*%
X100942700Y-65995200D02*
X102745200Y-65995200D01*
X100082700Y-65135200D02*
X100942700Y-65995200D01*
%TO.N,LED_A*%
X98460200Y-69085200D02*
X98460200Y-69737800D01*
X105246500Y-67876500D02*
X104745200Y-67375200D01*
%TO.N,CC1*%
X99995200Y-74945200D02*
X99995200Y-76550200D01*
X100345200Y-74595200D02*
X99995200Y-74945200D01*
%TO.N,USB_DP*%
X101995200Y-76550200D02*
X101995200Y-76066700D01*
X101311200Y-77383100D02*
X101666600Y-77383100D01*
X105470400Y-50543300D02*
X105235100Y-50308000D01*
X101666600Y-77383100D02*
X101995200Y-77054500D01*
X101995200Y-77054500D02*
X101995200Y-76550200D01*
X102557400Y-75504500D02*
X102719600Y-75504500D01*
X105235100Y-50308000D02*
X104222400Y-50308000D01*
X100995200Y-77067100D02*
X101311200Y-77383100D01*
X104222400Y-50308000D02*
X103845200Y-50685200D01*
X100995200Y-76550200D02*
X100995200Y-77067100D01*
X101995200Y-76066700D02*
X102557400Y-75504500D01*
%TO.N,USB_DM*%
X100495200Y-76072100D02*
X100495200Y-76550200D01*
X100875000Y-75692300D02*
X100495200Y-76072100D01*
X103195200Y-50685200D02*
X103195200Y-50318500D01*
X101495200Y-76064600D02*
X101122900Y-75692300D01*
X101495200Y-76550200D02*
X101495200Y-76064600D01*
X103560300Y-50318500D02*
X103711300Y-50167500D01*
X101122900Y-75692300D02*
X100875000Y-75692300D01*
X103195200Y-50318500D02*
X103560300Y-50318500D01*
X101205500Y-75609700D02*
X101122900Y-75692300D01*
%TO.N,CC2*%
X103111300Y-75342200D02*
X102364300Y-74595200D01*
X102364300Y-74595200D02*
X102145200Y-74595200D01*
X103111300Y-76434100D02*
X103111300Y-75342200D01*
X102995200Y-76550200D02*
X103111300Y-76434100D01*
%TO.N,IMU_INT1*%
X105311900Y-53451900D02*
X105311900Y-55108900D01*
D26*
X97331500Y-59575700D02*
X97823200Y-59575700D01*
D25*
X104945200Y-53085200D02*
X105311900Y-53451900D01*
D26*
X97823200Y-59575700D02*
X97982700Y-59735200D01*
D25*
X105311900Y-55108900D02*
X105086400Y-55334400D01*
%TO.N,IMU_INT2*%
D26*
X100467200Y-59075700D02*
X100307700Y-59235200D01*
X100667200Y-59075700D02*
X100467200Y-59075700D01*
D25*
X100667200Y-59075700D02*
X100820200Y-58922700D01*
X100820200Y-58922700D02*
X100938100Y-58922700D01*
X104945200Y-52435200D02*
X105478500Y-52968500D01*
%TO.N,SWDIO*%
X97545200Y-52435200D02*
X97021900Y-52958500D01*
%TO.N,SWDCLK*%
X96587300Y-53173800D02*
X96776700Y-53363200D01*
X97267200Y-53363200D02*
X97545200Y-53085200D01*
X96587300Y-52671900D02*
X96587300Y-53173800D01*
X97023900Y-52235300D02*
X96587300Y-52671900D01*
X96776700Y-53363200D02*
X97267200Y-53363200D01*
%TO.N,SDA*%
X99162500Y-54702500D02*
X98645200Y-54185200D01*
D26*
X100070900Y-56129700D02*
X100070900Y-56249900D01*
D25*
X99474200Y-57002000D02*
X98645200Y-57831000D01*
X99162500Y-54702500D02*
X100070900Y-55610900D01*
D26*
X100324500Y-56515900D02*
X99838500Y-57001900D01*
X100070900Y-56249900D02*
X100251900Y-56430900D01*
X99798000Y-57001900D02*
X99798000Y-57002000D01*
D25*
X100251900Y-56430900D02*
X100324500Y-56503500D01*
X98645200Y-57831000D02*
X98645200Y-58072700D01*
X97829000Y-62911400D02*
X97345200Y-63395200D01*
X100070900Y-55610900D02*
X100070900Y-56129700D01*
X99798000Y-57002000D02*
X99474200Y-57002000D01*
X100324500Y-56503500D02*
X100324500Y-56515900D01*
D26*
X99838500Y-57001900D02*
X99798000Y-57001900D01*
%TD*%
M02*
