%TF.GenerationSoftware,KiCad,Pcbnew,10.0.3*%
%TF.CreationDate,2026-08-30T15:30:07-04:00*%
%TF.ProjectId,pen-mixer,70656e2d-6d69-4786-9572-2e6b69636164,v2*%
%TF.SameCoordinates,Original*%
%TF.FileFunction,Legend,Top*%
%TF.FilePolarity,Positive*%
%FSLAX46Y46*%
G04 Gerber Fmt 4.6, Leading zero omitted, Abs format (unit mm)*
G04 Created by KiCad (PCBNEW 10.0.3) date 2026-08-30 15:30:07*
%MOMM*%
%LPD*%
G01*
G04 APERTURE LIST*
G04 Aperture macros list*
%AMRoundRect*
0 Rectangle with rounded corners*
0 $1 Rounding radius*
0 $2 $3 $4 $5 $6 $7 $8 $9 X,Y pos of 4 corners*
0 Add a 4 corners polygon primitive as box body*
4,1,4,$2,$3,$4,$5,$6,$7,$8,$9,$2,$3,0*
0 Add four circle primitives for the rounded corners*
1,1,$1+$1,$2,$3*
1,1,$1+$1,$4,$5*
1,1,$1+$1,$6,$7*
1,1,$1+$1,$8,$9*
0 Add four rect primitives between the rounded corners*
20,1,$1+$1,$2,$3,$4,$5,0*
20,1,$1+$1,$4,$5,$6,$7,0*
20,1,$1+$1,$6,$7,$8,$9,0*
20,1,$1+$1,$8,$9,$2,$3,0*%
G04 Aperture macros list end*
%ADD10C,0.120000*%
%ADD11C,0.150000*%
%ADD12C,0.100000*%
%ADD13C,0.060000*%
%ADD14C,0.250000*%
%ADD15RoundRect,0.140000X-0.140000X-0.170000X0.140000X-0.170000X0.140000X0.170000X-0.140000X0.170000X0*%
%ADD16RoundRect,0.140000X0.170000X-0.140000X0.170000X0.140000X-0.170000X0.140000X-0.170000X-0.140000X0*%
%ADD17RoundRect,0.135000X0.185000X-0.135000X0.185000X0.135000X-0.185000X0.135000X-0.185000X-0.135000X0*%
%ADD18RoundRect,0.150000X-0.512500X-0.150000X0.512500X-0.150000X0.512500X0.150000X-0.512500X0.150000X0*%
%ADD19RoundRect,0.147500X-0.147500X-0.172500X0.147500X-0.172500X0.147500X0.172500X-0.147500X0.172500X0*%
%ADD20C,0.800000*%
%ADD21R,1.100000X1.400000*%
%ADD22C,0.650000*%
%ADD23RoundRect,0.150000X-0.150000X-0.470000X0.150000X-0.470000X0.150000X0.470000X-0.150000X0.470000X0*%
%ADD24RoundRect,0.075000X-0.075000X-0.545000X0.075000X-0.545000X0.075000X0.545000X-0.075000X0.545000X0*%
%ADD25O,1.000000X2.100000*%
%ADD26O,1.000000X1.800000*%
%ADD27R,0.450000X0.450000*%
%ADD28RoundRect,0.087500X-0.225000X-0.087500X0.225000X-0.087500X0.225000X0.087500X-0.225000X0.087500X0*%
%ADD29RoundRect,0.087500X-0.087500X-0.225000X0.087500X-0.225000X0.087500X0.225000X-0.087500X0.225000X0*%
%ADD30R,0.800000X0.800000*%
%ADD31R,0.400000X0.400000*%
G04 APERTURE END LIST*
D10*
G36*
X98564469Y-43171958D02*
G01*
X98608168Y-43181631D01*
X98646441Y-43197094D01*
X98681251Y-43218951D01*
X98709967Y-43245694D01*
X98733196Y-43277694D01*
X98749977Y-43313538D01*
X98760355Y-43354054D01*
X98763971Y-43400206D01*
X98760384Y-43445642D01*
X98750032Y-43486026D01*
X98733196Y-43522230D01*
X98709933Y-43554566D01*
X98681213Y-43581479D01*
X98646441Y-43603367D01*
X98608168Y-43618830D01*
X98564469Y-43628503D01*
X98514354Y-43631895D01*
X98344264Y-43631895D01*
X98344264Y-43952000D01*
X98258095Y-43952000D01*
X98258095Y-43556912D01*
X98344264Y-43556912D01*
X98504292Y-43556912D01*
X98557231Y-43551745D01*
X98598941Y-43537468D01*
X98631884Y-43514951D01*
X98656967Y-43484276D01*
X98672348Y-43446712D01*
X98677802Y-43400206D01*
X98672350Y-43353733D01*
X98656969Y-43316184D01*
X98631884Y-43285510D01*
X98598941Y-43262993D01*
X98557231Y-43248716D01*
X98504292Y-43243549D01*
X98344264Y-43243549D01*
X98344264Y-43556912D01*
X98258095Y-43556912D01*
X98258095Y-43168566D01*
X98514354Y-43168566D01*
X98564469Y-43171958D01*
G37*
G36*
X99209373Y-43401072D02*
G01*
X99254957Y-43413258D01*
X99296567Y-43433277D01*
X99334023Y-43460399D01*
X99365579Y-43493057D01*
X99391675Y-43531755D01*
X99410760Y-43574345D01*
X99422405Y-43620878D01*
X99426406Y-43672195D01*
X99426406Y-43696815D01*
X98975338Y-43696815D01*
X98985573Y-43750360D01*
X99006650Y-43797003D01*
X99026597Y-43824490D01*
X99050189Y-43847509D01*
X99077725Y-43866417D01*
X99108078Y-43880322D01*
X99140549Y-43888716D01*
X99175666Y-43891574D01*
X99222509Y-43886903D01*
X99265743Y-43873109D01*
X99304538Y-43850928D01*
X99335743Y-43822160D01*
X99392798Y-43872523D01*
X99345888Y-43911993D01*
X99293196Y-43940276D01*
X99235508Y-43957360D01*
X99172345Y-43963186D01*
X99121157Y-43958903D01*
X99074436Y-43946384D01*
X99031319Y-43925719D01*
X98992440Y-43897714D01*
X98959566Y-43863939D01*
X98932254Y-43823870D01*
X98912227Y-43779693D01*
X98900040Y-43731649D01*
X98895862Y-43678887D01*
X98899084Y-43636389D01*
X98977585Y-43636389D01*
X99345806Y-43636389D01*
X99334034Y-43589561D01*
X99312784Y-43549096D01*
X99283055Y-43515027D01*
X99246741Y-43489208D01*
X99205101Y-43472944D01*
X99157788Y-43467373D01*
X99113392Y-43472691D01*
X99074282Y-43488236D01*
X99039135Y-43514414D01*
X99010773Y-43548303D01*
X98990264Y-43588534D01*
X98977585Y-43636389D01*
X98899084Y-43636389D01*
X98899866Y-43626081D01*
X98911506Y-43578247D01*
X98930544Y-43534540D01*
X98956711Y-43494711D01*
X98988111Y-43461330D01*
X99025115Y-43433814D01*
X99066368Y-43413385D01*
X99110695Y-43401077D01*
X99158911Y-43396884D01*
X99209373Y-43401072D01*
G37*
G36*
X99605290Y-43952000D02*
G01*
X99605290Y-43405824D01*
X99687013Y-43405824D01*
X99687013Y-43494240D01*
X99714879Y-43458258D01*
X99745663Y-43431356D01*
X99779686Y-43412400D01*
X99817629Y-43400867D01*
X99860474Y-43396884D01*
X99899375Y-43399845D01*
X99933637Y-43408347D01*
X99964033Y-43422090D01*
X99991378Y-43441094D01*
X100014388Y-43464449D01*
X100033398Y-43492579D01*
X100047142Y-43523705D01*
X100055646Y-43558704D01*
X100058604Y-43598336D01*
X100058604Y-43952000D01*
X99976881Y-43952000D01*
X99976881Y-43621832D01*
X99972054Y-43574885D01*
X99958597Y-43537340D01*
X99937118Y-43507136D01*
X99908236Y-43484165D01*
X99873225Y-43470098D01*
X99830286Y-43465126D01*
X99785627Y-43470487D01*
X99747792Y-43485920D01*
X99715182Y-43511583D01*
X99687013Y-43549096D01*
X99687013Y-43952000D01*
X99605290Y-43952000D01*
G37*
G36*
X100315841Y-43672195D02*
G01*
X100315841Y-43605028D01*
X100687432Y-43605028D01*
X100687432Y-43672195D01*
X100315841Y-43672195D01*
G37*
G36*
X100912233Y-43952000D02*
G01*
X100912233Y-43405824D01*
X100988339Y-43405824D01*
X100988339Y-43452816D01*
X101010064Y-43428097D01*
X101033557Y-43411312D01*
X101059253Y-43401385D01*
X101087941Y-43398008D01*
X101122125Y-43402434D01*
X101151738Y-43415349D01*
X101176483Y-43435998D01*
X101195408Y-43464002D01*
X101219859Y-43434549D01*
X101247465Y-43414334D01*
X101278841Y-43402199D01*
X101315136Y-43398008D01*
X101349844Y-43402609D01*
X101379060Y-43415910D01*
X101404138Y-43438308D01*
X101422637Y-43466892D01*
X101434179Y-43501429D01*
X101438283Y-43543479D01*
X101438283Y-43952000D01*
X101363301Y-43952000D01*
X101363301Y-43563653D01*
X101360773Y-43532093D01*
X101353842Y-43507176D01*
X101343126Y-43487547D01*
X101327873Y-43472109D01*
X101308883Y-43462832D01*
X101284948Y-43459557D01*
X101264377Y-43461967D01*
X101245722Y-43469083D01*
X101229150Y-43481846D01*
X101211089Y-43505426D01*
X101214410Y-43543479D01*
X101214410Y-43952000D01*
X101139428Y-43952000D01*
X101139428Y-43563653D01*
X101136840Y-43532133D01*
X101129734Y-43507217D01*
X101118716Y-43487547D01*
X101103083Y-43472152D01*
X101083553Y-43462850D01*
X101058876Y-43459557D01*
X101040193Y-43461638D01*
X101021898Y-43467959D01*
X101005432Y-43479543D01*
X100988339Y-43500932D01*
X100988339Y-43952000D01*
X100912233Y-43952000D01*
G37*
G36*
X101836546Y-43275984D02*
G01*
X101809594Y-43270817D01*
X101786769Y-43255272D01*
X101771172Y-43232605D01*
X101766057Y-43206619D01*
X101771246Y-43179727D01*
X101786769Y-43157380D01*
X101809552Y-43142256D01*
X101836546Y-43137205D01*
X101863581Y-43142258D01*
X101886371Y-43157380D01*
X101901894Y-43179727D01*
X101907083Y-43206619D01*
X101901968Y-43232605D01*
X101886371Y-43255272D01*
X101863539Y-43270814D01*
X101836546Y-43275984D01*
G37*
G36*
X101973077Y-43963186D02*
G01*
X101916965Y-43958106D01*
X101873912Y-43944276D01*
X101840991Y-43922886D01*
X101821669Y-43901299D01*
X101807449Y-43874733D01*
X101798383Y-43842126D01*
X101795122Y-43802034D01*
X101795122Y-43472990D01*
X101592547Y-43472990D01*
X101592547Y-43405824D01*
X101876846Y-43405824D01*
X101876846Y-43794170D01*
X101880064Y-43827601D01*
X101888579Y-43851406D01*
X101901465Y-43868078D01*
X101919212Y-43879907D01*
X101942865Y-43887604D01*
X101974201Y-43890450D01*
X102033503Y-43884295D01*
X102064295Y-43876383D01*
X102100670Y-43863584D01*
X102100670Y-43937443D01*
X102036336Y-43955907D01*
X102004411Y-43961385D01*
X101973077Y-43963186D01*
G37*
G36*
X102244920Y-43952000D02*
G01*
X102465422Y-43671071D01*
X102254982Y-43405824D01*
X102352338Y-43405824D01*
X102516909Y-43615091D01*
X102683629Y-43405824D01*
X102776539Y-43405824D01*
X102565024Y-43668824D01*
X102786601Y-43952000D01*
X102689246Y-43952000D01*
X102512414Y-43727052D01*
X102337830Y-43952000D01*
X102244920Y-43952000D01*
G37*
G36*
X103237622Y-43401072D02*
G01*
X103283205Y-43413258D01*
X103324815Y-43433277D01*
X103362271Y-43460399D01*
X103393828Y-43493057D01*
X103419923Y-43531755D01*
X103439009Y-43574345D01*
X103450653Y-43620878D01*
X103454655Y-43672195D01*
X103454655Y-43696815D01*
X103003587Y-43696815D01*
X103013821Y-43750360D01*
X103034899Y-43797003D01*
X103054845Y-43824490D01*
X103078438Y-43847509D01*
X103105973Y-43866417D01*
X103136326Y-43880322D01*
X103168798Y-43888716D01*
X103203915Y-43891574D01*
X103250757Y-43886903D01*
X103293992Y-43873109D01*
X103332787Y-43850928D01*
X103363992Y-43822160D01*
X103421047Y-43872523D01*
X103374137Y-43911993D01*
X103321444Y-43940276D01*
X103263756Y-43957360D01*
X103200593Y-43963186D01*
X103149405Y-43958903D01*
X103102685Y-43946384D01*
X103059567Y-43925719D01*
X103020689Y-43897714D01*
X102987815Y-43863939D01*
X102960502Y-43823870D01*
X102940475Y-43779693D01*
X102928289Y-43731649D01*
X102924110Y-43678887D01*
X102927332Y-43636389D01*
X103005834Y-43636389D01*
X103374054Y-43636389D01*
X103362282Y-43589561D01*
X103341033Y-43549096D01*
X103311304Y-43515027D01*
X103274989Y-43489208D01*
X103233349Y-43472944D01*
X103186036Y-43467373D01*
X103141640Y-43472691D01*
X103102530Y-43488236D01*
X103067383Y-43514414D01*
X103039021Y-43548303D01*
X103018512Y-43588534D01*
X103005834Y-43636389D01*
X102927332Y-43636389D01*
X102928114Y-43626081D01*
X102939754Y-43578247D01*
X102958793Y-43534540D01*
X102984960Y-43494711D01*
X103016359Y-43461330D01*
X103053364Y-43433814D01*
X103094617Y-43413385D01*
X103138944Y-43401077D01*
X103187160Y-43396884D01*
X103237622Y-43401072D01*
G37*
G36*
X103626846Y-43952000D02*
G01*
X103626846Y-43884833D01*
X103776811Y-43884833D01*
X103776811Y-43472990D01*
X103626846Y-43472990D01*
X103626846Y-43405824D01*
X103858534Y-43405824D01*
X103858534Y-43527799D01*
X103878182Y-43488387D01*
X103902750Y-43456462D01*
X103932394Y-43431030D01*
X103966600Y-43412212D01*
X104004351Y-43400806D01*
X104046553Y-43396884D01*
X104092421Y-43400792D01*
X104140537Y-43413639D01*
X104140537Y-43488622D01*
X104087390Y-43474114D01*
X104037613Y-43468496D01*
X103998256Y-43472082D01*
X103962694Y-43482548D01*
X103930146Y-43499857D01*
X103901718Y-43523302D01*
X103877904Y-43552850D01*
X103858534Y-43589397D01*
X103858534Y-43884833D01*
X104017439Y-43884833D01*
X104017439Y-43952000D01*
X103626846Y-43952000D01*
G37*
G36*
X105162107Y-43952000D02*
G01*
X104927048Y-43405824D01*
X105015464Y-43405824D01*
X105203482Y-43859090D01*
X105388179Y-43405824D01*
X105475471Y-43405824D01*
X105240461Y-43952000D01*
X105162107Y-43952000D01*
G37*
G36*
X105619672Y-43952000D02*
G01*
X105619672Y-43892697D01*
X105933084Y-43550220D01*
X105982874Y-43490830D01*
X106008604Y-43449494D01*
X106023296Y-43408069D01*
X106028193Y-43364400D01*
X106022989Y-43327024D01*
X106007761Y-43294853D01*
X105981738Y-43266508D01*
X105948893Y-43245467D01*
X105910054Y-43232455D01*
X105863671Y-43227868D01*
X105810434Y-43233271D01*
X105761821Y-43249166D01*
X105714945Y-43276217D01*
X105656650Y-43322976D01*
X105609609Y-43267045D01*
X105661085Y-43225323D01*
X105711887Y-43194363D01*
X105762416Y-43172997D01*
X105813185Y-43160428D01*
X105864794Y-43156256D01*
X105911225Y-43159333D01*
X105952765Y-43168204D01*
X105990139Y-43182537D01*
X106024639Y-43202621D01*
X106053140Y-43226630D01*
X106076308Y-43254735D01*
X106093624Y-43286555D01*
X106104085Y-43321365D01*
X106107669Y-43359955D01*
X106105075Y-43398116D01*
X106097606Y-43432104D01*
X106084264Y-43464978D01*
X106061800Y-43502642D01*
X106032545Y-43541346D01*
X105987941Y-43592718D01*
X105720447Y-43882586D01*
X106124473Y-43881511D01*
X106124473Y-43952000D01*
X105619672Y-43952000D01*
G37*
D11*
G36*
X98755925Y-45052000D02*
G01*
X98755925Y-44992697D01*
X99069337Y-44650220D01*
X99119127Y-44590830D01*
X99144857Y-44549494D01*
X99159549Y-44508069D01*
X99164445Y-44464400D01*
X99159241Y-44427024D01*
X99144014Y-44394853D01*
X99117990Y-44366508D01*
X99085145Y-44345467D01*
X99046307Y-44332455D01*
X98999923Y-44327868D01*
X98946687Y-44333271D01*
X98898074Y-44349166D01*
X98851198Y-44376217D01*
X98792903Y-44422976D01*
X98745862Y-44367045D01*
X98797338Y-44325323D01*
X98848140Y-44294363D01*
X98898669Y-44272997D01*
X98949438Y-44260428D01*
X99001047Y-44256256D01*
X99047477Y-44259333D01*
X99089018Y-44268204D01*
X99126392Y-44282537D01*
X99160892Y-44302621D01*
X99189393Y-44326630D01*
X99212561Y-44354735D01*
X99229877Y-44386555D01*
X99240338Y-44421365D01*
X99243922Y-44459955D01*
X99241328Y-44498116D01*
X99233859Y-44532104D01*
X99220517Y-44564978D01*
X99198053Y-44602642D01*
X99168798Y-44641346D01*
X99124194Y-44692718D01*
X98856699Y-44982586D01*
X99260726Y-44981511D01*
X99260726Y-45052000D01*
X98755925Y-45052000D01*
G37*
G36*
X99735322Y-44261849D02*
G01*
X99784893Y-44278213D01*
X99830251Y-44305496D01*
X99869410Y-44341727D01*
X99903364Y-44387665D01*
X99932101Y-44444861D01*
X99951925Y-44506006D01*
X99964552Y-44577259D01*
X99969030Y-44660283D01*
X99964575Y-44742530D01*
X99951969Y-44813645D01*
X99932101Y-44875168D01*
X99903336Y-44932716D01*
X99869378Y-44978818D01*
X99830251Y-45015070D01*
X99784893Y-45042353D01*
X99735322Y-45058717D01*
X99680286Y-45064309D01*
X99625949Y-45058752D01*
X99576519Y-45042419D01*
X99530810Y-45015070D01*
X99491356Y-44978779D01*
X99471827Y-44952397D01*
X99572819Y-44952397D01*
X99605183Y-44974181D01*
X99640663Y-44987150D01*
X99680286Y-44991574D01*
X99720533Y-44986971D01*
X99756535Y-44973469D01*
X99789365Y-44950736D01*
X99817022Y-44921078D01*
X99841152Y-44883149D01*
X99861563Y-44835454D01*
X99875389Y-44785181D01*
X99884193Y-44727168D01*
X99887307Y-44660283D01*
X99883948Y-44592499D01*
X99874411Y-44533228D01*
X99858711Y-44478039D01*
X99839191Y-44433088D01*
X99572819Y-44952397D01*
X99471827Y-44952397D01*
X99457225Y-44932672D01*
X99428423Y-44875168D01*
X99408555Y-44813645D01*
X99395949Y-44742530D01*
X99391494Y-44660283D01*
X99473217Y-44660283D01*
X99476563Y-44728025D01*
X99486064Y-44787289D01*
X99501800Y-44842486D01*
X99521333Y-44887478D01*
X99787704Y-44368168D01*
X99755342Y-44346383D01*
X99719877Y-44333415D01*
X99680286Y-44328992D01*
X99640038Y-44333593D01*
X99604019Y-44347095D01*
X99571159Y-44369829D01*
X99543507Y-44399460D01*
X99519377Y-44437386D01*
X99498960Y-44485112D01*
X99485134Y-44535384D01*
X99476331Y-44593398D01*
X99473217Y-44660283D01*
X99391494Y-44660283D01*
X99395972Y-44577259D01*
X99408598Y-44506006D01*
X99428423Y-44444861D01*
X99457196Y-44387709D01*
X99491324Y-44341766D01*
X99530810Y-44305496D01*
X99576519Y-44278146D01*
X99625949Y-44261814D01*
X99680286Y-44256256D01*
X99735322Y-44261849D01*
G37*
G36*
X100098674Y-45052000D02*
G01*
X100098674Y-44992697D01*
X100412087Y-44650220D01*
X100461877Y-44590830D01*
X100487607Y-44549494D01*
X100502298Y-44508069D01*
X100507195Y-44464400D01*
X100501991Y-44427024D01*
X100486764Y-44394853D01*
X100460740Y-44366508D01*
X100427895Y-44345467D01*
X100389057Y-44332455D01*
X100342673Y-44327868D01*
X100289436Y-44333271D01*
X100240824Y-44349166D01*
X100193947Y-44376217D01*
X100135653Y-44422976D01*
X100088611Y-44367045D01*
X100140088Y-44325323D01*
X100190889Y-44294363D01*
X100241419Y-44272997D01*
X100292187Y-44260428D01*
X100343796Y-44256256D01*
X100390227Y-44259333D01*
X100431767Y-44268204D01*
X100469142Y-44282537D01*
X100503642Y-44302621D01*
X100532142Y-44326630D01*
X100555311Y-44354735D01*
X100572626Y-44386555D01*
X100583087Y-44421365D01*
X100586672Y-44459955D01*
X100584077Y-44498116D01*
X100576609Y-44532104D01*
X100563267Y-44564978D01*
X100540803Y-44602642D01*
X100511548Y-44641346D01*
X100466944Y-44692718D01*
X100199449Y-44982586D01*
X100603475Y-44981511D01*
X100603475Y-45052000D01*
X100098674Y-45052000D01*
G37*
G36*
X101140151Y-44259603D02*
G01*
X101188632Y-44269690D01*
X101234713Y-44286366D01*
X101274850Y-44308817D01*
X101234550Y-44371539D01*
X101198975Y-44353590D01*
X101161815Y-44340178D01*
X101123423Y-44331780D01*
X101084585Y-44328992D01*
X101037167Y-44332913D01*
X100995156Y-44344230D01*
X100957583Y-44362665D01*
X100923723Y-44388478D01*
X100893147Y-44422439D01*
X100863742Y-44470317D01*
X100841343Y-44527827D01*
X100826538Y-44596767D01*
X100820461Y-44679285D01*
X100851684Y-44644466D01*
X100886276Y-44615518D01*
X100924508Y-44592041D01*
X100965728Y-44574479D01*
X101007345Y-44564124D01*
X101049854Y-44560681D01*
X101099838Y-44564328D01*
X101144716Y-44574882D01*
X101185311Y-44592041D01*
X101222268Y-44615811D01*
X101253026Y-44644591D01*
X101278172Y-44678748D01*
X101296675Y-44716903D01*
X101307920Y-44758590D01*
X101311780Y-44804630D01*
X101307799Y-44852940D01*
X101296181Y-44896891D01*
X101277048Y-44937303D01*
X101251087Y-44973702D01*
X101219727Y-45004330D01*
X101182478Y-45029627D01*
X101141417Y-45048050D01*
X101096380Y-45059310D01*
X101046532Y-45063186D01*
X100987618Y-45057665D01*
X100934878Y-45041601D01*
X100887041Y-45015070D01*
X100845025Y-44979534D01*
X100809094Y-44935688D01*
X100779037Y-44882446D01*
X100757748Y-44824873D01*
X100744485Y-44760174D01*
X100743332Y-44741958D01*
X100822659Y-44741958D01*
X100832400Y-44798109D01*
X100848008Y-44846448D01*
X100869043Y-44888072D01*
X100895394Y-44923870D01*
X100927988Y-44954391D01*
X100963361Y-44975594D01*
X101002169Y-44988336D01*
X101045408Y-44992697D01*
X101080580Y-44989914D01*
X101112275Y-44981835D01*
X101141103Y-44968615D01*
X101167111Y-44950492D01*
X101189001Y-44928419D01*
X101207097Y-44902034D01*
X101220373Y-44872847D01*
X101228426Y-44841307D01*
X101231180Y-44806877D01*
X101228339Y-44772498D01*
X101220088Y-44741558D01*
X101206560Y-44713430D01*
X101188121Y-44688221D01*
X101165687Y-44667051D01*
X101138856Y-44649634D01*
X101109333Y-44637124D01*
X101076167Y-44629372D01*
X101038667Y-44626675D01*
X100998397Y-44630065D01*
X100959210Y-44640243D01*
X100920600Y-44657498D01*
X100884837Y-44680383D01*
X100852263Y-44708406D01*
X100822659Y-44741958D01*
X100743332Y-44741958D01*
X100739861Y-44687150D01*
X100745058Y-44601451D01*
X100759875Y-44526405D01*
X100783482Y-44460492D01*
X100817307Y-44399658D01*
X100858260Y-44349933D01*
X100906630Y-44309990D01*
X100947471Y-44286718D01*
X100991470Y-44270000D01*
X101039182Y-44259768D01*
X101091277Y-44256256D01*
X101140151Y-44259603D01*
G37*
G36*
X101508591Y-44772195D02*
G01*
X101508591Y-44705028D01*
X101880182Y-44705028D01*
X101880182Y-44772195D01*
X101508591Y-44772195D01*
G37*
G36*
X102420821Y-44261849D02*
G01*
X102470392Y-44278213D01*
X102515750Y-44305496D01*
X102554909Y-44341727D01*
X102588863Y-44387665D01*
X102617600Y-44444861D01*
X102637424Y-44506006D01*
X102650051Y-44577259D01*
X102654529Y-44660283D01*
X102650074Y-44742530D01*
X102637468Y-44813645D01*
X102617600Y-44875168D01*
X102588835Y-44932716D01*
X102554877Y-44978818D01*
X102515750Y-45015070D01*
X102470392Y-45042353D01*
X102420821Y-45058717D01*
X102365785Y-45064309D01*
X102311448Y-45058752D01*
X102262018Y-45042419D01*
X102216309Y-45015070D01*
X102176855Y-44978779D01*
X102157326Y-44952397D01*
X102258318Y-44952397D01*
X102290682Y-44974181D01*
X102326162Y-44987150D01*
X102365785Y-44991574D01*
X102406032Y-44986971D01*
X102442034Y-44973469D01*
X102474864Y-44950736D01*
X102502521Y-44921078D01*
X102526651Y-44883149D01*
X102547062Y-44835454D01*
X102560888Y-44785181D01*
X102569692Y-44727168D01*
X102572805Y-44660283D01*
X102569447Y-44592499D01*
X102559909Y-44533228D01*
X102544210Y-44478039D01*
X102524690Y-44433088D01*
X102258318Y-44952397D01*
X102157326Y-44952397D01*
X102142724Y-44932672D01*
X102113922Y-44875168D01*
X102094053Y-44813645D01*
X102081448Y-44742530D01*
X102076993Y-44660283D01*
X102158716Y-44660283D01*
X102162062Y-44728025D01*
X102171563Y-44787289D01*
X102187299Y-44842486D01*
X102206832Y-44887478D01*
X102473203Y-44368168D01*
X102440841Y-44346383D01*
X102405376Y-44333415D01*
X102365785Y-44328992D01*
X102325537Y-44333593D01*
X102289518Y-44347095D01*
X102256658Y-44369829D01*
X102229006Y-44399460D01*
X102204876Y-44437386D01*
X102184459Y-44485112D01*
X102170633Y-44535384D01*
X102161830Y-44593398D01*
X102158716Y-44660283D01*
X102076993Y-44660283D01*
X102081471Y-44577259D01*
X102094097Y-44506006D01*
X102113922Y-44444861D01*
X102142695Y-44387709D01*
X102176823Y-44341766D01*
X102216309Y-44305496D01*
X102262018Y-44278146D01*
X102311448Y-44261814D01*
X102365785Y-44256256D01*
X102420821Y-44261849D01*
G37*
G36*
X103084290Y-44259396D02*
G01*
X103126564Y-44268459D01*
X103164704Y-44283123D01*
X103200007Y-44303538D01*
X103229254Y-44327738D01*
X103253120Y-44355859D01*
X103271131Y-44387730D01*
X103281927Y-44422173D01*
X103285604Y-44459955D01*
X103280921Y-44499438D01*
X103266960Y-44536047D01*
X103243057Y-44570743D01*
X103212201Y-44599853D01*
X103175237Y-44622567D01*
X103131145Y-44638985D01*
X103183247Y-44656152D01*
X103227249Y-44680946D01*
X103264355Y-44713430D01*
X103293286Y-44752750D01*
X103310166Y-44794694D01*
X103315841Y-44840485D01*
X103311798Y-44881881D01*
X103299897Y-44919856D01*
X103279986Y-44955230D01*
X103253546Y-44986275D01*
X103220805Y-45012901D01*
X103180921Y-45035244D01*
X103137890Y-45051099D01*
X103090228Y-45060910D01*
X103037160Y-45064309D01*
X102984060Y-45060901D01*
X102936572Y-45051082D01*
X102893887Y-45035244D01*
X102854351Y-45012958D01*
X102821584Y-44986337D01*
X102794822Y-44955230D01*
X102774627Y-44919826D01*
X102762571Y-44881854D01*
X102758479Y-44840485D01*
X102758896Y-44837115D01*
X102837907Y-44837115D01*
X102840859Y-44866857D01*
X102849569Y-44894260D01*
X102864187Y-44919913D01*
X102894732Y-44952615D01*
X102935262Y-44978140D01*
X102982241Y-44993889D01*
X103037160Y-44999390D01*
X103092030Y-44993889D01*
X103138960Y-44978140D01*
X103179521Y-44952610D01*
X103210035Y-44919913D01*
X103224681Y-44894257D01*
X103233407Y-44866854D01*
X103236364Y-44837115D01*
X103233407Y-44807375D01*
X103224681Y-44779972D01*
X103210035Y-44754316D01*
X103179516Y-44721590D01*
X103138960Y-44696089D01*
X103092030Y-44680340D01*
X103037160Y-44674840D01*
X102982241Y-44680340D01*
X102935262Y-44696089D01*
X102894738Y-44721585D01*
X102864187Y-44754316D01*
X102849569Y-44779969D01*
X102840859Y-44807373D01*
X102837907Y-44837115D01*
X102758896Y-44837115D01*
X102764150Y-44794691D01*
X102781014Y-44752747D01*
X102809916Y-44713430D01*
X102847022Y-44680946D01*
X102891024Y-44656152D01*
X102943127Y-44638985D01*
X102899748Y-44622639D01*
X102862925Y-44599943D01*
X102831752Y-44570743D01*
X102807527Y-44536011D01*
X102793401Y-44499406D01*
X102789066Y-44463277D01*
X102867020Y-44463277D01*
X102872661Y-44501628D01*
X102889393Y-44535475D01*
X102915446Y-44563847D01*
X102950356Y-44586424D01*
X102990777Y-44600543D01*
X103037160Y-44605426D01*
X103083494Y-44600543D01*
X103123866Y-44586424D01*
X103158817Y-44563844D01*
X103184878Y-44535475D01*
X103201610Y-44501628D01*
X103207251Y-44463277D01*
X103201626Y-44424841D01*
X103184878Y-44390541D01*
X103158753Y-44361861D01*
X103123866Y-44339641D01*
X103083521Y-44325890D01*
X103037160Y-44321127D01*
X102990750Y-44325890D01*
X102950356Y-44339641D01*
X102915511Y-44361857D01*
X102889393Y-44390541D01*
X102872645Y-44424841D01*
X102867020Y-44463277D01*
X102789066Y-44463277D01*
X102788667Y-44459955D01*
X102792339Y-44422170D01*
X102803119Y-44387727D01*
X102821103Y-44355859D01*
X102845021Y-44327769D01*
X102874453Y-44303566D01*
X102910105Y-44283123D01*
X102948612Y-44268412D01*
X102990749Y-44259371D01*
X103037160Y-44256256D01*
X103084290Y-44259396D01*
G37*
G36*
X103522715Y-44772195D02*
G01*
X103522715Y-44705028D01*
X103894306Y-44705028D01*
X103894306Y-44772195D01*
X103522715Y-44772195D01*
G37*
G36*
X104126923Y-45052000D02*
G01*
X104126923Y-44992697D01*
X104440335Y-44650220D01*
X104490125Y-44590830D01*
X104515855Y-44549494D01*
X104530547Y-44508069D01*
X104535443Y-44464400D01*
X104530239Y-44427024D01*
X104515012Y-44394853D01*
X104488988Y-44366508D01*
X104456143Y-44345467D01*
X104417305Y-44332455D01*
X104370921Y-44327868D01*
X104317685Y-44333271D01*
X104269072Y-44349166D01*
X104222196Y-44376217D01*
X104163901Y-44422976D01*
X104116860Y-44367045D01*
X104168336Y-44325323D01*
X104219138Y-44294363D01*
X104269667Y-44272997D01*
X104320436Y-44260428D01*
X104372045Y-44256256D01*
X104418475Y-44259333D01*
X104460016Y-44268204D01*
X104497390Y-44282537D01*
X104531890Y-44302621D01*
X104560391Y-44326630D01*
X104583559Y-44354735D01*
X104600875Y-44386555D01*
X104611335Y-44421365D01*
X104614920Y-44459955D01*
X104612326Y-44498116D01*
X104604857Y-44532104D01*
X104591515Y-44564978D01*
X104569051Y-44602642D01*
X104539796Y-44641346D01*
X104495192Y-44692718D01*
X104227697Y-44982586D01*
X104631724Y-44981511D01*
X104631724Y-45052000D01*
X104126923Y-45052000D01*
G37*
G36*
X105086650Y-44262856D02*
G01*
X105139390Y-44278937D01*
X105187230Y-44305496D01*
X105229246Y-44341031D01*
X105265177Y-44384877D01*
X105295234Y-44438120D01*
X105316523Y-44495693D01*
X105329786Y-44560392D01*
X105334411Y-44633416D01*
X105329208Y-44719112D01*
X105314375Y-44794158D01*
X105290740Y-44860073D01*
X105256987Y-44920921D01*
X105216238Y-44970644D01*
X105168228Y-45010576D01*
X105127696Y-45033788D01*
X105083727Y-45050510D01*
X105035730Y-45060776D01*
X104982994Y-45064309D01*
X104935033Y-45060860D01*
X104886176Y-45050339D01*
X104839539Y-45033403D01*
X104799421Y-45011699D01*
X104839721Y-44949027D01*
X104875416Y-44966954D01*
X104913043Y-44980387D01*
X104951750Y-44988814D01*
X104989686Y-44991574D01*
X105037105Y-44987652D01*
X105079111Y-44976335D01*
X105116673Y-44957899D01*
X105150518Y-44932087D01*
X105181075Y-44898127D01*
X105210506Y-44850222D01*
X105232929Y-44792693D01*
X105247757Y-44723744D01*
X105253859Y-44641232D01*
X105222605Y-44676086D01*
X105187996Y-44705067D01*
X105149763Y-44728573D01*
X105108577Y-44746104D01*
X105066959Y-44756445D01*
X105024417Y-44759885D01*
X104974492Y-44756181D01*
X104929616Y-44745453D01*
X104888960Y-44727987D01*
X104851939Y-44703909D01*
X104821168Y-44675114D01*
X104796050Y-44641281D01*
X104777594Y-44603469D01*
X104766356Y-44561954D01*
X104762491Y-44515886D01*
X104762675Y-44513639D01*
X104843092Y-44513639D01*
X104845931Y-44548020D01*
X104854181Y-44578976D01*
X104867711Y-44607136D01*
X104886178Y-44632309D01*
X104908781Y-44653482D01*
X104935953Y-44670932D01*
X104965836Y-44683467D01*
X104998853Y-44691177D01*
X105035604Y-44693842D01*
X105075876Y-44690457D01*
X105115063Y-44680294D01*
X105153671Y-44663067D01*
X105189431Y-44640180D01*
X105222005Y-44612141D01*
X105251612Y-44578559D01*
X105241867Y-44522409D01*
X105226250Y-44474081D01*
X105205200Y-44432473D01*
X105178828Y-44396696D01*
X105146258Y-44366176D01*
X105110902Y-44344973D01*
X105072102Y-44332231D01*
X105028863Y-44327868D01*
X104994433Y-44330622D01*
X104962893Y-44338675D01*
X104933706Y-44351951D01*
X104907324Y-44370049D01*
X104885251Y-44391955D01*
X104867125Y-44417994D01*
X104853932Y-44446819D01*
X104845868Y-44478498D01*
X104843092Y-44513639D01*
X104762675Y-44513639D01*
X104766497Y-44466866D01*
X104778125Y-44422776D01*
X104797174Y-44382725D01*
X104823133Y-44346631D01*
X104854491Y-44316175D01*
X104891745Y-44290939D01*
X104932839Y-44272486D01*
X104977893Y-44261211D01*
X105027739Y-44257331D01*
X105086650Y-44262856D01*
G37*
%TO.C,C5*%
D10*
X98587364Y-55475200D02*
X98803036Y-55475200D01*
X98587364Y-56195200D02*
X98803036Y-56195200D01*
%TO.C,C3*%
X97335200Y-61293036D02*
X97335200Y-61077364D01*
X98055200Y-61293036D02*
X98055200Y-61077364D01*
%TO.C,R9*%
X105515200Y-66488841D02*
X105515200Y-66181559D01*
X106275200Y-66488841D02*
X106275200Y-66181559D01*
%TO.C,R7*%
X103315200Y-61338841D02*
X103315200Y-61031559D01*
X104075200Y-61338841D02*
X104075200Y-61031559D01*
%TO.C,U3*%
X98185200Y-62775200D02*
X100005200Y-62775200D01*
X98185200Y-62825200D02*
X98185200Y-62775200D01*
X98185200Y-65895200D02*
X98185200Y-65845200D01*
X100005200Y-62775200D02*
X100005200Y-62825200D01*
X100005200Y-63945200D02*
X100005200Y-64725200D01*
X100005200Y-65845200D02*
X100005200Y-65895200D01*
X100005200Y-65895200D02*
X98185200Y-65895200D01*
X97645200Y-62825200D02*
X97405200Y-62495200D01*
X97885200Y-62495200D01*
X97645200Y-62825200D01*
G36*
X97645200Y-62825200D02*
G01*
X97405200Y-62495200D01*
X97885200Y-62495200D01*
X97645200Y-62825200D01*
G37*
%TO.C,C11*%
X107287364Y-67375200D02*
X107503036Y-67375200D01*
X107287364Y-68095200D02*
X107503036Y-68095200D01*
%TO.C,R3*%
X102315200Y-63788841D02*
X102315200Y-63481559D01*
X103075200Y-63788841D02*
X103075200Y-63481559D01*
%TO.C,C8*%
X104587364Y-55475200D02*
X104803036Y-55475200D01*
X104587364Y-56195200D02*
X104803036Y-56195200D01*
%TO.C,D1*%
D12*
X98055200Y-67035200D02*
G75*
G02*
X97955200Y-67035200I-50000J0D01*
G01*
X97955200Y-67035200D02*
G75*
G02*
X98055200Y-67035200I50000J0D01*
G01*
%TO.C,R4*%
D10*
X105315200Y-63788841D02*
X105315200Y-63481559D01*
X106075200Y-63788841D02*
X106075200Y-63481559D01*
%TO.C,U4*%
X101985200Y-56875200D02*
X103805200Y-56875200D01*
X101985200Y-56925200D02*
X101985200Y-56875200D01*
X101985200Y-59995200D02*
X101985200Y-59945200D01*
X103805200Y-56875200D02*
X103805200Y-56925200D01*
X103805200Y-58045200D02*
X103805200Y-58825200D01*
X103805200Y-59945200D02*
X103805200Y-59995200D01*
X103805200Y-59995200D02*
X101985200Y-59995200D01*
X101445200Y-56925200D02*
X101205200Y-56595200D01*
X101685200Y-56595200D01*
X101445200Y-56925200D01*
G36*
X101445200Y-56925200D02*
G01*
X101205200Y-56595200D01*
X101685200Y-56595200D01*
X101445200Y-56925200D01*
G37*
%TO.C,J1*%
X97615200Y-71325200D02*
X97615200Y-73245200D01*
X97615200Y-76960200D02*
X97615200Y-75255200D01*
X106775200Y-73245200D02*
X106775200Y-71325200D01*
X106775200Y-75255200D02*
X106775200Y-76960200D01*
X106775200Y-76960200D02*
X97615200Y-76960200D01*
%TO.C,C4*%
X99335200Y-61293036D02*
X99335200Y-61077364D01*
X100055200Y-61293036D02*
X100055200Y-61077364D01*
%TO.C,R2*%
X100515200Y-67338841D02*
X100515200Y-67031559D01*
X101275200Y-67338841D02*
X101275200Y-67031559D01*
%TO.C,U2*%
X97385200Y-56775200D02*
X98060200Y-56775200D01*
X97385200Y-56950200D02*
X97385200Y-56775200D01*
X97385200Y-59495200D02*
X97385200Y-59320200D01*
X98060200Y-59495200D02*
X97385200Y-59495200D01*
X99930200Y-56775200D02*
X100605200Y-56775200D01*
X100605200Y-56775200D02*
X100605200Y-56950200D01*
X100605200Y-59320200D02*
X100605200Y-59495200D01*
X100605200Y-59495200D02*
X99930200Y-59495200D01*
X97255200Y-57385200D02*
X96925200Y-57625200D01*
X96925200Y-57145200D01*
X97255200Y-57385200D01*
G36*
X97255200Y-57385200D02*
G01*
X96925200Y-57625200D01*
X96925200Y-57145200D01*
X97255200Y-57385200D01*
G37*
%TO.C,R1*%
X96715200Y-67338841D02*
X96715200Y-67031559D01*
X97475200Y-67338841D02*
X97475200Y-67031559D01*
%TO.C,C10*%
X101835200Y-66443036D02*
X101835200Y-66227364D01*
X102555200Y-66443036D02*
X102555200Y-66227364D01*
%TO.C,R6*%
X101315200Y-61338841D02*
X101315200Y-61031559D01*
X102075200Y-61338841D02*
X102075200Y-61031559D01*
%TO.C,C6*%
X102587364Y-55475200D02*
X102803036Y-55475200D01*
X102587364Y-56195200D02*
X102803036Y-56195200D01*
%TO.C,R8*%
X103815200Y-66488841D02*
X103815200Y-66181559D01*
X104575200Y-66488841D02*
X104575200Y-66181559D01*
%TO.C,U1*%
D11*
X98095200Y-46385200D02*
X106295200Y-46385200D01*
X98095200Y-54585200D02*
X98095200Y-46385200D01*
X106295200Y-46385200D02*
X106295200Y-54585200D01*
X106295200Y-54585200D02*
X98095200Y-54585200D01*
D13*
X106225200Y-54485200D02*
G75*
G02*
X106165200Y-54485200I-30000J0D01*
G01*
X106165200Y-54485200D02*
G75*
G02*
X106225200Y-54485200I30000J0D01*
G01*
D14*
X106695200Y-54985200D02*
G75*
G02*
X106295200Y-54985200I-200000J0D01*
G01*
X106295200Y-54985200D02*
G75*
G02*
X106695200Y-54985200I200000J0D01*
G01*
%TO.C,C7*%
D10*
X100587364Y-55475200D02*
X100803036Y-55475200D01*
X100587364Y-56195200D02*
X100803036Y-56195200D01*
%TO.C,C2*%
X104335200Y-63743036D02*
X104335200Y-63527364D01*
X105055200Y-63743036D02*
X105055200Y-63527364D01*
%TO.C,C1*%
X104635200Y-61293036D02*
X104635200Y-61077364D01*
X105355200Y-61293036D02*
X105355200Y-61077364D01*
%TD*%
%LPC*%
D15*
%TO.C,C5*%
X98215200Y-55835200D03*
X99175200Y-55835200D03*
%TD*%
D16*
%TO.C,C3*%
X97695200Y-61665200D03*
X97695200Y-60705200D03*
%TD*%
D17*
%TO.C,R9*%
X105895200Y-66845200D03*
X105895200Y-65825200D03*
%TD*%
%TO.C,R7*%
X103695200Y-61695200D03*
X103695200Y-60675200D03*
%TD*%
D18*
%TO.C,U3*%
X97957700Y-63385200D03*
X97957700Y-64335200D03*
X97957700Y-65285200D03*
X100232700Y-65285200D03*
X100232700Y-63385200D03*
%TD*%
D15*
%TO.C,C11*%
X106915200Y-67735200D03*
X107875200Y-67735200D03*
%TD*%
D17*
%TO.C,R3*%
X102695200Y-64145200D03*
X102695200Y-63125200D03*
%TD*%
D15*
%TO.C,C8*%
X104215200Y-55835200D03*
X105175200Y-55835200D03*
%TD*%
D19*
%TO.C,D1*%
X98610200Y-67035200D03*
X99580200Y-67035200D03*
%TD*%
D17*
%TO.C,R4*%
X105695200Y-64145200D03*
X105695200Y-63125200D03*
%TD*%
D18*
%TO.C,U4*%
X101757700Y-57485200D03*
X101757700Y-58435200D03*
X101757700Y-59385200D03*
X104032700Y-59385200D03*
X104032700Y-57485200D03*
%TD*%
D20*
%TO.C,SW1*%
X106145200Y-57935200D03*
X107945200Y-57935200D03*
D21*
X106295200Y-59735200D03*
X106295200Y-56135200D03*
X107795200Y-59735200D03*
X107795200Y-56135200D03*
%TD*%
D22*
%TO.C,J1*%
X99305200Y-70570200D03*
X105085200Y-70570200D03*
D23*
X98995200Y-69450200D03*
X99795200Y-69450200D03*
D24*
X100945200Y-69450200D03*
X101945200Y-69450200D03*
X102445200Y-69450200D03*
X103445200Y-69450200D03*
D23*
X104595200Y-69450200D03*
X105395200Y-69450200D03*
X105395200Y-69450200D03*
X104595200Y-69450200D03*
D24*
X103945200Y-69450200D03*
X102945200Y-69450200D03*
X101445200Y-69450200D03*
X100445200Y-69450200D03*
D23*
X99795200Y-69450200D03*
X98995200Y-69450200D03*
D25*
X97875200Y-70050200D03*
D26*
X97875200Y-74250200D03*
D25*
X106515200Y-70050200D03*
D26*
X106515200Y-74250200D03*
%TD*%
D16*
%TO.C,C4*%
X99695200Y-61665200D03*
X99695200Y-60705200D03*
%TD*%
D17*
%TO.C,R2*%
X100895200Y-67695200D03*
X100895200Y-66675200D03*
%TD*%
D27*
%TO.C,LED1*%
X107175200Y-63015200D03*
X108015200Y-63015200D03*
X107175200Y-63855200D03*
X108015200Y-63855200D03*
%TD*%
D28*
%TO.C,U2*%
X97832700Y-57385200D03*
X97832700Y-57885200D03*
X97832700Y-58385200D03*
X97832700Y-58885200D03*
D29*
X98495200Y-59047700D03*
X98995200Y-59047700D03*
X99495200Y-59047700D03*
D28*
X100157700Y-58885200D03*
X100157700Y-58385200D03*
X100157700Y-57885200D03*
X100157700Y-57385200D03*
D29*
X99495200Y-57222700D03*
X98995200Y-57222700D03*
X98495200Y-57222700D03*
%TD*%
D17*
%TO.C,R1*%
X97095200Y-67695200D03*
X97095200Y-66675200D03*
%TD*%
D16*
%TO.C,C10*%
X102195200Y-66815200D03*
X102195200Y-65855200D03*
%TD*%
D17*
%TO.C,R6*%
X101695200Y-61695200D03*
X101695200Y-60675200D03*
%TD*%
D27*
%TO.C,LED2*%
X107175200Y-65415200D03*
X108015200Y-65415200D03*
X107175200Y-66255200D03*
X108015200Y-66255200D03*
%TD*%
D15*
%TO.C,C6*%
X102215200Y-55835200D03*
X103175200Y-55835200D03*
%TD*%
D17*
%TO.C,R8*%
X104195200Y-66845200D03*
X104195200Y-65825200D03*
%TD*%
D30*
%TO.C,U1*%
X105695200Y-53985200D03*
D31*
X105895200Y-53085200D03*
X105245200Y-52765200D03*
X105895200Y-52435200D03*
X105245200Y-52115200D03*
X105895200Y-51785200D03*
D30*
X105695200Y-50885200D03*
D31*
X104795200Y-50685200D03*
X104475200Y-51335200D03*
X104145200Y-50685200D03*
X103825200Y-51335200D03*
X103495200Y-50685200D03*
X103175200Y-51335200D03*
X102845200Y-50685200D03*
X102525200Y-51335200D03*
X102195200Y-50685200D03*
X101865200Y-51335200D03*
X101545200Y-50685200D03*
X101215200Y-51335200D03*
X100895200Y-50685200D03*
X100565200Y-51335200D03*
X100245200Y-50685200D03*
X99915200Y-51335200D03*
X99595200Y-50685200D03*
D30*
X98695200Y-50885200D03*
D31*
X98495200Y-51785200D03*
X99145200Y-52115200D03*
X98495200Y-52435200D03*
X99145200Y-52765200D03*
X98495200Y-53085200D03*
D30*
X98695200Y-53985200D03*
D31*
X99595200Y-54185200D03*
X99915200Y-53535200D03*
X100245200Y-54185200D03*
X100565200Y-53535200D03*
X100895200Y-54185200D03*
X101215200Y-53535200D03*
X101545200Y-54185200D03*
X101865200Y-53535200D03*
X102195200Y-54185200D03*
X102525200Y-53535200D03*
X102845200Y-54185200D03*
X103175200Y-53535200D03*
X103495200Y-54185200D03*
X103825200Y-53535200D03*
X104145200Y-54185200D03*
X104475200Y-53535200D03*
X104795200Y-54185200D03*
X99915200Y-52765200D03*
X100565200Y-52765200D03*
X101215200Y-52765200D03*
X101865200Y-52765200D03*
X102525200Y-52765200D03*
X103175200Y-52765200D03*
X103825200Y-52765200D03*
X104475200Y-52765200D03*
X99915200Y-52115200D03*
X100565200Y-52115200D03*
X101215200Y-52115200D03*
X101865200Y-52115200D03*
X102525200Y-52115200D03*
X103175200Y-52115200D03*
X103825200Y-52115200D03*
X104475200Y-52115200D03*
X105895200Y-49935200D03*
X105895200Y-48935200D03*
X105895200Y-47935200D03*
D30*
X105695200Y-46985200D03*
D31*
X104695200Y-46785200D03*
X103695200Y-46785200D03*
X102695200Y-46785200D03*
X101695200Y-46785200D03*
X100695200Y-46785200D03*
X99695200Y-46785200D03*
D30*
X98695200Y-46985200D03*
D31*
X98495200Y-47935200D03*
X98495200Y-48935200D03*
X98495200Y-49935200D03*
%TD*%
D15*
%TO.C,C7*%
X100215200Y-55835200D03*
X101175200Y-55835200D03*
%TD*%
D16*
%TO.C,C2*%
X104695200Y-64115200D03*
X104695200Y-63155200D03*
%TD*%
%TO.C,C1*%
X104995200Y-61665200D03*
X104995200Y-60705200D03*
%TD*%
%LPD*%
M02*
