%TF.GenerationSoftware,KiCad,Pcbnew,10.0.3*%
%TF.CreationDate,2026-08-29T19:24:50-04:00*%
%TF.ProjectId,pen-mixer,70656e2d-6d69-4786-9572-2e6b69636164,rev?*%
%TF.SameCoordinates,Original*%
%TF.FileFunction,Copper,L1,Top*%
%TF.FilePolarity,Positive*%
%FSLAX46Y46*%
G04 Gerber Fmt 4.6, Leading zero omitted, Abs format (unit mm)*
G04 Created by KiCad (PCBNEW 10.0.3) date 2026-08-29 19:24:50*
%MOMM*%
%LPD*%
G01*
G04 APERTURE LIST*
G04 Aperture macros list*
%AMRoundRect*
0 Rectangle with rounded corners*
0 $1 Rounding radius*
0 $2 $3 $4 $5 $6 $7 $8 $9 X,Y pos of 4 corners*
0 Add a 4 corners polygon primitive as box body*
4,1,4,$2,$3,$4,$5,$6,$7,$8,$9,$2,$3,0*
0 Add four circle primitives for the rounded corners*
1,1,$1+$1,$2,$3*
1,1,$1+$1,$4,$5*
1,1,$1+$1,$6,$7*
1,1,$1+$1,$8,$9*
0 Add four rect primitives between the rounded corners*
20,1,$1+$1,$2,$3,$4,$5,0*
20,1,$1+$1,$4,$5,$6,$7,0*
20,1,$1+$1,$6,$7,$8,$9,0*
20,1,$1+$1,$8,$9,$2,$3,0*%
G04 Aperture macros list end*
%TA.AperFunction,SMDPad,CuDef*%
%ADD10RoundRect,0.140000X-0.140000X-0.170000X0.140000X-0.170000X0.140000X0.170000X-0.140000X0.170000X0*%
%TD*%
%TA.AperFunction,SMDPad,CuDef*%
%ADD11RoundRect,0.140000X0.170000X-0.140000X0.170000X0.140000X-0.170000X0.140000X-0.170000X-0.140000X0*%
%TD*%
%TA.AperFunction,SMDPad,CuDef*%
%ADD12RoundRect,0.135000X0.185000X-0.135000X0.185000X0.135000X-0.185000X0.135000X-0.185000X-0.135000X0*%
%TD*%
%TA.AperFunction,SMDPad,CuDef*%
%ADD13RoundRect,0.150000X-0.512500X-0.150000X0.512500X-0.150000X0.512500X0.150000X-0.512500X0.150000X0*%
%TD*%
%TA.AperFunction,SMDPad,CuDef*%
%ADD14RoundRect,0.147500X-0.147500X-0.172500X0.147500X-0.172500X0.147500X0.172500X-0.147500X0.172500X0*%
%TD*%
%TA.AperFunction,SMDPad,CuDef*%
%ADD15RoundRect,0.150000X0.150000X-0.512500X0.150000X0.512500X-0.150000X0.512500X-0.150000X-0.512500X0*%
%TD*%
%TA.AperFunction,SMDPad,CuDef*%
%ADD16RoundRect,0.150000X-0.150000X-0.470000X0.150000X-0.470000X0.150000X0.470000X-0.150000X0.470000X0*%
%TD*%
%TA.AperFunction,SMDPad,CuDef*%
%ADD17RoundRect,0.075000X-0.075000X-0.545000X0.075000X-0.545000X0.075000X0.545000X-0.075000X0.545000X0*%
%TD*%
%TA.AperFunction,ComponentPad*%
%ADD18O,1.000000X2.100000*%
%TD*%
%TA.AperFunction,ComponentPad*%
%ADD19O,1.000000X1.800000*%
%TD*%
%TA.AperFunction,SMDPad,CuDef*%
%ADD20R,0.800001X0.800001*%
%TD*%
%TA.AperFunction,SMDPad,CuDef*%
%ADD21R,0.399999X0.399999*%
%TD*%
%TA.AperFunction,SMDPad,CuDef*%
%ADD22RoundRect,0.087500X-0.225000X-0.087500X0.225000X-0.087500X0.225000X0.087500X-0.225000X0.087500X0*%
%TD*%
%TA.AperFunction,SMDPad,CuDef*%
%ADD23RoundRect,0.087500X-0.087500X-0.225000X0.087500X-0.225000X0.087500X0.225000X-0.087500X0.225000X0*%
%TD*%
%TA.AperFunction,ViaPad*%
%ADD24C,0.450000*%
%TD*%
%TA.AperFunction,Conductor*%
%ADD25C,0.150000*%
%TD*%
%TA.AperFunction,Conductor*%
%ADD26C,0.112400*%
%TD*%
%TA.AperFunction,Conductor*%
%ADD27C,0.120000*%
%TD*%
G04 APERTURE END LIST*
D10*
%TO.P,C5,1*%
%TO.N,+3V3*%
X103385200Y-55585200D03*
%TO.P,C5,2*%
%TO.N,GND*%
X104345200Y-55585200D03*
%TD*%
D11*
%TO.P,C3,1*%
%TO.N,VBAT*%
X101745200Y-63365200D03*
%TO.P,C3,2*%
%TO.N,GND*%
X101745200Y-62405200D03*
%TD*%
D12*
%TO.P,R9,1*%
%TO.N,VBAT_SENSE*%
X99545200Y-71995200D03*
%TO.P,R9,2*%
%TO.N,GND*%
X99545200Y-70975200D03*
%TD*%
%TO.P,R7,1*%
%TO.N,SCL*%
X99145200Y-63395200D03*
%TO.P,R7,2*%
%TO.N,+3V3*%
X99145200Y-62375200D03*
%TD*%
D13*
%TO.P,U3,1*%
%TO.N,CHG_STAT*%
X97807700Y-65135200D03*
%TO.P,U3,2*%
%TO.N,GND*%
X97807700Y-66085200D03*
%TO.P,U3,3*%
%TO.N,VBAT*%
X97807700Y-67035200D03*
%TO.P,U3,4*%
%TO.N,VBUS*%
X100082700Y-67035200D03*
%TO.P,U3,5*%
%TO.N,IPROG*%
X100082700Y-65135200D03*
%TD*%
D12*
%TO.P,R3,1*%
%TO.N,IPROG*%
X102745200Y-65995200D03*
%TO.P,R3,2*%
%TO.N,GND*%
X102745200Y-64975200D03*
%TD*%
D10*
%TO.P,C8,1*%
%TO.N,+3V3*%
X98665200Y-61085200D03*
%TO.P,C8,2*%
%TO.N,GND*%
X99625200Y-61085200D03*
%TD*%
D14*
%TO.P,D1,1*%
%TO.N,LED_A*%
X98460200Y-69085200D03*
%TO.P,D1,2*%
%TO.N,CHG_STAT*%
X99430200Y-69085200D03*
%TD*%
D12*
%TO.P,R4,1*%
%TO.N,VBUS*%
X104745200Y-68395200D03*
%TO.P,R4,2*%
%TO.N,LED_A*%
X104745200Y-67375200D03*
%TD*%
D15*
%TO.P,U4,1*%
%TO.N,VBAT*%
X103195200Y-59822700D03*
%TO.P,U4,2*%
%TO.N,GND*%
X104145200Y-59822700D03*
%TO.P,U4,3*%
%TO.N,VBAT*%
X105095200Y-59822700D03*
%TO.P,U4,4*%
%TO.N,N/C*%
X105095200Y-57547700D03*
%TO.P,U4,5*%
%TO.N,+3V3*%
X103195200Y-57547700D03*
%TD*%
D16*
%TO.P,J1,A1*%
%TO.N,GND*%
X98045200Y-76550200D03*
%TO.P,J1,A4*%
%TO.N,VBUS*%
X98845200Y-76550200D03*
D17*
%TO.P,J1,A5*%
%TO.N,CC1*%
X99995200Y-76550200D03*
%TO.P,J1,A6*%
%TO.N,USB_DP*%
X100995200Y-76550200D03*
%TO.P,J1,A7*%
%TO.N,USB_DM*%
X101495200Y-76550200D03*
%TO.P,J1,A8*%
%TO.N,N/C*%
X102495200Y-76550200D03*
D16*
%TO.P,J1,A9*%
%TO.N,VBUS*%
X103645200Y-76550200D03*
%TO.P,J1,A12*%
%TO.N,GND*%
X104445200Y-76550200D03*
%TO.P,J1,B1*%
X104445200Y-76550200D03*
%TO.P,J1,B4*%
%TO.N,VBUS*%
X103645200Y-76550200D03*
D17*
%TO.P,J1,B5*%
%TO.N,CC2*%
X102995200Y-76550200D03*
%TO.P,J1,B6*%
%TO.N,USB_DP*%
X101995200Y-76550200D03*
%TO.P,J1,B7*%
%TO.N,USB_DM*%
X100495200Y-76550200D03*
%TO.P,J1,B8*%
%TO.N,N/C*%
X99495200Y-76550200D03*
D16*
%TO.P,J1,B9*%
%TO.N,VBUS*%
X98845200Y-76550200D03*
%TO.P,J1,B12*%
%TO.N,GND*%
X98045200Y-76550200D03*
D18*
%TO.P,J1,SH*%
X96925200Y-77150200D03*
D19*
X96925200Y-81350200D03*
D18*
X105565200Y-77150200D03*
D19*
X105565200Y-81350200D03*
%TD*%
D11*
%TO.P,C4,1*%
%TO.N,+3V3*%
X104145200Y-63365200D03*
%TO.P,C4,2*%
%TO.N,GND*%
X104145200Y-62405200D03*
%TD*%
D20*
%TO.P,U1,1*%
%TO.N,GND*%
X104745201Y-53985201D03*
D21*
%TO.P,U1,2*%
%TO.N,IMU_INT1*%
X104945198Y-53085200D03*
%TO.P,U1,3*%
%TO.N,N/C*%
X104295199Y-52760200D03*
%TO.P,U1,4*%
%TO.N,IMU_INT2*%
X104945198Y-52435200D03*
%TO.P,U1,5*%
%TO.N,N/C*%
X104295199Y-52110200D03*
%TO.P,U1,6*%
%TO.N,SCL*%
X104945198Y-51785200D03*
D20*
%TO.P,U1,7*%
%TO.N,GND*%
X104745201Y-50885200D03*
D21*
%TO.P,U1,8*%
%TO.N,USB_DP*%
X103845200Y-50685200D03*
%TO.P,U1,9*%
%TO.N,N/C*%
X103520200Y-51335200D03*
%TO.P,U1,10*%
%TO.N,USB_DM*%
X103195200Y-50685200D03*
%TO.P,U1,11*%
%TO.N,N/C*%
X102870200Y-51335200D03*
%TO.P,U1,12*%
%TO.N,VBUS*%
X102545200Y-50685200D03*
%TO.P,U1,13*%
%TO.N,N/C*%
X102220200Y-51335200D03*
%TO.P,U1,14*%
%TO.N,GND*%
X101895200Y-50685200D03*
%TO.P,U1,15*%
%TO.N,N/C*%
X101570200Y-51335200D03*
%TO.P,U1,16*%
%TO.N,GND*%
X101245200Y-50685200D03*
%TO.P,U1,17*%
%TO.N,N/C*%
X100920200Y-51335200D03*
%TO.P,U1,18*%
%TO.N,GND*%
X100595200Y-50685200D03*
%TO.P,U1,19*%
%TO.N,N/C*%
X100270200Y-51335200D03*
%TO.P,U1,20*%
X99945200Y-50685200D03*
%TO.P,U1,21*%
%TO.N,GND*%
X99620200Y-51335200D03*
%TO.P,U1,22*%
%TO.N,N/C*%
X99295200Y-50685200D03*
%TO.P,U1,23*%
%TO.N,GND*%
X98970200Y-51335200D03*
%TO.P,U1,24*%
X98645200Y-50685200D03*
D20*
%TO.P,U1,25*%
X97745200Y-50885200D03*
D21*
%TO.P,U1,26*%
%TO.N,+3V3*%
X97545200Y-51785200D03*
%TO.P,U1,27*%
%TO.N,N/C*%
X98195200Y-52110200D03*
%TO.P,U1,28*%
%TO.N,SWDIO*%
X97545200Y-52435200D03*
%TO.P,U1,29*%
%TO.N,N/C*%
X98195200Y-52760200D03*
%TO.P,U1,30*%
%TO.N,SWDCLK*%
X97545200Y-53085200D03*
D20*
%TO.P,U1,31*%
%TO.N,GND*%
X97745200Y-53985201D03*
D21*
%TO.P,U1,32*%
%TO.N,SDA*%
X98645200Y-54185198D03*
%TO.P,U1,33*%
%TO.N,N/C*%
X98970200Y-53535199D03*
%TO.P,U1,34*%
X99295200Y-54185198D03*
%TO.P,U1,35*%
X99620200Y-53535199D03*
%TO.P,U1,36*%
%TO.N,FSR_SENSE*%
X99945200Y-54185198D03*
%TO.P,U1,37*%
%TO.N,N/C*%
X100270200Y-53535199D03*
%TO.P,U1,38*%
%TO.N,VBAT_SENSE*%
X100595200Y-54185198D03*
%TO.P,U1,39*%
%TO.N,N/C*%
X100920200Y-53535199D03*
%TO.P,U1,40*%
X101245200Y-54185198D03*
%TO.P,U1,41*%
X101570200Y-53535199D03*
%TO.P,U1,42*%
X101895200Y-54185198D03*
%TO.P,U1,43*%
X102220200Y-53535199D03*
%TO.P,U1,44*%
X102545200Y-54185198D03*
%TO.P,U1,45*%
X102870200Y-53535199D03*
%TO.P,U1,46*%
X103195200Y-54185198D03*
%TO.P,U1,47*%
X103520200Y-53535199D03*
%TO.P,U1,48*%
X103845200Y-54185198D03*
%TO.P,U1,49*%
X98970200Y-52760200D03*
%TO.P,U1,50*%
X99620200Y-52760200D03*
%TO.P,U1,51*%
X100270200Y-52760200D03*
%TO.P,U1,52*%
X100920200Y-52760200D03*
%TO.P,U1,53*%
X101570200Y-52760200D03*
%TO.P,U1,54*%
X102220200Y-52760200D03*
%TO.P,U1,55*%
X102870200Y-52760200D03*
%TO.P,U1,56*%
X103520200Y-52760200D03*
%TO.P,U1,57*%
X98970200Y-52110200D03*
%TO.P,U1,58*%
X99620200Y-52110200D03*
%TO.P,U1,59*%
X100270200Y-52110200D03*
%TO.P,U1,60*%
X100920200Y-52110200D03*
%TO.P,U1,61*%
X101570200Y-52110200D03*
%TO.P,U1,62*%
X102220200Y-52110200D03*
%TO.P,U1,63*%
X102870200Y-52110200D03*
%TO.P,U1,64*%
X103520200Y-52110200D03*
%TO.P,U1,65*%
X104945198Y-49935200D03*
%TO.P,U1,66*%
X104945198Y-48935200D03*
%TO.P,U1,67*%
X104945198Y-47935200D03*
D20*
%TO.P,U1,68*%
X104745201Y-46985200D03*
D21*
%TO.P,U1,69*%
X103745200Y-46784700D03*
%TO.P,U1,70*%
X102745200Y-46784700D03*
%TO.P,U1,71*%
X101745200Y-46784700D03*
%TO.P,U1,72*%
X100745200Y-46784700D03*
%TO.P,U1,73*%
X99745200Y-46784700D03*
%TO.P,U1,74*%
X98745200Y-46784700D03*
D20*
%TO.P,U1,75*%
X97745200Y-46985200D03*
D21*
%TO.P,U1,76*%
X97545200Y-47935200D03*
%TO.P,U1,77*%
X97545200Y-48935200D03*
%TO.P,U1,78*%
X97545200Y-49935200D03*
%TD*%
D12*
%TO.P,R2,1*%
%TO.N,CC2*%
X102145200Y-74595200D03*
%TO.P,R2,2*%
%TO.N,GND*%
X102145200Y-73575200D03*
%TD*%
D22*
%TO.P,U2,1*%
%TO.N,GND*%
X97982700Y-58235200D03*
%TO.P,U2,2*%
X97982700Y-58735200D03*
%TO.P,U2,3*%
X97982700Y-59235200D03*
%TO.P,U2,4*%
%TO.N,IMU_INT1*%
X97982700Y-59735200D03*
D23*
%TO.P,U2,5*%
%TO.N,+3V3*%
X98645200Y-59897700D03*
%TO.P,U2,6*%
%TO.N,GND*%
X99145200Y-59897700D03*
%TO.P,U2,7*%
X99645200Y-59897700D03*
D22*
%TO.P,U2,8*%
%TO.N,+3V3*%
X100307700Y-59735200D03*
%TO.P,U2,9*%
%TO.N,IMU_INT2*%
X100307700Y-59235200D03*
%TO.P,U2,10*%
%TO.N,N/C*%
X100307700Y-58735200D03*
%TO.P,U2,11*%
X100307700Y-58235200D03*
D23*
%TO.P,U2,12*%
%TO.N,+3V3*%
X99645200Y-58072700D03*
%TO.P,U2,13*%
%TO.N,SCL*%
X99145200Y-58072700D03*
%TO.P,U2,14*%
%TO.N,SDA*%
X98645200Y-58072700D03*
%TD*%
D12*
%TO.P,R1,1*%
%TO.N,CC1*%
X100345200Y-74595200D03*
%TO.P,R1,2*%
%TO.N,GND*%
X100345200Y-73575200D03*
%TD*%
D11*
%TO.P,C10,1*%
%TO.N,VBAT_SENSE*%
X101545200Y-71965200D03*
%TO.P,C10,2*%
%TO.N,GND*%
X101545200Y-71005200D03*
%TD*%
D12*
%TO.P,R6,1*%
%TO.N,SDA*%
X97345200Y-63395200D03*
%TO.P,R6,2*%
%TO.N,+3V3*%
X97345200Y-62375200D03*
%TD*%
D10*
%TO.P,C6,1*%
%TO.N,+3V3*%
X103385200Y-61435200D03*
%TO.P,C6,2*%
%TO.N,GND*%
X104345200Y-61435200D03*
%TD*%
D12*
%TO.P,R8,1*%
%TO.N,VBAT*%
X97545200Y-71995200D03*
%TO.P,R8,2*%
%TO.N,VBAT_SENSE*%
X97545200Y-70975200D03*
%TD*%
D10*
%TO.P,C7,1*%
%TO.N,+3V3*%
X98665200Y-56485200D03*
%TO.P,C7,2*%
%TO.N,GND*%
X99625200Y-56485200D03*
%TD*%
D11*
%TO.P,C2,1*%
%TO.N,VBAT*%
X102745200Y-68365200D03*
%TO.P,C2,2*%
%TO.N,GND*%
X102745200Y-67405200D03*
%TD*%
%TO.P,C1,1*%
%TO.N,VBUS*%
X104745200Y-65965200D03*
%TO.P,C1,2*%
%TO.N,GND*%
X104745200Y-65005200D03*
%TD*%
D24*
%TO.N,+3V3*%
X105789700Y-50014900D03*
X97027500Y-51936200D03*
X105864000Y-71664300D03*
X103385000Y-60805200D03*
X100065000Y-57606900D03*
%TO.N,GND*%
X98402500Y-55131200D03*
X96936500Y-65601000D03*
X102097000Y-64837300D03*
X103287200Y-50002000D03*
%TO.N,VBAT*%
X103067000Y-69787200D03*
X98148600Y-70055200D03*
X101245000Y-80934600D03*
%TO.N,VBAT_SENSE*%
X97461900Y-70376600D03*
X100658000Y-71965200D03*
X100758000Y-54714400D03*
%TO.N,SCL*%
X105470000Y-52309600D03*
X99543900Y-59150100D03*
X99543900Y-63968300D03*
%TO.N,LED_A*%
X104253000Y-67867400D03*
X98695800Y-68447100D03*
%TO.N,USB_DP*%
X105995000Y-53298500D03*
X101245000Y-77498600D03*
%TO.N,USB_DM*%
X102676000Y-50166100D03*
X101338000Y-75612600D03*
%TO.N,IMU_INT1*%
X97332100Y-58830500D03*
X105312000Y-55275500D03*
%TO.N,IMU_INT2*%
X100955000Y-59075700D03*
X105468000Y-52958500D03*
%TO.N,SWDIO*%
X97001300Y-55686700D03*
X97251600Y-64514900D03*
%TO.N,SWDCLK*%
X98050300Y-64516700D03*
X97187600Y-55141000D03*
%TO.N,SDA*%
X99135300Y-54711500D03*
X97829000Y-62911400D03*
%TD*%
%TO.N,+3V3*%
D25*
X99824300Y-60496300D02*
X100308000Y-60012900D01*
X100308000Y-60012900D02*
X100308000Y-59735200D01*
X104145200Y-63365200D02*
X104145000Y-63365200D01*
X97345200Y-62375200D02*
X98635200Y-61085200D01*
X100308000Y-59735200D02*
X100920000Y-59735200D01*
X103385000Y-61435200D02*
X103385000Y-60805200D01*
X97545200Y-51785200D02*
X97178500Y-51785200D01*
X97027500Y-51936200D02*
X97178500Y-51785200D01*
X98774000Y-61085200D02*
X98774000Y-62004000D01*
X96911700Y-56791300D02*
X97217800Y-56485200D01*
X98774000Y-61085200D02*
X99362900Y-60496300D01*
X103385200Y-61435200D02*
X103385000Y-61435200D01*
X98645200Y-59897700D02*
X98645200Y-61065200D01*
X99362900Y-60496300D02*
X99824300Y-60496300D01*
X100065000Y-57653200D02*
X100065000Y-57606900D01*
X98645200Y-61065200D02*
X98665200Y-61085200D01*
X103385000Y-55585200D02*
X103385000Y-57357700D01*
X100308000Y-59735200D02*
X100307700Y-59735200D01*
X105712000Y-71985200D02*
X105864000Y-71833600D01*
X98635200Y-61085200D02*
X98665200Y-61085200D01*
X103108000Y-57547700D02*
X103195000Y-57547700D01*
X96911700Y-61941700D02*
X96911700Y-56791300D01*
X103385200Y-55585200D02*
X103385000Y-55585200D01*
X101717000Y-58938700D02*
X103108000Y-57547700D01*
X97345200Y-62375200D02*
X96911700Y-61941700D01*
X100385000Y-57606900D02*
X101717000Y-58938700D01*
X97217800Y-56485200D02*
X98665200Y-56485200D01*
X98774000Y-62004000D02*
X99145200Y-62375200D01*
X98774000Y-61085200D02*
X98665200Y-61085200D01*
X105864000Y-71833600D02*
X105864000Y-71664300D01*
X99645200Y-58072700D02*
X100065000Y-57653200D01*
X100065000Y-57606900D02*
X100385000Y-57606900D01*
X100920000Y-59735200D02*
X101717000Y-58938700D01*
X104145000Y-63365200D02*
X103385000Y-62605200D01*
X103385000Y-62605200D02*
X103385000Y-61435200D01*
X103195200Y-57547700D02*
X103195000Y-57547700D01*
X103385000Y-57357700D02*
X103195000Y-57547700D01*
%TO.N,GND*%
X99269700Y-56408700D02*
X99291900Y-56408700D01*
X105595000Y-60955700D02*
X105595000Y-56834700D01*
D26*
X103140000Y-66430900D02*
X103019000Y-66430900D01*
D25*
X102745000Y-66705000D02*
X102745000Y-67405200D01*
X98682700Y-59235200D02*
X99145200Y-59697700D01*
X97982700Y-58735200D02*
X97982700Y-58235200D01*
X97982700Y-59235200D02*
X97982700Y-58735200D01*
X98402500Y-55131200D02*
X98324500Y-55131200D01*
X103930000Y-51745000D02*
X104745000Y-50929800D01*
X101245000Y-62405200D02*
X101745000Y-62405200D01*
X98070400Y-54226700D02*
X98070400Y-53820000D01*
X98645200Y-51660200D02*
X98645200Y-51051900D01*
X102145000Y-73575200D02*
X102145000Y-72405200D01*
X96925200Y-77150200D02*
X97445200Y-77150200D01*
X101245000Y-50685200D02*
X100595000Y-50685200D01*
X105595000Y-56834700D02*
X104345000Y-55585200D01*
X97982700Y-59235200D02*
X98682700Y-59235200D01*
D26*
X104420000Y-53820000D02*
X103930000Y-53330000D01*
D25*
X102145000Y-73575200D02*
X100345000Y-73575200D01*
X97745200Y-53985200D02*
X97745200Y-54551900D01*
X102745200Y-67405200D02*
X102745000Y-67405200D01*
X105345000Y-69475200D02*
X105075000Y-69475200D01*
X99346200Y-56632700D02*
X99346200Y-56485200D01*
X104745000Y-55185400D02*
X104745000Y-55185200D01*
D26*
X97323500Y-65601000D02*
X97807700Y-66085200D01*
D25*
X98645200Y-50685200D02*
X98645200Y-51051900D01*
X102607000Y-64837300D02*
X102745000Y-64975200D01*
D26*
X103019000Y-66430900D02*
X102745000Y-66705000D01*
D25*
X104145000Y-61235200D02*
X104345000Y-61435200D01*
X98970200Y-51335200D02*
X98686900Y-51051900D01*
X99145200Y-59697700D02*
X99145200Y-59897700D01*
X97982700Y-58235200D02*
X97982700Y-57996200D01*
X99625200Y-56485200D02*
X99346200Y-56485200D01*
X98045200Y-75601900D02*
X98045200Y-76550200D01*
X99575200Y-71005200D02*
X99545200Y-70975200D01*
X101745000Y-62405200D02*
X101745200Y-62405200D01*
D26*
X98070400Y-53820000D02*
X98560400Y-53330000D01*
D25*
X102097000Y-64837300D02*
X102607000Y-64837300D01*
X101245000Y-50685200D02*
X101895000Y-50685200D01*
X104445000Y-75875200D02*
X102145000Y-73575200D01*
X98324500Y-55131200D02*
X97745200Y-54551900D01*
X102097000Y-64837300D02*
X101245000Y-63985200D01*
D26*
X99269700Y-56129700D02*
X99269700Y-56408700D01*
D25*
X104345200Y-55585200D02*
X104745000Y-55185400D01*
X102145000Y-72405200D02*
X102545000Y-72005200D01*
X97945200Y-75501900D02*
X98045200Y-75601900D01*
D26*
X99291900Y-56408700D02*
X99291900Y-56430900D01*
D25*
X102745000Y-64975200D02*
X103260000Y-65489500D01*
X99346200Y-56485200D02*
X99291900Y-56430900D01*
X98645200Y-50685200D02*
X98511900Y-50685200D01*
X105565000Y-77150200D02*
X105045000Y-77150200D01*
X100595000Y-50604800D02*
X100595000Y-50685200D01*
X104745000Y-65005200D02*
X104745000Y-63005200D01*
X98686900Y-51051900D02*
X98645200Y-51051900D01*
X101545000Y-71005200D02*
X99575200Y-71005200D01*
D26*
X98645200Y-50320000D02*
X100310000Y-50320000D01*
D25*
X104745000Y-53985200D02*
X104745200Y-53985200D01*
X98645200Y-50685200D02*
X98645200Y-50320000D01*
X104445000Y-76550200D02*
X104445000Y-75875200D01*
X104345000Y-55585200D02*
X104745000Y-55185200D01*
D26*
X98560400Y-53330000D02*
X98560400Y-51745000D01*
D25*
X99625200Y-61085200D02*
X100945000Y-62405200D01*
X99620200Y-51335200D02*
X98970200Y-51335200D01*
X98402500Y-55262500D02*
X99269700Y-56129700D01*
X105075000Y-69475200D02*
X103545000Y-71005200D01*
X100310000Y-50320000D02*
X100595000Y-50604800D01*
X104445200Y-76550200D02*
X104445000Y-76550200D01*
X104145000Y-62405200D02*
X105595000Y-60955700D01*
X97445200Y-77150200D02*
X98045200Y-76550200D01*
X98560400Y-51745000D02*
X98645200Y-51660200D01*
X104745200Y-50885200D02*
X104745000Y-50885200D01*
X104345000Y-62205200D02*
X104345000Y-61435200D01*
X104745200Y-65005200D02*
X104745000Y-65005200D01*
X99145200Y-59897700D02*
X99645200Y-59897700D01*
X104745000Y-53985200D02*
X104585000Y-53985200D01*
D26*
X103930000Y-53330000D02*
X103930000Y-51745000D01*
D25*
X98402500Y-55131200D02*
X98402500Y-55262500D01*
X105509000Y-65768800D02*
X104745000Y-65005200D01*
X98511900Y-50685200D02*
X98311900Y-50885200D01*
X100945000Y-62405200D02*
X101245000Y-62405200D01*
X104745000Y-55185200D02*
X104745000Y-53985200D01*
X105045000Y-77150200D02*
X104445000Y-76550200D01*
X104745000Y-63005200D02*
X104145000Y-62405200D01*
X104145000Y-59822700D02*
X104145000Y-61235200D01*
D26*
X96936500Y-65601000D02*
X97323500Y-65601000D01*
D25*
X104145000Y-62405200D02*
X104345000Y-62205200D01*
X104745000Y-50929800D02*
X104745000Y-50885200D01*
X102545000Y-72005200D02*
X101545000Y-71005200D01*
X97945200Y-74635200D02*
X97945200Y-75501900D01*
X102545000Y-72005200D02*
X103545000Y-71005200D01*
X105565200Y-77150200D02*
X105565000Y-77150200D01*
X97745200Y-50885200D02*
X98311900Y-50885200D01*
X100595200Y-50685200D02*
X100595000Y-50685200D01*
X97745200Y-54551900D02*
X98070400Y-54226700D01*
X101895000Y-50685200D02*
X101895200Y-50685200D01*
X104585000Y-53985200D02*
X104420000Y-53820000D01*
X105509000Y-69311600D02*
X105509000Y-65768800D01*
X97982700Y-57996200D02*
X99346200Y-56632700D01*
X102145200Y-73575200D02*
X102145000Y-73575200D01*
X105345000Y-69475200D02*
X105509000Y-69311600D01*
X103260000Y-66310900D02*
X103140000Y-66430900D01*
X101245000Y-63985200D02*
X101245000Y-62405200D01*
X103260000Y-65489500D02*
X103260000Y-66310900D01*
X102745200Y-64975200D02*
X102745000Y-64975200D01*
X104145200Y-59822700D02*
X104145000Y-59822700D01*
%TO.N,VBAT*%
X102666000Y-60351400D02*
X102666000Y-62672300D01*
X97945200Y-72001800D02*
X97551800Y-72001800D01*
X105095000Y-59640600D02*
X104405000Y-58950400D01*
X103800000Y-67300000D02*
X103500000Y-67610000D01*
X97551800Y-72001800D02*
X97545200Y-71995200D01*
X98148600Y-70055200D02*
X97807700Y-69714300D01*
X103195000Y-59822700D02*
X102666000Y-60351400D01*
X97945200Y-72001800D02*
X97945200Y-71568500D01*
X102745000Y-69465300D02*
X103067000Y-69787200D01*
X103195000Y-59582000D02*
X103195000Y-59822700D01*
X98148600Y-71365100D02*
X97945200Y-71568500D01*
X103827000Y-58950400D02*
X103195000Y-59582000D01*
X98148600Y-70055200D02*
X98148600Y-71365100D01*
X103195200Y-59822700D02*
X103195000Y-59822700D01*
X101974000Y-63365200D02*
X101745000Y-63365200D01*
X104405000Y-58950400D02*
X103827000Y-58950400D01*
X102666000Y-62672300D02*
X101974000Y-63365200D01*
X103500000Y-64890000D02*
X103800000Y-65200000D01*
X103501000Y-64892800D02*
X101974000Y-63365200D01*
X103800000Y-65200000D02*
X103800000Y-67300000D01*
X97807700Y-69714300D02*
X97807700Y-67035200D01*
X102745000Y-68365200D02*
X103501000Y-67609200D01*
X105095000Y-59822700D02*
X105095000Y-59640600D01*
X102745000Y-68365200D02*
X102745000Y-69465300D01*
%TO.N,VBAT_SENSE*%
X100658000Y-71965200D02*
X101545000Y-71965200D01*
X97545200Y-70975200D02*
X97461900Y-70891900D01*
X100658000Y-71965200D02*
X100628000Y-71995200D01*
X100595200Y-54185200D02*
X100595000Y-54185200D01*
X100595000Y-54185200D02*
X100595000Y-54551900D01*
X97461900Y-70891900D02*
X97461900Y-70376600D01*
X101545000Y-71965200D02*
X101545200Y-71965200D01*
X100758000Y-54714400D02*
X100595000Y-54551900D01*
X100628000Y-71995200D02*
X99545200Y-71995200D01*
%TO.N,SCL*%
X105312000Y-51785200D02*
X105312000Y-52151900D01*
X104945000Y-51785200D02*
X105312000Y-51785200D01*
X105312000Y-52151900D02*
X105470000Y-52309600D01*
X99145200Y-58072700D02*
X99145200Y-58751400D01*
X99145200Y-63395200D02*
X99145200Y-63569600D01*
X99145200Y-58751400D02*
X99543900Y-59150100D01*
X99145200Y-63569600D02*
X99543900Y-63968300D01*
%TO.N,CHG_STAT*%
X98657700Y-65779900D02*
X98013000Y-65135200D01*
X98013000Y-65135200D02*
X97807700Y-65135200D01*
X99430200Y-68112400D02*
X98657700Y-67339900D01*
X99430200Y-69085200D02*
X99430200Y-68112400D01*
X98657700Y-67339900D02*
X98657700Y-65779900D01*
%TO.N,VBUS*%
X105250000Y-66470000D02*
X105250000Y-67890400D01*
X96480900Y-51008700D02*
X97189200Y-50300400D01*
X102545200Y-50685200D02*
X102545000Y-50685200D01*
X100121000Y-69614700D02*
X100688000Y-70182200D01*
X100083000Y-69576900D02*
X100121000Y-69614700D01*
X99907200Y-77929100D02*
X98845200Y-76867100D01*
X98140900Y-64077000D02*
X98180900Y-64077000D01*
X103645000Y-76550200D02*
X103645000Y-76932800D01*
X98657700Y-65268300D02*
X98657700Y-64553800D01*
X104745200Y-68395200D02*
X104745000Y-68395200D01*
X103645200Y-76550200D02*
X103645000Y-76550200D01*
X103645000Y-76932800D02*
X102649000Y-77929100D01*
X98169000Y-50300400D02*
X98434900Y-50034500D01*
X96480900Y-63229000D02*
X96480900Y-51008700D01*
X98434900Y-50034500D02*
X101894000Y-50034500D01*
X105250000Y-67890400D02*
X104745000Y-68395200D01*
D27*
X98140900Y-64077000D02*
X97288900Y-64077000D01*
D25*
X97189200Y-50300400D02*
X98169000Y-50300400D01*
X104745000Y-68719600D02*
X104745000Y-68395200D01*
X98845200Y-76550200D02*
X98845200Y-70890100D01*
X104745000Y-65965200D02*
X105250000Y-66470000D01*
X102649000Y-77929100D02*
X99907200Y-77929100D01*
X100082700Y-67035200D02*
X100083000Y-67035200D01*
X101894000Y-50034500D02*
X102545000Y-50685200D01*
X100688000Y-70182200D02*
X103283000Y-70182200D01*
X98845200Y-70890100D02*
X100121000Y-69614700D01*
X100083000Y-66693300D02*
X98657700Y-65268300D01*
X100083000Y-67035200D02*
X100083000Y-69576900D01*
D27*
X97288900Y-64077000D02*
X96440900Y-63229000D01*
D25*
X98657700Y-64553800D02*
X98180900Y-64077000D01*
X98845200Y-76867100D02*
X98845200Y-76550200D01*
X103283000Y-70182200D02*
X104745000Y-68719600D01*
%TO.N,IPROG*%
X100082700Y-65135200D02*
X100083000Y-65135200D01*
X102745000Y-65995200D02*
X100943000Y-65995200D01*
X100943000Y-65995200D02*
X100083000Y-65135200D01*
X102745000Y-65995200D02*
X102745200Y-65995200D01*
%TO.N,LED_A*%
X104745000Y-67375200D02*
X104253000Y-67867400D01*
X104745200Y-67375200D02*
X104745000Y-67375200D01*
X98695800Y-68447100D02*
X98695800Y-68849600D01*
X98695800Y-68849600D02*
X98460200Y-69085200D01*
%TO.N,CC1*%
X99995200Y-74945200D02*
X99995200Y-76550200D01*
X100345000Y-74595200D02*
X99995200Y-74945200D01*
X100345200Y-74595200D02*
X100345000Y-74595200D01*
%TO.N,USB_DP*%
D26*
X105248000Y-50320000D02*
X104180000Y-50320000D01*
D25*
X106087000Y-53206500D02*
X106087000Y-52390800D01*
X100995000Y-77067100D02*
X101311000Y-77383100D01*
X101995200Y-76550200D02*
X101995000Y-76550200D01*
X101245000Y-77498600D02*
X101245000Y-77449100D01*
X100995200Y-76550200D02*
X100995000Y-76550200D01*
X100995000Y-76550200D02*
X100995000Y-77067100D01*
X101245000Y-77449100D02*
X101311000Y-77383100D01*
X104180000Y-50320000D02*
X103845000Y-50654800D01*
D26*
X106087000Y-52390800D02*
X106087000Y-51159500D01*
D25*
X103845000Y-50654800D02*
X103845000Y-50685200D01*
X101667000Y-77383100D02*
X101995000Y-77054500D01*
D26*
X106087000Y-51159500D02*
X105248000Y-50320000D01*
D25*
X101995000Y-77054500D02*
X101995000Y-76550200D01*
X105995000Y-53298500D02*
X106087000Y-53206500D01*
X103845200Y-50685200D02*
X103845000Y-50685200D01*
X101311000Y-77383100D02*
X101667000Y-77383100D01*
%TO.N,USB_DM*%
X103195200Y-50685200D02*
X103195000Y-50685200D01*
X100495200Y-76550200D02*
X100495000Y-76550200D01*
X101190000Y-75759900D02*
X100807000Y-75759900D01*
X101495200Y-76550200D02*
X101495000Y-76550200D01*
X103195000Y-50685200D02*
X102676000Y-50166100D01*
X100807000Y-75759900D02*
X100495000Y-76072100D01*
X101495000Y-76550200D02*
X101495000Y-76064600D01*
X100495000Y-76072100D02*
X100495000Y-76550200D01*
X101338000Y-75612600D02*
X101190000Y-75759900D01*
X101495000Y-76064600D02*
X101190000Y-75759900D01*
%TO.N,CC2*%
X102145000Y-74595200D02*
X102995000Y-75445200D01*
X102995000Y-75445200D02*
X102995000Y-76550200D01*
X102995200Y-76550200D02*
X102995000Y-76550200D01*
%TO.N,IMU_INT1*%
X104945000Y-53085200D02*
X105312000Y-53451900D01*
D26*
X97332100Y-59331000D02*
X97332100Y-58830500D01*
D25*
X105312000Y-53451900D02*
X105312000Y-55275500D01*
D26*
X97982700Y-59735200D02*
X97736300Y-59735200D01*
X97736300Y-59735200D02*
X97332100Y-59331000D01*
%TO.N,IMU_INT2*%
D25*
X104945000Y-52435200D02*
X105468000Y-52958500D01*
D26*
X100467000Y-59075700D02*
X100955000Y-59075700D01*
X100308000Y-59235200D02*
X100467000Y-59075700D01*
D25*
X100307700Y-59235200D02*
X100308000Y-59235200D01*
%TO.N,SWDIO*%
X96785800Y-53194600D02*
X97545200Y-52435200D01*
X97001300Y-55686700D02*
X96785800Y-55471200D01*
X96785800Y-55471200D02*
X96785800Y-53194600D01*
%TO.N,SWDCLK*%
X97147500Y-55100900D02*
X97187600Y-55141000D01*
X97147500Y-53482900D02*
X97147500Y-55100900D01*
X97545200Y-53085200D02*
X97147500Y-53482900D01*
%TO.N,SDA*%
X99663900Y-57006900D02*
X99522100Y-57006900D01*
D26*
X99709900Y-56960900D02*
X99663900Y-57006900D01*
D25*
X100072000Y-56839200D02*
X99950700Y-56960900D01*
X98645200Y-57883800D02*
X98645200Y-58072700D01*
X99135300Y-54711500D02*
X98975700Y-54551900D01*
X98645200Y-54185200D02*
X98645200Y-54551900D01*
X98975700Y-54551900D02*
X98645200Y-54551900D01*
X100072000Y-55648600D02*
X100072000Y-56839200D01*
X99135300Y-54711500D02*
X100072000Y-55648600D01*
X97829000Y-62911400D02*
X97345200Y-63395200D01*
D26*
X99950700Y-56960900D02*
X99709900Y-56960900D01*
D25*
X99522100Y-57006900D02*
X98645200Y-57883800D01*
%TD*%
M02*
