%TF.GenerationSoftware,KiCad,Pcbnew,10.0.3*%
%TF.CreationDate,2026-08-29T17:36:07-04:00*%
%TF.ProjectId,pen-mixer,70656e2d-6d69-4786-9572-2e6b69636164,rev?*%
%TF.SameCoordinates,Original*%
%TF.FileFunction,Copper,L1,Top*%
%TF.FilePolarity,Positive*%
%FSLAX46Y46*%
G04 Gerber Fmt 4.6, Leading zero omitted, Abs format (unit mm)*
G04 Created by KiCad (PCBNEW 10.0.3) date 2026-08-29 17:36:07*
%MOMM*%
%LPD*%
G01*
G04 APERTURE LIST*
G04 Aperture macros list*
%AMRoundRect*
0 Rectangle with rounded corners*
0 $1 Rounding radius*
0 $2 $3 $4 $5 $6 $7 $8 $9 X,Y pos of 4 corners*
0 Add a 4 corners polygon primitive as box body*
4,1,4,$2,$3,$4,$5,$6,$7,$8,$9,$2,$3,0*
0 Add four circle primitives for the rounded corners*
1,1,$1+$1,$2,$3*
1,1,$1+$1,$4,$5*
1,1,$1+$1,$6,$7*
1,1,$1+$1,$8,$9*
0 Add four rect primitives between the rounded corners*
20,1,$1+$1,$2,$3,$4,$5,0*
20,1,$1+$1,$4,$5,$6,$7,0*
20,1,$1+$1,$6,$7,$8,$9,0*
20,1,$1+$1,$8,$9,$2,$3,0*%
G04 Aperture macros list end*
%TA.AperFunction,SMDPad,CuDef*%
%ADD10RoundRect,0.140000X-0.140000X-0.170000X0.140000X-0.170000X0.140000X0.170000X-0.140000X0.170000X0*%
%TD*%
%TA.AperFunction,SMDPad,CuDef*%
%ADD11RoundRect,0.140000X0.170000X-0.140000X0.170000X0.140000X-0.170000X0.140000X-0.170000X-0.140000X0*%
%TD*%
%TA.AperFunction,SMDPad,CuDef*%
%ADD12RoundRect,0.135000X0.185000X-0.135000X0.185000X0.135000X-0.185000X0.135000X-0.185000X-0.135000X0*%
%TD*%
%TA.AperFunction,SMDPad,CuDef*%
%ADD13RoundRect,0.150000X-0.512500X-0.150000X0.512500X-0.150000X0.512500X0.150000X-0.512500X0.150000X0*%
%TD*%
%TA.AperFunction,SMDPad,CuDef*%
%ADD14R,1.200000X1.400000*%
%TD*%
%TA.AperFunction,SMDPad,CuDef*%
%ADD15RoundRect,0.147500X-0.147500X-0.172500X0.147500X-0.172500X0.147500X0.172500X-0.147500X0.172500X0*%
%TD*%
%TA.AperFunction,SMDPad,CuDef*%
%ADD16RoundRect,0.150000X0.150000X-0.512500X0.150000X0.512500X-0.150000X0.512500X-0.150000X-0.512500X0*%
%TD*%
%TA.AperFunction,SMDPad,CuDef*%
%ADD17RoundRect,0.150000X-0.150000X-0.470000X0.150000X-0.470000X0.150000X0.470000X-0.150000X0.470000X0*%
%TD*%
%TA.AperFunction,SMDPad,CuDef*%
%ADD18RoundRect,0.075000X-0.075000X-0.545000X0.075000X-0.545000X0.075000X0.545000X-0.075000X0.545000X0*%
%TD*%
%TA.AperFunction,ComponentPad*%
%ADD19O,1.000000X2.100000*%
%TD*%
%TA.AperFunction,ComponentPad*%
%ADD20O,1.000000X1.800000*%
%TD*%
%TA.AperFunction,SMDPad,CuDef*%
%ADD21R,0.800001X0.800001*%
%TD*%
%TA.AperFunction,SMDPad,CuDef*%
%ADD22R,0.399999X0.399999*%
%TD*%
%TA.AperFunction,SMDPad,CuDef*%
%ADD23RoundRect,0.087500X-0.225000X-0.087500X0.225000X-0.087500X0.225000X0.087500X-0.225000X0.087500X0*%
%TD*%
%TA.AperFunction,SMDPad,CuDef*%
%ADD24RoundRect,0.087500X-0.087500X-0.225000X0.087500X-0.225000X0.087500X0.225000X-0.087500X0.225000X0*%
%TD*%
%TA.AperFunction,ViaPad*%
%ADD25C,0.450000*%
%TD*%
%TA.AperFunction,Conductor*%
%ADD26C,0.150000*%
%TD*%
%TA.AperFunction,Conductor*%
%ADD27C,0.112400*%
%TD*%
%TA.AperFunction,Conductor*%
%ADD28C,0.120000*%
%TD*%
G04 APERTURE END LIST*
D10*
%TO.P,C5,1*%
%TO.N,+3V3*%
X107640000Y-73100000D03*
%TO.P,C5,2*%
%TO.N,GND*%
X108600000Y-73100000D03*
%TD*%
D11*
%TO.P,C3,1*%
%TO.N,VBAT*%
X106000000Y-80880000D03*
%TO.P,C3,2*%
%TO.N,GND*%
X106000000Y-79920000D03*
%TD*%
D12*
%TO.P,R9,1*%
%TO.N,VBAT_SENSE*%
X103800000Y-89510000D03*
%TO.P,R9,2*%
%TO.N,GND*%
X103800000Y-88490000D03*
%TD*%
D11*
%TO.P,C9,1*%
%TO.N,FSR_SENSE*%
X107800000Y-89480000D03*
%TO.P,C9,2*%
%TO.N,GND*%
X107800000Y-88520000D03*
%TD*%
D12*
%TO.P,R7,1*%
%TO.N,SCL*%
X103400000Y-80910000D03*
%TO.P,R7,2*%
%TO.N,+3V3*%
X103400000Y-79890000D03*
%TD*%
D13*
%TO.P,U3,1*%
%TO.N,CHG_STAT*%
X102062500Y-82650000D03*
%TO.P,U3,2*%
%TO.N,GND*%
X102062500Y-83600000D03*
%TO.P,U3,3*%
%TO.N,VBAT*%
X102062500Y-84550000D03*
%TO.P,U3,4*%
%TO.N,VBUS*%
X104337500Y-84550000D03*
%TO.P,U3,5*%
%TO.N,IPROG*%
X104337500Y-82650000D03*
%TD*%
D14*
%TO.P,J3,1*%
%TO.N,+3V3*%
X109200000Y-89500000D03*
%TO.P,J3,2*%
%TO.N,FSR_SENSE*%
X109200000Y-91700000D03*
%TD*%
D12*
%TO.P,R3,1*%
%TO.N,IPROG*%
X107000000Y-83510000D03*
%TO.P,R3,2*%
%TO.N,GND*%
X107000000Y-82490000D03*
%TD*%
D10*
%TO.P,C8,1*%
%TO.N,+3V3*%
X102920000Y-78600000D03*
%TO.P,C8,2*%
%TO.N,GND*%
X103880000Y-78600000D03*
%TD*%
D15*
%TO.P,D1,1*%
%TO.N,LED_A*%
X102715000Y-86600000D03*
%TO.P,D1,2*%
%TO.N,CHG_STAT*%
X103685000Y-86600000D03*
%TD*%
D12*
%TO.P,R4,1*%
%TO.N,VBUS*%
X109000000Y-85910000D03*
%TO.P,R4,2*%
%TO.N,LED_A*%
X109000000Y-84890000D03*
%TD*%
D16*
%TO.P,U4,1*%
%TO.N,VBAT*%
X107450000Y-77337500D03*
%TO.P,U4,2*%
%TO.N,GND*%
X108400000Y-77337500D03*
%TO.P,U4,3*%
%TO.N,VBAT*%
X109350000Y-77337500D03*
%TO.P,U4,4*%
%TO.N,N/C*%
X109350000Y-75062500D03*
%TO.P,U4,5*%
%TO.N,+3V3*%
X107450000Y-75062500D03*
%TD*%
D17*
%TO.P,J1,A1*%
%TO.N,GND*%
X102300000Y-94065000D03*
%TO.P,J1,A4*%
%TO.N,VBUS*%
X103100000Y-94065000D03*
D18*
%TO.P,J1,A5*%
%TO.N,CC1*%
X104250000Y-94065000D03*
%TO.P,J1,A6*%
%TO.N,USB_DP*%
X105250000Y-94065000D03*
%TO.P,J1,A7*%
%TO.N,USB_DM*%
X105750000Y-94065000D03*
%TO.P,J1,A8*%
%TO.N,N/C*%
X106750000Y-94065000D03*
D17*
%TO.P,J1,A9*%
%TO.N,VBUS*%
X107900000Y-94065000D03*
%TO.P,J1,A12*%
%TO.N,GND*%
X108700000Y-94065000D03*
%TO.P,J1,B1*%
X108700000Y-94065000D03*
%TO.P,J1,B4*%
%TO.N,VBUS*%
X107900000Y-94065000D03*
D18*
%TO.P,J1,B5*%
%TO.N,CC2*%
X107250000Y-94065000D03*
%TO.P,J1,B6*%
%TO.N,USB_DP*%
X106250000Y-94065000D03*
%TO.P,J1,B7*%
%TO.N,USB_DM*%
X104750000Y-94065000D03*
%TO.P,J1,B8*%
%TO.N,N/C*%
X103750000Y-94065000D03*
D17*
%TO.P,J1,B9*%
%TO.N,VBUS*%
X103100000Y-94065000D03*
%TO.P,J1,B12*%
%TO.N,GND*%
X102300000Y-94065000D03*
D19*
%TO.P,J1,SH*%
X101180000Y-94665000D03*
D20*
X101180000Y-98865000D03*
D19*
X109820000Y-94665000D03*
D20*
X109820000Y-98865000D03*
%TD*%
D11*
%TO.P,C4,1*%
%TO.N,+3V3*%
X108400000Y-80880000D03*
%TO.P,C4,2*%
%TO.N,GND*%
X108400000Y-79920000D03*
%TD*%
D21*
%TO.P,U1,1*%
%TO.N,GND*%
X109000001Y-71500001D03*
D22*
%TO.P,U1,2*%
%TO.N,IMU_INT1*%
X109199998Y-70600000D03*
%TO.P,U1,3*%
%TO.N,N/C*%
X108549999Y-70275000D03*
%TO.P,U1,4*%
%TO.N,IMU_INT2*%
X109199998Y-69950000D03*
%TO.P,U1,5*%
%TO.N,N/C*%
X108549999Y-69625000D03*
%TO.P,U1,6*%
%TO.N,SCL*%
X109199998Y-69300000D03*
D21*
%TO.P,U1,7*%
%TO.N,GND*%
X109000001Y-68400000D03*
D22*
%TO.P,U1,8*%
%TO.N,USB_DP*%
X108100000Y-68200000D03*
%TO.P,U1,9*%
%TO.N,N/C*%
X107775000Y-68850000D03*
%TO.P,U1,10*%
%TO.N,USB_DM*%
X107450000Y-68200000D03*
%TO.P,U1,11*%
%TO.N,N/C*%
X107125000Y-68850000D03*
%TO.P,U1,12*%
%TO.N,VBUS*%
X106800000Y-68200000D03*
%TO.P,U1,13*%
%TO.N,N/C*%
X106475000Y-68850000D03*
%TO.P,U1,14*%
%TO.N,GND*%
X106150000Y-68200000D03*
%TO.P,U1,15*%
%TO.N,N/C*%
X105825000Y-68850000D03*
%TO.P,U1,16*%
%TO.N,GND*%
X105500000Y-68200000D03*
%TO.P,U1,17*%
%TO.N,N/C*%
X105175000Y-68850000D03*
%TO.P,U1,18*%
%TO.N,GND*%
X104850000Y-68200000D03*
%TO.P,U1,19*%
%TO.N,N/C*%
X104525000Y-68850000D03*
%TO.P,U1,20*%
X104200000Y-68200000D03*
%TO.P,U1,21*%
%TO.N,GND*%
X103875000Y-68850000D03*
%TO.P,U1,22*%
%TO.N,N/C*%
X103550000Y-68200000D03*
%TO.P,U1,23*%
%TO.N,GND*%
X103225000Y-68850000D03*
%TO.P,U1,24*%
X102900000Y-68200000D03*
D21*
%TO.P,U1,25*%
X102000000Y-68400000D03*
D22*
%TO.P,U1,26*%
%TO.N,+3V3*%
X101800000Y-69300000D03*
%TO.P,U1,27*%
%TO.N,N/C*%
X102450000Y-69625000D03*
%TO.P,U1,28*%
%TO.N,SWDIO*%
X101800000Y-69950000D03*
%TO.P,U1,29*%
%TO.N,N/C*%
X102450000Y-70275000D03*
%TO.P,U1,30*%
%TO.N,SWDCLK*%
X101800000Y-70600000D03*
D21*
%TO.P,U1,31*%
%TO.N,GND*%
X102000000Y-71500001D03*
D22*
%TO.P,U1,32*%
%TO.N,SDA*%
X102900000Y-71699998D03*
%TO.P,U1,33*%
%TO.N,N/C*%
X103225000Y-71049999D03*
%TO.P,U1,34*%
X103550000Y-71699998D03*
%TO.P,U1,35*%
X103875000Y-71049999D03*
%TO.P,U1,36*%
%TO.N,FSR_SENSE*%
X104200000Y-71699998D03*
%TO.P,U1,37*%
%TO.N,N/C*%
X104525000Y-71049999D03*
%TO.P,U1,38*%
%TO.N,VBAT_SENSE*%
X104850000Y-71699998D03*
%TO.P,U1,39*%
%TO.N,N/C*%
X105175000Y-71049999D03*
%TO.P,U1,40*%
X105500000Y-71699998D03*
%TO.P,U1,41*%
X105825000Y-71049999D03*
%TO.P,U1,42*%
X106150000Y-71699998D03*
%TO.P,U1,43*%
X106475000Y-71049999D03*
%TO.P,U1,44*%
X106800000Y-71699998D03*
%TO.P,U1,45*%
X107125000Y-71049999D03*
%TO.P,U1,46*%
X107450000Y-71699998D03*
%TO.P,U1,47*%
X107775000Y-71049999D03*
%TO.P,U1,48*%
X108100000Y-71699998D03*
%TO.P,U1,49*%
X103225000Y-70275000D03*
%TO.P,U1,50*%
X103875000Y-70275000D03*
%TO.P,U1,51*%
X104525000Y-70275000D03*
%TO.P,U1,52*%
X105175000Y-70275000D03*
%TO.P,U1,53*%
X105825000Y-70275000D03*
%TO.P,U1,54*%
X106475000Y-70275000D03*
%TO.P,U1,55*%
X107125000Y-70275000D03*
%TO.P,U1,56*%
X107775000Y-70275000D03*
%TO.P,U1,57*%
X103225000Y-69625000D03*
%TO.P,U1,58*%
X103875000Y-69625000D03*
%TO.P,U1,59*%
X104525000Y-69625000D03*
%TO.P,U1,60*%
X105175000Y-69625000D03*
%TO.P,U1,61*%
X105825000Y-69625000D03*
%TO.P,U1,62*%
X106475000Y-69625000D03*
%TO.P,U1,63*%
X107125000Y-69625000D03*
%TO.P,U1,64*%
X107775000Y-69625000D03*
%TO.P,U1,65*%
X109199998Y-67450000D03*
%TO.P,U1,66*%
X109199998Y-66450000D03*
%TO.P,U1,67*%
X109199998Y-65450000D03*
D21*
%TO.P,U1,68*%
X109000001Y-64500000D03*
D22*
%TO.P,U1,69*%
X108000000Y-64299500D03*
%TO.P,U1,70*%
X107000000Y-64299500D03*
%TO.P,U1,71*%
X106000000Y-64299500D03*
%TO.P,U1,72*%
X105000000Y-64299500D03*
%TO.P,U1,73*%
X104000000Y-64299500D03*
%TO.P,U1,74*%
X103000000Y-64299500D03*
D21*
%TO.P,U1,75*%
X102000000Y-64500000D03*
D22*
%TO.P,U1,76*%
X101800000Y-65450000D03*
%TO.P,U1,77*%
X101800000Y-66450000D03*
%TO.P,U1,78*%
X101800000Y-67450000D03*
%TD*%
D12*
%TO.P,R2,1*%
%TO.N,CC2*%
X106400000Y-92110000D03*
%TO.P,R2,2*%
%TO.N,GND*%
X106400000Y-91090000D03*
%TD*%
D23*
%TO.P,U2,1*%
%TO.N,GND*%
X102237500Y-75750000D03*
%TO.P,U2,2*%
X102237500Y-76250000D03*
%TO.P,U2,3*%
X102237500Y-76750000D03*
%TO.P,U2,4*%
%TO.N,IMU_INT1*%
X102237500Y-77250000D03*
D24*
%TO.P,U2,5*%
%TO.N,+3V3*%
X102900000Y-77412500D03*
%TO.P,U2,6*%
%TO.N,GND*%
X103400000Y-77412500D03*
%TO.P,U2,7*%
X103900000Y-77412500D03*
D23*
%TO.P,U2,8*%
%TO.N,+3V3*%
X104562500Y-77250000D03*
%TO.P,U2,9*%
%TO.N,IMU_INT2*%
X104562500Y-76750000D03*
%TO.P,U2,10*%
%TO.N,N/C*%
X104562500Y-76250000D03*
%TO.P,U2,11*%
X104562500Y-75750000D03*
D24*
%TO.P,U2,12*%
%TO.N,+3V3*%
X103900000Y-75587500D03*
%TO.P,U2,13*%
%TO.N,SCL*%
X103400000Y-75587500D03*
%TO.P,U2,14*%
%TO.N,SDA*%
X102900000Y-75587500D03*
%TD*%
D12*
%TO.P,R1,1*%
%TO.N,CC1*%
X104600000Y-92110000D03*
%TO.P,R1,2*%
%TO.N,GND*%
X104600000Y-91090000D03*
%TD*%
D11*
%TO.P,C10,1*%
%TO.N,VBAT_SENSE*%
X105800000Y-89480000D03*
%TO.P,C10,2*%
%TO.N,GND*%
X105800000Y-88520000D03*
%TD*%
D12*
%TO.P,R6,1*%
%TO.N,SDA*%
X101600000Y-80910000D03*
%TO.P,R6,2*%
%TO.N,+3V3*%
X101600000Y-79890000D03*
%TD*%
%TO.P,R5,1*%
%TO.N,FSR_SENSE*%
X109600000Y-88010000D03*
%TO.P,R5,2*%
%TO.N,GND*%
X109600000Y-86990000D03*
%TD*%
D10*
%TO.P,C6,1*%
%TO.N,+3V3*%
X107640000Y-78950000D03*
%TO.P,C6,2*%
%TO.N,GND*%
X108600000Y-78950000D03*
%TD*%
D14*
%TO.P,J2,1*%
%TO.N,VBAT*%
X102200000Y-89950000D03*
%TO.P,J2,2*%
%TO.N,GND*%
X102200000Y-92150000D03*
%TD*%
D12*
%TO.P,R8,1*%
%TO.N,VBAT*%
X101800000Y-89510000D03*
%TO.P,R8,2*%
%TO.N,VBAT_SENSE*%
X101800000Y-88490000D03*
%TD*%
D10*
%TO.P,C7,1*%
%TO.N,+3V3*%
X102920000Y-74000000D03*
%TO.P,C7,2*%
%TO.N,GND*%
X103880000Y-74000000D03*
%TD*%
D11*
%TO.P,C2,1*%
%TO.N,VBAT*%
X107000000Y-85880000D03*
%TO.P,C2,2*%
%TO.N,GND*%
X107000000Y-84920000D03*
%TD*%
%TO.P,C1,1*%
%TO.N,VBUS*%
X109000000Y-83480000D03*
%TO.P,C1,2*%
%TO.N,GND*%
X109000000Y-82520000D03*
%TD*%
D25*
%TO.N,+3V3*%
X104319500Y-75121700D03*
X101282300Y-69451000D03*
X107640000Y-78320000D03*
X110118300Y-89179100D03*
%TO.N,GND*%
X102657300Y-72646000D03*
X106352100Y-82352100D03*
X101191300Y-83115800D03*
%TO.N,VBAT*%
X102403400Y-87570000D03*
X107321900Y-87302000D03*
%TO.N,VBAT_SENSE*%
X101716700Y-87891400D03*
X105012500Y-72229200D03*
X104912300Y-89480000D03*
%TO.N,FSR_SENSE*%
X104200000Y-72241200D03*
X108595800Y-88280400D03*
%TO.N,SCL*%
X103798700Y-76664900D03*
X103798700Y-81483100D03*
X109724400Y-69824400D03*
%TO.N,LED_A*%
X108507800Y-85382200D03*
X102950600Y-85961900D03*
%TO.N,USB_DP*%
X110250000Y-70813300D03*
X105500000Y-95013400D03*
%TO.N,USB_DM*%
X105592600Y-93127400D03*
X106930900Y-67680900D03*
%TO.N,IMU_INT1*%
X101586900Y-76345300D03*
X109566700Y-72790300D03*
%TO.N,IMU_INT2*%
X109723300Y-70473300D03*
X105209900Y-76590500D03*
%TO.N,SWDIO*%
X101506400Y-82029700D03*
X101256100Y-73201500D03*
%TO.N,SWDCLK*%
X102305100Y-82031500D03*
X101442400Y-72655800D03*
%TO.N,SDA*%
X102083800Y-80426200D03*
X103390100Y-72226300D03*
%TD*%
%TO.N,+3V3*%
D26*
X104562500Y-77250000D02*
X105175000Y-77250000D01*
X101472600Y-74000000D02*
X102920000Y-74000000D01*
X107362500Y-75062500D02*
X107450000Y-75062500D01*
X102900000Y-77412500D02*
X102900000Y-78580000D01*
X107640000Y-74872500D02*
X107450000Y-75062500D01*
X103028800Y-78600000D02*
X102920000Y-78600000D01*
X104319500Y-75121700D02*
X104639700Y-75121700D01*
X103028800Y-78600000D02*
X103617700Y-78011100D01*
X101600000Y-79890000D02*
X102890000Y-78600000D01*
X103900000Y-75587500D02*
X104319500Y-75168000D01*
X101600000Y-79890000D02*
X101166500Y-79456500D01*
X108400000Y-80880000D02*
X107640000Y-80120000D01*
X102900000Y-78580000D02*
X102920000Y-78600000D01*
X110118300Y-89348400D02*
X110118300Y-89179100D01*
X104079100Y-78011100D02*
X104562500Y-77527700D01*
X109200000Y-89500000D02*
X109966700Y-89500000D01*
X103028800Y-78600000D02*
X103028800Y-79518800D01*
X104562500Y-77527700D02*
X104562500Y-77250000D01*
X105971500Y-76453500D02*
X107362500Y-75062500D01*
X109966700Y-89500000D02*
X110118300Y-89348400D01*
X101166500Y-79456500D02*
X101166500Y-74306100D01*
X103028800Y-79518800D02*
X103400000Y-79890000D01*
X107640000Y-78950000D02*
X107640000Y-78320000D01*
X107640000Y-73100000D02*
X107640000Y-74872500D01*
X105175000Y-77250000D02*
X105971500Y-76453500D01*
X101800000Y-69300000D02*
X101433300Y-69300000D01*
X104639700Y-75121700D02*
X105971500Y-76453500D01*
X103617700Y-78011100D02*
X104079100Y-78011100D01*
X101166500Y-74306100D02*
X101472600Y-74000000D01*
X104319500Y-75168000D02*
X104319500Y-75121700D01*
X107640000Y-80120000D02*
X107640000Y-78950000D01*
X102890000Y-78600000D02*
X102920000Y-78600000D01*
X101282300Y-69451000D02*
X101433300Y-69300000D01*
%TO.N,GND*%
X109000000Y-72700000D02*
X109000000Y-71500000D01*
D27*
X102900000Y-67834800D02*
X104565200Y-67834800D01*
D26*
X109600000Y-86990000D02*
X109763600Y-86826400D01*
X106352100Y-82352100D02*
X105500000Y-81500000D01*
D27*
X103546700Y-73923500D02*
X103546700Y-73945700D01*
D26*
X102657300Y-72646000D02*
X102657300Y-72777300D01*
X102000000Y-71500000D02*
X102000000Y-72066700D01*
X103400000Y-77412500D02*
X103900000Y-77412500D01*
X109600000Y-86990000D02*
X109330000Y-86990000D01*
X102237500Y-76250000D02*
X102237500Y-75750000D01*
D27*
X101578300Y-83115800D02*
X102062500Y-83600000D01*
D26*
X109849500Y-74349500D02*
X108600000Y-73100000D01*
X102200000Y-93016700D02*
X102300000Y-93116700D01*
X106400000Y-91090000D02*
X106400000Y-89920000D01*
X102937500Y-76750000D02*
X103400000Y-77212500D01*
X105500000Y-79920000D02*
X106000000Y-79920000D01*
X105500000Y-68200000D02*
X104850000Y-68200000D01*
X103400000Y-77212500D02*
X103400000Y-77412500D01*
X102000000Y-72066700D02*
X102325200Y-71741500D01*
X102237500Y-75511000D02*
X103601000Y-74147500D01*
D27*
X101191300Y-83115800D02*
X101578300Y-83115800D01*
X108674800Y-71334800D02*
X108184800Y-70844800D01*
D26*
X102900000Y-69175000D02*
X102900000Y-68566700D01*
X108840000Y-71500000D02*
X108674800Y-71334800D01*
X106862100Y-82352100D02*
X107000000Y-82490000D01*
X106800000Y-89520000D02*
X105800000Y-88520000D01*
D27*
X107394300Y-83945700D02*
X107274100Y-83945700D01*
D26*
X102200000Y-92150000D02*
X102200000Y-93016700D01*
X105800000Y-88520000D02*
X103830000Y-88520000D01*
X102657300Y-72777300D02*
X103524500Y-73644500D01*
X108700000Y-93390000D02*
X106400000Y-91090000D01*
X109300000Y-94665000D02*
X108700000Y-94065000D01*
X102900000Y-68200000D02*
X102900000Y-68566700D01*
X107000000Y-84219800D02*
X107000000Y-84920000D01*
X103830000Y-88520000D02*
X103800000Y-88490000D01*
X106400000Y-91090000D02*
X104600000Y-91090000D01*
X103601000Y-74147500D02*
X103601000Y-74000000D01*
X103880000Y-74000000D02*
X103601000Y-74000000D01*
X109000000Y-68444600D02*
X109000000Y-68400000D01*
X102766700Y-68200000D02*
X102566700Y-68400000D01*
X102237500Y-75750000D02*
X102237500Y-75511000D01*
X105200000Y-79920000D02*
X105500000Y-79920000D01*
X108700000Y-94065000D02*
X108700000Y-93390000D01*
X106800000Y-89520000D02*
X107800000Y-88520000D01*
X108400000Y-77337500D02*
X108400000Y-78750000D01*
X105500000Y-81500000D02*
X105500000Y-79920000D01*
X102941700Y-68566700D02*
X102900000Y-68566700D01*
D27*
X107274100Y-83945700D02*
X107000000Y-84219800D01*
D26*
X109763600Y-86826400D02*
X109763600Y-83283600D01*
X102579300Y-72646000D02*
X102000000Y-72066700D01*
X107514300Y-83825700D02*
X107394300Y-83945700D01*
X105500000Y-68200000D02*
X106150000Y-68200000D01*
X103524500Y-73923500D02*
X103546700Y-73923500D01*
X102325200Y-71741500D02*
X102325200Y-71334800D01*
X104850000Y-68119600D02*
X104850000Y-68200000D01*
X109000000Y-82520000D02*
X109000000Y-80520000D01*
X104565200Y-67834800D02*
X104850000Y-68119600D01*
X103880000Y-78600000D02*
X105200000Y-79920000D01*
X109000000Y-71500000D02*
X108840000Y-71500000D01*
X106352100Y-82352100D02*
X106862100Y-82352100D01*
D27*
X108184800Y-70844800D02*
X108184800Y-69259800D01*
D26*
X102237500Y-76750000D02*
X102937500Y-76750000D01*
X101180000Y-94665000D02*
X101700000Y-94665000D01*
X107514300Y-83004300D02*
X107514300Y-83825700D01*
X109849500Y-78470500D02*
X109849500Y-74349500D01*
X102300000Y-93116700D02*
X102300000Y-94065000D01*
D27*
X102325200Y-71334800D02*
X102815200Y-70844800D01*
X103524500Y-73644500D02*
X103524500Y-73923500D01*
D26*
X109820000Y-94665000D02*
X109300000Y-94665000D01*
X109330000Y-86990000D02*
X107800000Y-88520000D01*
X102000000Y-68400000D02*
X102566700Y-68400000D01*
X106400000Y-89920000D02*
X106800000Y-89520000D01*
X103875000Y-68850000D02*
X103225000Y-68850000D01*
X108400000Y-78750000D02*
X108600000Y-78950000D01*
X109000000Y-80520000D02*
X108400000Y-79920000D01*
X102237500Y-76750000D02*
X102237500Y-76250000D01*
X107000000Y-82490000D02*
X107514300Y-83004300D01*
X108600000Y-79720000D02*
X108600000Y-78950000D01*
X108600000Y-73100000D02*
X109000000Y-72700000D01*
X108400000Y-79920000D02*
X108600000Y-79720000D01*
X102900000Y-68200000D02*
X102766700Y-68200000D01*
X101700000Y-94665000D02*
X102300000Y-94065000D01*
X102657300Y-72646000D02*
X102579300Y-72646000D01*
X108184800Y-69259800D02*
X109000000Y-68444600D01*
X109763600Y-83283600D02*
X109000000Y-82520000D01*
X108400000Y-79920000D02*
X109849500Y-78470500D01*
X102900000Y-68200000D02*
X102900000Y-67834800D01*
D27*
X102815200Y-70844800D02*
X102815200Y-69259800D01*
D26*
X103601000Y-74000000D02*
X103546700Y-73945700D01*
X103225000Y-68850000D02*
X102941700Y-68566700D01*
X102815200Y-69259800D02*
X102900000Y-69175000D01*
%TO.N,VBAT*%
X107000000Y-85880000D02*
X107756000Y-85124000D01*
X101806600Y-89516600D02*
X101800000Y-89510000D01*
X106921300Y-80187100D02*
X106228400Y-80880000D01*
X102200000Y-89516600D02*
X102200000Y-89083300D01*
X102200000Y-89516600D02*
X101806600Y-89516600D01*
X107450000Y-77096800D02*
X107450000Y-77337500D01*
X108081600Y-76465200D02*
X107450000Y-77096800D01*
X102200000Y-89950000D02*
X102200000Y-89516600D01*
X102062500Y-87229100D02*
X102062500Y-84550000D01*
X107756000Y-85124000D02*
X107756000Y-82407600D01*
X107000000Y-85880000D02*
X107000000Y-86980100D01*
X106921300Y-77866200D02*
X106921300Y-80187100D01*
X107450000Y-77337500D02*
X106921300Y-77866200D01*
X107000000Y-86980100D02*
X107321900Y-87302000D01*
X107756000Y-82407600D02*
X106228400Y-80880000D01*
X106228400Y-80880000D02*
X106000000Y-80880000D01*
X102403400Y-87570000D02*
X102062500Y-87229100D01*
X109350000Y-77155400D02*
X108659800Y-76465200D01*
X108659800Y-76465200D02*
X108081600Y-76465200D01*
X102403400Y-88879900D02*
X102200000Y-89083300D01*
X109350000Y-77337500D02*
X109350000Y-77155400D01*
X102403400Y-87570000D02*
X102403400Y-88879900D01*
%TO.N,VBAT_SENSE*%
X101800000Y-88490000D02*
X101716700Y-88406700D01*
X105012500Y-72229200D02*
X104850000Y-72066700D01*
X104912300Y-89480000D02*
X104882300Y-89510000D01*
X104882300Y-89510000D02*
X103800000Y-89510000D01*
X104912300Y-89480000D02*
X105800000Y-89480000D01*
X104850000Y-71700000D02*
X104850000Y-72066700D01*
X101716700Y-88406700D02*
X101716700Y-87891400D01*
%TO.N,FSR_SENSE*%
D27*
X108595800Y-88280400D02*
X109329600Y-88280400D01*
D26*
X108353000Y-89480000D02*
X107800000Y-89480000D01*
X108434800Y-88441400D02*
X108434800Y-88634800D01*
X108353000Y-89480000D02*
X108353000Y-88634800D01*
X104200000Y-72241200D02*
X104200000Y-71700000D01*
X108595800Y-88280400D02*
X108595800Y-88441400D01*
D27*
X108434800Y-88441400D02*
X108595800Y-88441400D01*
D26*
X108433300Y-91700000D02*
X108433300Y-89560300D01*
X108433300Y-89560300D02*
X108353000Y-89480000D01*
X109200000Y-91700000D02*
X108433300Y-91700000D01*
D27*
X109329600Y-88280400D02*
X109600000Y-88010000D01*
X108353000Y-88634800D02*
X108434800Y-88634800D01*
%TO.N,SCL*%
D26*
X103400000Y-75587500D02*
X103400000Y-76266200D01*
X103400000Y-81084400D02*
X103798700Y-81483100D01*
X109200000Y-69300000D02*
X109566700Y-69300000D01*
X109566700Y-69300000D02*
X109566700Y-69666700D01*
X103400000Y-80910000D02*
X103400000Y-81084400D01*
X103400000Y-76266200D02*
X103798700Y-76664900D01*
X109566700Y-69666700D02*
X109724400Y-69824400D01*
%TO.N,CHG_STAT*%
X103685000Y-86600000D02*
X103685000Y-85627200D01*
X102912500Y-84854700D02*
X102912500Y-83294700D01*
X102267800Y-82650000D02*
X102062500Y-82650000D01*
X102912500Y-83294700D02*
X102267800Y-82650000D01*
X103685000Y-85627200D02*
X102912500Y-84854700D01*
%TO.N,VBUS*%
X104337500Y-84550000D02*
X104337500Y-87091700D01*
X104375400Y-87129500D02*
X104942800Y-87697000D01*
X107900000Y-94065000D02*
X107900000Y-94447600D01*
X104337500Y-84550000D02*
X104337500Y-84208100D01*
X107537400Y-87697000D02*
X109000000Y-86234400D01*
X104162000Y-95443900D02*
X103100000Y-94381900D01*
X109000000Y-86234400D02*
X109000000Y-85910000D01*
X104337500Y-84208100D02*
X102912500Y-82783100D01*
D28*
X101543700Y-81591800D02*
X100695700Y-80743800D01*
D26*
X103100000Y-94065000D02*
X103100000Y-88404900D01*
X109504800Y-83984800D02*
X109504800Y-85405200D01*
X102912500Y-82068600D02*
X102435700Y-81591800D01*
X101444000Y-67815200D02*
X102423800Y-67815200D01*
X106149300Y-67549300D02*
X106800000Y-68200000D01*
X109000000Y-83480000D02*
X109504800Y-83984800D01*
X107900000Y-94447600D02*
X106903700Y-95443900D01*
D28*
X102395700Y-81591800D02*
X101543700Y-81591800D01*
D26*
X106903700Y-95443900D02*
X104162000Y-95443900D01*
X100735700Y-68523500D02*
X101444000Y-67815200D01*
X104337500Y-87091700D02*
X104375400Y-87129500D01*
X102689700Y-67549300D02*
X106149300Y-67549300D01*
X103100000Y-88404900D02*
X104375400Y-87129500D01*
X102912500Y-82783100D02*
X102912500Y-82068600D01*
X100735700Y-80743800D02*
X100735700Y-68523500D01*
X104942800Y-87697000D02*
X107537400Y-87697000D01*
X103100000Y-94381900D02*
X103100000Y-94065000D01*
X102423800Y-67815200D02*
X102689700Y-67549300D01*
X109504800Y-85405200D02*
X109000000Y-85910000D01*
%TO.N,IPROG*%
X105197500Y-83510000D02*
X104337500Y-82650000D01*
X107000000Y-83510000D02*
X105197500Y-83510000D01*
%TO.N,LED_A*%
X102950600Y-86364400D02*
X102715000Y-86600000D01*
X102950600Y-85961900D02*
X102950600Y-86364400D01*
X109000000Y-84890000D02*
X108507800Y-85382200D01*
%TO.N,CC1*%
X104600000Y-92110000D02*
X104250000Y-92460000D01*
X104250000Y-92460000D02*
X104250000Y-94065000D01*
%TO.N,USB_DP*%
X108434800Y-67834800D02*
X108100000Y-68169600D01*
X110342000Y-70721300D02*
X110342000Y-69905600D01*
X105500000Y-94963900D02*
X105566000Y-94897900D01*
X106250000Y-94569300D02*
X106250000Y-94065000D01*
X105250000Y-94065000D02*
X105250000Y-94581900D01*
D27*
X110342000Y-68674300D02*
X109502500Y-67834800D01*
D26*
X105566000Y-94897900D02*
X105921400Y-94897900D01*
X105921400Y-94897900D02*
X106250000Y-94569300D01*
X110250000Y-70813300D02*
X110342000Y-70721300D01*
D27*
X110342000Y-69905600D02*
X110342000Y-68674300D01*
X109502500Y-67834800D02*
X108434800Y-67834800D01*
D26*
X105500000Y-95013400D02*
X105500000Y-94963900D01*
X108100000Y-68169600D02*
X108100000Y-68200000D01*
X105250000Y-94581900D02*
X105566000Y-94897900D01*
%TO.N,USB_DM*%
X105062200Y-93274700D02*
X104750000Y-93586900D01*
X105445300Y-93274700D02*
X105062200Y-93274700D01*
X107450000Y-68200000D02*
X106930900Y-67680900D01*
X105750000Y-93579400D02*
X105445300Y-93274700D01*
X105592600Y-93127400D02*
X105445300Y-93274700D01*
X105750000Y-94065000D02*
X105750000Y-93579400D01*
X104750000Y-93586900D02*
X104750000Y-94065000D01*
%TO.N,CC2*%
X106400000Y-92110000D02*
X107250000Y-92960000D01*
X107250000Y-92960000D02*
X107250000Y-94065000D01*
%TO.N,IMU_INT1*%
D27*
X101991100Y-77250000D02*
X101586900Y-76845800D01*
X101586900Y-76845800D02*
X101586900Y-76345300D01*
X102237500Y-77250000D02*
X101991100Y-77250000D01*
D26*
X109566700Y-70966700D02*
X109566700Y-72790300D01*
X109200000Y-70600000D02*
X109566700Y-70966700D01*
%TO.N,IMU_INT2*%
X109200000Y-69950000D02*
X109723300Y-70473300D01*
D27*
X104562500Y-76750000D02*
X104722000Y-76590500D01*
X104722000Y-76590500D02*
X105209900Y-76590500D01*
%TO.N,SWDIO*%
D26*
X101040600Y-72986000D02*
X101040600Y-70709400D01*
X101040600Y-70709400D02*
X101800000Y-69950000D01*
X101256100Y-73201500D02*
X101040600Y-72986000D01*
%TO.N,SWDCLK*%
X101800000Y-70600000D02*
X101402300Y-70997700D01*
X101402300Y-72615700D02*
X101442400Y-72655800D01*
X101402300Y-70997700D02*
X101402300Y-72615700D01*
%TO.N,SDA*%
X103390100Y-72226300D02*
X103230500Y-72066700D01*
X102900000Y-71700000D02*
X102900000Y-72066700D01*
X102900000Y-75398600D02*
X102900000Y-75587500D01*
X103230500Y-72066700D02*
X102900000Y-72066700D01*
X104327200Y-74354000D02*
X104205500Y-74475700D01*
X103776900Y-74521700D02*
X102900000Y-75398600D01*
D27*
X103964700Y-74475700D02*
X103918700Y-74521700D01*
D26*
X103390100Y-72226300D02*
X104327200Y-73163400D01*
X102083800Y-80426200D02*
X101600000Y-80910000D01*
D27*
X104205500Y-74475700D02*
X103964700Y-74475700D01*
D26*
X104327200Y-73163400D02*
X104327200Y-74354000D01*
X103918700Y-74521700D02*
X103776900Y-74521700D01*
%TD*%
M02*
