%TF.GenerationSoftware,KiCad,Pcbnew,10.0.3*%
%TF.CreationDate,2026-08-30T15:30:07-04:00*%
%TF.ProjectId,pen-mixer,70656e2d-6d69-4786-9572-2e6b69636164,v2*%
%TF.SameCoordinates,Original*%
%TF.FileFunction,Copper,L2,Inr*%
%TF.FilePolarity,Positive*%
%FSLAX46Y46*%
G04 Gerber Fmt 4.6, Leading zero omitted, Abs format (unit mm)*
G04 Created by KiCad (PCBNEW 10.0.3) date 2026-08-30 15:30:07*
%MOMM*%
%LPD*%
G01*
G04 APERTURE LIST*
%TA.AperFunction,ComponentPad*%
%ADD10O,1.000000X2.100000*%
%TD*%
%TA.AperFunction,ComponentPad*%
%ADD11O,1.000000X1.800000*%
%TD*%
%TA.AperFunction,ViaPad*%
%ADD12C,0.450000*%
%TD*%
%TA.AperFunction,Conductor*%
%ADD13C,0.150000*%
%TD*%
G04 APERTURE END LIST*
D10*
%TO.N,GND*%
%TO.C,J1*%
X97875200Y-70050200D03*
D11*
X97875200Y-74250200D03*
D10*
X106515200Y-70050200D03*
D11*
X106515200Y-74250200D03*
%TD*%
D12*
%TO.N,+3V3*%
X103992100Y-56462800D03*
%TO.N,GND*%
X107875200Y-68376900D03*
X101342700Y-50026900D03*
X101841800Y-55230700D03*
X107248100Y-66814800D03*
%TO.N,VBAT*%
X101130200Y-56857700D03*
X100147100Y-62172900D03*
X105186300Y-63635200D03*
X98268400Y-67879100D03*
X101925800Y-50027800D03*
%TO.N,VBAT_SENSE*%
X104195200Y-65219700D03*
X102800700Y-54906000D03*
%TO.N,SCL*%
X106426900Y-52251700D03*
X100055400Y-55197300D03*
X104187500Y-61202900D03*
%TO.N,VBUS*%
X107045200Y-58785200D03*
X103232800Y-50164500D03*
X104303900Y-70983600D03*
X105695200Y-64736100D03*
X100232700Y-67115400D03*
%TO.N,LED_A*%
X99252000Y-67677000D03*
X106127800Y-62578100D03*
%TO.N,CC1*%
X96899700Y-68284900D03*
X100945200Y-70391600D03*
%TO.N,USB_DP*%
X102945200Y-70402300D03*
X106379900Y-50314000D03*
%TO.N,USB_DM*%
X102171800Y-68254600D03*
X103964700Y-50149700D03*
%TO.N,IMU_INT1*%
X106261900Y-54676000D03*
X97182900Y-58725700D03*
%TO.N,IMU_INT2*%
X99453600Y-58334300D03*
X106698000Y-54183700D03*
%TO.N,SDA*%
X99751500Y-54708200D03*
X101188200Y-62202200D03*
X98495200Y-57887300D03*
%TO.N,SWDIO*%
X97971100Y-52633100D03*
%TO.N,SWDCLK*%
X98092600Y-54705100D03*
%TD*%
%TO.N,GND*%
D13*
X97875200Y-74250200D02*
X106515200Y-74250200D01*
X106515200Y-70050200D02*
X107875200Y-68690200D01*
X107875200Y-68376900D02*
X107875200Y-67441900D01*
X107875200Y-68690200D02*
X107875200Y-68376900D01*
X107875200Y-67441900D02*
X107248100Y-66814800D01*
%TO.N,VBAT*%
X102019200Y-64045000D02*
X100147100Y-62172900D01*
X105186300Y-63635200D02*
X105186300Y-64861100D01*
X105186300Y-64861100D02*
X104419700Y-65627700D01*
X102019200Y-64128300D02*
X102019200Y-64045000D01*
X102019200Y-64128300D02*
X98268400Y-67879100D01*
X104419700Y-65627700D02*
X103518600Y-65627700D01*
X103518600Y-65627700D02*
X102019200Y-64128300D01*
%TO.N,VBAT_SENSE*%
X102800700Y-54906000D02*
X102800700Y-63825200D01*
X102800700Y-63825200D02*
X104195200Y-65219700D01*
%TO.N,SCL*%
X104383800Y-55881100D02*
X102998500Y-54495800D01*
X104383800Y-61006600D02*
X104383800Y-55881100D01*
X100756900Y-54495800D02*
X100055400Y-55197300D01*
X104187500Y-61202900D02*
X104383800Y-61006600D01*
X102998500Y-54495800D02*
X100756900Y-54495800D01*
%TO.N,VBUS*%
X107089700Y-58740700D02*
X107089700Y-54021400D01*
X107045200Y-58785200D02*
X107089700Y-58740700D01*
X107089700Y-54021400D02*
X103232800Y-50164500D01*
X100232700Y-67115400D02*
X104100900Y-70983600D01*
X104100900Y-70983600D02*
X104303900Y-70983600D01*
%TO.N,LED_A*%
X106127800Y-64901100D02*
X106127800Y-62578100D01*
X99252000Y-67489600D02*
X100134900Y-66606700D01*
X99252000Y-67677000D02*
X99252000Y-67489600D01*
X100134900Y-66606700D02*
X104422200Y-66606700D01*
X104422200Y-66606700D02*
X106127800Y-64901100D01*
%TO.N,CC1*%
X100945200Y-70391600D02*
X98838500Y-68284900D01*
X98838500Y-68284900D02*
X96899700Y-68284900D01*
%TO.N,IMU_INT1*%
X106261900Y-54676000D02*
X105559900Y-53974000D01*
X105559900Y-53974000D02*
X99487200Y-53974000D01*
X99487200Y-53974000D02*
X97182900Y-56278300D01*
X97182900Y-56278300D02*
X97182900Y-58725700D01*
%TO.N,IMU_INT2*%
X99453600Y-58334300D02*
X99279300Y-58160000D01*
X99279300Y-58160000D02*
X99279300Y-54523800D01*
X99587400Y-54215700D02*
X104187500Y-54215700D01*
X104187500Y-54215700D02*
X105068200Y-55096400D01*
X99279300Y-54523800D02*
X99587400Y-54215700D01*
X105068200Y-55096400D02*
X106437500Y-55096400D01*
X106698000Y-54835900D02*
X106698000Y-54183700D01*
X106437500Y-55096400D02*
X106698000Y-54835900D01*
%TO.N,SDA*%
X99651900Y-54807800D02*
X99751500Y-54708200D01*
X98495200Y-58010900D02*
X98495200Y-57887300D01*
X99845300Y-58172000D02*
X99651900Y-57978600D01*
X99651900Y-57978600D02*
X99651900Y-54807800D01*
X99226700Y-58742400D02*
X98495200Y-58010900D01*
X99845300Y-58742400D02*
X99226700Y-58742400D01*
X99845300Y-58742400D02*
X99845300Y-58172000D01*
X101188200Y-62202200D02*
X99845300Y-60859300D01*
X99845300Y-60859300D02*
X99845300Y-58742400D01*
%TD*%
%TA.AperFunction,Conductor*%
%TO.N,GND*%
G36*
X101518993Y-49704107D02*
G01*
X101554957Y-49753607D01*
X101554957Y-49814793D01*
X101546538Y-49833701D01*
X101529298Y-49863560D01*
X101529297Y-49863562D01*
X101529297Y-49863563D01*
X101500300Y-49971782D01*
X101500300Y-50083818D01*
X101517970Y-50149763D01*
X101529298Y-50192041D01*
X101585313Y-50289060D01*
X101585315Y-50289063D01*
X101664537Y-50368285D01*
X101664539Y-50368286D01*
X101761559Y-50424301D01*
X101761557Y-50424301D01*
X101761561Y-50424302D01*
X101761563Y-50424303D01*
X101869782Y-50453300D01*
X101869784Y-50453300D01*
X101981816Y-50453300D01*
X101981818Y-50453300D01*
X102090037Y-50424303D01*
X102090039Y-50424301D01*
X102090041Y-50424301D01*
X102118864Y-50407659D01*
X102187063Y-50368285D01*
X102266285Y-50289063D01*
X102322303Y-50192037D01*
X102351300Y-50083818D01*
X102351300Y-49971782D01*
X102322303Y-49863563D01*
X102305061Y-49833700D01*
X102292340Y-49773853D01*
X102317226Y-49717957D01*
X102370214Y-49687364D01*
X102390798Y-49685200D01*
X102871345Y-49685200D01*
X102929536Y-49704107D01*
X102965500Y-49753607D01*
X102965500Y-49814793D01*
X102941350Y-49854201D01*
X102907115Y-49888437D01*
X102892313Y-49903239D01*
X102836298Y-50000258D01*
X102836297Y-50000263D01*
X102807300Y-50108482D01*
X102807300Y-50220518D01*
X102832331Y-50313937D01*
X102836298Y-50328741D01*
X102883768Y-50410960D01*
X102892315Y-50425763D01*
X102971537Y-50504985D01*
X102971539Y-50504986D01*
X103068559Y-50561001D01*
X103068557Y-50561001D01*
X103068561Y-50561002D01*
X103068563Y-50561003D01*
X103176782Y-50590000D01*
X103227677Y-50590000D01*
X103285868Y-50608907D01*
X103297681Y-50618996D01*
X106409314Y-53730630D01*
X106437091Y-53785147D01*
X106427520Y-53845579D01*
X106409314Y-53870637D01*
X106357514Y-53922437D01*
X106301498Y-54019458D01*
X106281103Y-54095576D01*
X106247779Y-54146891D01*
X106190657Y-54168817D01*
X106131557Y-54152981D01*
X106115473Y-54139957D01*
X105715961Y-53740446D01*
X105715958Y-53740443D01*
X105614700Y-53698500D01*
X99432400Y-53698500D01*
X99432399Y-53698500D01*
X99360799Y-53728157D01*
X99360799Y-53728158D01*
X99331141Y-53740443D01*
X99331139Y-53740444D01*
X98595565Y-54476016D01*
X98541049Y-54503793D01*
X98480617Y-54494222D01*
X98439826Y-54455513D01*
X98433086Y-54443839D01*
X98433085Y-54443837D01*
X98353863Y-54364615D01*
X98353860Y-54364613D01*
X98256840Y-54308598D01*
X98256842Y-54308598D01*
X98214851Y-54297347D01*
X98148618Y-54279600D01*
X98036582Y-54279600D01*
X97970348Y-54297347D01*
X97928358Y-54308598D01*
X97831339Y-54364613D01*
X97752113Y-54443839D01*
X97696098Y-54540858D01*
X97696097Y-54540863D01*
X97667100Y-54649082D01*
X97667100Y-54761118D01*
X97684759Y-54827021D01*
X97696098Y-54869341D01*
X97749605Y-54962016D01*
X97752115Y-54966363D01*
X97831337Y-55045585D01*
X97843013Y-55052326D01*
X97883954Y-55097794D01*
X97890350Y-55158644D01*
X97863517Y-55208065D01*
X97026842Y-56044742D01*
X96949346Y-56122238D01*
X96949344Y-56122240D01*
X96949343Y-56122242D01*
X96916497Y-56201539D01*
X96907400Y-56223500D01*
X96907400Y-58358444D01*
X96888493Y-58416635D01*
X96878404Y-58428447D01*
X96842414Y-58464437D01*
X96786398Y-58561458D01*
X96786397Y-58561463D01*
X96757400Y-58669682D01*
X96757400Y-58781718D01*
X96773343Y-58841218D01*
X96786398Y-58889941D01*
X96842413Y-58986960D01*
X96842415Y-58986963D01*
X96921637Y-59066185D01*
X96921639Y-59066186D01*
X97018659Y-59122201D01*
X97018657Y-59122201D01*
X97018661Y-59122202D01*
X97018663Y-59122203D01*
X97126882Y-59151200D01*
X97126884Y-59151200D01*
X97238916Y-59151200D01*
X97238918Y-59151200D01*
X97347137Y-59122203D01*
X97347139Y-59122201D01*
X97347141Y-59122201D01*
X97375964Y-59105559D01*
X97444163Y-59066185D01*
X97523385Y-58986963D01*
X97579403Y-58889937D01*
X97608400Y-58781718D01*
X97608400Y-58669682D01*
X97579403Y-58561463D01*
X97579401Y-58561460D01*
X97579401Y-58561458D01*
X97523385Y-58464437D01*
X97487396Y-58428447D01*
X97459619Y-58373930D01*
X97458400Y-58358444D01*
X97458400Y-56433423D01*
X97477307Y-56375232D01*
X97487396Y-56363419D01*
X98834796Y-55016019D01*
X98889313Y-54988242D01*
X98949745Y-54997813D01*
X98993010Y-55041078D01*
X99003800Y-55086023D01*
X99003800Y-57555145D01*
X98984893Y-57613336D01*
X98935393Y-57649300D01*
X98874207Y-57649300D01*
X98834798Y-57625150D01*
X98756463Y-57546815D01*
X98718225Y-57524738D01*
X98659440Y-57490798D01*
X98659442Y-57490798D01*
X98588919Y-57471902D01*
X98551218Y-57461800D01*
X98439182Y-57461800D01*
X98401481Y-57471902D01*
X98330958Y-57490798D01*
X98233939Y-57546813D01*
X98154713Y-57626039D01*
X98098698Y-57723058D01*
X98098697Y-57723063D01*
X98069700Y-57831282D01*
X98069700Y-57943318D01*
X98089160Y-58015943D01*
X98098698Y-58051541D01*
X98154713Y-58148560D01*
X98154715Y-58148563D01*
X98233937Y-58227785D01*
X98233939Y-58227786D01*
X98330959Y-58283801D01*
X98330960Y-58283801D01*
X98330963Y-58283803D01*
X98370257Y-58294331D01*
X98414638Y-58319954D01*
X99070641Y-58975957D01*
X99097210Y-58986962D01*
X99097211Y-58986963D01*
X99119087Y-58996023D01*
X99171900Y-59017900D01*
X99470800Y-59017900D01*
X99528991Y-59036807D01*
X99564955Y-59086307D01*
X99569800Y-59116900D01*
X99569800Y-60914100D01*
X99611743Y-61015358D01*
X100174783Y-61578398D01*
X100202559Y-61632913D01*
X100192988Y-61693345D01*
X100149723Y-61736610D01*
X100104778Y-61747400D01*
X100091082Y-61747400D01*
X100052295Y-61757793D01*
X99982858Y-61776398D01*
X99885839Y-61832413D01*
X99806613Y-61911639D01*
X99750598Y-62008658D01*
X99750597Y-62008663D01*
X99721600Y-62116882D01*
X99721600Y-62228918D01*
X99729451Y-62258218D01*
X99750598Y-62337141D01*
X99806613Y-62434160D01*
X99806615Y-62434163D01*
X99885837Y-62513385D01*
X99918179Y-62532057D01*
X99982859Y-62569401D01*
X99982857Y-62569401D01*
X99982861Y-62569402D01*
X99982863Y-62569403D01*
X100091082Y-62598400D01*
X100141977Y-62598400D01*
X100200168Y-62617307D01*
X100211981Y-62627396D01*
X101601230Y-64016645D01*
X101629007Y-64071162D01*
X101619436Y-64131594D01*
X101601230Y-64156653D01*
X98333281Y-67424604D01*
X98278764Y-67452381D01*
X98263277Y-67453600D01*
X98212382Y-67453600D01*
X98146148Y-67471347D01*
X98104158Y-67482598D01*
X98007139Y-67538613D01*
X97927913Y-67617839D01*
X97871898Y-67714858D01*
X97842900Y-67823083D01*
X97842900Y-67910400D01*
X97823993Y-67968591D01*
X97774493Y-68004555D01*
X97743900Y-68009400D01*
X97266956Y-68009400D01*
X97208765Y-67990493D01*
X97196953Y-67980404D01*
X97160962Y-67944414D01*
X97063940Y-67888398D01*
X97063942Y-67888398D01*
X97021951Y-67877147D01*
X96955718Y-67859400D01*
X96843682Y-67859400D01*
X96777448Y-67877147D01*
X96735458Y-67888398D01*
X96638439Y-67944413D01*
X96559213Y-68023639D01*
X96503198Y-68120658D01*
X96503197Y-68120663D01*
X96474200Y-68228882D01*
X96474200Y-68340918D01*
X96495078Y-68418837D01*
X96503198Y-68449141D01*
X96541721Y-68515863D01*
X96559215Y-68546163D01*
X96638437Y-68625385D01*
X96638439Y-68625386D01*
X96735459Y-68681401D01*
X96735457Y-68681401D01*
X96735461Y-68681402D01*
X96735463Y-68681403D01*
X96843682Y-68710400D01*
X96843684Y-68710400D01*
X96955716Y-68710400D01*
X96955718Y-68710400D01*
X97063937Y-68681403D01*
X97063939Y-68681401D01*
X97063941Y-68681401D01*
X97116418Y-68651103D01*
X97160963Y-68625385D01*
X97178957Y-68607390D01*
X97196953Y-68589396D01*
X97251470Y-68561619D01*
X97266956Y-68560400D01*
X97750354Y-68560400D01*
X97808545Y-68579307D01*
X97844509Y-68628807D01*
X97844509Y-68689993D01*
X97808545Y-68739493D01*
X97769668Y-68756498D01*
X97656435Y-68779021D01*
X97656429Y-68779023D01*
X97519942Y-68835558D01*
X97397106Y-68917634D01*
X97292634Y-69022106D01*
X97210558Y-69144942D01*
X97154023Y-69281429D01*
X97154021Y-69281435D01*
X97125200Y-69426328D01*
X97125200Y-69900199D01*
X97125201Y-69900200D01*
X97575200Y-69900200D01*
X97575200Y-70200200D01*
X97125201Y-70200200D01*
X97125200Y-70200201D01*
X97125200Y-70674071D01*
X97154021Y-70818964D01*
X97154023Y-70818970D01*
X97210558Y-70955457D01*
X97292634Y-71078293D01*
X97397106Y-71182765D01*
X97519942Y-71264841D01*
X97656435Y-71321378D01*
X97656434Y-71321378D01*
X97725200Y-71335055D01*
X97725200Y-70860008D01*
X97759404Y-70879756D01*
X97835704Y-70900200D01*
X97914696Y-70900200D01*
X97990996Y-70879756D01*
X98025200Y-70860008D01*
X98025200Y-71335054D01*
X98093965Y-71321378D01*
X98230457Y-71264841D01*
X98353293Y-71182765D01*
X98457765Y-71078293D01*
X98539841Y-70955457D01*
X98596376Y-70818970D01*
X98596378Y-70818964D01*
X98612153Y-70739658D01*
X98642049Y-70686274D01*
X98697614Y-70660658D01*
X98757624Y-70672595D01*
X98799157Y-70717524D01*
X98804877Y-70733348D01*
X98815510Y-70773032D01*
X98815511Y-70773034D01*
X98815512Y-70773036D01*
X98884695Y-70892865D01*
X98982535Y-70990705D01*
X99102364Y-71059888D01*
X99236017Y-71095700D01*
X99236019Y-71095700D01*
X99374381Y-71095700D01*
X99374383Y-71095700D01*
X99508036Y-71059888D01*
X99627865Y-70990705D01*
X99725705Y-70892865D01*
X99794888Y-70773036D01*
X99830700Y-70639383D01*
X99830700Y-70501017D01*
X99794888Y-70367364D01*
X99725705Y-70247535D01*
X99627865Y-70149695D01*
X99508036Y-70080512D01*
X99374383Y-70044700D01*
X99236017Y-70044700D01*
X99102364Y-70080512D01*
X98982535Y-70149695D01*
X98884695Y-70247535D01*
X98815512Y-70367364D01*
X98815511Y-70367366D01*
X98812268Y-70372984D01*
X98811118Y-70372320D01*
X98775925Y-70413524D01*
X98716429Y-70427806D01*
X98659902Y-70404389D01*
X98627935Y-70352219D01*
X98625200Y-70329111D01*
X98625200Y-70200201D01*
X98625199Y-70200200D01*
X98175200Y-70200200D01*
X98175200Y-69900200D01*
X98625199Y-69900200D01*
X98625200Y-69900199D01*
X98625200Y-69426332D01*
X98625199Y-69426328D01*
X98596378Y-69281435D01*
X98596376Y-69281429D01*
X98539841Y-69144942D01*
X98457765Y-69022106D01*
X98353293Y-68917634D01*
X98230457Y-68835558D01*
X98093970Y-68779023D01*
X98093964Y-68779021D01*
X97980732Y-68756498D01*
X97927348Y-68726601D01*
X97901732Y-68671036D01*
X97913669Y-68611026D01*
X97958599Y-68569494D01*
X98000046Y-68560400D01*
X98683377Y-68560400D01*
X98741568Y-68579307D01*
X98753381Y-68589396D01*
X100490704Y-70326719D01*
X100518481Y-70381236D01*
X100519700Y-70396723D01*
X100519700Y-70447618D01*
X100535493Y-70506558D01*
X100548698Y-70555841D01*
X100604713Y-70652860D01*
X100604715Y-70652863D01*
X100683937Y-70732085D01*
X100683939Y-70732086D01*
X100780959Y-70788101D01*
X100780957Y-70788101D01*
X100780961Y-70788102D01*
X100780963Y-70788103D01*
X100889182Y-70817100D01*
X100889184Y-70817100D01*
X101001216Y-70817100D01*
X101001218Y-70817100D01*
X101109437Y-70788103D01*
X101109439Y-70788101D01*
X101109441Y-70788101D01*
X101138264Y-70771459D01*
X101206463Y-70732085D01*
X101285685Y-70652863D01*
X101335523Y-70566541D01*
X101341701Y-70555841D01*
X101341701Y-70555839D01*
X101341703Y-70555837D01*
X101370700Y-70447618D01*
X101370700Y-70335582D01*
X101341703Y-70227363D01*
X101341701Y-70227360D01*
X101341701Y-70227358D01*
X101285686Y-70130339D01*
X101285685Y-70130337D01*
X101206463Y-70051115D01*
X101195352Y-70044700D01*
X101109440Y-69995098D01*
X101109442Y-69995098D01*
X101067451Y-69983847D01*
X101001218Y-69966100D01*
X101001216Y-69966100D01*
X100950324Y-69966100D01*
X100892133Y-69947193D01*
X100880320Y-69937104D01*
X100843415Y-69900199D01*
X99214716Y-68271501D01*
X99186941Y-68216987D01*
X99196512Y-68156555D01*
X99239777Y-68113290D01*
X99284722Y-68102500D01*
X99308016Y-68102500D01*
X99308018Y-68102500D01*
X99416237Y-68073503D01*
X99416239Y-68073501D01*
X99416241Y-68073501D01*
X99482652Y-68035158D01*
X99513263Y-68017485D01*
X99592485Y-67938263D01*
X99648503Y-67841237D01*
X99677500Y-67733018D01*
X99677500Y-67620982D01*
X99656945Y-67544269D01*
X99658028Y-67523601D01*
X99654791Y-67503160D01*
X99659594Y-67493733D01*
X99660148Y-67483169D01*
X99682566Y-67448647D01*
X99753381Y-67377833D01*
X99807897Y-67350057D01*
X99868329Y-67359629D01*
X99893383Y-67377831D01*
X99971437Y-67455885D01*
X99971439Y-67455886D01*
X100068459Y-67511901D01*
X100068457Y-67511901D01*
X100068461Y-67511902D01*
X100068463Y-67511903D01*
X100176682Y-67540900D01*
X100227577Y-67540900D01*
X100285768Y-67559807D01*
X100297581Y-67569896D01*
X102666715Y-69939030D01*
X102694492Y-69993547D01*
X102684921Y-70053979D01*
X102666717Y-70079034D01*
X102615415Y-70130337D01*
X102604713Y-70141039D01*
X102548698Y-70238058D01*
X102548697Y-70238063D01*
X102519700Y-70346282D01*
X102519700Y-70458318D01*
X102532626Y-70506558D01*
X102548698Y-70566541D01*
X102604147Y-70662579D01*
X102604715Y-70663563D01*
X102683937Y-70742785D01*
X102683939Y-70742786D01*
X102780959Y-70798801D01*
X102780957Y-70798801D01*
X102780961Y-70798802D01*
X102780963Y-70798803D01*
X102889182Y-70827800D01*
X102889184Y-70827800D01*
X103001216Y-70827800D01*
X103001218Y-70827800D01*
X103109437Y-70798803D01*
X103109439Y-70798801D01*
X103109441Y-70798801D01*
X103138264Y-70782159D01*
X103206463Y-70742785D01*
X103268464Y-70680783D01*
X103322979Y-70653008D01*
X103383411Y-70662579D01*
X103408470Y-70680785D01*
X103867343Y-71139658D01*
X103867342Y-71139658D01*
X103941721Y-71214036D01*
X103957454Y-71234539D01*
X103963415Y-71244863D01*
X104042637Y-71324085D01*
X104042639Y-71324086D01*
X104139659Y-71380101D01*
X104139657Y-71380101D01*
X104139661Y-71380102D01*
X104139663Y-71380103D01*
X104247882Y-71409100D01*
X104247884Y-71409100D01*
X104359916Y-71409100D01*
X104359918Y-71409100D01*
X104468137Y-71380103D01*
X104468139Y-71380101D01*
X104468141Y-71380101D01*
X104496964Y-71363459D01*
X104565163Y-71324085D01*
X104644385Y-71244863D01*
X104700403Y-71147837D01*
X104711797Y-71105311D01*
X104745119Y-71053999D01*
X104802240Y-71032072D01*
X104856920Y-71045198D01*
X104882364Y-71059888D01*
X105016017Y-71095700D01*
X105016019Y-71095700D01*
X105154381Y-71095700D01*
X105154383Y-71095700D01*
X105288036Y-71059888D01*
X105407865Y-70990705D01*
X105505705Y-70892865D01*
X105574888Y-70773036D01*
X105585522Y-70733347D01*
X105618844Y-70682035D01*
X105675966Y-70660108D01*
X105735066Y-70675943D01*
X105773572Y-70723492D01*
X105778246Y-70739657D01*
X105794022Y-70818965D01*
X105794023Y-70818970D01*
X105850558Y-70955457D01*
X105932634Y-71078293D01*
X106037106Y-71182765D01*
X106159942Y-71264841D01*
X106296435Y-71321378D01*
X106296434Y-71321378D01*
X106365200Y-71335055D01*
X106365200Y-70860008D01*
X106399404Y-70879756D01*
X106475704Y-70900200D01*
X106554696Y-70900200D01*
X106630996Y-70879756D01*
X106665200Y-70860008D01*
X106665200Y-71335054D01*
X106733965Y-71321378D01*
X106870457Y-71264841D01*
X106993293Y-71182765D01*
X107097765Y-71078293D01*
X107179841Y-70955457D01*
X107236376Y-70818970D01*
X107236378Y-70818964D01*
X107265199Y-70674071D01*
X107265200Y-70674067D01*
X107265200Y-70200201D01*
X107265199Y-70200200D01*
X106815200Y-70200200D01*
X106815200Y-69900200D01*
X107265199Y-69900200D01*
X107265200Y-69900199D01*
X107265200Y-69426332D01*
X107265199Y-69426328D01*
X107236378Y-69281435D01*
X107236376Y-69281429D01*
X107179841Y-69144942D01*
X107097765Y-69022106D01*
X106993293Y-68917634D01*
X106870457Y-68835558D01*
X106733967Y-68779022D01*
X106665200Y-68765343D01*
X106665200Y-69240391D01*
X106630996Y-69220644D01*
X106554696Y-69200200D01*
X106475704Y-69200200D01*
X106399404Y-69220644D01*
X106365200Y-69240391D01*
X106365200Y-68765343D01*
X106296432Y-68779022D01*
X106159942Y-68835558D01*
X106037106Y-68917634D01*
X105932634Y-69022106D01*
X105850558Y-69144942D01*
X105794023Y-69281429D01*
X105794021Y-69281435D01*
X105765200Y-69426328D01*
X105765200Y-69900199D01*
X105765201Y-69900200D01*
X106215200Y-69900200D01*
X106215200Y-70200200D01*
X105765201Y-70200200D01*
X105765200Y-70200201D01*
X105765200Y-70329111D01*
X105746293Y-70387302D01*
X105696793Y-70423266D01*
X105635607Y-70423266D01*
X105586107Y-70387302D01*
X105576674Y-70370458D01*
X105566144Y-70352219D01*
X105505705Y-70247535D01*
X105407865Y-70149695D01*
X105288036Y-70080512D01*
X105154383Y-70044700D01*
X105016017Y-70044700D01*
X104887865Y-70079038D01*
X104882364Y-70080512D01*
X104762535Y-70149695D01*
X104664695Y-70247535D01*
X104595512Y-70367364D01*
X104558021Y-70507285D01*
X104555310Y-70506558D01*
X104534003Y-70551190D01*
X104480223Y-70580366D01*
X104436593Y-70578645D01*
X104359918Y-70558100D01*
X104247882Y-70558100D01*
X104158868Y-70581950D01*
X104097768Y-70578748D01*
X104063243Y-70556328D01*
X102314408Y-68807493D01*
X102286631Y-68752976D01*
X102296202Y-68692544D01*
X102334912Y-68651753D01*
X102405452Y-68611026D01*
X102433063Y-68595085D01*
X102512285Y-68515863D01*
X102568303Y-68418837D01*
X102597300Y-68310618D01*
X102597300Y-68198582D01*
X102568303Y-68090363D01*
X102568301Y-68090360D01*
X102568301Y-68090358D01*
X102512286Y-67993339D01*
X102512285Y-67993337D01*
X102433063Y-67914115D01*
X102433060Y-67914113D01*
X102336040Y-67858098D01*
X102336042Y-67858098D01*
X102280496Y-67843215D01*
X102227818Y-67829100D01*
X102115782Y-67829100D01*
X102063104Y-67843215D01*
X102007558Y-67858098D01*
X101910539Y-67914113D01*
X101831314Y-67993338D01*
X101774646Y-68091488D01*
X101729176Y-68132429D01*
X101668325Y-68138823D01*
X101618906Y-68111991D01*
X100687196Y-67180281D01*
X100686662Y-67179233D01*
X100685629Y-67178677D01*
X100682858Y-67171767D01*
X100659419Y-67125764D01*
X100659093Y-67123545D01*
X100658200Y-67116942D01*
X100658200Y-67059382D01*
X100642481Y-67000719D01*
X100641636Y-66994468D01*
X100646031Y-66970278D01*
X100647318Y-66945722D01*
X100651411Y-66940666D01*
X100652574Y-66934269D01*
X100670347Y-66917282D01*
X100685823Y-66898172D01*
X100692374Y-66896231D01*
X100696807Y-66891995D01*
X100714966Y-66889539D01*
X100739743Y-66882200D01*
X104476999Y-66882200D01*
X104477000Y-66882200D01*
X104578258Y-66840257D01*
X104655757Y-66762758D01*
X104655756Y-66762758D01*
X106361358Y-65057158D01*
X106385450Y-64998994D01*
X106403300Y-64955901D01*
X106403300Y-62945355D01*
X106422207Y-62887164D01*
X106432290Y-62875357D01*
X106468285Y-62839363D01*
X106524303Y-62742337D01*
X106553300Y-62634118D01*
X106553300Y-62522082D01*
X106524303Y-62413863D01*
X106524301Y-62413860D01*
X106524301Y-62413858D01*
X106468286Y-62316839D01*
X106468285Y-62316837D01*
X106389063Y-62237615D01*
X106389060Y-62237613D01*
X106292040Y-62181598D01*
X106292042Y-62181598D01*
X106235003Y-62166315D01*
X106183818Y-62152600D01*
X106071782Y-62152600D01*
X106020597Y-62166315D01*
X105963558Y-62181598D01*
X105866539Y-62237613D01*
X105787313Y-62316839D01*
X105731298Y-62413858D01*
X105718008Y-62463460D01*
X105702300Y-62522082D01*
X105702300Y-62634118D01*
X105715064Y-62681755D01*
X105731298Y-62742341D01*
X105787313Y-62839360D01*
X105787315Y-62839363D01*
X105823305Y-62875353D01*
X105851081Y-62929868D01*
X105852300Y-62945355D01*
X105852300Y-64211600D01*
X105833393Y-64269791D01*
X105783893Y-64305755D01*
X105753300Y-64310600D01*
X105751218Y-64310600D01*
X105639182Y-64310600D01*
X105586421Y-64324736D01*
X105525321Y-64321534D01*
X105477771Y-64283029D01*
X105461800Y-64229110D01*
X105461800Y-64002455D01*
X105480707Y-63944264D01*
X105490790Y-63932457D01*
X105526785Y-63896463D01*
X105582803Y-63799437D01*
X105611800Y-63691218D01*
X105611800Y-63579182D01*
X105582803Y-63470963D01*
X105582801Y-63470960D01*
X105582801Y-63470958D01*
X105526786Y-63373939D01*
X105526785Y-63373937D01*
X105447563Y-63294715D01*
X105447560Y-63294713D01*
X105350540Y-63238698D01*
X105350542Y-63238698D01*
X105308551Y-63227447D01*
X105242318Y-63209700D01*
X105130282Y-63209700D01*
X105064048Y-63227447D01*
X105022058Y-63238698D01*
X104925039Y-63294713D01*
X104845813Y-63373939D01*
X104789798Y-63470958D01*
X104789797Y-63470963D01*
X104760800Y-63579182D01*
X104760800Y-63691218D01*
X104786372Y-63786655D01*
X104789798Y-63799441D01*
X104836310Y-63880000D01*
X104845815Y-63896463D01*
X104881805Y-63932453D01*
X104909581Y-63986968D01*
X104910800Y-64002455D01*
X104910800Y-64705976D01*
X104891893Y-64764167D01*
X104881803Y-64775980D01*
X104686565Y-64971217D01*
X104632049Y-64998994D01*
X104571617Y-64989423D01*
X104538019Y-64961479D01*
X104535687Y-64958440D01*
X104535686Y-64958439D01*
X104535685Y-64958437D01*
X104456463Y-64879215D01*
X104399453Y-64846300D01*
X104359440Y-64823198D01*
X104359442Y-64823198D01*
X104317451Y-64811947D01*
X104251218Y-64794200D01*
X104251216Y-64794200D01*
X104200324Y-64794200D01*
X104142133Y-64775293D01*
X104130320Y-64765204D01*
X103105196Y-63740080D01*
X103077419Y-63685563D01*
X103076200Y-63670076D01*
X103076200Y-55273255D01*
X103078668Y-55265657D01*
X103077419Y-55257768D01*
X103087943Y-55237112D01*
X103095107Y-55215064D01*
X103105190Y-55203257D01*
X103140764Y-55167683D01*
X103195279Y-55139908D01*
X103255711Y-55149479D01*
X103280770Y-55167685D01*
X103983847Y-55870762D01*
X104011624Y-55925279D01*
X104002053Y-55985711D01*
X103958788Y-56028976D01*
X103939467Y-56036393D01*
X103936082Y-56037300D01*
X103827863Y-56066297D01*
X103827861Y-56066297D01*
X103827857Y-56066299D01*
X103730839Y-56122313D01*
X103651613Y-56201539D01*
X103595598Y-56298558D01*
X103595597Y-56298563D01*
X103566600Y-56406782D01*
X103566600Y-56518818D01*
X103587398Y-56596437D01*
X103595598Y-56627041D01*
X103651613Y-56724060D01*
X103651615Y-56724063D01*
X103730837Y-56803285D01*
X103730839Y-56803286D01*
X103827859Y-56859301D01*
X103827857Y-56859301D01*
X103827861Y-56859302D01*
X103827863Y-56859303D01*
X103936082Y-56888300D01*
X103936084Y-56888300D01*
X104009300Y-56888300D01*
X104067491Y-56907207D01*
X104103455Y-56956707D01*
X104108300Y-56987300D01*
X104108300Y-60707645D01*
X104089393Y-60765836D01*
X104039893Y-60801800D01*
X104034929Y-60803270D01*
X104023263Y-60806396D01*
X104023259Y-60806398D01*
X103926239Y-60862413D01*
X103847013Y-60941639D01*
X103790998Y-61038658D01*
X103774786Y-61099163D01*
X103762000Y-61146882D01*
X103762000Y-61258918D01*
X103787572Y-61354355D01*
X103790998Y-61367141D01*
X103847013Y-61464160D01*
X103847015Y-61464163D01*
X103926237Y-61543385D01*
X103926239Y-61543386D01*
X104023259Y-61599401D01*
X104023257Y-61599401D01*
X104023261Y-61599402D01*
X104023263Y-61599403D01*
X104131482Y-61628400D01*
X104131484Y-61628400D01*
X104243516Y-61628400D01*
X104243518Y-61628400D01*
X104351737Y-61599403D01*
X104351739Y-61599401D01*
X104351741Y-61599401D01*
X104388122Y-61578396D01*
X104448763Y-61543385D01*
X104527985Y-61464163D01*
X104584003Y-61367137D01*
X104613000Y-61258918D01*
X104613000Y-61192869D01*
X104620533Y-61154992D01*
X104623891Y-61146882D01*
X104629641Y-61133000D01*
X104659300Y-61061400D01*
X104659300Y-55826300D01*
X104617357Y-55725042D01*
X104617357Y-55725041D01*
X103552518Y-54660203D01*
X103524742Y-54605687D01*
X103534313Y-54545255D01*
X103577578Y-54501990D01*
X103622523Y-54491200D01*
X104032377Y-54491200D01*
X104090568Y-54510107D01*
X104102381Y-54520196D01*
X104834643Y-55252458D01*
X104834642Y-55252458D01*
X104885562Y-55303377D01*
X104912142Y-55329957D01*
X105013400Y-55371900D01*
X105013401Y-55371900D01*
X106492299Y-55371900D01*
X106492300Y-55371900D01*
X106593558Y-55329957D01*
X106645198Y-55278316D01*
X106699713Y-55250541D01*
X106760145Y-55260112D01*
X106803410Y-55303377D01*
X106814200Y-55348322D01*
X106814200Y-57523468D01*
X106795293Y-57581659D01*
X106745793Y-57617623D01*
X106684607Y-57617623D01*
X106635107Y-57581659D01*
X106629469Y-57572979D01*
X106625720Y-57566484D01*
X106513916Y-57454680D01*
X106376984Y-57375623D01*
X106224257Y-57334700D01*
X106066143Y-57334700D01*
X105913416Y-57375623D01*
X105776484Y-57454680D01*
X105664680Y-57566484D01*
X105585623Y-57703416D01*
X105544700Y-57856143D01*
X105544700Y-58014257D01*
X105585623Y-58166984D01*
X105664680Y-58303916D01*
X105776484Y-58415720D01*
X105913416Y-58494777D01*
X106066143Y-58535700D01*
X106066145Y-58535700D01*
X106224255Y-58535700D01*
X106224257Y-58535700D01*
X106376984Y-58494777D01*
X106513916Y-58415720D01*
X106625720Y-58303916D01*
X106629464Y-58297431D01*
X106674932Y-58256491D01*
X106735782Y-58250094D01*
X106788770Y-58280686D01*
X106813658Y-58336581D01*
X106814200Y-58346931D01*
X106814200Y-58373444D01*
X106795293Y-58431635D01*
X106785204Y-58443447D01*
X106704714Y-58523937D01*
X106648698Y-58620958D01*
X106648697Y-58620963D01*
X106619700Y-58729182D01*
X106619700Y-58841218D01*
X106632754Y-58889937D01*
X106648698Y-58949441D01*
X106688224Y-59017900D01*
X106704715Y-59046463D01*
X106783937Y-59125685D01*
X106783939Y-59125686D01*
X106880959Y-59181701D01*
X106880957Y-59181701D01*
X106880961Y-59181702D01*
X106880963Y-59181703D01*
X106989182Y-59210700D01*
X106989184Y-59210700D01*
X107101216Y-59210700D01*
X107101218Y-59210700D01*
X107209437Y-59181703D01*
X107209439Y-59181701D01*
X107209441Y-59181701D01*
X107238264Y-59165059D01*
X107306463Y-59125685D01*
X107385685Y-59046463D01*
X107441703Y-58949437D01*
X107470700Y-58841218D01*
X107470700Y-58729182D01*
X107441703Y-58620963D01*
X107441701Y-58620960D01*
X107441701Y-58620958D01*
X107385685Y-58523937D01*
X107385652Y-58523894D01*
X107385638Y-58523856D01*
X107384725Y-58522274D01*
X107384107Y-58521825D01*
X107383645Y-58520403D01*
X107382441Y-58518318D01*
X107382884Y-58518062D01*
X107375030Y-58493889D01*
X107365234Y-58466216D01*
X107365200Y-58463634D01*
X107365200Y-58443443D01*
X107384107Y-58385252D01*
X107433607Y-58349288D01*
X107494793Y-58349288D01*
X107534201Y-58373437D01*
X107576484Y-58415720D01*
X107713416Y-58494777D01*
X107866143Y-58535700D01*
X107866145Y-58535700D01*
X108024255Y-58535700D01*
X108024257Y-58535700D01*
X108176984Y-58494777D01*
X108296203Y-58425946D01*
X108356048Y-58413226D01*
X108411944Y-58438113D01*
X108442537Y-58491101D01*
X108444700Y-58511684D01*
X108444700Y-75381959D01*
X108444488Y-75388434D01*
X108429729Y-75613605D01*
X108428039Y-75626444D01*
X108384649Y-75844584D01*
X108381297Y-75857092D01*
X108309808Y-76067693D01*
X108304852Y-76079658D01*
X108206483Y-76279128D01*
X108200009Y-76290342D01*
X108076443Y-76475273D01*
X108068559Y-76485547D01*
X107921917Y-76652760D01*
X107912760Y-76661917D01*
X107745547Y-76808559D01*
X107735273Y-76816443D01*
X107550342Y-76940009D01*
X107539128Y-76946483D01*
X107339658Y-77044852D01*
X107327693Y-77049808D01*
X107117092Y-77121297D01*
X107104584Y-77124649D01*
X106886444Y-77168039D01*
X106873605Y-77169729D01*
X106648434Y-77184488D01*
X106641959Y-77184700D01*
X97748441Y-77184700D01*
X97741966Y-77184488D01*
X97516794Y-77169729D01*
X97503955Y-77168039D01*
X97285815Y-77124649D01*
X97273307Y-77121297D01*
X97062706Y-77049808D01*
X97050741Y-77044852D01*
X96851271Y-76946483D01*
X96840057Y-76940009D01*
X96655126Y-76816443D01*
X96644852Y-76808559D01*
X96477639Y-76661917D01*
X96468482Y-76652760D01*
X96321840Y-76485547D01*
X96313956Y-76475273D01*
X96190390Y-76290342D01*
X96183916Y-76279128D01*
X96169440Y-76249774D01*
X96085543Y-76079650D01*
X96080595Y-76067702D01*
X96009099Y-75857083D01*
X96005752Y-75844594D01*
X95962359Y-75626437D01*
X95960670Y-75613605D01*
X95945912Y-75388434D01*
X95945700Y-75381959D01*
X95945700Y-73776328D01*
X97125200Y-73776328D01*
X97125200Y-74100199D01*
X97125201Y-74100200D01*
X97575200Y-74100200D01*
X97575200Y-74400200D01*
X97125201Y-74400200D01*
X97125200Y-74400201D01*
X97125200Y-74724071D01*
X97154021Y-74868964D01*
X97154023Y-74868970D01*
X97210558Y-75005457D01*
X97292634Y-75128293D01*
X97397106Y-75232765D01*
X97519942Y-75314841D01*
X97656435Y-75371378D01*
X97656434Y-75371378D01*
X97725200Y-75385055D01*
X97725200Y-74910008D01*
X97759404Y-74929756D01*
X97835704Y-74950200D01*
X97914696Y-74950200D01*
X97990996Y-74929756D01*
X98025200Y-74910008D01*
X98025200Y-75385054D01*
X98093965Y-75371378D01*
X98230457Y-75314841D01*
X98353293Y-75232765D01*
X98457765Y-75128293D01*
X98539841Y-75005457D01*
X98596376Y-74868970D01*
X98596378Y-74868964D01*
X98625199Y-74724071D01*
X98625200Y-74724067D01*
X98625200Y-74400201D01*
X98625199Y-74400200D01*
X98175200Y-74400200D01*
X98175200Y-74100200D01*
X98625199Y-74100200D01*
X98625200Y-74100199D01*
X98625200Y-73776332D01*
X98625199Y-73776328D01*
X105765200Y-73776328D01*
X105765200Y-74100199D01*
X105765201Y-74100200D01*
X106215200Y-74100200D01*
X106215200Y-74400200D01*
X105765201Y-74400200D01*
X105765200Y-74400201D01*
X105765200Y-74724071D01*
X105794021Y-74868964D01*
X105794023Y-74868970D01*
X105850558Y-75005457D01*
X105932634Y-75128293D01*
X106037106Y-75232765D01*
X106159942Y-75314841D01*
X106296435Y-75371378D01*
X106296434Y-75371378D01*
X106365200Y-75385055D01*
X106365200Y-74910008D01*
X106399404Y-74929756D01*
X106475704Y-74950200D01*
X106554696Y-74950200D01*
X106630996Y-74929756D01*
X106665200Y-74910008D01*
X106665200Y-75385054D01*
X106733965Y-75371378D01*
X106870457Y-75314841D01*
X106993293Y-75232765D01*
X107097765Y-75128293D01*
X107179841Y-75005457D01*
X107236376Y-74868970D01*
X107236378Y-74868964D01*
X107265199Y-74724071D01*
X107265200Y-74724067D01*
X107265200Y-74400201D01*
X107265199Y-74400200D01*
X106815200Y-74400200D01*
X106815200Y-74100200D01*
X107265199Y-74100200D01*
X107265200Y-74100199D01*
X107265200Y-73776332D01*
X107265199Y-73776328D01*
X107236378Y-73631435D01*
X107236376Y-73631429D01*
X107179841Y-73494942D01*
X107097765Y-73372106D01*
X106993293Y-73267634D01*
X106870457Y-73185558D01*
X106733967Y-73129022D01*
X106665200Y-73115343D01*
X106665200Y-73590391D01*
X106630996Y-73570644D01*
X106554696Y-73550200D01*
X106475704Y-73550200D01*
X106399404Y-73570644D01*
X106365200Y-73590391D01*
X106365200Y-73115343D01*
X106296432Y-73129022D01*
X106159942Y-73185558D01*
X106037106Y-73267634D01*
X105932634Y-73372106D01*
X105850558Y-73494942D01*
X105794023Y-73631429D01*
X105794021Y-73631435D01*
X105765200Y-73776328D01*
X98625199Y-73776328D01*
X98596378Y-73631435D01*
X98596376Y-73631429D01*
X98539841Y-73494942D01*
X98457765Y-73372106D01*
X98353293Y-73267634D01*
X98230457Y-73185558D01*
X98093967Y-73129022D01*
X98025200Y-73115343D01*
X98025200Y-73590391D01*
X97990996Y-73570644D01*
X97914696Y-73550200D01*
X97835704Y-73550200D01*
X97759404Y-73570644D01*
X97725200Y-73590391D01*
X97725200Y-73115343D01*
X97656432Y-73129022D01*
X97519942Y-73185558D01*
X97397106Y-73267634D01*
X97292634Y-73372106D01*
X97210558Y-73494942D01*
X97154023Y-73631429D01*
X97154021Y-73631435D01*
X97125200Y-73776328D01*
X95945700Y-73776328D01*
X95945700Y-52577082D01*
X97545600Y-52577082D01*
X97545600Y-52689118D01*
X97571172Y-52784555D01*
X97574598Y-52797341D01*
X97602810Y-52846204D01*
X97630615Y-52894363D01*
X97709837Y-52973585D01*
X97709839Y-52973586D01*
X97806859Y-53029601D01*
X97806857Y-53029601D01*
X97806861Y-53029602D01*
X97806863Y-53029603D01*
X97915082Y-53058600D01*
X97915084Y-53058600D01*
X98027116Y-53058600D01*
X98027118Y-53058600D01*
X98135337Y-53029603D01*
X98135339Y-53029601D01*
X98135341Y-53029601D01*
X98164164Y-53012959D01*
X98232363Y-52973585D01*
X98311585Y-52894363D01*
X98367603Y-52797337D01*
X98396600Y-52689118D01*
X98396600Y-52577082D01*
X98367603Y-52468863D01*
X98367601Y-52468860D01*
X98367601Y-52468858D01*
X98319906Y-52386250D01*
X98311585Y-52371837D01*
X98232363Y-52292615D01*
X98232360Y-52292613D01*
X98135340Y-52236598D01*
X98135342Y-52236598D01*
X98093351Y-52225347D01*
X98027118Y-52207600D01*
X97915082Y-52207600D01*
X97848848Y-52225347D01*
X97806858Y-52236598D01*
X97709839Y-52292613D01*
X97630613Y-52371839D01*
X97574598Y-52468858D01*
X97558386Y-52529363D01*
X97545600Y-52577082D01*
X95945700Y-52577082D01*
X95945700Y-49784200D01*
X95964607Y-49726009D01*
X96014107Y-49690045D01*
X96044700Y-49685200D01*
X101460802Y-49685200D01*
X101518993Y-49704107D01*
G37*
%TD.AperFunction*%
%TA.AperFunction,Conductor*%
G36*
X102291112Y-54776145D02*
G01*
X102306793Y-54776145D01*
X102319478Y-54785361D01*
X102334391Y-54790207D01*
X102343607Y-54802892D01*
X102356293Y-54812109D01*
X102361138Y-54827021D01*
X102370355Y-54839707D01*
X102375200Y-54870300D01*
X102375200Y-54962018D01*
X102396384Y-55041078D01*
X102404198Y-55070241D01*
X102460213Y-55167260D01*
X102460215Y-55167263D01*
X102496205Y-55203253D01*
X102523981Y-55257768D01*
X102525200Y-55273255D01*
X102525200Y-63880000D01*
X102539789Y-63915220D01*
X102548272Y-63935700D01*
X102548271Y-63935700D01*
X102558937Y-63961448D01*
X102567143Y-63981258D01*
X103740705Y-65154820D01*
X103744330Y-65161935D01*
X103750793Y-65166631D01*
X103757956Y-65188679D01*
X103768481Y-65209335D01*
X103769700Y-65224822D01*
X103769700Y-65250176D01*
X103750793Y-65308367D01*
X103701293Y-65344331D01*
X103640107Y-65344331D01*
X103600696Y-65320180D01*
X102321889Y-64041373D01*
X102299185Y-63998895D01*
X102298431Y-63999208D01*
X102295256Y-63991544D01*
X102294794Y-63990679D01*
X102294700Y-63990209D01*
X102294700Y-63990200D01*
X102263642Y-63915221D01*
X102252757Y-63888941D01*
X101160520Y-62796704D01*
X101132743Y-62742187D01*
X101142314Y-62681755D01*
X101185579Y-62638490D01*
X101230524Y-62627700D01*
X101244216Y-62627700D01*
X101244218Y-62627700D01*
X101352437Y-62598703D01*
X101352439Y-62598701D01*
X101352441Y-62598701D01*
X101403186Y-62569403D01*
X101449463Y-62542685D01*
X101528685Y-62463463D01*
X101584703Y-62366437D01*
X101613700Y-62258218D01*
X101613700Y-62146182D01*
X101584703Y-62037963D01*
X101584701Y-62037960D01*
X101584701Y-62037958D01*
X101528686Y-61940939D01*
X101528685Y-61940937D01*
X101449463Y-61861715D01*
X101449460Y-61861713D01*
X101352440Y-61805698D01*
X101352442Y-61805698D01*
X101310451Y-61794447D01*
X101244218Y-61776700D01*
X101244216Y-61776700D01*
X101193324Y-61776700D01*
X101135133Y-61757793D01*
X101123320Y-61747704D01*
X100149796Y-60774180D01*
X100122019Y-60719663D01*
X100120800Y-60704176D01*
X100120800Y-58117200D01*
X100078857Y-58015942D01*
X100077170Y-58014255D01*
X100001358Y-57938442D01*
X100001358Y-57938443D01*
X99956396Y-57893481D01*
X99928619Y-57838964D01*
X99927400Y-57823477D01*
X99927400Y-56801682D01*
X100704700Y-56801682D01*
X100704700Y-56913718D01*
X100716219Y-56956707D01*
X100733698Y-57021941D01*
X100789713Y-57118960D01*
X100789715Y-57118963D01*
X100868937Y-57198185D01*
X100868939Y-57198186D01*
X100965959Y-57254201D01*
X100965957Y-57254201D01*
X100965961Y-57254202D01*
X100965963Y-57254203D01*
X101074182Y-57283200D01*
X101074184Y-57283200D01*
X101186216Y-57283200D01*
X101186218Y-57283200D01*
X101294437Y-57254203D01*
X101294439Y-57254201D01*
X101294441Y-57254201D01*
X101323264Y-57237559D01*
X101391463Y-57198185D01*
X101470685Y-57118963D01*
X101526703Y-57021937D01*
X101555700Y-56913718D01*
X101555700Y-56801682D01*
X101526703Y-56693463D01*
X101526701Y-56693460D01*
X101526701Y-56693458D01*
X101470686Y-56596439D01*
X101470685Y-56596437D01*
X101391463Y-56517215D01*
X101391460Y-56517213D01*
X101294440Y-56461198D01*
X101294442Y-56461198D01*
X101252451Y-56449947D01*
X101186218Y-56432200D01*
X101074182Y-56432200D01*
X101007948Y-56449947D01*
X100965958Y-56461198D01*
X100868939Y-56517213D01*
X100789713Y-56596439D01*
X100733698Y-56693458D01*
X100725498Y-56724063D01*
X100704700Y-56801682D01*
X99927400Y-56801682D01*
X99927400Y-55721800D01*
X99946307Y-55663609D01*
X99995807Y-55627645D01*
X100026400Y-55622800D01*
X100111416Y-55622800D01*
X100111418Y-55622800D01*
X100219637Y-55593803D01*
X100219639Y-55593801D01*
X100219641Y-55593801D01*
X100248464Y-55577159D01*
X100316663Y-55537785D01*
X100395885Y-55458563D01*
X100451903Y-55361537D01*
X100480900Y-55253318D01*
X100480900Y-55202422D01*
X100499807Y-55144231D01*
X100509897Y-55132418D01*
X100842020Y-54800296D01*
X100896536Y-54772519D01*
X100912023Y-54771300D01*
X102276200Y-54771300D01*
X102291112Y-54776145D01*
G37*
%TD.AperFunction*%
%TD*%
M02*
