%TF.GenerationSoftware,KiCad,Pcbnew,10.0.3*%
%TF.CreationDate,2026-08-29T17:36:07-04:00*%
%TF.ProjectId,pen-mixer,70656e2d-6d69-4786-9572-2e6b69636164,rev?*%
%TF.SameCoordinates,Original*%
%TF.FileFunction,Legend,Top*%
%TF.FilePolarity,Positive*%
%FSLAX46Y46*%
G04 Gerber Fmt 4.6, Leading zero omitted, Abs format (unit mm)*
G04 Created by KiCad (PCBNEW 10.0.3) date 2026-08-29 17:36:07*
%MOMM*%
%LPD*%
G01*
G04 APERTURE LIST*
%ADD10C,0.150000*%
%ADD11C,0.120000*%
%ADD12C,0.100000*%
G04 APERTURE END LIST*
D10*
X105454819Y-76961904D02*
X106264342Y-76961904D01*
X106264342Y-76961904D02*
X106359580Y-76914285D01*
X106359580Y-76914285D02*
X106407200Y-76866666D01*
X106407200Y-76866666D02*
X106454819Y-76771428D01*
X106454819Y-76771428D02*
X106454819Y-76580952D01*
X106454819Y-76580952D02*
X106407200Y-76485714D01*
X106407200Y-76485714D02*
X106359580Y-76438095D01*
X106359580Y-76438095D02*
X106264342Y-76390476D01*
X106264342Y-76390476D02*
X105454819Y-76390476D01*
X105788152Y-75485714D02*
X106454819Y-75485714D01*
X105407200Y-75723809D02*
X106121485Y-75961904D01*
X106121485Y-75961904D02*
X106121485Y-75342857D01*
X105563095Y-72089819D02*
X105563095Y-72899342D01*
X105563095Y-72899342D02*
X105610714Y-72994580D01*
X105610714Y-72994580D02*
X105658333Y-73042200D01*
X105658333Y-73042200D02*
X105753571Y-73089819D01*
X105753571Y-73089819D02*
X105944047Y-73089819D01*
X105944047Y-73089819D02*
X106039285Y-73042200D01*
X106039285Y-73042200D02*
X106086904Y-72994580D01*
X106086904Y-72994580D02*
X106134523Y-72899342D01*
X106134523Y-72899342D02*
X106134523Y-72089819D01*
X107134523Y-73089819D02*
X106563095Y-73089819D01*
X106848809Y-73089819D02*
X106848809Y-72089819D01*
X106848809Y-72089819D02*
X106753571Y-72232676D01*
X106753571Y-72232676D02*
X106658333Y-72327914D01*
X106658333Y-72327914D02*
X106563095Y-72375533D01*
%TO.C,C5*%
D11*
X108012164Y-72740000D02*
X108227836Y-72740000D01*
X108012164Y-73460000D02*
X108227836Y-73460000D01*
%TO.C,C3*%
X105640000Y-80507836D02*
X105640000Y-80292164D01*
X106360000Y-80507836D02*
X106360000Y-80292164D01*
%TO.C,R9*%
X103420000Y-89153641D02*
X103420000Y-88846359D01*
X104180000Y-89153641D02*
X104180000Y-88846359D01*
%TO.C,C9*%
X107440000Y-89107836D02*
X107440000Y-88892164D01*
X108160000Y-89107836D02*
X108160000Y-88892164D01*
%TO.C,R7*%
X103020000Y-80553641D02*
X103020000Y-80246359D01*
X103780000Y-80553641D02*
X103780000Y-80246359D01*
%TO.C,U3*%
X102290000Y-82040000D02*
X104110000Y-82040000D01*
X102290000Y-82090000D02*
X102290000Y-82040000D01*
X102290000Y-85160000D02*
X102290000Y-85110000D01*
X104110000Y-82040000D02*
X104110000Y-82090000D01*
X104110000Y-83210000D02*
X104110000Y-83990000D01*
X104110000Y-85110000D02*
X104110000Y-85160000D01*
X104110000Y-85160000D02*
X102290000Y-85160000D01*
X101750000Y-82090000D02*
X101510000Y-81760000D01*
X101990000Y-81760000D01*
X101750000Y-82090000D01*
G36*
X101750000Y-82090000D02*
G01*
X101510000Y-81760000D01*
X101990000Y-81760000D01*
X101750000Y-82090000D01*
G37*
%TO.C,R3*%
X106620000Y-83153641D02*
X106620000Y-82846359D01*
X107380000Y-83153641D02*
X107380000Y-82846359D01*
%TO.C,C8*%
X103292164Y-78240000D02*
X103507836Y-78240000D01*
X103292164Y-78960000D02*
X103507836Y-78960000D01*
%TO.C,D1*%
D12*
X102160000Y-86600000D02*
G75*
G02*
X102060000Y-86600000I-50000J0D01*
G01*
X102060000Y-86600000D02*
G75*
G02*
X102160000Y-86600000I50000J0D01*
G01*
%TO.C,R4*%
D11*
X108620000Y-85553641D02*
X108620000Y-85246359D01*
X109380000Y-85553641D02*
X109380000Y-85246359D01*
%TO.C,U4*%
X106840000Y-75290000D02*
X106890000Y-75290000D01*
X106840000Y-77110000D02*
X106840000Y-75290000D01*
X106890000Y-77110000D02*
X106840000Y-77110000D01*
X108010000Y-75290000D02*
X108790000Y-75290000D01*
X109910000Y-75290000D02*
X109960000Y-75290000D01*
X109960000Y-75290000D02*
X109960000Y-77110000D01*
X109960000Y-77110000D02*
X109910000Y-77110000D01*
X106890000Y-77650000D02*
X106560000Y-77890000D01*
X106560000Y-77410000D01*
X106890000Y-77650000D01*
G36*
X106890000Y-77650000D02*
G01*
X106560000Y-77890000D01*
X106560000Y-77410000D01*
X106890000Y-77650000D01*
G37*
%TO.C,J1*%
X100920000Y-95940000D02*
X100920000Y-97860000D01*
X100920000Y-101575000D02*
X100920000Y-99870000D01*
X110080000Y-97860000D02*
X110080000Y-95940000D01*
X110080000Y-99870000D02*
X110080000Y-101575000D01*
X110080000Y-101575000D02*
X100920000Y-101575000D01*
%TO.C,C4*%
X108040000Y-80507836D02*
X108040000Y-80292164D01*
X108760000Y-80507836D02*
X108760000Y-80292164D01*
%TO.C,R2*%
X106020000Y-91753641D02*
X106020000Y-91446359D01*
X106780000Y-91753641D02*
X106780000Y-91446359D01*
%TO.C,U2*%
X101790000Y-75140000D02*
X102465000Y-75140000D01*
X101790000Y-75315000D02*
X101790000Y-75140000D01*
X101790000Y-77860000D02*
X101790000Y-77685000D01*
X102465000Y-77860000D02*
X101790000Y-77860000D01*
X104335000Y-75140000D02*
X105010000Y-75140000D01*
X105010000Y-75140000D02*
X105010000Y-75315000D01*
X105010000Y-77685000D02*
X105010000Y-77860000D01*
X105010000Y-77860000D02*
X104335000Y-77860000D01*
X101660000Y-75750000D02*
X101330000Y-75990000D01*
X101330000Y-75510000D01*
X101660000Y-75750000D01*
G36*
X101660000Y-75750000D02*
G01*
X101330000Y-75990000D01*
X101330000Y-75510000D01*
X101660000Y-75750000D01*
G37*
%TO.C,R1*%
X104220000Y-91753641D02*
X104220000Y-91446359D01*
X104980000Y-91753641D02*
X104980000Y-91446359D01*
%TO.C,C10*%
X105440000Y-89107836D02*
X105440000Y-88892164D01*
X106160000Y-89107836D02*
X106160000Y-88892164D01*
%TO.C,R6*%
X101220000Y-80553641D02*
X101220000Y-80246359D01*
X101980000Y-80553641D02*
X101980000Y-80246359D01*
%TO.C,R5*%
X109220000Y-87653641D02*
X109220000Y-87346359D01*
X109980000Y-87653641D02*
X109980000Y-87346359D01*
%TO.C,C6*%
X108012164Y-78590000D02*
X108227836Y-78590000D01*
X108012164Y-79310000D02*
X108227836Y-79310000D01*
%TO.C,R8*%
X101420000Y-89153641D02*
X101420000Y-88846359D01*
X102180000Y-89153641D02*
X102180000Y-88846359D01*
%TO.C,C7*%
X103292164Y-73640000D02*
X103507836Y-73640000D01*
X103292164Y-74360000D02*
X103507836Y-74360000D01*
%TO.C,C2*%
X106640000Y-85507836D02*
X106640000Y-85292164D01*
X107360000Y-85507836D02*
X107360000Y-85292164D01*
%TO.C,C1*%
X108640000Y-83107836D02*
X108640000Y-82892164D01*
X109360000Y-83107836D02*
X109360000Y-82892164D01*
%TD*%
M02*
