%TF.GenerationSoftware,KiCad,Pcbnew,10.0.3*%
%TF.CreationDate,2026-08-29T19:24:50-04:00*%
%TF.ProjectId,pen-mixer,70656e2d-6d69-4786-9572-2e6b69636164,rev?*%
%TF.SameCoordinates,Original*%
%TF.FileFunction,Legend,Top*%
%TF.FilePolarity,Positive*%
%FSLAX46Y46*%
G04 Gerber Fmt 4.6, Leading zero omitted, Abs format (unit mm)*
G04 Created by KiCad (PCBNEW 10.0.3) date 2026-08-29 19:24:50*
%MOMM*%
%LPD*%
G01*
G04 APERTURE LIST*
%ADD10C,0.150000*%
%ADD11C,0.120000*%
%ADD12C,0.100000*%
G04 APERTURE END LIST*
D10*
X101200019Y-59447104D02*
X102009542Y-59447104D01*
X102009542Y-59447104D02*
X102104780Y-59399485D01*
X102104780Y-59399485D02*
X102152400Y-59351866D01*
X102152400Y-59351866D02*
X102200019Y-59256628D01*
X102200019Y-59256628D02*
X102200019Y-59066152D01*
X102200019Y-59066152D02*
X102152400Y-58970914D01*
X102152400Y-58970914D02*
X102104780Y-58923295D01*
X102104780Y-58923295D02*
X102009542Y-58875676D01*
X102009542Y-58875676D02*
X101200019Y-58875676D01*
X101533352Y-57970914D02*
X102200019Y-57970914D01*
X101152400Y-58209009D02*
X101866685Y-58447104D01*
X101866685Y-58447104D02*
X101866685Y-57828057D01*
X101308295Y-54575019D02*
X101308295Y-55384542D01*
X101308295Y-55384542D02*
X101355914Y-55479780D01*
X101355914Y-55479780D02*
X101403533Y-55527400D01*
X101403533Y-55527400D02*
X101498771Y-55575019D01*
X101498771Y-55575019D02*
X101689247Y-55575019D01*
X101689247Y-55575019D02*
X101784485Y-55527400D01*
X101784485Y-55527400D02*
X101832104Y-55479780D01*
X101832104Y-55479780D02*
X101879723Y-55384542D01*
X101879723Y-55384542D02*
X101879723Y-54575019D01*
X102879723Y-55575019D02*
X102308295Y-55575019D01*
X102594009Y-55575019D02*
X102594009Y-54575019D01*
X102594009Y-54575019D02*
X102498771Y-54717876D01*
X102498771Y-54717876D02*
X102403533Y-54813114D01*
X102403533Y-54813114D02*
X102308295Y-54860733D01*
%TO.C,C5*%
D11*
X103757364Y-55225200D02*
X103973036Y-55225200D01*
X103757364Y-55945200D02*
X103973036Y-55945200D01*
%TO.C,C3*%
X101385200Y-62993036D02*
X101385200Y-62777364D01*
X102105200Y-62993036D02*
X102105200Y-62777364D01*
%TO.C,R9*%
X99165200Y-71638841D02*
X99165200Y-71331559D01*
X99925200Y-71638841D02*
X99925200Y-71331559D01*
%TO.C,R7*%
X98765200Y-63038841D02*
X98765200Y-62731559D01*
X99525200Y-63038841D02*
X99525200Y-62731559D01*
%TO.C,U3*%
X98035200Y-64525200D02*
X99855200Y-64525200D01*
X98035200Y-64575200D02*
X98035200Y-64525200D01*
X98035200Y-67645200D02*
X98035200Y-67595200D01*
X99855200Y-64525200D02*
X99855200Y-64575200D01*
X99855200Y-65695200D02*
X99855200Y-66475200D01*
X99855200Y-67595200D02*
X99855200Y-67645200D01*
X99855200Y-67645200D02*
X98035200Y-67645200D01*
X97495200Y-64575200D02*
X97255200Y-64245200D01*
X97735200Y-64245200D01*
X97495200Y-64575200D01*
G36*
X97495200Y-64575200D02*
G01*
X97255200Y-64245200D01*
X97735200Y-64245200D01*
X97495200Y-64575200D01*
G37*
%TO.C,R3*%
X102365200Y-65638841D02*
X102365200Y-65331559D01*
X103125200Y-65638841D02*
X103125200Y-65331559D01*
%TO.C,C8*%
X99037364Y-60725200D02*
X99253036Y-60725200D01*
X99037364Y-61445200D02*
X99253036Y-61445200D01*
%TO.C,D1*%
D12*
X97905200Y-69085200D02*
G75*
G02*
X97805200Y-69085200I-50000J0D01*
G01*
X97805200Y-69085200D02*
G75*
G02*
X97905200Y-69085200I50000J0D01*
G01*
%TO.C,R4*%
D11*
X104365200Y-68038841D02*
X104365200Y-67731559D01*
X105125200Y-68038841D02*
X105125200Y-67731559D01*
%TO.C,U4*%
X102585200Y-57775200D02*
X102635200Y-57775200D01*
X102585200Y-59595200D02*
X102585200Y-57775200D01*
X102635200Y-59595200D02*
X102585200Y-59595200D01*
X103755200Y-57775200D02*
X104535200Y-57775200D01*
X105655200Y-57775200D02*
X105705200Y-57775200D01*
X105705200Y-57775200D02*
X105705200Y-59595200D01*
X105705200Y-59595200D02*
X105655200Y-59595200D01*
X102635200Y-60135200D02*
X102305200Y-60375200D01*
X102305200Y-59895200D01*
X102635200Y-60135200D01*
G36*
X102635200Y-60135200D02*
G01*
X102305200Y-60375200D01*
X102305200Y-59895200D01*
X102635200Y-60135200D01*
G37*
%TO.C,J1*%
X96665200Y-78425200D02*
X96665200Y-80345200D01*
X96665200Y-84060200D02*
X96665200Y-82355200D01*
X105825200Y-80345200D02*
X105825200Y-78425200D01*
X105825200Y-82355200D02*
X105825200Y-84060200D01*
X105825200Y-84060200D02*
X96665200Y-84060200D01*
%TO.C,C4*%
X103785200Y-62993036D02*
X103785200Y-62777364D01*
X104505200Y-62993036D02*
X104505200Y-62777364D01*
%TO.C,R2*%
X101765200Y-74238841D02*
X101765200Y-73931559D01*
X102525200Y-74238841D02*
X102525200Y-73931559D01*
%TO.C,U2*%
X97535200Y-57625200D02*
X98210200Y-57625200D01*
X97535200Y-57800200D02*
X97535200Y-57625200D01*
X97535200Y-60345200D02*
X97535200Y-60170200D01*
X98210200Y-60345200D02*
X97535200Y-60345200D01*
X100080200Y-57625200D02*
X100755200Y-57625200D01*
X100755200Y-57625200D02*
X100755200Y-57800200D01*
X100755200Y-60170200D02*
X100755200Y-60345200D01*
X100755200Y-60345200D02*
X100080200Y-60345200D01*
X97405200Y-58235200D02*
X97075200Y-58475200D01*
X97075200Y-57995200D01*
X97405200Y-58235200D01*
G36*
X97405200Y-58235200D02*
G01*
X97075200Y-58475200D01*
X97075200Y-57995200D01*
X97405200Y-58235200D01*
G37*
%TO.C,R1*%
X99965200Y-74238841D02*
X99965200Y-73931559D01*
X100725200Y-74238841D02*
X100725200Y-73931559D01*
%TO.C,C10*%
X101185200Y-71593036D02*
X101185200Y-71377364D01*
X101905200Y-71593036D02*
X101905200Y-71377364D01*
%TO.C,R6*%
X96965200Y-63038841D02*
X96965200Y-62731559D01*
X97725200Y-63038841D02*
X97725200Y-62731559D01*
%TO.C,C6*%
X103757364Y-61075200D02*
X103973036Y-61075200D01*
X103757364Y-61795200D02*
X103973036Y-61795200D01*
%TO.C,R8*%
X97165200Y-71638841D02*
X97165200Y-71331559D01*
X97925200Y-71638841D02*
X97925200Y-71331559D01*
%TO.C,C7*%
X99037364Y-56125200D02*
X99253036Y-56125200D01*
X99037364Y-56845200D02*
X99253036Y-56845200D01*
%TO.C,C2*%
X102385200Y-67993036D02*
X102385200Y-67777364D01*
X103105200Y-67993036D02*
X103105200Y-67777364D01*
%TO.C,C1*%
X104385200Y-65593036D02*
X104385200Y-65377364D01*
X105105200Y-65593036D02*
X105105200Y-65377364D01*
%TD*%
M02*
