%TF.GenerationSoftware,KiCad,Pcbnew,10.0.3*%
%TF.CreationDate,2026-08-29T19:28:22-04:00*%
%TF.ProjectId,pen-mixer,70656e2d-6d69-4786-9572-2e6b69636164,rev?*%
%TF.SameCoordinates,Original*%
%TF.FileFunction,Paste,Top*%
%TF.FilePolarity,Positive*%
%FSLAX46Y46*%
G04 Gerber Fmt 4.6, Leading zero omitted, Abs format (unit mm)*
G04 Created by KiCad (PCBNEW 10.0.3) date 2026-08-29 19:28:22*
%MOMM*%
%LPD*%
G01*
G04 APERTURE LIST*
G04 Aperture macros list*
%AMRoundRect*
0 Rectangle with rounded corners*
0 $1 Rounding radius*
0 $2 $3 $4 $5 $6 $7 $8 $9 X,Y pos of 4 corners*
0 Add a 4 corners polygon primitive as box body*
4,1,4,$2,$3,$4,$5,$6,$7,$8,$9,$2,$3,0*
0 Add four circle primitives for the rounded corners*
1,1,$1+$1,$2,$3*
1,1,$1+$1,$4,$5*
1,1,$1+$1,$6,$7*
1,1,$1+$1,$8,$9*
0 Add four rect primitives between the rounded corners*
20,1,$1+$1,$2,$3,$4,$5,0*
20,1,$1+$1,$4,$5,$6,$7,0*
20,1,$1+$1,$6,$7,$8,$9,0*
20,1,$1+$1,$8,$9,$2,$3,0*%
G04 Aperture macros list end*
%ADD10RoundRect,0.140000X-0.140000X-0.170000X0.140000X-0.170000X0.140000X0.170000X-0.140000X0.170000X0*%
%ADD11RoundRect,0.140000X0.170000X-0.140000X0.170000X0.140000X-0.170000X0.140000X-0.170000X-0.140000X0*%
%ADD12RoundRect,0.135000X0.185000X-0.135000X0.185000X0.135000X-0.185000X0.135000X-0.185000X-0.135000X0*%
%ADD13RoundRect,0.150000X-0.512500X-0.150000X0.512500X-0.150000X0.512500X0.150000X-0.512500X0.150000X0*%
%ADD14RoundRect,0.147500X-0.147500X-0.172500X0.147500X-0.172500X0.147500X0.172500X-0.147500X0.172500X0*%
%ADD15RoundRect,0.150000X0.150000X-0.512500X0.150000X0.512500X-0.150000X0.512500X-0.150000X-0.512500X0*%
%ADD16RoundRect,0.150000X-0.150000X-0.470000X0.150000X-0.470000X0.150000X0.470000X-0.150000X0.470000X0*%
%ADD17RoundRect,0.075000X-0.075000X-0.545000X0.075000X-0.545000X0.075000X0.545000X-0.075000X0.545000X0*%
%ADD18R,0.800001X0.800001*%
%ADD19R,0.399999X0.399999*%
%ADD20RoundRect,0.087500X-0.225000X-0.087500X0.225000X-0.087500X0.225000X0.087500X-0.225000X0.087500X0*%
%ADD21RoundRect,0.087500X-0.087500X-0.225000X0.087500X-0.225000X0.087500X0.225000X-0.087500X0.225000X0*%
G04 APERTURE END LIST*
D10*
%TO.C,C5*%
X103385200Y-55585200D03*
X104345200Y-55585200D03*
%TD*%
D11*
%TO.C,C3*%
X101745200Y-63365200D03*
X101745200Y-62405200D03*
%TD*%
D12*
%TO.C,R9*%
X99545200Y-71995200D03*
X99545200Y-70975200D03*
%TD*%
%TO.C,R7*%
X99145200Y-63395200D03*
X99145200Y-62375200D03*
%TD*%
D13*
%TO.C,U3*%
X97807700Y-65135200D03*
X97807700Y-66085200D03*
X97807700Y-67035200D03*
X100082700Y-67035200D03*
X100082700Y-65135200D03*
%TD*%
D12*
%TO.C,R3*%
X102745200Y-65995200D03*
X102745200Y-64975200D03*
%TD*%
D10*
%TO.C,C8*%
X98665200Y-61085200D03*
X99625200Y-61085200D03*
%TD*%
D14*
%TO.C,D1*%
X98460200Y-69085200D03*
X99430200Y-69085200D03*
%TD*%
D12*
%TO.C,R4*%
X104745200Y-68395200D03*
X104745200Y-67375200D03*
%TD*%
D15*
%TO.C,U4*%
X103195200Y-59822700D03*
X104145200Y-59822700D03*
X105095200Y-59822700D03*
X105095200Y-57547700D03*
X103195200Y-57547700D03*
%TD*%
D16*
%TO.C,J1*%
X98045200Y-76550200D03*
X98845200Y-76550200D03*
D17*
X99995200Y-76550200D03*
X100995200Y-76550200D03*
X101495200Y-76550200D03*
X102495200Y-76550200D03*
D16*
X103645200Y-76550200D03*
X104445200Y-76550200D03*
X104445200Y-76550200D03*
X103645200Y-76550200D03*
D17*
X102995200Y-76550200D03*
X101995200Y-76550200D03*
X100495200Y-76550200D03*
X99495200Y-76550200D03*
D16*
X98845200Y-76550200D03*
X98045200Y-76550200D03*
%TD*%
D11*
%TO.C,C4*%
X104145200Y-63365200D03*
X104145200Y-62405200D03*
%TD*%
D18*
%TO.C,U1*%
X104745201Y-53985201D03*
D19*
X104945198Y-53085200D03*
X104295199Y-52760200D03*
X104945198Y-52435200D03*
X104295199Y-52110200D03*
X104945198Y-51785200D03*
D18*
X104745201Y-50885200D03*
D19*
X103845200Y-50685200D03*
X103520200Y-51335200D03*
X103195200Y-50685200D03*
X102870200Y-51335200D03*
X102545200Y-50685200D03*
X102220200Y-51335200D03*
X101895200Y-50685200D03*
X101570200Y-51335200D03*
X101245200Y-50685200D03*
X100920200Y-51335200D03*
X100595200Y-50685200D03*
X100270200Y-51335200D03*
X99945200Y-50685200D03*
X99620200Y-51335200D03*
X99295200Y-50685200D03*
X98970200Y-51335200D03*
X98645200Y-50685200D03*
D18*
X97745200Y-50885200D03*
D19*
X97545200Y-51785200D03*
X98195200Y-52110200D03*
X97545200Y-52435200D03*
X98195200Y-52760200D03*
X97545200Y-53085200D03*
D18*
X97745200Y-53985201D03*
D19*
X98645200Y-54185198D03*
X98970200Y-53535199D03*
X99295200Y-54185198D03*
X99620200Y-53535199D03*
X99945200Y-54185198D03*
X100270200Y-53535199D03*
X100595200Y-54185198D03*
X100920200Y-53535199D03*
X101245200Y-54185198D03*
X101570200Y-53535199D03*
X101895200Y-54185198D03*
X102220200Y-53535199D03*
X102545200Y-54185198D03*
X102870200Y-53535199D03*
X103195200Y-54185198D03*
X103520200Y-53535199D03*
X103845200Y-54185198D03*
X98970200Y-52760200D03*
X99620200Y-52760200D03*
X100270200Y-52760200D03*
X100920200Y-52760200D03*
X101570200Y-52760200D03*
X102220200Y-52760200D03*
X102870200Y-52760200D03*
X103520200Y-52760200D03*
X98970200Y-52110200D03*
X99620200Y-52110200D03*
X100270200Y-52110200D03*
X100920200Y-52110200D03*
X101570200Y-52110200D03*
X102220200Y-52110200D03*
X102870200Y-52110200D03*
X103520200Y-52110200D03*
X104945198Y-49935200D03*
X104945198Y-48935200D03*
X104945198Y-47935200D03*
D18*
X104745201Y-46985200D03*
D19*
X103745200Y-46784700D03*
X102745200Y-46784700D03*
X101745200Y-46784700D03*
X100745200Y-46784700D03*
X99745200Y-46784700D03*
X98745200Y-46784700D03*
D18*
X97745200Y-46985200D03*
D19*
X97545200Y-47935200D03*
X97545200Y-48935200D03*
X97545200Y-49935200D03*
%TD*%
D12*
%TO.C,R2*%
X102145200Y-74595200D03*
X102145200Y-73575200D03*
%TD*%
D20*
%TO.C,U2*%
X97982700Y-58235200D03*
X97982700Y-58735200D03*
X97982700Y-59235200D03*
X97982700Y-59735200D03*
D21*
X98645200Y-59897700D03*
X99145200Y-59897700D03*
X99645200Y-59897700D03*
D20*
X100307700Y-59735200D03*
X100307700Y-59235200D03*
X100307700Y-58735200D03*
X100307700Y-58235200D03*
D21*
X99645200Y-58072700D03*
X99145200Y-58072700D03*
X98645200Y-58072700D03*
%TD*%
D12*
%TO.C,R1*%
X100345200Y-74595200D03*
X100345200Y-73575200D03*
%TD*%
D11*
%TO.C,C10*%
X101545200Y-71965200D03*
X101545200Y-71005200D03*
%TD*%
D12*
%TO.C,R6*%
X97345200Y-63395200D03*
X97345200Y-62375200D03*
%TD*%
D10*
%TO.C,C6*%
X103385200Y-61435200D03*
X104345200Y-61435200D03*
%TD*%
D12*
%TO.C,R8*%
X97545200Y-71995200D03*
X97545200Y-70975200D03*
%TD*%
D10*
%TO.C,C7*%
X98665200Y-56485200D03*
X99625200Y-56485200D03*
%TD*%
D11*
%TO.C,C2*%
X102745200Y-68365200D03*
X102745200Y-67405200D03*
%TD*%
%TO.C,C1*%
X104745200Y-65965200D03*
X104745200Y-65005200D03*
%TD*%
M02*
