M48
; DRILL file KiCad 10.0.3 date 2026-08-30T15:30:07
; FORMAT={-:-/ absolute / metric / decimal}
; #@! TF.CreationDate,2026-08-30T15:30:07-04:00
; #@! TF.GenerationSoftware,Kicad,Pcbnew,10.0.3
; #@! TF.FileFunction,MixedPlating,1,4
FMAT,2
METRIC
; #@! TA.AperFunction,Plated,PTH,ViaDrill
T1C0.200
; #@! TA.AperFunction,Plated,PTH,ComponentDrill
T2C0.600
; #@! TA.AperFunction,NonPlated,NPTH,ComponentDrill
T3C0.650
; #@! TA.AperFunction,NonPlated,NPTH,ComponentDrill
T4C0.800
%
G90
G05
T1
X96.9Y-68.285
X97.183Y-58.726
X97.971Y-52.633
X98.093Y-54.705
X98.268Y-67.879
X98.495Y-57.887
X99.252Y-67.677
X99.454Y-58.334
X99.751Y-54.708
X100.055Y-55.197
X100.147Y-62.173
X100.233Y-67.115
X100.945Y-70.392
X101.13Y-56.858
X101.188Y-62.202
X101.343Y-50.027
X101.842Y-55.231
X101.926Y-50.028
X102.172Y-68.255
X102.801Y-54.906
X102.945Y-70.402
X103.233Y-50.164
X103.965Y-50.15
X103.992Y-56.463
X104.188Y-61.203
X104.195Y-65.22
X104.304Y-70.984
X105.186Y-63.635
X105.695Y-64.736
X106.128Y-62.578
X106.262Y-54.676
X106.38Y-50.314
X106.427Y-52.252
X106.698Y-54.184
X107.045Y-58.785
X107.248Y-66.815
X107.875Y-68.377
T3
X99.305Y-70.57
X105.085Y-70.57
T4
X106.145Y-57.935
X107.945Y-57.935
T2
X97.875Y-69.5G85X97.875Y-70.6
G05
X97.875Y-73.85G85X97.875Y-74.65
G05
X106.515Y-69.5G85X106.515Y-70.6
G05
X106.515Y-73.85G85X106.515Y-74.65
G05
M30
