%TF.GenerationSoftware,KiCad,Pcbnew,10.0.3*%
%TF.CreationDate,2026-08-30T15:30:07-04:00*%
%TF.ProjectId,pen-mixer,70656e2d-6d69-4786-9572-2e6b69636164,v2*%
%TF.SameCoordinates,Original*%
%TF.FileFunction,Copper,L1,Top*%
%TF.FilePolarity,Positive*%
%FSLAX46Y46*%
G04 Gerber Fmt 4.6, Leading zero omitted, Abs format (unit mm)*
G04 Created by KiCad (PCBNEW 10.0.3) date 2026-08-30 15:30:07*
%MOMM*%
%LPD*%
G01*
G04 APERTURE LIST*
G04 Aperture macros list*
%AMRoundRect*
0 Rectangle with rounded corners*
0 $1 Rounding radius*
0 $2 $3 $4 $5 $6 $7 $8 $9 X,Y pos of 4 corners*
0 Add a 4 corners polygon primitive as box body*
4,1,4,$2,$3,$4,$5,$6,$7,$8,$9,$2,$3,0*
0 Add four circle primitives for the rounded corners*
1,1,$1+$1,$2,$3*
1,1,$1+$1,$4,$5*
1,1,$1+$1,$6,$7*
1,1,$1+$1,$8,$9*
0 Add four rect primitives between the rounded corners*
20,1,$1+$1,$2,$3,$4,$5,0*
20,1,$1+$1,$4,$5,$6,$7,0*
20,1,$1+$1,$6,$7,$8,$9,0*
20,1,$1+$1,$8,$9,$2,$3,0*%
G04 Aperture macros list end*
%TA.AperFunction,SMDPad,CuDef*%
%ADD10RoundRect,0.140000X-0.140000X-0.170000X0.140000X-0.170000X0.140000X0.170000X-0.140000X0.170000X0*%
%TD*%
%TA.AperFunction,SMDPad,CuDef*%
%ADD11RoundRect,0.140000X0.170000X-0.140000X0.170000X0.140000X-0.170000X0.140000X-0.170000X-0.140000X0*%
%TD*%
%TA.AperFunction,SMDPad,CuDef*%
%ADD12RoundRect,0.135000X0.185000X-0.135000X0.185000X0.135000X-0.185000X0.135000X-0.185000X-0.135000X0*%
%TD*%
%TA.AperFunction,SMDPad,CuDef*%
%ADD13RoundRect,0.150000X-0.512500X-0.150000X0.512500X-0.150000X0.512500X0.150000X-0.512500X0.150000X0*%
%TD*%
%TA.AperFunction,SMDPad,CuDef*%
%ADD14RoundRect,0.147500X-0.147500X-0.172500X0.147500X-0.172500X0.147500X0.172500X-0.147500X0.172500X0*%
%TD*%
%TA.AperFunction,SMDPad,CuDef*%
%ADD15R,1.100000X1.400000*%
%TD*%
%TA.AperFunction,SMDPad,CuDef*%
%ADD16RoundRect,0.150000X-0.150000X-0.470000X0.150000X-0.470000X0.150000X0.470000X-0.150000X0.470000X0*%
%TD*%
%TA.AperFunction,SMDPad,CuDef*%
%ADD17RoundRect,0.075000X-0.075000X-0.545000X0.075000X-0.545000X0.075000X0.545000X-0.075000X0.545000X0*%
%TD*%
%TA.AperFunction,ComponentPad*%
%ADD18O,1.000000X2.100000*%
%TD*%
%TA.AperFunction,ComponentPad*%
%ADD19O,1.000000X1.800000*%
%TD*%
%TA.AperFunction,SMDPad,CuDef*%
%ADD20R,0.450000X0.450000*%
%TD*%
%TA.AperFunction,SMDPad,CuDef*%
%ADD21RoundRect,0.087500X-0.225000X-0.087500X0.225000X-0.087500X0.225000X0.087500X-0.225000X0.087500X0*%
%TD*%
%TA.AperFunction,SMDPad,CuDef*%
%ADD22RoundRect,0.087500X-0.087500X-0.225000X0.087500X-0.225000X0.087500X0.225000X-0.087500X0.225000X0*%
%TD*%
%TA.AperFunction,SMDPad,CuDef*%
%ADD23R,0.800000X0.800000*%
%TD*%
%TA.AperFunction,SMDPad,CuDef*%
%ADD24R,0.400000X0.400000*%
%TD*%
%TA.AperFunction,ViaPad*%
%ADD25C,0.450000*%
%TD*%
%TA.AperFunction,Conductor*%
%ADD26C,0.150000*%
%TD*%
%TA.AperFunction,Conductor*%
%ADD27C,0.112400*%
%TD*%
G04 APERTURE END LIST*
D10*
%TO.P,C5,1*%
%TO.N,+3V3*%
X98215200Y-55835200D03*
%TO.P,C5,2*%
%TO.N,GND*%
X99175200Y-55835200D03*
%TD*%
D11*
%TO.P,C3,1*%
%TO.N,VBAT*%
X97695200Y-61665200D03*
%TO.P,C3,2*%
%TO.N,GND*%
X97695200Y-60705200D03*
%TD*%
D12*
%TO.P,R9,1*%
%TO.N,VBAT_SENSE*%
X105895200Y-66845200D03*
%TO.P,R9,2*%
%TO.N,GND*%
X105895200Y-65825200D03*
%TD*%
%TO.P,R7,1*%
%TO.N,SCL*%
X103695200Y-61695200D03*
%TO.P,R7,2*%
%TO.N,+3V3*%
X103695200Y-60675200D03*
%TD*%
D13*
%TO.P,U3,1*%
%TO.N,CHG_STAT*%
X97957700Y-63385200D03*
%TO.P,U3,2*%
%TO.N,GND*%
X97957700Y-64335200D03*
%TO.P,U3,3*%
%TO.N,VBAT*%
X97957700Y-65285200D03*
%TO.P,U3,4*%
%TO.N,VBUS*%
X100232700Y-65285200D03*
%TO.P,U3,5*%
%TO.N,IPROG*%
X100232700Y-63385200D03*
%TD*%
D10*
%TO.P,C11,1*%
%TO.N,VBAT*%
X106915200Y-67735200D03*
%TO.P,C11,2*%
%TO.N,GND*%
X107875200Y-67735200D03*
%TD*%
D12*
%TO.P,R3,1*%
%TO.N,IPROG*%
X102695200Y-64145200D03*
%TO.P,R3,2*%
%TO.N,GND*%
X102695200Y-63125200D03*
%TD*%
D10*
%TO.P,C8,1*%
%TO.N,+3V3*%
X104215200Y-55835200D03*
%TO.P,C8,2*%
%TO.N,GND*%
X105175200Y-55835200D03*
%TD*%
D14*
%TO.P,D1,1*%
%TO.N,LED_A*%
X98610200Y-67035200D03*
%TO.P,D1,2*%
%TO.N,CHG_STAT*%
X99580200Y-67035200D03*
%TD*%
D12*
%TO.P,R4,1*%
%TO.N,VBUS*%
X105695200Y-64145200D03*
%TO.P,R4,2*%
%TO.N,LED_A*%
X105695200Y-63125200D03*
%TD*%
D13*
%TO.P,U4,1*%
%TO.N,VBAT*%
X101757700Y-57485200D03*
%TO.P,U4,2*%
%TO.N,GND*%
X101757700Y-58435200D03*
%TO.P,U4,3*%
%TO.N,VBAT*%
X101757700Y-59385200D03*
%TO.P,U4,4*%
%TO.N,N/C*%
X104032700Y-59385200D03*
%TO.P,U4,5*%
%TO.N,+3V3*%
X104032700Y-57485200D03*
%TD*%
D15*
%TO.P,SW1,1*%
%TO.N,BTN*%
X106295200Y-59735200D03*
%TO.P,SW1,1&#96;*%
%TO.N,N/C*%
X106295200Y-56135200D03*
%TO.P,SW1,2*%
%TO.N,GND*%
X107795200Y-59735200D03*
%TO.P,SW1,2&#96;*%
%TO.N,N/C*%
X107795200Y-56135200D03*
%TD*%
D16*
%TO.P,J1,A1*%
%TO.N,GND*%
X98995200Y-69450200D03*
%TO.P,J1,A4*%
%TO.N,VBUS*%
X99795200Y-69450200D03*
D17*
%TO.P,J1,A5*%
%TO.N,CC1*%
X100945200Y-69450200D03*
%TO.P,J1,A6*%
%TO.N,USB_DP*%
X101945200Y-69450200D03*
%TO.P,J1,A7*%
%TO.N,USB_DM*%
X102445200Y-69450200D03*
%TO.P,J1,A8*%
%TO.N,N/C*%
X103445200Y-69450200D03*
D16*
%TO.P,J1,A9*%
%TO.N,VBUS*%
X104595200Y-69450200D03*
%TO.P,J1,A12*%
%TO.N,GND*%
X105395200Y-69450200D03*
%TO.P,J1,B1*%
X105395200Y-69450200D03*
%TO.P,J1,B4*%
%TO.N,VBUS*%
X104595200Y-69450200D03*
D17*
%TO.P,J1,B5*%
%TO.N,CC2*%
X103945200Y-69450200D03*
%TO.P,J1,B6*%
%TO.N,USB_DP*%
X102945200Y-69450200D03*
%TO.P,J1,B7*%
%TO.N,USB_DM*%
X101445200Y-69450200D03*
%TO.P,J1,B8*%
%TO.N,N/C*%
X100445200Y-69450200D03*
D16*
%TO.P,J1,B9*%
%TO.N,VBUS*%
X99795200Y-69450200D03*
%TO.P,J1,B12*%
%TO.N,GND*%
X98995200Y-69450200D03*
D18*
%TO.P,J1,SH*%
X97875200Y-70050200D03*
D19*
X97875200Y-74250200D03*
D18*
X106515200Y-70050200D03*
D19*
X106515200Y-74250200D03*
%TD*%
D11*
%TO.P,C4,1*%
%TO.N,+3V3*%
X99695200Y-61665200D03*
%TO.P,C4,2*%
%TO.N,GND*%
X99695200Y-60705200D03*
%TD*%
D12*
%TO.P,R2,1*%
%TO.N,CC2*%
X100895200Y-67695200D03*
%TO.P,R2,2*%
%TO.N,GND*%
X100895200Y-66675200D03*
%TD*%
D20*
%TO.P,LED1,1*%
%TO.N,N/C*%
X107175200Y-63015200D03*
%TO.P,LED1,2*%
%TO.N,VBAT*%
X108015200Y-63015200D03*
%TO.P,LED1,3*%
%TO.N,GND*%
X107175200Y-63855200D03*
%TO.P,LED1,4*%
%TO.N,N/C*%
X108015200Y-63855200D03*
%TD*%
D21*
%TO.P,U2,1*%
%TO.N,GND*%
X97832700Y-57385200D03*
%TO.P,U2,2*%
X97832700Y-57885200D03*
%TO.P,U2,3*%
X97832700Y-58385200D03*
%TO.P,U2,4*%
%TO.N,IMU_INT1*%
X97832700Y-58885200D03*
D22*
%TO.P,U2,5*%
%TO.N,+3V3*%
X98495200Y-59047700D03*
%TO.P,U2,6*%
%TO.N,GND*%
X98995200Y-59047700D03*
%TO.P,U2,7*%
X99495200Y-59047700D03*
D21*
%TO.P,U2,8*%
%TO.N,+3V3*%
X100157700Y-58885200D03*
%TO.P,U2,9*%
%TO.N,IMU_INT2*%
X100157700Y-58385200D03*
%TO.P,U2,10*%
%TO.N,N/C*%
X100157700Y-57885200D03*
%TO.P,U2,11*%
X100157700Y-57385200D03*
D22*
%TO.P,U2,12*%
%TO.N,+3V3*%
X99495200Y-57222700D03*
%TO.P,U2,13*%
%TO.N,SCL*%
X98995200Y-57222700D03*
%TO.P,U2,14*%
%TO.N,SDA*%
X98495200Y-57222700D03*
%TD*%
D12*
%TO.P,R1,1*%
%TO.N,CC1*%
X97095200Y-67695200D03*
%TO.P,R1,2*%
%TO.N,GND*%
X97095200Y-66675200D03*
%TD*%
D11*
%TO.P,C10,1*%
%TO.N,VBAT_SENSE*%
X102195200Y-66815200D03*
%TO.P,C10,2*%
%TO.N,GND*%
X102195200Y-65855200D03*
%TD*%
D12*
%TO.P,R6,1*%
%TO.N,SDA*%
X101695200Y-61695200D03*
%TO.P,R6,2*%
%TO.N,+3V3*%
X101695200Y-60675200D03*
%TD*%
D20*
%TO.P,LED2,1*%
%TO.N,N/C*%
X107175200Y-65415200D03*
%TO.P,LED2,2*%
%TO.N,VBAT*%
X108015200Y-65415200D03*
%TO.P,LED2,3*%
%TO.N,GND*%
X107175200Y-66255200D03*
%TO.P,LED2,4*%
%TO.N,N/C*%
X108015200Y-66255200D03*
%TD*%
D10*
%TO.P,C6,1*%
%TO.N,+3V3*%
X102215200Y-55835200D03*
%TO.P,C6,2*%
%TO.N,GND*%
X103175200Y-55835200D03*
%TD*%
D12*
%TO.P,R8,1*%
%TO.N,VBAT*%
X104195200Y-66845200D03*
%TO.P,R8,2*%
%TO.N,VBAT_SENSE*%
X104195200Y-65825200D03*
%TD*%
D23*
%TO.P,U1,1*%
%TO.N,GND*%
X105695200Y-53985200D03*
D24*
%TO.P,U1,2*%
%TO.N,IMU_INT1*%
X105895200Y-53085200D03*
%TO.P,U1,3*%
%TO.N,N/C*%
X105245200Y-52765200D03*
%TO.P,U1,4*%
%TO.N,IMU_INT2*%
X105895200Y-52435200D03*
%TO.P,U1,5*%
%TO.N,N/C*%
X105245200Y-52115200D03*
%TO.P,U1,6*%
%TO.N,SCL*%
X105895200Y-51785200D03*
D23*
%TO.P,U1,7*%
%TO.N,GND*%
X105695200Y-50885200D03*
D24*
%TO.P,U1,8*%
%TO.N,USB_DP*%
X104795200Y-50685200D03*
%TO.P,U1,9*%
%TO.N,N/C*%
X104475200Y-51335200D03*
%TO.P,U1,10*%
%TO.N,USB_DM*%
X104145200Y-50685200D03*
%TO.P,U1,11*%
%TO.N,N/C*%
X103825200Y-51335200D03*
%TO.P,U1,12*%
%TO.N,VBUS*%
X103495200Y-50685200D03*
%TO.P,U1,13*%
%TO.N,N/C*%
X103175200Y-51335200D03*
%TO.P,U1,14*%
%TO.N,GND*%
X102845200Y-50685200D03*
%TO.P,U1,15*%
%TO.N,N/C*%
X102525200Y-51335200D03*
%TO.P,U1,16*%
%TO.N,GND*%
X102195200Y-50685200D03*
%TO.P,U1,17*%
%TO.N,N/C*%
X101865200Y-51335200D03*
%TO.P,U1,18*%
%TO.N,GND*%
X101545200Y-50685200D03*
%TO.P,U1,19*%
%TO.N,N/C*%
X101215200Y-51335200D03*
%TO.P,U1,20*%
X100895200Y-50685200D03*
%TO.P,U1,21*%
%TO.N,GND*%
X100565200Y-51335200D03*
%TO.P,U1,22*%
%TO.N,N/C*%
X100245200Y-50685200D03*
%TO.P,U1,23*%
%TO.N,GND*%
X99915200Y-51335200D03*
%TO.P,U1,24*%
X99595200Y-50685200D03*
D23*
%TO.P,U1,25*%
X98695200Y-50885200D03*
D24*
%TO.P,U1,26*%
%TO.N,+3V3*%
X98495200Y-51785200D03*
%TO.P,U1,27*%
%TO.N,N/C*%
X99145200Y-52115200D03*
%TO.P,U1,28*%
%TO.N,SWDIO*%
X98495200Y-52435200D03*
%TO.P,U1,29*%
%TO.N,N/C*%
X99145200Y-52765200D03*
%TO.P,U1,30*%
%TO.N,SWDCLK*%
X98495200Y-53085200D03*
D23*
%TO.P,U1,31*%
%TO.N,GND*%
X98695200Y-53985200D03*
D24*
%TO.P,U1,32*%
%TO.N,SDA*%
X99595200Y-54185200D03*
%TO.P,U1,33*%
%TO.N,N/C*%
X99915200Y-53535200D03*
%TO.P,U1,34*%
X100245200Y-54185200D03*
%TO.P,U1,35*%
X100565200Y-53535200D03*
%TO.P,U1,36*%
%TO.N,FSR_SENSE*%
X100895200Y-54185200D03*
%TO.P,U1,37*%
%TO.N,N/C*%
X101215200Y-53535200D03*
%TO.P,U1,38*%
%TO.N,VBAT_SENSE*%
X101545200Y-54185200D03*
%TO.P,U1,39*%
%TO.N,N/C*%
X101865200Y-53535200D03*
%TO.P,U1,40*%
X102195200Y-54185200D03*
%TO.P,U1,41*%
X102525200Y-53535200D03*
%TO.P,U1,42*%
X102845200Y-54185200D03*
%TO.P,U1,43*%
X103175200Y-53535200D03*
%TO.P,U1,44*%
X103495200Y-54185200D03*
%TO.P,U1,45*%
X103825200Y-53535200D03*
%TO.P,U1,46*%
X104145200Y-54185200D03*
%TO.P,U1,47*%
X104475200Y-53535200D03*
%TO.P,U1,48*%
X104795200Y-54185200D03*
%TO.P,U1,49*%
X99915200Y-52765200D03*
%TO.P,U1,50*%
X100565200Y-52765200D03*
%TO.P,U1,51*%
X101215200Y-52765200D03*
%TO.P,U1,52*%
X101865200Y-52765200D03*
%TO.P,U1,53*%
X102525200Y-52765200D03*
%TO.P,U1,54*%
X103175200Y-52765200D03*
%TO.P,U1,55*%
X103825200Y-52765200D03*
%TO.P,U1,56*%
X104475200Y-52765200D03*
%TO.P,U1,57*%
X99915200Y-52115200D03*
%TO.P,U1,58*%
X100565200Y-52115200D03*
%TO.P,U1,59*%
X101215200Y-52115200D03*
%TO.P,U1,60*%
X101865200Y-52115200D03*
%TO.P,U1,61*%
X102525200Y-52115200D03*
%TO.P,U1,62*%
X103175200Y-52115200D03*
%TO.P,U1,63*%
X103825200Y-52115200D03*
%TO.P,U1,64*%
X104475200Y-52115200D03*
%TO.P,U1,65*%
X105895200Y-49935200D03*
%TO.P,U1,66*%
X105895200Y-48935200D03*
%TO.P,U1,67*%
X105895200Y-47935200D03*
D23*
%TO.P,U1,68*%
X105695200Y-46985200D03*
D24*
%TO.P,U1,69*%
X104695200Y-46785200D03*
%TO.P,U1,70*%
X103695200Y-46785200D03*
%TO.P,U1,71*%
X102695200Y-46785200D03*
%TO.P,U1,72*%
X101695200Y-46785200D03*
%TO.P,U1,73*%
X100695200Y-46785200D03*
%TO.P,U1,74*%
X99695200Y-46785200D03*
D23*
%TO.P,U1,75*%
X98695200Y-46985200D03*
D24*
%TO.P,U1,76*%
X98495200Y-47935200D03*
%TO.P,U1,77*%
X98495200Y-48935200D03*
%TO.P,U1,78*%
X98495200Y-49935200D03*
%TD*%
D10*
%TO.P,C7,1*%
%TO.N,+3V3*%
X100215200Y-55835200D03*
%TO.P,C7,2*%
%TO.N,GND*%
X101175200Y-55835200D03*
%TD*%
D11*
%TO.P,C2,1*%
%TO.N,VBAT*%
X104695200Y-64115200D03*
%TO.P,C2,2*%
%TO.N,GND*%
X104695200Y-63155200D03*
%TD*%
%TO.P,C1,1*%
%TO.N,VBUS*%
X104995200Y-61665200D03*
%TO.P,C1,2*%
%TO.N,GND*%
X104995200Y-60705200D03*
%TD*%
D25*
%TO.N,+3V3*%
X103992100Y-56462800D03*
%TO.N,GND*%
X107875200Y-68376900D03*
X101342700Y-50026900D03*
X101841800Y-55230700D03*
X107248100Y-66814800D03*
%TO.N,VBAT*%
X101130200Y-56857700D03*
X100147100Y-62172900D03*
X105186300Y-63635200D03*
X98268400Y-67879100D03*
X101925800Y-50027800D03*
%TO.N,VBAT_SENSE*%
X104195200Y-65219700D03*
X102800700Y-54906000D03*
%TO.N,SCL*%
X106426900Y-52251700D03*
X100055400Y-55197300D03*
X104187500Y-61202900D03*
%TO.N,VBUS*%
X107045200Y-58785200D03*
X103232800Y-50164500D03*
X104303900Y-70983600D03*
X105695200Y-64736100D03*
X100232700Y-67115400D03*
%TO.N,LED_A*%
X99252000Y-67677000D03*
X106127800Y-62578100D03*
%TO.N,CC1*%
X96899700Y-68284900D03*
X100945200Y-70391600D03*
%TO.N,USB_DP*%
X102945200Y-70402300D03*
X106379900Y-50314000D03*
%TO.N,USB_DM*%
X102171800Y-68254600D03*
X103964700Y-50149700D03*
%TO.N,IMU_INT1*%
X106261900Y-54676000D03*
X97182900Y-58725700D03*
%TO.N,IMU_INT2*%
X99453600Y-58334300D03*
X106698000Y-54183700D03*
%TO.N,SDA*%
X99751500Y-54708200D03*
X101188200Y-62202200D03*
X98495200Y-57887300D03*
%TO.N,SWDIO*%
X97971100Y-52633100D03*
%TO.N,SWDCLK*%
X98092600Y-54705100D03*
%TD*%
%TO.N,+3V3*%
D26*
X100709700Y-58531500D02*
X100709700Y-56329700D01*
X104032700Y-56462800D02*
X104032700Y-57485200D01*
X100215200Y-56502700D02*
X99679700Y-57038200D01*
X98296900Y-59246000D02*
X98495200Y-59047700D01*
X99679700Y-57038200D02*
X99495200Y-57222700D01*
X100356000Y-58885200D02*
X100709700Y-58531500D01*
X97573500Y-52340200D02*
X97573500Y-55193500D01*
D27*
X102976100Y-59332700D02*
X103259600Y-59049200D01*
X103259600Y-58919400D02*
X103620900Y-58919400D01*
D26*
X101720700Y-56329700D02*
X100709700Y-56329700D01*
X102586000Y-59784400D02*
X102586000Y-59722800D01*
X100215200Y-55835200D02*
X100215200Y-56502700D01*
X96770300Y-57280100D02*
X96770300Y-58873200D01*
D27*
X103620900Y-58919400D02*
X104032700Y-58507600D01*
D26*
X101695200Y-60675200D02*
X102586000Y-59784400D01*
X102923600Y-59903600D02*
X103695200Y-60675200D01*
X98495200Y-51785200D02*
X98128500Y-51785200D01*
X98495200Y-59047700D02*
X98495200Y-58524900D01*
D27*
X103259600Y-59049200D02*
X103259600Y-59003400D01*
D26*
X104032700Y-56358400D02*
X104032700Y-56462800D01*
X100157700Y-58885200D02*
X100356000Y-58885200D01*
X96770300Y-58873200D02*
X97143100Y-59246000D01*
X102923600Y-59722800D02*
X102923600Y-59903600D01*
X97573500Y-55193500D02*
X98215200Y-55835200D01*
X104032700Y-58507600D02*
X104032700Y-57485200D01*
X98128500Y-51785200D02*
X97573500Y-52340200D01*
X97143100Y-59246000D02*
X98296900Y-59246000D01*
X104032700Y-56462800D02*
X103992100Y-56462800D01*
X102976100Y-59332700D02*
X102923600Y-59385200D01*
X99535500Y-57484600D02*
X99535500Y-57182400D01*
X103259600Y-59003400D02*
X103259600Y-58919400D01*
D27*
X102586000Y-59722800D02*
X102923600Y-59722800D01*
D26*
X100685200Y-60675200D02*
X99695200Y-61665200D01*
X98215200Y-55835200D02*
X96770300Y-57280100D01*
X102923600Y-59385200D02*
X102923600Y-59722800D01*
X104032700Y-56017700D02*
X104032700Y-56358400D01*
X101695200Y-60675200D02*
X100685200Y-60675200D01*
X100709700Y-56329700D02*
X100215200Y-55835200D01*
X99535500Y-57182400D02*
X99679700Y-57038200D01*
X102215200Y-55835200D02*
X101720700Y-56329700D01*
X98495200Y-58524900D02*
X99535500Y-57484600D01*
X102738400Y-56358400D02*
X104032700Y-56358400D01*
X102215200Y-55835200D02*
X102738400Y-56358400D01*
X104215200Y-55835200D02*
X104032700Y-56017700D01*
%TO.N,GND*%
X99631900Y-51051900D02*
X99595200Y-51051900D01*
X103175200Y-55835200D02*
X103694600Y-55315800D01*
X98996100Y-54551900D02*
X98996100Y-55641400D01*
X97875200Y-70050200D02*
X98395200Y-70050200D01*
X106783500Y-65993500D02*
X106615200Y-65825200D01*
X105695200Y-60705200D02*
X105358300Y-60705200D01*
X102195200Y-50685200D02*
X102845200Y-50685200D01*
D27*
X99510400Y-53484800D02*
X99510400Y-51750000D01*
D26*
X105216400Y-60847100D02*
X105358300Y-60705200D01*
D27*
X105765000Y-62110900D02*
X105851400Y-62197300D01*
D26*
X97095200Y-64335200D02*
X97095200Y-61305200D01*
X101230400Y-50150000D02*
X101342700Y-50150000D01*
X99821500Y-59374000D02*
X99495200Y-59047700D01*
X107175200Y-63855200D02*
X107175200Y-64246900D01*
X106615200Y-65825200D02*
X105895200Y-65825200D01*
X105175200Y-54646500D02*
X105370000Y-54451700D01*
X102491900Y-55151900D02*
X103175200Y-55835200D01*
X97823800Y-67259500D02*
X97829900Y-67265600D01*
X101779700Y-55230700D02*
X101841800Y-55230700D01*
X105370000Y-54451700D02*
X105370000Y-53820000D01*
X99695200Y-60705200D02*
X99695200Y-59500300D01*
X98996100Y-55641400D02*
X98996100Y-55656100D01*
X98395200Y-70050200D02*
X98995200Y-69450200D01*
X107875200Y-68376900D02*
X107875200Y-67735200D01*
X101175200Y-55835200D02*
X101779700Y-55230700D01*
X103188400Y-64862000D02*
X102195200Y-65855200D01*
X97875200Y-67313100D02*
X97875200Y-70050200D01*
D27*
X97095200Y-64335200D02*
X97957700Y-64335200D01*
D26*
X107795200Y-59735200D02*
X107795200Y-59435200D01*
X98695200Y-50885200D02*
X99261900Y-50885200D01*
X97095200Y-66675200D02*
X97095200Y-64335200D01*
X106615200Y-64806900D02*
X107175200Y-64246900D01*
X99175200Y-53820000D02*
X99175200Y-54372800D01*
X97829900Y-67265600D02*
X97829900Y-67267800D01*
X97695200Y-60705200D02*
X99695200Y-60705200D01*
X97095200Y-61305200D02*
X97695200Y-60705200D01*
X106515200Y-70050200D02*
X105995200Y-70050200D01*
X99695200Y-59500300D02*
X99821500Y-59374000D01*
X105695200Y-50934800D02*
X105695200Y-50885200D01*
X105358300Y-56018300D02*
X105175200Y-55835200D01*
X97829900Y-67267800D02*
X97875200Y-67313100D01*
X106210800Y-62186300D02*
X107795200Y-60601900D01*
D27*
X97129400Y-67259500D02*
X97095200Y-67225300D01*
D26*
X98996100Y-54551900D02*
X98695200Y-54551900D01*
X102695200Y-63125200D02*
X103188400Y-63618400D01*
X99915200Y-51335200D02*
X99631900Y-51051900D01*
D27*
X99175200Y-53820000D02*
X99510400Y-53484800D01*
D26*
X98995200Y-59047700D02*
X99495200Y-59047700D01*
D27*
X102105700Y-55230700D02*
X102184500Y-55151900D01*
D26*
X107795200Y-59735200D02*
X107795200Y-60601900D01*
X105695200Y-54451700D02*
X105370000Y-54451700D01*
X105895200Y-65825200D02*
X104876500Y-64806500D01*
D27*
X101273500Y-58919400D02*
X101757700Y-58435200D01*
X97823800Y-67259500D02*
X97129400Y-67259500D01*
D26*
X107248100Y-66814800D02*
X107248100Y-66719800D01*
X104876500Y-64806500D02*
X103188400Y-64806500D01*
D27*
X104880000Y-53330000D02*
X104880000Y-51750000D01*
D26*
X106783500Y-66255200D02*
X106783500Y-65993500D01*
X100972700Y-58919400D02*
X100518100Y-59374000D01*
X100565200Y-51335200D02*
X99915200Y-51335200D01*
D27*
X101060400Y-50320000D02*
X101230400Y-50150000D01*
D26*
X104880000Y-51750000D02*
X105695200Y-50934800D01*
X105862400Y-62186300D02*
X106210800Y-62186300D01*
X107248100Y-66719800D02*
X107175200Y-66646900D01*
X100518100Y-59374000D02*
X99821500Y-59374000D01*
X103694600Y-55315800D02*
X105175200Y-55315800D01*
X100895200Y-66675200D02*
X101715200Y-65855200D01*
X104844000Y-62110900D02*
X104695200Y-62259700D01*
X98695200Y-53985200D02*
X98695200Y-54551900D01*
X107175200Y-66255200D02*
X106783500Y-66255200D01*
X105358300Y-60705200D02*
X105358300Y-56018300D01*
X105995200Y-70050200D02*
X105395200Y-69450200D01*
X97832700Y-57142000D02*
X97832700Y-57385200D01*
X101342700Y-50150000D02*
X101511200Y-50318500D01*
X98996100Y-55978600D02*
X97832700Y-57142000D01*
X104695200Y-62259700D02*
X104695200Y-63155200D01*
X102184500Y-55151900D02*
X102491900Y-55151900D01*
X104695200Y-63155200D02*
X104665200Y-63125200D01*
X99510400Y-51750000D02*
X99595200Y-51665200D01*
D27*
X101881400Y-55230700D02*
X102105700Y-55230700D01*
D26*
X97832700Y-58385200D02*
X97832700Y-57885200D01*
X99595200Y-51665200D02*
X99595200Y-51051900D01*
X106615200Y-65825200D02*
X106615200Y-64806900D01*
X105695200Y-53985200D02*
X105695200Y-54451700D01*
X99175200Y-54372800D02*
X98996100Y-54551900D01*
D27*
X100972700Y-58919400D02*
X101273500Y-58919400D01*
D26*
X101715200Y-65855200D02*
X102195200Y-65855200D01*
X107175200Y-66255200D02*
X107175200Y-66646900D01*
X101545200Y-50685200D02*
X101545200Y-50318500D01*
X99595200Y-50685200D02*
X99461900Y-50685200D01*
X98996100Y-55641400D02*
X98996100Y-55978600D01*
D27*
X99595200Y-50320000D02*
X101060400Y-50320000D01*
D26*
X103188400Y-63618400D02*
X103188400Y-64806500D01*
X99461900Y-50685200D02*
X99261900Y-50885200D01*
X105175200Y-55315800D02*
X105175200Y-55835200D01*
X103188400Y-64806500D02*
X103188400Y-64862000D01*
X104665200Y-63125200D02*
X102695200Y-63125200D01*
X105851400Y-62197300D02*
X105862400Y-62186300D01*
X102195200Y-50685200D02*
X101545200Y-50685200D01*
X98996100Y-55656100D02*
X99175200Y-55835200D01*
X101511200Y-50318500D02*
X101545200Y-50318500D01*
X101342700Y-50026900D02*
X101342700Y-50150000D01*
X99595200Y-50685200D02*
X99595200Y-51051900D01*
X99595200Y-50685200D02*
X99595200Y-50320000D01*
X101841800Y-55230700D02*
X101881400Y-55230700D01*
X97832700Y-57885200D02*
X97832700Y-57385200D01*
X97095200Y-67225300D02*
X97095200Y-66675200D01*
D27*
X105370000Y-53820000D02*
X104880000Y-53330000D01*
D26*
X105175200Y-55315800D02*
X105175200Y-54646500D01*
%TO.N,VBAT*%
X106915200Y-67735200D02*
X107639800Y-67010600D01*
X101757700Y-57485200D02*
X101971800Y-57485200D01*
X108015200Y-65415200D02*
X107655200Y-65055200D01*
X106545600Y-63463500D02*
X106373900Y-63635200D01*
D27*
X107625000Y-65055200D02*
X107625000Y-63465000D01*
D26*
X101130200Y-56857700D02*
X101757700Y-57485200D01*
X107639800Y-67010600D02*
X107639800Y-66652500D01*
X107639800Y-66652500D02*
X107623500Y-66636200D01*
X98202900Y-62172900D02*
X100147100Y-62172900D01*
X107623500Y-63463500D02*
X107623500Y-63015200D01*
D27*
X98149400Y-67245400D02*
X98071600Y-67167600D01*
D26*
X98071600Y-67167600D02*
X98071600Y-65399100D01*
X108015200Y-65415200D02*
X108015200Y-65806900D01*
D27*
X98149400Y-67353400D02*
X98149400Y-67245400D01*
D26*
X101971800Y-57485200D02*
X102590700Y-58104100D01*
X105186300Y-63635200D02*
X105175200Y-63635200D01*
X105085200Y-67735200D02*
X104195200Y-66845200D01*
X107623500Y-65904800D02*
X107721400Y-65806900D01*
X102590700Y-58104100D02*
X102590700Y-58759900D01*
X97695200Y-61665200D02*
X98202900Y-62172900D01*
X98071600Y-65399100D02*
X97957700Y-65285200D01*
X107623500Y-63463500D02*
X106545600Y-63463500D01*
X106373900Y-63635200D02*
X105186300Y-63635200D01*
X107721400Y-65806900D02*
X108015200Y-65806900D01*
X98149400Y-67760100D02*
X98268400Y-67879100D01*
X102590700Y-58759900D02*
X101965400Y-59385200D01*
X107623500Y-66636200D02*
X107623500Y-65904800D01*
X98149400Y-67353400D02*
X98149400Y-67760100D01*
X108015200Y-63015200D02*
X107623500Y-63015200D01*
X101965400Y-59385200D02*
X101757700Y-59385200D01*
X107625000Y-63465000D02*
X107623500Y-63463500D01*
X105175200Y-63635200D02*
X104695200Y-64115200D01*
X107655200Y-65055200D02*
X107625000Y-65055200D01*
X106915200Y-67735200D02*
X105085200Y-67735200D01*
%TO.N,VBAT_SENSE*%
X104195200Y-65825200D02*
X103185200Y-65825200D01*
X102800700Y-54906000D02*
X102266000Y-54906000D01*
X102266000Y-54906000D02*
X101545200Y-54185200D01*
X105215200Y-66845200D02*
X105895200Y-66845200D01*
X104195200Y-65825200D02*
X105215200Y-66845200D01*
X104195200Y-65825200D02*
X104195200Y-65219700D01*
X103185200Y-65825200D02*
X102195200Y-66815200D01*
%TO.N,SCL*%
X99695200Y-56250800D02*
X98995200Y-56950800D01*
X103695200Y-61695200D02*
X104187500Y-61202900D01*
X99695200Y-55557500D02*
X99695200Y-56250800D01*
X106261900Y-52086700D02*
X106426900Y-52251700D01*
X106261900Y-51785200D02*
X106261900Y-52086700D01*
X98995200Y-56950800D02*
X98995200Y-57222700D01*
X100055400Y-55197300D02*
X99695200Y-55557500D01*
X105895200Y-51785200D02*
X106261900Y-51785200D01*
%TO.N,CHG_STAT*%
D27*
X98441900Y-63869400D02*
X97957700Y-63385200D01*
D26*
X99533400Y-64801900D02*
X99404400Y-64672900D01*
X99404400Y-64672900D02*
X99404400Y-63869400D01*
D27*
X99404400Y-63869400D02*
X98441900Y-63869400D01*
D26*
X99580200Y-67035200D02*
X99580200Y-66417000D01*
X99580200Y-66417000D02*
X98786000Y-65622800D01*
D27*
X99533400Y-64875400D02*
X99533400Y-64801900D01*
X98786000Y-65622800D02*
X99533400Y-64875400D01*
%TO.N,VBUS*%
D26*
X107045200Y-60531000D02*
X105911000Y-61665200D01*
X104390100Y-70897400D02*
X104390100Y-69655300D01*
X99795200Y-67622700D02*
X99795200Y-69450200D01*
X100232700Y-65285200D02*
X100232700Y-67115400D01*
X103386800Y-50318500D02*
X103232800Y-50164500D01*
X105911200Y-61665200D02*
X104995200Y-61665200D01*
X105695200Y-64145200D02*
X105695200Y-64736100D01*
X100232700Y-67115400D02*
X100232700Y-67185200D01*
X107045200Y-58785200D02*
X107045200Y-60531000D01*
X100232700Y-67185200D02*
X99795200Y-67622700D01*
X104303900Y-70983600D02*
X104390100Y-70897400D01*
X104390100Y-69655300D02*
X104595200Y-69450200D01*
X103495200Y-50318500D02*
X103386800Y-50318500D01*
X103495200Y-50685200D02*
X103495200Y-50318500D01*
%TO.N,IPROG*%
X102695200Y-64145200D02*
X100992700Y-64145200D01*
X100992700Y-64145200D02*
X100232700Y-63385200D01*
%TO.N,LED_A*%
X105695200Y-63125200D02*
X105695200Y-63009100D01*
X105695200Y-63009100D02*
X106127800Y-62576500D01*
X99252000Y-67677000D02*
X98610200Y-67035200D01*
X106127800Y-62576500D02*
X106127800Y-62578100D01*
%TO.N,CC1*%
X100945200Y-70391600D02*
X100945200Y-69450200D01*
X96899700Y-68284900D02*
X96899700Y-67890700D01*
X96899700Y-67890700D02*
X97095200Y-67695200D01*
%TO.N,USB_DP*%
X102945200Y-68923000D02*
X102945200Y-69450200D01*
X102207400Y-68646400D02*
X102668600Y-68646400D01*
X104795200Y-50685200D02*
X105166400Y-50314000D01*
X101945200Y-68908600D02*
X102207400Y-68646400D01*
X101945200Y-69450200D02*
X101945200Y-68908600D01*
X105166400Y-50314000D02*
X106379900Y-50314000D01*
X102668600Y-68646400D02*
X102945200Y-68923000D01*
X102945200Y-70402300D02*
X102945200Y-69450200D01*
%TO.N,USB_DM*%
X101445200Y-69450200D02*
X101445200Y-68981200D01*
X102445200Y-69923600D02*
X102120200Y-70248600D01*
X101718800Y-70248600D02*
X101445200Y-69975000D01*
X104133500Y-50318500D02*
X104145200Y-50318500D01*
X103964700Y-50149700D02*
X104133500Y-50318500D01*
X102120200Y-70248600D02*
X101718800Y-70248600D01*
X104145200Y-50685200D02*
X104145200Y-50318500D01*
X101445200Y-68981200D02*
X102171800Y-68254600D01*
X101445200Y-69975000D02*
X101445200Y-69450200D01*
X102445200Y-69450200D02*
X102445200Y-69923600D01*
%TO.N,CC2*%
X103147600Y-68457900D02*
X102384900Y-67695200D01*
X102384900Y-67695200D02*
X100895200Y-67695200D01*
D27*
X103354400Y-68664700D02*
X103147600Y-68457900D01*
D26*
X103945200Y-69450200D02*
X103945200Y-68664700D01*
D27*
X103945200Y-68664700D02*
X103354400Y-68664700D01*
%TO.N,IMU_INT1*%
D26*
X106261900Y-53451900D02*
X106261900Y-54676000D01*
D27*
X97182900Y-58725700D02*
X97673200Y-58725700D01*
X97673200Y-58725700D02*
X97832700Y-58885200D01*
D26*
X105895200Y-53085200D02*
X106261900Y-53451900D01*
%TO.N,IMU_INT2*%
X106698000Y-53238000D02*
X106698000Y-54183700D01*
X105895200Y-52435200D02*
X106698000Y-53238000D01*
X99453600Y-58334300D02*
X100106800Y-58334300D01*
X100106800Y-58334300D02*
X100157700Y-58385200D01*
%TO.N,SDA*%
X99595200Y-54185200D02*
X99595200Y-54551900D01*
X99595200Y-54551900D02*
X99751500Y-54708200D01*
X98495200Y-57887300D02*
X98495200Y-57222700D01*
X101188200Y-62202200D02*
X101695200Y-61695200D01*
%TO.N,SWDIO*%
X98495200Y-52435200D02*
X98128500Y-52435200D01*
X97971100Y-52633100D02*
X98128500Y-52475700D01*
X98128500Y-52475700D02*
X98128500Y-52435200D01*
%TO.N,SWDCLK*%
X98495200Y-53085200D02*
X98092600Y-53487800D01*
X98092600Y-53487800D02*
X98092600Y-54705100D01*
%TD*%
%TA.AperFunction,Conductor*%
%TO.N,GND*%
G36*
X98053891Y-49704107D02*
G01*
X98089855Y-49753607D01*
X98094700Y-49784200D01*
X98094700Y-50154946D01*
X98094701Y-50154958D01*
X98106332Y-50213427D01*
X98106334Y-50213433D01*
X98136102Y-50257983D01*
X98150648Y-50279752D01*
X98216969Y-50324067D01*
X98261431Y-50332911D01*
X98275441Y-50335698D01*
X98275446Y-50335698D01*
X98275452Y-50335700D01*
X98275453Y-50335700D01*
X98714947Y-50335700D01*
X98714948Y-50335700D01*
X98773431Y-50324067D01*
X98839752Y-50279752D01*
X98884067Y-50213431D01*
X98895700Y-50154948D01*
X98895700Y-49784200D01*
X98914607Y-49726009D01*
X98964107Y-49690045D01*
X98994700Y-49685200D01*
X101460802Y-49685200D01*
X101518993Y-49704107D01*
X101554957Y-49753607D01*
X101554957Y-49814793D01*
X101546538Y-49833701D01*
X101529298Y-49863560D01*
X101529297Y-49863562D01*
X101529297Y-49863563D01*
X101518667Y-49903237D01*
X101500300Y-49971783D01*
X101500300Y-50083820D01*
X101507470Y-50110576D01*
X101504269Y-50171677D01*
X101465764Y-50219228D01*
X101411844Y-50235200D01*
X101320575Y-50235200D01*
X101247653Y-50249706D01*
X101247649Y-50249707D01*
X101210947Y-50274231D01*
X101152059Y-50290839D01*
X101136634Y-50289013D01*
X101114953Y-50284700D01*
X101114948Y-50284700D01*
X100675452Y-50284700D01*
X100675451Y-50284700D01*
X100675441Y-50284701D01*
X100616969Y-50296332D01*
X100608081Y-50300014D01*
X100547084Y-50304811D01*
X100532319Y-50300014D01*
X100523430Y-50296332D01*
X100464958Y-50284701D01*
X100464948Y-50284700D01*
X100025452Y-50284700D01*
X100025444Y-50284700D01*
X100003764Y-50289013D01*
X99943003Y-50281821D01*
X99929451Y-50274231D01*
X99892747Y-50249706D01*
X99819824Y-50235200D01*
X99745201Y-50235200D01*
X99745200Y-50235201D01*
X99745200Y-51135199D01*
X99745201Y-51135200D01*
X99819823Y-51135200D01*
X99819824Y-51135199D01*
X99892746Y-51120693D01*
X99929448Y-51096170D01*
X99936360Y-51094220D01*
X99941555Y-51089260D01*
X99964030Y-51086415D01*
X99988336Y-51079560D01*
X100002192Y-51081087D01*
X100003009Y-51081235D01*
X100025452Y-51085700D01*
X100027518Y-51085700D01*
X100033941Y-51086870D01*
X100057461Y-51099546D01*
X100081944Y-51110249D01*
X100084081Y-51113894D01*
X100087801Y-51115899D01*
X100099377Y-51139977D01*
X100112895Y-51163028D01*
X100113604Y-51169569D01*
X100114313Y-51171042D01*
X100113969Y-51172928D01*
X100115200Y-51184267D01*
X100115200Y-51185199D01*
X100115201Y-51185200D01*
X100466200Y-51185200D01*
X100481112Y-51190045D01*
X100496793Y-51190045D01*
X100509478Y-51199261D01*
X100524391Y-51204107D01*
X100533607Y-51216792D01*
X100546293Y-51226009D01*
X100551138Y-51240921D01*
X100560355Y-51253607D01*
X100565200Y-51284200D01*
X100565200Y-51386200D01*
X100546293Y-51444391D01*
X100496793Y-51480355D01*
X100466200Y-51485200D01*
X100115201Y-51485200D01*
X100115200Y-51485201D01*
X100115200Y-51559822D01*
X100115201Y-51559834D01*
X100122472Y-51596385D01*
X100115282Y-51657146D01*
X100073750Y-51702076D01*
X100025375Y-51714700D01*
X99695452Y-51714700D01*
X99695451Y-51714700D01*
X99695441Y-51714701D01*
X99636972Y-51726332D01*
X99636966Y-51726334D01*
X99585202Y-51760923D01*
X99526314Y-51777532D01*
X99475198Y-51760923D01*
X99423433Y-51726334D01*
X99423431Y-51726333D01*
X99423428Y-51726332D01*
X99423427Y-51726332D01*
X99364958Y-51714701D01*
X99364948Y-51714700D01*
X98994700Y-51714700D01*
X98936509Y-51695793D01*
X98900545Y-51646293D01*
X98895700Y-51615700D01*
X98895700Y-51565453D01*
X98895698Y-51565441D01*
X98884367Y-51508479D01*
X98884067Y-51506969D01*
X98839752Y-51440648D01*
X98839748Y-51440645D01*
X98773433Y-51396334D01*
X98773431Y-51396333D01*
X98773428Y-51396332D01*
X98773427Y-51396332D01*
X98714958Y-51384701D01*
X98714948Y-51384700D01*
X98275452Y-51384700D01*
X98275451Y-51384700D01*
X98275441Y-51384701D01*
X98216972Y-51396332D01*
X98216966Y-51396334D01*
X98150651Y-51440645D01*
X98150642Y-51440654D01*
X98132010Y-51468538D01*
X98083959Y-51506416D01*
X98076645Y-51508479D01*
X97972444Y-51551640D01*
X97972442Y-51551641D01*
X97972442Y-51551642D01*
X97417442Y-52106643D01*
X97417441Y-52106642D01*
X97339946Y-52184138D01*
X97339944Y-52184140D01*
X97339943Y-52184142D01*
X97298000Y-52285400D01*
X97298000Y-55248300D01*
X97332463Y-55331500D01*
X97339943Y-55349558D01*
X97705705Y-55715320D01*
X97709330Y-55722435D01*
X97715793Y-55727131D01*
X97722956Y-55749179D01*
X97733481Y-55769835D01*
X97734700Y-55785322D01*
X97734700Y-55885075D01*
X97715793Y-55943266D01*
X97705704Y-55955079D01*
X96614242Y-57046543D01*
X96614241Y-57046542D01*
X96536746Y-57124038D01*
X96536744Y-57124040D01*
X96536743Y-57124042D01*
X96494800Y-57225300D01*
X96494800Y-58928000D01*
X96502257Y-58946001D01*
X96517334Y-58982401D01*
X96536742Y-59029257D01*
X96909542Y-59402058D01*
X96954785Y-59447300D01*
X96987042Y-59479557D01*
X97088300Y-59521500D01*
X98237284Y-59521500D01*
X98277272Y-59529935D01*
X98340620Y-59557907D01*
X98364695Y-59560700D01*
X98625704Y-59560699D01*
X98649780Y-59557907D01*
X98649781Y-59557906D01*
X98656965Y-59555952D01*
X98657707Y-59558682D01*
X98705978Y-59553752D01*
X98726950Y-59560804D01*
X98819001Y-59603728D01*
X98818999Y-59603728D01*
X98845199Y-59607177D01*
X98845200Y-59607177D01*
X98845200Y-59412088D01*
X98853635Y-59372102D01*
X98867907Y-59339780D01*
X98870700Y-59315705D01*
X98870699Y-59146698D01*
X98875544Y-59131789D01*
X98875544Y-59116107D01*
X98884761Y-59103420D01*
X98889606Y-59088510D01*
X98902289Y-59079294D01*
X98911508Y-59066607D01*
X98926422Y-59061761D01*
X98939106Y-59052546D01*
X98969699Y-59047700D01*
X99046200Y-59047700D01*
X99104391Y-59066607D01*
X99140355Y-59116107D01*
X99145200Y-59146700D01*
X99145200Y-59607175D01*
X99171400Y-59603728D01*
X99203358Y-59588825D01*
X99264087Y-59581366D01*
X99287041Y-59588825D01*
X99318999Y-59603728D01*
X99345199Y-59607177D01*
X99345200Y-59607177D01*
X99345200Y-59146700D01*
X99350045Y-59131788D01*
X99350045Y-59116107D01*
X99359261Y-59103421D01*
X99364107Y-59088509D01*
X99376792Y-59079292D01*
X99386009Y-59066607D01*
X99400921Y-59061761D01*
X99413607Y-59052545D01*
X99444200Y-59047700D01*
X99546200Y-59047700D01*
X99604391Y-59066607D01*
X99640355Y-59116107D01*
X99645200Y-59146700D01*
X99645200Y-59607175D01*
X99671401Y-59603728D01*
X99779265Y-59553429D01*
X99863429Y-59469265D01*
X99913728Y-59361399D01*
X99915654Y-59346775D01*
X99941996Y-59291551D01*
X99995767Y-59262356D01*
X100013798Y-59260699D01*
X100425704Y-59260699D01*
X100449780Y-59257907D01*
X100548279Y-59214415D01*
X100624415Y-59138279D01*
X100667907Y-59039780D01*
X100670700Y-59015705D01*
X100670699Y-59001124D01*
X100673168Y-58993526D01*
X100671918Y-58985633D01*
X100682441Y-58964979D01*
X100689603Y-58942935D01*
X100699688Y-58931125D01*
X100792562Y-58838252D01*
X100847078Y-58810476D01*
X100907510Y-58820048D01*
X100932568Y-58838253D01*
X100969513Y-58875198D01*
X100997290Y-58929715D01*
X100987719Y-58990147D01*
X100969514Y-59015204D01*
X100956003Y-59028714D01*
X100956001Y-59028718D01*
X100904627Y-59133804D01*
X100903975Y-59138279D01*
X100894700Y-59201940D01*
X100894700Y-59568460D01*
X100899839Y-59603728D01*
X100904627Y-59636595D01*
X100956001Y-59741681D01*
X100956002Y-59741683D01*
X101038717Y-59824398D01*
X101092485Y-59850683D01*
X101143804Y-59875772D01*
X101143805Y-59875772D01*
X101143807Y-59875773D01*
X101211940Y-59885700D01*
X101856078Y-59885700D01*
X101878125Y-59892863D01*
X101901023Y-59896490D01*
X101906671Y-59902138D01*
X101914269Y-59904607D01*
X101927896Y-59923363D01*
X101944288Y-59939755D01*
X101945537Y-59947644D01*
X101950233Y-59954107D01*
X101950233Y-59977292D01*
X101953859Y-60000187D01*
X101950233Y-60007303D01*
X101950233Y-60015293D01*
X101926084Y-60054700D01*
X101805079Y-60175705D01*
X101750565Y-60203481D01*
X101735078Y-60204700D01*
X101470884Y-60204700D01*
X101454598Y-60206844D01*
X101422025Y-60211132D01*
X101422024Y-60211132D01*
X101314798Y-60261133D01*
X101231132Y-60344799D01*
X101226167Y-60351891D01*
X101224533Y-60350746D01*
X101190460Y-60387287D01*
X101142463Y-60399700D01*
X100630399Y-60399700D01*
X100558799Y-60429357D01*
X100558799Y-60429358D01*
X100529141Y-60441643D01*
X100529139Y-60441644D01*
X100417346Y-60553436D01*
X100362829Y-60581213D01*
X100302397Y-60571641D01*
X100259133Y-60528376D01*
X100249561Y-60498916D01*
X100240734Y-60443180D01*
X100240734Y-60443177D01*
X100184651Y-60333111D01*
X100184650Y-60333109D01*
X100097290Y-60245749D01*
X100097288Y-60245748D01*
X99987222Y-60189666D01*
X99987221Y-60189665D01*
X99895893Y-60175200D01*
X99845201Y-60175200D01*
X99845200Y-60175201D01*
X99845200Y-60606200D01*
X99826293Y-60664391D01*
X99776793Y-60700355D01*
X99746200Y-60705200D01*
X99695201Y-60705200D01*
X99695200Y-60705201D01*
X99695200Y-60756200D01*
X99676293Y-60814391D01*
X99626793Y-60850355D01*
X99596200Y-60855200D01*
X99135202Y-60855200D01*
X99135201Y-60855201D01*
X99135201Y-60875893D01*
X99135200Y-60875893D01*
X99149663Y-60967215D01*
X99149665Y-60967222D01*
X99205748Y-61077288D01*
X99205749Y-61077290D01*
X99278656Y-61150197D01*
X99306433Y-61204714D01*
X99296862Y-61265146D01*
X99278658Y-61290201D01*
X99241976Y-61326884D01*
X99241974Y-61326886D01*
X99191229Y-61435710D01*
X99191228Y-61435711D01*
X99191228Y-61435713D01*
X99184700Y-61485299D01*
X99184700Y-61661975D01*
X99184701Y-61798400D01*
X99165794Y-61856590D01*
X99116294Y-61892554D01*
X99085701Y-61897400D01*
X98358023Y-61897400D01*
X98350425Y-61894931D01*
X98342536Y-61896181D01*
X98321880Y-61885656D01*
X98299832Y-61878493D01*
X98288024Y-61868408D01*
X98234694Y-61815079D01*
X98206918Y-61760563D01*
X98205699Y-61745076D01*
X98205699Y-61485303D01*
X98205698Y-61485292D01*
X98199172Y-61435713D01*
X98199172Y-61435711D01*
X98148425Y-61326886D01*
X98148424Y-61326885D01*
X98148424Y-61326884D01*
X98111742Y-61290202D01*
X98083967Y-61235688D01*
X98093538Y-61175256D01*
X98111744Y-61150197D01*
X98184650Y-61077290D01*
X98184651Y-61077288D01*
X98240733Y-60967222D01*
X98240734Y-60967221D01*
X98255200Y-60875892D01*
X98255200Y-60855201D01*
X98255199Y-60855200D01*
X97135202Y-60855200D01*
X97135201Y-60855201D01*
X97135201Y-60875893D01*
X97135200Y-60875893D01*
X97149663Y-60967215D01*
X97149665Y-60967222D01*
X97205748Y-61077288D01*
X97205749Y-61077290D01*
X97278656Y-61150197D01*
X97306433Y-61204714D01*
X97296862Y-61265146D01*
X97278658Y-61290201D01*
X97241976Y-61326884D01*
X97241974Y-61326886D01*
X97191229Y-61435710D01*
X97191228Y-61435711D01*
X97184700Y-61485300D01*
X97184700Y-61845095D01*
X97184701Y-61845107D01*
X97191227Y-61894686D01*
X97191227Y-61894688D01*
X97241974Y-62003513D01*
X97241975Y-62003514D01*
X97241976Y-62003516D01*
X97326884Y-62088424D01*
X97435713Y-62139172D01*
X97485299Y-62145700D01*
X97745075Y-62145699D01*
X97803265Y-62164606D01*
X97815079Y-62174695D01*
X98046841Y-62406457D01*
X98063507Y-62413360D01*
X98148100Y-62448400D01*
X99779844Y-62448400D01*
X99838035Y-62467307D01*
X99849847Y-62477396D01*
X99885837Y-62513385D01*
X99982859Y-62569401D01*
X99982857Y-62569401D01*
X99982861Y-62569402D01*
X99982863Y-62569403D01*
X100091082Y-62598400D01*
X100091084Y-62598400D01*
X100203116Y-62598400D01*
X100203118Y-62598400D01*
X100311337Y-62569403D01*
X100311339Y-62569401D01*
X100311341Y-62569401D01*
X100357614Y-62542685D01*
X100408363Y-62513385D01*
X100487585Y-62434163D01*
X100543603Y-62337137D01*
X100572600Y-62228918D01*
X100572600Y-62116882D01*
X100543603Y-62008663D01*
X100543601Y-62008660D01*
X100543601Y-62008658D01*
X100487586Y-61911639D01*
X100487585Y-61911637D01*
X100408363Y-61832415D01*
X100389039Y-61821258D01*
X100311340Y-61776398D01*
X100311339Y-61776397D01*
X100279073Y-61767751D01*
X100227760Y-61734426D01*
X100205835Y-61677303D01*
X100205699Y-61672125D01*
X100205699Y-61585324D01*
X100224606Y-61527133D01*
X100234695Y-61515320D01*
X100770320Y-60979696D01*
X100824837Y-60951919D01*
X100840324Y-60950700D01*
X101142463Y-60950700D01*
X101148645Y-60952708D01*
X101155035Y-60951501D01*
X101177267Y-60962008D01*
X101200654Y-60969607D01*
X101205318Y-60975265D01*
X101210353Y-60977645D01*
X101224166Y-60990660D01*
X101231135Y-61005604D01*
X101314796Y-61089265D01*
X101342561Y-61102212D01*
X101354165Y-61113145D01*
X101383552Y-61166811D01*
X101375783Y-61227501D01*
X101333824Y-61272034D01*
X101328115Y-61274924D01*
X101314798Y-61281133D01*
X101231133Y-61364798D01*
X101181132Y-61472024D01*
X101181132Y-61472025D01*
X101179384Y-61485303D01*
X101175433Y-61515320D01*
X101174700Y-61520885D01*
X101174700Y-61689342D01*
X101155793Y-61747533D01*
X101106293Y-61783497D01*
X101101337Y-61784964D01*
X101058964Y-61796318D01*
X101023958Y-61805698D01*
X100926939Y-61861713D01*
X100847713Y-61940939D01*
X100791698Y-62037958D01*
X100771530Y-62113229D01*
X100762700Y-62146182D01*
X100762700Y-62258218D01*
X100783846Y-62337137D01*
X100791698Y-62366441D01*
X100839018Y-62448400D01*
X100847715Y-62463463D01*
X100926937Y-62542685D01*
X100926939Y-62542686D01*
X101023959Y-62598701D01*
X101023957Y-62598701D01*
X101023961Y-62598702D01*
X101023963Y-62598703D01*
X101132182Y-62627700D01*
X101132184Y-62627700D01*
X101244216Y-62627700D01*
X101244218Y-62627700D01*
X101352437Y-62598703D01*
X101352439Y-62598701D01*
X101352441Y-62598701D01*
X101403186Y-62569403D01*
X101449463Y-62542685D01*
X101528685Y-62463463D01*
X101584703Y-62366437D01*
X101613700Y-62258218D01*
X101613700Y-62258215D01*
X101614547Y-62251784D01*
X101617759Y-62252206D01*
X101632607Y-62206509D01*
X101682107Y-62170545D01*
X101712700Y-62165700D01*
X101919514Y-62165700D01*
X101919516Y-62165700D01*
X101968373Y-62159268D01*
X102075604Y-62109265D01*
X102159265Y-62025604D01*
X102209268Y-61918373D01*
X102215700Y-61869516D01*
X102215700Y-61520884D01*
X102209268Y-61472027D01*
X102192334Y-61435713D01*
X102159266Y-61364798D01*
X102159265Y-61364797D01*
X102159265Y-61364796D01*
X102075604Y-61281135D01*
X102062285Y-61274924D01*
X102017537Y-61233197D01*
X102005862Y-61173136D01*
X102031719Y-61117683D01*
X102062284Y-61095475D01*
X102075604Y-61089265D01*
X102159265Y-61005604D01*
X102209268Y-60898373D01*
X102215700Y-60849516D01*
X102215700Y-60585323D01*
X102234607Y-60527132D01*
X102244696Y-60515319D01*
X102625196Y-60134819D01*
X102679713Y-60107042D01*
X102740145Y-60116613D01*
X102765204Y-60134819D01*
X103145704Y-60515319D01*
X103173481Y-60569836D01*
X103174700Y-60585323D01*
X103174700Y-60849516D01*
X103176398Y-60862415D01*
X103181132Y-60898374D01*
X103181132Y-60898375D01*
X103231133Y-61005601D01*
X103231134Y-61005602D01*
X103231135Y-61005604D01*
X103314796Y-61089265D01*
X103314797Y-61089265D01*
X103314798Y-61089266D01*
X103328115Y-61095476D01*
X103372863Y-61137205D01*
X103384537Y-61197266D01*
X103358678Y-61252718D01*
X103328115Y-61274924D01*
X103314798Y-61281133D01*
X103231133Y-61364798D01*
X103181132Y-61472024D01*
X103181132Y-61472025D01*
X103179384Y-61485303D01*
X103175433Y-61515320D01*
X103174700Y-61520885D01*
X103174700Y-61869514D01*
X103181132Y-61918374D01*
X103181132Y-61918375D01*
X103231133Y-62025601D01*
X103231134Y-62025602D01*
X103231135Y-62025604D01*
X103314796Y-62109265D01*
X103314797Y-62109265D01*
X103314798Y-62109266D01*
X103422024Y-62159267D01*
X103422025Y-62159267D01*
X103422027Y-62159268D01*
X103470884Y-62165700D01*
X103470885Y-62165700D01*
X103919514Y-62165700D01*
X103919516Y-62165700D01*
X103968373Y-62159268D01*
X104075604Y-62109265D01*
X104159265Y-62025604D01*
X104209268Y-61918373D01*
X104215700Y-61869516D01*
X104215700Y-61711819D01*
X104216472Y-61709442D01*
X104215816Y-61707032D01*
X104225855Y-61680563D01*
X104234607Y-61653628D01*
X104236628Y-61652158D01*
X104237515Y-61649823D01*
X104260289Y-61634968D01*
X104284107Y-61617664D01*
X104288696Y-61616295D01*
X104288772Y-61616274D01*
X104351737Y-61599403D01*
X104352619Y-61598893D01*
X104359696Y-61596967D01*
X104384263Y-61598156D01*
X104408781Y-61596219D01*
X104414321Y-61599611D01*
X104420810Y-61599926D01*
X104439985Y-61615327D01*
X104460960Y-61628172D01*
X104463447Y-61634172D01*
X104468513Y-61638241D01*
X104474974Y-61661975D01*
X104484392Y-61684693D01*
X104484700Y-61692490D01*
X104484700Y-61845095D01*
X104484701Y-61845107D01*
X104491227Y-61894686D01*
X104491227Y-61894688D01*
X104541974Y-62003513D01*
X104541975Y-62003514D01*
X104541976Y-62003516D01*
X104626884Y-62088424D01*
X104735713Y-62139172D01*
X104785299Y-62145700D01*
X105205100Y-62145699D01*
X105254687Y-62139172D01*
X105254688Y-62139172D01*
X105318820Y-62109266D01*
X105363516Y-62088424D01*
X105448424Y-62003516D01*
X105449485Y-62001240D01*
X105451063Y-61997858D01*
X105492793Y-61953111D01*
X105540786Y-61940700D01*
X105965999Y-61940700D01*
X105966000Y-61940700D01*
X106067258Y-61898757D01*
X106144757Y-61821258D01*
X106144758Y-61821254D01*
X106151169Y-61814844D01*
X106152075Y-61813738D01*
X107251619Y-60714194D01*
X107306135Y-60686419D01*
X107321622Y-60685200D01*
X107645199Y-60685200D01*
X107645200Y-60685199D01*
X107645200Y-58785201D01*
X107645199Y-58785200D01*
X107561675Y-58785200D01*
X107503484Y-58766293D01*
X107467520Y-58716793D01*
X107466055Y-58711847D01*
X107441703Y-58620963D01*
X107441701Y-58620960D01*
X107441701Y-58620958D01*
X107385686Y-58523939D01*
X107385685Y-58523937D01*
X107306463Y-58444715D01*
X107306460Y-58444713D01*
X107209440Y-58388698D01*
X107209442Y-58388698D01*
X107143905Y-58371138D01*
X107101218Y-58359700D01*
X106989182Y-58359700D01*
X106946495Y-58371138D01*
X106880958Y-58388698D01*
X106783939Y-58444713D01*
X106704713Y-58523939D01*
X106648698Y-58620958D01*
X106632486Y-58681463D01*
X106625407Y-58707885D01*
X106619700Y-58729183D01*
X106619700Y-58735700D01*
X106600793Y-58793891D01*
X106551293Y-58829855D01*
X106520700Y-58834700D01*
X105725452Y-58834700D01*
X105725451Y-58834700D01*
X105725441Y-58834701D01*
X105666972Y-58846332D01*
X105666966Y-58846334D01*
X105600651Y-58890645D01*
X105600645Y-58890651D01*
X105556334Y-58956966D01*
X105556332Y-58956972D01*
X105544701Y-59015441D01*
X105544700Y-59015453D01*
X105544700Y-60159305D01*
X105525793Y-60217496D01*
X105476293Y-60253460D01*
X105415107Y-60253460D01*
X105400755Y-60247515D01*
X105287219Y-60189665D01*
X105195893Y-60175200D01*
X105145201Y-60175200D01*
X105145200Y-60175201D01*
X105145200Y-60555199D01*
X105145201Y-60555200D01*
X105535089Y-60555200D01*
X105593280Y-60574107D01*
X105597163Y-60577423D01*
X105600647Y-60579751D01*
X105600648Y-60579752D01*
X105666969Y-60624067D01*
X105711431Y-60632911D01*
X105725441Y-60635698D01*
X105725446Y-60635698D01*
X105725452Y-60635700D01*
X106311877Y-60635700D01*
X106370068Y-60654607D01*
X106406032Y-60704107D01*
X106406032Y-60765293D01*
X106381881Y-60804704D01*
X105825881Y-61360704D01*
X105771364Y-61388481D01*
X105755877Y-61389700D01*
X105540786Y-61389700D01*
X105482595Y-61370793D01*
X105464885Y-61354262D01*
X105456548Y-61344307D01*
X105448424Y-61326884D01*
X105408649Y-61287109D01*
X105405847Y-61283763D01*
X105395967Y-61259240D01*
X105383967Y-61235688D01*
X105384675Y-61231213D01*
X105382982Y-61227010D01*
X105389402Y-61201366D01*
X105393538Y-61175256D01*
X105397203Y-61170210D01*
X105397843Y-61167657D01*
X105400948Y-61165056D01*
X105411744Y-61150197D01*
X105484650Y-61077290D01*
X105484651Y-61077288D01*
X105540733Y-60967222D01*
X105540734Y-60967221D01*
X105555200Y-60875892D01*
X105555200Y-60855201D01*
X105555199Y-60855200D01*
X104462793Y-60855200D01*
X104413293Y-60841936D01*
X104351740Y-60806398D01*
X104351736Y-60806396D01*
X104289076Y-60789606D01*
X104237762Y-60756282D01*
X104215836Y-60699160D01*
X104215700Y-60693980D01*
X104215700Y-60534507D01*
X104435200Y-60534507D01*
X104435200Y-60555199D01*
X104435201Y-60555200D01*
X104845199Y-60555200D01*
X104845200Y-60555199D01*
X104845200Y-60175199D01*
X104794507Y-60175200D01*
X104794505Y-60175201D01*
X104703184Y-60189663D01*
X104703177Y-60189665D01*
X104593111Y-60245748D01*
X104593109Y-60245749D01*
X104505749Y-60333109D01*
X104505748Y-60333111D01*
X104449666Y-60443177D01*
X104449665Y-60443178D01*
X104435200Y-60534507D01*
X104215700Y-60534507D01*
X104215700Y-60500885D01*
X104215441Y-60498916D01*
X104209268Y-60452027D01*
X104205144Y-60443184D01*
X104159266Y-60344798D01*
X104159265Y-60344797D01*
X104159265Y-60344796D01*
X104075604Y-60261135D01*
X104075602Y-60261134D01*
X104075601Y-60261133D01*
X103968375Y-60211132D01*
X103935801Y-60206844D01*
X103919516Y-60204700D01*
X103919515Y-60204700D01*
X103655324Y-60204700D01*
X103647726Y-60202231D01*
X103639837Y-60203481D01*
X103619181Y-60192956D01*
X103597133Y-60185793D01*
X103585320Y-60175704D01*
X103464320Y-60054704D01*
X103436543Y-60000187D01*
X103446114Y-59939755D01*
X103489379Y-59896490D01*
X103534324Y-59885700D01*
X104578457Y-59885700D01*
X104578460Y-59885700D01*
X104646593Y-59875773D01*
X104751683Y-59824398D01*
X104834398Y-59741683D01*
X104885773Y-59636593D01*
X104895700Y-59568460D01*
X104895700Y-59201940D01*
X104885773Y-59133807D01*
X104884786Y-59131789D01*
X104846047Y-59052546D01*
X104834398Y-59028717D01*
X104751683Y-58946002D01*
X104745409Y-58942935D01*
X104646595Y-58894627D01*
X104619263Y-58890645D01*
X104578460Y-58884700D01*
X104578457Y-58884700D01*
X104284222Y-58884700D01*
X104226031Y-58865793D01*
X104190067Y-58816293D01*
X104190067Y-58755107D01*
X104214216Y-58715698D01*
X104266257Y-58663658D01*
X104308200Y-58562400D01*
X104308200Y-58084700D01*
X104327107Y-58026509D01*
X104376607Y-57990545D01*
X104407200Y-57985700D01*
X104578457Y-57985700D01*
X104578460Y-57985700D01*
X104646593Y-57975773D01*
X104751683Y-57924398D01*
X104819938Y-57856143D01*
X105544700Y-57856143D01*
X105544700Y-58014257D01*
X105585623Y-58166984D01*
X105664680Y-58303916D01*
X105776484Y-58415720D01*
X105913416Y-58494777D01*
X106066143Y-58535700D01*
X106066145Y-58535700D01*
X106224255Y-58535700D01*
X106224257Y-58535700D01*
X106376984Y-58494777D01*
X106513916Y-58415720D01*
X106625720Y-58303916D01*
X106704777Y-58166984D01*
X106745700Y-58014257D01*
X106745700Y-57856143D01*
X106704777Y-57703416D01*
X106625720Y-57566484D01*
X106513916Y-57454680D01*
X106376984Y-57375623D01*
X106224257Y-57334700D01*
X106066143Y-57334700D01*
X105913416Y-57375623D01*
X105776484Y-57454680D01*
X105664680Y-57566484D01*
X105585623Y-57703416D01*
X105544700Y-57856143D01*
X104819938Y-57856143D01*
X104834398Y-57841683D01*
X104885773Y-57736593D01*
X104895700Y-57668460D01*
X104895700Y-57301940D01*
X104885773Y-57233807D01*
X104881614Y-57225300D01*
X104860683Y-57182485D01*
X104834398Y-57128717D01*
X104751683Y-57046002D01*
X104730606Y-57035698D01*
X104646595Y-56994627D01*
X104619339Y-56990656D01*
X104578460Y-56984700D01*
X104578457Y-56984700D01*
X104407200Y-56984700D01*
X104392288Y-56979855D01*
X104376607Y-56979855D01*
X104363921Y-56970638D01*
X104349009Y-56965793D01*
X104339792Y-56953107D01*
X104327107Y-56943891D01*
X104322261Y-56928978D01*
X104313045Y-56916293D01*
X104308200Y-56885700D01*
X104308200Y-56789448D01*
X104327107Y-56731257D01*
X104328657Y-56729182D01*
X104332579Y-56724068D01*
X104332585Y-56724063D01*
X104388603Y-56627037D01*
X104417600Y-56518818D01*
X104417600Y-56414872D01*
X104423232Y-56397536D01*
X104424198Y-56379335D01*
X104431790Y-56371198D01*
X104436507Y-56356681D01*
X104462734Y-56331809D01*
X104468510Y-56328062D01*
X104553516Y-56288424D01*
X104597576Y-56244363D01*
X104606333Y-56238685D01*
X104626298Y-56233348D01*
X104644712Y-56223967D01*
X104655191Y-56225626D01*
X104665443Y-56222887D01*
X104684731Y-56230305D01*
X104705144Y-56233538D01*
X104718647Y-56243348D01*
X104722551Y-56244850D01*
X104724187Y-56247373D01*
X104730203Y-56251744D01*
X104803109Y-56324650D01*
X104803111Y-56324651D01*
X104913177Y-56380733D01*
X104913179Y-56380734D01*
X105004505Y-56395199D01*
X105025200Y-56395198D01*
X105025200Y-55275199D01*
X105004507Y-55275200D01*
X105004503Y-55275201D01*
X104913184Y-55289663D01*
X104913177Y-55289665D01*
X104803111Y-55345748D01*
X104803109Y-55345749D01*
X104730203Y-55418656D01*
X104675686Y-55446433D01*
X104615254Y-55436862D01*
X104590198Y-55418658D01*
X104553516Y-55381976D01*
X104553514Y-55381975D01*
X104553513Y-55381974D01*
X104444689Y-55331229D01*
X104444688Y-55331228D01*
X104428158Y-55329052D01*
X104395101Y-55324700D01*
X104395099Y-55324700D01*
X104035304Y-55324700D01*
X104035292Y-55324701D01*
X103985713Y-55331227D01*
X103985711Y-55331227D01*
X103876886Y-55381974D01*
X103876883Y-55381976D01*
X103795505Y-55463354D01*
X103740988Y-55491131D01*
X103680556Y-55481559D01*
X103637292Y-55438295D01*
X103634649Y-55433108D01*
X103547290Y-55345749D01*
X103547288Y-55345748D01*
X103437222Y-55289666D01*
X103437221Y-55289665D01*
X103345893Y-55275200D01*
X103325201Y-55275200D01*
X103325200Y-55275201D01*
X103325200Y-55736200D01*
X103320355Y-55751111D01*
X103320355Y-55766793D01*
X103311138Y-55779478D01*
X103306293Y-55794391D01*
X103293607Y-55803607D01*
X103284391Y-55816293D01*
X103269478Y-55821138D01*
X103256793Y-55830355D01*
X103226200Y-55835200D01*
X103124200Y-55835200D01*
X103066009Y-55816293D01*
X103030045Y-55766793D01*
X103025200Y-55736200D01*
X103025200Y-55323515D01*
X103044107Y-55265324D01*
X103057686Y-55251385D01*
X103057374Y-55251073D01*
X103061960Y-55246486D01*
X103061963Y-55246485D01*
X103141185Y-55167263D01*
X103182656Y-55095434D01*
X103197201Y-55070241D01*
X103197201Y-55070239D01*
X103197203Y-55070237D01*
X103226200Y-54962018D01*
X103226200Y-54849982D01*
X103197203Y-54741763D01*
X103192838Y-54734202D01*
X103180115Y-54674354D01*
X103205000Y-54618458D01*
X103257988Y-54587864D01*
X103278573Y-54585700D01*
X103714947Y-54585700D01*
X103714948Y-54585700D01*
X103773431Y-54574067D01*
X103773436Y-54574063D01*
X103782313Y-54570387D01*
X103843310Y-54565586D01*
X103858087Y-54570387D01*
X103866965Y-54574064D01*
X103866969Y-54574067D01*
X103925452Y-54585700D01*
X103925453Y-54585700D01*
X104364947Y-54585700D01*
X104364948Y-54585700D01*
X104423431Y-54574067D01*
X104423436Y-54574063D01*
X104432313Y-54570387D01*
X104493310Y-54565586D01*
X104508087Y-54570387D01*
X104516965Y-54574064D01*
X104516969Y-54574067D01*
X104575452Y-54585700D01*
X104575453Y-54585700D01*
X105014947Y-54585700D01*
X105014948Y-54585700D01*
X105039014Y-54580913D01*
X105075161Y-54573723D01*
X105135922Y-54580913D01*
X105149477Y-54588504D01*
X105197652Y-54620693D01*
X105270575Y-54635199D01*
X105270577Y-54635200D01*
X105545199Y-54635200D01*
X105545200Y-54635199D01*
X105545200Y-54084200D01*
X105550045Y-54069288D01*
X105550045Y-54053607D01*
X105559261Y-54040921D01*
X105564107Y-54026009D01*
X105576792Y-54016792D01*
X105586009Y-54004107D01*
X105600921Y-53999261D01*
X105613607Y-53990045D01*
X105644200Y-53985200D01*
X105746200Y-53985200D01*
X105804391Y-54004107D01*
X105840355Y-54053607D01*
X105845200Y-54084200D01*
X105845200Y-54574105D01*
X105841827Y-54599726D01*
X105836400Y-54619979D01*
X105836400Y-54619982D01*
X105836400Y-54732018D01*
X105861972Y-54827455D01*
X105865398Y-54840241D01*
X105920707Y-54936037D01*
X105921415Y-54937263D01*
X106000637Y-55016485D01*
X106029351Y-55033063D01*
X106058624Y-55049964D01*
X106099564Y-55095434D01*
X106105959Y-55156284D01*
X106075366Y-55209272D01*
X106019471Y-55234158D01*
X106009123Y-55234700D01*
X105725452Y-55234700D01*
X105725451Y-55234700D01*
X105725441Y-55234701D01*
X105666972Y-55246332D01*
X105666966Y-55246334D01*
X105600646Y-55290649D01*
X105596992Y-55294303D01*
X105542474Y-55322078D01*
X105482047Y-55312506D01*
X105437219Y-55289665D01*
X105345893Y-55275200D01*
X105325201Y-55275200D01*
X105325200Y-55275201D01*
X105325200Y-56395198D01*
X105325201Y-56395199D01*
X105345892Y-56395199D01*
X105430213Y-56381844D01*
X105490645Y-56391415D01*
X105533910Y-56434680D01*
X105544700Y-56479625D01*
X105544700Y-56854946D01*
X105544701Y-56854958D01*
X105556332Y-56913427D01*
X105556334Y-56913433D01*
X105594558Y-56970638D01*
X105600648Y-56979752D01*
X105666969Y-57024067D01*
X105711431Y-57032911D01*
X105725441Y-57035698D01*
X105725446Y-57035698D01*
X105725452Y-57035700D01*
X105725453Y-57035700D01*
X106864947Y-57035700D01*
X106864948Y-57035700D01*
X106923431Y-57024067D01*
X106989752Y-56979752D01*
X106989753Y-56979749D01*
X106990197Y-56979453D01*
X107049085Y-56962844D01*
X107100203Y-56979453D01*
X107100646Y-56979749D01*
X107100648Y-56979752D01*
X107166969Y-57024067D01*
X107211431Y-57032911D01*
X107225441Y-57035698D01*
X107225446Y-57035698D01*
X107225452Y-57035700D01*
X107225453Y-57035700D01*
X108345700Y-57035700D01*
X108403891Y-57054607D01*
X108439855Y-57104107D01*
X108444700Y-57134700D01*
X108444700Y-57358715D01*
X108425793Y-57416906D01*
X108376293Y-57452870D01*
X108315107Y-57452870D01*
X108296201Y-57444452D01*
X108176985Y-57375623D01*
X108113882Y-57358715D01*
X108024257Y-57334700D01*
X107866143Y-57334700D01*
X107713416Y-57375623D01*
X107576484Y-57454680D01*
X107464680Y-57566484D01*
X107385623Y-57703416D01*
X107344700Y-57856143D01*
X107344700Y-58014257D01*
X107385623Y-58166984D01*
X107464680Y-58303916D01*
X107576484Y-58415720D01*
X107713416Y-58494777D01*
X107866143Y-58535700D01*
X107866145Y-58535700D01*
X108024255Y-58535700D01*
X108024257Y-58535700D01*
X108176984Y-58494777D01*
X108296203Y-58425946D01*
X108356048Y-58413226D01*
X108411944Y-58438113D01*
X108442537Y-58491101D01*
X108444700Y-58511684D01*
X108444700Y-58686200D01*
X108425793Y-58744391D01*
X108376293Y-58780355D01*
X108345700Y-58785200D01*
X107945201Y-58785200D01*
X107945200Y-58785201D01*
X107945200Y-60685199D01*
X107945201Y-60685200D01*
X108345700Y-60685200D01*
X108403891Y-60704107D01*
X108439855Y-60753607D01*
X108444700Y-60784200D01*
X108444700Y-62505818D01*
X108425793Y-62564009D01*
X108376293Y-62599973D01*
X108326385Y-62602916D01*
X108318432Y-62601334D01*
X108318431Y-62601333D01*
X108259948Y-62589700D01*
X107770452Y-62589700D01*
X107770451Y-62589700D01*
X107770441Y-62589701D01*
X107711972Y-62601332D01*
X107711966Y-62601334D01*
X107650202Y-62642605D01*
X107591314Y-62659214D01*
X107540198Y-62642605D01*
X107478433Y-62601334D01*
X107478431Y-62601333D01*
X107478428Y-62601332D01*
X107478427Y-62601332D01*
X107419958Y-62589701D01*
X107419948Y-62589700D01*
X106930452Y-62589700D01*
X106930451Y-62589700D01*
X106930441Y-62589701D01*
X106871972Y-62601332D01*
X106871966Y-62601334D01*
X106805651Y-62645645D01*
X106805645Y-62645651D01*
X106761334Y-62711966D01*
X106761332Y-62711972D01*
X106749701Y-62770441D01*
X106749700Y-62770453D01*
X106749700Y-63089000D01*
X106730793Y-63147191D01*
X106681293Y-63183155D01*
X106650700Y-63188000D01*
X106490799Y-63188000D01*
X106419199Y-63217657D01*
X106419199Y-63217658D01*
X106389541Y-63229943D01*
X106384702Y-63234781D01*
X106364048Y-63245305D01*
X106345293Y-63258932D01*
X106337304Y-63258932D01*
X106330187Y-63262558D01*
X106307292Y-63258932D01*
X106284107Y-63258932D01*
X106277644Y-63254236D01*
X106269755Y-63252987D01*
X106253363Y-63236595D01*
X106234607Y-63222968D01*
X106232138Y-63215370D01*
X106226490Y-63209722D01*
X106215700Y-63164777D01*
X106215700Y-63071022D01*
X106234607Y-63012831D01*
X106284107Y-62976867D01*
X106289033Y-62975407D01*
X106292037Y-62974603D01*
X106389063Y-62918585D01*
X106468285Y-62839363D01*
X106524303Y-62742337D01*
X106553300Y-62634118D01*
X106553300Y-62522082D01*
X106524303Y-62413863D01*
X106524301Y-62413860D01*
X106524301Y-62413858D01*
X106468286Y-62316839D01*
X106468285Y-62316837D01*
X106389063Y-62237615D01*
X106389060Y-62237613D01*
X106292040Y-62181598D01*
X106292042Y-62181598D01*
X106228625Y-62164606D01*
X106183818Y-62152600D01*
X106071782Y-62152600D01*
X106026975Y-62164606D01*
X105963558Y-62181598D01*
X105866539Y-62237613D01*
X105787313Y-62316839D01*
X105731298Y-62413858D01*
X105722043Y-62448400D01*
X105704631Y-62513385D01*
X105702300Y-62522083D01*
X105702300Y-62555700D01*
X105683393Y-62613891D01*
X105633893Y-62649855D01*
X105603300Y-62654700D01*
X105470884Y-62654700D01*
X105454598Y-62656844D01*
X105422025Y-62661132D01*
X105422024Y-62661132D01*
X105314798Y-62711133D01*
X105283739Y-62742192D01*
X105229222Y-62769968D01*
X105168790Y-62760396D01*
X105143732Y-62742191D01*
X105097290Y-62695749D01*
X105097288Y-62695748D01*
X104987222Y-62639666D01*
X104987221Y-62639665D01*
X104895893Y-62625200D01*
X104845201Y-62625200D01*
X104845200Y-62625201D01*
X104845200Y-63056200D01*
X104826293Y-63114391D01*
X104776793Y-63150355D01*
X104746200Y-63155200D01*
X104695201Y-63155200D01*
X104695200Y-63155201D01*
X104695200Y-63206200D01*
X104676293Y-63264391D01*
X104626793Y-63300355D01*
X104596200Y-63305200D01*
X104135202Y-63305200D01*
X104135201Y-63305201D01*
X104135201Y-63325893D01*
X104135200Y-63325893D01*
X104149663Y-63417215D01*
X104149665Y-63417222D01*
X104205748Y-63527288D01*
X104205749Y-63527290D01*
X104278656Y-63600197D01*
X104306433Y-63654714D01*
X104296862Y-63715146D01*
X104278658Y-63740201D01*
X104259124Y-63759736D01*
X104241974Y-63776886D01*
X104191229Y-63885710D01*
X104191228Y-63885711D01*
X104184700Y-63935300D01*
X104184700Y-64295095D01*
X104184701Y-64295107D01*
X104191227Y-64344686D01*
X104191227Y-64344688D01*
X104241974Y-64453513D01*
X104241975Y-64453514D01*
X104241976Y-64453516D01*
X104326884Y-64538424D01*
X104435713Y-64589172D01*
X104485299Y-64595700D01*
X104905100Y-64595699D01*
X104954687Y-64589172D01*
X104954688Y-64589172D01*
X105018820Y-64559266D01*
X105063516Y-64538424D01*
X105108733Y-64493206D01*
X105122701Y-64486089D01*
X105133790Y-64475001D01*
X105149277Y-64472548D01*
X105163247Y-64465430D01*
X105178734Y-64467882D01*
X105194222Y-64465430D01*
X105208193Y-64472548D01*
X105223679Y-64475001D01*
X105248735Y-64493204D01*
X105264346Y-64508815D01*
X105292122Y-64563330D01*
X105289968Y-64604439D01*
X105269700Y-64680082D01*
X105269700Y-64792118D01*
X105288249Y-64861345D01*
X105298698Y-64900341D01*
X105350291Y-64989701D01*
X105354715Y-64997363D01*
X105433937Y-65076585D01*
X105433939Y-65076586D01*
X105530959Y-65132601D01*
X105530960Y-65132601D01*
X105530963Y-65132603D01*
X105561853Y-65140880D01*
X105613167Y-65174202D01*
X105635094Y-65231324D01*
X105619259Y-65290424D01*
X105579711Y-65325446D01*
X105483396Y-65372532D01*
X105483394Y-65372533D01*
X105392535Y-65463392D01*
X105336103Y-65578825D01*
X105325200Y-65653662D01*
X105325200Y-65675199D01*
X105325201Y-65675200D01*
X105745199Y-65675200D01*
X105745200Y-65675199D01*
X105745200Y-65305201D01*
X106045200Y-65305201D01*
X106045200Y-65675199D01*
X106045201Y-65675200D01*
X106465198Y-65675200D01*
X106465199Y-65675199D01*
X106465199Y-65653664D01*
X106465198Y-65653661D01*
X106454296Y-65578824D01*
X106397864Y-65463392D01*
X106307007Y-65372535D01*
X106191574Y-65316103D01*
X106116738Y-65305200D01*
X106045201Y-65305200D01*
X106045200Y-65305201D01*
X105745200Y-65305201D01*
X105745200Y-65296278D01*
X105726690Y-65259950D01*
X105726690Y-65259949D01*
X105726689Y-65259948D01*
X105735203Y-65206200D01*
X105736261Y-65199518D01*
X105736261Y-65199517D01*
X105736262Y-65199516D01*
X105765829Y-65169950D01*
X105779527Y-65156252D01*
X105779528Y-65156252D01*
X105779529Y-65156251D01*
X105798840Y-65148839D01*
X105859437Y-65132603D01*
X105956463Y-65076585D01*
X106035685Y-64997363D01*
X106075320Y-64928714D01*
X106091701Y-64900341D01*
X106091701Y-64900339D01*
X106091703Y-64900337D01*
X106120700Y-64792118D01*
X106120700Y-64680082D01*
X106100431Y-64604437D01*
X106103633Y-64543339D01*
X106126053Y-64508814D01*
X106159265Y-64475604D01*
X106209268Y-64368373D01*
X106215700Y-64319516D01*
X106215700Y-64009700D01*
X106217162Y-64005201D01*
X106700200Y-64005201D01*
X106700200Y-64104824D01*
X106714706Y-64177746D01*
X106714707Y-64177748D01*
X106769958Y-64260437D01*
X106769962Y-64260441D01*
X106852651Y-64315692D01*
X106852653Y-64315693D01*
X106925575Y-64330199D01*
X106925577Y-64330200D01*
X107025199Y-64330200D01*
X107025200Y-64330199D01*
X107025200Y-64005201D01*
X107025199Y-64005200D01*
X106700201Y-64005200D01*
X106700200Y-64005201D01*
X106217162Y-64005201D01*
X106234607Y-63951509D01*
X106284107Y-63915545D01*
X106314700Y-63910700D01*
X106428699Y-63910700D01*
X106428700Y-63910700D01*
X106529958Y-63868757D01*
X106607457Y-63791258D01*
X106607456Y-63791258D01*
X106630719Y-63767995D01*
X106685235Y-63740219D01*
X106700722Y-63739000D01*
X107076200Y-63739000D01*
X107134391Y-63757907D01*
X107136828Y-63759736D01*
X107286828Y-63875936D01*
X107303217Y-63900018D01*
X107320355Y-63923607D01*
X107320684Y-63925685D01*
X107321252Y-63926520D01*
X107321181Y-63928822D01*
X107325200Y-63954200D01*
X107325200Y-64330199D01*
X107339304Y-64344303D01*
X107367081Y-64398820D01*
X107368300Y-64414307D01*
X107368300Y-64890700D01*
X107349393Y-64948891D01*
X107299893Y-64984855D01*
X107269300Y-64989700D01*
X106930452Y-64989700D01*
X106930451Y-64989700D01*
X106930441Y-64989701D01*
X106871972Y-65001332D01*
X106871966Y-65001334D01*
X106805651Y-65045645D01*
X106805645Y-65045651D01*
X106761334Y-65111966D01*
X106761332Y-65111972D01*
X106749701Y-65170441D01*
X106749700Y-65170453D01*
X106749700Y-65659946D01*
X106749701Y-65659958D01*
X106761332Y-65718427D01*
X106761335Y-65718436D01*
X106772838Y-65735651D01*
X106789446Y-65794539D01*
X106772838Y-65845652D01*
X106714706Y-65932652D01*
X106714706Y-65932653D01*
X106700200Y-66005575D01*
X106700200Y-66105199D01*
X106700201Y-66105200D01*
X107076200Y-66105200D01*
X107134391Y-66124107D01*
X107170355Y-66173607D01*
X107175200Y-66204200D01*
X107175200Y-66255199D01*
X107175201Y-66255200D01*
X107226200Y-66255200D01*
X107284391Y-66274107D01*
X107320355Y-66323607D01*
X107325200Y-66354200D01*
X107325200Y-66730199D01*
X107335304Y-66740303D01*
X107338930Y-66747420D01*
X107345393Y-66752116D01*
X107352556Y-66774164D01*
X107363081Y-66794820D01*
X107364300Y-66810307D01*
X107364300Y-66855476D01*
X107345393Y-66913667D01*
X107335303Y-66925480D01*
X107065078Y-67195704D01*
X107010562Y-67223481D01*
X106995075Y-67224700D01*
X106735304Y-67224700D01*
X106735292Y-67224701D01*
X106685713Y-67231227D01*
X106685711Y-67231227D01*
X106576886Y-67281974D01*
X106491974Y-67366886D01*
X106475349Y-67402540D01*
X106458414Y-67420700D01*
X106443816Y-67440793D01*
X106437878Y-67442722D01*
X106433621Y-67447288D01*
X106385625Y-67459700D01*
X106292330Y-67459700D01*
X106234139Y-67440793D01*
X106198175Y-67391293D01*
X106198175Y-67330107D01*
X106234139Y-67280607D01*
X106250491Y-67270976D01*
X106273084Y-67260440D01*
X106275604Y-67259265D01*
X106359265Y-67175604D01*
X106409268Y-67068373D01*
X106415700Y-67019516D01*
X106415700Y-66670884D01*
X106409268Y-66622027D01*
X106402164Y-66606793D01*
X106359266Y-66514798D01*
X106359265Y-66514797D01*
X106359265Y-66514796D01*
X106281015Y-66436546D01*
X106280625Y-66435779D01*
X106279864Y-66435376D01*
X106266773Y-66408593D01*
X106265045Y-66405201D01*
X106700200Y-66405201D01*
X106700200Y-66504824D01*
X106714706Y-66577746D01*
X106714707Y-66577748D01*
X106769958Y-66660437D01*
X106769962Y-66660441D01*
X106852651Y-66715692D01*
X106852653Y-66715693D01*
X106925575Y-66730199D01*
X106925577Y-66730200D01*
X107025199Y-66730200D01*
X107025200Y-66730199D01*
X107025200Y-66405201D01*
X107025199Y-66405200D01*
X106700201Y-66405200D01*
X106700200Y-66405201D01*
X106265045Y-66405201D01*
X106253240Y-66382032D01*
X106253374Y-66381180D01*
X106252996Y-66380406D01*
X106258147Y-66351046D01*
X106262811Y-66321600D01*
X106263421Y-66320989D01*
X106263570Y-66320141D01*
X106284992Y-66299418D01*
X106290550Y-66293860D01*
X106297642Y-66284100D01*
X106301658Y-66281684D01*
X106305393Y-66279017D01*
X106306076Y-66278335D01*
X106306983Y-66277882D01*
X106307005Y-66277866D01*
X106397864Y-66187007D01*
X106454296Y-66071574D01*
X106465200Y-65996737D01*
X106465200Y-65975201D01*
X106465199Y-65975200D01*
X105325202Y-65975200D01*
X105325201Y-65975201D01*
X105325201Y-65996738D01*
X105336103Y-66071575D01*
X105392535Y-66187007D01*
X105483394Y-66277866D01*
X105483724Y-66278101D01*
X105483921Y-66278132D01*
X105484319Y-66278526D01*
X105490069Y-66282632D01*
X105489403Y-66283564D01*
X105505237Y-66299255D01*
X105526833Y-66320148D01*
X105526940Y-66320761D01*
X105527382Y-66321199D01*
X105532212Y-66350823D01*
X105537402Y-66380414D01*
X105537128Y-66380972D01*
X105537229Y-66381587D01*
X105525819Y-66404105D01*
X105510529Y-66435382D01*
X105509699Y-66436229D01*
X105509382Y-66436549D01*
X105431135Y-66514796D01*
X105430505Y-66516146D01*
X105423488Y-66523228D01*
X105403419Y-66533568D01*
X105385385Y-66547155D01*
X105376764Y-66547304D01*
X105369099Y-66551254D01*
X105346782Y-66547823D01*
X105324209Y-66548214D01*
X105315575Y-66543025D01*
X105308624Y-66541957D01*
X105300653Y-66534058D01*
X105283163Y-66523548D01*
X104744696Y-65985081D01*
X104716919Y-65930564D01*
X104715700Y-65915077D01*
X104715700Y-65650885D01*
X104715441Y-65648916D01*
X104709268Y-65602027D01*
X104705141Y-65593177D01*
X104659266Y-65494798D01*
X104659264Y-65494795D01*
X104622969Y-65458499D01*
X104595192Y-65403982D01*
X104597345Y-65362877D01*
X104620700Y-65275718D01*
X104620700Y-65163682D01*
X104591703Y-65055463D01*
X104591701Y-65055460D01*
X104591701Y-65055458D01*
X104535686Y-64958439D01*
X104535685Y-64958437D01*
X104456463Y-64879215D01*
X104434551Y-64866564D01*
X104359440Y-64823198D01*
X104359442Y-64823198D01*
X104317451Y-64811947D01*
X104251218Y-64794200D01*
X104139182Y-64794200D01*
X104072948Y-64811947D01*
X104030958Y-64823198D01*
X103933939Y-64879213D01*
X103854713Y-64958439D01*
X103798698Y-65055458D01*
X103786986Y-65099169D01*
X103769700Y-65163682D01*
X103769700Y-65275718D01*
X103775209Y-65296278D01*
X103793053Y-65362874D01*
X103792123Y-65380598D01*
X103795976Y-65397922D01*
X103790619Y-65409288D01*
X103789850Y-65423975D01*
X103771614Y-65454048D01*
X103769575Y-65456354D01*
X103731135Y-65494796D01*
X103726135Y-65505518D01*
X103716651Y-65516252D01*
X103702034Y-65524874D01*
X103690460Y-65537287D01*
X103673603Y-65541646D01*
X103663952Y-65547340D01*
X103654926Y-65546476D01*
X103642463Y-65549700D01*
X103130400Y-65549700D01*
X103078353Y-65571259D01*
X103078352Y-65571259D01*
X103029141Y-65591642D01*
X102917346Y-65703436D01*
X102862829Y-65731213D01*
X102802397Y-65721641D01*
X102759133Y-65678376D01*
X102749561Y-65648916D01*
X102740734Y-65593180D01*
X102740734Y-65593177D01*
X102684651Y-65483111D01*
X102684650Y-65483109D01*
X102597290Y-65395749D01*
X102597288Y-65395748D01*
X102487222Y-65339666D01*
X102487221Y-65339665D01*
X102395893Y-65325200D01*
X102345201Y-65325200D01*
X102345200Y-65325201D01*
X102345200Y-65756200D01*
X102326293Y-65814391D01*
X102276793Y-65850355D01*
X102246200Y-65855200D01*
X102195201Y-65855200D01*
X102195200Y-65855201D01*
X102195200Y-65906200D01*
X102176293Y-65964391D01*
X102126793Y-66000355D01*
X102096200Y-66005200D01*
X101635202Y-66005200D01*
X101635201Y-66005201D01*
X101635201Y-66025893D01*
X101635200Y-66025893D01*
X101649663Y-66117215D01*
X101649665Y-66117222D01*
X101705748Y-66227288D01*
X101705749Y-66227290D01*
X101778656Y-66300197D01*
X101806433Y-66354714D01*
X101796862Y-66415146D01*
X101778658Y-66440201D01*
X101760058Y-66458802D01*
X101741974Y-66476886D01*
X101691229Y-66585710D01*
X101691228Y-66585711D01*
X101684700Y-66635300D01*
X101684700Y-66995095D01*
X101684701Y-66995107D01*
X101691227Y-67044686D01*
X101691227Y-67044688D01*
X101741974Y-67153513D01*
X101741975Y-67153514D01*
X101741976Y-67153516D01*
X101826884Y-67238424D01*
X101826885Y-67238424D01*
X101826888Y-67238427D01*
X101828570Y-67239605D01*
X101830111Y-67241650D01*
X101833009Y-67244548D01*
X101832601Y-67244955D01*
X101865392Y-67288470D01*
X101866459Y-67349646D01*
X101831364Y-67399766D01*
X101773511Y-67419685D01*
X101771785Y-67419700D01*
X101447937Y-67419700D01*
X101389746Y-67400793D01*
X101375460Y-67388140D01*
X101364816Y-67376701D01*
X101359265Y-67364796D01*
X101279748Y-67285279D01*
X101278544Y-67283985D01*
X101266360Y-67257782D01*
X101253240Y-67232032D01*
X101253531Y-67230192D01*
X101252746Y-67228504D01*
X101258289Y-67200151D01*
X101262811Y-67171600D01*
X101264128Y-67170282D01*
X101264486Y-67168455D01*
X101285637Y-67148773D01*
X101300934Y-67133476D01*
X101300331Y-67132632D01*
X101305393Y-67129017D01*
X101306076Y-67128335D01*
X101306983Y-67127882D01*
X101307005Y-67127866D01*
X101397864Y-67037007D01*
X101454296Y-66921574D01*
X101465200Y-66846737D01*
X101465200Y-66825201D01*
X101465199Y-66825200D01*
X100994200Y-66825200D01*
X100936009Y-66806293D01*
X100900045Y-66756793D01*
X100895200Y-66726200D01*
X100895200Y-66675201D01*
X100895199Y-66675200D01*
X100844200Y-66675200D01*
X100786009Y-66656293D01*
X100750045Y-66606793D01*
X100745200Y-66576200D01*
X100745200Y-66155201D01*
X101045200Y-66155201D01*
X101045200Y-66525199D01*
X101045201Y-66525200D01*
X101465198Y-66525200D01*
X101465199Y-66525199D01*
X101465199Y-66503664D01*
X101465198Y-66503661D01*
X101454296Y-66428824D01*
X101397864Y-66313392D01*
X101307007Y-66222535D01*
X101191574Y-66166103D01*
X101116738Y-66155200D01*
X101045201Y-66155200D01*
X101045200Y-66155201D01*
X100745200Y-66155201D01*
X100745200Y-66155199D01*
X100673664Y-66155200D01*
X100673660Y-66155201D01*
X100621472Y-66162804D01*
X100599203Y-66158993D01*
X100576607Y-66158993D01*
X100569644Y-66153934D01*
X100561163Y-66152483D01*
X100545387Y-66136310D01*
X100527107Y-66123029D01*
X100524447Y-66114843D01*
X100518439Y-66108684D01*
X100508200Y-66064838D01*
X100508200Y-65884700D01*
X100527107Y-65826509D01*
X100576607Y-65790545D01*
X100607200Y-65785700D01*
X100778457Y-65785700D01*
X100778460Y-65785700D01*
X100846593Y-65775773D01*
X100951683Y-65724398D01*
X100991574Y-65684507D01*
X101635200Y-65684507D01*
X101635200Y-65705199D01*
X101635201Y-65705200D01*
X102045199Y-65705200D01*
X102045200Y-65705199D01*
X102045200Y-65325199D01*
X101994507Y-65325200D01*
X101994505Y-65325201D01*
X101903184Y-65339663D01*
X101903177Y-65339665D01*
X101793111Y-65395748D01*
X101793109Y-65395749D01*
X101705749Y-65483109D01*
X101705748Y-65483111D01*
X101649666Y-65593177D01*
X101649665Y-65593178D01*
X101635200Y-65684507D01*
X100991574Y-65684507D01*
X101034398Y-65641683D01*
X101085773Y-65536593D01*
X101095700Y-65468460D01*
X101095700Y-65101940D01*
X101085773Y-65033807D01*
X101070671Y-65002916D01*
X101058469Y-64977956D01*
X101034398Y-64928717D01*
X100951683Y-64846002D01*
X100927237Y-64834051D01*
X100846595Y-64794627D01*
X100819339Y-64790656D01*
X100778460Y-64784700D01*
X100778457Y-64784700D01*
X99890625Y-64784700D01*
X99832434Y-64765793D01*
X99799161Y-64723586D01*
X99766958Y-64645842D01*
X99708896Y-64587779D01*
X99681119Y-64533262D01*
X99679900Y-64517776D01*
X99679900Y-63984700D01*
X99698807Y-63926509D01*
X99748307Y-63890545D01*
X99778900Y-63885700D01*
X100302577Y-63885700D01*
X100360768Y-63904607D01*
X100372580Y-63914695D01*
X100836641Y-64378757D01*
X100865470Y-64390698D01*
X100865471Y-64390699D01*
X100865472Y-64390699D01*
X100937900Y-64420700D01*
X102142463Y-64420700D01*
X102200654Y-64439607D01*
X102225096Y-64469258D01*
X102226167Y-64468509D01*
X102231132Y-64475600D01*
X102231134Y-64475602D01*
X102231135Y-64475604D01*
X102314796Y-64559265D01*
X102314797Y-64559265D01*
X102314798Y-64559266D01*
X102422024Y-64609267D01*
X102422025Y-64609267D01*
X102422027Y-64609268D01*
X102470884Y-64615700D01*
X102470885Y-64615700D01*
X102919514Y-64615700D01*
X102919516Y-64615700D01*
X102968373Y-64609268D01*
X103075604Y-64559265D01*
X103159265Y-64475604D01*
X103209268Y-64368373D01*
X103215700Y-64319516D01*
X103215700Y-63970884D01*
X103209268Y-63922027D01*
X103206245Y-63915545D01*
X103159266Y-63814798D01*
X103159265Y-63814797D01*
X103159265Y-63814796D01*
X103081015Y-63736546D01*
X103053240Y-63682032D01*
X103062811Y-63621600D01*
X103100934Y-63583476D01*
X103100331Y-63582632D01*
X103105393Y-63579017D01*
X103106076Y-63578335D01*
X103106983Y-63577882D01*
X103107005Y-63577866D01*
X103197864Y-63487007D01*
X103254296Y-63371574D01*
X103265200Y-63296737D01*
X103265200Y-63275201D01*
X103265199Y-63275200D01*
X102125202Y-63275200D01*
X102125201Y-63275201D01*
X102125201Y-63296738D01*
X102136103Y-63371575D01*
X102192535Y-63487007D01*
X102283394Y-63577866D01*
X102290069Y-63582632D01*
X102289246Y-63583784D01*
X102304185Y-63598237D01*
X102325913Y-63618455D01*
X102326106Y-63619445D01*
X102326833Y-63620148D01*
X102331962Y-63649396D01*
X102337653Y-63678503D01*
X102337222Y-63679387D01*
X102337402Y-63680414D01*
X102311855Y-63733984D01*
X102310623Y-63735307D01*
X102231135Y-63814796D01*
X102225584Y-63826699D01*
X102214940Y-63838139D01*
X102201189Y-63845780D01*
X102190460Y-63857287D01*
X102171803Y-63862111D01*
X102161459Y-63867861D01*
X102153376Y-63866877D01*
X102142463Y-63869700D01*
X101147824Y-63869700D01*
X101089633Y-63850793D01*
X101077820Y-63840704D01*
X101066123Y-63829007D01*
X101038346Y-63774490D01*
X101047187Y-63715522D01*
X101064852Y-63679387D01*
X101085773Y-63636593D01*
X101095700Y-63568460D01*
X101095700Y-63201940D01*
X101085773Y-63133807D01*
X101034398Y-63028717D01*
X100990188Y-62984507D01*
X104135200Y-62984507D01*
X104135200Y-63005199D01*
X104135201Y-63005200D01*
X104545199Y-63005200D01*
X104545200Y-63005199D01*
X104545200Y-62625199D01*
X104494507Y-62625200D01*
X104494505Y-62625201D01*
X104403184Y-62639663D01*
X104403177Y-62639665D01*
X104293111Y-62695748D01*
X104293109Y-62695749D01*
X104205749Y-62783109D01*
X104205748Y-62783111D01*
X104149666Y-62893177D01*
X104149665Y-62893178D01*
X104135200Y-62984507D01*
X100990188Y-62984507D01*
X100959343Y-62953662D01*
X102125200Y-62953662D01*
X102125200Y-62975199D01*
X102125201Y-62975200D01*
X102545199Y-62975200D01*
X102545200Y-62975199D01*
X102545200Y-62605201D01*
X102845200Y-62605201D01*
X102845200Y-62975199D01*
X102845201Y-62975200D01*
X103265198Y-62975200D01*
X103265199Y-62975199D01*
X103265199Y-62953664D01*
X103265198Y-62953661D01*
X103254296Y-62878824D01*
X103197864Y-62763392D01*
X103107007Y-62672535D01*
X102991574Y-62616103D01*
X102916738Y-62605200D01*
X102845201Y-62605200D01*
X102845200Y-62605201D01*
X102545200Y-62605201D01*
X102545200Y-62605199D01*
X102473664Y-62605200D01*
X102473660Y-62605201D01*
X102398824Y-62616103D01*
X102283392Y-62672535D01*
X102192535Y-62763392D01*
X102136103Y-62878825D01*
X102125200Y-62953662D01*
X100959343Y-62953662D01*
X100951683Y-62946002D01*
X100951681Y-62946001D01*
X100846595Y-62894627D01*
X100819339Y-62890656D01*
X100778460Y-62884700D01*
X99686940Y-62884700D01*
X99652873Y-62889663D01*
X99618804Y-62894627D01*
X99513718Y-62946001D01*
X99431001Y-63028718D01*
X99379627Y-63133804D01*
X99369700Y-63201943D01*
X99369700Y-63513700D01*
X99350793Y-63571891D01*
X99301293Y-63607855D01*
X99270700Y-63612700D01*
X98919700Y-63612700D01*
X98861509Y-63593793D01*
X98825545Y-63544293D01*
X98820700Y-63513700D01*
X98820700Y-63201943D01*
X98820700Y-63201940D01*
X98810773Y-63133807D01*
X98759398Y-63028717D01*
X98676683Y-62946002D01*
X98676681Y-62946001D01*
X98571595Y-62894627D01*
X98544339Y-62890656D01*
X98503460Y-62884700D01*
X97411940Y-62884700D01*
X97377873Y-62889663D01*
X97343804Y-62894627D01*
X97238718Y-62946001D01*
X97156001Y-63028718D01*
X97104627Y-63133804D01*
X97104627Y-63133807D01*
X97094700Y-63201940D01*
X97094700Y-63568460D01*
X97096765Y-63582632D01*
X97104627Y-63636595D01*
X97150845Y-63731135D01*
X97156002Y-63741683D01*
X97169514Y-63755195D01*
X97197290Y-63809710D01*
X97187719Y-63870142D01*
X97169513Y-63895200D01*
X97117560Y-63947153D01*
X97117559Y-63947155D01*
X97060036Y-64060048D01*
X97060035Y-64060052D01*
X97045200Y-64153715D01*
X97045200Y-64185199D01*
X97045201Y-64185200D01*
X98870198Y-64185200D01*
X98899195Y-64156203D01*
X98901150Y-64158158D01*
X98901791Y-64157692D01*
X98911008Y-64145007D01*
X98925920Y-64140161D01*
X98938606Y-64130945D01*
X98969199Y-64126100D01*
X99029900Y-64126100D01*
X99088091Y-64145007D01*
X99124055Y-64194507D01*
X99128900Y-64225100D01*
X99128900Y-64727699D01*
X99158992Y-64800348D01*
X99163793Y-64861345D01*
X99137532Y-64908238D01*
X98974378Y-65071392D01*
X98919861Y-65099169D01*
X98859429Y-65089598D01*
X98818237Y-65050187D01*
X98811401Y-65038121D01*
X98810773Y-65033807D01*
X98759398Y-64928717D01*
X98736380Y-64905699D01*
X98729753Y-64894001D01*
X98726193Y-64876555D01*
X98718109Y-64860689D01*
X98720226Y-64847316D01*
X98717520Y-64834051D01*
X98724894Y-64817844D01*
X98727680Y-64800257D01*
X98741640Y-64781043D01*
X98742861Y-64778360D01*
X98744099Y-64777658D01*
X98745887Y-64775198D01*
X98797839Y-64723246D01*
X98797840Y-64723244D01*
X98855363Y-64610351D01*
X98855364Y-64610347D01*
X98870200Y-64516684D01*
X98870200Y-64485201D01*
X98870199Y-64485200D01*
X97045202Y-64485200D01*
X97045201Y-64485201D01*
X97045201Y-64516685D01*
X97060033Y-64610341D01*
X97060036Y-64610351D01*
X97117558Y-64723243D01*
X97169513Y-64775198D01*
X97197290Y-64829715D01*
X97187719Y-64890147D01*
X97169514Y-64915204D01*
X97156003Y-64928714D01*
X97156001Y-64928718D01*
X97104627Y-65033804D01*
X97102901Y-65045651D01*
X97094700Y-65101940D01*
X97094700Y-65468460D01*
X97101318Y-65513882D01*
X97104627Y-65536595D01*
X97153780Y-65637138D01*
X97156002Y-65641683D01*
X97238717Y-65724398D01*
X97261736Y-65735651D01*
X97343804Y-65775772D01*
X97343805Y-65775772D01*
X97343807Y-65775773D01*
X97411940Y-65785700D01*
X97697100Y-65785700D01*
X97755291Y-65804607D01*
X97791255Y-65854107D01*
X97796100Y-65884700D01*
X97796100Y-66290968D01*
X97777193Y-66349159D01*
X97727693Y-66385123D01*
X97666507Y-66385123D01*
X97617007Y-66349159D01*
X97608160Y-66334449D01*
X97597867Y-66313396D01*
X97597866Y-66313394D01*
X97507007Y-66222535D01*
X97391574Y-66166103D01*
X97316738Y-66155200D01*
X97245201Y-66155200D01*
X97245200Y-66155201D01*
X97245200Y-66576200D01*
X97226293Y-66634391D01*
X97176793Y-66670355D01*
X97146200Y-66675200D01*
X97095201Y-66675200D01*
X97095200Y-66675201D01*
X97095200Y-66726200D01*
X97076293Y-66784391D01*
X97026793Y-66820355D01*
X96996200Y-66825200D01*
X96525202Y-66825200D01*
X96525201Y-66825201D01*
X96525201Y-66846738D01*
X96536103Y-66921575D01*
X96592535Y-67037007D01*
X96683394Y-67127866D01*
X96690069Y-67132632D01*
X96689246Y-67133784D01*
X96726833Y-67170148D01*
X96737402Y-67230414D01*
X96710529Y-67285382D01*
X96709382Y-67286548D01*
X96631135Y-67364795D01*
X96631133Y-67364798D01*
X96581132Y-67472024D01*
X96581132Y-67472025D01*
X96581132Y-67472027D01*
X96574700Y-67520884D01*
X96574700Y-67869516D01*
X96581132Y-67918373D01*
X96581133Y-67918375D01*
X96583253Y-67925649D01*
X96580094Y-67926569D01*
X96585783Y-67973192D01*
X96562111Y-68017677D01*
X96563166Y-68018487D01*
X96559215Y-68023635D01*
X96503198Y-68120658D01*
X96499747Y-68133538D01*
X96474200Y-68228882D01*
X96474200Y-68340918D01*
X96498376Y-68431143D01*
X96503198Y-68449141D01*
X96559213Y-68546160D01*
X96559215Y-68546163D01*
X96638437Y-68625385D01*
X96645911Y-68629700D01*
X96735459Y-68681401D01*
X96735457Y-68681401D01*
X96735461Y-68681402D01*
X96735463Y-68681403D01*
X96843682Y-68710400D01*
X96843684Y-68710400D01*
X96955716Y-68710400D01*
X96955718Y-68710400D01*
X97063937Y-68681403D01*
X97063939Y-68681401D01*
X97063941Y-68681401D01*
X97111331Y-68654040D01*
X97160963Y-68625385D01*
X97240185Y-68546163D01*
X97296203Y-68449137D01*
X97325200Y-68340918D01*
X97325200Y-68242469D01*
X97344107Y-68184278D01*
X97382357Y-68152746D01*
X97475604Y-68109265D01*
X97559265Y-68025604D01*
X97609268Y-67918373D01*
X97615700Y-67869516D01*
X97615700Y-67520884D01*
X97609268Y-67472027D01*
X97601740Y-67455884D01*
X97559266Y-67364798D01*
X97559265Y-67364797D01*
X97559265Y-67364796D01*
X97481015Y-67286546D01*
X97453240Y-67232032D01*
X97462811Y-67171600D01*
X97500934Y-67133476D01*
X97500331Y-67132632D01*
X97505393Y-67129017D01*
X97506076Y-67128335D01*
X97506983Y-67127882D01*
X97507005Y-67127866D01*
X97597865Y-67037006D01*
X97608159Y-67015951D01*
X97650702Y-66971977D01*
X97710968Y-66961407D01*
X97765936Y-66988279D01*
X97794612Y-67042329D01*
X97796100Y-67059431D01*
X97796100Y-67222400D01*
X97838043Y-67323658D01*
X97844905Y-67330520D01*
X97872681Y-67385035D01*
X97873900Y-67400522D01*
X97873900Y-67694353D01*
X97870527Y-67719975D01*
X97842900Y-67823082D01*
X97842900Y-67935118D01*
X97867248Y-68025985D01*
X97871898Y-68043341D01*
X97927913Y-68140360D01*
X97927915Y-68140363D01*
X98007137Y-68219585D01*
X98015910Y-68224650D01*
X98104159Y-68275601D01*
X98104157Y-68275601D01*
X98104161Y-68275602D01*
X98104163Y-68275603D01*
X98212382Y-68304600D01*
X98212384Y-68304600D01*
X98324416Y-68304600D01*
X98324418Y-68304600D01*
X98432637Y-68275603D01*
X98432639Y-68275601D01*
X98432641Y-68275601D01*
X98461464Y-68258959D01*
X98529663Y-68219585D01*
X98608885Y-68140363D01*
X98664903Y-68043337D01*
X98693900Y-67935118D01*
X98693900Y-67930815D01*
X98712807Y-67872624D01*
X98762307Y-67836660D01*
X98823493Y-67836660D01*
X98872993Y-67872624D01*
X98878628Y-67881301D01*
X98911515Y-67938263D01*
X98990737Y-68017485D01*
X99011733Y-68029607D01*
X99087759Y-68073501D01*
X99087757Y-68073501D01*
X99087761Y-68073502D01*
X99087763Y-68073503D01*
X99195982Y-68102500D01*
X99195984Y-68102500D01*
X99308016Y-68102500D01*
X99308018Y-68102500D01*
X99395079Y-68079172D01*
X99456178Y-68082375D01*
X99503728Y-68120880D01*
X99519700Y-68174799D01*
X99519700Y-68589612D01*
X99500793Y-68647803D01*
X99464182Y-68678552D01*
X99438719Y-68691000D01*
X99356001Y-68773718D01*
X99304627Y-68878804D01*
X99294700Y-68946943D01*
X99294700Y-69953010D01*
X99275793Y-70011201D01*
X99226293Y-70047165D01*
X99221323Y-70048637D01*
X99102364Y-70080512D01*
X98982535Y-70149695D01*
X98884695Y-70247535D01*
X98815512Y-70367364D01*
X98815511Y-70367366D01*
X98812268Y-70372984D01*
X98811118Y-70372320D01*
X98775925Y-70413524D01*
X98716429Y-70427806D01*
X98659902Y-70404389D01*
X98627935Y-70352219D01*
X98625200Y-70329111D01*
X98625200Y-70200201D01*
X98625199Y-70200200D01*
X98175200Y-70200200D01*
X98175200Y-69900200D01*
X98625199Y-69900200D01*
X98625200Y-69900199D01*
X98625200Y-69426332D01*
X98625199Y-69426328D01*
X98596378Y-69281435D01*
X98596376Y-69281429D01*
X98539841Y-69144942D01*
X98457765Y-69022106D01*
X98353293Y-68917634D01*
X98230457Y-68835558D01*
X98093967Y-68779022D01*
X98025200Y-68765343D01*
X98025200Y-69240391D01*
X97990996Y-69220644D01*
X97914696Y-69200200D01*
X97835704Y-69200200D01*
X97759404Y-69220644D01*
X97725200Y-69240391D01*
X97725200Y-68765343D01*
X97656432Y-68779022D01*
X97519942Y-68835558D01*
X97397106Y-68917634D01*
X97292634Y-69022106D01*
X97210558Y-69144942D01*
X97154023Y-69281429D01*
X97154021Y-69281435D01*
X97125200Y-69426328D01*
X97125200Y-69900199D01*
X97125201Y-69900200D01*
X97575200Y-69900200D01*
X97575200Y-70200200D01*
X97125201Y-70200200D01*
X97125200Y-70200201D01*
X97125200Y-70674071D01*
X97154021Y-70818964D01*
X97154023Y-70818970D01*
X97210558Y-70955457D01*
X97292634Y-71078293D01*
X97397106Y-71182765D01*
X97519942Y-71264841D01*
X97656435Y-71321378D01*
X97656434Y-71321378D01*
X97725200Y-71335055D01*
X97725200Y-70860008D01*
X97759404Y-70879756D01*
X97835704Y-70900200D01*
X97914696Y-70900200D01*
X97990996Y-70879756D01*
X98025200Y-70860008D01*
X98025200Y-71335054D01*
X98093965Y-71321378D01*
X98230457Y-71264841D01*
X98353293Y-71182765D01*
X98457765Y-71078293D01*
X98539841Y-70955457D01*
X98596376Y-70818970D01*
X98596378Y-70818964D01*
X98612153Y-70739658D01*
X98642049Y-70686274D01*
X98697614Y-70660658D01*
X98757624Y-70672595D01*
X98799157Y-70717524D01*
X98804877Y-70733348D01*
X98815510Y-70773032D01*
X98815511Y-70773034D01*
X98815512Y-70773036D01*
X98884695Y-70892865D01*
X98982535Y-70990705D01*
X99102364Y-71059888D01*
X99236017Y-71095700D01*
X99236019Y-71095700D01*
X99374381Y-71095700D01*
X99374383Y-71095700D01*
X99508036Y-71059888D01*
X99627865Y-70990705D01*
X99725705Y-70892865D01*
X99794888Y-70773036D01*
X99830700Y-70639383D01*
X99830700Y-70501017D01*
X99802379Y-70395321D01*
X99805582Y-70334221D01*
X99844087Y-70286672D01*
X99898006Y-70270700D01*
X99978457Y-70270700D01*
X99978460Y-70270700D01*
X100046593Y-70260773D01*
X100125486Y-70222204D01*
X100186066Y-70213634D01*
X100223967Y-70228831D01*
X100262705Y-70254715D01*
X100343067Y-70270700D01*
X100420700Y-70270699D01*
X100478890Y-70289606D01*
X100514854Y-70339105D01*
X100519700Y-70369699D01*
X100519700Y-70447618D01*
X100540193Y-70524100D01*
X100548698Y-70555841D01*
X100599087Y-70643115D01*
X100604715Y-70652863D01*
X100683937Y-70732085D01*
X100683939Y-70732086D01*
X100780959Y-70788101D01*
X100780957Y-70788101D01*
X100780961Y-70788102D01*
X100780963Y-70788103D01*
X100889182Y-70817100D01*
X100889184Y-70817100D01*
X101001216Y-70817100D01*
X101001218Y-70817100D01*
X101109437Y-70788103D01*
X101109439Y-70788101D01*
X101109441Y-70788101D01*
X101138264Y-70771459D01*
X101206463Y-70732085D01*
X101285685Y-70652863D01*
X101341703Y-70555837D01*
X101359604Y-70489028D01*
X101392927Y-70437715D01*
X101450048Y-70415788D01*
X101509149Y-70431623D01*
X101525228Y-70444643D01*
X101562742Y-70482157D01*
X101664000Y-70524100D01*
X101664001Y-70524100D01*
X102174999Y-70524100D01*
X102175000Y-70524100D01*
X102276258Y-70482157D01*
X102352200Y-70406214D01*
X102406714Y-70378438D01*
X102467147Y-70388009D01*
X102510411Y-70431273D01*
X102516955Y-70452335D01*
X102518021Y-70452050D01*
X102519700Y-70458316D01*
X102519700Y-70458318D01*
X102537326Y-70524100D01*
X102548698Y-70566541D01*
X102604713Y-70663560D01*
X102604715Y-70663563D01*
X102683937Y-70742785D01*
X102683939Y-70742786D01*
X102780959Y-70798801D01*
X102780957Y-70798801D01*
X102780961Y-70798802D01*
X102780963Y-70798803D01*
X102889182Y-70827800D01*
X102889184Y-70827800D01*
X103001216Y-70827800D01*
X103001218Y-70827800D01*
X103109437Y-70798803D01*
X103109439Y-70798801D01*
X103109441Y-70798801D01*
X103138264Y-70782159D01*
X103206463Y-70742785D01*
X103285685Y-70663563D01*
X103341703Y-70566537D01*
X103370700Y-70458318D01*
X103370700Y-70369699D01*
X103389607Y-70311508D01*
X103439107Y-70275544D01*
X103469700Y-70270699D01*
X103547330Y-70270699D01*
X103547332Y-70270699D01*
X103627695Y-70254715D01*
X103640196Y-70246361D01*
X103699083Y-70229751D01*
X103750200Y-70246359D01*
X103762705Y-70254715D01*
X103843067Y-70270700D01*
X104015599Y-70270699D01*
X104030511Y-70275544D01*
X104046193Y-70275544D01*
X104058879Y-70284761D01*
X104073790Y-70289606D01*
X104083005Y-70302289D01*
X104095693Y-70311508D01*
X104100538Y-70326422D01*
X104109754Y-70339106D01*
X104114600Y-70369699D01*
X104114600Y-70544409D01*
X104095693Y-70602600D01*
X104065101Y-70630145D01*
X104042639Y-70643113D01*
X103963413Y-70722339D01*
X103907398Y-70819358D01*
X103891215Y-70879756D01*
X103878400Y-70927582D01*
X103878400Y-71039618D01*
X103888763Y-71078293D01*
X103907398Y-71147841D01*
X103963413Y-71244860D01*
X103963415Y-71244863D01*
X104042637Y-71324085D01*
X104042639Y-71324086D01*
X104139659Y-71380101D01*
X104139657Y-71380101D01*
X104139661Y-71380102D01*
X104139663Y-71380103D01*
X104247882Y-71409100D01*
X104247884Y-71409100D01*
X104359916Y-71409100D01*
X104359918Y-71409100D01*
X104468137Y-71380103D01*
X104468139Y-71380101D01*
X104468141Y-71380101D01*
X104496964Y-71363459D01*
X104565163Y-71324085D01*
X104644385Y-71244863D01*
X104700403Y-71147837D01*
X104711797Y-71105311D01*
X104745119Y-71053999D01*
X104802240Y-71032072D01*
X104856920Y-71045198D01*
X104882364Y-71059888D01*
X105016017Y-71095700D01*
X105016019Y-71095700D01*
X105154381Y-71095700D01*
X105154383Y-71095700D01*
X105288036Y-71059888D01*
X105407865Y-70990705D01*
X105505705Y-70892865D01*
X105574888Y-70773036D01*
X105585522Y-70733347D01*
X105618844Y-70682035D01*
X105675966Y-70660108D01*
X105735066Y-70675943D01*
X105773572Y-70723492D01*
X105778246Y-70739657D01*
X105794022Y-70818965D01*
X105794023Y-70818970D01*
X105850558Y-70955457D01*
X105932634Y-71078293D01*
X106037106Y-71182765D01*
X106159942Y-71264841D01*
X106296435Y-71321378D01*
X106296434Y-71321378D01*
X106365200Y-71335055D01*
X106365200Y-70860008D01*
X106399404Y-70879756D01*
X106475704Y-70900200D01*
X106554696Y-70900200D01*
X106630996Y-70879756D01*
X106665200Y-70860008D01*
X106665200Y-71335054D01*
X106733965Y-71321378D01*
X106870457Y-71264841D01*
X106993293Y-71182765D01*
X107097765Y-71078293D01*
X107179841Y-70955457D01*
X107236376Y-70818970D01*
X107236378Y-70818964D01*
X107265199Y-70674071D01*
X107265200Y-70674067D01*
X107265200Y-70200201D01*
X107265199Y-70200200D01*
X106815200Y-70200200D01*
X106815200Y-69900200D01*
X107265199Y-69900200D01*
X107265200Y-69900199D01*
X107265200Y-69426332D01*
X107265199Y-69426328D01*
X107236378Y-69281435D01*
X107236376Y-69281429D01*
X107179841Y-69144942D01*
X107097765Y-69022106D01*
X106993293Y-68917634D01*
X106870457Y-68835558D01*
X106733967Y-68779022D01*
X106665200Y-68765343D01*
X106665200Y-69240391D01*
X106630996Y-69220644D01*
X106554696Y-69200200D01*
X106475704Y-69200200D01*
X106399404Y-69220644D01*
X106365200Y-69240391D01*
X106365200Y-68765343D01*
X106296432Y-68779022D01*
X106159942Y-68835558D01*
X106037106Y-68917634D01*
X105932634Y-69022106D01*
X105850558Y-69144942D01*
X105794023Y-69281429D01*
X105794021Y-69281435D01*
X105765200Y-69426328D01*
X105765200Y-69900199D01*
X105765201Y-69900200D01*
X106215200Y-69900200D01*
X106215200Y-70200200D01*
X105765201Y-70200200D01*
X105765200Y-70200201D01*
X105765200Y-70329111D01*
X105746293Y-70387302D01*
X105696793Y-70423266D01*
X105635607Y-70423266D01*
X105586107Y-70387302D01*
X105576674Y-70370458D01*
X105558573Y-70339106D01*
X105505705Y-70247535D01*
X105407865Y-70149695D01*
X105288036Y-70080512D01*
X105222974Y-70063078D01*
X105169077Y-70048637D01*
X105117762Y-70015312D01*
X105095836Y-69958191D01*
X105095700Y-69953010D01*
X105095700Y-68946943D01*
X105091430Y-68917634D01*
X105085773Y-68878807D01*
X105034398Y-68773717D01*
X104951683Y-68691002D01*
X104910928Y-68671078D01*
X104846595Y-68639627D01*
X104819339Y-68635656D01*
X104778460Y-68629700D01*
X104411940Y-68629700D01*
X104346767Y-68639195D01*
X104343800Y-68639628D01*
X104336458Y-68641897D01*
X104335837Y-68639887D01*
X104285714Y-68646975D01*
X104231666Y-68618296D01*
X104211361Y-68587354D01*
X104178757Y-68508642D01*
X104101258Y-68431143D01*
X104000000Y-68389200D01*
X103890400Y-68389200D01*
X103863206Y-68400464D01*
X103825321Y-68408000D01*
X103501737Y-68408000D01*
X103494139Y-68405531D01*
X103486250Y-68406781D01*
X103465594Y-68396256D01*
X103443546Y-68389093D01*
X103431733Y-68379004D01*
X103413880Y-68361151D01*
X103392420Y-68329033D01*
X103381158Y-68301842D01*
X102540958Y-67461643D01*
X102540956Y-67461642D01*
X102540955Y-67461641D01*
X102527058Y-67455885D01*
X102527055Y-67455884D01*
X102507262Y-67447685D01*
X102460738Y-67407948D01*
X102446455Y-67348453D01*
X102469871Y-67291925D01*
X102503307Y-67266500D01*
X102563516Y-67238424D01*
X102648424Y-67153516D01*
X102699172Y-67044687D01*
X102705700Y-66995101D01*
X102705699Y-66735322D01*
X102724606Y-66677133D01*
X102734696Y-66665319D01*
X103270321Y-66129696D01*
X103324837Y-66101919D01*
X103340324Y-66100700D01*
X103642463Y-66100700D01*
X103700654Y-66119607D01*
X103710353Y-66127645D01*
X103724166Y-66140660D01*
X103731135Y-66155604D01*
X103814796Y-66239265D01*
X103842561Y-66252212D01*
X103854165Y-66263145D01*
X103861576Y-66276680D01*
X103872863Y-66287205D01*
X103875902Y-66302840D01*
X103883552Y-66316811D01*
X103881592Y-66332117D01*
X103884537Y-66347266D01*
X103877805Y-66361700D01*
X103875783Y-66377501D01*
X103865199Y-66388734D01*
X103858678Y-66402718D01*
X103837581Y-66418045D01*
X103833824Y-66422034D01*
X103831483Y-66422476D01*
X103828115Y-66424924D01*
X103814798Y-66431133D01*
X103731133Y-66514798D01*
X103681132Y-66622024D01*
X103681132Y-66622025D01*
X103674700Y-66670885D01*
X103674700Y-67019514D01*
X103681132Y-67068374D01*
X103681132Y-67068375D01*
X103731133Y-67175601D01*
X103731134Y-67175602D01*
X103731135Y-67175604D01*
X103814796Y-67259265D01*
X103814797Y-67259265D01*
X103814798Y-67259266D01*
X103922024Y-67309267D01*
X103922025Y-67309267D01*
X103922027Y-67309268D01*
X103970884Y-67315700D01*
X104235077Y-67315700D01*
X104293268Y-67334607D01*
X104305080Y-67344695D01*
X104929141Y-67968757D01*
X104929142Y-67968757D01*
X104929143Y-67968758D01*
X104943172Y-67974569D01*
X104943183Y-67974573D01*
X104943197Y-67974579D01*
X105030400Y-68010700D01*
X106385625Y-68010700D01*
X106443816Y-68029607D01*
X106475349Y-68067860D01*
X106491974Y-68103513D01*
X106491975Y-68103514D01*
X106491976Y-68103516D01*
X106576884Y-68188424D01*
X106685713Y-68239172D01*
X106735299Y-68245700D01*
X107095100Y-68245699D01*
X107144687Y-68239172D01*
X107144688Y-68239172D01*
X107231732Y-68198582D01*
X107253516Y-68188424D01*
X107290197Y-68151742D01*
X107344712Y-68123967D01*
X107405144Y-68133538D01*
X107430203Y-68151744D01*
X107503109Y-68224650D01*
X107503111Y-68224651D01*
X107613177Y-68280733D01*
X107613179Y-68280734D01*
X107704505Y-68295199D01*
X107725200Y-68295198D01*
X107725200Y-67834200D01*
X107730045Y-67819288D01*
X107730045Y-67803607D01*
X107739261Y-67790921D01*
X107744107Y-67776009D01*
X107756792Y-67766792D01*
X107766009Y-67754107D01*
X107780921Y-67749261D01*
X107793607Y-67740045D01*
X107824200Y-67735200D01*
X107926200Y-67735200D01*
X107984391Y-67754107D01*
X108020355Y-67803607D01*
X108025200Y-67834200D01*
X108025200Y-68295198D01*
X108025201Y-68295199D01*
X108045893Y-68295199D01*
X108137215Y-68280736D01*
X108137222Y-68280734D01*
X108247288Y-68224651D01*
X108247290Y-68224650D01*
X108275696Y-68196245D01*
X108330213Y-68168468D01*
X108390645Y-68178039D01*
X108433910Y-68221304D01*
X108444700Y-68266249D01*
X108444700Y-75381959D01*
X108444488Y-75388434D01*
X108429729Y-75613605D01*
X108428039Y-75626444D01*
X108384649Y-75844584D01*
X108381297Y-75857092D01*
X108309808Y-76067693D01*
X108304852Y-76079658D01*
X108206483Y-76279128D01*
X108200009Y-76290342D01*
X108076443Y-76475273D01*
X108068559Y-76485547D01*
X107921917Y-76652760D01*
X107912760Y-76661917D01*
X107745547Y-76808559D01*
X107735273Y-76816443D01*
X107550342Y-76940009D01*
X107539128Y-76946483D01*
X107339658Y-77044852D01*
X107327693Y-77049808D01*
X107117092Y-77121297D01*
X107104584Y-77124649D01*
X106886444Y-77168039D01*
X106873605Y-77169729D01*
X106648434Y-77184488D01*
X106641959Y-77184700D01*
X97748441Y-77184700D01*
X97741966Y-77184488D01*
X97516794Y-77169729D01*
X97503955Y-77168039D01*
X97285815Y-77124649D01*
X97273307Y-77121297D01*
X97062706Y-77049808D01*
X97050741Y-77044852D01*
X96851271Y-76946483D01*
X96840057Y-76940009D01*
X96655126Y-76816443D01*
X96644852Y-76808559D01*
X96477639Y-76661917D01*
X96468482Y-76652760D01*
X96321840Y-76485547D01*
X96313956Y-76475273D01*
X96190390Y-76290342D01*
X96183916Y-76279128D01*
X96169440Y-76249774D01*
X96085543Y-76079650D01*
X96080595Y-76067702D01*
X96009099Y-75857083D01*
X96005752Y-75844594D01*
X95962359Y-75626437D01*
X95960670Y-75613605D01*
X95945912Y-75388434D01*
X95945700Y-75381959D01*
X95945700Y-73776328D01*
X97125200Y-73776328D01*
X97125200Y-74100199D01*
X97125201Y-74100200D01*
X97575200Y-74100200D01*
X97575200Y-74400200D01*
X97125201Y-74400200D01*
X97125200Y-74400201D01*
X97125200Y-74724071D01*
X97154021Y-74868964D01*
X97154023Y-74868970D01*
X97210558Y-75005457D01*
X97292634Y-75128293D01*
X97397106Y-75232765D01*
X97519942Y-75314841D01*
X97656435Y-75371378D01*
X97656434Y-75371378D01*
X97725200Y-75385055D01*
X97725200Y-74910008D01*
X97759404Y-74929756D01*
X97835704Y-74950200D01*
X97914696Y-74950200D01*
X97990996Y-74929756D01*
X98025200Y-74910008D01*
X98025200Y-75385054D01*
X98093965Y-75371378D01*
X98230457Y-75314841D01*
X98353293Y-75232765D01*
X98457765Y-75128293D01*
X98539841Y-75005457D01*
X98596376Y-74868970D01*
X98596378Y-74868964D01*
X98625199Y-74724071D01*
X98625200Y-74724067D01*
X98625200Y-74400201D01*
X98625199Y-74400200D01*
X98175200Y-74400200D01*
X98175200Y-74100200D01*
X98625199Y-74100200D01*
X98625200Y-74100199D01*
X98625200Y-73776332D01*
X98625199Y-73776328D01*
X105765200Y-73776328D01*
X105765200Y-74100199D01*
X105765201Y-74100200D01*
X106215200Y-74100200D01*
X106215200Y-74400200D01*
X105765201Y-74400200D01*
X105765200Y-74400201D01*
X105765200Y-74724071D01*
X105794021Y-74868964D01*
X105794023Y-74868970D01*
X105850558Y-75005457D01*
X105932634Y-75128293D01*
X106037106Y-75232765D01*
X106159942Y-75314841D01*
X106296435Y-75371378D01*
X106296434Y-75371378D01*
X106365200Y-75385055D01*
X106365200Y-74910008D01*
X106399404Y-74929756D01*
X106475704Y-74950200D01*
X106554696Y-74950200D01*
X106630996Y-74929756D01*
X106665200Y-74910008D01*
X106665200Y-75385054D01*
X106733965Y-75371378D01*
X106870457Y-75314841D01*
X106993293Y-75232765D01*
X107097765Y-75128293D01*
X107179841Y-75005457D01*
X107236376Y-74868970D01*
X107236378Y-74868964D01*
X107265199Y-74724071D01*
X107265200Y-74724067D01*
X107265200Y-74400201D01*
X107265199Y-74400200D01*
X106815200Y-74400200D01*
X106815200Y-74100200D01*
X107265199Y-74100200D01*
X107265200Y-74100199D01*
X107265200Y-73776332D01*
X107265199Y-73776328D01*
X107236378Y-73631435D01*
X107236376Y-73631429D01*
X107179841Y-73494942D01*
X107097765Y-73372106D01*
X106993293Y-73267634D01*
X106870457Y-73185558D01*
X106733967Y-73129022D01*
X106665200Y-73115343D01*
X106665200Y-73590391D01*
X106630996Y-73570644D01*
X106554696Y-73550200D01*
X106475704Y-73550200D01*
X106399404Y-73570644D01*
X106365200Y-73590391D01*
X106365200Y-73115343D01*
X106296432Y-73129022D01*
X106159942Y-73185558D01*
X106037106Y-73267634D01*
X105932634Y-73372106D01*
X105850558Y-73494942D01*
X105794023Y-73631429D01*
X105794021Y-73631435D01*
X105765200Y-73776328D01*
X98625199Y-73776328D01*
X98596378Y-73631435D01*
X98596376Y-73631429D01*
X98539841Y-73494942D01*
X98457765Y-73372106D01*
X98353293Y-73267634D01*
X98230457Y-73185558D01*
X98093967Y-73129022D01*
X98025200Y-73115343D01*
X98025200Y-73590391D01*
X97990996Y-73570644D01*
X97914696Y-73550200D01*
X97835704Y-73550200D01*
X97759404Y-73570644D01*
X97725200Y-73590391D01*
X97725200Y-73115343D01*
X97656432Y-73129022D01*
X97519942Y-73185558D01*
X97397106Y-73267634D01*
X97292634Y-73372106D01*
X97210558Y-73494942D01*
X97154023Y-73631429D01*
X97154021Y-73631435D01*
X97125200Y-73776328D01*
X95945700Y-73776328D01*
X95945700Y-66503662D01*
X96525200Y-66503662D01*
X96525200Y-66525199D01*
X96525201Y-66525200D01*
X96945199Y-66525200D01*
X96945200Y-66525199D01*
X96945200Y-66155199D01*
X96873664Y-66155200D01*
X96873660Y-66155201D01*
X96798824Y-66166103D01*
X96683392Y-66222535D01*
X96592535Y-66313392D01*
X96536103Y-66428825D01*
X96525200Y-66503662D01*
X95945700Y-66503662D01*
X95945700Y-60534507D01*
X97135200Y-60534507D01*
X97135200Y-60555199D01*
X97135201Y-60555200D01*
X97545199Y-60555200D01*
X97545200Y-60555199D01*
X97545200Y-60175201D01*
X97845200Y-60175201D01*
X97845200Y-60555199D01*
X97845201Y-60555200D01*
X98255198Y-60555200D01*
X98255199Y-60555199D01*
X98255199Y-60534507D01*
X99135200Y-60534507D01*
X99135200Y-60555199D01*
X99135201Y-60555200D01*
X99545199Y-60555200D01*
X99545200Y-60555199D01*
X99545200Y-60175199D01*
X99494507Y-60175200D01*
X99494505Y-60175201D01*
X99403184Y-60189663D01*
X99403177Y-60189665D01*
X99293111Y-60245748D01*
X99293109Y-60245749D01*
X99205749Y-60333109D01*
X99205748Y-60333111D01*
X99149666Y-60443177D01*
X99149665Y-60443178D01*
X99135200Y-60534507D01*
X98255199Y-60534507D01*
X98255198Y-60534505D01*
X98240736Y-60443184D01*
X98240734Y-60443177D01*
X98184651Y-60333111D01*
X98184650Y-60333109D01*
X98097290Y-60245749D01*
X98097288Y-60245748D01*
X97987222Y-60189666D01*
X97987221Y-60189665D01*
X97895893Y-60175200D01*
X97845201Y-60175200D01*
X97845200Y-60175201D01*
X97545200Y-60175201D01*
X97545200Y-60175199D01*
X97494507Y-60175200D01*
X97494505Y-60175201D01*
X97403184Y-60189663D01*
X97403177Y-60189665D01*
X97293111Y-60245748D01*
X97293109Y-60245749D01*
X97205749Y-60333109D01*
X97205748Y-60333111D01*
X97149666Y-60443177D01*
X97149665Y-60443178D01*
X97135200Y-60534507D01*
X95945700Y-60534507D01*
X95945700Y-50835201D01*
X99145200Y-50835201D01*
X99145200Y-50909824D01*
X99159706Y-50982746D01*
X99159707Y-50982748D01*
X99214958Y-51065437D01*
X99214962Y-51065441D01*
X99297651Y-51120692D01*
X99297653Y-51120693D01*
X99370575Y-51135199D01*
X99370577Y-51135200D01*
X99445199Y-51135200D01*
X99445200Y-51135199D01*
X99445200Y-50835201D01*
X99445199Y-50835200D01*
X99145201Y-50835200D01*
X99145200Y-50835201D01*
X95945700Y-50835201D01*
X95945700Y-50460575D01*
X99145200Y-50460575D01*
X99145200Y-50535199D01*
X99145201Y-50535200D01*
X99445199Y-50535200D01*
X99445200Y-50535199D01*
X99445200Y-50235201D01*
X99445199Y-50235200D01*
X99370575Y-50235200D01*
X99297653Y-50249706D01*
X99297651Y-50249707D01*
X99214962Y-50304958D01*
X99214958Y-50304962D01*
X99159707Y-50387651D01*
X99159706Y-50387653D01*
X99145200Y-50460575D01*
X95945700Y-50460575D01*
X95945700Y-49784200D01*
X95964607Y-49726009D01*
X96014107Y-49690045D01*
X96044700Y-49685200D01*
X97995700Y-49685200D01*
X98053891Y-49704107D01*
G37*
%TD.AperFunction*%
%TA.AperFunction,Conductor*%
G36*
X98705144Y-56233538D02*
G01*
X98730203Y-56251744D01*
X98803109Y-56324650D01*
X98803111Y-56324651D01*
X98913177Y-56380733D01*
X98913178Y-56380734D01*
X98947856Y-56386227D01*
X99002372Y-56414005D01*
X99030149Y-56468522D01*
X99020577Y-56528954D01*
X99002372Y-56554012D01*
X98859564Y-56696820D01*
X98829548Y-56717381D01*
X98785187Y-56736968D01*
X98724317Y-56743176D01*
X98705212Y-56736968D01*
X98649780Y-56712493D01*
X98649776Y-56712492D01*
X98625708Y-56709700D01*
X98364699Y-56709700D01*
X98364696Y-56709701D01*
X98340618Y-56712493D01*
X98242122Y-56755984D01*
X98165984Y-56832122D01*
X98135488Y-56901189D01*
X98094687Y-56946784D01*
X98044924Y-56960200D01*
X97982701Y-56960200D01*
X97982700Y-56960201D01*
X97982700Y-58286200D01*
X97977855Y-58301111D01*
X97977855Y-58316793D01*
X97968638Y-58329478D01*
X97963793Y-58344391D01*
X97951107Y-58353607D01*
X97941891Y-58366293D01*
X97926978Y-58371138D01*
X97914293Y-58380355D01*
X97883700Y-58385200D01*
X97781700Y-58385200D01*
X97723509Y-58366293D01*
X97687545Y-58316793D01*
X97682700Y-58286200D01*
X97682700Y-58035201D01*
X97682699Y-58035200D01*
X97273224Y-58035200D01*
X97276672Y-58061402D01*
X97291574Y-58093360D01*
X97292546Y-58101276D01*
X97297009Y-58107890D01*
X97295584Y-58126019D01*
X97299031Y-58154089D01*
X97294887Y-58169039D01*
X97270881Y-58235040D01*
X97258390Y-58251033D01*
X97249655Y-58269348D01*
X97239991Y-58274594D01*
X97233222Y-58283263D01*
X97213717Y-58288860D01*
X97195884Y-58298543D01*
X97177844Y-58300200D01*
X97144800Y-58300200D01*
X97086609Y-58281293D01*
X97050645Y-58231793D01*
X97045800Y-58201200D01*
X97045800Y-57735199D01*
X97273221Y-57735199D01*
X97273222Y-57735200D01*
X97682699Y-57735200D01*
X97682700Y-57735199D01*
X97682700Y-57535201D01*
X97682699Y-57535200D01*
X97273224Y-57535200D01*
X97276672Y-57561402D01*
X97291574Y-57593360D01*
X97299031Y-57654089D01*
X97291575Y-57677038D01*
X97276670Y-57709001D01*
X97273221Y-57735199D01*
X97045800Y-57735199D01*
X97045800Y-57435221D01*
X97064707Y-57377030D01*
X97074784Y-57365230D01*
X97175820Y-57264194D01*
X97230334Y-57236419D01*
X97245821Y-57235200D01*
X97682699Y-57235200D01*
X97682700Y-57235199D01*
X97682700Y-56960201D01*
X97665313Y-56942814D01*
X97660630Y-56941293D01*
X97624666Y-56891793D01*
X97624666Y-56830607D01*
X97648818Y-56791196D01*
X98065320Y-56374695D01*
X98119836Y-56346918D01*
X98135323Y-56345699D01*
X98395097Y-56345699D01*
X98395100Y-56345699D01*
X98444687Y-56339172D01*
X98444688Y-56339172D01*
X98503337Y-56311822D01*
X98553516Y-56288424D01*
X98590197Y-56251742D01*
X98644712Y-56223967D01*
X98705144Y-56233538D01*
G37*
%TD.AperFunction*%
%TA.AperFunction,Conductor*%
G36*
X98804391Y-54004107D02*
G01*
X98840355Y-54053607D01*
X98845200Y-54084200D01*
X98845200Y-54635199D01*
X98845201Y-54635200D01*
X99119823Y-54635200D01*
X99119824Y-54635199D01*
X99202307Y-54618792D01*
X99202770Y-54621124D01*
X99250106Y-54617396D01*
X99302277Y-54649362D01*
X99325694Y-54705889D01*
X99326000Y-54713662D01*
X99326000Y-54764218D01*
X99336863Y-54804758D01*
X99354998Y-54872441D01*
X99409223Y-54966360D01*
X99411015Y-54969463D01*
X99490237Y-55048685D01*
X99580401Y-55100741D01*
X99594246Y-55116117D01*
X99610993Y-55128285D01*
X99614262Y-55138347D01*
X99621341Y-55146209D01*
X99629900Y-55186476D01*
X99629900Y-55192177D01*
X99610993Y-55250368D01*
X99600902Y-55262182D01*
X99578305Y-55284778D01*
X99523788Y-55312554D01*
X99463359Y-55302983D01*
X99437220Y-55289665D01*
X99437221Y-55289665D01*
X99345893Y-55275200D01*
X99325201Y-55275200D01*
X99325200Y-55275201D01*
X99325200Y-55736200D01*
X99320355Y-55751111D01*
X99320355Y-55766793D01*
X99311138Y-55779478D01*
X99306293Y-55794391D01*
X99293607Y-55803607D01*
X99284391Y-55816293D01*
X99269478Y-55821138D01*
X99256793Y-55830355D01*
X99226200Y-55835200D01*
X99124200Y-55835200D01*
X99066009Y-55816293D01*
X99030045Y-55766793D01*
X99025200Y-55736200D01*
X99025200Y-55275199D01*
X99004507Y-55275200D01*
X99004503Y-55275201D01*
X98913184Y-55289663D01*
X98913177Y-55289665D01*
X98803111Y-55345748D01*
X98803109Y-55345749D01*
X98730203Y-55418656D01*
X98675686Y-55446433D01*
X98615254Y-55436862D01*
X98590198Y-55418658D01*
X98553516Y-55381976D01*
X98553514Y-55381975D01*
X98553513Y-55381974D01*
X98444689Y-55331229D01*
X98444688Y-55331228D01*
X98419894Y-55327964D01*
X98395101Y-55324700D01*
X98395100Y-55324700D01*
X98176206Y-55324700D01*
X98118015Y-55305793D01*
X98082051Y-55256293D01*
X98082051Y-55195107D01*
X98118015Y-55145607D01*
X98150580Y-55130074D01*
X98256837Y-55101603D01*
X98256839Y-55101601D01*
X98256841Y-55101601D01*
X98295320Y-55079385D01*
X98353863Y-55045585D01*
X98433085Y-54966363D01*
X98489103Y-54869337D01*
X98518100Y-54761118D01*
X98518100Y-54703307D01*
X98537007Y-54645116D01*
X98545200Y-54635522D01*
X98545200Y-54084200D01*
X98550045Y-54069288D01*
X98550045Y-54053607D01*
X98559261Y-54040921D01*
X98564107Y-54026009D01*
X98576792Y-54016792D01*
X98586009Y-54004107D01*
X98600921Y-53999261D01*
X98613607Y-53990045D01*
X98644200Y-53985200D01*
X98746200Y-53985200D01*
X98804391Y-54004107D01*
G37*
%TD.AperFunction*%
%TA.AperFunction,Conductor*%
G36*
X101258087Y-54570387D02*
G01*
X101266965Y-54574064D01*
X101266969Y-54574067D01*
X101325452Y-54585700D01*
X101515077Y-54585700D01*
X101573268Y-54604607D01*
X101585080Y-54614695D01*
X101906421Y-54936037D01*
X102109940Y-55139556D01*
X102115664Y-55143380D01*
X102153547Y-55191427D01*
X102155954Y-55252565D01*
X102121965Y-55303442D01*
X102064564Y-55324623D01*
X102060672Y-55324700D01*
X102035305Y-55324700D01*
X102035292Y-55324701D01*
X101985713Y-55331227D01*
X101985711Y-55331227D01*
X101876886Y-55381974D01*
X101876883Y-55381976D01*
X101795505Y-55463354D01*
X101740988Y-55491131D01*
X101680556Y-55481559D01*
X101637292Y-55438295D01*
X101634649Y-55433108D01*
X101547290Y-55345749D01*
X101547288Y-55345748D01*
X101437222Y-55289666D01*
X101437221Y-55289665D01*
X101345893Y-55275200D01*
X101325201Y-55275200D01*
X101325200Y-55275201D01*
X101325200Y-55736200D01*
X101320355Y-55751111D01*
X101320355Y-55766793D01*
X101311138Y-55779478D01*
X101306293Y-55794391D01*
X101293607Y-55803607D01*
X101284391Y-55816293D01*
X101269478Y-55821138D01*
X101256793Y-55830355D01*
X101226200Y-55835200D01*
X101124200Y-55835200D01*
X101066009Y-55816293D01*
X101030045Y-55766793D01*
X101025200Y-55736200D01*
X101025200Y-55275199D01*
X101004507Y-55275200D01*
X101004503Y-55275201D01*
X100913184Y-55289663D01*
X100913177Y-55289665D01*
X100803111Y-55345748D01*
X100803109Y-55345749D01*
X100730203Y-55418656D01*
X100721713Y-55422981D01*
X100715879Y-55430510D01*
X100695033Y-55436575D01*
X100675686Y-55446433D01*
X100666276Y-55444942D01*
X100657130Y-55447604D01*
X100642136Y-55441119D01*
X100615254Y-55436862D01*
X100599554Y-55426903D01*
X100594615Y-55423075D01*
X100553516Y-55381976D01*
X100523561Y-55368008D01*
X100514802Y-55361219D01*
X100503524Y-55344639D01*
X100488859Y-55330964D01*
X100486713Y-55319925D01*
X100480389Y-55310628D01*
X100481010Y-55290585D01*
X100477185Y-55270902D01*
X100479820Y-55257346D01*
X100480900Y-55253318D01*
X100480900Y-55141282D01*
X100451903Y-55033063D01*
X100451901Y-55033060D01*
X100451901Y-55033058D01*
X100395886Y-54936039D01*
X100395885Y-54936037D01*
X100316663Y-54856815D01*
X100287949Y-54840237D01*
X100226499Y-54804758D01*
X100212652Y-54789379D01*
X100195907Y-54777213D01*
X100192637Y-54767149D01*
X100185559Y-54759288D01*
X100177000Y-54719022D01*
X100177000Y-54684700D01*
X100195907Y-54626509D01*
X100245407Y-54590545D01*
X100276000Y-54585700D01*
X100464947Y-54585700D01*
X100464948Y-54585700D01*
X100523431Y-54574067D01*
X100523436Y-54574063D01*
X100532313Y-54570387D01*
X100593310Y-54565586D01*
X100608087Y-54570387D01*
X100616965Y-54574064D01*
X100616969Y-54574067D01*
X100675452Y-54585700D01*
X100675453Y-54585700D01*
X101114947Y-54585700D01*
X101114948Y-54585700D01*
X101173431Y-54574067D01*
X101173436Y-54574063D01*
X101182313Y-54570387D01*
X101243310Y-54565586D01*
X101258087Y-54570387D01*
G37*
%TD.AperFunction*%
%TA.AperFunction,Conductor*%
G36*
X108403891Y-49704107D02*
G01*
X108439855Y-49753607D01*
X108444700Y-49784200D01*
X108444700Y-55135700D01*
X108425793Y-55193891D01*
X108376293Y-55229855D01*
X108345700Y-55234700D01*
X107225452Y-55234700D01*
X107225451Y-55234700D01*
X107225441Y-55234701D01*
X107166972Y-55246332D01*
X107166966Y-55246334D01*
X107100202Y-55290946D01*
X107041314Y-55307555D01*
X106990198Y-55290946D01*
X106923433Y-55246334D01*
X106923431Y-55246333D01*
X106923428Y-55246332D01*
X106923427Y-55246332D01*
X106864958Y-55234701D01*
X106864948Y-55234700D01*
X106514677Y-55234700D01*
X106456486Y-55215793D01*
X106420522Y-55166293D01*
X106420522Y-55105107D01*
X106456486Y-55055607D01*
X106465176Y-55049964D01*
X106473082Y-55045399D01*
X106523163Y-55016485D01*
X106602385Y-54937263D01*
X106658403Y-54840237D01*
X106687400Y-54732018D01*
X106687400Y-54703015D01*
X106706307Y-54644824D01*
X106755807Y-54608860D01*
X106760743Y-54607397D01*
X106862237Y-54580203D01*
X106862240Y-54580201D01*
X106862241Y-54580201D01*
X106926993Y-54542816D01*
X106959263Y-54524185D01*
X107038485Y-54444963D01*
X107094503Y-54347937D01*
X107123500Y-54239718D01*
X107123500Y-54127682D01*
X107094503Y-54019463D01*
X107094501Y-54019460D01*
X107094501Y-54019458D01*
X107038485Y-53922437D01*
X107002496Y-53886447D01*
X106974719Y-53831930D01*
X106973500Y-53816444D01*
X106973500Y-53183200D01*
X106955606Y-53139999D01*
X106931558Y-53081942D01*
X106623205Y-52773590D01*
X106595427Y-52719073D01*
X106604998Y-52658641D01*
X106643707Y-52617851D01*
X106688163Y-52592185D01*
X106767385Y-52512963D01*
X106823403Y-52415937D01*
X106852400Y-52307718D01*
X106852400Y-52195682D01*
X106823403Y-52087463D01*
X106823401Y-52087460D01*
X106823401Y-52087458D01*
X106767386Y-51990439D01*
X106767385Y-51990437D01*
X106688163Y-51911215D01*
X106676502Y-51904482D01*
X106586899Y-51852749D01*
X106545959Y-51807279D01*
X106537400Y-51767013D01*
X106537400Y-51730400D01*
X106528890Y-51709855D01*
X106495457Y-51629142D01*
X106417958Y-51551643D01*
X106316700Y-51509700D01*
X106316699Y-51509700D01*
X106307692Y-51505969D01*
X106308702Y-51503528D01*
X106268003Y-51480735D01*
X106258387Y-51468537D01*
X106239753Y-51440650D01*
X106239752Y-51440648D01*
X106239748Y-51440645D01*
X106173433Y-51396334D01*
X106173431Y-51396333D01*
X106173428Y-51396332D01*
X106173427Y-51396332D01*
X106114958Y-51384701D01*
X106114948Y-51384700D01*
X105675452Y-51384700D01*
X105675451Y-51384700D01*
X105675441Y-51384701D01*
X105616972Y-51396332D01*
X105616966Y-51396334D01*
X105550651Y-51440645D01*
X105550645Y-51440651D01*
X105506334Y-51506966D01*
X105506332Y-51506972D01*
X105494701Y-51565441D01*
X105494700Y-51565453D01*
X105494700Y-51615700D01*
X105475793Y-51673891D01*
X105426293Y-51709855D01*
X105395700Y-51714700D01*
X105025446Y-51714700D01*
X104981760Y-51723390D01*
X104920999Y-51716198D01*
X104876069Y-51674665D01*
X104864133Y-51614655D01*
X104865345Y-51607004D01*
X104875700Y-51554948D01*
X104875700Y-51184700D01*
X104894607Y-51126509D01*
X104944107Y-51090545D01*
X104974700Y-51085700D01*
X105014947Y-51085700D01*
X105014948Y-51085700D01*
X105073431Y-51074067D01*
X105139752Y-51029752D01*
X105184067Y-50963431D01*
X105195700Y-50904948D01*
X105195700Y-50715322D01*
X105198168Y-50707723D01*
X105196919Y-50699833D01*
X105207443Y-50679179D01*
X105214607Y-50657131D01*
X105224698Y-50645317D01*
X105251521Y-50618495D01*
X105306038Y-50590719D01*
X105321523Y-50589500D01*
X106012644Y-50589500D01*
X106070835Y-50608407D01*
X106082647Y-50618496D01*
X106118637Y-50654485D01*
X106215659Y-50710501D01*
X106215657Y-50710501D01*
X106215661Y-50710502D01*
X106215663Y-50710503D01*
X106323882Y-50739500D01*
X106323884Y-50739500D01*
X106435916Y-50739500D01*
X106435918Y-50739500D01*
X106544137Y-50710503D01*
X106544139Y-50710501D01*
X106544141Y-50710501D01*
X106572964Y-50693859D01*
X106641163Y-50654485D01*
X106720385Y-50575263D01*
X106776403Y-50478237D01*
X106805400Y-50370018D01*
X106805400Y-50257982D01*
X106776403Y-50149763D01*
X106776401Y-50149760D01*
X106776401Y-50149758D01*
X106720386Y-50052739D01*
X106720385Y-50052737D01*
X106641163Y-49973515D01*
X106641160Y-49973513D01*
X106544140Y-49917498D01*
X106544142Y-49917498D01*
X106490925Y-49903239D01*
X106435918Y-49888500D01*
X106394700Y-49888500D01*
X106379788Y-49883655D01*
X106364107Y-49883655D01*
X106351421Y-49874438D01*
X106336509Y-49869593D01*
X106327292Y-49856907D01*
X106314607Y-49847691D01*
X106309761Y-49832778D01*
X106300545Y-49820093D01*
X106295700Y-49789500D01*
X106295700Y-49784200D01*
X106314607Y-49726009D01*
X106364107Y-49690045D01*
X106394700Y-49685200D01*
X108345700Y-49685200D01*
X108403891Y-49704107D01*
G37*
%TD.AperFunction*%
%TA.AperFunction,Conductor*%
G36*
X102804391Y-50554107D02*
G01*
X102840355Y-50603607D01*
X102845200Y-50634200D01*
X102845200Y-50736200D01*
X102826293Y-50794391D01*
X102776793Y-50830355D01*
X102746200Y-50835200D01*
X101644200Y-50835200D01*
X101629288Y-50830355D01*
X101613607Y-50830355D01*
X101600921Y-50821138D01*
X101586009Y-50816293D01*
X101576792Y-50803607D01*
X101564107Y-50794391D01*
X101559261Y-50779478D01*
X101550045Y-50766793D01*
X101545200Y-50736200D01*
X101545200Y-50634200D01*
X101564107Y-50576009D01*
X101613607Y-50540045D01*
X101644200Y-50535200D01*
X102746200Y-50535200D01*
X102804391Y-50554107D01*
G37*
%TD.AperFunction*%
%TD*%
M02*
