%TF.GenerationSoftware,KiCad,Pcbnew,10.0.3*%
%TF.CreationDate,2026-08-29T17:36:07-04:00*%
%TF.ProjectId,pen-mixer,70656e2d-6d69-4786-9572-2e6b69636164,rev?*%
%TF.SameCoordinates,Original*%
%TF.FileFunction,Soldermask,Top*%
%TF.FilePolarity,Negative*%
%FSLAX46Y46*%
G04 Gerber Fmt 4.6, Leading zero omitted, Abs format (unit mm)*
G04 Created by KiCad (PCBNEW 10.0.3) date 2026-08-29 17:36:07*
%MOMM*%
%LPD*%
G01*
G04 APERTURE LIST*
G04 Aperture macros list*
%AMRoundRect*
0 Rectangle with rounded corners*
0 $1 Rounding radius*
0 $2 $3 $4 $5 $6 $7 $8 $9 X,Y pos of 4 corners*
0 Add a 4 corners polygon primitive as box body*
4,1,4,$2,$3,$4,$5,$6,$7,$8,$9,$2,$3,0*
0 Add four circle primitives for the rounded corners*
1,1,$1+$1,$2,$3*
1,1,$1+$1,$4,$5*
1,1,$1+$1,$6,$7*
1,1,$1+$1,$8,$9*
0 Add four rect primitives between the rounded corners*
20,1,$1+$1,$2,$3,$4,$5,0*
20,1,$1+$1,$4,$5,$6,$7,0*
20,1,$1+$1,$6,$7,$8,$9,0*
20,1,$1+$1,$8,$9,$2,$3,0*%
G04 Aperture macros list end*
%ADD10RoundRect,0.140000X-0.140000X-0.170000X0.140000X-0.170000X0.140000X0.170000X-0.140000X0.170000X0*%
%ADD11RoundRect,0.140000X0.170000X-0.140000X0.170000X0.140000X-0.170000X0.140000X-0.170000X-0.140000X0*%
%ADD12RoundRect,0.135000X0.185000X-0.135000X0.185000X0.135000X-0.185000X0.135000X-0.185000X-0.135000X0*%
%ADD13RoundRect,0.150000X-0.512500X-0.150000X0.512500X-0.150000X0.512500X0.150000X-0.512500X0.150000X0*%
%ADD14R,1.200000X1.400000*%
%ADD15RoundRect,0.147500X-0.147500X-0.172500X0.147500X-0.172500X0.147500X0.172500X-0.147500X0.172500X0*%
%ADD16RoundRect,0.150000X0.150000X-0.512500X0.150000X0.512500X-0.150000X0.512500X-0.150000X-0.512500X0*%
%ADD17C,0.650000*%
%ADD18RoundRect,0.150000X-0.150000X-0.470000X0.150000X-0.470000X0.150000X0.470000X-0.150000X0.470000X0*%
%ADD19RoundRect,0.075000X-0.075000X-0.545000X0.075000X-0.545000X0.075000X0.545000X-0.075000X0.545000X0*%
%ADD20O,1.000000X2.100000*%
%ADD21O,1.000000X1.800000*%
%ADD22RoundRect,0.102000X0.400000X0.400000X-0.400000X0.400000X-0.400000X-0.400000X0.400000X-0.400000X0*%
%ADD23RoundRect,0.102000X0.199999X0.199999X-0.199999X0.199999X-0.199999X-0.199999X0.199999X-0.199999X0*%
%ADD24RoundRect,0.087500X-0.225000X-0.087500X0.225000X-0.087500X0.225000X0.087500X-0.225000X0.087500X0*%
%ADD25RoundRect,0.087500X-0.087500X-0.225000X0.087500X-0.225000X0.087500X0.225000X-0.087500X0.225000X0*%
G04 APERTURE END LIST*
D10*
%TO.C,C5*%
X107640000Y-73100000D03*
X108600000Y-73100000D03*
%TD*%
D11*
%TO.C,C3*%
X106000000Y-80880000D03*
X106000000Y-79920000D03*
%TD*%
D12*
%TO.C,R9*%
X103800000Y-89510000D03*
X103800000Y-88490000D03*
%TD*%
D11*
%TO.C,C9*%
X107800000Y-89480000D03*
X107800000Y-88520000D03*
%TD*%
D12*
%TO.C,R7*%
X103400000Y-80910000D03*
X103400000Y-79890000D03*
%TD*%
D13*
%TO.C,U3*%
X102062500Y-82650000D03*
X102062500Y-83600000D03*
X102062500Y-84550000D03*
X104337500Y-84550000D03*
X104337500Y-82650000D03*
%TD*%
D14*
%TO.C,J3*%
X109200000Y-89500000D03*
X109200000Y-91700000D03*
%TD*%
D12*
%TO.C,R3*%
X107000000Y-83510000D03*
X107000000Y-82490000D03*
%TD*%
D10*
%TO.C,C8*%
X102920000Y-78600000D03*
X103880000Y-78600000D03*
%TD*%
D15*
%TO.C,D1*%
X102715000Y-86600000D03*
X103685000Y-86600000D03*
%TD*%
D12*
%TO.C,R4*%
X109000000Y-85910000D03*
X109000000Y-84890000D03*
%TD*%
D16*
%TO.C,U4*%
X107450000Y-77337500D03*
X108400000Y-77337500D03*
X109350000Y-77337500D03*
X109350000Y-75062500D03*
X107450000Y-75062500D03*
%TD*%
D17*
%TO.C,J1*%
X102610000Y-95185000D03*
X108390000Y-95185000D03*
D18*
X102300000Y-94065000D03*
X103100000Y-94065000D03*
D19*
X104250000Y-94065000D03*
X105250000Y-94065000D03*
X105750000Y-94065000D03*
X106750000Y-94065000D03*
D18*
X107900000Y-94065000D03*
X108700000Y-94065000D03*
X108700000Y-94065000D03*
X107900000Y-94065000D03*
D19*
X107250000Y-94065000D03*
X106250000Y-94065000D03*
X104750000Y-94065000D03*
X103750000Y-94065000D03*
D18*
X103100000Y-94065000D03*
X102300000Y-94065000D03*
D20*
X101180000Y-94665000D03*
D21*
X101180000Y-98865000D03*
D20*
X109820000Y-94665000D03*
D21*
X109820000Y-98865000D03*
%TD*%
D11*
%TO.C,C4*%
X108400000Y-80880000D03*
X108400000Y-79920000D03*
%TD*%
D22*
%TO.C,U1*%
X109000001Y-71500001D03*
D23*
X109199998Y-70600000D03*
X108549999Y-70275000D03*
X109199998Y-69950000D03*
X108549999Y-69625000D03*
X109199998Y-69300000D03*
D22*
X109000001Y-68400000D03*
D23*
X108100000Y-68200000D03*
X107775000Y-68850000D03*
X107450000Y-68200000D03*
X107125000Y-68850000D03*
X106800000Y-68200000D03*
X106475000Y-68850000D03*
X106150000Y-68200000D03*
X105825000Y-68850000D03*
X105500000Y-68200000D03*
X105175000Y-68850000D03*
X104850000Y-68200000D03*
X104525000Y-68850000D03*
X104200000Y-68200000D03*
X103875000Y-68850000D03*
X103550000Y-68200000D03*
X103225000Y-68850000D03*
X102900000Y-68200000D03*
D22*
X102000000Y-68400000D03*
D23*
X101800000Y-69300000D03*
X102450000Y-69625000D03*
X101800000Y-69950000D03*
X102450000Y-70275000D03*
X101800000Y-70600000D03*
D22*
X102000000Y-71500001D03*
D23*
X102900000Y-71699998D03*
X103225000Y-71049999D03*
X103550000Y-71699998D03*
X103875000Y-71049999D03*
X104200000Y-71699998D03*
X104525000Y-71049999D03*
X104850000Y-71699998D03*
X105175000Y-71049999D03*
X105500000Y-71699998D03*
X105825000Y-71049999D03*
X106150000Y-71699998D03*
X106475000Y-71049999D03*
X106800000Y-71699998D03*
X107125000Y-71049999D03*
X107450000Y-71699998D03*
X107775000Y-71049999D03*
X108100000Y-71699998D03*
X103225000Y-70275000D03*
X103875000Y-70275000D03*
X104525000Y-70275000D03*
X105175000Y-70275000D03*
X105825000Y-70275000D03*
X106475000Y-70275000D03*
X107125000Y-70275000D03*
X107775000Y-70275000D03*
X103225000Y-69625000D03*
X103875000Y-69625000D03*
X104525000Y-69625000D03*
X105175000Y-69625000D03*
X105825000Y-69625000D03*
X106475000Y-69625000D03*
X107125000Y-69625000D03*
X107775000Y-69625000D03*
X109199998Y-67450000D03*
X109199998Y-66450000D03*
X109199998Y-65450000D03*
D22*
X109000001Y-64500000D03*
D23*
X108000000Y-64299500D03*
X107000000Y-64299500D03*
X106000000Y-64299500D03*
X105000000Y-64299500D03*
X104000000Y-64299500D03*
X103000000Y-64299500D03*
D22*
X102000000Y-64500000D03*
D23*
X101800000Y-65450000D03*
X101800000Y-66450000D03*
X101800000Y-67450000D03*
%TD*%
D12*
%TO.C,R2*%
X106400000Y-92110000D03*
X106400000Y-91090000D03*
%TD*%
D24*
%TO.C,U2*%
X102237500Y-75750000D03*
X102237500Y-76250000D03*
X102237500Y-76750000D03*
X102237500Y-77250000D03*
D25*
X102900000Y-77412500D03*
X103400000Y-77412500D03*
X103900000Y-77412500D03*
D24*
X104562500Y-77250000D03*
X104562500Y-76750000D03*
X104562500Y-76250000D03*
X104562500Y-75750000D03*
D25*
X103900000Y-75587500D03*
X103400000Y-75587500D03*
X102900000Y-75587500D03*
%TD*%
D12*
%TO.C,R1*%
X104600000Y-92110000D03*
X104600000Y-91090000D03*
%TD*%
D11*
%TO.C,C10*%
X105800000Y-89480000D03*
X105800000Y-88520000D03*
%TD*%
D12*
%TO.C,R6*%
X101600000Y-80910000D03*
X101600000Y-79890000D03*
%TD*%
%TO.C,R5*%
X109600000Y-88010000D03*
X109600000Y-86990000D03*
%TD*%
D10*
%TO.C,C6*%
X107640000Y-78950000D03*
X108600000Y-78950000D03*
%TD*%
D14*
%TO.C,J2*%
X102200000Y-89950000D03*
X102200000Y-92150000D03*
%TD*%
D12*
%TO.C,R8*%
X101800000Y-89510000D03*
X101800000Y-88490000D03*
%TD*%
D10*
%TO.C,C7*%
X102920000Y-74000000D03*
X103880000Y-74000000D03*
%TD*%
D11*
%TO.C,C2*%
X107000000Y-85880000D03*
X107000000Y-84920000D03*
%TD*%
%TO.C,C1*%
X109000000Y-83480000D03*
X109000000Y-82520000D03*
%TD*%
M02*
