%TF.GenerationSoftware,KiCad,Pcbnew,10.0.3*%
%TF.CreationDate,2026-08-29T19:24:50-04:00*%
%TF.ProjectId,pen-mixer,70656e2d-6d69-4786-9572-2e6b69636164,rev?*%
%TF.SameCoordinates,Original*%
%TF.FileFunction,Copper,L3,Inr*%
%TF.FilePolarity,Positive*%
%FSLAX46Y46*%
G04 Gerber Fmt 4.6, Leading zero omitted, Abs format (unit mm)*
G04 Created by KiCad (PCBNEW 10.0.3) date 2026-08-29 19:24:50*
%MOMM*%
%LPD*%
G01*
G04 APERTURE LIST*
%TA.AperFunction,ComponentPad*%
%ADD10O,1.000000X2.100000*%
%TD*%
%TA.AperFunction,ComponentPad*%
%ADD11O,1.000000X1.800000*%
%TD*%
%TA.AperFunction,ViaPad*%
%ADD12C,0.450000*%
%TD*%
%TA.AperFunction,Conductor*%
%ADD13C,0.150000*%
%TD*%
G04 APERTURE END LIST*
D10*
%TO.N,GND*%
%TO.C,J1*%
X96925200Y-77150200D03*
D11*
X96925200Y-81350200D03*
D10*
X105565200Y-77150200D03*
D11*
X105565200Y-81350200D03*
%TD*%
D12*
%TO.N,+3V3*%
X105789700Y-50014900D03*
X97027500Y-51936200D03*
X105864000Y-71664300D03*
X103385000Y-60805200D03*
X100065000Y-57606900D03*
%TO.N,GND*%
X98402500Y-55131200D03*
X96936500Y-65601000D03*
X102097000Y-64837300D03*
X103287200Y-50002000D03*
%TO.N,VBAT*%
X103067000Y-69787200D03*
X98148600Y-70055200D03*
X101245000Y-80934600D03*
%TO.N,VBAT_SENSE*%
X97461900Y-70376600D03*
X100658000Y-71965200D03*
X100758000Y-54714400D03*
%TO.N,SCL*%
X105470000Y-52309600D03*
X99543900Y-59150100D03*
X99543900Y-63968300D03*
%TO.N,LED_A*%
X104253000Y-67867400D03*
X98695800Y-68447100D03*
%TO.N,USB_DP*%
X105995000Y-53298500D03*
X101245000Y-77498600D03*
%TO.N,USB_DM*%
X102676000Y-50166100D03*
X101338000Y-75612600D03*
%TO.N,IMU_INT1*%
X97332100Y-58830500D03*
X105312000Y-55275500D03*
%TO.N,IMU_INT2*%
X100955000Y-59075700D03*
X105468000Y-52958500D03*
%TO.N,SWDIO*%
X97001300Y-55686700D03*
X97251600Y-64514900D03*
%TO.N,SWDCLK*%
X98050300Y-64516700D03*
X97187600Y-55141000D03*
%TO.N,SDA*%
X99135300Y-54711500D03*
X97829000Y-62911400D03*
%TD*%
%TO.N,+3V3*%
D13*
X105785200Y-50015200D02*
X106415200Y-50735200D01*
X106415200Y-59735200D02*
X103385200Y-60805200D01*
X106415200Y-50735200D02*
X106415200Y-59735200D01*
%TO.N,GND*%
X105565000Y-81350200D02*
X105565000Y-77150200D01*
X96925200Y-65612300D02*
X96936500Y-65601000D01*
X96925200Y-77150200D02*
X96925200Y-65612300D01*
X105565200Y-81350200D02*
X105565000Y-81350200D01*
%TO.N,VBAT_SENSE*%
X99141600Y-66914100D02*
X97461900Y-68593800D01*
X99141600Y-56330500D02*
X99141600Y-66914100D01*
X100758000Y-54714400D02*
X99141600Y-56330500D01*
X97461900Y-68593800D02*
X97461900Y-70376600D01*
%TO.N,SCL*%
X99543900Y-59150100D02*
X99543900Y-63968300D01*
%TO.N,USB_DM*%
X102674000Y-74275900D02*
X102674000Y-50167700D01*
X102674000Y-50167700D02*
X102676000Y-50166100D01*
X101338000Y-75612600D02*
X102674000Y-74275900D01*
%TD*%
M02*
