%TF.GenerationSoftware,KiCad,Pcbnew,10.0.3*%
%TF.CreationDate,2026-08-29T19:24:50-04:00*%
%TF.ProjectId,pen-mixer,70656e2d-6d69-4786-9572-2e6b69636164,rev?*%
%TF.SameCoordinates,Original*%
%TF.FileFunction,Copper,L4,Bot*%
%TF.FilePolarity,Positive*%
%FSLAX46Y46*%
G04 Gerber Fmt 4.6, Leading zero omitted, Abs format (unit mm)*
G04 Created by KiCad (PCBNEW 10.0.3) date 2026-08-29 19:24:50*
%MOMM*%
%LPD*%
G01*
G04 APERTURE LIST*
%TA.AperFunction,ComponentPad*%
%ADD10O,1.000000X2.100000*%
%TD*%
%TA.AperFunction,ComponentPad*%
%ADD11O,1.000000X1.800000*%
%TD*%
%TA.AperFunction,SMDPad,CuDef*%
%ADD12R,1.000000X1.000000*%
%TD*%
%TA.AperFunction,SMDPad,CuDef*%
%ADD13R,1.400000X1.200000*%
%TD*%
%TA.AperFunction,ViaPad*%
%ADD14C,0.450000*%
%TD*%
%TA.AperFunction,Conductor*%
%ADD15C,0.150000*%
%TD*%
G04 APERTURE END LIST*
D10*
%TO.P,J1,SH*%
%TO.N,GND*%
X96925200Y-77150200D03*
D11*
X96925200Y-81350200D03*
D10*
X105565200Y-77150200D03*
D11*
X105565200Y-81350200D03*
%TD*%
D12*
%TO.P,TP2,1*%
%TO.N,SWDCLK*%
X100095200Y-43935200D03*
%TD*%
%TO.P,TP5,1*%
%TO.N,+3V3*%
X104495200Y-43935200D03*
%TD*%
%TO.P,TP4,1*%
%TO.N,GND*%
X102295200Y-43935200D03*
%TD*%
D13*
%TO.P,J2,1*%
%TO.N,VBAT*%
X102345200Y-83435200D03*
%TO.P,J2,2*%
%TO.N,GND*%
X100145200Y-83435200D03*
%TD*%
D12*
%TO.P,TP1,1*%
%TO.N,SWDIO*%
X97895200Y-43935200D03*
%TD*%
D14*
%TO.N,+3V3*%
X105789700Y-50014900D03*
X97027500Y-51936200D03*
X105864000Y-71664300D03*
X103385000Y-60805200D03*
X100065000Y-57606900D03*
%TO.N,GND*%
X98402500Y-55131200D03*
X96936500Y-65601000D03*
X102097000Y-64837300D03*
X103287200Y-50002000D03*
%TO.N,VBAT*%
X103067000Y-69787200D03*
X98148600Y-70055200D03*
X101245000Y-80934600D03*
%TO.N,VBAT_SENSE*%
X97461900Y-70376600D03*
X100658000Y-71965200D03*
X100758000Y-54714400D03*
%TO.N,SCL*%
X105470000Y-52309600D03*
X99543900Y-59150100D03*
X99543900Y-63968300D03*
%TO.N,LED_A*%
X104253000Y-67867400D03*
X98695800Y-68447100D03*
%TO.N,USB_DP*%
X105995000Y-53298500D03*
X101245000Y-77498600D03*
%TO.N,USB_DM*%
X102676000Y-50166100D03*
X101338000Y-75612600D03*
%TO.N,IMU_INT1*%
X97332100Y-58830500D03*
X105312000Y-55275500D03*
%TO.N,IMU_INT2*%
X100955000Y-59075700D03*
X105468000Y-52958500D03*
%TO.N,SWDIO*%
X97001300Y-55686700D03*
X97251600Y-64514900D03*
%TO.N,SWDCLK*%
X98050300Y-64516700D03*
X97187600Y-55141000D03*
%TO.N,SDA*%
X99135300Y-54711500D03*
X97829000Y-62911400D03*
%TD*%
%TO.N,+3V3*%
D15*
X105789700Y-45896400D02*
X104495200Y-44601900D01*
X104495200Y-43935200D02*
X105785200Y-45895200D01*
X100745000Y-60805200D02*
X103385000Y-60805200D01*
X100745000Y-60805200D02*
X100065000Y-60124700D01*
X105789700Y-50014900D02*
X105789700Y-45896400D01*
X105864000Y-71664300D02*
X103184000Y-68985200D01*
X104495200Y-43935200D02*
X104495200Y-44601900D01*
X103184000Y-68985200D02*
X100745000Y-68985200D01*
X100065000Y-60124700D02*
X100065000Y-57606900D01*
X100745000Y-68985200D02*
X100745000Y-60805200D01*
%TO.N,GND*%
X96925200Y-81350200D02*
X98826900Y-81350200D01*
X103078000Y-66485200D02*
X103078000Y-65818500D01*
X103078000Y-65818500D02*
X102097000Y-64837300D01*
X98826900Y-81350200D02*
X100145000Y-82668500D01*
X102295200Y-44601900D02*
X103287200Y-45593900D01*
X100145200Y-83435200D02*
X100145000Y-83435200D01*
X100145000Y-83435200D02*
X100145000Y-82668500D01*
X103287200Y-45593900D02*
X103287200Y-50002000D01*
X102295200Y-43935200D02*
X102295200Y-44601900D01*
%TO.N,VBAT*%
X102345200Y-83435200D02*
X102345000Y-83435200D01*
X101245000Y-81568500D02*
X102345000Y-82668500D01*
X102345000Y-83435200D02*
X102345000Y-82668500D01*
X101245000Y-80934600D02*
X101245000Y-81568500D01*
%TO.N,IMU_INT1*%
X100887000Y-55275500D02*
X97332100Y-58830500D01*
X105312000Y-55275500D02*
X100887000Y-55275500D01*
%TO.N,SWDIO*%
X97895200Y-43935200D02*
X97895200Y-55335200D01*
X97003700Y-55686700D02*
X97005200Y-55685200D01*
X97001300Y-55686700D02*
X97003700Y-55686700D01*
X97895200Y-55335200D02*
X97005200Y-55685200D01*
X97251600Y-65324900D02*
X97251600Y-64514900D01*
X97745200Y-65818500D02*
X97251600Y-65324900D01*
%TO.N,SWDCLK*%
X100095200Y-43935200D02*
X100095200Y-44601900D01*
X100095200Y-54358400D02*
X100095200Y-44601900D01*
X96599600Y-55917400D02*
X96781700Y-56099500D01*
X99352100Y-65818500D02*
X98050300Y-64516700D01*
X97187600Y-55141000D02*
X96947600Y-55141000D01*
X96947600Y-55141000D02*
X96599600Y-55489000D01*
X96781700Y-56099500D02*
X98354100Y-56099500D01*
X99745200Y-65818500D02*
X99352100Y-65818500D01*
X96599600Y-55489000D02*
X96599600Y-55917400D01*
X98354100Y-56099500D02*
X100095200Y-54358400D01*
%TD*%
M02*
