%TF.GenerationSoftware,KiCad,Pcbnew,10.0.3*%
%TF.CreationDate,2026-08-29T17:36:07-04:00*%
%TF.ProjectId,pen-mixer,70656e2d-6d69-4786-9572-2e6b69636164,rev?*%
%TF.SameCoordinates,Original*%
%TF.FileFunction,AssemblyDrawing,Bot*%
%FSLAX46Y46*%
G04 Gerber Fmt 4.6, Leading zero omitted, Abs format (unit mm)*
G04 Created by KiCad (PCBNEW 10.0.3) date 2026-08-29 17:36:07*
%MOMM*%
%LPD*%
G01*
G04 APERTURE LIST*
%ADD10C,0.080000*%
G04 APERTURE END LIST*
D10*
X104630951Y-85327149D02*
X104345237Y-85327149D01*
X104488094Y-85827149D02*
X104488094Y-85327149D01*
X104178571Y-85827149D02*
X104178571Y-85327149D01*
X104178571Y-85327149D02*
X103988095Y-85327149D01*
X103988095Y-85327149D02*
X103940476Y-85350959D01*
X103940476Y-85350959D02*
X103916666Y-85374768D01*
X103916666Y-85374768D02*
X103892857Y-85422387D01*
X103892857Y-85422387D02*
X103892857Y-85493816D01*
X103892857Y-85493816D02*
X103916666Y-85541435D01*
X103916666Y-85541435D02*
X103940476Y-85565244D01*
X103940476Y-85565244D02*
X103988095Y-85589054D01*
X103988095Y-85589054D02*
X104178571Y-85589054D01*
X103702380Y-85374768D02*
X103678571Y-85350959D01*
X103678571Y-85350959D02*
X103630952Y-85327149D01*
X103630952Y-85327149D02*
X103511904Y-85327149D01*
X103511904Y-85327149D02*
X103464285Y-85350959D01*
X103464285Y-85350959D02*
X103440476Y-85374768D01*
X103440476Y-85374768D02*
X103416666Y-85422387D01*
X103416666Y-85422387D02*
X103416666Y-85470006D01*
X103416666Y-85470006D02*
X103440476Y-85541435D01*
X103440476Y-85541435D02*
X103726190Y-85827149D01*
X103726190Y-85827149D02*
X103416666Y-85827149D01*
X105630951Y-87827149D02*
X105345237Y-87827149D01*
X105488094Y-88327149D02*
X105488094Y-87827149D01*
X105178571Y-88327149D02*
X105178571Y-87827149D01*
X105178571Y-87827149D02*
X104988095Y-87827149D01*
X104988095Y-87827149D02*
X104940476Y-87850959D01*
X104940476Y-87850959D02*
X104916666Y-87874768D01*
X104916666Y-87874768D02*
X104892857Y-87922387D01*
X104892857Y-87922387D02*
X104892857Y-87993816D01*
X104892857Y-87993816D02*
X104916666Y-88041435D01*
X104916666Y-88041435D02*
X104940476Y-88065244D01*
X104940476Y-88065244D02*
X104988095Y-88089054D01*
X104988095Y-88089054D02*
X105178571Y-88089054D01*
X104440476Y-87827149D02*
X104678571Y-87827149D01*
X104678571Y-87827149D02*
X104702380Y-88065244D01*
X104702380Y-88065244D02*
X104678571Y-88041435D01*
X104678571Y-88041435D02*
X104630952Y-88017625D01*
X104630952Y-88017625D02*
X104511904Y-88017625D01*
X104511904Y-88017625D02*
X104464285Y-88041435D01*
X104464285Y-88041435D02*
X104440476Y-88065244D01*
X104440476Y-88065244D02*
X104416666Y-88112863D01*
X104416666Y-88112863D02*
X104416666Y-88231911D01*
X104416666Y-88231911D02*
X104440476Y-88279530D01*
X104440476Y-88279530D02*
X104464285Y-88303340D01*
X104464285Y-88303340D02*
X104511904Y-88327149D01*
X104511904Y-88327149D02*
X104630952Y-88327149D01*
X104630952Y-88327149D02*
X104678571Y-88303340D01*
X104678571Y-88303340D02*
X104702380Y-88279530D01*
X108630951Y-85327149D02*
X108345237Y-85327149D01*
X108488094Y-85827149D02*
X108488094Y-85327149D01*
X108178571Y-85827149D02*
X108178571Y-85327149D01*
X108178571Y-85327149D02*
X107988095Y-85327149D01*
X107988095Y-85327149D02*
X107940476Y-85350959D01*
X107940476Y-85350959D02*
X107916666Y-85374768D01*
X107916666Y-85374768D02*
X107892857Y-85422387D01*
X107892857Y-85422387D02*
X107892857Y-85493816D01*
X107892857Y-85493816D02*
X107916666Y-85541435D01*
X107916666Y-85541435D02*
X107940476Y-85565244D01*
X107940476Y-85565244D02*
X107988095Y-85589054D01*
X107988095Y-85589054D02*
X108178571Y-85589054D01*
X107464285Y-85493816D02*
X107464285Y-85827149D01*
X107583333Y-85303340D02*
X107702380Y-85660482D01*
X107702380Y-85660482D02*
X107392857Y-85660482D01*
X102630951Y-85327149D02*
X102345237Y-85327149D01*
X102488094Y-85827149D02*
X102488094Y-85327149D01*
X102178571Y-85827149D02*
X102178571Y-85327149D01*
X102178571Y-85327149D02*
X101988095Y-85327149D01*
X101988095Y-85327149D02*
X101940476Y-85350959D01*
X101940476Y-85350959D02*
X101916666Y-85374768D01*
X101916666Y-85374768D02*
X101892857Y-85422387D01*
X101892857Y-85422387D02*
X101892857Y-85493816D01*
X101892857Y-85493816D02*
X101916666Y-85541435D01*
X101916666Y-85541435D02*
X101940476Y-85565244D01*
X101940476Y-85565244D02*
X101988095Y-85589054D01*
X101988095Y-85589054D02*
X102178571Y-85589054D01*
X101416666Y-85827149D02*
X101702380Y-85827149D01*
X101559523Y-85827149D02*
X101559523Y-85327149D01*
X101559523Y-85327149D02*
X101607142Y-85398578D01*
X101607142Y-85398578D02*
X101654761Y-85446197D01*
X101654761Y-85446197D02*
X101702380Y-85470006D01*
M02*
