%TF.GenerationSoftware,KiCad,Pcbnew,10.0.3*%
%TF.CreationDate,2026-08-29T17:36:07-04:00*%
%TF.ProjectId,pen-mixer,70656e2d-6d69-4786-9572-2e6b69636164,rev?*%
%TF.SameCoordinates,Original*%
%TF.FileFunction,AssemblyDrawing,Top*%
%FSLAX46Y46*%
G04 Gerber Fmt 4.6, Leading zero omitted, Abs format (unit mm)*
G04 Created by KiCad (PCBNEW 10.0.3) date 2026-08-29 17:36:07*
%MOMM*%
%LPD*%
G01*
G04 APERTURE LIST*
%ADD10C,0.080000*%
%ADD11C,0.040000*%
%ADD12C,0.110000*%
%ADD13C,0.150000*%
%ADD14C,0.100000*%
G04 APERTURE END LIST*
D10*
X108036666Y-72119530D02*
X108012857Y-72143340D01*
X108012857Y-72143340D02*
X107941428Y-72167149D01*
X107941428Y-72167149D02*
X107893809Y-72167149D01*
X107893809Y-72167149D02*
X107822381Y-72143340D01*
X107822381Y-72143340D02*
X107774762Y-72095720D01*
X107774762Y-72095720D02*
X107750952Y-72048101D01*
X107750952Y-72048101D02*
X107727143Y-71952863D01*
X107727143Y-71952863D02*
X107727143Y-71881435D01*
X107727143Y-71881435D02*
X107750952Y-71786197D01*
X107750952Y-71786197D02*
X107774762Y-71738578D01*
X107774762Y-71738578D02*
X107822381Y-71690959D01*
X107822381Y-71690959D02*
X107893809Y-71667149D01*
X107893809Y-71667149D02*
X107941428Y-71667149D01*
X107941428Y-71667149D02*
X108012857Y-71690959D01*
X108012857Y-71690959D02*
X108036666Y-71714768D01*
X108489047Y-71667149D02*
X108250952Y-71667149D01*
X108250952Y-71667149D02*
X108227143Y-71905244D01*
X108227143Y-71905244D02*
X108250952Y-71881435D01*
X108250952Y-71881435D02*
X108298571Y-71857625D01*
X108298571Y-71857625D02*
X108417619Y-71857625D01*
X108417619Y-71857625D02*
X108465238Y-71881435D01*
X108465238Y-71881435D02*
X108489047Y-71905244D01*
X108489047Y-71905244D02*
X108512857Y-71952863D01*
X108512857Y-71952863D02*
X108512857Y-72071911D01*
X108512857Y-72071911D02*
X108489047Y-72119530D01*
X108489047Y-72119530D02*
X108465238Y-72143340D01*
X108465238Y-72143340D02*
X108417619Y-72167149D01*
X108417619Y-72167149D02*
X108298571Y-72167149D01*
X108298571Y-72167149D02*
X108250952Y-72143340D01*
X108250952Y-72143340D02*
X108227143Y-72119530D01*
D11*
X108078333Y-73189765D02*
X108066429Y-73201670D01*
X108066429Y-73201670D02*
X108030714Y-73213574D01*
X108030714Y-73213574D02*
X108006905Y-73213574D01*
X108006905Y-73213574D02*
X107971191Y-73201670D01*
X107971191Y-73201670D02*
X107947381Y-73177860D01*
X107947381Y-73177860D02*
X107935476Y-73154050D01*
X107935476Y-73154050D02*
X107923572Y-73106431D01*
X107923572Y-73106431D02*
X107923572Y-73070717D01*
X107923572Y-73070717D02*
X107935476Y-73023098D01*
X107935476Y-73023098D02*
X107947381Y-72999289D01*
X107947381Y-72999289D02*
X107971191Y-72975479D01*
X107971191Y-72975479D02*
X108006905Y-72963574D01*
X108006905Y-72963574D02*
X108030714Y-72963574D01*
X108030714Y-72963574D02*
X108066429Y-72975479D01*
X108066429Y-72975479D02*
X108078333Y-72987384D01*
X108304524Y-72963574D02*
X108185476Y-72963574D01*
X108185476Y-72963574D02*
X108173572Y-73082622D01*
X108173572Y-73082622D02*
X108185476Y-73070717D01*
X108185476Y-73070717D02*
X108209286Y-73058812D01*
X108209286Y-73058812D02*
X108268810Y-73058812D01*
X108268810Y-73058812D02*
X108292619Y-73070717D01*
X108292619Y-73070717D02*
X108304524Y-73082622D01*
X108304524Y-73082622D02*
X108316429Y-73106431D01*
X108316429Y-73106431D02*
X108316429Y-73165955D01*
X108316429Y-73165955D02*
X108304524Y-73189765D01*
X108304524Y-73189765D02*
X108292619Y-73201670D01*
X108292619Y-73201670D02*
X108268810Y-73213574D01*
X108268810Y-73213574D02*
X108209286Y-73213574D01*
X108209286Y-73213574D02*
X108185476Y-73201670D01*
X108185476Y-73201670D02*
X108173572Y-73189765D01*
D10*
X105019530Y-80483333D02*
X105043340Y-80507142D01*
X105043340Y-80507142D02*
X105067149Y-80578571D01*
X105067149Y-80578571D02*
X105067149Y-80626190D01*
X105067149Y-80626190D02*
X105043340Y-80697618D01*
X105043340Y-80697618D02*
X104995720Y-80745237D01*
X104995720Y-80745237D02*
X104948101Y-80769047D01*
X104948101Y-80769047D02*
X104852863Y-80792856D01*
X104852863Y-80792856D02*
X104781435Y-80792856D01*
X104781435Y-80792856D02*
X104686197Y-80769047D01*
X104686197Y-80769047D02*
X104638578Y-80745237D01*
X104638578Y-80745237D02*
X104590959Y-80697618D01*
X104590959Y-80697618D02*
X104567149Y-80626190D01*
X104567149Y-80626190D02*
X104567149Y-80578571D01*
X104567149Y-80578571D02*
X104590959Y-80507142D01*
X104590959Y-80507142D02*
X104614768Y-80483333D01*
X104567149Y-80316666D02*
X104567149Y-80007142D01*
X104567149Y-80007142D02*
X104757625Y-80173809D01*
X104757625Y-80173809D02*
X104757625Y-80102380D01*
X104757625Y-80102380D02*
X104781435Y-80054761D01*
X104781435Y-80054761D02*
X104805244Y-80030952D01*
X104805244Y-80030952D02*
X104852863Y-80007142D01*
X104852863Y-80007142D02*
X104971911Y-80007142D01*
X104971911Y-80007142D02*
X105019530Y-80030952D01*
X105019530Y-80030952D02*
X105043340Y-80054761D01*
X105043340Y-80054761D02*
X105067149Y-80102380D01*
X105067149Y-80102380D02*
X105067149Y-80245237D01*
X105067149Y-80245237D02*
X105043340Y-80292856D01*
X105043340Y-80292856D02*
X105019530Y-80316666D01*
D11*
X106089765Y-80441666D02*
X106101670Y-80453570D01*
X106101670Y-80453570D02*
X106113574Y-80489285D01*
X106113574Y-80489285D02*
X106113574Y-80513094D01*
X106113574Y-80513094D02*
X106101670Y-80548808D01*
X106101670Y-80548808D02*
X106077860Y-80572618D01*
X106077860Y-80572618D02*
X106054050Y-80584523D01*
X106054050Y-80584523D02*
X106006431Y-80596427D01*
X106006431Y-80596427D02*
X105970717Y-80596427D01*
X105970717Y-80596427D02*
X105923098Y-80584523D01*
X105923098Y-80584523D02*
X105899289Y-80572618D01*
X105899289Y-80572618D02*
X105875479Y-80548808D01*
X105875479Y-80548808D02*
X105863574Y-80513094D01*
X105863574Y-80513094D02*
X105863574Y-80489285D01*
X105863574Y-80489285D02*
X105875479Y-80453570D01*
X105875479Y-80453570D02*
X105887384Y-80441666D01*
X105863574Y-80358332D02*
X105863574Y-80203570D01*
X105863574Y-80203570D02*
X105958812Y-80286904D01*
X105958812Y-80286904D02*
X105958812Y-80251189D01*
X105958812Y-80251189D02*
X105970717Y-80227380D01*
X105970717Y-80227380D02*
X105982622Y-80215475D01*
X105982622Y-80215475D02*
X106006431Y-80203570D01*
X106006431Y-80203570D02*
X106065955Y-80203570D01*
X106065955Y-80203570D02*
X106089765Y-80215475D01*
X106089765Y-80215475D02*
X106101670Y-80227380D01*
X106101670Y-80227380D02*
X106113574Y-80251189D01*
X106113574Y-80251189D02*
X106113574Y-80322618D01*
X106113574Y-80322618D02*
X106101670Y-80346427D01*
X106101670Y-80346427D02*
X106089765Y-80358332D01*
D10*
X102857149Y-89083333D02*
X102619054Y-89249999D01*
X102857149Y-89369047D02*
X102357149Y-89369047D01*
X102357149Y-89369047D02*
X102357149Y-89178571D01*
X102357149Y-89178571D02*
X102380959Y-89130952D01*
X102380959Y-89130952D02*
X102404768Y-89107142D01*
X102404768Y-89107142D02*
X102452387Y-89083333D01*
X102452387Y-89083333D02*
X102523816Y-89083333D01*
X102523816Y-89083333D02*
X102571435Y-89107142D01*
X102571435Y-89107142D02*
X102595244Y-89130952D01*
X102595244Y-89130952D02*
X102619054Y-89178571D01*
X102619054Y-89178571D02*
X102619054Y-89369047D01*
X102857149Y-88845237D02*
X102857149Y-88749999D01*
X102857149Y-88749999D02*
X102833340Y-88702380D01*
X102833340Y-88702380D02*
X102809530Y-88678571D01*
X102809530Y-88678571D02*
X102738101Y-88630952D01*
X102738101Y-88630952D02*
X102642863Y-88607142D01*
X102642863Y-88607142D02*
X102452387Y-88607142D01*
X102452387Y-88607142D02*
X102404768Y-88630952D01*
X102404768Y-88630952D02*
X102380959Y-88654761D01*
X102380959Y-88654761D02*
X102357149Y-88702380D01*
X102357149Y-88702380D02*
X102357149Y-88797618D01*
X102357149Y-88797618D02*
X102380959Y-88845237D01*
X102380959Y-88845237D02*
X102404768Y-88869047D01*
X102404768Y-88869047D02*
X102452387Y-88892856D01*
X102452387Y-88892856D02*
X102571435Y-88892856D01*
X102571435Y-88892856D02*
X102619054Y-88869047D01*
X102619054Y-88869047D02*
X102642863Y-88845237D01*
X102642863Y-88845237D02*
X102666673Y-88797618D01*
X102666673Y-88797618D02*
X102666673Y-88702380D01*
X102666673Y-88702380D02*
X102642863Y-88654761D01*
X102642863Y-88654761D02*
X102619054Y-88630952D01*
X102619054Y-88630952D02*
X102571435Y-88607142D01*
D11*
X103918200Y-89043332D02*
X103794391Y-89129999D01*
X103918200Y-89191904D02*
X103658200Y-89191904D01*
X103658200Y-89191904D02*
X103658200Y-89092856D01*
X103658200Y-89092856D02*
X103670581Y-89068094D01*
X103670581Y-89068094D02*
X103682962Y-89055713D01*
X103682962Y-89055713D02*
X103707724Y-89043332D01*
X103707724Y-89043332D02*
X103744867Y-89043332D01*
X103744867Y-89043332D02*
X103769629Y-89055713D01*
X103769629Y-89055713D02*
X103782010Y-89068094D01*
X103782010Y-89068094D02*
X103794391Y-89092856D01*
X103794391Y-89092856D02*
X103794391Y-89191904D01*
X103918200Y-88919523D02*
X103918200Y-88869999D01*
X103918200Y-88869999D02*
X103905820Y-88845237D01*
X103905820Y-88845237D02*
X103893439Y-88832856D01*
X103893439Y-88832856D02*
X103856296Y-88808094D01*
X103856296Y-88808094D02*
X103806772Y-88795713D01*
X103806772Y-88795713D02*
X103707724Y-88795713D01*
X103707724Y-88795713D02*
X103682962Y-88808094D01*
X103682962Y-88808094D02*
X103670581Y-88820475D01*
X103670581Y-88820475D02*
X103658200Y-88845237D01*
X103658200Y-88845237D02*
X103658200Y-88894761D01*
X103658200Y-88894761D02*
X103670581Y-88919523D01*
X103670581Y-88919523D02*
X103682962Y-88931904D01*
X103682962Y-88931904D02*
X103707724Y-88944285D01*
X103707724Y-88944285D02*
X103769629Y-88944285D01*
X103769629Y-88944285D02*
X103794391Y-88931904D01*
X103794391Y-88931904D02*
X103806772Y-88919523D01*
X103806772Y-88919523D02*
X103819153Y-88894761D01*
X103819153Y-88894761D02*
X103819153Y-88845237D01*
X103819153Y-88845237D02*
X103806772Y-88820475D01*
X103806772Y-88820475D02*
X103794391Y-88808094D01*
X103794391Y-88808094D02*
X103769629Y-88795713D01*
D10*
X106819530Y-89083333D02*
X106843340Y-89107142D01*
X106843340Y-89107142D02*
X106867149Y-89178571D01*
X106867149Y-89178571D02*
X106867149Y-89226190D01*
X106867149Y-89226190D02*
X106843340Y-89297618D01*
X106843340Y-89297618D02*
X106795720Y-89345237D01*
X106795720Y-89345237D02*
X106748101Y-89369047D01*
X106748101Y-89369047D02*
X106652863Y-89392856D01*
X106652863Y-89392856D02*
X106581435Y-89392856D01*
X106581435Y-89392856D02*
X106486197Y-89369047D01*
X106486197Y-89369047D02*
X106438578Y-89345237D01*
X106438578Y-89345237D02*
X106390959Y-89297618D01*
X106390959Y-89297618D02*
X106367149Y-89226190D01*
X106367149Y-89226190D02*
X106367149Y-89178571D01*
X106367149Y-89178571D02*
X106390959Y-89107142D01*
X106390959Y-89107142D02*
X106414768Y-89083333D01*
X106867149Y-88845237D02*
X106867149Y-88749999D01*
X106867149Y-88749999D02*
X106843340Y-88702380D01*
X106843340Y-88702380D02*
X106819530Y-88678571D01*
X106819530Y-88678571D02*
X106748101Y-88630952D01*
X106748101Y-88630952D02*
X106652863Y-88607142D01*
X106652863Y-88607142D02*
X106462387Y-88607142D01*
X106462387Y-88607142D02*
X106414768Y-88630952D01*
X106414768Y-88630952D02*
X106390959Y-88654761D01*
X106390959Y-88654761D02*
X106367149Y-88702380D01*
X106367149Y-88702380D02*
X106367149Y-88797618D01*
X106367149Y-88797618D02*
X106390959Y-88845237D01*
X106390959Y-88845237D02*
X106414768Y-88869047D01*
X106414768Y-88869047D02*
X106462387Y-88892856D01*
X106462387Y-88892856D02*
X106581435Y-88892856D01*
X106581435Y-88892856D02*
X106629054Y-88869047D01*
X106629054Y-88869047D02*
X106652863Y-88845237D01*
X106652863Y-88845237D02*
X106676673Y-88797618D01*
X106676673Y-88797618D02*
X106676673Y-88702380D01*
X106676673Y-88702380D02*
X106652863Y-88654761D01*
X106652863Y-88654761D02*
X106629054Y-88630952D01*
X106629054Y-88630952D02*
X106581435Y-88607142D01*
D11*
X107889765Y-89041666D02*
X107901670Y-89053570D01*
X107901670Y-89053570D02*
X107913574Y-89089285D01*
X107913574Y-89089285D02*
X107913574Y-89113094D01*
X107913574Y-89113094D02*
X107901670Y-89148808D01*
X107901670Y-89148808D02*
X107877860Y-89172618D01*
X107877860Y-89172618D02*
X107854050Y-89184523D01*
X107854050Y-89184523D02*
X107806431Y-89196427D01*
X107806431Y-89196427D02*
X107770717Y-89196427D01*
X107770717Y-89196427D02*
X107723098Y-89184523D01*
X107723098Y-89184523D02*
X107699289Y-89172618D01*
X107699289Y-89172618D02*
X107675479Y-89148808D01*
X107675479Y-89148808D02*
X107663574Y-89113094D01*
X107663574Y-89113094D02*
X107663574Y-89089285D01*
X107663574Y-89089285D02*
X107675479Y-89053570D01*
X107675479Y-89053570D02*
X107687384Y-89041666D01*
X107913574Y-88922618D02*
X107913574Y-88874999D01*
X107913574Y-88874999D02*
X107901670Y-88851189D01*
X107901670Y-88851189D02*
X107889765Y-88839285D01*
X107889765Y-88839285D02*
X107854050Y-88815475D01*
X107854050Y-88815475D02*
X107806431Y-88803570D01*
X107806431Y-88803570D02*
X107711193Y-88803570D01*
X107711193Y-88803570D02*
X107687384Y-88815475D01*
X107687384Y-88815475D02*
X107675479Y-88827380D01*
X107675479Y-88827380D02*
X107663574Y-88851189D01*
X107663574Y-88851189D02*
X107663574Y-88898808D01*
X107663574Y-88898808D02*
X107675479Y-88922618D01*
X107675479Y-88922618D02*
X107687384Y-88934523D01*
X107687384Y-88934523D02*
X107711193Y-88946427D01*
X107711193Y-88946427D02*
X107770717Y-88946427D01*
X107770717Y-88946427D02*
X107794527Y-88934523D01*
X107794527Y-88934523D02*
X107806431Y-88922618D01*
X107806431Y-88922618D02*
X107818336Y-88898808D01*
X107818336Y-88898808D02*
X107818336Y-88851189D01*
X107818336Y-88851189D02*
X107806431Y-88827380D01*
X107806431Y-88827380D02*
X107794527Y-88815475D01*
X107794527Y-88815475D02*
X107770717Y-88803570D01*
D10*
X102457149Y-80483333D02*
X102219054Y-80649999D01*
X102457149Y-80769047D02*
X101957149Y-80769047D01*
X101957149Y-80769047D02*
X101957149Y-80578571D01*
X101957149Y-80578571D02*
X101980959Y-80530952D01*
X101980959Y-80530952D02*
X102004768Y-80507142D01*
X102004768Y-80507142D02*
X102052387Y-80483333D01*
X102052387Y-80483333D02*
X102123816Y-80483333D01*
X102123816Y-80483333D02*
X102171435Y-80507142D01*
X102171435Y-80507142D02*
X102195244Y-80530952D01*
X102195244Y-80530952D02*
X102219054Y-80578571D01*
X102219054Y-80578571D02*
X102219054Y-80769047D01*
X101957149Y-80316666D02*
X101957149Y-79983333D01*
X101957149Y-79983333D02*
X102457149Y-80197618D01*
D11*
X103518200Y-80443332D02*
X103394391Y-80529999D01*
X103518200Y-80591904D02*
X103258200Y-80591904D01*
X103258200Y-80591904D02*
X103258200Y-80492856D01*
X103258200Y-80492856D02*
X103270581Y-80468094D01*
X103270581Y-80468094D02*
X103282962Y-80455713D01*
X103282962Y-80455713D02*
X103307724Y-80443332D01*
X103307724Y-80443332D02*
X103344867Y-80443332D01*
X103344867Y-80443332D02*
X103369629Y-80455713D01*
X103369629Y-80455713D02*
X103382010Y-80468094D01*
X103382010Y-80468094D02*
X103394391Y-80492856D01*
X103394391Y-80492856D02*
X103394391Y-80591904D01*
X103258200Y-80356666D02*
X103258200Y-80183332D01*
X103258200Y-80183332D02*
X103518200Y-80294761D01*
D10*
X102819047Y-80927149D02*
X102819047Y-81331911D01*
X102819047Y-81331911D02*
X102842857Y-81379530D01*
X102842857Y-81379530D02*
X102866666Y-81403340D01*
X102866666Y-81403340D02*
X102914285Y-81427149D01*
X102914285Y-81427149D02*
X103009523Y-81427149D01*
X103009523Y-81427149D02*
X103057142Y-81403340D01*
X103057142Y-81403340D02*
X103080952Y-81379530D01*
X103080952Y-81379530D02*
X103104761Y-81331911D01*
X103104761Y-81331911D02*
X103104761Y-80927149D01*
X103295238Y-80927149D02*
X103604762Y-80927149D01*
X103604762Y-80927149D02*
X103438095Y-81117625D01*
X103438095Y-81117625D02*
X103509524Y-81117625D01*
X103509524Y-81117625D02*
X103557143Y-81141435D01*
X103557143Y-81141435D02*
X103580952Y-81165244D01*
X103580952Y-81165244D02*
X103604762Y-81212863D01*
X103604762Y-81212863D02*
X103604762Y-81331911D01*
X103604762Y-81331911D02*
X103580952Y-81379530D01*
X103580952Y-81379530D02*
X103557143Y-81403340D01*
X103557143Y-81403340D02*
X103509524Y-81427149D01*
X103509524Y-81427149D02*
X103366667Y-81427149D01*
X103366667Y-81427149D02*
X103319048Y-81403340D01*
X103319048Y-81403340D02*
X103295238Y-81379530D01*
D12*
X102807365Y-84148571D02*
X103390222Y-84148571D01*
X103390222Y-84148571D02*
X103458794Y-84114285D01*
X103458794Y-84114285D02*
X103493080Y-84080000D01*
X103493080Y-84080000D02*
X103527365Y-84011428D01*
X103527365Y-84011428D02*
X103527365Y-83874285D01*
X103527365Y-83874285D02*
X103493080Y-83805714D01*
X103493080Y-83805714D02*
X103458794Y-83771428D01*
X103458794Y-83771428D02*
X103390222Y-83737142D01*
X103390222Y-83737142D02*
X102807365Y-83737142D01*
X102807365Y-83462856D02*
X102807365Y-83017142D01*
X102807365Y-83017142D02*
X103081651Y-83257142D01*
X103081651Y-83257142D02*
X103081651Y-83154285D01*
X103081651Y-83154285D02*
X103115937Y-83085714D01*
X103115937Y-83085714D02*
X103150222Y-83051428D01*
X103150222Y-83051428D02*
X103218794Y-83017142D01*
X103218794Y-83017142D02*
X103390222Y-83017142D01*
X103390222Y-83017142D02*
X103458794Y-83051428D01*
X103458794Y-83051428D02*
X103493080Y-83085714D01*
X103493080Y-83085714D02*
X103527365Y-83154285D01*
X103527365Y-83154285D02*
X103527365Y-83359999D01*
X103527365Y-83359999D02*
X103493080Y-83428571D01*
X103493080Y-83428571D02*
X103458794Y-83462856D01*
D10*
X109033333Y-88727149D02*
X109033333Y-89084292D01*
X109033333Y-89084292D02*
X109009524Y-89155720D01*
X109009524Y-89155720D02*
X108961905Y-89203340D01*
X108961905Y-89203340D02*
X108890476Y-89227149D01*
X108890476Y-89227149D02*
X108842857Y-89227149D01*
X109223809Y-88727149D02*
X109533333Y-88727149D01*
X109533333Y-88727149D02*
X109366666Y-88917625D01*
X109366666Y-88917625D02*
X109438095Y-88917625D01*
X109438095Y-88917625D02*
X109485714Y-88941435D01*
X109485714Y-88941435D02*
X109509523Y-88965244D01*
X109509523Y-88965244D02*
X109533333Y-89012863D01*
X109533333Y-89012863D02*
X109533333Y-89131911D01*
X109533333Y-89131911D02*
X109509523Y-89179530D01*
X109509523Y-89179530D02*
X109485714Y-89203340D01*
X109485714Y-89203340D02*
X109438095Y-89227149D01*
X109438095Y-89227149D02*
X109295238Y-89227149D01*
X109295238Y-89227149D02*
X109247619Y-89203340D01*
X109247619Y-89203340D02*
X109223809Y-89179530D01*
X106057149Y-83083333D02*
X105819054Y-83249999D01*
X106057149Y-83369047D02*
X105557149Y-83369047D01*
X105557149Y-83369047D02*
X105557149Y-83178571D01*
X105557149Y-83178571D02*
X105580959Y-83130952D01*
X105580959Y-83130952D02*
X105604768Y-83107142D01*
X105604768Y-83107142D02*
X105652387Y-83083333D01*
X105652387Y-83083333D02*
X105723816Y-83083333D01*
X105723816Y-83083333D02*
X105771435Y-83107142D01*
X105771435Y-83107142D02*
X105795244Y-83130952D01*
X105795244Y-83130952D02*
X105819054Y-83178571D01*
X105819054Y-83178571D02*
X105819054Y-83369047D01*
X105557149Y-82916666D02*
X105557149Y-82607142D01*
X105557149Y-82607142D02*
X105747625Y-82773809D01*
X105747625Y-82773809D02*
X105747625Y-82702380D01*
X105747625Y-82702380D02*
X105771435Y-82654761D01*
X105771435Y-82654761D02*
X105795244Y-82630952D01*
X105795244Y-82630952D02*
X105842863Y-82607142D01*
X105842863Y-82607142D02*
X105961911Y-82607142D01*
X105961911Y-82607142D02*
X106009530Y-82630952D01*
X106009530Y-82630952D02*
X106033340Y-82654761D01*
X106033340Y-82654761D02*
X106057149Y-82702380D01*
X106057149Y-82702380D02*
X106057149Y-82845237D01*
X106057149Y-82845237D02*
X106033340Y-82892856D01*
X106033340Y-82892856D02*
X106009530Y-82916666D01*
D11*
X107118200Y-83043332D02*
X106994391Y-83129999D01*
X107118200Y-83191904D02*
X106858200Y-83191904D01*
X106858200Y-83191904D02*
X106858200Y-83092856D01*
X106858200Y-83092856D02*
X106870581Y-83068094D01*
X106870581Y-83068094D02*
X106882962Y-83055713D01*
X106882962Y-83055713D02*
X106907724Y-83043332D01*
X106907724Y-83043332D02*
X106944867Y-83043332D01*
X106944867Y-83043332D02*
X106969629Y-83055713D01*
X106969629Y-83055713D02*
X106982010Y-83068094D01*
X106982010Y-83068094D02*
X106994391Y-83092856D01*
X106994391Y-83092856D02*
X106994391Y-83191904D01*
X106858200Y-82956666D02*
X106858200Y-82795713D01*
X106858200Y-82795713D02*
X106957248Y-82882380D01*
X106957248Y-82882380D02*
X106957248Y-82845237D01*
X106957248Y-82845237D02*
X106969629Y-82820475D01*
X106969629Y-82820475D02*
X106982010Y-82808094D01*
X106982010Y-82808094D02*
X107006772Y-82795713D01*
X107006772Y-82795713D02*
X107068677Y-82795713D01*
X107068677Y-82795713D02*
X107093439Y-82808094D01*
X107093439Y-82808094D02*
X107105820Y-82820475D01*
X107105820Y-82820475D02*
X107118200Y-82845237D01*
X107118200Y-82845237D02*
X107118200Y-82919523D01*
X107118200Y-82919523D02*
X107105820Y-82944285D01*
X107105820Y-82944285D02*
X107093439Y-82956666D01*
D10*
X103316666Y-77619530D02*
X103292857Y-77643340D01*
X103292857Y-77643340D02*
X103221428Y-77667149D01*
X103221428Y-77667149D02*
X103173809Y-77667149D01*
X103173809Y-77667149D02*
X103102381Y-77643340D01*
X103102381Y-77643340D02*
X103054762Y-77595720D01*
X103054762Y-77595720D02*
X103030952Y-77548101D01*
X103030952Y-77548101D02*
X103007143Y-77452863D01*
X103007143Y-77452863D02*
X103007143Y-77381435D01*
X103007143Y-77381435D02*
X103030952Y-77286197D01*
X103030952Y-77286197D02*
X103054762Y-77238578D01*
X103054762Y-77238578D02*
X103102381Y-77190959D01*
X103102381Y-77190959D02*
X103173809Y-77167149D01*
X103173809Y-77167149D02*
X103221428Y-77167149D01*
X103221428Y-77167149D02*
X103292857Y-77190959D01*
X103292857Y-77190959D02*
X103316666Y-77214768D01*
X103602381Y-77381435D02*
X103554762Y-77357625D01*
X103554762Y-77357625D02*
X103530952Y-77333816D01*
X103530952Y-77333816D02*
X103507143Y-77286197D01*
X103507143Y-77286197D02*
X103507143Y-77262387D01*
X103507143Y-77262387D02*
X103530952Y-77214768D01*
X103530952Y-77214768D02*
X103554762Y-77190959D01*
X103554762Y-77190959D02*
X103602381Y-77167149D01*
X103602381Y-77167149D02*
X103697619Y-77167149D01*
X103697619Y-77167149D02*
X103745238Y-77190959D01*
X103745238Y-77190959D02*
X103769047Y-77214768D01*
X103769047Y-77214768D02*
X103792857Y-77262387D01*
X103792857Y-77262387D02*
X103792857Y-77286197D01*
X103792857Y-77286197D02*
X103769047Y-77333816D01*
X103769047Y-77333816D02*
X103745238Y-77357625D01*
X103745238Y-77357625D02*
X103697619Y-77381435D01*
X103697619Y-77381435D02*
X103602381Y-77381435D01*
X103602381Y-77381435D02*
X103554762Y-77405244D01*
X103554762Y-77405244D02*
X103530952Y-77429054D01*
X103530952Y-77429054D02*
X103507143Y-77476673D01*
X103507143Y-77476673D02*
X103507143Y-77571911D01*
X103507143Y-77571911D02*
X103530952Y-77619530D01*
X103530952Y-77619530D02*
X103554762Y-77643340D01*
X103554762Y-77643340D02*
X103602381Y-77667149D01*
X103602381Y-77667149D02*
X103697619Y-77667149D01*
X103697619Y-77667149D02*
X103745238Y-77643340D01*
X103745238Y-77643340D02*
X103769047Y-77619530D01*
X103769047Y-77619530D02*
X103792857Y-77571911D01*
X103792857Y-77571911D02*
X103792857Y-77476673D01*
X103792857Y-77476673D02*
X103769047Y-77429054D01*
X103769047Y-77429054D02*
X103745238Y-77405244D01*
X103745238Y-77405244D02*
X103697619Y-77381435D01*
D11*
X103358333Y-78689765D02*
X103346429Y-78701670D01*
X103346429Y-78701670D02*
X103310714Y-78713574D01*
X103310714Y-78713574D02*
X103286905Y-78713574D01*
X103286905Y-78713574D02*
X103251191Y-78701670D01*
X103251191Y-78701670D02*
X103227381Y-78677860D01*
X103227381Y-78677860D02*
X103215476Y-78654050D01*
X103215476Y-78654050D02*
X103203572Y-78606431D01*
X103203572Y-78606431D02*
X103203572Y-78570717D01*
X103203572Y-78570717D02*
X103215476Y-78523098D01*
X103215476Y-78523098D02*
X103227381Y-78499289D01*
X103227381Y-78499289D02*
X103251191Y-78475479D01*
X103251191Y-78475479D02*
X103286905Y-78463574D01*
X103286905Y-78463574D02*
X103310714Y-78463574D01*
X103310714Y-78463574D02*
X103346429Y-78475479D01*
X103346429Y-78475479D02*
X103358333Y-78487384D01*
X103501191Y-78570717D02*
X103477381Y-78558812D01*
X103477381Y-78558812D02*
X103465476Y-78546908D01*
X103465476Y-78546908D02*
X103453572Y-78523098D01*
X103453572Y-78523098D02*
X103453572Y-78511193D01*
X103453572Y-78511193D02*
X103465476Y-78487384D01*
X103465476Y-78487384D02*
X103477381Y-78475479D01*
X103477381Y-78475479D02*
X103501191Y-78463574D01*
X103501191Y-78463574D02*
X103548810Y-78463574D01*
X103548810Y-78463574D02*
X103572619Y-78475479D01*
X103572619Y-78475479D02*
X103584524Y-78487384D01*
X103584524Y-78487384D02*
X103596429Y-78511193D01*
X103596429Y-78511193D02*
X103596429Y-78523098D01*
X103596429Y-78523098D02*
X103584524Y-78546908D01*
X103584524Y-78546908D02*
X103572619Y-78558812D01*
X103572619Y-78558812D02*
X103548810Y-78570717D01*
X103548810Y-78570717D02*
X103501191Y-78570717D01*
X103501191Y-78570717D02*
X103477381Y-78582622D01*
X103477381Y-78582622D02*
X103465476Y-78594527D01*
X103465476Y-78594527D02*
X103453572Y-78618336D01*
X103453572Y-78618336D02*
X103453572Y-78665955D01*
X103453572Y-78665955D02*
X103465476Y-78689765D01*
X103465476Y-78689765D02*
X103477381Y-78701670D01*
X103477381Y-78701670D02*
X103501191Y-78713574D01*
X103501191Y-78713574D02*
X103548810Y-78713574D01*
X103548810Y-78713574D02*
X103572619Y-78701670D01*
X103572619Y-78701670D02*
X103584524Y-78689765D01*
X103584524Y-78689765D02*
X103596429Y-78665955D01*
X103596429Y-78665955D02*
X103596429Y-78618336D01*
X103596429Y-78618336D02*
X103584524Y-78594527D01*
X103584524Y-78594527D02*
X103572619Y-78582622D01*
X103572619Y-78582622D02*
X103548810Y-78570717D01*
D10*
X102830952Y-85657149D02*
X102830952Y-85157149D01*
X102830952Y-85157149D02*
X102950000Y-85157149D01*
X102950000Y-85157149D02*
X103021428Y-85180959D01*
X103021428Y-85180959D02*
X103069047Y-85228578D01*
X103069047Y-85228578D02*
X103092857Y-85276197D01*
X103092857Y-85276197D02*
X103116666Y-85371435D01*
X103116666Y-85371435D02*
X103116666Y-85442863D01*
X103116666Y-85442863D02*
X103092857Y-85538101D01*
X103092857Y-85538101D02*
X103069047Y-85585720D01*
X103069047Y-85585720D02*
X103021428Y-85633340D01*
X103021428Y-85633340D02*
X102950000Y-85657149D01*
X102950000Y-85657149D02*
X102830952Y-85657149D01*
X103592857Y-85657149D02*
X103307143Y-85657149D01*
X103450000Y-85657149D02*
X103450000Y-85157149D01*
X103450000Y-85157149D02*
X103402381Y-85228578D01*
X103402381Y-85228578D02*
X103354762Y-85276197D01*
X103354762Y-85276197D02*
X103307143Y-85300006D01*
D11*
X103015476Y-86713574D02*
X103015476Y-86463574D01*
X103015476Y-86463574D02*
X103075000Y-86463574D01*
X103075000Y-86463574D02*
X103110714Y-86475479D01*
X103110714Y-86475479D02*
X103134524Y-86499289D01*
X103134524Y-86499289D02*
X103146429Y-86523098D01*
X103146429Y-86523098D02*
X103158333Y-86570717D01*
X103158333Y-86570717D02*
X103158333Y-86606431D01*
X103158333Y-86606431D02*
X103146429Y-86654050D01*
X103146429Y-86654050D02*
X103134524Y-86677860D01*
X103134524Y-86677860D02*
X103110714Y-86701670D01*
X103110714Y-86701670D02*
X103075000Y-86713574D01*
X103075000Y-86713574D02*
X103015476Y-86713574D01*
X103396429Y-86713574D02*
X103253572Y-86713574D01*
X103325000Y-86713574D02*
X103325000Y-86463574D01*
X103325000Y-86463574D02*
X103301191Y-86499289D01*
X103301191Y-86499289D02*
X103277381Y-86523098D01*
X103277381Y-86523098D02*
X103253572Y-86535003D01*
D10*
X108057149Y-85483333D02*
X107819054Y-85649999D01*
X108057149Y-85769047D02*
X107557149Y-85769047D01*
X107557149Y-85769047D02*
X107557149Y-85578571D01*
X107557149Y-85578571D02*
X107580959Y-85530952D01*
X107580959Y-85530952D02*
X107604768Y-85507142D01*
X107604768Y-85507142D02*
X107652387Y-85483333D01*
X107652387Y-85483333D02*
X107723816Y-85483333D01*
X107723816Y-85483333D02*
X107771435Y-85507142D01*
X107771435Y-85507142D02*
X107795244Y-85530952D01*
X107795244Y-85530952D02*
X107819054Y-85578571D01*
X107819054Y-85578571D02*
X107819054Y-85769047D01*
X107723816Y-85054761D02*
X108057149Y-85054761D01*
X107533340Y-85173809D02*
X107890482Y-85292856D01*
X107890482Y-85292856D02*
X107890482Y-84983333D01*
D11*
X109118200Y-85443332D02*
X108994391Y-85529999D01*
X109118200Y-85591904D02*
X108858200Y-85591904D01*
X108858200Y-85591904D02*
X108858200Y-85492856D01*
X108858200Y-85492856D02*
X108870581Y-85468094D01*
X108870581Y-85468094D02*
X108882962Y-85455713D01*
X108882962Y-85455713D02*
X108907724Y-85443332D01*
X108907724Y-85443332D02*
X108944867Y-85443332D01*
X108944867Y-85443332D02*
X108969629Y-85455713D01*
X108969629Y-85455713D02*
X108982010Y-85468094D01*
X108982010Y-85468094D02*
X108994391Y-85492856D01*
X108994391Y-85492856D02*
X108994391Y-85591904D01*
X108944867Y-85220475D02*
X109118200Y-85220475D01*
X108845820Y-85282380D02*
X109031534Y-85344285D01*
X109031534Y-85344285D02*
X109031534Y-85183332D01*
D13*
X110254819Y-82199999D02*
X110254819Y-81628571D01*
X111254819Y-81914285D02*
X110254819Y-81914285D01*
X111254819Y-81295237D02*
X110254819Y-81295237D01*
X110254819Y-81295237D02*
X110254819Y-80914285D01*
X110254819Y-80914285D02*
X110302438Y-80819047D01*
X110302438Y-80819047D02*
X110350057Y-80771428D01*
X110350057Y-80771428D02*
X110445295Y-80723809D01*
X110445295Y-80723809D02*
X110588152Y-80723809D01*
X110588152Y-80723809D02*
X110683390Y-80771428D01*
X110683390Y-80771428D02*
X110731009Y-80819047D01*
X110731009Y-80819047D02*
X110778628Y-80914285D01*
X110778628Y-80914285D02*
X110778628Y-81295237D01*
X111207200Y-80342856D02*
X111254819Y-80199999D01*
X111254819Y-80199999D02*
X111254819Y-79961904D01*
X111254819Y-79961904D02*
X111207200Y-79866666D01*
X111207200Y-79866666D02*
X111159580Y-79819047D01*
X111159580Y-79819047D02*
X111064342Y-79771428D01*
X111064342Y-79771428D02*
X110969104Y-79771428D01*
X110969104Y-79771428D02*
X110873866Y-79819047D01*
X110873866Y-79819047D02*
X110826247Y-79866666D01*
X110826247Y-79866666D02*
X110778628Y-79961904D01*
X110778628Y-79961904D02*
X110731009Y-80152380D01*
X110731009Y-80152380D02*
X110683390Y-80247618D01*
X110683390Y-80247618D02*
X110635771Y-80295237D01*
X110635771Y-80295237D02*
X110540533Y-80342856D01*
X110540533Y-80342856D02*
X110445295Y-80342856D01*
X110445295Y-80342856D02*
X110350057Y-80295237D01*
X110350057Y-80295237D02*
X110302438Y-80247618D01*
X110302438Y-80247618D02*
X110254819Y-80152380D01*
X110254819Y-80152380D02*
X110254819Y-79914285D01*
X110254819Y-79914285D02*
X110302438Y-79771428D01*
X110254819Y-79438094D02*
X110254819Y-78771428D01*
X110254819Y-78771428D02*
X111254819Y-79199999D01*
X110969104Y-78438094D02*
X110969104Y-77961904D01*
X111254819Y-78533332D02*
X110254819Y-78199999D01*
X110254819Y-78199999D02*
X111254819Y-77866666D01*
X110254819Y-77342856D02*
X110254819Y-77247618D01*
X110254819Y-77247618D02*
X110302438Y-77152380D01*
X110302438Y-77152380D02*
X110350057Y-77104761D01*
X110350057Y-77104761D02*
X110445295Y-77057142D01*
X110445295Y-77057142D02*
X110635771Y-77009523D01*
X110635771Y-77009523D02*
X110873866Y-77009523D01*
X110873866Y-77009523D02*
X111064342Y-77057142D01*
X111064342Y-77057142D02*
X111159580Y-77104761D01*
X111159580Y-77104761D02*
X111207200Y-77152380D01*
X111207200Y-77152380D02*
X111254819Y-77247618D01*
X111254819Y-77247618D02*
X111254819Y-77342856D01*
X111254819Y-77342856D02*
X111207200Y-77438094D01*
X111207200Y-77438094D02*
X111159580Y-77485713D01*
X111159580Y-77485713D02*
X111064342Y-77533332D01*
X111064342Y-77533332D02*
X110873866Y-77580951D01*
X110873866Y-77580951D02*
X110635771Y-77580951D01*
X110635771Y-77580951D02*
X110445295Y-77533332D01*
X110445295Y-77533332D02*
X110350057Y-77485713D01*
X110350057Y-77485713D02*
X110302438Y-77438094D01*
X110302438Y-77438094D02*
X110254819Y-77342856D01*
X110254819Y-76104761D02*
X110254819Y-76580951D01*
X110254819Y-76580951D02*
X110731009Y-76628570D01*
X110731009Y-76628570D02*
X110683390Y-76580951D01*
X110683390Y-76580951D02*
X110635771Y-76485713D01*
X110635771Y-76485713D02*
X110635771Y-76247618D01*
X110635771Y-76247618D02*
X110683390Y-76152380D01*
X110683390Y-76152380D02*
X110731009Y-76104761D01*
X110731009Y-76104761D02*
X110826247Y-76057142D01*
X110826247Y-76057142D02*
X111064342Y-76057142D01*
X111064342Y-76057142D02*
X111159580Y-76104761D01*
X111159580Y-76104761D02*
X111207200Y-76152380D01*
X111207200Y-76152380D02*
X111254819Y-76247618D01*
X111254819Y-76247618D02*
X111254819Y-76485713D01*
X111254819Y-76485713D02*
X111207200Y-76580951D01*
X111207200Y-76580951D02*
X111159580Y-76628570D01*
X110254819Y-75723808D02*
X110254819Y-75104761D01*
X110254819Y-75104761D02*
X110635771Y-75438094D01*
X110635771Y-75438094D02*
X110635771Y-75295237D01*
X110635771Y-75295237D02*
X110683390Y-75199999D01*
X110683390Y-75199999D02*
X110731009Y-75152380D01*
X110731009Y-75152380D02*
X110826247Y-75104761D01*
X110826247Y-75104761D02*
X111064342Y-75104761D01*
X111064342Y-75104761D02*
X111159580Y-75152380D01*
X111159580Y-75152380D02*
X111207200Y-75199999D01*
X111207200Y-75199999D02*
X111254819Y-75295237D01*
X111254819Y-75295237D02*
X111254819Y-75580951D01*
X111254819Y-75580951D02*
X111207200Y-75676189D01*
X111207200Y-75676189D02*
X111159580Y-75723808D01*
X110254819Y-74771427D02*
X110254819Y-74152380D01*
X110254819Y-74152380D02*
X110635771Y-74485713D01*
X110635771Y-74485713D02*
X110635771Y-74342856D01*
X110635771Y-74342856D02*
X110683390Y-74247618D01*
X110683390Y-74247618D02*
X110731009Y-74199999D01*
X110731009Y-74199999D02*
X110826247Y-74152380D01*
X110826247Y-74152380D02*
X111064342Y-74152380D01*
X111064342Y-74152380D02*
X111159580Y-74199999D01*
X111159580Y-74199999D02*
X111207200Y-74247618D01*
X111207200Y-74247618D02*
X111254819Y-74342856D01*
X111254819Y-74342856D02*
X111254819Y-74628570D01*
X111254819Y-74628570D02*
X111207200Y-74723808D01*
X111207200Y-74723808D02*
X111159580Y-74771427D01*
X111254819Y-73723808D02*
X110254819Y-73723808D01*
X110254819Y-73723808D02*
X110254819Y-73342856D01*
X110254819Y-73342856D02*
X110302438Y-73247618D01*
X110302438Y-73247618D02*
X110350057Y-73199999D01*
X110350057Y-73199999D02*
X110445295Y-73152380D01*
X110445295Y-73152380D02*
X110588152Y-73152380D01*
X110588152Y-73152380D02*
X110683390Y-73199999D01*
X110683390Y-73199999D02*
X110731009Y-73247618D01*
X110731009Y-73247618D02*
X110778628Y-73342856D01*
X110778628Y-73342856D02*
X110778628Y-73723808D01*
X111254819Y-72723808D02*
X110254819Y-72723808D01*
X110254819Y-72723808D02*
X110254819Y-72485713D01*
X110254819Y-72485713D02*
X110302438Y-72342856D01*
X110302438Y-72342856D02*
X110397676Y-72247618D01*
X110397676Y-72247618D02*
X110492914Y-72199999D01*
X110492914Y-72199999D02*
X110683390Y-72152380D01*
X110683390Y-72152380D02*
X110826247Y-72152380D01*
X110826247Y-72152380D02*
X111016723Y-72199999D01*
X111016723Y-72199999D02*
X111111961Y-72247618D01*
X111111961Y-72247618D02*
X111207200Y-72342856D01*
X111207200Y-72342856D02*
X111254819Y-72485713D01*
X111254819Y-72485713D02*
X111254819Y-72723808D01*
X110731009Y-71390475D02*
X110778628Y-71247618D01*
X110778628Y-71247618D02*
X110826247Y-71199999D01*
X110826247Y-71199999D02*
X110921485Y-71152380D01*
X110921485Y-71152380D02*
X111064342Y-71152380D01*
X111064342Y-71152380D02*
X111159580Y-71199999D01*
X111159580Y-71199999D02*
X111207200Y-71247618D01*
X111207200Y-71247618D02*
X111254819Y-71342856D01*
X111254819Y-71342856D02*
X111254819Y-71723808D01*
X111254819Y-71723808D02*
X110254819Y-71723808D01*
X110254819Y-71723808D02*
X110254819Y-71390475D01*
X110254819Y-71390475D02*
X110302438Y-71295237D01*
X110302438Y-71295237D02*
X110350057Y-71247618D01*
X110350057Y-71247618D02*
X110445295Y-71199999D01*
X110445295Y-71199999D02*
X110540533Y-71199999D01*
X110540533Y-71199999D02*
X110635771Y-71247618D01*
X110635771Y-71247618D02*
X110683390Y-71295237D01*
X110683390Y-71295237D02*
X110731009Y-71390475D01*
X110731009Y-71390475D02*
X110731009Y-71723808D01*
X110254819Y-70866665D02*
X111254819Y-70533332D01*
X111254819Y-70533332D02*
X110254819Y-70199999D01*
D12*
X107851428Y-75807365D02*
X107851428Y-76390222D01*
X107851428Y-76390222D02*
X107885714Y-76458794D01*
X107885714Y-76458794D02*
X107920000Y-76493080D01*
X107920000Y-76493080D02*
X107988571Y-76527365D01*
X107988571Y-76527365D02*
X108125714Y-76527365D01*
X108125714Y-76527365D02*
X108194285Y-76493080D01*
X108194285Y-76493080D02*
X108228571Y-76458794D01*
X108228571Y-76458794D02*
X108262857Y-76390222D01*
X108262857Y-76390222D02*
X108262857Y-75807365D01*
X108914286Y-76047365D02*
X108914286Y-76527365D01*
X108742857Y-75773080D02*
X108571428Y-76287365D01*
X108571428Y-76287365D02*
X109017143Y-76287365D01*
D10*
X105333333Y-92017149D02*
X105333333Y-92374292D01*
X105333333Y-92374292D02*
X105309524Y-92445720D01*
X105309524Y-92445720D02*
X105261905Y-92493340D01*
X105261905Y-92493340D02*
X105190476Y-92517149D01*
X105190476Y-92517149D02*
X105142857Y-92517149D01*
X105833333Y-92517149D02*
X105547619Y-92517149D01*
X105690476Y-92517149D02*
X105690476Y-92017149D01*
X105690476Y-92017149D02*
X105642857Y-92088578D01*
X105642857Y-92088578D02*
X105595238Y-92136197D01*
X105595238Y-92136197D02*
X105547619Y-92160006D01*
D13*
X105166666Y-97244819D02*
X105166666Y-97959104D01*
X105166666Y-97959104D02*
X105119047Y-98101961D01*
X105119047Y-98101961D02*
X105023809Y-98197200D01*
X105023809Y-98197200D02*
X104880952Y-98244819D01*
X104880952Y-98244819D02*
X104785714Y-98244819D01*
X106166666Y-98244819D02*
X105595238Y-98244819D01*
X105880952Y-98244819D02*
X105880952Y-97244819D01*
X105880952Y-97244819D02*
X105785714Y-97387676D01*
X105785714Y-97387676D02*
X105690476Y-97482914D01*
X105690476Y-97482914D02*
X105595238Y-97530533D01*
D10*
X107419530Y-80483333D02*
X107443340Y-80507142D01*
X107443340Y-80507142D02*
X107467149Y-80578571D01*
X107467149Y-80578571D02*
X107467149Y-80626190D01*
X107467149Y-80626190D02*
X107443340Y-80697618D01*
X107443340Y-80697618D02*
X107395720Y-80745237D01*
X107395720Y-80745237D02*
X107348101Y-80769047D01*
X107348101Y-80769047D02*
X107252863Y-80792856D01*
X107252863Y-80792856D02*
X107181435Y-80792856D01*
X107181435Y-80792856D02*
X107086197Y-80769047D01*
X107086197Y-80769047D02*
X107038578Y-80745237D01*
X107038578Y-80745237D02*
X106990959Y-80697618D01*
X106990959Y-80697618D02*
X106967149Y-80626190D01*
X106967149Y-80626190D02*
X106967149Y-80578571D01*
X106967149Y-80578571D02*
X106990959Y-80507142D01*
X106990959Y-80507142D02*
X107014768Y-80483333D01*
X107133816Y-80054761D02*
X107467149Y-80054761D01*
X106943340Y-80173809D02*
X107300482Y-80292856D01*
X107300482Y-80292856D02*
X107300482Y-79983333D01*
D11*
X108489765Y-80441666D02*
X108501670Y-80453570D01*
X108501670Y-80453570D02*
X108513574Y-80489285D01*
X108513574Y-80489285D02*
X108513574Y-80513094D01*
X108513574Y-80513094D02*
X108501670Y-80548808D01*
X108501670Y-80548808D02*
X108477860Y-80572618D01*
X108477860Y-80572618D02*
X108454050Y-80584523D01*
X108454050Y-80584523D02*
X108406431Y-80596427D01*
X108406431Y-80596427D02*
X108370717Y-80596427D01*
X108370717Y-80596427D02*
X108323098Y-80584523D01*
X108323098Y-80584523D02*
X108299289Y-80572618D01*
X108299289Y-80572618D02*
X108275479Y-80548808D01*
X108275479Y-80548808D02*
X108263574Y-80513094D01*
X108263574Y-80513094D02*
X108263574Y-80489285D01*
X108263574Y-80489285D02*
X108275479Y-80453570D01*
X108275479Y-80453570D02*
X108287384Y-80441666D01*
X108346908Y-80227380D02*
X108513574Y-80227380D01*
X108251670Y-80286904D02*
X108430241Y-80346427D01*
X108430241Y-80346427D02*
X108430241Y-80191666D01*
D13*
X98745238Y-71565819D02*
X98745238Y-70565819D01*
X99173809Y-71518200D02*
X99316666Y-71565819D01*
X99316666Y-71565819D02*
X99554761Y-71565819D01*
X99554761Y-71565819D02*
X99649999Y-71518200D01*
X99649999Y-71518200D02*
X99697618Y-71470580D01*
X99697618Y-71470580D02*
X99745237Y-71375342D01*
X99745237Y-71375342D02*
X99745237Y-71280104D01*
X99745237Y-71280104D02*
X99697618Y-71184866D01*
X99697618Y-71184866D02*
X99649999Y-71137247D01*
X99649999Y-71137247D02*
X99554761Y-71089628D01*
X99554761Y-71089628D02*
X99364285Y-71042009D01*
X99364285Y-71042009D02*
X99269047Y-70994390D01*
X99269047Y-70994390D02*
X99221428Y-70946771D01*
X99221428Y-70946771D02*
X99173809Y-70851533D01*
X99173809Y-70851533D02*
X99173809Y-70756295D01*
X99173809Y-70756295D02*
X99221428Y-70661057D01*
X99221428Y-70661057D02*
X99269047Y-70613438D01*
X99269047Y-70613438D02*
X99364285Y-70565819D01*
X99364285Y-70565819D02*
X99602380Y-70565819D01*
X99602380Y-70565819D02*
X99745237Y-70613438D01*
X100173809Y-71565819D02*
X100173809Y-70565819D01*
X100173809Y-70565819D02*
X100554761Y-70565819D01*
X100554761Y-70565819D02*
X100649999Y-70613438D01*
X100649999Y-70613438D02*
X100697618Y-70661057D01*
X100697618Y-70661057D02*
X100745237Y-70756295D01*
X100745237Y-70756295D02*
X100745237Y-70899152D01*
X100745237Y-70899152D02*
X100697618Y-70994390D01*
X100697618Y-70994390D02*
X100649999Y-71042009D01*
X100649999Y-71042009D02*
X100554761Y-71089628D01*
X100554761Y-71089628D02*
X100173809Y-71089628D01*
X101697618Y-71565819D02*
X101126190Y-71565819D01*
X101411904Y-71565819D02*
X101411904Y-70565819D01*
X101411904Y-70565819D02*
X101316666Y-70708676D01*
X101316666Y-70708676D02*
X101221428Y-70803914D01*
X101221428Y-70803914D02*
X101126190Y-70851533D01*
X102269047Y-70994390D02*
X102173809Y-70946771D01*
X102173809Y-70946771D02*
X102126190Y-70899152D01*
X102126190Y-70899152D02*
X102078571Y-70803914D01*
X102078571Y-70803914D02*
X102078571Y-70756295D01*
X102078571Y-70756295D02*
X102126190Y-70661057D01*
X102126190Y-70661057D02*
X102173809Y-70613438D01*
X102173809Y-70613438D02*
X102269047Y-70565819D01*
X102269047Y-70565819D02*
X102459523Y-70565819D01*
X102459523Y-70565819D02*
X102554761Y-70613438D01*
X102554761Y-70613438D02*
X102602380Y-70661057D01*
X102602380Y-70661057D02*
X102649999Y-70756295D01*
X102649999Y-70756295D02*
X102649999Y-70803914D01*
X102649999Y-70803914D02*
X102602380Y-70899152D01*
X102602380Y-70899152D02*
X102554761Y-70946771D01*
X102554761Y-70946771D02*
X102459523Y-70994390D01*
X102459523Y-70994390D02*
X102269047Y-70994390D01*
X102269047Y-70994390D02*
X102173809Y-71042009D01*
X102173809Y-71042009D02*
X102126190Y-71089628D01*
X102126190Y-71089628D02*
X102078571Y-71184866D01*
X102078571Y-71184866D02*
X102078571Y-71375342D01*
X102078571Y-71375342D02*
X102126190Y-71470580D01*
X102126190Y-71470580D02*
X102173809Y-71518200D01*
X102173809Y-71518200D02*
X102269047Y-71565819D01*
X102269047Y-71565819D02*
X102459523Y-71565819D01*
X102459523Y-71565819D02*
X102554761Y-71518200D01*
X102554761Y-71518200D02*
X102602380Y-71470580D01*
X102602380Y-71470580D02*
X102649999Y-71375342D01*
X102649999Y-71375342D02*
X102649999Y-71184866D01*
X102649999Y-71184866D02*
X102602380Y-71089628D01*
X102602380Y-71089628D02*
X102554761Y-71042009D01*
X102554761Y-71042009D02*
X102459523Y-70994390D01*
X103269047Y-70565819D02*
X103364285Y-70565819D01*
X103364285Y-70565819D02*
X103459523Y-70613438D01*
X103459523Y-70613438D02*
X103507142Y-70661057D01*
X103507142Y-70661057D02*
X103554761Y-70756295D01*
X103554761Y-70756295D02*
X103602380Y-70946771D01*
X103602380Y-70946771D02*
X103602380Y-71184866D01*
X103602380Y-71184866D02*
X103554761Y-71375342D01*
X103554761Y-71375342D02*
X103507142Y-71470580D01*
X103507142Y-71470580D02*
X103459523Y-71518200D01*
X103459523Y-71518200D02*
X103364285Y-71565819D01*
X103364285Y-71565819D02*
X103269047Y-71565819D01*
X103269047Y-71565819D02*
X103173809Y-71518200D01*
X103173809Y-71518200D02*
X103126190Y-71470580D01*
X103126190Y-71470580D02*
X103078571Y-71375342D01*
X103078571Y-71375342D02*
X103030952Y-71184866D01*
X103030952Y-71184866D02*
X103030952Y-70946771D01*
X103030952Y-70946771D02*
X103078571Y-70756295D01*
X103078571Y-70756295D02*
X103126190Y-70661057D01*
X103126190Y-70661057D02*
X103173809Y-70613438D01*
X103173809Y-70613438D02*
X103269047Y-70565819D01*
X103935714Y-70565819D02*
X104602380Y-70565819D01*
X104602380Y-70565819D02*
X104173809Y-71565819D01*
X104983333Y-71184866D02*
X105745238Y-71184866D01*
X106697618Y-71565819D02*
X106221428Y-71565819D01*
X106221428Y-71565819D02*
X106221428Y-70565819D01*
X107602380Y-71565819D02*
X107269047Y-71089628D01*
X107030952Y-71565819D02*
X107030952Y-70565819D01*
X107030952Y-70565819D02*
X107411904Y-70565819D01*
X107411904Y-70565819D02*
X107507142Y-70613438D01*
X107507142Y-70613438D02*
X107554761Y-70661057D01*
X107554761Y-70661057D02*
X107602380Y-70756295D01*
X107602380Y-70756295D02*
X107602380Y-70899152D01*
X107602380Y-70899152D02*
X107554761Y-70994390D01*
X107554761Y-70994390D02*
X107507142Y-71042009D01*
X107507142Y-71042009D02*
X107411904Y-71089628D01*
X107411904Y-71089628D02*
X107030952Y-71089628D01*
D10*
X105457149Y-91683333D02*
X105219054Y-91849999D01*
X105457149Y-91969047D02*
X104957149Y-91969047D01*
X104957149Y-91969047D02*
X104957149Y-91778571D01*
X104957149Y-91778571D02*
X104980959Y-91730952D01*
X104980959Y-91730952D02*
X105004768Y-91707142D01*
X105004768Y-91707142D02*
X105052387Y-91683333D01*
X105052387Y-91683333D02*
X105123816Y-91683333D01*
X105123816Y-91683333D02*
X105171435Y-91707142D01*
X105171435Y-91707142D02*
X105195244Y-91730952D01*
X105195244Y-91730952D02*
X105219054Y-91778571D01*
X105219054Y-91778571D02*
X105219054Y-91969047D01*
X105004768Y-91492856D02*
X104980959Y-91469047D01*
X104980959Y-91469047D02*
X104957149Y-91421428D01*
X104957149Y-91421428D02*
X104957149Y-91302380D01*
X104957149Y-91302380D02*
X104980959Y-91254761D01*
X104980959Y-91254761D02*
X105004768Y-91230952D01*
X105004768Y-91230952D02*
X105052387Y-91207142D01*
X105052387Y-91207142D02*
X105100006Y-91207142D01*
X105100006Y-91207142D02*
X105171435Y-91230952D01*
X105171435Y-91230952D02*
X105457149Y-91516666D01*
X105457149Y-91516666D02*
X105457149Y-91207142D01*
D11*
X106518200Y-91643332D02*
X106394391Y-91729999D01*
X106518200Y-91791904D02*
X106258200Y-91791904D01*
X106258200Y-91791904D02*
X106258200Y-91692856D01*
X106258200Y-91692856D02*
X106270581Y-91668094D01*
X106270581Y-91668094D02*
X106282962Y-91655713D01*
X106282962Y-91655713D02*
X106307724Y-91643332D01*
X106307724Y-91643332D02*
X106344867Y-91643332D01*
X106344867Y-91643332D02*
X106369629Y-91655713D01*
X106369629Y-91655713D02*
X106382010Y-91668094D01*
X106382010Y-91668094D02*
X106394391Y-91692856D01*
X106394391Y-91692856D02*
X106394391Y-91791904D01*
X106282962Y-91544285D02*
X106270581Y-91531904D01*
X106270581Y-91531904D02*
X106258200Y-91507142D01*
X106258200Y-91507142D02*
X106258200Y-91445237D01*
X106258200Y-91445237D02*
X106270581Y-91420475D01*
X106270581Y-91420475D02*
X106282962Y-91408094D01*
X106282962Y-91408094D02*
X106307724Y-91395713D01*
X106307724Y-91395713D02*
X106332486Y-91395713D01*
X106332486Y-91395713D02*
X106369629Y-91408094D01*
X106369629Y-91408094D02*
X106518200Y-91556666D01*
X106518200Y-91556666D02*
X106518200Y-91395713D01*
D10*
X103019047Y-74027149D02*
X103019047Y-74431911D01*
X103019047Y-74431911D02*
X103042857Y-74479530D01*
X103042857Y-74479530D02*
X103066666Y-74503340D01*
X103066666Y-74503340D02*
X103114285Y-74527149D01*
X103114285Y-74527149D02*
X103209523Y-74527149D01*
X103209523Y-74527149D02*
X103257142Y-74503340D01*
X103257142Y-74503340D02*
X103280952Y-74479530D01*
X103280952Y-74479530D02*
X103304761Y-74431911D01*
X103304761Y-74431911D02*
X103304761Y-74027149D01*
X103519048Y-74074768D02*
X103542857Y-74050959D01*
X103542857Y-74050959D02*
X103590476Y-74027149D01*
X103590476Y-74027149D02*
X103709524Y-74027149D01*
X103709524Y-74027149D02*
X103757143Y-74050959D01*
X103757143Y-74050959D02*
X103780952Y-74074768D01*
X103780952Y-74074768D02*
X103804762Y-74122387D01*
X103804762Y-74122387D02*
X103804762Y-74170006D01*
X103804762Y-74170006D02*
X103780952Y-74241435D01*
X103780952Y-74241435D02*
X103495238Y-74527149D01*
X103495238Y-74527149D02*
X103804762Y-74527149D01*
D12*
X102828571Y-76091244D02*
X102828571Y-76698387D01*
X102828571Y-76698387D02*
X102864285Y-76769815D01*
X102864285Y-76769815D02*
X102900000Y-76805530D01*
X102900000Y-76805530D02*
X102971428Y-76841244D01*
X102971428Y-76841244D02*
X103114285Y-76841244D01*
X103114285Y-76841244D02*
X103185714Y-76805530D01*
X103185714Y-76805530D02*
X103221428Y-76769815D01*
X103221428Y-76769815D02*
X103257142Y-76698387D01*
X103257142Y-76698387D02*
X103257142Y-76091244D01*
X103578571Y-76162672D02*
X103614285Y-76126958D01*
X103614285Y-76126958D02*
X103685714Y-76091244D01*
X103685714Y-76091244D02*
X103864285Y-76091244D01*
X103864285Y-76091244D02*
X103935714Y-76126958D01*
X103935714Y-76126958D02*
X103971428Y-76162672D01*
X103971428Y-76162672D02*
X104007142Y-76234101D01*
X104007142Y-76234101D02*
X104007142Y-76305530D01*
X104007142Y-76305530D02*
X103971428Y-76412672D01*
X103971428Y-76412672D02*
X103542856Y-76841244D01*
X103542856Y-76841244D02*
X104007142Y-76841244D01*
D10*
X103657149Y-91683333D02*
X103419054Y-91849999D01*
X103657149Y-91969047D02*
X103157149Y-91969047D01*
X103157149Y-91969047D02*
X103157149Y-91778571D01*
X103157149Y-91778571D02*
X103180959Y-91730952D01*
X103180959Y-91730952D02*
X103204768Y-91707142D01*
X103204768Y-91707142D02*
X103252387Y-91683333D01*
X103252387Y-91683333D02*
X103323816Y-91683333D01*
X103323816Y-91683333D02*
X103371435Y-91707142D01*
X103371435Y-91707142D02*
X103395244Y-91730952D01*
X103395244Y-91730952D02*
X103419054Y-91778571D01*
X103419054Y-91778571D02*
X103419054Y-91969047D01*
X103657149Y-91207142D02*
X103657149Y-91492856D01*
X103657149Y-91349999D02*
X103157149Y-91349999D01*
X103157149Y-91349999D02*
X103228578Y-91397618D01*
X103228578Y-91397618D02*
X103276197Y-91445237D01*
X103276197Y-91445237D02*
X103300006Y-91492856D01*
D11*
X104718200Y-91643332D02*
X104594391Y-91729999D01*
X104718200Y-91791904D02*
X104458200Y-91791904D01*
X104458200Y-91791904D02*
X104458200Y-91692856D01*
X104458200Y-91692856D02*
X104470581Y-91668094D01*
X104470581Y-91668094D02*
X104482962Y-91655713D01*
X104482962Y-91655713D02*
X104507724Y-91643332D01*
X104507724Y-91643332D02*
X104544867Y-91643332D01*
X104544867Y-91643332D02*
X104569629Y-91655713D01*
X104569629Y-91655713D02*
X104582010Y-91668094D01*
X104582010Y-91668094D02*
X104594391Y-91692856D01*
X104594391Y-91692856D02*
X104594391Y-91791904D01*
X104718200Y-91395713D02*
X104718200Y-91544285D01*
X104718200Y-91469999D02*
X104458200Y-91469999D01*
X104458200Y-91469999D02*
X104495343Y-91494761D01*
X104495343Y-91494761D02*
X104520105Y-91519523D01*
X104520105Y-91519523D02*
X104532486Y-91544285D01*
D10*
X104819530Y-89321428D02*
X104843340Y-89345237D01*
X104843340Y-89345237D02*
X104867149Y-89416666D01*
X104867149Y-89416666D02*
X104867149Y-89464285D01*
X104867149Y-89464285D02*
X104843340Y-89535713D01*
X104843340Y-89535713D02*
X104795720Y-89583332D01*
X104795720Y-89583332D02*
X104748101Y-89607142D01*
X104748101Y-89607142D02*
X104652863Y-89630951D01*
X104652863Y-89630951D02*
X104581435Y-89630951D01*
X104581435Y-89630951D02*
X104486197Y-89607142D01*
X104486197Y-89607142D02*
X104438578Y-89583332D01*
X104438578Y-89583332D02*
X104390959Y-89535713D01*
X104390959Y-89535713D02*
X104367149Y-89464285D01*
X104367149Y-89464285D02*
X104367149Y-89416666D01*
X104367149Y-89416666D02*
X104390959Y-89345237D01*
X104390959Y-89345237D02*
X104414768Y-89321428D01*
X104867149Y-88845237D02*
X104867149Y-89130951D01*
X104867149Y-88988094D02*
X104367149Y-88988094D01*
X104367149Y-88988094D02*
X104438578Y-89035713D01*
X104438578Y-89035713D02*
X104486197Y-89083332D01*
X104486197Y-89083332D02*
X104510006Y-89130951D01*
X104367149Y-88535714D02*
X104367149Y-88488095D01*
X104367149Y-88488095D02*
X104390959Y-88440476D01*
X104390959Y-88440476D02*
X104414768Y-88416666D01*
X104414768Y-88416666D02*
X104462387Y-88392857D01*
X104462387Y-88392857D02*
X104557625Y-88369047D01*
X104557625Y-88369047D02*
X104676673Y-88369047D01*
X104676673Y-88369047D02*
X104771911Y-88392857D01*
X104771911Y-88392857D02*
X104819530Y-88416666D01*
X104819530Y-88416666D02*
X104843340Y-88440476D01*
X104843340Y-88440476D02*
X104867149Y-88488095D01*
X104867149Y-88488095D02*
X104867149Y-88535714D01*
X104867149Y-88535714D02*
X104843340Y-88583333D01*
X104843340Y-88583333D02*
X104819530Y-88607142D01*
X104819530Y-88607142D02*
X104771911Y-88630952D01*
X104771911Y-88630952D02*
X104676673Y-88654761D01*
X104676673Y-88654761D02*
X104557625Y-88654761D01*
X104557625Y-88654761D02*
X104462387Y-88630952D01*
X104462387Y-88630952D02*
X104414768Y-88607142D01*
X104414768Y-88607142D02*
X104390959Y-88583333D01*
X104390959Y-88583333D02*
X104367149Y-88535714D01*
D11*
X105889765Y-89160714D02*
X105901670Y-89172618D01*
X105901670Y-89172618D02*
X105913574Y-89208333D01*
X105913574Y-89208333D02*
X105913574Y-89232142D01*
X105913574Y-89232142D02*
X105901670Y-89267856D01*
X105901670Y-89267856D02*
X105877860Y-89291666D01*
X105877860Y-89291666D02*
X105854050Y-89303571D01*
X105854050Y-89303571D02*
X105806431Y-89315475D01*
X105806431Y-89315475D02*
X105770717Y-89315475D01*
X105770717Y-89315475D02*
X105723098Y-89303571D01*
X105723098Y-89303571D02*
X105699289Y-89291666D01*
X105699289Y-89291666D02*
X105675479Y-89267856D01*
X105675479Y-89267856D02*
X105663574Y-89232142D01*
X105663574Y-89232142D02*
X105663574Y-89208333D01*
X105663574Y-89208333D02*
X105675479Y-89172618D01*
X105675479Y-89172618D02*
X105687384Y-89160714D01*
X105913574Y-88922618D02*
X105913574Y-89065475D01*
X105913574Y-88994047D02*
X105663574Y-88994047D01*
X105663574Y-88994047D02*
X105699289Y-89017856D01*
X105699289Y-89017856D02*
X105723098Y-89041666D01*
X105723098Y-89041666D02*
X105735003Y-89065475D01*
X105663574Y-88767857D02*
X105663574Y-88744047D01*
X105663574Y-88744047D02*
X105675479Y-88720238D01*
X105675479Y-88720238D02*
X105687384Y-88708333D01*
X105687384Y-88708333D02*
X105711193Y-88696428D01*
X105711193Y-88696428D02*
X105758812Y-88684523D01*
X105758812Y-88684523D02*
X105818336Y-88684523D01*
X105818336Y-88684523D02*
X105865955Y-88696428D01*
X105865955Y-88696428D02*
X105889765Y-88708333D01*
X105889765Y-88708333D02*
X105901670Y-88720238D01*
X105901670Y-88720238D02*
X105913574Y-88744047D01*
X105913574Y-88744047D02*
X105913574Y-88767857D01*
X105913574Y-88767857D02*
X105901670Y-88791666D01*
X105901670Y-88791666D02*
X105889765Y-88803571D01*
X105889765Y-88803571D02*
X105865955Y-88815476D01*
X105865955Y-88815476D02*
X105818336Y-88827380D01*
X105818336Y-88827380D02*
X105758812Y-88827380D01*
X105758812Y-88827380D02*
X105711193Y-88815476D01*
X105711193Y-88815476D02*
X105687384Y-88803571D01*
X105687384Y-88803571D02*
X105675479Y-88791666D01*
X105675479Y-88791666D02*
X105663574Y-88767857D01*
D10*
X100657149Y-80483333D02*
X100419054Y-80649999D01*
X100657149Y-80769047D02*
X100157149Y-80769047D01*
X100157149Y-80769047D02*
X100157149Y-80578571D01*
X100157149Y-80578571D02*
X100180959Y-80530952D01*
X100180959Y-80530952D02*
X100204768Y-80507142D01*
X100204768Y-80507142D02*
X100252387Y-80483333D01*
X100252387Y-80483333D02*
X100323816Y-80483333D01*
X100323816Y-80483333D02*
X100371435Y-80507142D01*
X100371435Y-80507142D02*
X100395244Y-80530952D01*
X100395244Y-80530952D02*
X100419054Y-80578571D01*
X100419054Y-80578571D02*
X100419054Y-80769047D01*
X100157149Y-80054761D02*
X100157149Y-80149999D01*
X100157149Y-80149999D02*
X100180959Y-80197618D01*
X100180959Y-80197618D02*
X100204768Y-80221428D01*
X100204768Y-80221428D02*
X100276197Y-80269047D01*
X100276197Y-80269047D02*
X100371435Y-80292856D01*
X100371435Y-80292856D02*
X100561911Y-80292856D01*
X100561911Y-80292856D02*
X100609530Y-80269047D01*
X100609530Y-80269047D02*
X100633340Y-80245237D01*
X100633340Y-80245237D02*
X100657149Y-80197618D01*
X100657149Y-80197618D02*
X100657149Y-80102380D01*
X100657149Y-80102380D02*
X100633340Y-80054761D01*
X100633340Y-80054761D02*
X100609530Y-80030952D01*
X100609530Y-80030952D02*
X100561911Y-80007142D01*
X100561911Y-80007142D02*
X100442863Y-80007142D01*
X100442863Y-80007142D02*
X100395244Y-80030952D01*
X100395244Y-80030952D02*
X100371435Y-80054761D01*
X100371435Y-80054761D02*
X100347625Y-80102380D01*
X100347625Y-80102380D02*
X100347625Y-80197618D01*
X100347625Y-80197618D02*
X100371435Y-80245237D01*
X100371435Y-80245237D02*
X100395244Y-80269047D01*
X100395244Y-80269047D02*
X100442863Y-80292856D01*
D11*
X101718200Y-80443332D02*
X101594391Y-80529999D01*
X101718200Y-80591904D02*
X101458200Y-80591904D01*
X101458200Y-80591904D02*
X101458200Y-80492856D01*
X101458200Y-80492856D02*
X101470581Y-80468094D01*
X101470581Y-80468094D02*
X101482962Y-80455713D01*
X101482962Y-80455713D02*
X101507724Y-80443332D01*
X101507724Y-80443332D02*
X101544867Y-80443332D01*
X101544867Y-80443332D02*
X101569629Y-80455713D01*
X101569629Y-80455713D02*
X101582010Y-80468094D01*
X101582010Y-80468094D02*
X101594391Y-80492856D01*
X101594391Y-80492856D02*
X101594391Y-80591904D01*
X101458200Y-80220475D02*
X101458200Y-80269999D01*
X101458200Y-80269999D02*
X101470581Y-80294761D01*
X101470581Y-80294761D02*
X101482962Y-80307142D01*
X101482962Y-80307142D02*
X101520105Y-80331904D01*
X101520105Y-80331904D02*
X101569629Y-80344285D01*
X101569629Y-80344285D02*
X101668677Y-80344285D01*
X101668677Y-80344285D02*
X101693439Y-80331904D01*
X101693439Y-80331904D02*
X101705820Y-80319523D01*
X101705820Y-80319523D02*
X101718200Y-80294761D01*
X101718200Y-80294761D02*
X101718200Y-80245237D01*
X101718200Y-80245237D02*
X101705820Y-80220475D01*
X101705820Y-80220475D02*
X101693439Y-80208094D01*
X101693439Y-80208094D02*
X101668677Y-80195713D01*
X101668677Y-80195713D02*
X101606772Y-80195713D01*
X101606772Y-80195713D02*
X101582010Y-80208094D01*
X101582010Y-80208094D02*
X101569629Y-80220475D01*
X101569629Y-80220475D02*
X101557248Y-80245237D01*
X101557248Y-80245237D02*
X101557248Y-80294761D01*
X101557248Y-80294761D02*
X101569629Y-80319523D01*
X101569629Y-80319523D02*
X101582010Y-80331904D01*
X101582010Y-80331904D02*
X101606772Y-80344285D01*
D10*
X108657149Y-87583333D02*
X108419054Y-87749999D01*
X108657149Y-87869047D02*
X108157149Y-87869047D01*
X108157149Y-87869047D02*
X108157149Y-87678571D01*
X108157149Y-87678571D02*
X108180959Y-87630952D01*
X108180959Y-87630952D02*
X108204768Y-87607142D01*
X108204768Y-87607142D02*
X108252387Y-87583333D01*
X108252387Y-87583333D02*
X108323816Y-87583333D01*
X108323816Y-87583333D02*
X108371435Y-87607142D01*
X108371435Y-87607142D02*
X108395244Y-87630952D01*
X108395244Y-87630952D02*
X108419054Y-87678571D01*
X108419054Y-87678571D02*
X108419054Y-87869047D01*
X108157149Y-87130952D02*
X108157149Y-87369047D01*
X108157149Y-87369047D02*
X108395244Y-87392856D01*
X108395244Y-87392856D02*
X108371435Y-87369047D01*
X108371435Y-87369047D02*
X108347625Y-87321428D01*
X108347625Y-87321428D02*
X108347625Y-87202380D01*
X108347625Y-87202380D02*
X108371435Y-87154761D01*
X108371435Y-87154761D02*
X108395244Y-87130952D01*
X108395244Y-87130952D02*
X108442863Y-87107142D01*
X108442863Y-87107142D02*
X108561911Y-87107142D01*
X108561911Y-87107142D02*
X108609530Y-87130952D01*
X108609530Y-87130952D02*
X108633340Y-87154761D01*
X108633340Y-87154761D02*
X108657149Y-87202380D01*
X108657149Y-87202380D02*
X108657149Y-87321428D01*
X108657149Y-87321428D02*
X108633340Y-87369047D01*
X108633340Y-87369047D02*
X108609530Y-87392856D01*
D11*
X109718200Y-87543332D02*
X109594391Y-87629999D01*
X109718200Y-87691904D02*
X109458200Y-87691904D01*
X109458200Y-87691904D02*
X109458200Y-87592856D01*
X109458200Y-87592856D02*
X109470581Y-87568094D01*
X109470581Y-87568094D02*
X109482962Y-87555713D01*
X109482962Y-87555713D02*
X109507724Y-87543332D01*
X109507724Y-87543332D02*
X109544867Y-87543332D01*
X109544867Y-87543332D02*
X109569629Y-87555713D01*
X109569629Y-87555713D02*
X109582010Y-87568094D01*
X109582010Y-87568094D02*
X109594391Y-87592856D01*
X109594391Y-87592856D02*
X109594391Y-87691904D01*
X109458200Y-87308094D02*
X109458200Y-87431904D01*
X109458200Y-87431904D02*
X109582010Y-87444285D01*
X109582010Y-87444285D02*
X109569629Y-87431904D01*
X109569629Y-87431904D02*
X109557248Y-87407142D01*
X109557248Y-87407142D02*
X109557248Y-87345237D01*
X109557248Y-87345237D02*
X109569629Y-87320475D01*
X109569629Y-87320475D02*
X109582010Y-87308094D01*
X109582010Y-87308094D02*
X109606772Y-87295713D01*
X109606772Y-87295713D02*
X109668677Y-87295713D01*
X109668677Y-87295713D02*
X109693439Y-87308094D01*
X109693439Y-87308094D02*
X109705820Y-87320475D01*
X109705820Y-87320475D02*
X109718200Y-87345237D01*
X109718200Y-87345237D02*
X109718200Y-87407142D01*
X109718200Y-87407142D02*
X109705820Y-87431904D01*
X109705820Y-87431904D02*
X109693439Y-87444285D01*
D10*
X108036666Y-77969530D02*
X108012857Y-77993340D01*
X108012857Y-77993340D02*
X107941428Y-78017149D01*
X107941428Y-78017149D02*
X107893809Y-78017149D01*
X107893809Y-78017149D02*
X107822381Y-77993340D01*
X107822381Y-77993340D02*
X107774762Y-77945720D01*
X107774762Y-77945720D02*
X107750952Y-77898101D01*
X107750952Y-77898101D02*
X107727143Y-77802863D01*
X107727143Y-77802863D02*
X107727143Y-77731435D01*
X107727143Y-77731435D02*
X107750952Y-77636197D01*
X107750952Y-77636197D02*
X107774762Y-77588578D01*
X107774762Y-77588578D02*
X107822381Y-77540959D01*
X107822381Y-77540959D02*
X107893809Y-77517149D01*
X107893809Y-77517149D02*
X107941428Y-77517149D01*
X107941428Y-77517149D02*
X108012857Y-77540959D01*
X108012857Y-77540959D02*
X108036666Y-77564768D01*
X108465238Y-77517149D02*
X108370000Y-77517149D01*
X108370000Y-77517149D02*
X108322381Y-77540959D01*
X108322381Y-77540959D02*
X108298571Y-77564768D01*
X108298571Y-77564768D02*
X108250952Y-77636197D01*
X108250952Y-77636197D02*
X108227143Y-77731435D01*
X108227143Y-77731435D02*
X108227143Y-77921911D01*
X108227143Y-77921911D02*
X108250952Y-77969530D01*
X108250952Y-77969530D02*
X108274762Y-77993340D01*
X108274762Y-77993340D02*
X108322381Y-78017149D01*
X108322381Y-78017149D02*
X108417619Y-78017149D01*
X108417619Y-78017149D02*
X108465238Y-77993340D01*
X108465238Y-77993340D02*
X108489047Y-77969530D01*
X108489047Y-77969530D02*
X108512857Y-77921911D01*
X108512857Y-77921911D02*
X108512857Y-77802863D01*
X108512857Y-77802863D02*
X108489047Y-77755244D01*
X108489047Y-77755244D02*
X108465238Y-77731435D01*
X108465238Y-77731435D02*
X108417619Y-77707625D01*
X108417619Y-77707625D02*
X108322381Y-77707625D01*
X108322381Y-77707625D02*
X108274762Y-77731435D01*
X108274762Y-77731435D02*
X108250952Y-77755244D01*
X108250952Y-77755244D02*
X108227143Y-77802863D01*
D11*
X108078333Y-79039765D02*
X108066429Y-79051670D01*
X108066429Y-79051670D02*
X108030714Y-79063574D01*
X108030714Y-79063574D02*
X108006905Y-79063574D01*
X108006905Y-79063574D02*
X107971191Y-79051670D01*
X107971191Y-79051670D02*
X107947381Y-79027860D01*
X107947381Y-79027860D02*
X107935476Y-79004050D01*
X107935476Y-79004050D02*
X107923572Y-78956431D01*
X107923572Y-78956431D02*
X107923572Y-78920717D01*
X107923572Y-78920717D02*
X107935476Y-78873098D01*
X107935476Y-78873098D02*
X107947381Y-78849289D01*
X107947381Y-78849289D02*
X107971191Y-78825479D01*
X107971191Y-78825479D02*
X108006905Y-78813574D01*
X108006905Y-78813574D02*
X108030714Y-78813574D01*
X108030714Y-78813574D02*
X108066429Y-78825479D01*
X108066429Y-78825479D02*
X108078333Y-78837384D01*
X108292619Y-78813574D02*
X108245000Y-78813574D01*
X108245000Y-78813574D02*
X108221191Y-78825479D01*
X108221191Y-78825479D02*
X108209286Y-78837384D01*
X108209286Y-78837384D02*
X108185476Y-78873098D01*
X108185476Y-78873098D02*
X108173572Y-78920717D01*
X108173572Y-78920717D02*
X108173572Y-79015955D01*
X108173572Y-79015955D02*
X108185476Y-79039765D01*
X108185476Y-79039765D02*
X108197381Y-79051670D01*
X108197381Y-79051670D02*
X108221191Y-79063574D01*
X108221191Y-79063574D02*
X108268810Y-79063574D01*
X108268810Y-79063574D02*
X108292619Y-79051670D01*
X108292619Y-79051670D02*
X108304524Y-79039765D01*
X108304524Y-79039765D02*
X108316429Y-79015955D01*
X108316429Y-79015955D02*
X108316429Y-78956431D01*
X108316429Y-78956431D02*
X108304524Y-78932622D01*
X108304524Y-78932622D02*
X108292619Y-78920717D01*
X108292619Y-78920717D02*
X108268810Y-78908812D01*
X108268810Y-78908812D02*
X108221191Y-78908812D01*
X108221191Y-78908812D02*
X108197381Y-78920717D01*
X108197381Y-78920717D02*
X108185476Y-78932622D01*
X108185476Y-78932622D02*
X108173572Y-78956431D01*
D10*
X102033333Y-89177149D02*
X102033333Y-89534292D01*
X102033333Y-89534292D02*
X102009524Y-89605720D01*
X102009524Y-89605720D02*
X101961905Y-89653340D01*
X101961905Y-89653340D02*
X101890476Y-89677149D01*
X101890476Y-89677149D02*
X101842857Y-89677149D01*
X102247619Y-89224768D02*
X102271428Y-89200959D01*
X102271428Y-89200959D02*
X102319047Y-89177149D01*
X102319047Y-89177149D02*
X102438095Y-89177149D01*
X102438095Y-89177149D02*
X102485714Y-89200959D01*
X102485714Y-89200959D02*
X102509523Y-89224768D01*
X102509523Y-89224768D02*
X102533333Y-89272387D01*
X102533333Y-89272387D02*
X102533333Y-89320006D01*
X102533333Y-89320006D02*
X102509523Y-89391435D01*
X102509523Y-89391435D02*
X102223809Y-89677149D01*
X102223809Y-89677149D02*
X102533333Y-89677149D01*
X100857149Y-89083333D02*
X100619054Y-89249999D01*
X100857149Y-89369047D02*
X100357149Y-89369047D01*
X100357149Y-89369047D02*
X100357149Y-89178571D01*
X100357149Y-89178571D02*
X100380959Y-89130952D01*
X100380959Y-89130952D02*
X100404768Y-89107142D01*
X100404768Y-89107142D02*
X100452387Y-89083333D01*
X100452387Y-89083333D02*
X100523816Y-89083333D01*
X100523816Y-89083333D02*
X100571435Y-89107142D01*
X100571435Y-89107142D02*
X100595244Y-89130952D01*
X100595244Y-89130952D02*
X100619054Y-89178571D01*
X100619054Y-89178571D02*
X100619054Y-89369047D01*
X100571435Y-88797618D02*
X100547625Y-88845237D01*
X100547625Y-88845237D02*
X100523816Y-88869047D01*
X100523816Y-88869047D02*
X100476197Y-88892856D01*
X100476197Y-88892856D02*
X100452387Y-88892856D01*
X100452387Y-88892856D02*
X100404768Y-88869047D01*
X100404768Y-88869047D02*
X100380959Y-88845237D01*
X100380959Y-88845237D02*
X100357149Y-88797618D01*
X100357149Y-88797618D02*
X100357149Y-88702380D01*
X100357149Y-88702380D02*
X100380959Y-88654761D01*
X100380959Y-88654761D02*
X100404768Y-88630952D01*
X100404768Y-88630952D02*
X100452387Y-88607142D01*
X100452387Y-88607142D02*
X100476197Y-88607142D01*
X100476197Y-88607142D02*
X100523816Y-88630952D01*
X100523816Y-88630952D02*
X100547625Y-88654761D01*
X100547625Y-88654761D02*
X100571435Y-88702380D01*
X100571435Y-88702380D02*
X100571435Y-88797618D01*
X100571435Y-88797618D02*
X100595244Y-88845237D01*
X100595244Y-88845237D02*
X100619054Y-88869047D01*
X100619054Y-88869047D02*
X100666673Y-88892856D01*
X100666673Y-88892856D02*
X100761911Y-88892856D01*
X100761911Y-88892856D02*
X100809530Y-88869047D01*
X100809530Y-88869047D02*
X100833340Y-88845237D01*
X100833340Y-88845237D02*
X100857149Y-88797618D01*
X100857149Y-88797618D02*
X100857149Y-88702380D01*
X100857149Y-88702380D02*
X100833340Y-88654761D01*
X100833340Y-88654761D02*
X100809530Y-88630952D01*
X100809530Y-88630952D02*
X100761911Y-88607142D01*
X100761911Y-88607142D02*
X100666673Y-88607142D01*
X100666673Y-88607142D02*
X100619054Y-88630952D01*
X100619054Y-88630952D02*
X100595244Y-88654761D01*
X100595244Y-88654761D02*
X100571435Y-88702380D01*
D11*
X101918200Y-89043332D02*
X101794391Y-89129999D01*
X101918200Y-89191904D02*
X101658200Y-89191904D01*
X101658200Y-89191904D02*
X101658200Y-89092856D01*
X101658200Y-89092856D02*
X101670581Y-89068094D01*
X101670581Y-89068094D02*
X101682962Y-89055713D01*
X101682962Y-89055713D02*
X101707724Y-89043332D01*
X101707724Y-89043332D02*
X101744867Y-89043332D01*
X101744867Y-89043332D02*
X101769629Y-89055713D01*
X101769629Y-89055713D02*
X101782010Y-89068094D01*
X101782010Y-89068094D02*
X101794391Y-89092856D01*
X101794391Y-89092856D02*
X101794391Y-89191904D01*
X101769629Y-88894761D02*
X101757248Y-88919523D01*
X101757248Y-88919523D02*
X101744867Y-88931904D01*
X101744867Y-88931904D02*
X101720105Y-88944285D01*
X101720105Y-88944285D02*
X101707724Y-88944285D01*
X101707724Y-88944285D02*
X101682962Y-88931904D01*
X101682962Y-88931904D02*
X101670581Y-88919523D01*
X101670581Y-88919523D02*
X101658200Y-88894761D01*
X101658200Y-88894761D02*
X101658200Y-88845237D01*
X101658200Y-88845237D02*
X101670581Y-88820475D01*
X101670581Y-88820475D02*
X101682962Y-88808094D01*
X101682962Y-88808094D02*
X101707724Y-88795713D01*
X101707724Y-88795713D02*
X101720105Y-88795713D01*
X101720105Y-88795713D02*
X101744867Y-88808094D01*
X101744867Y-88808094D02*
X101757248Y-88820475D01*
X101757248Y-88820475D02*
X101769629Y-88845237D01*
X101769629Y-88845237D02*
X101769629Y-88894761D01*
X101769629Y-88894761D02*
X101782010Y-88919523D01*
X101782010Y-88919523D02*
X101794391Y-88931904D01*
X101794391Y-88931904D02*
X101819153Y-88944285D01*
X101819153Y-88944285D02*
X101868677Y-88944285D01*
X101868677Y-88944285D02*
X101893439Y-88931904D01*
X101893439Y-88931904D02*
X101905820Y-88919523D01*
X101905820Y-88919523D02*
X101918200Y-88894761D01*
X101918200Y-88894761D02*
X101918200Y-88845237D01*
X101918200Y-88845237D02*
X101905820Y-88820475D01*
X101905820Y-88820475D02*
X101893439Y-88808094D01*
X101893439Y-88808094D02*
X101868677Y-88795713D01*
X101868677Y-88795713D02*
X101819153Y-88795713D01*
X101819153Y-88795713D02*
X101794391Y-88808094D01*
X101794391Y-88808094D02*
X101782010Y-88820475D01*
X101782010Y-88820475D02*
X101769629Y-88845237D01*
D10*
X103316666Y-73019530D02*
X103292857Y-73043340D01*
X103292857Y-73043340D02*
X103221428Y-73067149D01*
X103221428Y-73067149D02*
X103173809Y-73067149D01*
X103173809Y-73067149D02*
X103102381Y-73043340D01*
X103102381Y-73043340D02*
X103054762Y-72995720D01*
X103054762Y-72995720D02*
X103030952Y-72948101D01*
X103030952Y-72948101D02*
X103007143Y-72852863D01*
X103007143Y-72852863D02*
X103007143Y-72781435D01*
X103007143Y-72781435D02*
X103030952Y-72686197D01*
X103030952Y-72686197D02*
X103054762Y-72638578D01*
X103054762Y-72638578D02*
X103102381Y-72590959D01*
X103102381Y-72590959D02*
X103173809Y-72567149D01*
X103173809Y-72567149D02*
X103221428Y-72567149D01*
X103221428Y-72567149D02*
X103292857Y-72590959D01*
X103292857Y-72590959D02*
X103316666Y-72614768D01*
X103483333Y-72567149D02*
X103816666Y-72567149D01*
X103816666Y-72567149D02*
X103602381Y-73067149D01*
D11*
X103358333Y-74089765D02*
X103346429Y-74101670D01*
X103346429Y-74101670D02*
X103310714Y-74113574D01*
X103310714Y-74113574D02*
X103286905Y-74113574D01*
X103286905Y-74113574D02*
X103251191Y-74101670D01*
X103251191Y-74101670D02*
X103227381Y-74077860D01*
X103227381Y-74077860D02*
X103215476Y-74054050D01*
X103215476Y-74054050D02*
X103203572Y-74006431D01*
X103203572Y-74006431D02*
X103203572Y-73970717D01*
X103203572Y-73970717D02*
X103215476Y-73923098D01*
X103215476Y-73923098D02*
X103227381Y-73899289D01*
X103227381Y-73899289D02*
X103251191Y-73875479D01*
X103251191Y-73875479D02*
X103286905Y-73863574D01*
X103286905Y-73863574D02*
X103310714Y-73863574D01*
X103310714Y-73863574D02*
X103346429Y-73875479D01*
X103346429Y-73875479D02*
X103358333Y-73887384D01*
X103441667Y-73863574D02*
X103608333Y-73863574D01*
X103608333Y-73863574D02*
X103501191Y-74113574D01*
D10*
X106019530Y-85483333D02*
X106043340Y-85507142D01*
X106043340Y-85507142D02*
X106067149Y-85578571D01*
X106067149Y-85578571D02*
X106067149Y-85626190D01*
X106067149Y-85626190D02*
X106043340Y-85697618D01*
X106043340Y-85697618D02*
X105995720Y-85745237D01*
X105995720Y-85745237D02*
X105948101Y-85769047D01*
X105948101Y-85769047D02*
X105852863Y-85792856D01*
X105852863Y-85792856D02*
X105781435Y-85792856D01*
X105781435Y-85792856D02*
X105686197Y-85769047D01*
X105686197Y-85769047D02*
X105638578Y-85745237D01*
X105638578Y-85745237D02*
X105590959Y-85697618D01*
X105590959Y-85697618D02*
X105567149Y-85626190D01*
X105567149Y-85626190D02*
X105567149Y-85578571D01*
X105567149Y-85578571D02*
X105590959Y-85507142D01*
X105590959Y-85507142D02*
X105614768Y-85483333D01*
X105614768Y-85292856D02*
X105590959Y-85269047D01*
X105590959Y-85269047D02*
X105567149Y-85221428D01*
X105567149Y-85221428D02*
X105567149Y-85102380D01*
X105567149Y-85102380D02*
X105590959Y-85054761D01*
X105590959Y-85054761D02*
X105614768Y-85030952D01*
X105614768Y-85030952D02*
X105662387Y-85007142D01*
X105662387Y-85007142D02*
X105710006Y-85007142D01*
X105710006Y-85007142D02*
X105781435Y-85030952D01*
X105781435Y-85030952D02*
X106067149Y-85316666D01*
X106067149Y-85316666D02*
X106067149Y-85007142D01*
D11*
X107089765Y-85441666D02*
X107101670Y-85453570D01*
X107101670Y-85453570D02*
X107113574Y-85489285D01*
X107113574Y-85489285D02*
X107113574Y-85513094D01*
X107113574Y-85513094D02*
X107101670Y-85548808D01*
X107101670Y-85548808D02*
X107077860Y-85572618D01*
X107077860Y-85572618D02*
X107054050Y-85584523D01*
X107054050Y-85584523D02*
X107006431Y-85596427D01*
X107006431Y-85596427D02*
X106970717Y-85596427D01*
X106970717Y-85596427D02*
X106923098Y-85584523D01*
X106923098Y-85584523D02*
X106899289Y-85572618D01*
X106899289Y-85572618D02*
X106875479Y-85548808D01*
X106875479Y-85548808D02*
X106863574Y-85513094D01*
X106863574Y-85513094D02*
X106863574Y-85489285D01*
X106863574Y-85489285D02*
X106875479Y-85453570D01*
X106875479Y-85453570D02*
X106887384Y-85441666D01*
X106887384Y-85346427D02*
X106875479Y-85334523D01*
X106875479Y-85334523D02*
X106863574Y-85310713D01*
X106863574Y-85310713D02*
X106863574Y-85251189D01*
X106863574Y-85251189D02*
X106875479Y-85227380D01*
X106875479Y-85227380D02*
X106887384Y-85215475D01*
X106887384Y-85215475D02*
X106911193Y-85203570D01*
X106911193Y-85203570D02*
X106935003Y-85203570D01*
X106935003Y-85203570D02*
X106970717Y-85215475D01*
X106970717Y-85215475D02*
X107113574Y-85358332D01*
X107113574Y-85358332D02*
X107113574Y-85203570D01*
D10*
X108019530Y-83083333D02*
X108043340Y-83107142D01*
X108043340Y-83107142D02*
X108067149Y-83178571D01*
X108067149Y-83178571D02*
X108067149Y-83226190D01*
X108067149Y-83226190D02*
X108043340Y-83297618D01*
X108043340Y-83297618D02*
X107995720Y-83345237D01*
X107995720Y-83345237D02*
X107948101Y-83369047D01*
X107948101Y-83369047D02*
X107852863Y-83392856D01*
X107852863Y-83392856D02*
X107781435Y-83392856D01*
X107781435Y-83392856D02*
X107686197Y-83369047D01*
X107686197Y-83369047D02*
X107638578Y-83345237D01*
X107638578Y-83345237D02*
X107590959Y-83297618D01*
X107590959Y-83297618D02*
X107567149Y-83226190D01*
X107567149Y-83226190D02*
X107567149Y-83178571D01*
X107567149Y-83178571D02*
X107590959Y-83107142D01*
X107590959Y-83107142D02*
X107614768Y-83083333D01*
X108067149Y-82607142D02*
X108067149Y-82892856D01*
X108067149Y-82749999D02*
X107567149Y-82749999D01*
X107567149Y-82749999D02*
X107638578Y-82797618D01*
X107638578Y-82797618D02*
X107686197Y-82845237D01*
X107686197Y-82845237D02*
X107710006Y-82892856D01*
D11*
X109089765Y-83041666D02*
X109101670Y-83053570D01*
X109101670Y-83053570D02*
X109113574Y-83089285D01*
X109113574Y-83089285D02*
X109113574Y-83113094D01*
X109113574Y-83113094D02*
X109101670Y-83148808D01*
X109101670Y-83148808D02*
X109077860Y-83172618D01*
X109077860Y-83172618D02*
X109054050Y-83184523D01*
X109054050Y-83184523D02*
X109006431Y-83196427D01*
X109006431Y-83196427D02*
X108970717Y-83196427D01*
X108970717Y-83196427D02*
X108923098Y-83184523D01*
X108923098Y-83184523D02*
X108899289Y-83172618D01*
X108899289Y-83172618D02*
X108875479Y-83148808D01*
X108875479Y-83148808D02*
X108863574Y-83113094D01*
X108863574Y-83113094D02*
X108863574Y-83089285D01*
X108863574Y-83089285D02*
X108875479Y-83053570D01*
X108875479Y-83053570D02*
X108887384Y-83041666D01*
X109113574Y-82803570D02*
X109113574Y-82946427D01*
X109113574Y-82874999D02*
X108863574Y-82874999D01*
X108863574Y-82874999D02*
X108899289Y-82898808D01*
X108899289Y-82898808D02*
X108923098Y-82922618D01*
X108923098Y-82922618D02*
X108935003Y-82946427D01*
%TO.C,C5*%
D14*
X107620000Y-72850000D02*
X108620000Y-72850000D01*
X108620000Y-73350000D01*
X107620000Y-73350000D01*
X107620000Y-72850000D01*
%TO.C,C3*%
X105750000Y-79900000D02*
X106250000Y-79900000D01*
X106250000Y-80900000D01*
X105750000Y-80900000D01*
X105750000Y-79900000D01*
%TO.C,R9*%
X103530000Y-88475000D02*
X104070000Y-88475000D01*
X104070000Y-89525000D01*
X103530000Y-89525000D01*
X103530000Y-88475000D01*
%TO.C,C9*%
X107550000Y-88500000D02*
X108050000Y-88500000D01*
X108050000Y-89500000D01*
X107550000Y-89500000D01*
X107550000Y-88500000D01*
%TO.C,R7*%
X103130000Y-79875000D02*
X103670000Y-79875000D01*
X103670000Y-80925000D01*
X103130000Y-80925000D01*
X103130000Y-79875000D01*
%TO.C,U3*%
X102800000Y-82150000D02*
X104000000Y-82150000D01*
X104000000Y-85050000D01*
X102400000Y-85050000D01*
X102400000Y-82550000D01*
X102800000Y-82150000D01*
%TO.C,R3*%
X106730000Y-82475000D02*
X107270000Y-82475000D01*
X107270000Y-83525000D01*
X106730000Y-83525000D01*
X106730000Y-82475000D01*
%TO.C,C8*%
X102900000Y-78350000D02*
X103900000Y-78350000D01*
X103900000Y-78850000D01*
X102900000Y-78850000D01*
X102900000Y-78350000D01*
%TO.C,D1*%
X102800000Y-86850000D02*
X102800000Y-86350000D01*
X102900000Y-86850000D02*
X102900000Y-86350000D01*
X102700000Y-86350000D02*
X103700000Y-86350000D01*
X103700000Y-86850000D01*
X102700000Y-86850000D01*
X102700000Y-86350000D01*
%TO.C,R4*%
X108730000Y-84875000D02*
X109270000Y-84875000D01*
X109270000Y-85925000D01*
X108730000Y-85925000D01*
X108730000Y-84875000D01*
%TO.C,U4*%
X106950000Y-76600000D02*
X106950000Y-75400000D01*
X109850000Y-75400000D01*
X109850000Y-77000000D01*
X107350000Y-77000000D01*
X106950000Y-76600000D01*
%TO.C,J1*%
X101030000Y-94115000D02*
X101030000Y-101465000D01*
X101030000Y-94115000D02*
X109970000Y-94115000D01*
X101030000Y-101465000D02*
X109970000Y-101465000D01*
X109970000Y-101465000D02*
X109970000Y-94115000D01*
%TO.C,C4*%
X108150000Y-79900000D02*
X108650000Y-79900000D01*
X108650000Y-80900000D01*
X108150000Y-80900000D01*
X108150000Y-79900000D01*
%TO.C,U1*%
X101500000Y-64000000D02*
X101500000Y-72000000D01*
X105500000Y-66000000D02*
X105500000Y-67000000D01*
X106000000Y-66500000D02*
X105000000Y-66500000D01*
X109500000Y-64000000D02*
X101500000Y-64000000D01*
X109500000Y-64000000D02*
X109500000Y-72000000D01*
X109500000Y-72000000D02*
X101500000Y-72000000D01*
%TO.C,R2*%
X106130000Y-91075000D02*
X106670000Y-91075000D01*
X106670000Y-92125000D01*
X106130000Y-92125000D01*
X106130000Y-91075000D01*
%TO.C,U2*%
X102525000Y-75250000D02*
X104900000Y-75250000D01*
X104900000Y-77750000D01*
X101900000Y-77750000D01*
X101900000Y-75875000D01*
X102525000Y-75250000D01*
%TO.C,R1*%
X104330000Y-91075000D02*
X104870000Y-91075000D01*
X104870000Y-92125000D01*
X104330000Y-92125000D01*
X104330000Y-91075000D01*
%TO.C,C10*%
X105550000Y-88500000D02*
X106050000Y-88500000D01*
X106050000Y-89500000D01*
X105550000Y-89500000D01*
X105550000Y-88500000D01*
%TO.C,R6*%
X101330000Y-79875000D02*
X101870000Y-79875000D01*
X101870000Y-80925000D01*
X101330000Y-80925000D01*
X101330000Y-79875000D01*
%TO.C,R5*%
X109330000Y-86975000D02*
X109870000Y-86975000D01*
X109870000Y-88025000D01*
X109330000Y-88025000D01*
X109330000Y-86975000D01*
%TO.C,C6*%
X107620000Y-78700000D02*
X108620000Y-78700000D01*
X108620000Y-79200000D01*
X107620000Y-79200000D01*
X107620000Y-78700000D01*
%TO.C,R8*%
X101530000Y-88475000D02*
X102070000Y-88475000D01*
X102070000Y-89525000D01*
X101530000Y-89525000D01*
X101530000Y-88475000D01*
%TO.C,C7*%
X102900000Y-73750000D02*
X103900000Y-73750000D01*
X103900000Y-74250000D01*
X102900000Y-74250000D01*
X102900000Y-73750000D01*
%TO.C,C2*%
X106750000Y-84900000D02*
X107250000Y-84900000D01*
X107250000Y-85900000D01*
X106750000Y-85900000D01*
X106750000Y-84900000D01*
%TO.C,C1*%
X108750000Y-82500000D02*
X109250000Y-82500000D01*
X109250000Y-83500000D01*
X108750000Y-83500000D01*
X108750000Y-82500000D01*
%TD*%
M02*
