%TF.GenerationSoftware,KiCad,Pcbnew,10.0.3*%
%TF.CreationDate,2026-08-30T15:30:07-04:00*%
%TF.ProjectId,pen-mixer,70656e2d-6d69-4786-9572-2e6b69636164,v2*%
%TF.SameCoordinates,Original*%
%TF.FileFunction,Copper,L3,Inr*%
%TF.FilePolarity,Positive*%
%FSLAX46Y46*%
G04 Gerber Fmt 4.6, Leading zero omitted, Abs format (unit mm)*
G04 Created by KiCad (PCBNEW 10.0.3) date 2026-08-30 15:30:07*
%MOMM*%
%LPD*%
G01*
G04 APERTURE LIST*
%TA.AperFunction,ComponentPad*%
%ADD10O,1.000000X2.100000*%
%TD*%
%TA.AperFunction,ComponentPad*%
%ADD11O,1.000000X1.800000*%
%TD*%
%TA.AperFunction,ViaPad*%
%ADD12C,0.450000*%
%TD*%
%TA.AperFunction,Conductor*%
%ADD13C,0.150000*%
%TD*%
G04 APERTURE END LIST*
D10*
%TO.N,GND*%
%TO.C,J1*%
X97875200Y-70050200D03*
D11*
X97875200Y-74250200D03*
D10*
X106515200Y-70050200D03*
D11*
X106515200Y-74250200D03*
%TD*%
D12*
%TO.N,+3V3*%
X103992100Y-56462800D03*
%TO.N,GND*%
X107875200Y-68376900D03*
X101342700Y-50026900D03*
X101841800Y-55230700D03*
X107248100Y-66814800D03*
%TO.N,VBAT*%
X101130200Y-56857700D03*
X100147100Y-62172900D03*
X105186300Y-63635200D03*
X98268400Y-67879100D03*
X101925800Y-50027800D03*
%TO.N,VBAT_SENSE*%
X104195200Y-65219700D03*
X102800700Y-54906000D03*
%TO.N,SCL*%
X106426900Y-52251700D03*
X100055400Y-55197300D03*
X104187500Y-61202900D03*
%TO.N,VBUS*%
X107045200Y-58785200D03*
X103232800Y-50164500D03*
X104303900Y-70983600D03*
X105695200Y-64736100D03*
X100232700Y-67115400D03*
%TO.N,LED_A*%
X99252000Y-67677000D03*
X106127800Y-62578100D03*
%TO.N,CC1*%
X96899700Y-68284900D03*
X100945200Y-70391600D03*
%TO.N,USB_DP*%
X102945200Y-70402300D03*
X106379900Y-50314000D03*
%TO.N,USB_DM*%
X102171800Y-68254600D03*
X103964700Y-50149700D03*
%TO.N,IMU_INT1*%
X106261900Y-54676000D03*
X97182900Y-58725700D03*
%TO.N,IMU_INT2*%
X99453600Y-58334300D03*
X106698000Y-54183700D03*
%TO.N,SDA*%
X99751500Y-54708200D03*
X101188200Y-62202200D03*
X98495200Y-57887300D03*
%TO.N,SWDIO*%
X97971100Y-52633100D03*
%TO.N,SWDCLK*%
X98092600Y-54705100D03*
%TD*%
%TO.N,GND*%
D13*
X97875200Y-74250200D02*
X97875200Y-70050200D01*
X106515200Y-74250200D02*
X106515200Y-70050200D01*
%TO.N,VBAT*%
X101925800Y-50027800D02*
X101130200Y-50823400D01*
X100147100Y-62172900D02*
X101130200Y-61189800D01*
X101130200Y-61189800D02*
X101130200Y-56857700D01*
X101130200Y-50823400D02*
X101130200Y-56857700D01*
%TO.N,SCL*%
X104383800Y-54294800D02*
X106426900Y-52251700D01*
X104187500Y-61202900D02*
X104383800Y-61006600D01*
X104383800Y-61006600D02*
X104383800Y-54294800D01*
%TO.N,VBUS*%
X104303900Y-66127400D02*
X104303900Y-70983600D01*
X105695200Y-64736100D02*
X104303900Y-66127400D01*
X105695200Y-60135200D02*
X105695200Y-64736100D01*
X107045200Y-58785200D02*
X105695200Y-60135200D01*
%TO.N,USB_DP*%
X103600400Y-53093500D02*
X103600400Y-69747100D01*
X106379900Y-50314000D02*
X103600400Y-53093500D01*
X103600400Y-69747100D02*
X102945200Y-70402300D01*
%TO.N,USB_DM*%
X103964700Y-50149700D02*
X103358700Y-50755700D01*
X103358700Y-67067700D02*
X102171800Y-68254600D01*
X103358700Y-50755700D02*
X103358700Y-67067700D01*
%TD*%
%TA.AperFunction,Conductor*%
%TO.N,GND*%
G36*
X101518993Y-49704107D02*
G01*
X101554957Y-49753607D01*
X101554957Y-49814793D01*
X101546538Y-49833701D01*
X101529298Y-49863560D01*
X101529297Y-49863562D01*
X101529297Y-49863563D01*
X101518667Y-49903237D01*
X101500300Y-49971783D01*
X101500300Y-50022676D01*
X101481393Y-50080867D01*
X101471304Y-50092680D01*
X100974142Y-50589843D01*
X100974141Y-50589842D01*
X100896646Y-50667338D01*
X100896644Y-50667340D01*
X100896643Y-50667342D01*
X100882743Y-50700899D01*
X100854700Y-50768600D01*
X100854700Y-56490444D01*
X100835793Y-56548635D01*
X100825704Y-56560447D01*
X100789714Y-56596437D01*
X100733698Y-56693458D01*
X100733697Y-56693463D01*
X100704700Y-56801682D01*
X100704700Y-56913718D01*
X100724416Y-56987300D01*
X100733698Y-57021941D01*
X100789713Y-57118960D01*
X100789715Y-57118963D01*
X100825705Y-57154953D01*
X100853481Y-57209468D01*
X100854700Y-57224955D01*
X100854700Y-61034676D01*
X100835793Y-61092867D01*
X100825704Y-61104680D01*
X100211981Y-61718404D01*
X100157464Y-61746181D01*
X100141977Y-61747400D01*
X100091082Y-61747400D01*
X100052295Y-61757793D01*
X99982858Y-61776398D01*
X99885839Y-61832413D01*
X99806613Y-61911639D01*
X99750598Y-62008658D01*
X99750597Y-62008663D01*
X99721600Y-62116882D01*
X99721600Y-62228918D01*
X99729451Y-62258218D01*
X99750598Y-62337141D01*
X99806613Y-62434160D01*
X99806615Y-62434163D01*
X99885837Y-62513385D01*
X99918179Y-62532057D01*
X99982859Y-62569401D01*
X99982857Y-62569401D01*
X99982861Y-62569402D01*
X99982863Y-62569403D01*
X100091082Y-62598400D01*
X100091084Y-62598400D01*
X100203116Y-62598400D01*
X100203118Y-62598400D01*
X100311337Y-62569403D01*
X100311339Y-62569401D01*
X100311341Y-62569401D01*
X100357614Y-62542685D01*
X100408363Y-62513385D01*
X100487585Y-62434163D01*
X100543603Y-62337137D01*
X100568668Y-62243591D01*
X100601989Y-62192280D01*
X100659111Y-62170353D01*
X100718211Y-62186188D01*
X100756717Y-62233737D01*
X100762445Y-62256284D01*
X100762699Y-62258213D01*
X100791698Y-62366441D01*
X100847713Y-62463460D01*
X100847715Y-62463463D01*
X100926937Y-62542685D01*
X100926939Y-62542686D01*
X101023959Y-62598701D01*
X101023957Y-62598701D01*
X101023961Y-62598702D01*
X101023963Y-62598703D01*
X101132182Y-62627700D01*
X101132184Y-62627700D01*
X101244216Y-62627700D01*
X101244218Y-62627700D01*
X101352437Y-62598703D01*
X101352439Y-62598701D01*
X101352441Y-62598701D01*
X101403186Y-62569403D01*
X101449463Y-62542685D01*
X101528685Y-62463463D01*
X101584703Y-62366437D01*
X101613700Y-62258218D01*
X101613700Y-62146182D01*
X101584703Y-62037963D01*
X101584701Y-62037960D01*
X101584701Y-62037958D01*
X101528686Y-61940939D01*
X101528685Y-61940937D01*
X101449463Y-61861715D01*
X101449460Y-61861713D01*
X101352440Y-61805698D01*
X101352442Y-61805698D01*
X101310451Y-61794447D01*
X101244218Y-61776700D01*
X101171923Y-61776700D01*
X101113732Y-61757793D01*
X101077768Y-61708293D01*
X101077768Y-61647107D01*
X101101917Y-61607697D01*
X101363757Y-61345859D01*
X101376041Y-61316200D01*
X101405700Y-61244600D01*
X101405700Y-57224955D01*
X101424607Y-57166764D01*
X101434690Y-57154957D01*
X101470685Y-57118963D01*
X101526703Y-57021937D01*
X101555700Y-56913718D01*
X101555700Y-56801682D01*
X101526703Y-56693463D01*
X101526701Y-56693460D01*
X101526701Y-56693458D01*
X101470685Y-56596437D01*
X101434696Y-56560447D01*
X101406919Y-56505930D01*
X101405700Y-56490444D01*
X101405700Y-50978522D01*
X101424607Y-50920331D01*
X101434697Y-50908518D01*
X101860920Y-50482296D01*
X101915436Y-50454519D01*
X101930923Y-50453300D01*
X101981816Y-50453300D01*
X101981818Y-50453300D01*
X102090037Y-50424303D01*
X102090039Y-50424301D01*
X102090041Y-50424301D01*
X102118864Y-50407659D01*
X102187063Y-50368285D01*
X102266285Y-50289063D01*
X102314404Y-50205718D01*
X102322301Y-50192041D01*
X102322301Y-50192039D01*
X102322303Y-50192037D01*
X102351300Y-50083818D01*
X102351300Y-49971782D01*
X102322303Y-49863563D01*
X102305061Y-49833700D01*
X102292340Y-49773853D01*
X102317226Y-49717957D01*
X102370214Y-49687364D01*
X102390798Y-49685200D01*
X102871345Y-49685200D01*
X102929536Y-49704107D01*
X102965500Y-49753607D01*
X102965500Y-49814793D01*
X102941350Y-49854201D01*
X102907115Y-49888437D01*
X102892313Y-49903239D01*
X102836298Y-50000258D01*
X102836297Y-50000263D01*
X102807300Y-50108482D01*
X102807300Y-50220518D01*
X102830975Y-50308876D01*
X102836298Y-50328741D01*
X102883768Y-50410960D01*
X102892315Y-50425763D01*
X102971537Y-50504985D01*
X102971539Y-50504986D01*
X103051950Y-50551412D01*
X103092891Y-50596881D01*
X103099287Y-50657732D01*
X103093914Y-50675033D01*
X103083200Y-50700899D01*
X103083200Y-54412166D01*
X103064293Y-54470357D01*
X103014793Y-54506321D01*
X102958577Y-54507792D01*
X102856718Y-54480500D01*
X102744682Y-54480500D01*
X102678448Y-54498247D01*
X102636458Y-54509498D01*
X102539439Y-54565513D01*
X102460213Y-54644739D01*
X102404198Y-54741758D01*
X102404197Y-54741763D01*
X102375200Y-54849982D01*
X102375200Y-54962018D01*
X102389795Y-55016486D01*
X102404198Y-55070241D01*
X102445215Y-55141283D01*
X102460215Y-55167263D01*
X102539437Y-55246485D01*
X102539439Y-55246486D01*
X102636459Y-55302501D01*
X102636457Y-55302501D01*
X102636461Y-55302502D01*
X102636463Y-55302503D01*
X102744682Y-55331500D01*
X102744684Y-55331500D01*
X102856716Y-55331500D01*
X102856718Y-55331500D01*
X102958580Y-55304206D01*
X103019678Y-55307408D01*
X103067228Y-55345913D01*
X103083200Y-55399833D01*
X103083200Y-66912576D01*
X103064293Y-66970767D01*
X103054204Y-66982580D01*
X102236681Y-67800104D01*
X102182164Y-67827881D01*
X102166677Y-67829100D01*
X102115782Y-67829100D01*
X102049548Y-67846847D01*
X102007558Y-67858098D01*
X101910539Y-67914113D01*
X101831313Y-67993339D01*
X101775298Y-68090358D01*
X101767178Y-68120663D01*
X101746300Y-68198582D01*
X101746300Y-68310618D01*
X101754419Y-68340918D01*
X101775298Y-68418841D01*
X101831313Y-68515860D01*
X101831315Y-68515863D01*
X101910537Y-68595085D01*
X101910539Y-68595086D01*
X102007559Y-68651101D01*
X102007557Y-68651101D01*
X102007561Y-68651102D01*
X102007563Y-68651103D01*
X102115782Y-68680100D01*
X102115784Y-68680100D01*
X102227816Y-68680100D01*
X102227818Y-68680100D01*
X102336037Y-68651103D01*
X102336039Y-68651101D01*
X102336041Y-68651101D01*
X102380582Y-68625385D01*
X102433063Y-68595085D01*
X102512285Y-68515863D01*
X102568303Y-68418837D01*
X102597300Y-68310618D01*
X102597300Y-68259723D01*
X102616207Y-68201532D01*
X102626296Y-68189719D01*
X103155896Y-67660119D01*
X103210413Y-67632342D01*
X103270845Y-67641913D01*
X103314110Y-67685178D01*
X103324900Y-67730123D01*
X103324900Y-69591977D01*
X103305993Y-69650168D01*
X103295904Y-69661980D01*
X103010082Y-69947803D01*
X102955565Y-69975581D01*
X102940078Y-69976800D01*
X102889182Y-69976800D01*
X102822948Y-69994547D01*
X102780958Y-70005798D01*
X102683939Y-70061813D01*
X102604713Y-70141039D01*
X102548698Y-70238058D01*
X102548697Y-70238063D01*
X102519700Y-70346282D01*
X102519700Y-70458318D01*
X102545272Y-70553755D01*
X102548698Y-70566541D01*
X102604713Y-70663560D01*
X102604715Y-70663563D01*
X102683937Y-70742785D01*
X102683939Y-70742786D01*
X102780959Y-70798801D01*
X102780957Y-70798801D01*
X102780961Y-70798802D01*
X102780963Y-70798803D01*
X102889182Y-70827800D01*
X102889184Y-70827800D01*
X103001216Y-70827800D01*
X103001218Y-70827800D01*
X103109437Y-70798803D01*
X103109439Y-70798801D01*
X103109441Y-70798801D01*
X103138264Y-70782159D01*
X103206463Y-70742785D01*
X103285685Y-70663563D01*
X103341703Y-70566537D01*
X103370700Y-70458318D01*
X103370700Y-70407422D01*
X103389607Y-70349231D01*
X103399697Y-70337418D01*
X103598347Y-70138768D01*
X103833958Y-69903158D01*
X103837935Y-69893555D01*
X103877671Y-69847029D01*
X103937166Y-69832745D01*
X103993694Y-69856159D01*
X104025664Y-69908327D01*
X104028400Y-69931440D01*
X104028400Y-70616344D01*
X104009493Y-70674535D01*
X103999404Y-70686347D01*
X103963414Y-70722337D01*
X103907398Y-70819358D01*
X103891215Y-70879756D01*
X103878400Y-70927582D01*
X103878400Y-71039618D01*
X103888763Y-71078293D01*
X103907398Y-71147841D01*
X103963413Y-71244860D01*
X103963415Y-71244863D01*
X104042637Y-71324085D01*
X104042639Y-71324086D01*
X104139659Y-71380101D01*
X104139657Y-71380101D01*
X104139661Y-71380102D01*
X104139663Y-71380103D01*
X104247882Y-71409100D01*
X104247884Y-71409100D01*
X104359916Y-71409100D01*
X104359918Y-71409100D01*
X104468137Y-71380103D01*
X104468139Y-71380101D01*
X104468141Y-71380101D01*
X104496964Y-71363459D01*
X104565163Y-71324085D01*
X104644385Y-71244863D01*
X104700403Y-71147837D01*
X104711797Y-71105311D01*
X104745119Y-71053999D01*
X104802240Y-71032072D01*
X104856920Y-71045198D01*
X104882364Y-71059888D01*
X105016017Y-71095700D01*
X105016019Y-71095700D01*
X105154381Y-71095700D01*
X105154383Y-71095700D01*
X105288036Y-71059888D01*
X105407865Y-70990705D01*
X105505705Y-70892865D01*
X105574888Y-70773036D01*
X105585522Y-70733347D01*
X105618844Y-70682035D01*
X105675966Y-70660108D01*
X105735066Y-70675943D01*
X105773572Y-70723492D01*
X105778246Y-70739657D01*
X105794022Y-70818965D01*
X105794023Y-70818970D01*
X105850558Y-70955457D01*
X105932634Y-71078293D01*
X106037106Y-71182765D01*
X106159942Y-71264841D01*
X106296435Y-71321378D01*
X106296434Y-71321378D01*
X106365200Y-71335055D01*
X106365200Y-70860008D01*
X106399404Y-70879756D01*
X106475704Y-70900200D01*
X106554696Y-70900200D01*
X106630996Y-70879756D01*
X106665200Y-70860008D01*
X106665200Y-71335054D01*
X106733965Y-71321378D01*
X106870457Y-71264841D01*
X106993293Y-71182765D01*
X107097765Y-71078293D01*
X107179841Y-70955457D01*
X107236376Y-70818970D01*
X107236378Y-70818964D01*
X107265199Y-70674071D01*
X107265200Y-70674067D01*
X107265200Y-70200201D01*
X107265199Y-70200200D01*
X106815200Y-70200200D01*
X106815200Y-69900200D01*
X107265199Y-69900200D01*
X107265200Y-69900199D01*
X107265200Y-69426332D01*
X107265199Y-69426328D01*
X107236378Y-69281435D01*
X107236376Y-69281429D01*
X107179841Y-69144942D01*
X107097765Y-69022106D01*
X106993293Y-68917634D01*
X106870457Y-68835558D01*
X106733967Y-68779022D01*
X106665200Y-68765343D01*
X106665200Y-69240391D01*
X106630996Y-69220644D01*
X106554696Y-69200200D01*
X106475704Y-69200200D01*
X106399404Y-69220644D01*
X106365200Y-69240391D01*
X106365200Y-68765343D01*
X106296432Y-68779022D01*
X106159942Y-68835558D01*
X106037106Y-68917634D01*
X105932634Y-69022106D01*
X105850558Y-69144942D01*
X105794023Y-69281429D01*
X105794021Y-69281435D01*
X105765200Y-69426328D01*
X105765200Y-69900199D01*
X105765201Y-69900200D01*
X106215200Y-69900200D01*
X106215200Y-70200200D01*
X105765201Y-70200200D01*
X105765200Y-70200201D01*
X105765200Y-70329111D01*
X105746293Y-70387302D01*
X105696793Y-70423266D01*
X105635607Y-70423266D01*
X105586107Y-70387302D01*
X105576674Y-70370458D01*
X105564419Y-70349231D01*
X105505705Y-70247535D01*
X105407865Y-70149695D01*
X105288036Y-70080512D01*
X105154383Y-70044700D01*
X105016017Y-70044700D01*
X104882364Y-70080512D01*
X104762535Y-70149695D01*
X104748401Y-70163828D01*
X104693887Y-70191604D01*
X104633455Y-70182033D01*
X104590190Y-70138768D01*
X104579400Y-70093823D01*
X104579400Y-66282523D01*
X104598307Y-66224332D01*
X104608396Y-66212519D01*
X105630320Y-65190596D01*
X105684837Y-65162819D01*
X105700324Y-65161600D01*
X105751216Y-65161600D01*
X105751218Y-65161600D01*
X105859437Y-65132603D01*
X105859439Y-65132601D01*
X105859441Y-65132601D01*
X105888264Y-65115959D01*
X105956463Y-65076585D01*
X106035685Y-64997363D01*
X106091703Y-64900337D01*
X106120700Y-64792118D01*
X106120700Y-64680082D01*
X106091703Y-64571863D01*
X106091701Y-64571860D01*
X106091701Y-64571858D01*
X106035685Y-64474837D01*
X105999696Y-64438847D01*
X105971919Y-64384330D01*
X105970700Y-64368844D01*
X105970700Y-63102600D01*
X105989607Y-63044409D01*
X106039107Y-63008445D01*
X106069700Y-63003600D01*
X106183816Y-63003600D01*
X106183818Y-63003600D01*
X106292037Y-62974603D01*
X106292039Y-62974601D01*
X106292041Y-62974601D01*
X106320864Y-62957959D01*
X106389063Y-62918585D01*
X106468285Y-62839363D01*
X106524303Y-62742337D01*
X106553300Y-62634118D01*
X106553300Y-62522082D01*
X106524303Y-62413863D01*
X106524301Y-62413860D01*
X106524301Y-62413858D01*
X106468286Y-62316839D01*
X106468285Y-62316837D01*
X106389063Y-62237615D01*
X106389060Y-62237613D01*
X106292040Y-62181598D01*
X106292042Y-62181598D01*
X106250051Y-62170347D01*
X106183818Y-62152600D01*
X106071782Y-62152600D01*
X106069700Y-62152600D01*
X106011509Y-62133693D01*
X105975545Y-62084193D01*
X105970700Y-62053600D01*
X105970700Y-60290323D01*
X105989607Y-60232132D01*
X105999696Y-60220319D01*
X106980320Y-59239696D01*
X107034837Y-59211919D01*
X107050324Y-59210700D01*
X107101216Y-59210700D01*
X107101218Y-59210700D01*
X107209437Y-59181703D01*
X107209439Y-59181701D01*
X107209441Y-59181701D01*
X107238264Y-59165059D01*
X107306463Y-59125685D01*
X107385685Y-59046463D01*
X107441703Y-58949437D01*
X107470700Y-58841218D01*
X107470700Y-58729182D01*
X107441703Y-58620963D01*
X107441701Y-58620960D01*
X107441701Y-58620958D01*
X107385686Y-58523939D01*
X107385685Y-58523937D01*
X107306463Y-58444715D01*
X107306460Y-58444713D01*
X107209440Y-58388698D01*
X107209442Y-58388698D01*
X107167451Y-58377447D01*
X107101218Y-58359700D01*
X106989182Y-58359700D01*
X106922948Y-58377447D01*
X106880958Y-58388698D01*
X106783939Y-58444713D01*
X106704713Y-58523939D01*
X106648698Y-58620958D01*
X106619700Y-58729183D01*
X106619700Y-58780076D01*
X106600793Y-58838267D01*
X106590704Y-58850080D01*
X105539142Y-59901643D01*
X105539141Y-59901642D01*
X105461646Y-59979138D01*
X105461644Y-59979140D01*
X105461643Y-59979142D01*
X105461643Y-59979143D01*
X105419700Y-60080400D01*
X105419700Y-63128210D01*
X105400793Y-63186401D01*
X105351293Y-63222365D01*
X105295078Y-63223836D01*
X105242318Y-63209700D01*
X105130282Y-63209700D01*
X105077522Y-63223837D01*
X105022058Y-63238698D01*
X104925039Y-63294713D01*
X104845813Y-63373939D01*
X104789798Y-63470958D01*
X104789797Y-63470963D01*
X104760800Y-63579182D01*
X104760800Y-63691218D01*
X104786372Y-63786655D01*
X104789798Y-63799441D01*
X104845813Y-63896460D01*
X104845815Y-63896463D01*
X104925037Y-63975685D01*
X104925039Y-63975686D01*
X105022059Y-64031701D01*
X105022057Y-64031701D01*
X105022061Y-64031702D01*
X105022063Y-64031703D01*
X105130282Y-64060700D01*
X105130284Y-64060700D01*
X105242317Y-64060700D01*
X105242318Y-64060700D01*
X105295077Y-64046563D01*
X105356177Y-64049764D01*
X105403728Y-64088269D01*
X105419700Y-64142189D01*
X105419700Y-64368844D01*
X105400793Y-64427035D01*
X105390704Y-64438847D01*
X105354714Y-64474837D01*
X105298698Y-64571858D01*
X105269700Y-64680083D01*
X105269700Y-64730976D01*
X105250793Y-64789167D01*
X105240704Y-64800980D01*
X104789704Y-65251980D01*
X104735187Y-65279757D01*
X104674755Y-65270186D01*
X104631490Y-65226921D01*
X104620700Y-65181976D01*
X104620700Y-65163683D01*
X104620700Y-65163682D01*
X104591703Y-65055463D01*
X104591701Y-65055460D01*
X104591701Y-65055458D01*
X104535686Y-64958439D01*
X104535685Y-64958437D01*
X104456463Y-64879215D01*
X104456460Y-64879213D01*
X104359440Y-64823198D01*
X104359442Y-64823198D01*
X104317451Y-64811947D01*
X104251218Y-64794200D01*
X104139182Y-64794200D01*
X104043744Y-64819772D01*
X104030959Y-64823198D01*
X104024399Y-64826986D01*
X103964550Y-64839706D01*
X103908655Y-64814819D01*
X103878063Y-64761831D01*
X103875900Y-64741249D01*
X103875900Y-61685796D01*
X103894807Y-61627605D01*
X103944307Y-61591641D01*
X104005493Y-61591641D01*
X104018430Y-61597401D01*
X104023257Y-61599401D01*
X104023261Y-61599402D01*
X104023263Y-61599403D01*
X104131482Y-61628400D01*
X104131484Y-61628400D01*
X104243516Y-61628400D01*
X104243518Y-61628400D01*
X104351737Y-61599403D01*
X104351739Y-61599401D01*
X104351741Y-61599401D01*
X104380564Y-61582759D01*
X104448763Y-61543385D01*
X104527985Y-61464163D01*
X104584003Y-61367137D01*
X104613000Y-61258918D01*
X104613000Y-61192869D01*
X104620533Y-61154992D01*
X104623818Y-61147058D01*
X104629641Y-61133000D01*
X104659300Y-61061400D01*
X104659300Y-57856143D01*
X105544700Y-57856143D01*
X105544700Y-58014257D01*
X105585623Y-58166984D01*
X105664680Y-58303916D01*
X105776484Y-58415720D01*
X105913416Y-58494777D01*
X106066143Y-58535700D01*
X106066145Y-58535700D01*
X106224255Y-58535700D01*
X106224257Y-58535700D01*
X106376984Y-58494777D01*
X106513916Y-58415720D01*
X106625720Y-58303916D01*
X106704777Y-58166984D01*
X106745700Y-58014257D01*
X106745700Y-57856143D01*
X106704777Y-57703416D01*
X106625720Y-57566484D01*
X106513916Y-57454680D01*
X106376984Y-57375623D01*
X106224257Y-57334700D01*
X106066143Y-57334700D01*
X105913416Y-57375623D01*
X105776484Y-57454680D01*
X105664680Y-57566484D01*
X105585623Y-57703416D01*
X105544700Y-57856143D01*
X104659300Y-57856143D01*
X104659300Y-54619982D01*
X105836400Y-54619982D01*
X105836400Y-54732018D01*
X105861972Y-54827455D01*
X105865398Y-54840241D01*
X105920707Y-54936037D01*
X105921415Y-54937263D01*
X106000637Y-55016485D01*
X106000639Y-55016486D01*
X106097659Y-55072501D01*
X106097657Y-55072501D01*
X106097661Y-55072502D01*
X106097663Y-55072503D01*
X106205882Y-55101500D01*
X106205884Y-55101500D01*
X106317916Y-55101500D01*
X106317918Y-55101500D01*
X106426137Y-55072503D01*
X106426139Y-55072501D01*
X106426141Y-55072501D01*
X106467391Y-55048685D01*
X106523163Y-55016485D01*
X106602385Y-54937263D01*
X106658403Y-54840237D01*
X106687400Y-54732018D01*
X106687400Y-54703015D01*
X106706307Y-54644824D01*
X106755807Y-54608860D01*
X106760743Y-54607397D01*
X106862237Y-54580203D01*
X106862240Y-54580201D01*
X106862241Y-54580201D01*
X106891064Y-54563559D01*
X106959263Y-54524185D01*
X107038485Y-54444963D01*
X107094503Y-54347937D01*
X107123500Y-54239718D01*
X107123500Y-54127682D01*
X107094503Y-54019463D01*
X107094501Y-54019460D01*
X107094501Y-54019458D01*
X107038486Y-53922439D01*
X107038485Y-53922437D01*
X106959263Y-53843215D01*
X106959260Y-53843213D01*
X106862240Y-53787198D01*
X106862242Y-53787198D01*
X106820251Y-53775947D01*
X106754018Y-53758200D01*
X106641982Y-53758200D01*
X106575748Y-53775947D01*
X106533758Y-53787198D01*
X106436739Y-53843213D01*
X106357513Y-53922439D01*
X106301498Y-54019458D01*
X106272500Y-54127683D01*
X106272500Y-54156684D01*
X106253593Y-54214875D01*
X106204093Y-54250839D01*
X106199123Y-54252311D01*
X106097658Y-54279498D01*
X106000639Y-54335513D01*
X105921413Y-54414739D01*
X105865398Y-54511758D01*
X105862068Y-54524186D01*
X105836400Y-54619982D01*
X104659300Y-54619982D01*
X104659300Y-54449923D01*
X104678207Y-54391732D01*
X104688296Y-54379919D01*
X106362020Y-52706196D01*
X106416537Y-52678419D01*
X106432024Y-52677200D01*
X106482916Y-52677200D01*
X106482918Y-52677200D01*
X106591137Y-52648203D01*
X106591139Y-52648201D01*
X106591141Y-52648201D01*
X106619964Y-52631559D01*
X106688163Y-52592185D01*
X106767385Y-52512963D01*
X106806759Y-52444764D01*
X106823401Y-52415941D01*
X106823401Y-52415939D01*
X106823403Y-52415937D01*
X106852400Y-52307718D01*
X106852400Y-52195682D01*
X106823403Y-52087463D01*
X106823401Y-52087460D01*
X106823401Y-52087458D01*
X106767386Y-51990439D01*
X106767385Y-51990437D01*
X106688163Y-51911215D01*
X106688160Y-51911213D01*
X106591140Y-51855198D01*
X106591142Y-51855198D01*
X106549151Y-51843947D01*
X106482918Y-51826200D01*
X106370882Y-51826200D01*
X106304648Y-51843947D01*
X106262658Y-51855198D01*
X106165639Y-51911213D01*
X106086413Y-51990439D01*
X106030398Y-52087458D01*
X106001400Y-52195683D01*
X106001400Y-52246576D01*
X105982493Y-52304767D01*
X105972404Y-52316580D01*
X104227742Y-54061243D01*
X104227741Y-54061242D01*
X104150246Y-54138738D01*
X104150244Y-54138740D01*
X104150243Y-54138742D01*
X104150243Y-54138743D01*
X104108300Y-54240000D01*
X104108300Y-55938300D01*
X104103455Y-55953211D01*
X104103455Y-55968893D01*
X104094238Y-55981578D01*
X104089393Y-55996491D01*
X104076707Y-56005707D01*
X104067491Y-56018393D01*
X104052578Y-56023238D01*
X104039893Y-56032455D01*
X104009300Y-56037300D01*
X103974900Y-56037300D01*
X103916709Y-56018393D01*
X103880745Y-55968893D01*
X103875900Y-55938300D01*
X103875900Y-53248623D01*
X103894807Y-53190432D01*
X103904896Y-53178619D01*
X106315020Y-50768496D01*
X106369537Y-50740719D01*
X106385024Y-50739500D01*
X106435916Y-50739500D01*
X106435918Y-50739500D01*
X106544137Y-50710503D01*
X106544139Y-50710501D01*
X106544141Y-50710501D01*
X106572964Y-50693859D01*
X106641163Y-50654485D01*
X106720385Y-50575263D01*
X106776403Y-50478237D01*
X106805400Y-50370018D01*
X106805400Y-50257982D01*
X106776403Y-50149763D01*
X106776401Y-50149760D01*
X106776401Y-50149758D01*
X106720386Y-50052739D01*
X106720385Y-50052737D01*
X106641163Y-49973515D01*
X106641160Y-49973513D01*
X106544140Y-49917498D01*
X106544142Y-49917498D01*
X106490925Y-49903239D01*
X106435918Y-49888500D01*
X106323882Y-49888500D01*
X106268875Y-49903239D01*
X106215658Y-49917498D01*
X106118639Y-49973513D01*
X106039413Y-50052739D01*
X105983398Y-50149758D01*
X105954400Y-50257983D01*
X105954400Y-50308876D01*
X105935493Y-50367067D01*
X105925404Y-50378880D01*
X103803204Y-52501080D01*
X103748687Y-52528857D01*
X103688255Y-52519286D01*
X103644990Y-52476021D01*
X103634200Y-52431076D01*
X103634200Y-50910822D01*
X103653107Y-50852631D01*
X103663197Y-50840818D01*
X103899820Y-50604196D01*
X103954336Y-50576419D01*
X103969823Y-50575200D01*
X104020716Y-50575200D01*
X104020718Y-50575200D01*
X104128937Y-50546203D01*
X104128939Y-50546201D01*
X104128941Y-50546201D01*
X104157764Y-50529559D01*
X104225963Y-50490185D01*
X104305185Y-50410963D01*
X104361203Y-50313937D01*
X104390200Y-50205718D01*
X104390200Y-50093682D01*
X104361203Y-49985463D01*
X104361201Y-49985460D01*
X104361201Y-49985458D01*
X104305186Y-49888439D01*
X104305185Y-49888437D01*
X104270949Y-49854201D01*
X104243174Y-49799687D01*
X104252745Y-49739255D01*
X104296010Y-49695990D01*
X104340955Y-49685200D01*
X108345700Y-49685200D01*
X108403891Y-49704107D01*
X108439855Y-49753607D01*
X108444700Y-49784200D01*
X108444700Y-57358715D01*
X108425793Y-57416906D01*
X108376293Y-57452870D01*
X108315107Y-57452870D01*
X108296201Y-57444452D01*
X108176985Y-57375623D01*
X108113882Y-57358715D01*
X108024257Y-57334700D01*
X107866143Y-57334700D01*
X107713416Y-57375623D01*
X107576484Y-57454680D01*
X107464680Y-57566484D01*
X107385623Y-57703416D01*
X107344700Y-57856143D01*
X107344700Y-58014257D01*
X107385623Y-58166984D01*
X107464680Y-58303916D01*
X107576484Y-58415720D01*
X107713416Y-58494777D01*
X107866143Y-58535700D01*
X107866145Y-58535700D01*
X108024255Y-58535700D01*
X108024257Y-58535700D01*
X108176984Y-58494777D01*
X108296203Y-58425946D01*
X108356048Y-58413226D01*
X108411944Y-58438113D01*
X108442537Y-58491101D01*
X108444700Y-58511684D01*
X108444700Y-75381959D01*
X108444488Y-75388434D01*
X108429729Y-75613605D01*
X108428039Y-75626444D01*
X108384649Y-75844584D01*
X108381297Y-75857092D01*
X108309808Y-76067693D01*
X108304852Y-76079658D01*
X108206483Y-76279128D01*
X108200009Y-76290342D01*
X108076443Y-76475273D01*
X108068559Y-76485547D01*
X107921917Y-76652760D01*
X107912760Y-76661917D01*
X107745547Y-76808559D01*
X107735273Y-76816443D01*
X107550342Y-76940009D01*
X107539128Y-76946483D01*
X107339658Y-77044852D01*
X107327693Y-77049808D01*
X107117092Y-77121297D01*
X107104584Y-77124649D01*
X106886444Y-77168039D01*
X106873605Y-77169729D01*
X106648434Y-77184488D01*
X106641959Y-77184700D01*
X97748441Y-77184700D01*
X97741966Y-77184488D01*
X97516794Y-77169729D01*
X97503955Y-77168039D01*
X97285815Y-77124649D01*
X97273307Y-77121297D01*
X97062706Y-77049808D01*
X97050741Y-77044852D01*
X96851271Y-76946483D01*
X96840057Y-76940009D01*
X96655126Y-76816443D01*
X96644852Y-76808559D01*
X96477639Y-76661917D01*
X96468482Y-76652760D01*
X96321840Y-76485547D01*
X96313956Y-76475273D01*
X96190390Y-76290342D01*
X96183916Y-76279128D01*
X96169440Y-76249774D01*
X96085543Y-76079650D01*
X96080595Y-76067702D01*
X96009099Y-75857083D01*
X96005752Y-75844594D01*
X95962359Y-75626437D01*
X95960670Y-75613605D01*
X95945912Y-75388434D01*
X95945700Y-75381959D01*
X95945700Y-73776328D01*
X97125200Y-73776328D01*
X97125200Y-74100199D01*
X97125201Y-74100200D01*
X97575200Y-74100200D01*
X97575200Y-74400200D01*
X97125201Y-74400200D01*
X97125200Y-74400201D01*
X97125200Y-74724071D01*
X97154021Y-74868964D01*
X97154023Y-74868970D01*
X97210558Y-75005457D01*
X97292634Y-75128293D01*
X97397106Y-75232765D01*
X97519942Y-75314841D01*
X97656435Y-75371378D01*
X97656434Y-75371378D01*
X97725200Y-75385055D01*
X97725200Y-74910008D01*
X97759404Y-74929756D01*
X97835704Y-74950200D01*
X97914696Y-74950200D01*
X97990996Y-74929756D01*
X98025200Y-74910008D01*
X98025200Y-75385054D01*
X98093965Y-75371378D01*
X98230457Y-75314841D01*
X98353293Y-75232765D01*
X98457765Y-75128293D01*
X98539841Y-75005457D01*
X98596376Y-74868970D01*
X98596378Y-74868964D01*
X98625199Y-74724071D01*
X98625200Y-74724067D01*
X98625200Y-74400201D01*
X98625199Y-74400200D01*
X98175200Y-74400200D01*
X98175200Y-74100200D01*
X98625199Y-74100200D01*
X98625200Y-74100199D01*
X98625200Y-73776332D01*
X98625199Y-73776328D01*
X105765200Y-73776328D01*
X105765200Y-74100199D01*
X105765201Y-74100200D01*
X106215200Y-74100200D01*
X106215200Y-74400200D01*
X105765201Y-74400200D01*
X105765200Y-74400201D01*
X105765200Y-74724071D01*
X105794021Y-74868964D01*
X105794023Y-74868970D01*
X105850558Y-75005457D01*
X105932634Y-75128293D01*
X106037106Y-75232765D01*
X106159942Y-75314841D01*
X106296435Y-75371378D01*
X106296434Y-75371378D01*
X106365200Y-75385055D01*
X106365200Y-74910008D01*
X106399404Y-74929756D01*
X106475704Y-74950200D01*
X106554696Y-74950200D01*
X106630996Y-74929756D01*
X106665200Y-74910008D01*
X106665200Y-75385054D01*
X106733965Y-75371378D01*
X106870457Y-75314841D01*
X106993293Y-75232765D01*
X107097765Y-75128293D01*
X107179841Y-75005457D01*
X107236376Y-74868970D01*
X107236378Y-74868964D01*
X107265199Y-74724071D01*
X107265200Y-74724067D01*
X107265200Y-74400201D01*
X107265199Y-74400200D01*
X106815200Y-74400200D01*
X106815200Y-74100200D01*
X107265199Y-74100200D01*
X107265200Y-74100199D01*
X107265200Y-73776332D01*
X107265199Y-73776328D01*
X107236378Y-73631435D01*
X107236376Y-73631429D01*
X107179841Y-73494942D01*
X107097765Y-73372106D01*
X106993293Y-73267634D01*
X106870457Y-73185558D01*
X106733967Y-73129022D01*
X106665200Y-73115343D01*
X106665200Y-73590391D01*
X106630996Y-73570644D01*
X106554696Y-73550200D01*
X106475704Y-73550200D01*
X106399404Y-73570644D01*
X106365200Y-73590391D01*
X106365200Y-73115343D01*
X106296432Y-73129022D01*
X106159942Y-73185558D01*
X106037106Y-73267634D01*
X105932634Y-73372106D01*
X105850558Y-73494942D01*
X105794023Y-73631429D01*
X105794021Y-73631435D01*
X105765200Y-73776328D01*
X98625199Y-73776328D01*
X98596378Y-73631435D01*
X98596376Y-73631429D01*
X98539841Y-73494942D01*
X98457765Y-73372106D01*
X98353293Y-73267634D01*
X98230457Y-73185558D01*
X98093967Y-73129022D01*
X98025200Y-73115343D01*
X98025200Y-73590391D01*
X97990996Y-73570644D01*
X97914696Y-73550200D01*
X97835704Y-73550200D01*
X97759404Y-73570644D01*
X97725200Y-73590391D01*
X97725200Y-73115343D01*
X97656432Y-73129022D01*
X97519942Y-73185558D01*
X97397106Y-73267634D01*
X97292634Y-73372106D01*
X97210558Y-73494942D01*
X97154023Y-73631429D01*
X97154021Y-73631435D01*
X97125200Y-73776328D01*
X95945700Y-73776328D01*
X95945700Y-69426328D01*
X97125200Y-69426328D01*
X97125200Y-69900199D01*
X97125201Y-69900200D01*
X97575200Y-69900200D01*
X97575200Y-70200200D01*
X97125201Y-70200200D01*
X97125200Y-70200201D01*
X97125200Y-70674071D01*
X97154021Y-70818964D01*
X97154023Y-70818970D01*
X97210558Y-70955457D01*
X97292634Y-71078293D01*
X97397106Y-71182765D01*
X97519942Y-71264841D01*
X97656435Y-71321378D01*
X97656434Y-71321378D01*
X97725200Y-71335055D01*
X97725200Y-70860008D01*
X97759404Y-70879756D01*
X97835704Y-70900200D01*
X97914696Y-70900200D01*
X97990996Y-70879756D01*
X98025200Y-70860008D01*
X98025200Y-71335054D01*
X98093965Y-71321378D01*
X98230457Y-71264841D01*
X98353293Y-71182765D01*
X98457765Y-71078293D01*
X98539841Y-70955457D01*
X98596376Y-70818970D01*
X98596378Y-70818964D01*
X98612153Y-70739658D01*
X98642049Y-70686274D01*
X98697614Y-70660658D01*
X98757624Y-70672595D01*
X98799157Y-70717524D01*
X98804877Y-70733348D01*
X98815510Y-70773032D01*
X98815511Y-70773034D01*
X98815512Y-70773036D01*
X98884695Y-70892865D01*
X98982535Y-70990705D01*
X99102364Y-71059888D01*
X99236017Y-71095700D01*
X99236019Y-71095700D01*
X99374381Y-71095700D01*
X99374383Y-71095700D01*
X99508036Y-71059888D01*
X99627865Y-70990705D01*
X99725705Y-70892865D01*
X99794888Y-70773036D01*
X99830700Y-70639383D01*
X99830700Y-70501017D01*
X99794888Y-70367364D01*
X99776539Y-70335582D01*
X100519700Y-70335582D01*
X100519700Y-70447618D01*
X100545272Y-70543055D01*
X100548698Y-70555841D01*
X100596931Y-70639381D01*
X100604715Y-70652863D01*
X100683937Y-70732085D01*
X100683939Y-70732086D01*
X100780959Y-70788101D01*
X100780957Y-70788101D01*
X100780961Y-70788102D01*
X100780963Y-70788103D01*
X100889182Y-70817100D01*
X100889184Y-70817100D01*
X101001216Y-70817100D01*
X101001218Y-70817100D01*
X101109437Y-70788103D01*
X101109439Y-70788101D01*
X101109441Y-70788101D01*
X101138264Y-70771459D01*
X101206463Y-70732085D01*
X101285685Y-70652863D01*
X101335523Y-70566541D01*
X101341701Y-70555841D01*
X101341701Y-70555839D01*
X101341703Y-70555837D01*
X101370700Y-70447618D01*
X101370700Y-70335582D01*
X101341703Y-70227363D01*
X101341701Y-70227360D01*
X101341701Y-70227358D01*
X101285686Y-70130339D01*
X101285685Y-70130337D01*
X101206463Y-70051115D01*
X101195352Y-70044700D01*
X101109440Y-69995098D01*
X101109442Y-69995098D01*
X101067451Y-69983847D01*
X101001218Y-69966100D01*
X100889182Y-69966100D01*
X100822948Y-69983847D01*
X100780958Y-69995098D01*
X100683939Y-70051113D01*
X100604713Y-70130339D01*
X100548698Y-70227358D01*
X100548697Y-70227363D01*
X100519700Y-70335582D01*
X99776539Y-70335582D01*
X99725705Y-70247535D01*
X99627865Y-70149695D01*
X99508036Y-70080512D01*
X99374383Y-70044700D01*
X99236017Y-70044700D01*
X99102364Y-70080512D01*
X98982535Y-70149695D01*
X98884695Y-70247535D01*
X98815512Y-70367364D01*
X98815511Y-70367366D01*
X98812268Y-70372984D01*
X98811118Y-70372320D01*
X98775925Y-70413524D01*
X98716429Y-70427806D01*
X98659902Y-70404389D01*
X98627935Y-70352219D01*
X98625200Y-70329111D01*
X98625200Y-70200201D01*
X98625199Y-70200200D01*
X98175200Y-70200200D01*
X98175200Y-69900200D01*
X98625199Y-69900200D01*
X98625200Y-69900199D01*
X98625200Y-69426332D01*
X98625199Y-69426328D01*
X98596378Y-69281435D01*
X98596376Y-69281429D01*
X98539841Y-69144942D01*
X98457765Y-69022106D01*
X98353293Y-68917634D01*
X98230457Y-68835558D01*
X98093967Y-68779022D01*
X98025200Y-68765343D01*
X98025200Y-69240391D01*
X97990996Y-69220644D01*
X97914696Y-69200200D01*
X97835704Y-69200200D01*
X97759404Y-69220644D01*
X97725200Y-69240391D01*
X97725200Y-68765343D01*
X97656432Y-68779022D01*
X97519942Y-68835558D01*
X97397106Y-68917634D01*
X97292634Y-69022106D01*
X97210558Y-69144942D01*
X97154023Y-69281429D01*
X97154021Y-69281435D01*
X97125200Y-69426328D01*
X95945700Y-69426328D01*
X95945700Y-68228882D01*
X96474200Y-68228882D01*
X96474200Y-68340918D01*
X96495078Y-68418837D01*
X96503198Y-68449141D01*
X96541721Y-68515863D01*
X96559215Y-68546163D01*
X96638437Y-68625385D01*
X96638439Y-68625386D01*
X96735459Y-68681401D01*
X96735457Y-68681401D01*
X96735461Y-68681402D01*
X96735463Y-68681403D01*
X96843682Y-68710400D01*
X96843684Y-68710400D01*
X96955716Y-68710400D01*
X96955718Y-68710400D01*
X97063937Y-68681403D01*
X97063939Y-68681401D01*
X97063941Y-68681401D01*
X97116418Y-68651103D01*
X97160963Y-68625385D01*
X97240185Y-68546163D01*
X97296203Y-68449137D01*
X97325200Y-68340918D01*
X97325200Y-68228882D01*
X97296203Y-68120663D01*
X97296201Y-68120660D01*
X97296201Y-68120658D01*
X97240186Y-68023639D01*
X97240185Y-68023637D01*
X97160963Y-67944415D01*
X97160960Y-67944413D01*
X97088069Y-67902329D01*
X97088068Y-67902329D01*
X97063939Y-67888398D01*
X97063938Y-67888397D01*
X97063937Y-67888397D01*
X96955718Y-67859400D01*
X96843682Y-67859400D01*
X96777448Y-67877147D01*
X96735458Y-67888398D01*
X96638439Y-67944413D01*
X96559213Y-68023639D01*
X96503198Y-68120658D01*
X96503197Y-68120663D01*
X96474200Y-68228882D01*
X95945700Y-68228882D01*
X95945700Y-67823082D01*
X97842900Y-67823082D01*
X97842900Y-67935118D01*
X97858500Y-67993337D01*
X97871898Y-68043341D01*
X97916538Y-68120658D01*
X97927915Y-68140363D01*
X98007137Y-68219585D01*
X98007139Y-68219586D01*
X98104159Y-68275601D01*
X98104157Y-68275601D01*
X98104161Y-68275602D01*
X98104163Y-68275603D01*
X98212382Y-68304600D01*
X98212384Y-68304600D01*
X98324416Y-68304600D01*
X98324418Y-68304600D01*
X98432637Y-68275603D01*
X98432639Y-68275601D01*
X98432641Y-68275601D01*
X98461464Y-68258959D01*
X98529663Y-68219585D01*
X98608885Y-68140363D01*
X98664903Y-68043337D01*
X98693900Y-67935118D01*
X98693900Y-67930815D01*
X98712807Y-67872624D01*
X98762307Y-67836660D01*
X98823493Y-67836660D01*
X98872993Y-67872624D01*
X98878628Y-67881301D01*
X98911515Y-67938263D01*
X98990737Y-68017485D01*
X98990739Y-68017486D01*
X99087759Y-68073501D01*
X99087757Y-68073501D01*
X99087761Y-68073502D01*
X99087763Y-68073503D01*
X99195982Y-68102500D01*
X99195984Y-68102500D01*
X99308016Y-68102500D01*
X99308018Y-68102500D01*
X99416237Y-68073503D01*
X99416239Y-68073501D01*
X99416241Y-68073501D01*
X99468486Y-68043337D01*
X99513263Y-68017485D01*
X99592485Y-67938263D01*
X99648503Y-67841237D01*
X99677500Y-67733018D01*
X99677500Y-67620982D01*
X99648503Y-67512763D01*
X99648501Y-67512760D01*
X99648501Y-67512758D01*
X99592486Y-67415739D01*
X99592485Y-67415737D01*
X99513263Y-67336515D01*
X99513260Y-67336513D01*
X99416240Y-67280498D01*
X99416242Y-67280498D01*
X99374251Y-67269247D01*
X99308018Y-67251500D01*
X99195982Y-67251500D01*
X99129748Y-67269247D01*
X99087758Y-67280498D01*
X98990739Y-67336513D01*
X98911513Y-67415739D01*
X98855498Y-67512758D01*
X98848570Y-67538615D01*
X98827343Y-67617838D01*
X98826500Y-67620983D01*
X98826500Y-67625284D01*
X98807593Y-67683475D01*
X98758093Y-67719439D01*
X98696907Y-67719439D01*
X98647407Y-67683475D01*
X98641764Y-67674785D01*
X98639174Y-67670299D01*
X98608885Y-67617837D01*
X98529663Y-67538615D01*
X98529660Y-67538613D01*
X98432640Y-67482598D01*
X98432642Y-67482598D01*
X98390651Y-67471347D01*
X98324418Y-67453600D01*
X98212382Y-67453600D01*
X98146148Y-67471347D01*
X98104158Y-67482598D01*
X98007139Y-67538613D01*
X97927913Y-67617839D01*
X97871898Y-67714858D01*
X97871897Y-67714863D01*
X97842900Y-67823082D01*
X95945700Y-67823082D01*
X95945700Y-67059382D01*
X99807200Y-67059382D01*
X99807200Y-67171418D01*
X99828658Y-67251500D01*
X99836198Y-67279641D01*
X99892213Y-67376660D01*
X99892215Y-67376663D01*
X99971437Y-67455885D01*
X99971439Y-67455886D01*
X100068459Y-67511901D01*
X100068457Y-67511901D01*
X100068461Y-67511902D01*
X100068463Y-67511903D01*
X100176682Y-67540900D01*
X100176684Y-67540900D01*
X100288716Y-67540900D01*
X100288718Y-67540900D01*
X100396937Y-67511903D01*
X100396939Y-67511901D01*
X100396941Y-67511901D01*
X100432943Y-67491115D01*
X100493963Y-67455885D01*
X100573185Y-67376663D01*
X100628706Y-67280498D01*
X100629201Y-67279641D01*
X100629201Y-67279639D01*
X100629203Y-67279637D01*
X100658200Y-67171418D01*
X100658200Y-67059382D01*
X100629203Y-66951163D01*
X100629201Y-66951160D01*
X100629201Y-66951158D01*
X100573186Y-66854139D01*
X100573185Y-66854137D01*
X100493963Y-66774915D01*
X100493960Y-66774913D01*
X100396940Y-66718898D01*
X100396942Y-66718898D01*
X100354951Y-66707647D01*
X100288718Y-66689900D01*
X100176682Y-66689900D01*
X100110448Y-66707647D01*
X100068458Y-66718898D01*
X99971439Y-66774913D01*
X99892213Y-66854139D01*
X99836198Y-66951158D01*
X99836197Y-66951163D01*
X99807200Y-67059382D01*
X95945700Y-67059382D01*
X95945700Y-58669682D01*
X96757400Y-58669682D01*
X96757400Y-58781718D01*
X96782972Y-58877155D01*
X96786398Y-58889941D01*
X96842413Y-58986960D01*
X96842415Y-58986963D01*
X96921637Y-59066185D01*
X96921639Y-59066186D01*
X97018659Y-59122201D01*
X97018657Y-59122201D01*
X97018661Y-59122202D01*
X97018663Y-59122203D01*
X97126882Y-59151200D01*
X97126884Y-59151200D01*
X97238916Y-59151200D01*
X97238918Y-59151200D01*
X97347137Y-59122203D01*
X97347139Y-59122201D01*
X97347141Y-59122201D01*
X97375964Y-59105559D01*
X97444163Y-59066185D01*
X97523385Y-58986963D01*
X97579403Y-58889937D01*
X97608400Y-58781718D01*
X97608400Y-58669682D01*
X97579403Y-58561463D01*
X97579401Y-58561460D01*
X97579401Y-58561458D01*
X97523386Y-58464439D01*
X97523385Y-58464437D01*
X97444163Y-58385215D01*
X97444160Y-58385213D01*
X97347140Y-58329198D01*
X97347142Y-58329198D01*
X97285942Y-58312800D01*
X97238918Y-58300200D01*
X97126882Y-58300200D01*
X97079858Y-58312800D01*
X97018658Y-58329198D01*
X96921639Y-58385213D01*
X96842413Y-58464439D01*
X96786398Y-58561458D01*
X96786397Y-58561463D01*
X96757400Y-58669682D01*
X95945700Y-58669682D01*
X95945700Y-57831282D01*
X98069700Y-57831282D01*
X98069700Y-57943318D01*
X98088708Y-58014257D01*
X98098698Y-58051541D01*
X98154713Y-58148560D01*
X98154715Y-58148563D01*
X98233937Y-58227785D01*
X98233939Y-58227786D01*
X98330959Y-58283801D01*
X98330957Y-58283801D01*
X98330961Y-58283802D01*
X98330963Y-58283803D01*
X98439182Y-58312800D01*
X98439184Y-58312800D01*
X98551216Y-58312800D01*
X98551218Y-58312800D01*
X98659437Y-58283803D01*
X98659439Y-58283801D01*
X98659441Y-58283801D01*
X98669000Y-58278282D01*
X99028100Y-58278282D01*
X99028100Y-58390318D01*
X99037647Y-58425947D01*
X99057098Y-58498541D01*
X99093424Y-58561458D01*
X99113115Y-58595563D01*
X99192337Y-58674785D01*
X99192339Y-58674786D01*
X99289359Y-58730801D01*
X99289357Y-58730801D01*
X99289361Y-58730802D01*
X99289363Y-58730803D01*
X99397582Y-58759800D01*
X99397584Y-58759800D01*
X99509616Y-58759800D01*
X99509618Y-58759800D01*
X99617837Y-58730803D01*
X99617839Y-58730801D01*
X99617841Y-58730801D01*
X99646664Y-58714159D01*
X99714863Y-58674785D01*
X99794085Y-58595563D01*
X99850103Y-58498537D01*
X99879100Y-58390318D01*
X99879100Y-58278282D01*
X99850103Y-58170063D01*
X99850101Y-58170060D01*
X99850101Y-58170058D01*
X99794086Y-58073039D01*
X99794085Y-58073037D01*
X99714863Y-57993815D01*
X99714860Y-57993813D01*
X99617840Y-57937798D01*
X99617842Y-57937798D01*
X99575851Y-57926547D01*
X99509618Y-57908800D01*
X99397582Y-57908800D01*
X99331348Y-57926547D01*
X99289358Y-57937798D01*
X99192339Y-57993813D01*
X99113113Y-58073039D01*
X99057098Y-58170058D01*
X99057097Y-58170063D01*
X99028100Y-58278282D01*
X98669000Y-58278282D01*
X98688264Y-58267159D01*
X98756463Y-58227785D01*
X98835685Y-58148563D01*
X98891703Y-58051537D01*
X98920700Y-57943318D01*
X98920700Y-57831282D01*
X98891703Y-57723063D01*
X98891701Y-57723060D01*
X98891701Y-57723058D01*
X98835686Y-57626039D01*
X98835685Y-57626037D01*
X98756463Y-57546815D01*
X98756460Y-57546813D01*
X98659440Y-57490798D01*
X98659442Y-57490798D01*
X98617451Y-57479547D01*
X98551218Y-57461800D01*
X98439182Y-57461800D01*
X98372948Y-57479547D01*
X98330958Y-57490798D01*
X98233939Y-57546813D01*
X98154713Y-57626039D01*
X98098698Y-57723058D01*
X98098697Y-57723063D01*
X98069700Y-57831282D01*
X95945700Y-57831282D01*
X95945700Y-54649082D01*
X97667100Y-54649082D01*
X97667100Y-54761118D01*
X97688300Y-54840237D01*
X97696098Y-54869341D01*
X97734606Y-54936037D01*
X97752115Y-54966363D01*
X97831337Y-55045585D01*
X97863679Y-55064257D01*
X97928359Y-55101601D01*
X97928357Y-55101601D01*
X97928361Y-55101602D01*
X97928363Y-55101603D01*
X98036582Y-55130600D01*
X98036584Y-55130600D01*
X98148616Y-55130600D01*
X98148618Y-55130600D01*
X98256837Y-55101603D01*
X98256839Y-55101601D01*
X98256841Y-55101601D01*
X98285664Y-55084959D01*
X98353863Y-55045585D01*
X98433085Y-54966363D01*
X98489103Y-54869337D01*
X98518100Y-54761118D01*
X98518100Y-54652182D01*
X99326000Y-54652182D01*
X99326000Y-54764218D01*
X99336863Y-54804758D01*
X99354998Y-54872441D01*
X99409223Y-54966360D01*
X99411015Y-54969463D01*
X99490237Y-55048685D01*
X99580401Y-55100741D01*
X99621341Y-55146209D01*
X99629900Y-55186476D01*
X99629900Y-55253318D01*
X99650849Y-55331500D01*
X99658898Y-55361541D01*
X99714913Y-55458560D01*
X99714915Y-55458563D01*
X99794137Y-55537785D01*
X99794139Y-55537786D01*
X99891159Y-55593801D01*
X99891157Y-55593801D01*
X99891161Y-55593802D01*
X99891163Y-55593803D01*
X99999382Y-55622800D01*
X99999384Y-55622800D01*
X100111416Y-55622800D01*
X100111418Y-55622800D01*
X100219637Y-55593803D01*
X100219639Y-55593801D01*
X100219641Y-55593801D01*
X100248464Y-55577159D01*
X100316663Y-55537785D01*
X100395885Y-55458563D01*
X100451903Y-55361537D01*
X100480900Y-55253318D01*
X100480900Y-55141282D01*
X100451903Y-55033063D01*
X100451901Y-55033060D01*
X100451901Y-55033058D01*
X100395886Y-54936039D01*
X100395885Y-54936037D01*
X100316663Y-54856815D01*
X100287949Y-54840237D01*
X100226499Y-54804758D01*
X100185559Y-54759288D01*
X100177000Y-54719022D01*
X100177000Y-54652183D01*
X100177000Y-54652182D01*
X100148003Y-54543963D01*
X100148001Y-54543960D01*
X100148001Y-54543958D01*
X100091986Y-54446939D01*
X100091985Y-54446937D01*
X100012763Y-54367715D01*
X100007394Y-54364615D01*
X99915740Y-54311698D01*
X99915742Y-54311698D01*
X99873751Y-54300447D01*
X99807518Y-54282700D01*
X99695482Y-54282700D01*
X99629248Y-54300447D01*
X99587258Y-54311698D01*
X99490239Y-54367713D01*
X99411013Y-54446939D01*
X99354998Y-54543958D01*
X99343532Y-54586752D01*
X99326000Y-54652182D01*
X98518100Y-54652182D01*
X98518100Y-54649082D01*
X98489103Y-54540863D01*
X98489101Y-54540860D01*
X98489101Y-54540858D01*
X98433086Y-54443839D01*
X98433085Y-54443837D01*
X98353863Y-54364615D01*
X98324983Y-54347941D01*
X98256840Y-54308598D01*
X98256842Y-54308598D01*
X98214851Y-54297347D01*
X98148618Y-54279600D01*
X98036582Y-54279600D01*
X97970348Y-54297347D01*
X97928358Y-54308598D01*
X97831339Y-54364613D01*
X97752113Y-54443839D01*
X97696098Y-54540858D01*
X97685556Y-54580201D01*
X97667100Y-54649082D01*
X95945700Y-54649082D01*
X95945700Y-52577082D01*
X97545600Y-52577082D01*
X97545600Y-52689118D01*
X97550176Y-52706196D01*
X97574598Y-52797341D01*
X97630613Y-52894360D01*
X97630615Y-52894363D01*
X97709837Y-52973585D01*
X97709839Y-52973586D01*
X97806859Y-53029601D01*
X97806857Y-53029601D01*
X97806861Y-53029602D01*
X97806863Y-53029603D01*
X97915082Y-53058600D01*
X97915084Y-53058600D01*
X98027116Y-53058600D01*
X98027118Y-53058600D01*
X98135337Y-53029603D01*
X98135339Y-53029601D01*
X98135341Y-53029601D01*
X98164164Y-53012959D01*
X98232363Y-52973585D01*
X98311585Y-52894363D01*
X98367603Y-52797337D01*
X98396600Y-52689118D01*
X98396600Y-52577082D01*
X98367603Y-52468863D01*
X98367601Y-52468860D01*
X98367601Y-52468858D01*
X98311586Y-52371839D01*
X98311585Y-52371837D01*
X98232363Y-52292615D01*
X98232360Y-52292613D01*
X98135340Y-52236598D01*
X98135342Y-52236598D01*
X98093351Y-52225347D01*
X98027118Y-52207600D01*
X97915082Y-52207600D01*
X97848848Y-52225347D01*
X97806858Y-52236598D01*
X97709839Y-52292613D01*
X97630613Y-52371839D01*
X97574598Y-52468858D01*
X97561086Y-52519286D01*
X97545600Y-52577082D01*
X95945700Y-52577082D01*
X95945700Y-49784200D01*
X95964607Y-49726009D01*
X96014107Y-49690045D01*
X96044700Y-49685200D01*
X101460802Y-49685200D01*
X101518993Y-49704107D01*
G37*
%TD.AperFunction*%
%TD*%
M02*
