%TF.GenerationSoftware,KiCad,Pcbnew,10.0.3*%
%TF.CreationDate,2026-08-29T19:28:22-04:00*%
%TF.ProjectId,pen-mixer,70656e2d-6d69-4786-9572-2e6b69636164,rev?*%
%TF.SameCoordinates,Original*%
%TF.FileFunction,Copper,L4,Bot*%
%TF.FilePolarity,Positive*%
%FSLAX46Y46*%
G04 Gerber Fmt 4.6, Leading zero omitted, Abs format (unit mm)*
G04 Created by KiCad (PCBNEW 10.0.3) date 2026-08-29 19:28:22*
%MOMM*%
%LPD*%
G01*
G04 APERTURE LIST*
%TA.AperFunction,ComponentPad*%
%ADD10O,1.000000X2.100000*%
%TD*%
%TA.AperFunction,ComponentPad*%
%ADD11O,1.000000X1.800000*%
%TD*%
%TA.AperFunction,SMDPad,CuDef*%
%ADD12R,1.000000X1.000000*%
%TD*%
%TA.AperFunction,SMDPad,CuDef*%
%ADD13R,1.400000X1.200000*%
%TD*%
%TA.AperFunction,ViaPad*%
%ADD14C,0.450000*%
%TD*%
%TA.AperFunction,Conductor*%
%ADD15C,0.150000*%
%TD*%
G04 APERTURE END LIST*
D10*
%TO.P,J1,SH*%
%TO.N,GND*%
X96925200Y-77150200D03*
D11*
X96925200Y-81350200D03*
D10*
X105565200Y-77150200D03*
D11*
X105565200Y-81350200D03*
%TD*%
D12*
%TO.P,TP2,1*%
%TO.N,SWDCLK*%
X100095200Y-43935200D03*
%TD*%
%TO.P,TP5,1*%
%TO.N,+3V3*%
X104495200Y-43935200D03*
%TD*%
%TO.P,TP4,1*%
%TO.N,GND*%
X102295200Y-43935200D03*
%TD*%
D13*
%TO.P,J2,1*%
%TO.N,VBAT*%
X102345200Y-83435200D03*
%TO.P,J2,2*%
%TO.N,GND*%
X100145200Y-83435200D03*
%TD*%
D12*
%TO.P,TP1,1*%
%TO.N,SWDIO*%
X97895200Y-43935200D03*
%TD*%
D14*
%TO.N,+3V3*%
X98309900Y-55864900D03*
X103385200Y-56433100D03*
%TO.N,GND*%
X101602700Y-50085200D03*
%TO.N,VBAT*%
X97807700Y-67692600D03*
X104608200Y-60687700D03*
X102288800Y-82290100D03*
X102288800Y-68902100D03*
X101254700Y-62874700D03*
X103676800Y-60680000D03*
%TO.N,VBAT_SENSE*%
X100657500Y-71965200D03*
X100595200Y-54711200D03*
%TO.N,SCL*%
X98992000Y-63989500D03*
X100156700Y-57215000D03*
X105474200Y-52315700D03*
%TO.N,VBUS*%
X98845200Y-75611100D03*
X103645200Y-73422600D03*
X100082700Y-67652800D03*
%TO.N,LED_A*%
X105246500Y-67876500D03*
X98460200Y-69737800D03*
%TO.N,USB_DP*%
X102719600Y-75504500D03*
X105470400Y-50543300D03*
%TO.N,USB_DM*%
X101205500Y-75609700D03*
X103711300Y-50167500D03*
%TO.N,IMU_INT1*%
X105086400Y-55334400D03*
X97331500Y-59575700D03*
%TO.N,IMU_INT2*%
X105478500Y-52968500D03*
X100938100Y-58922700D03*
%TO.N,SWDIO*%
X97021900Y-52958500D03*
X97009900Y-51105900D03*
%TO.N,SWDCLK*%
X97023900Y-52235300D03*
%TO.N,SDA*%
X97829000Y-62911400D03*
X99162500Y-54702500D03*
%TD*%
%TO.N,+3V3*%
D15*
X104495200Y-43935200D02*
X104495200Y-55323100D01*
X104495200Y-55323100D02*
X103385200Y-56433100D01*
%TO.N,GND*%
X102295200Y-49392700D02*
X102295200Y-43935200D01*
X101602700Y-50085200D02*
X102295200Y-49392700D01*
X96925200Y-81350200D02*
X98826900Y-81350200D01*
X98826900Y-81350200D02*
X100145200Y-82668500D01*
X100145200Y-83435200D02*
X100145200Y-82668500D01*
%TO.N,VBAT*%
X102345200Y-82346500D02*
X102288800Y-82290100D01*
X102345200Y-82668500D02*
X102345200Y-82346500D01*
X99017200Y-68902100D02*
X102288800Y-68902100D01*
X97807700Y-67692600D02*
X99017200Y-68902100D01*
X102345200Y-83435200D02*
X102345200Y-82668500D01*
%TO.N,IMU_INT1*%
X97331500Y-59575700D02*
X100845100Y-59575700D01*
X100845100Y-59575700D02*
X105086400Y-55334400D01*
%TO.N,SWDIO*%
X97895200Y-50220600D02*
X97895200Y-43935200D01*
X97009900Y-51105900D02*
X97895200Y-50220600D01*
%TO.N,SWDCLK*%
X100095200Y-49164000D02*
X97023900Y-52235300D01*
X100095200Y-43935200D02*
X100095200Y-49164000D01*
%TD*%
M02*
