%TF.GenerationSoftware,KiCad,Pcbnew,10.0.3*%
%TF.CreationDate,2026-08-29T17:36:07-04:00*%
%TF.ProjectId,pen-mixer,70656e2d-6d69-4786-9572-2e6b69636164,rev?*%
%TF.SameCoordinates,Original*%
%TF.FileFunction,Copper,L3,Inr*%
%TF.FilePolarity,Positive*%
%FSLAX46Y46*%
G04 Gerber Fmt 4.6, Leading zero omitted, Abs format (unit mm)*
G04 Created by KiCad (PCBNEW 10.0.3) date 2026-08-29 17:36:07*
%MOMM*%
%LPD*%
G01*
G04 APERTURE LIST*
%TA.AperFunction,ComponentPad*%
%ADD10O,1.000000X2.100000*%
%TD*%
%TA.AperFunction,ComponentPad*%
%ADD11O,1.000000X1.800000*%
%TD*%
%TA.AperFunction,ViaPad*%
%ADD12C,0.450000*%
%TD*%
%TA.AperFunction,Conductor*%
%ADD13C,0.150000*%
%TD*%
G04 APERTURE END LIST*
D10*
%TO.N,GND*%
%TO.C,J1*%
X101180000Y-94665000D03*
D11*
X101180000Y-98865000D03*
D10*
X109820000Y-94665000D03*
D11*
X109820000Y-98865000D03*
%TD*%
D12*
%TO.N,+3V3*%
X104319500Y-75121700D03*
X101282300Y-69451000D03*
X107640000Y-78320000D03*
X110118300Y-89179100D03*
%TO.N,GND*%
X102657300Y-72646000D03*
X106352100Y-82352100D03*
X101191300Y-83115800D03*
%TO.N,VBAT*%
X102403400Y-87570000D03*
X107321900Y-87302000D03*
%TO.N,VBAT_SENSE*%
X101716700Y-87891400D03*
X105012500Y-72229200D03*
X104912300Y-89480000D03*
%TO.N,FSR_SENSE*%
X104200000Y-72241200D03*
X108595800Y-88280400D03*
%TO.N,SCL*%
X103798700Y-76664900D03*
X103798700Y-81483100D03*
X109724400Y-69824400D03*
%TO.N,LED_A*%
X108507800Y-85382200D03*
X102950600Y-85961900D03*
%TO.N,USB_DP*%
X110250000Y-70813300D03*
X105500000Y-95013400D03*
%TO.N,USB_DM*%
X105592600Y-93127400D03*
X106930900Y-67680900D03*
%TO.N,IMU_INT1*%
X101586900Y-76345300D03*
X109566700Y-72790300D03*
%TO.N,IMU_INT2*%
X109723300Y-70473300D03*
X105209900Y-76590500D03*
%TO.N,SWDIO*%
X101506400Y-82029700D03*
X101256100Y-73201500D03*
%TO.N,SWDCLK*%
X102305100Y-82031500D03*
X101442400Y-72655800D03*
%TO.N,SDA*%
X102083800Y-80426200D03*
X103390100Y-72226300D03*
%TD*%
%TO.N,GND*%
D13*
X109820000Y-98865000D02*
X109820000Y-94665000D01*
X101180000Y-83127100D02*
X101191300Y-83115800D01*
X101180000Y-94665000D02*
X101180000Y-83127100D01*
%TO.N,VBAT_SENSE*%
X105012500Y-72229200D02*
X103396400Y-73845300D01*
X103396400Y-84428900D02*
X101716700Y-86108600D01*
X101716700Y-86108600D02*
X101716700Y-87891400D01*
X103396400Y-73845300D02*
X103396400Y-84428900D01*
%TO.N,SCL*%
X103798700Y-76664900D02*
X103798700Y-81483100D01*
%TO.N,USB_DM*%
X106929300Y-91790700D02*
X106929300Y-67682500D01*
X106929300Y-67682500D02*
X106930900Y-67680900D01*
X105592600Y-93127400D02*
X106929300Y-91790700D01*
%TD*%
M02*
