M48
; DRILL file KiCad 10.0.3 date 2026-08-29T19:28:22
; FORMAT={-:-/ absolute / metric / decimal}
; #@! TF.CreationDate,2026-08-29T19:28:22-04:00
; #@! TF.GenerationSoftware,Kicad,Pcbnew,10.0.3
; #@! TF.FileFunction,MixedPlating,1,4
FMAT,2
METRIC
; #@! TA.AperFunction,Plated,PTH,ViaDrill
T1C0.200
; #@! TA.AperFunction,Plated,PTH,ComponentDrill
T2C0.600
; #@! TA.AperFunction,NonPlated,NPTH,ComponentDrill
T3C0.650
%
G90
G05
T1
X97.01Y-51.106
X97.022Y-52.959
X97.024Y-52.235
X97.331Y-59.576
X97.808Y-67.693
X97.829Y-62.911
X98.31Y-55.865
X98.46Y-69.738
X98.845Y-75.611
X98.992Y-63.989
X99.162Y-54.703
X100.083Y-67.653
X100.157Y-57.215
X100.595Y-54.711
X100.657Y-71.965
X100.938Y-58.923
X101.206Y-75.61
X101.255Y-62.875
X101.603Y-50.085
X102.289Y-68.902
X102.289Y-82.29
X102.72Y-75.504
X103.385Y-56.433
X103.645Y-73.423
X103.677Y-60.68
X103.711Y-50.167
X104.608Y-60.688
X105.086Y-55.334
X105.246Y-67.876
X105.47Y-50.543
X105.474Y-52.316
X105.478Y-52.968
T3
X98.355Y-77.67
X104.135Y-77.67
T2
X96.925Y-76.6G85X96.925Y-77.7
G05
X96.925Y-80.95G85X96.925Y-81.75
G05
X105.565Y-76.6G85X105.565Y-77.7
G05
X105.565Y-80.95G85X105.565Y-81.75
G05
M30
