%TF.GenerationSoftware,KiCad,Pcbnew,10.0.3*%
%TF.CreationDate,2026-08-29T19:28:22-04:00*%
%TF.ProjectId,pen-mixer,70656e2d-6d69-4786-9572-2e6b69636164,rev?*%
%TF.SameCoordinates,Original*%
%TF.FileFunction,AssemblyDrawing,Top*%
%FSLAX46Y46*%
G04 Gerber Fmt 4.6, Leading zero omitted, Abs format (unit mm)*
G04 Created by KiCad (PCBNEW 10.0.3) date 2026-08-29 19:28:22*
%MOMM*%
%LPD*%
G01*
G04 APERTURE LIST*
%ADD10C,0.080000*%
%ADD11C,0.040000*%
%ADD12C,0.110000*%
%ADD13C,0.150000*%
%ADD14C,0.100000*%
G04 APERTURE END LIST*
D10*
X103781866Y-54604730D02*
X103758057Y-54628540D01*
X103758057Y-54628540D02*
X103686628Y-54652349D01*
X103686628Y-54652349D02*
X103639009Y-54652349D01*
X103639009Y-54652349D02*
X103567581Y-54628540D01*
X103567581Y-54628540D02*
X103519962Y-54580920D01*
X103519962Y-54580920D02*
X103496152Y-54533301D01*
X103496152Y-54533301D02*
X103472343Y-54438063D01*
X103472343Y-54438063D02*
X103472343Y-54366635D01*
X103472343Y-54366635D02*
X103496152Y-54271397D01*
X103496152Y-54271397D02*
X103519962Y-54223778D01*
X103519962Y-54223778D02*
X103567581Y-54176159D01*
X103567581Y-54176159D02*
X103639009Y-54152349D01*
X103639009Y-54152349D02*
X103686628Y-54152349D01*
X103686628Y-54152349D02*
X103758057Y-54176159D01*
X103758057Y-54176159D02*
X103781866Y-54199968D01*
X104234247Y-54152349D02*
X103996152Y-54152349D01*
X103996152Y-54152349D02*
X103972343Y-54390444D01*
X103972343Y-54390444D02*
X103996152Y-54366635D01*
X103996152Y-54366635D02*
X104043771Y-54342825D01*
X104043771Y-54342825D02*
X104162819Y-54342825D01*
X104162819Y-54342825D02*
X104210438Y-54366635D01*
X104210438Y-54366635D02*
X104234247Y-54390444D01*
X104234247Y-54390444D02*
X104258057Y-54438063D01*
X104258057Y-54438063D02*
X104258057Y-54557111D01*
X104258057Y-54557111D02*
X104234247Y-54604730D01*
X104234247Y-54604730D02*
X104210438Y-54628540D01*
X104210438Y-54628540D02*
X104162819Y-54652349D01*
X104162819Y-54652349D02*
X104043771Y-54652349D01*
X104043771Y-54652349D02*
X103996152Y-54628540D01*
X103996152Y-54628540D02*
X103972343Y-54604730D01*
D11*
X103823533Y-55674965D02*
X103811629Y-55686870D01*
X103811629Y-55686870D02*
X103775914Y-55698774D01*
X103775914Y-55698774D02*
X103752105Y-55698774D01*
X103752105Y-55698774D02*
X103716391Y-55686870D01*
X103716391Y-55686870D02*
X103692581Y-55663060D01*
X103692581Y-55663060D02*
X103680676Y-55639250D01*
X103680676Y-55639250D02*
X103668772Y-55591631D01*
X103668772Y-55591631D02*
X103668772Y-55555917D01*
X103668772Y-55555917D02*
X103680676Y-55508298D01*
X103680676Y-55508298D02*
X103692581Y-55484489D01*
X103692581Y-55484489D02*
X103716391Y-55460679D01*
X103716391Y-55460679D02*
X103752105Y-55448774D01*
X103752105Y-55448774D02*
X103775914Y-55448774D01*
X103775914Y-55448774D02*
X103811629Y-55460679D01*
X103811629Y-55460679D02*
X103823533Y-55472584D01*
X104049724Y-55448774D02*
X103930676Y-55448774D01*
X103930676Y-55448774D02*
X103918772Y-55567822D01*
X103918772Y-55567822D02*
X103930676Y-55555917D01*
X103930676Y-55555917D02*
X103954486Y-55544012D01*
X103954486Y-55544012D02*
X104014010Y-55544012D01*
X104014010Y-55544012D02*
X104037819Y-55555917D01*
X104037819Y-55555917D02*
X104049724Y-55567822D01*
X104049724Y-55567822D02*
X104061629Y-55591631D01*
X104061629Y-55591631D02*
X104061629Y-55651155D01*
X104061629Y-55651155D02*
X104049724Y-55674965D01*
X104049724Y-55674965D02*
X104037819Y-55686870D01*
X104037819Y-55686870D02*
X104014010Y-55698774D01*
X104014010Y-55698774D02*
X103954486Y-55698774D01*
X103954486Y-55698774D02*
X103930676Y-55686870D01*
X103930676Y-55686870D02*
X103918772Y-55674965D01*
D10*
X100764730Y-62968533D02*
X100788540Y-62992342D01*
X100788540Y-62992342D02*
X100812349Y-63063771D01*
X100812349Y-63063771D02*
X100812349Y-63111390D01*
X100812349Y-63111390D02*
X100788540Y-63182818D01*
X100788540Y-63182818D02*
X100740920Y-63230437D01*
X100740920Y-63230437D02*
X100693301Y-63254247D01*
X100693301Y-63254247D02*
X100598063Y-63278056D01*
X100598063Y-63278056D02*
X100526635Y-63278056D01*
X100526635Y-63278056D02*
X100431397Y-63254247D01*
X100431397Y-63254247D02*
X100383778Y-63230437D01*
X100383778Y-63230437D02*
X100336159Y-63182818D01*
X100336159Y-63182818D02*
X100312349Y-63111390D01*
X100312349Y-63111390D02*
X100312349Y-63063771D01*
X100312349Y-63063771D02*
X100336159Y-62992342D01*
X100336159Y-62992342D02*
X100359968Y-62968533D01*
X100312349Y-62801866D02*
X100312349Y-62492342D01*
X100312349Y-62492342D02*
X100502825Y-62659009D01*
X100502825Y-62659009D02*
X100502825Y-62587580D01*
X100502825Y-62587580D02*
X100526635Y-62539961D01*
X100526635Y-62539961D02*
X100550444Y-62516152D01*
X100550444Y-62516152D02*
X100598063Y-62492342D01*
X100598063Y-62492342D02*
X100717111Y-62492342D01*
X100717111Y-62492342D02*
X100764730Y-62516152D01*
X100764730Y-62516152D02*
X100788540Y-62539961D01*
X100788540Y-62539961D02*
X100812349Y-62587580D01*
X100812349Y-62587580D02*
X100812349Y-62730437D01*
X100812349Y-62730437D02*
X100788540Y-62778056D01*
X100788540Y-62778056D02*
X100764730Y-62801866D01*
D11*
X101834965Y-62926866D02*
X101846870Y-62938770D01*
X101846870Y-62938770D02*
X101858774Y-62974485D01*
X101858774Y-62974485D02*
X101858774Y-62998294D01*
X101858774Y-62998294D02*
X101846870Y-63034008D01*
X101846870Y-63034008D02*
X101823060Y-63057818D01*
X101823060Y-63057818D02*
X101799250Y-63069723D01*
X101799250Y-63069723D02*
X101751631Y-63081627D01*
X101751631Y-63081627D02*
X101715917Y-63081627D01*
X101715917Y-63081627D02*
X101668298Y-63069723D01*
X101668298Y-63069723D02*
X101644489Y-63057818D01*
X101644489Y-63057818D02*
X101620679Y-63034008D01*
X101620679Y-63034008D02*
X101608774Y-62998294D01*
X101608774Y-62998294D02*
X101608774Y-62974485D01*
X101608774Y-62974485D02*
X101620679Y-62938770D01*
X101620679Y-62938770D02*
X101632584Y-62926866D01*
X101608774Y-62843532D02*
X101608774Y-62688770D01*
X101608774Y-62688770D02*
X101704012Y-62772104D01*
X101704012Y-62772104D02*
X101704012Y-62736389D01*
X101704012Y-62736389D02*
X101715917Y-62712580D01*
X101715917Y-62712580D02*
X101727822Y-62700675D01*
X101727822Y-62700675D02*
X101751631Y-62688770D01*
X101751631Y-62688770D02*
X101811155Y-62688770D01*
X101811155Y-62688770D02*
X101834965Y-62700675D01*
X101834965Y-62700675D02*
X101846870Y-62712580D01*
X101846870Y-62712580D02*
X101858774Y-62736389D01*
X101858774Y-62736389D02*
X101858774Y-62807818D01*
X101858774Y-62807818D02*
X101846870Y-62831627D01*
X101846870Y-62831627D02*
X101834965Y-62843532D01*
D10*
X98602349Y-71568533D02*
X98364254Y-71735199D01*
X98602349Y-71854247D02*
X98102349Y-71854247D01*
X98102349Y-71854247D02*
X98102349Y-71663771D01*
X98102349Y-71663771D02*
X98126159Y-71616152D01*
X98126159Y-71616152D02*
X98149968Y-71592342D01*
X98149968Y-71592342D02*
X98197587Y-71568533D01*
X98197587Y-71568533D02*
X98269016Y-71568533D01*
X98269016Y-71568533D02*
X98316635Y-71592342D01*
X98316635Y-71592342D02*
X98340444Y-71616152D01*
X98340444Y-71616152D02*
X98364254Y-71663771D01*
X98364254Y-71663771D02*
X98364254Y-71854247D01*
X98602349Y-71330437D02*
X98602349Y-71235199D01*
X98602349Y-71235199D02*
X98578540Y-71187580D01*
X98578540Y-71187580D02*
X98554730Y-71163771D01*
X98554730Y-71163771D02*
X98483301Y-71116152D01*
X98483301Y-71116152D02*
X98388063Y-71092342D01*
X98388063Y-71092342D02*
X98197587Y-71092342D01*
X98197587Y-71092342D02*
X98149968Y-71116152D01*
X98149968Y-71116152D02*
X98126159Y-71139961D01*
X98126159Y-71139961D02*
X98102349Y-71187580D01*
X98102349Y-71187580D02*
X98102349Y-71282818D01*
X98102349Y-71282818D02*
X98126159Y-71330437D01*
X98126159Y-71330437D02*
X98149968Y-71354247D01*
X98149968Y-71354247D02*
X98197587Y-71378056D01*
X98197587Y-71378056D02*
X98316635Y-71378056D01*
X98316635Y-71378056D02*
X98364254Y-71354247D01*
X98364254Y-71354247D02*
X98388063Y-71330437D01*
X98388063Y-71330437D02*
X98411873Y-71282818D01*
X98411873Y-71282818D02*
X98411873Y-71187580D01*
X98411873Y-71187580D02*
X98388063Y-71139961D01*
X98388063Y-71139961D02*
X98364254Y-71116152D01*
X98364254Y-71116152D02*
X98316635Y-71092342D01*
D11*
X99663400Y-71528532D02*
X99539591Y-71615199D01*
X99663400Y-71677104D02*
X99403400Y-71677104D01*
X99403400Y-71677104D02*
X99403400Y-71578056D01*
X99403400Y-71578056D02*
X99415781Y-71553294D01*
X99415781Y-71553294D02*
X99428162Y-71540913D01*
X99428162Y-71540913D02*
X99452924Y-71528532D01*
X99452924Y-71528532D02*
X99490067Y-71528532D01*
X99490067Y-71528532D02*
X99514829Y-71540913D01*
X99514829Y-71540913D02*
X99527210Y-71553294D01*
X99527210Y-71553294D02*
X99539591Y-71578056D01*
X99539591Y-71578056D02*
X99539591Y-71677104D01*
X99663400Y-71404723D02*
X99663400Y-71355199D01*
X99663400Y-71355199D02*
X99651020Y-71330437D01*
X99651020Y-71330437D02*
X99638639Y-71318056D01*
X99638639Y-71318056D02*
X99601496Y-71293294D01*
X99601496Y-71293294D02*
X99551972Y-71280913D01*
X99551972Y-71280913D02*
X99452924Y-71280913D01*
X99452924Y-71280913D02*
X99428162Y-71293294D01*
X99428162Y-71293294D02*
X99415781Y-71305675D01*
X99415781Y-71305675D02*
X99403400Y-71330437D01*
X99403400Y-71330437D02*
X99403400Y-71379961D01*
X99403400Y-71379961D02*
X99415781Y-71404723D01*
X99415781Y-71404723D02*
X99428162Y-71417104D01*
X99428162Y-71417104D02*
X99452924Y-71429485D01*
X99452924Y-71429485D02*
X99514829Y-71429485D01*
X99514829Y-71429485D02*
X99539591Y-71417104D01*
X99539591Y-71417104D02*
X99551972Y-71404723D01*
X99551972Y-71404723D02*
X99564353Y-71379961D01*
X99564353Y-71379961D02*
X99564353Y-71330437D01*
X99564353Y-71330437D02*
X99551972Y-71305675D01*
X99551972Y-71305675D02*
X99539591Y-71293294D01*
X99539591Y-71293294D02*
X99514829Y-71280913D01*
D10*
X98202349Y-62968533D02*
X97964254Y-63135199D01*
X98202349Y-63254247D02*
X97702349Y-63254247D01*
X97702349Y-63254247D02*
X97702349Y-63063771D01*
X97702349Y-63063771D02*
X97726159Y-63016152D01*
X97726159Y-63016152D02*
X97749968Y-62992342D01*
X97749968Y-62992342D02*
X97797587Y-62968533D01*
X97797587Y-62968533D02*
X97869016Y-62968533D01*
X97869016Y-62968533D02*
X97916635Y-62992342D01*
X97916635Y-62992342D02*
X97940444Y-63016152D01*
X97940444Y-63016152D02*
X97964254Y-63063771D01*
X97964254Y-63063771D02*
X97964254Y-63254247D01*
X97702349Y-62801866D02*
X97702349Y-62468533D01*
X97702349Y-62468533D02*
X98202349Y-62682818D01*
D11*
X99263400Y-62928532D02*
X99139591Y-63015199D01*
X99263400Y-63077104D02*
X99003400Y-63077104D01*
X99003400Y-63077104D02*
X99003400Y-62978056D01*
X99003400Y-62978056D02*
X99015781Y-62953294D01*
X99015781Y-62953294D02*
X99028162Y-62940913D01*
X99028162Y-62940913D02*
X99052924Y-62928532D01*
X99052924Y-62928532D02*
X99090067Y-62928532D01*
X99090067Y-62928532D02*
X99114829Y-62940913D01*
X99114829Y-62940913D02*
X99127210Y-62953294D01*
X99127210Y-62953294D02*
X99139591Y-62978056D01*
X99139591Y-62978056D02*
X99139591Y-63077104D01*
X99003400Y-62841866D02*
X99003400Y-62668532D01*
X99003400Y-62668532D02*
X99263400Y-62779961D01*
D10*
X98564247Y-63412349D02*
X98564247Y-63817111D01*
X98564247Y-63817111D02*
X98588057Y-63864730D01*
X98588057Y-63864730D02*
X98611866Y-63888540D01*
X98611866Y-63888540D02*
X98659485Y-63912349D01*
X98659485Y-63912349D02*
X98754723Y-63912349D01*
X98754723Y-63912349D02*
X98802342Y-63888540D01*
X98802342Y-63888540D02*
X98826152Y-63864730D01*
X98826152Y-63864730D02*
X98849961Y-63817111D01*
X98849961Y-63817111D02*
X98849961Y-63412349D01*
X99040438Y-63412349D02*
X99349962Y-63412349D01*
X99349962Y-63412349D02*
X99183295Y-63602825D01*
X99183295Y-63602825D02*
X99254724Y-63602825D01*
X99254724Y-63602825D02*
X99302343Y-63626635D01*
X99302343Y-63626635D02*
X99326152Y-63650444D01*
X99326152Y-63650444D02*
X99349962Y-63698063D01*
X99349962Y-63698063D02*
X99349962Y-63817111D01*
X99349962Y-63817111D02*
X99326152Y-63864730D01*
X99326152Y-63864730D02*
X99302343Y-63888540D01*
X99302343Y-63888540D02*
X99254724Y-63912349D01*
X99254724Y-63912349D02*
X99111867Y-63912349D01*
X99111867Y-63912349D02*
X99064248Y-63888540D01*
X99064248Y-63888540D02*
X99040438Y-63864730D01*
D12*
X98552565Y-66633771D02*
X99135422Y-66633771D01*
X99135422Y-66633771D02*
X99203994Y-66599485D01*
X99203994Y-66599485D02*
X99238280Y-66565200D01*
X99238280Y-66565200D02*
X99272565Y-66496628D01*
X99272565Y-66496628D02*
X99272565Y-66359485D01*
X99272565Y-66359485D02*
X99238280Y-66290914D01*
X99238280Y-66290914D02*
X99203994Y-66256628D01*
X99203994Y-66256628D02*
X99135422Y-66222342D01*
X99135422Y-66222342D02*
X98552565Y-66222342D01*
X98552565Y-65948056D02*
X98552565Y-65502342D01*
X98552565Y-65502342D02*
X98826851Y-65742342D01*
X98826851Y-65742342D02*
X98826851Y-65639485D01*
X98826851Y-65639485D02*
X98861137Y-65570914D01*
X98861137Y-65570914D02*
X98895422Y-65536628D01*
X98895422Y-65536628D02*
X98963994Y-65502342D01*
X98963994Y-65502342D02*
X99135422Y-65502342D01*
X99135422Y-65502342D02*
X99203994Y-65536628D01*
X99203994Y-65536628D02*
X99238280Y-65570914D01*
X99238280Y-65570914D02*
X99272565Y-65639485D01*
X99272565Y-65639485D02*
X99272565Y-65845199D01*
X99272565Y-65845199D02*
X99238280Y-65913771D01*
X99238280Y-65913771D02*
X99203994Y-65948056D01*
D10*
X101802349Y-65568533D02*
X101564254Y-65735199D01*
X101802349Y-65854247D02*
X101302349Y-65854247D01*
X101302349Y-65854247D02*
X101302349Y-65663771D01*
X101302349Y-65663771D02*
X101326159Y-65616152D01*
X101326159Y-65616152D02*
X101349968Y-65592342D01*
X101349968Y-65592342D02*
X101397587Y-65568533D01*
X101397587Y-65568533D02*
X101469016Y-65568533D01*
X101469016Y-65568533D02*
X101516635Y-65592342D01*
X101516635Y-65592342D02*
X101540444Y-65616152D01*
X101540444Y-65616152D02*
X101564254Y-65663771D01*
X101564254Y-65663771D02*
X101564254Y-65854247D01*
X101302349Y-65401866D02*
X101302349Y-65092342D01*
X101302349Y-65092342D02*
X101492825Y-65259009D01*
X101492825Y-65259009D02*
X101492825Y-65187580D01*
X101492825Y-65187580D02*
X101516635Y-65139961D01*
X101516635Y-65139961D02*
X101540444Y-65116152D01*
X101540444Y-65116152D02*
X101588063Y-65092342D01*
X101588063Y-65092342D02*
X101707111Y-65092342D01*
X101707111Y-65092342D02*
X101754730Y-65116152D01*
X101754730Y-65116152D02*
X101778540Y-65139961D01*
X101778540Y-65139961D02*
X101802349Y-65187580D01*
X101802349Y-65187580D02*
X101802349Y-65330437D01*
X101802349Y-65330437D02*
X101778540Y-65378056D01*
X101778540Y-65378056D02*
X101754730Y-65401866D01*
D11*
X102863400Y-65528532D02*
X102739591Y-65615199D01*
X102863400Y-65677104D02*
X102603400Y-65677104D01*
X102603400Y-65677104D02*
X102603400Y-65578056D01*
X102603400Y-65578056D02*
X102615781Y-65553294D01*
X102615781Y-65553294D02*
X102628162Y-65540913D01*
X102628162Y-65540913D02*
X102652924Y-65528532D01*
X102652924Y-65528532D02*
X102690067Y-65528532D01*
X102690067Y-65528532D02*
X102714829Y-65540913D01*
X102714829Y-65540913D02*
X102727210Y-65553294D01*
X102727210Y-65553294D02*
X102739591Y-65578056D01*
X102739591Y-65578056D02*
X102739591Y-65677104D01*
X102603400Y-65441866D02*
X102603400Y-65280913D01*
X102603400Y-65280913D02*
X102702448Y-65367580D01*
X102702448Y-65367580D02*
X102702448Y-65330437D01*
X102702448Y-65330437D02*
X102714829Y-65305675D01*
X102714829Y-65305675D02*
X102727210Y-65293294D01*
X102727210Y-65293294D02*
X102751972Y-65280913D01*
X102751972Y-65280913D02*
X102813877Y-65280913D01*
X102813877Y-65280913D02*
X102838639Y-65293294D01*
X102838639Y-65293294D02*
X102851020Y-65305675D01*
X102851020Y-65305675D02*
X102863400Y-65330437D01*
X102863400Y-65330437D02*
X102863400Y-65404723D01*
X102863400Y-65404723D02*
X102851020Y-65429485D01*
X102851020Y-65429485D02*
X102838639Y-65441866D01*
D10*
X99061866Y-60104730D02*
X99038057Y-60128540D01*
X99038057Y-60128540D02*
X98966628Y-60152349D01*
X98966628Y-60152349D02*
X98919009Y-60152349D01*
X98919009Y-60152349D02*
X98847581Y-60128540D01*
X98847581Y-60128540D02*
X98799962Y-60080920D01*
X98799962Y-60080920D02*
X98776152Y-60033301D01*
X98776152Y-60033301D02*
X98752343Y-59938063D01*
X98752343Y-59938063D02*
X98752343Y-59866635D01*
X98752343Y-59866635D02*
X98776152Y-59771397D01*
X98776152Y-59771397D02*
X98799962Y-59723778D01*
X98799962Y-59723778D02*
X98847581Y-59676159D01*
X98847581Y-59676159D02*
X98919009Y-59652349D01*
X98919009Y-59652349D02*
X98966628Y-59652349D01*
X98966628Y-59652349D02*
X99038057Y-59676159D01*
X99038057Y-59676159D02*
X99061866Y-59699968D01*
X99347581Y-59866635D02*
X99299962Y-59842825D01*
X99299962Y-59842825D02*
X99276152Y-59819016D01*
X99276152Y-59819016D02*
X99252343Y-59771397D01*
X99252343Y-59771397D02*
X99252343Y-59747587D01*
X99252343Y-59747587D02*
X99276152Y-59699968D01*
X99276152Y-59699968D02*
X99299962Y-59676159D01*
X99299962Y-59676159D02*
X99347581Y-59652349D01*
X99347581Y-59652349D02*
X99442819Y-59652349D01*
X99442819Y-59652349D02*
X99490438Y-59676159D01*
X99490438Y-59676159D02*
X99514247Y-59699968D01*
X99514247Y-59699968D02*
X99538057Y-59747587D01*
X99538057Y-59747587D02*
X99538057Y-59771397D01*
X99538057Y-59771397D02*
X99514247Y-59819016D01*
X99514247Y-59819016D02*
X99490438Y-59842825D01*
X99490438Y-59842825D02*
X99442819Y-59866635D01*
X99442819Y-59866635D02*
X99347581Y-59866635D01*
X99347581Y-59866635D02*
X99299962Y-59890444D01*
X99299962Y-59890444D02*
X99276152Y-59914254D01*
X99276152Y-59914254D02*
X99252343Y-59961873D01*
X99252343Y-59961873D02*
X99252343Y-60057111D01*
X99252343Y-60057111D02*
X99276152Y-60104730D01*
X99276152Y-60104730D02*
X99299962Y-60128540D01*
X99299962Y-60128540D02*
X99347581Y-60152349D01*
X99347581Y-60152349D02*
X99442819Y-60152349D01*
X99442819Y-60152349D02*
X99490438Y-60128540D01*
X99490438Y-60128540D02*
X99514247Y-60104730D01*
X99514247Y-60104730D02*
X99538057Y-60057111D01*
X99538057Y-60057111D02*
X99538057Y-59961873D01*
X99538057Y-59961873D02*
X99514247Y-59914254D01*
X99514247Y-59914254D02*
X99490438Y-59890444D01*
X99490438Y-59890444D02*
X99442819Y-59866635D01*
D11*
X99103533Y-61174965D02*
X99091629Y-61186870D01*
X99091629Y-61186870D02*
X99055914Y-61198774D01*
X99055914Y-61198774D02*
X99032105Y-61198774D01*
X99032105Y-61198774D02*
X98996391Y-61186870D01*
X98996391Y-61186870D02*
X98972581Y-61163060D01*
X98972581Y-61163060D02*
X98960676Y-61139250D01*
X98960676Y-61139250D02*
X98948772Y-61091631D01*
X98948772Y-61091631D02*
X98948772Y-61055917D01*
X98948772Y-61055917D02*
X98960676Y-61008298D01*
X98960676Y-61008298D02*
X98972581Y-60984489D01*
X98972581Y-60984489D02*
X98996391Y-60960679D01*
X98996391Y-60960679D02*
X99032105Y-60948774D01*
X99032105Y-60948774D02*
X99055914Y-60948774D01*
X99055914Y-60948774D02*
X99091629Y-60960679D01*
X99091629Y-60960679D02*
X99103533Y-60972584D01*
X99246391Y-61055917D02*
X99222581Y-61044012D01*
X99222581Y-61044012D02*
X99210676Y-61032108D01*
X99210676Y-61032108D02*
X99198772Y-61008298D01*
X99198772Y-61008298D02*
X99198772Y-60996393D01*
X99198772Y-60996393D02*
X99210676Y-60972584D01*
X99210676Y-60972584D02*
X99222581Y-60960679D01*
X99222581Y-60960679D02*
X99246391Y-60948774D01*
X99246391Y-60948774D02*
X99294010Y-60948774D01*
X99294010Y-60948774D02*
X99317819Y-60960679D01*
X99317819Y-60960679D02*
X99329724Y-60972584D01*
X99329724Y-60972584D02*
X99341629Y-60996393D01*
X99341629Y-60996393D02*
X99341629Y-61008298D01*
X99341629Y-61008298D02*
X99329724Y-61032108D01*
X99329724Y-61032108D02*
X99317819Y-61044012D01*
X99317819Y-61044012D02*
X99294010Y-61055917D01*
X99294010Y-61055917D02*
X99246391Y-61055917D01*
X99246391Y-61055917D02*
X99222581Y-61067822D01*
X99222581Y-61067822D02*
X99210676Y-61079727D01*
X99210676Y-61079727D02*
X99198772Y-61103536D01*
X99198772Y-61103536D02*
X99198772Y-61151155D01*
X99198772Y-61151155D02*
X99210676Y-61174965D01*
X99210676Y-61174965D02*
X99222581Y-61186870D01*
X99222581Y-61186870D02*
X99246391Y-61198774D01*
X99246391Y-61198774D02*
X99294010Y-61198774D01*
X99294010Y-61198774D02*
X99317819Y-61186870D01*
X99317819Y-61186870D02*
X99329724Y-61174965D01*
X99329724Y-61174965D02*
X99341629Y-61151155D01*
X99341629Y-61151155D02*
X99341629Y-61103536D01*
X99341629Y-61103536D02*
X99329724Y-61079727D01*
X99329724Y-61079727D02*
X99317819Y-61067822D01*
X99317819Y-61067822D02*
X99294010Y-61055917D01*
D10*
X98576152Y-68142349D02*
X98576152Y-67642349D01*
X98576152Y-67642349D02*
X98695200Y-67642349D01*
X98695200Y-67642349D02*
X98766628Y-67666159D01*
X98766628Y-67666159D02*
X98814247Y-67713778D01*
X98814247Y-67713778D02*
X98838057Y-67761397D01*
X98838057Y-67761397D02*
X98861866Y-67856635D01*
X98861866Y-67856635D02*
X98861866Y-67928063D01*
X98861866Y-67928063D02*
X98838057Y-68023301D01*
X98838057Y-68023301D02*
X98814247Y-68070920D01*
X98814247Y-68070920D02*
X98766628Y-68118540D01*
X98766628Y-68118540D02*
X98695200Y-68142349D01*
X98695200Y-68142349D02*
X98576152Y-68142349D01*
X99338057Y-68142349D02*
X99052343Y-68142349D01*
X99195200Y-68142349D02*
X99195200Y-67642349D01*
X99195200Y-67642349D02*
X99147581Y-67713778D01*
X99147581Y-67713778D02*
X99099962Y-67761397D01*
X99099962Y-67761397D02*
X99052343Y-67785206D01*
D11*
X98760676Y-69198774D02*
X98760676Y-68948774D01*
X98760676Y-68948774D02*
X98820200Y-68948774D01*
X98820200Y-68948774D02*
X98855914Y-68960679D01*
X98855914Y-68960679D02*
X98879724Y-68984489D01*
X98879724Y-68984489D02*
X98891629Y-69008298D01*
X98891629Y-69008298D02*
X98903533Y-69055917D01*
X98903533Y-69055917D02*
X98903533Y-69091631D01*
X98903533Y-69091631D02*
X98891629Y-69139250D01*
X98891629Y-69139250D02*
X98879724Y-69163060D01*
X98879724Y-69163060D02*
X98855914Y-69186870D01*
X98855914Y-69186870D02*
X98820200Y-69198774D01*
X98820200Y-69198774D02*
X98760676Y-69198774D01*
X99141629Y-69198774D02*
X98998772Y-69198774D01*
X99070200Y-69198774D02*
X99070200Y-68948774D01*
X99070200Y-68948774D02*
X99046391Y-68984489D01*
X99046391Y-68984489D02*
X99022581Y-69008298D01*
X99022581Y-69008298D02*
X98998772Y-69020203D01*
D10*
X103802349Y-67968533D02*
X103564254Y-68135199D01*
X103802349Y-68254247D02*
X103302349Y-68254247D01*
X103302349Y-68254247D02*
X103302349Y-68063771D01*
X103302349Y-68063771D02*
X103326159Y-68016152D01*
X103326159Y-68016152D02*
X103349968Y-67992342D01*
X103349968Y-67992342D02*
X103397587Y-67968533D01*
X103397587Y-67968533D02*
X103469016Y-67968533D01*
X103469016Y-67968533D02*
X103516635Y-67992342D01*
X103516635Y-67992342D02*
X103540444Y-68016152D01*
X103540444Y-68016152D02*
X103564254Y-68063771D01*
X103564254Y-68063771D02*
X103564254Y-68254247D01*
X103469016Y-67539961D02*
X103802349Y-67539961D01*
X103278540Y-67659009D02*
X103635682Y-67778056D01*
X103635682Y-67778056D02*
X103635682Y-67468533D01*
D11*
X104863400Y-67928532D02*
X104739591Y-68015199D01*
X104863400Y-68077104D02*
X104603400Y-68077104D01*
X104603400Y-68077104D02*
X104603400Y-67978056D01*
X104603400Y-67978056D02*
X104615781Y-67953294D01*
X104615781Y-67953294D02*
X104628162Y-67940913D01*
X104628162Y-67940913D02*
X104652924Y-67928532D01*
X104652924Y-67928532D02*
X104690067Y-67928532D01*
X104690067Y-67928532D02*
X104714829Y-67940913D01*
X104714829Y-67940913D02*
X104727210Y-67953294D01*
X104727210Y-67953294D02*
X104739591Y-67978056D01*
X104739591Y-67978056D02*
X104739591Y-68077104D01*
X104690067Y-67705675D02*
X104863400Y-67705675D01*
X104591020Y-67767580D02*
X104776734Y-67829485D01*
X104776734Y-67829485D02*
X104776734Y-67668532D01*
D13*
X106000019Y-64685199D02*
X106000019Y-64113771D01*
X107000019Y-64399485D02*
X106000019Y-64399485D01*
X107000019Y-63780437D02*
X106000019Y-63780437D01*
X106000019Y-63780437D02*
X106000019Y-63399485D01*
X106000019Y-63399485D02*
X106047638Y-63304247D01*
X106047638Y-63304247D02*
X106095257Y-63256628D01*
X106095257Y-63256628D02*
X106190495Y-63209009D01*
X106190495Y-63209009D02*
X106333352Y-63209009D01*
X106333352Y-63209009D02*
X106428590Y-63256628D01*
X106428590Y-63256628D02*
X106476209Y-63304247D01*
X106476209Y-63304247D02*
X106523828Y-63399485D01*
X106523828Y-63399485D02*
X106523828Y-63780437D01*
X106952400Y-62828056D02*
X107000019Y-62685199D01*
X107000019Y-62685199D02*
X107000019Y-62447104D01*
X107000019Y-62447104D02*
X106952400Y-62351866D01*
X106952400Y-62351866D02*
X106904780Y-62304247D01*
X106904780Y-62304247D02*
X106809542Y-62256628D01*
X106809542Y-62256628D02*
X106714304Y-62256628D01*
X106714304Y-62256628D02*
X106619066Y-62304247D01*
X106619066Y-62304247D02*
X106571447Y-62351866D01*
X106571447Y-62351866D02*
X106523828Y-62447104D01*
X106523828Y-62447104D02*
X106476209Y-62637580D01*
X106476209Y-62637580D02*
X106428590Y-62732818D01*
X106428590Y-62732818D02*
X106380971Y-62780437D01*
X106380971Y-62780437D02*
X106285733Y-62828056D01*
X106285733Y-62828056D02*
X106190495Y-62828056D01*
X106190495Y-62828056D02*
X106095257Y-62780437D01*
X106095257Y-62780437D02*
X106047638Y-62732818D01*
X106047638Y-62732818D02*
X106000019Y-62637580D01*
X106000019Y-62637580D02*
X106000019Y-62399485D01*
X106000019Y-62399485D02*
X106047638Y-62256628D01*
X106000019Y-61923294D02*
X106000019Y-61256628D01*
X106000019Y-61256628D02*
X107000019Y-61685199D01*
X106714304Y-60923294D02*
X106714304Y-60447104D01*
X107000019Y-61018532D02*
X106000019Y-60685199D01*
X106000019Y-60685199D02*
X107000019Y-60351866D01*
X106000019Y-59828056D02*
X106000019Y-59732818D01*
X106000019Y-59732818D02*
X106047638Y-59637580D01*
X106047638Y-59637580D02*
X106095257Y-59589961D01*
X106095257Y-59589961D02*
X106190495Y-59542342D01*
X106190495Y-59542342D02*
X106380971Y-59494723D01*
X106380971Y-59494723D02*
X106619066Y-59494723D01*
X106619066Y-59494723D02*
X106809542Y-59542342D01*
X106809542Y-59542342D02*
X106904780Y-59589961D01*
X106904780Y-59589961D02*
X106952400Y-59637580D01*
X106952400Y-59637580D02*
X107000019Y-59732818D01*
X107000019Y-59732818D02*
X107000019Y-59828056D01*
X107000019Y-59828056D02*
X106952400Y-59923294D01*
X106952400Y-59923294D02*
X106904780Y-59970913D01*
X106904780Y-59970913D02*
X106809542Y-60018532D01*
X106809542Y-60018532D02*
X106619066Y-60066151D01*
X106619066Y-60066151D02*
X106380971Y-60066151D01*
X106380971Y-60066151D02*
X106190495Y-60018532D01*
X106190495Y-60018532D02*
X106095257Y-59970913D01*
X106095257Y-59970913D02*
X106047638Y-59923294D01*
X106047638Y-59923294D02*
X106000019Y-59828056D01*
X106000019Y-58589961D02*
X106000019Y-59066151D01*
X106000019Y-59066151D02*
X106476209Y-59113770D01*
X106476209Y-59113770D02*
X106428590Y-59066151D01*
X106428590Y-59066151D02*
X106380971Y-58970913D01*
X106380971Y-58970913D02*
X106380971Y-58732818D01*
X106380971Y-58732818D02*
X106428590Y-58637580D01*
X106428590Y-58637580D02*
X106476209Y-58589961D01*
X106476209Y-58589961D02*
X106571447Y-58542342D01*
X106571447Y-58542342D02*
X106809542Y-58542342D01*
X106809542Y-58542342D02*
X106904780Y-58589961D01*
X106904780Y-58589961D02*
X106952400Y-58637580D01*
X106952400Y-58637580D02*
X107000019Y-58732818D01*
X107000019Y-58732818D02*
X107000019Y-58970913D01*
X107000019Y-58970913D02*
X106952400Y-59066151D01*
X106952400Y-59066151D02*
X106904780Y-59113770D01*
X106000019Y-58209008D02*
X106000019Y-57589961D01*
X106000019Y-57589961D02*
X106380971Y-57923294D01*
X106380971Y-57923294D02*
X106380971Y-57780437D01*
X106380971Y-57780437D02*
X106428590Y-57685199D01*
X106428590Y-57685199D02*
X106476209Y-57637580D01*
X106476209Y-57637580D02*
X106571447Y-57589961D01*
X106571447Y-57589961D02*
X106809542Y-57589961D01*
X106809542Y-57589961D02*
X106904780Y-57637580D01*
X106904780Y-57637580D02*
X106952400Y-57685199D01*
X106952400Y-57685199D02*
X107000019Y-57780437D01*
X107000019Y-57780437D02*
X107000019Y-58066151D01*
X107000019Y-58066151D02*
X106952400Y-58161389D01*
X106952400Y-58161389D02*
X106904780Y-58209008D01*
X106000019Y-57256627D02*
X106000019Y-56637580D01*
X106000019Y-56637580D02*
X106380971Y-56970913D01*
X106380971Y-56970913D02*
X106380971Y-56828056D01*
X106380971Y-56828056D02*
X106428590Y-56732818D01*
X106428590Y-56732818D02*
X106476209Y-56685199D01*
X106476209Y-56685199D02*
X106571447Y-56637580D01*
X106571447Y-56637580D02*
X106809542Y-56637580D01*
X106809542Y-56637580D02*
X106904780Y-56685199D01*
X106904780Y-56685199D02*
X106952400Y-56732818D01*
X106952400Y-56732818D02*
X107000019Y-56828056D01*
X107000019Y-56828056D02*
X107000019Y-57113770D01*
X107000019Y-57113770D02*
X106952400Y-57209008D01*
X106952400Y-57209008D02*
X106904780Y-57256627D01*
X107000019Y-56209008D02*
X106000019Y-56209008D01*
X106000019Y-56209008D02*
X106000019Y-55828056D01*
X106000019Y-55828056D02*
X106047638Y-55732818D01*
X106047638Y-55732818D02*
X106095257Y-55685199D01*
X106095257Y-55685199D02*
X106190495Y-55637580D01*
X106190495Y-55637580D02*
X106333352Y-55637580D01*
X106333352Y-55637580D02*
X106428590Y-55685199D01*
X106428590Y-55685199D02*
X106476209Y-55732818D01*
X106476209Y-55732818D02*
X106523828Y-55828056D01*
X106523828Y-55828056D02*
X106523828Y-56209008D01*
X107000019Y-55209008D02*
X106000019Y-55209008D01*
X106000019Y-55209008D02*
X106000019Y-54970913D01*
X106000019Y-54970913D02*
X106047638Y-54828056D01*
X106047638Y-54828056D02*
X106142876Y-54732818D01*
X106142876Y-54732818D02*
X106238114Y-54685199D01*
X106238114Y-54685199D02*
X106428590Y-54637580D01*
X106428590Y-54637580D02*
X106571447Y-54637580D01*
X106571447Y-54637580D02*
X106761923Y-54685199D01*
X106761923Y-54685199D02*
X106857161Y-54732818D01*
X106857161Y-54732818D02*
X106952400Y-54828056D01*
X106952400Y-54828056D02*
X107000019Y-54970913D01*
X107000019Y-54970913D02*
X107000019Y-55209008D01*
X106476209Y-53875675D02*
X106523828Y-53732818D01*
X106523828Y-53732818D02*
X106571447Y-53685199D01*
X106571447Y-53685199D02*
X106666685Y-53637580D01*
X106666685Y-53637580D02*
X106809542Y-53637580D01*
X106809542Y-53637580D02*
X106904780Y-53685199D01*
X106904780Y-53685199D02*
X106952400Y-53732818D01*
X106952400Y-53732818D02*
X107000019Y-53828056D01*
X107000019Y-53828056D02*
X107000019Y-54209008D01*
X107000019Y-54209008D02*
X106000019Y-54209008D01*
X106000019Y-54209008D02*
X106000019Y-53875675D01*
X106000019Y-53875675D02*
X106047638Y-53780437D01*
X106047638Y-53780437D02*
X106095257Y-53732818D01*
X106095257Y-53732818D02*
X106190495Y-53685199D01*
X106190495Y-53685199D02*
X106285733Y-53685199D01*
X106285733Y-53685199D02*
X106380971Y-53732818D01*
X106380971Y-53732818D02*
X106428590Y-53780437D01*
X106428590Y-53780437D02*
X106476209Y-53875675D01*
X106476209Y-53875675D02*
X106476209Y-54209008D01*
X106000019Y-53351865D02*
X107000019Y-53018532D01*
X107000019Y-53018532D02*
X106000019Y-52685199D01*
D12*
X103596628Y-58292565D02*
X103596628Y-58875422D01*
X103596628Y-58875422D02*
X103630914Y-58943994D01*
X103630914Y-58943994D02*
X103665200Y-58978280D01*
X103665200Y-58978280D02*
X103733771Y-59012565D01*
X103733771Y-59012565D02*
X103870914Y-59012565D01*
X103870914Y-59012565D02*
X103939485Y-58978280D01*
X103939485Y-58978280D02*
X103973771Y-58943994D01*
X103973771Y-58943994D02*
X104008057Y-58875422D01*
X104008057Y-58875422D02*
X104008057Y-58292565D01*
X104659486Y-58532565D02*
X104659486Y-59012565D01*
X104488057Y-58258280D02*
X104316628Y-58772565D01*
X104316628Y-58772565D02*
X104762343Y-58772565D01*
D10*
X101078533Y-74502349D02*
X101078533Y-74859492D01*
X101078533Y-74859492D02*
X101054724Y-74930920D01*
X101054724Y-74930920D02*
X101007105Y-74978540D01*
X101007105Y-74978540D02*
X100935676Y-75002349D01*
X100935676Y-75002349D02*
X100888057Y-75002349D01*
X101578533Y-75002349D02*
X101292819Y-75002349D01*
X101435676Y-75002349D02*
X101435676Y-74502349D01*
X101435676Y-74502349D02*
X101388057Y-74573778D01*
X101388057Y-74573778D02*
X101340438Y-74621397D01*
X101340438Y-74621397D02*
X101292819Y-74645206D01*
D13*
X100911866Y-79730019D02*
X100911866Y-80444304D01*
X100911866Y-80444304D02*
X100864247Y-80587161D01*
X100864247Y-80587161D02*
X100769009Y-80682400D01*
X100769009Y-80682400D02*
X100626152Y-80730019D01*
X100626152Y-80730019D02*
X100530914Y-80730019D01*
X101911866Y-80730019D02*
X101340438Y-80730019D01*
X101626152Y-80730019D02*
X101626152Y-79730019D01*
X101626152Y-79730019D02*
X101530914Y-79872876D01*
X101530914Y-79872876D02*
X101435676Y-79968114D01*
X101435676Y-79968114D02*
X101340438Y-80015733D01*
D10*
X103164730Y-62968533D02*
X103188540Y-62992342D01*
X103188540Y-62992342D02*
X103212349Y-63063771D01*
X103212349Y-63063771D02*
X103212349Y-63111390D01*
X103212349Y-63111390D02*
X103188540Y-63182818D01*
X103188540Y-63182818D02*
X103140920Y-63230437D01*
X103140920Y-63230437D02*
X103093301Y-63254247D01*
X103093301Y-63254247D02*
X102998063Y-63278056D01*
X102998063Y-63278056D02*
X102926635Y-63278056D01*
X102926635Y-63278056D02*
X102831397Y-63254247D01*
X102831397Y-63254247D02*
X102783778Y-63230437D01*
X102783778Y-63230437D02*
X102736159Y-63182818D01*
X102736159Y-63182818D02*
X102712349Y-63111390D01*
X102712349Y-63111390D02*
X102712349Y-63063771D01*
X102712349Y-63063771D02*
X102736159Y-62992342D01*
X102736159Y-62992342D02*
X102759968Y-62968533D01*
X102879016Y-62539961D02*
X103212349Y-62539961D01*
X102688540Y-62659009D02*
X103045682Y-62778056D01*
X103045682Y-62778056D02*
X103045682Y-62468533D01*
D11*
X104234965Y-62926866D02*
X104246870Y-62938770D01*
X104246870Y-62938770D02*
X104258774Y-62974485D01*
X104258774Y-62974485D02*
X104258774Y-62998294D01*
X104258774Y-62998294D02*
X104246870Y-63034008D01*
X104246870Y-63034008D02*
X104223060Y-63057818D01*
X104223060Y-63057818D02*
X104199250Y-63069723D01*
X104199250Y-63069723D02*
X104151631Y-63081627D01*
X104151631Y-63081627D02*
X104115917Y-63081627D01*
X104115917Y-63081627D02*
X104068298Y-63069723D01*
X104068298Y-63069723D02*
X104044489Y-63057818D01*
X104044489Y-63057818D02*
X104020679Y-63034008D01*
X104020679Y-63034008D02*
X104008774Y-62998294D01*
X104008774Y-62998294D02*
X104008774Y-62974485D01*
X104008774Y-62974485D02*
X104020679Y-62938770D01*
X104020679Y-62938770D02*
X104032584Y-62926866D01*
X104092108Y-62712580D02*
X104258774Y-62712580D01*
X103996870Y-62772104D02*
X104175441Y-62831627D01*
X104175441Y-62831627D02*
X104175441Y-62676866D01*
D13*
X94490438Y-54051019D02*
X94490438Y-53051019D01*
X94919009Y-54003400D02*
X95061866Y-54051019D01*
X95061866Y-54051019D02*
X95299961Y-54051019D01*
X95299961Y-54051019D02*
X95395199Y-54003400D01*
X95395199Y-54003400D02*
X95442818Y-53955780D01*
X95442818Y-53955780D02*
X95490437Y-53860542D01*
X95490437Y-53860542D02*
X95490437Y-53765304D01*
X95490437Y-53765304D02*
X95442818Y-53670066D01*
X95442818Y-53670066D02*
X95395199Y-53622447D01*
X95395199Y-53622447D02*
X95299961Y-53574828D01*
X95299961Y-53574828D02*
X95109485Y-53527209D01*
X95109485Y-53527209D02*
X95014247Y-53479590D01*
X95014247Y-53479590D02*
X94966628Y-53431971D01*
X94966628Y-53431971D02*
X94919009Y-53336733D01*
X94919009Y-53336733D02*
X94919009Y-53241495D01*
X94919009Y-53241495D02*
X94966628Y-53146257D01*
X94966628Y-53146257D02*
X95014247Y-53098638D01*
X95014247Y-53098638D02*
X95109485Y-53051019D01*
X95109485Y-53051019D02*
X95347580Y-53051019D01*
X95347580Y-53051019D02*
X95490437Y-53098638D01*
X95919009Y-54051019D02*
X95919009Y-53051019D01*
X95919009Y-53051019D02*
X96299961Y-53051019D01*
X96299961Y-53051019D02*
X96395199Y-53098638D01*
X96395199Y-53098638D02*
X96442818Y-53146257D01*
X96442818Y-53146257D02*
X96490437Y-53241495D01*
X96490437Y-53241495D02*
X96490437Y-53384352D01*
X96490437Y-53384352D02*
X96442818Y-53479590D01*
X96442818Y-53479590D02*
X96395199Y-53527209D01*
X96395199Y-53527209D02*
X96299961Y-53574828D01*
X96299961Y-53574828D02*
X95919009Y-53574828D01*
X97442818Y-54051019D02*
X96871390Y-54051019D01*
X97157104Y-54051019D02*
X97157104Y-53051019D01*
X97157104Y-53051019D02*
X97061866Y-53193876D01*
X97061866Y-53193876D02*
X96966628Y-53289114D01*
X96966628Y-53289114D02*
X96871390Y-53336733D01*
X98014247Y-53479590D02*
X97919009Y-53431971D01*
X97919009Y-53431971D02*
X97871390Y-53384352D01*
X97871390Y-53384352D02*
X97823771Y-53289114D01*
X97823771Y-53289114D02*
X97823771Y-53241495D01*
X97823771Y-53241495D02*
X97871390Y-53146257D01*
X97871390Y-53146257D02*
X97919009Y-53098638D01*
X97919009Y-53098638D02*
X98014247Y-53051019D01*
X98014247Y-53051019D02*
X98204723Y-53051019D01*
X98204723Y-53051019D02*
X98299961Y-53098638D01*
X98299961Y-53098638D02*
X98347580Y-53146257D01*
X98347580Y-53146257D02*
X98395199Y-53241495D01*
X98395199Y-53241495D02*
X98395199Y-53289114D01*
X98395199Y-53289114D02*
X98347580Y-53384352D01*
X98347580Y-53384352D02*
X98299961Y-53431971D01*
X98299961Y-53431971D02*
X98204723Y-53479590D01*
X98204723Y-53479590D02*
X98014247Y-53479590D01*
X98014247Y-53479590D02*
X97919009Y-53527209D01*
X97919009Y-53527209D02*
X97871390Y-53574828D01*
X97871390Y-53574828D02*
X97823771Y-53670066D01*
X97823771Y-53670066D02*
X97823771Y-53860542D01*
X97823771Y-53860542D02*
X97871390Y-53955780D01*
X97871390Y-53955780D02*
X97919009Y-54003400D01*
X97919009Y-54003400D02*
X98014247Y-54051019D01*
X98014247Y-54051019D02*
X98204723Y-54051019D01*
X98204723Y-54051019D02*
X98299961Y-54003400D01*
X98299961Y-54003400D02*
X98347580Y-53955780D01*
X98347580Y-53955780D02*
X98395199Y-53860542D01*
X98395199Y-53860542D02*
X98395199Y-53670066D01*
X98395199Y-53670066D02*
X98347580Y-53574828D01*
X98347580Y-53574828D02*
X98299961Y-53527209D01*
X98299961Y-53527209D02*
X98204723Y-53479590D01*
X99014247Y-53051019D02*
X99109485Y-53051019D01*
X99109485Y-53051019D02*
X99204723Y-53098638D01*
X99204723Y-53098638D02*
X99252342Y-53146257D01*
X99252342Y-53146257D02*
X99299961Y-53241495D01*
X99299961Y-53241495D02*
X99347580Y-53431971D01*
X99347580Y-53431971D02*
X99347580Y-53670066D01*
X99347580Y-53670066D02*
X99299961Y-53860542D01*
X99299961Y-53860542D02*
X99252342Y-53955780D01*
X99252342Y-53955780D02*
X99204723Y-54003400D01*
X99204723Y-54003400D02*
X99109485Y-54051019D01*
X99109485Y-54051019D02*
X99014247Y-54051019D01*
X99014247Y-54051019D02*
X98919009Y-54003400D01*
X98919009Y-54003400D02*
X98871390Y-53955780D01*
X98871390Y-53955780D02*
X98823771Y-53860542D01*
X98823771Y-53860542D02*
X98776152Y-53670066D01*
X98776152Y-53670066D02*
X98776152Y-53431971D01*
X98776152Y-53431971D02*
X98823771Y-53241495D01*
X98823771Y-53241495D02*
X98871390Y-53146257D01*
X98871390Y-53146257D02*
X98919009Y-53098638D01*
X98919009Y-53098638D02*
X99014247Y-53051019D01*
X99680914Y-53051019D02*
X100347580Y-53051019D01*
X100347580Y-53051019D02*
X99919009Y-54051019D01*
X100728533Y-53670066D02*
X101490438Y-53670066D01*
X102442818Y-54051019D02*
X101966628Y-54051019D01*
X101966628Y-54051019D02*
X101966628Y-53051019D01*
X103347580Y-54051019D02*
X103014247Y-53574828D01*
X102776152Y-54051019D02*
X102776152Y-53051019D01*
X102776152Y-53051019D02*
X103157104Y-53051019D01*
X103157104Y-53051019D02*
X103252342Y-53098638D01*
X103252342Y-53098638D02*
X103299961Y-53146257D01*
X103299961Y-53146257D02*
X103347580Y-53241495D01*
X103347580Y-53241495D02*
X103347580Y-53384352D01*
X103347580Y-53384352D02*
X103299961Y-53479590D01*
X103299961Y-53479590D02*
X103252342Y-53527209D01*
X103252342Y-53527209D02*
X103157104Y-53574828D01*
X103157104Y-53574828D02*
X102776152Y-53574828D01*
D10*
X101202349Y-74168533D02*
X100964254Y-74335199D01*
X101202349Y-74454247D02*
X100702349Y-74454247D01*
X100702349Y-74454247D02*
X100702349Y-74263771D01*
X100702349Y-74263771D02*
X100726159Y-74216152D01*
X100726159Y-74216152D02*
X100749968Y-74192342D01*
X100749968Y-74192342D02*
X100797587Y-74168533D01*
X100797587Y-74168533D02*
X100869016Y-74168533D01*
X100869016Y-74168533D02*
X100916635Y-74192342D01*
X100916635Y-74192342D02*
X100940444Y-74216152D01*
X100940444Y-74216152D02*
X100964254Y-74263771D01*
X100964254Y-74263771D02*
X100964254Y-74454247D01*
X100749968Y-73978056D02*
X100726159Y-73954247D01*
X100726159Y-73954247D02*
X100702349Y-73906628D01*
X100702349Y-73906628D02*
X100702349Y-73787580D01*
X100702349Y-73787580D02*
X100726159Y-73739961D01*
X100726159Y-73739961D02*
X100749968Y-73716152D01*
X100749968Y-73716152D02*
X100797587Y-73692342D01*
X100797587Y-73692342D02*
X100845206Y-73692342D01*
X100845206Y-73692342D02*
X100916635Y-73716152D01*
X100916635Y-73716152D02*
X101202349Y-74001866D01*
X101202349Y-74001866D02*
X101202349Y-73692342D01*
D11*
X102263400Y-74128532D02*
X102139591Y-74215199D01*
X102263400Y-74277104D02*
X102003400Y-74277104D01*
X102003400Y-74277104D02*
X102003400Y-74178056D01*
X102003400Y-74178056D02*
X102015781Y-74153294D01*
X102015781Y-74153294D02*
X102028162Y-74140913D01*
X102028162Y-74140913D02*
X102052924Y-74128532D01*
X102052924Y-74128532D02*
X102090067Y-74128532D01*
X102090067Y-74128532D02*
X102114829Y-74140913D01*
X102114829Y-74140913D02*
X102127210Y-74153294D01*
X102127210Y-74153294D02*
X102139591Y-74178056D01*
X102139591Y-74178056D02*
X102139591Y-74277104D01*
X102028162Y-74029485D02*
X102015781Y-74017104D01*
X102015781Y-74017104D02*
X102003400Y-73992342D01*
X102003400Y-73992342D02*
X102003400Y-73930437D01*
X102003400Y-73930437D02*
X102015781Y-73905675D01*
X102015781Y-73905675D02*
X102028162Y-73893294D01*
X102028162Y-73893294D02*
X102052924Y-73880913D01*
X102052924Y-73880913D02*
X102077686Y-73880913D01*
X102077686Y-73880913D02*
X102114829Y-73893294D01*
X102114829Y-73893294D02*
X102263400Y-74041866D01*
X102263400Y-74041866D02*
X102263400Y-73880913D01*
D10*
X98764247Y-56512349D02*
X98764247Y-56917111D01*
X98764247Y-56917111D02*
X98788057Y-56964730D01*
X98788057Y-56964730D02*
X98811866Y-56988540D01*
X98811866Y-56988540D02*
X98859485Y-57012349D01*
X98859485Y-57012349D02*
X98954723Y-57012349D01*
X98954723Y-57012349D02*
X99002342Y-56988540D01*
X99002342Y-56988540D02*
X99026152Y-56964730D01*
X99026152Y-56964730D02*
X99049961Y-56917111D01*
X99049961Y-56917111D02*
X99049961Y-56512349D01*
X99264248Y-56559968D02*
X99288057Y-56536159D01*
X99288057Y-56536159D02*
X99335676Y-56512349D01*
X99335676Y-56512349D02*
X99454724Y-56512349D01*
X99454724Y-56512349D02*
X99502343Y-56536159D01*
X99502343Y-56536159D02*
X99526152Y-56559968D01*
X99526152Y-56559968D02*
X99549962Y-56607587D01*
X99549962Y-56607587D02*
X99549962Y-56655206D01*
X99549962Y-56655206D02*
X99526152Y-56726635D01*
X99526152Y-56726635D02*
X99240438Y-57012349D01*
X99240438Y-57012349D02*
X99549962Y-57012349D01*
D12*
X98573771Y-58576444D02*
X98573771Y-59183587D01*
X98573771Y-59183587D02*
X98609485Y-59255015D01*
X98609485Y-59255015D02*
X98645200Y-59290730D01*
X98645200Y-59290730D02*
X98716628Y-59326444D01*
X98716628Y-59326444D02*
X98859485Y-59326444D01*
X98859485Y-59326444D02*
X98930914Y-59290730D01*
X98930914Y-59290730D02*
X98966628Y-59255015D01*
X98966628Y-59255015D02*
X99002342Y-59183587D01*
X99002342Y-59183587D02*
X99002342Y-58576444D01*
X99323771Y-58647872D02*
X99359485Y-58612158D01*
X99359485Y-58612158D02*
X99430914Y-58576444D01*
X99430914Y-58576444D02*
X99609485Y-58576444D01*
X99609485Y-58576444D02*
X99680914Y-58612158D01*
X99680914Y-58612158D02*
X99716628Y-58647872D01*
X99716628Y-58647872D02*
X99752342Y-58719301D01*
X99752342Y-58719301D02*
X99752342Y-58790730D01*
X99752342Y-58790730D02*
X99716628Y-58897872D01*
X99716628Y-58897872D02*
X99288056Y-59326444D01*
X99288056Y-59326444D02*
X99752342Y-59326444D01*
D10*
X99402349Y-74168533D02*
X99164254Y-74335199D01*
X99402349Y-74454247D02*
X98902349Y-74454247D01*
X98902349Y-74454247D02*
X98902349Y-74263771D01*
X98902349Y-74263771D02*
X98926159Y-74216152D01*
X98926159Y-74216152D02*
X98949968Y-74192342D01*
X98949968Y-74192342D02*
X98997587Y-74168533D01*
X98997587Y-74168533D02*
X99069016Y-74168533D01*
X99069016Y-74168533D02*
X99116635Y-74192342D01*
X99116635Y-74192342D02*
X99140444Y-74216152D01*
X99140444Y-74216152D02*
X99164254Y-74263771D01*
X99164254Y-74263771D02*
X99164254Y-74454247D01*
X99402349Y-73692342D02*
X99402349Y-73978056D01*
X99402349Y-73835199D02*
X98902349Y-73835199D01*
X98902349Y-73835199D02*
X98973778Y-73882818D01*
X98973778Y-73882818D02*
X99021397Y-73930437D01*
X99021397Y-73930437D02*
X99045206Y-73978056D01*
D11*
X100463400Y-74128532D02*
X100339591Y-74215199D01*
X100463400Y-74277104D02*
X100203400Y-74277104D01*
X100203400Y-74277104D02*
X100203400Y-74178056D01*
X100203400Y-74178056D02*
X100215781Y-74153294D01*
X100215781Y-74153294D02*
X100228162Y-74140913D01*
X100228162Y-74140913D02*
X100252924Y-74128532D01*
X100252924Y-74128532D02*
X100290067Y-74128532D01*
X100290067Y-74128532D02*
X100314829Y-74140913D01*
X100314829Y-74140913D02*
X100327210Y-74153294D01*
X100327210Y-74153294D02*
X100339591Y-74178056D01*
X100339591Y-74178056D02*
X100339591Y-74277104D01*
X100463400Y-73880913D02*
X100463400Y-74029485D01*
X100463400Y-73955199D02*
X100203400Y-73955199D01*
X100203400Y-73955199D02*
X100240543Y-73979961D01*
X100240543Y-73979961D02*
X100265305Y-74004723D01*
X100265305Y-74004723D02*
X100277686Y-74029485D01*
D10*
X100564730Y-71806628D02*
X100588540Y-71830437D01*
X100588540Y-71830437D02*
X100612349Y-71901866D01*
X100612349Y-71901866D02*
X100612349Y-71949485D01*
X100612349Y-71949485D02*
X100588540Y-72020913D01*
X100588540Y-72020913D02*
X100540920Y-72068532D01*
X100540920Y-72068532D02*
X100493301Y-72092342D01*
X100493301Y-72092342D02*
X100398063Y-72116151D01*
X100398063Y-72116151D02*
X100326635Y-72116151D01*
X100326635Y-72116151D02*
X100231397Y-72092342D01*
X100231397Y-72092342D02*
X100183778Y-72068532D01*
X100183778Y-72068532D02*
X100136159Y-72020913D01*
X100136159Y-72020913D02*
X100112349Y-71949485D01*
X100112349Y-71949485D02*
X100112349Y-71901866D01*
X100112349Y-71901866D02*
X100136159Y-71830437D01*
X100136159Y-71830437D02*
X100159968Y-71806628D01*
X100612349Y-71330437D02*
X100612349Y-71616151D01*
X100612349Y-71473294D02*
X100112349Y-71473294D01*
X100112349Y-71473294D02*
X100183778Y-71520913D01*
X100183778Y-71520913D02*
X100231397Y-71568532D01*
X100231397Y-71568532D02*
X100255206Y-71616151D01*
X100112349Y-71020914D02*
X100112349Y-70973295D01*
X100112349Y-70973295D02*
X100136159Y-70925676D01*
X100136159Y-70925676D02*
X100159968Y-70901866D01*
X100159968Y-70901866D02*
X100207587Y-70878057D01*
X100207587Y-70878057D02*
X100302825Y-70854247D01*
X100302825Y-70854247D02*
X100421873Y-70854247D01*
X100421873Y-70854247D02*
X100517111Y-70878057D01*
X100517111Y-70878057D02*
X100564730Y-70901866D01*
X100564730Y-70901866D02*
X100588540Y-70925676D01*
X100588540Y-70925676D02*
X100612349Y-70973295D01*
X100612349Y-70973295D02*
X100612349Y-71020914D01*
X100612349Y-71020914D02*
X100588540Y-71068533D01*
X100588540Y-71068533D02*
X100564730Y-71092342D01*
X100564730Y-71092342D02*
X100517111Y-71116152D01*
X100517111Y-71116152D02*
X100421873Y-71139961D01*
X100421873Y-71139961D02*
X100302825Y-71139961D01*
X100302825Y-71139961D02*
X100207587Y-71116152D01*
X100207587Y-71116152D02*
X100159968Y-71092342D01*
X100159968Y-71092342D02*
X100136159Y-71068533D01*
X100136159Y-71068533D02*
X100112349Y-71020914D01*
D11*
X101634965Y-71645914D02*
X101646870Y-71657818D01*
X101646870Y-71657818D02*
X101658774Y-71693533D01*
X101658774Y-71693533D02*
X101658774Y-71717342D01*
X101658774Y-71717342D02*
X101646870Y-71753056D01*
X101646870Y-71753056D02*
X101623060Y-71776866D01*
X101623060Y-71776866D02*
X101599250Y-71788771D01*
X101599250Y-71788771D02*
X101551631Y-71800675D01*
X101551631Y-71800675D02*
X101515917Y-71800675D01*
X101515917Y-71800675D02*
X101468298Y-71788771D01*
X101468298Y-71788771D02*
X101444489Y-71776866D01*
X101444489Y-71776866D02*
X101420679Y-71753056D01*
X101420679Y-71753056D02*
X101408774Y-71717342D01*
X101408774Y-71717342D02*
X101408774Y-71693533D01*
X101408774Y-71693533D02*
X101420679Y-71657818D01*
X101420679Y-71657818D02*
X101432584Y-71645914D01*
X101658774Y-71407818D02*
X101658774Y-71550675D01*
X101658774Y-71479247D02*
X101408774Y-71479247D01*
X101408774Y-71479247D02*
X101444489Y-71503056D01*
X101444489Y-71503056D02*
X101468298Y-71526866D01*
X101468298Y-71526866D02*
X101480203Y-71550675D01*
X101408774Y-71253057D02*
X101408774Y-71229247D01*
X101408774Y-71229247D02*
X101420679Y-71205438D01*
X101420679Y-71205438D02*
X101432584Y-71193533D01*
X101432584Y-71193533D02*
X101456393Y-71181628D01*
X101456393Y-71181628D02*
X101504012Y-71169723D01*
X101504012Y-71169723D02*
X101563536Y-71169723D01*
X101563536Y-71169723D02*
X101611155Y-71181628D01*
X101611155Y-71181628D02*
X101634965Y-71193533D01*
X101634965Y-71193533D02*
X101646870Y-71205438D01*
X101646870Y-71205438D02*
X101658774Y-71229247D01*
X101658774Y-71229247D02*
X101658774Y-71253057D01*
X101658774Y-71253057D02*
X101646870Y-71276866D01*
X101646870Y-71276866D02*
X101634965Y-71288771D01*
X101634965Y-71288771D02*
X101611155Y-71300676D01*
X101611155Y-71300676D02*
X101563536Y-71312580D01*
X101563536Y-71312580D02*
X101504012Y-71312580D01*
X101504012Y-71312580D02*
X101456393Y-71300676D01*
X101456393Y-71300676D02*
X101432584Y-71288771D01*
X101432584Y-71288771D02*
X101420679Y-71276866D01*
X101420679Y-71276866D02*
X101408774Y-71253057D01*
D10*
X96402349Y-62968533D02*
X96164254Y-63135199D01*
X96402349Y-63254247D02*
X95902349Y-63254247D01*
X95902349Y-63254247D02*
X95902349Y-63063771D01*
X95902349Y-63063771D02*
X95926159Y-63016152D01*
X95926159Y-63016152D02*
X95949968Y-62992342D01*
X95949968Y-62992342D02*
X95997587Y-62968533D01*
X95997587Y-62968533D02*
X96069016Y-62968533D01*
X96069016Y-62968533D02*
X96116635Y-62992342D01*
X96116635Y-62992342D02*
X96140444Y-63016152D01*
X96140444Y-63016152D02*
X96164254Y-63063771D01*
X96164254Y-63063771D02*
X96164254Y-63254247D01*
X95902349Y-62539961D02*
X95902349Y-62635199D01*
X95902349Y-62635199D02*
X95926159Y-62682818D01*
X95926159Y-62682818D02*
X95949968Y-62706628D01*
X95949968Y-62706628D02*
X96021397Y-62754247D01*
X96021397Y-62754247D02*
X96116635Y-62778056D01*
X96116635Y-62778056D02*
X96307111Y-62778056D01*
X96307111Y-62778056D02*
X96354730Y-62754247D01*
X96354730Y-62754247D02*
X96378540Y-62730437D01*
X96378540Y-62730437D02*
X96402349Y-62682818D01*
X96402349Y-62682818D02*
X96402349Y-62587580D01*
X96402349Y-62587580D02*
X96378540Y-62539961D01*
X96378540Y-62539961D02*
X96354730Y-62516152D01*
X96354730Y-62516152D02*
X96307111Y-62492342D01*
X96307111Y-62492342D02*
X96188063Y-62492342D01*
X96188063Y-62492342D02*
X96140444Y-62516152D01*
X96140444Y-62516152D02*
X96116635Y-62539961D01*
X96116635Y-62539961D02*
X96092825Y-62587580D01*
X96092825Y-62587580D02*
X96092825Y-62682818D01*
X96092825Y-62682818D02*
X96116635Y-62730437D01*
X96116635Y-62730437D02*
X96140444Y-62754247D01*
X96140444Y-62754247D02*
X96188063Y-62778056D01*
D11*
X97463400Y-62928532D02*
X97339591Y-63015199D01*
X97463400Y-63077104D02*
X97203400Y-63077104D01*
X97203400Y-63077104D02*
X97203400Y-62978056D01*
X97203400Y-62978056D02*
X97215781Y-62953294D01*
X97215781Y-62953294D02*
X97228162Y-62940913D01*
X97228162Y-62940913D02*
X97252924Y-62928532D01*
X97252924Y-62928532D02*
X97290067Y-62928532D01*
X97290067Y-62928532D02*
X97314829Y-62940913D01*
X97314829Y-62940913D02*
X97327210Y-62953294D01*
X97327210Y-62953294D02*
X97339591Y-62978056D01*
X97339591Y-62978056D02*
X97339591Y-63077104D01*
X97203400Y-62705675D02*
X97203400Y-62755199D01*
X97203400Y-62755199D02*
X97215781Y-62779961D01*
X97215781Y-62779961D02*
X97228162Y-62792342D01*
X97228162Y-62792342D02*
X97265305Y-62817104D01*
X97265305Y-62817104D02*
X97314829Y-62829485D01*
X97314829Y-62829485D02*
X97413877Y-62829485D01*
X97413877Y-62829485D02*
X97438639Y-62817104D01*
X97438639Y-62817104D02*
X97451020Y-62804723D01*
X97451020Y-62804723D02*
X97463400Y-62779961D01*
X97463400Y-62779961D02*
X97463400Y-62730437D01*
X97463400Y-62730437D02*
X97451020Y-62705675D01*
X97451020Y-62705675D02*
X97438639Y-62693294D01*
X97438639Y-62693294D02*
X97413877Y-62680913D01*
X97413877Y-62680913D02*
X97351972Y-62680913D01*
X97351972Y-62680913D02*
X97327210Y-62693294D01*
X97327210Y-62693294D02*
X97314829Y-62705675D01*
X97314829Y-62705675D02*
X97302448Y-62730437D01*
X97302448Y-62730437D02*
X97302448Y-62779961D01*
X97302448Y-62779961D02*
X97314829Y-62804723D01*
X97314829Y-62804723D02*
X97327210Y-62817104D01*
X97327210Y-62817104D02*
X97351972Y-62829485D01*
D10*
X103781866Y-60454730D02*
X103758057Y-60478540D01*
X103758057Y-60478540D02*
X103686628Y-60502349D01*
X103686628Y-60502349D02*
X103639009Y-60502349D01*
X103639009Y-60502349D02*
X103567581Y-60478540D01*
X103567581Y-60478540D02*
X103519962Y-60430920D01*
X103519962Y-60430920D02*
X103496152Y-60383301D01*
X103496152Y-60383301D02*
X103472343Y-60288063D01*
X103472343Y-60288063D02*
X103472343Y-60216635D01*
X103472343Y-60216635D02*
X103496152Y-60121397D01*
X103496152Y-60121397D02*
X103519962Y-60073778D01*
X103519962Y-60073778D02*
X103567581Y-60026159D01*
X103567581Y-60026159D02*
X103639009Y-60002349D01*
X103639009Y-60002349D02*
X103686628Y-60002349D01*
X103686628Y-60002349D02*
X103758057Y-60026159D01*
X103758057Y-60026159D02*
X103781866Y-60049968D01*
X104210438Y-60002349D02*
X104115200Y-60002349D01*
X104115200Y-60002349D02*
X104067581Y-60026159D01*
X104067581Y-60026159D02*
X104043771Y-60049968D01*
X104043771Y-60049968D02*
X103996152Y-60121397D01*
X103996152Y-60121397D02*
X103972343Y-60216635D01*
X103972343Y-60216635D02*
X103972343Y-60407111D01*
X103972343Y-60407111D02*
X103996152Y-60454730D01*
X103996152Y-60454730D02*
X104019962Y-60478540D01*
X104019962Y-60478540D02*
X104067581Y-60502349D01*
X104067581Y-60502349D02*
X104162819Y-60502349D01*
X104162819Y-60502349D02*
X104210438Y-60478540D01*
X104210438Y-60478540D02*
X104234247Y-60454730D01*
X104234247Y-60454730D02*
X104258057Y-60407111D01*
X104258057Y-60407111D02*
X104258057Y-60288063D01*
X104258057Y-60288063D02*
X104234247Y-60240444D01*
X104234247Y-60240444D02*
X104210438Y-60216635D01*
X104210438Y-60216635D02*
X104162819Y-60192825D01*
X104162819Y-60192825D02*
X104067581Y-60192825D01*
X104067581Y-60192825D02*
X104019962Y-60216635D01*
X104019962Y-60216635D02*
X103996152Y-60240444D01*
X103996152Y-60240444D02*
X103972343Y-60288063D01*
D11*
X103823533Y-61524965D02*
X103811629Y-61536870D01*
X103811629Y-61536870D02*
X103775914Y-61548774D01*
X103775914Y-61548774D02*
X103752105Y-61548774D01*
X103752105Y-61548774D02*
X103716391Y-61536870D01*
X103716391Y-61536870D02*
X103692581Y-61513060D01*
X103692581Y-61513060D02*
X103680676Y-61489250D01*
X103680676Y-61489250D02*
X103668772Y-61441631D01*
X103668772Y-61441631D02*
X103668772Y-61405917D01*
X103668772Y-61405917D02*
X103680676Y-61358298D01*
X103680676Y-61358298D02*
X103692581Y-61334489D01*
X103692581Y-61334489D02*
X103716391Y-61310679D01*
X103716391Y-61310679D02*
X103752105Y-61298774D01*
X103752105Y-61298774D02*
X103775914Y-61298774D01*
X103775914Y-61298774D02*
X103811629Y-61310679D01*
X103811629Y-61310679D02*
X103823533Y-61322584D01*
X104037819Y-61298774D02*
X103990200Y-61298774D01*
X103990200Y-61298774D02*
X103966391Y-61310679D01*
X103966391Y-61310679D02*
X103954486Y-61322584D01*
X103954486Y-61322584D02*
X103930676Y-61358298D01*
X103930676Y-61358298D02*
X103918772Y-61405917D01*
X103918772Y-61405917D02*
X103918772Y-61501155D01*
X103918772Y-61501155D02*
X103930676Y-61524965D01*
X103930676Y-61524965D02*
X103942581Y-61536870D01*
X103942581Y-61536870D02*
X103966391Y-61548774D01*
X103966391Y-61548774D02*
X104014010Y-61548774D01*
X104014010Y-61548774D02*
X104037819Y-61536870D01*
X104037819Y-61536870D02*
X104049724Y-61524965D01*
X104049724Y-61524965D02*
X104061629Y-61501155D01*
X104061629Y-61501155D02*
X104061629Y-61441631D01*
X104061629Y-61441631D02*
X104049724Y-61417822D01*
X104049724Y-61417822D02*
X104037819Y-61405917D01*
X104037819Y-61405917D02*
X104014010Y-61394012D01*
X104014010Y-61394012D02*
X103966391Y-61394012D01*
X103966391Y-61394012D02*
X103942581Y-61405917D01*
X103942581Y-61405917D02*
X103930676Y-61417822D01*
X103930676Y-61417822D02*
X103918772Y-61441631D01*
D10*
X96602349Y-71568533D02*
X96364254Y-71735199D01*
X96602349Y-71854247D02*
X96102349Y-71854247D01*
X96102349Y-71854247D02*
X96102349Y-71663771D01*
X96102349Y-71663771D02*
X96126159Y-71616152D01*
X96126159Y-71616152D02*
X96149968Y-71592342D01*
X96149968Y-71592342D02*
X96197587Y-71568533D01*
X96197587Y-71568533D02*
X96269016Y-71568533D01*
X96269016Y-71568533D02*
X96316635Y-71592342D01*
X96316635Y-71592342D02*
X96340444Y-71616152D01*
X96340444Y-71616152D02*
X96364254Y-71663771D01*
X96364254Y-71663771D02*
X96364254Y-71854247D01*
X96316635Y-71282818D02*
X96292825Y-71330437D01*
X96292825Y-71330437D02*
X96269016Y-71354247D01*
X96269016Y-71354247D02*
X96221397Y-71378056D01*
X96221397Y-71378056D02*
X96197587Y-71378056D01*
X96197587Y-71378056D02*
X96149968Y-71354247D01*
X96149968Y-71354247D02*
X96126159Y-71330437D01*
X96126159Y-71330437D02*
X96102349Y-71282818D01*
X96102349Y-71282818D02*
X96102349Y-71187580D01*
X96102349Y-71187580D02*
X96126159Y-71139961D01*
X96126159Y-71139961D02*
X96149968Y-71116152D01*
X96149968Y-71116152D02*
X96197587Y-71092342D01*
X96197587Y-71092342D02*
X96221397Y-71092342D01*
X96221397Y-71092342D02*
X96269016Y-71116152D01*
X96269016Y-71116152D02*
X96292825Y-71139961D01*
X96292825Y-71139961D02*
X96316635Y-71187580D01*
X96316635Y-71187580D02*
X96316635Y-71282818D01*
X96316635Y-71282818D02*
X96340444Y-71330437D01*
X96340444Y-71330437D02*
X96364254Y-71354247D01*
X96364254Y-71354247D02*
X96411873Y-71378056D01*
X96411873Y-71378056D02*
X96507111Y-71378056D01*
X96507111Y-71378056D02*
X96554730Y-71354247D01*
X96554730Y-71354247D02*
X96578540Y-71330437D01*
X96578540Y-71330437D02*
X96602349Y-71282818D01*
X96602349Y-71282818D02*
X96602349Y-71187580D01*
X96602349Y-71187580D02*
X96578540Y-71139961D01*
X96578540Y-71139961D02*
X96554730Y-71116152D01*
X96554730Y-71116152D02*
X96507111Y-71092342D01*
X96507111Y-71092342D02*
X96411873Y-71092342D01*
X96411873Y-71092342D02*
X96364254Y-71116152D01*
X96364254Y-71116152D02*
X96340444Y-71139961D01*
X96340444Y-71139961D02*
X96316635Y-71187580D01*
D11*
X97663400Y-71528532D02*
X97539591Y-71615199D01*
X97663400Y-71677104D02*
X97403400Y-71677104D01*
X97403400Y-71677104D02*
X97403400Y-71578056D01*
X97403400Y-71578056D02*
X97415781Y-71553294D01*
X97415781Y-71553294D02*
X97428162Y-71540913D01*
X97428162Y-71540913D02*
X97452924Y-71528532D01*
X97452924Y-71528532D02*
X97490067Y-71528532D01*
X97490067Y-71528532D02*
X97514829Y-71540913D01*
X97514829Y-71540913D02*
X97527210Y-71553294D01*
X97527210Y-71553294D02*
X97539591Y-71578056D01*
X97539591Y-71578056D02*
X97539591Y-71677104D01*
X97514829Y-71379961D02*
X97502448Y-71404723D01*
X97502448Y-71404723D02*
X97490067Y-71417104D01*
X97490067Y-71417104D02*
X97465305Y-71429485D01*
X97465305Y-71429485D02*
X97452924Y-71429485D01*
X97452924Y-71429485D02*
X97428162Y-71417104D01*
X97428162Y-71417104D02*
X97415781Y-71404723D01*
X97415781Y-71404723D02*
X97403400Y-71379961D01*
X97403400Y-71379961D02*
X97403400Y-71330437D01*
X97403400Y-71330437D02*
X97415781Y-71305675D01*
X97415781Y-71305675D02*
X97428162Y-71293294D01*
X97428162Y-71293294D02*
X97452924Y-71280913D01*
X97452924Y-71280913D02*
X97465305Y-71280913D01*
X97465305Y-71280913D02*
X97490067Y-71293294D01*
X97490067Y-71293294D02*
X97502448Y-71305675D01*
X97502448Y-71305675D02*
X97514829Y-71330437D01*
X97514829Y-71330437D02*
X97514829Y-71379961D01*
X97514829Y-71379961D02*
X97527210Y-71404723D01*
X97527210Y-71404723D02*
X97539591Y-71417104D01*
X97539591Y-71417104D02*
X97564353Y-71429485D01*
X97564353Y-71429485D02*
X97613877Y-71429485D01*
X97613877Y-71429485D02*
X97638639Y-71417104D01*
X97638639Y-71417104D02*
X97651020Y-71404723D01*
X97651020Y-71404723D02*
X97663400Y-71379961D01*
X97663400Y-71379961D02*
X97663400Y-71330437D01*
X97663400Y-71330437D02*
X97651020Y-71305675D01*
X97651020Y-71305675D02*
X97638639Y-71293294D01*
X97638639Y-71293294D02*
X97613877Y-71280913D01*
X97613877Y-71280913D02*
X97564353Y-71280913D01*
X97564353Y-71280913D02*
X97539591Y-71293294D01*
X97539591Y-71293294D02*
X97527210Y-71305675D01*
X97527210Y-71305675D02*
X97514829Y-71330437D01*
D10*
X99061866Y-55504730D02*
X99038057Y-55528540D01*
X99038057Y-55528540D02*
X98966628Y-55552349D01*
X98966628Y-55552349D02*
X98919009Y-55552349D01*
X98919009Y-55552349D02*
X98847581Y-55528540D01*
X98847581Y-55528540D02*
X98799962Y-55480920D01*
X98799962Y-55480920D02*
X98776152Y-55433301D01*
X98776152Y-55433301D02*
X98752343Y-55338063D01*
X98752343Y-55338063D02*
X98752343Y-55266635D01*
X98752343Y-55266635D02*
X98776152Y-55171397D01*
X98776152Y-55171397D02*
X98799962Y-55123778D01*
X98799962Y-55123778D02*
X98847581Y-55076159D01*
X98847581Y-55076159D02*
X98919009Y-55052349D01*
X98919009Y-55052349D02*
X98966628Y-55052349D01*
X98966628Y-55052349D02*
X99038057Y-55076159D01*
X99038057Y-55076159D02*
X99061866Y-55099968D01*
X99228533Y-55052349D02*
X99561866Y-55052349D01*
X99561866Y-55052349D02*
X99347581Y-55552349D01*
D11*
X99103533Y-56574965D02*
X99091629Y-56586870D01*
X99091629Y-56586870D02*
X99055914Y-56598774D01*
X99055914Y-56598774D02*
X99032105Y-56598774D01*
X99032105Y-56598774D02*
X98996391Y-56586870D01*
X98996391Y-56586870D02*
X98972581Y-56563060D01*
X98972581Y-56563060D02*
X98960676Y-56539250D01*
X98960676Y-56539250D02*
X98948772Y-56491631D01*
X98948772Y-56491631D02*
X98948772Y-56455917D01*
X98948772Y-56455917D02*
X98960676Y-56408298D01*
X98960676Y-56408298D02*
X98972581Y-56384489D01*
X98972581Y-56384489D02*
X98996391Y-56360679D01*
X98996391Y-56360679D02*
X99032105Y-56348774D01*
X99032105Y-56348774D02*
X99055914Y-56348774D01*
X99055914Y-56348774D02*
X99091629Y-56360679D01*
X99091629Y-56360679D02*
X99103533Y-56372584D01*
X99186867Y-56348774D02*
X99353533Y-56348774D01*
X99353533Y-56348774D02*
X99246391Y-56598774D01*
D10*
X101764730Y-67968533D02*
X101788540Y-67992342D01*
X101788540Y-67992342D02*
X101812349Y-68063771D01*
X101812349Y-68063771D02*
X101812349Y-68111390D01*
X101812349Y-68111390D02*
X101788540Y-68182818D01*
X101788540Y-68182818D02*
X101740920Y-68230437D01*
X101740920Y-68230437D02*
X101693301Y-68254247D01*
X101693301Y-68254247D02*
X101598063Y-68278056D01*
X101598063Y-68278056D02*
X101526635Y-68278056D01*
X101526635Y-68278056D02*
X101431397Y-68254247D01*
X101431397Y-68254247D02*
X101383778Y-68230437D01*
X101383778Y-68230437D02*
X101336159Y-68182818D01*
X101336159Y-68182818D02*
X101312349Y-68111390D01*
X101312349Y-68111390D02*
X101312349Y-68063771D01*
X101312349Y-68063771D02*
X101336159Y-67992342D01*
X101336159Y-67992342D02*
X101359968Y-67968533D01*
X101359968Y-67778056D02*
X101336159Y-67754247D01*
X101336159Y-67754247D02*
X101312349Y-67706628D01*
X101312349Y-67706628D02*
X101312349Y-67587580D01*
X101312349Y-67587580D02*
X101336159Y-67539961D01*
X101336159Y-67539961D02*
X101359968Y-67516152D01*
X101359968Y-67516152D02*
X101407587Y-67492342D01*
X101407587Y-67492342D02*
X101455206Y-67492342D01*
X101455206Y-67492342D02*
X101526635Y-67516152D01*
X101526635Y-67516152D02*
X101812349Y-67801866D01*
X101812349Y-67801866D02*
X101812349Y-67492342D01*
D11*
X102834965Y-67926866D02*
X102846870Y-67938770D01*
X102846870Y-67938770D02*
X102858774Y-67974485D01*
X102858774Y-67974485D02*
X102858774Y-67998294D01*
X102858774Y-67998294D02*
X102846870Y-68034008D01*
X102846870Y-68034008D02*
X102823060Y-68057818D01*
X102823060Y-68057818D02*
X102799250Y-68069723D01*
X102799250Y-68069723D02*
X102751631Y-68081627D01*
X102751631Y-68081627D02*
X102715917Y-68081627D01*
X102715917Y-68081627D02*
X102668298Y-68069723D01*
X102668298Y-68069723D02*
X102644489Y-68057818D01*
X102644489Y-68057818D02*
X102620679Y-68034008D01*
X102620679Y-68034008D02*
X102608774Y-67998294D01*
X102608774Y-67998294D02*
X102608774Y-67974485D01*
X102608774Y-67974485D02*
X102620679Y-67938770D01*
X102620679Y-67938770D02*
X102632584Y-67926866D01*
X102632584Y-67831627D02*
X102620679Y-67819723D01*
X102620679Y-67819723D02*
X102608774Y-67795913D01*
X102608774Y-67795913D02*
X102608774Y-67736389D01*
X102608774Y-67736389D02*
X102620679Y-67712580D01*
X102620679Y-67712580D02*
X102632584Y-67700675D01*
X102632584Y-67700675D02*
X102656393Y-67688770D01*
X102656393Y-67688770D02*
X102680203Y-67688770D01*
X102680203Y-67688770D02*
X102715917Y-67700675D01*
X102715917Y-67700675D02*
X102858774Y-67843532D01*
X102858774Y-67843532D02*
X102858774Y-67688770D01*
D10*
X103764730Y-65568533D02*
X103788540Y-65592342D01*
X103788540Y-65592342D02*
X103812349Y-65663771D01*
X103812349Y-65663771D02*
X103812349Y-65711390D01*
X103812349Y-65711390D02*
X103788540Y-65782818D01*
X103788540Y-65782818D02*
X103740920Y-65830437D01*
X103740920Y-65830437D02*
X103693301Y-65854247D01*
X103693301Y-65854247D02*
X103598063Y-65878056D01*
X103598063Y-65878056D02*
X103526635Y-65878056D01*
X103526635Y-65878056D02*
X103431397Y-65854247D01*
X103431397Y-65854247D02*
X103383778Y-65830437D01*
X103383778Y-65830437D02*
X103336159Y-65782818D01*
X103336159Y-65782818D02*
X103312349Y-65711390D01*
X103312349Y-65711390D02*
X103312349Y-65663771D01*
X103312349Y-65663771D02*
X103336159Y-65592342D01*
X103336159Y-65592342D02*
X103359968Y-65568533D01*
X103812349Y-65092342D02*
X103812349Y-65378056D01*
X103812349Y-65235199D02*
X103312349Y-65235199D01*
X103312349Y-65235199D02*
X103383778Y-65282818D01*
X103383778Y-65282818D02*
X103431397Y-65330437D01*
X103431397Y-65330437D02*
X103455206Y-65378056D01*
D11*
X104834965Y-65526866D02*
X104846870Y-65538770D01*
X104846870Y-65538770D02*
X104858774Y-65574485D01*
X104858774Y-65574485D02*
X104858774Y-65598294D01*
X104858774Y-65598294D02*
X104846870Y-65634008D01*
X104846870Y-65634008D02*
X104823060Y-65657818D01*
X104823060Y-65657818D02*
X104799250Y-65669723D01*
X104799250Y-65669723D02*
X104751631Y-65681627D01*
X104751631Y-65681627D02*
X104715917Y-65681627D01*
X104715917Y-65681627D02*
X104668298Y-65669723D01*
X104668298Y-65669723D02*
X104644489Y-65657818D01*
X104644489Y-65657818D02*
X104620679Y-65634008D01*
X104620679Y-65634008D02*
X104608774Y-65598294D01*
X104608774Y-65598294D02*
X104608774Y-65574485D01*
X104608774Y-65574485D02*
X104620679Y-65538770D01*
X104620679Y-65538770D02*
X104632584Y-65526866D01*
X104858774Y-65288770D02*
X104858774Y-65431627D01*
X104858774Y-65360199D02*
X104608774Y-65360199D01*
X104608774Y-65360199D02*
X104644489Y-65384008D01*
X104644489Y-65384008D02*
X104668298Y-65407818D01*
X104668298Y-65407818D02*
X104680203Y-65431627D01*
%TO.C,C5*%
D14*
X103365200Y-55335200D02*
X104365200Y-55335200D01*
X104365200Y-55835200D01*
X103365200Y-55835200D01*
X103365200Y-55335200D01*
%TO.C,C3*%
X101495200Y-62385200D02*
X101995200Y-62385200D01*
X101995200Y-63385200D01*
X101495200Y-63385200D01*
X101495200Y-62385200D01*
%TO.C,R9*%
X99275200Y-70960200D02*
X99815200Y-70960200D01*
X99815200Y-72010200D01*
X99275200Y-72010200D01*
X99275200Y-70960200D01*
%TO.C,R7*%
X98875200Y-62360200D02*
X99415200Y-62360200D01*
X99415200Y-63410200D01*
X98875200Y-63410200D01*
X98875200Y-62360200D01*
%TO.C,U3*%
X98545200Y-64635200D02*
X99745200Y-64635200D01*
X99745200Y-67535200D01*
X98145200Y-67535200D01*
X98145200Y-65035200D01*
X98545200Y-64635200D01*
%TO.C,R3*%
X102475200Y-64960200D02*
X103015200Y-64960200D01*
X103015200Y-66010200D01*
X102475200Y-66010200D01*
X102475200Y-64960200D01*
%TO.C,C8*%
X98645200Y-60835200D02*
X99645200Y-60835200D01*
X99645200Y-61335200D01*
X98645200Y-61335200D01*
X98645200Y-60835200D01*
%TO.C,D1*%
X98545200Y-69335200D02*
X98545200Y-68835200D01*
X98645200Y-69335200D02*
X98645200Y-68835200D01*
X98445200Y-68835200D02*
X99445200Y-68835200D01*
X99445200Y-69335200D01*
X98445200Y-69335200D01*
X98445200Y-68835200D01*
%TO.C,R4*%
X104475200Y-67360200D02*
X105015200Y-67360200D01*
X105015200Y-68410200D01*
X104475200Y-68410200D01*
X104475200Y-67360200D01*
%TO.C,U4*%
X102695200Y-59085200D02*
X102695200Y-57885200D01*
X105595200Y-57885200D01*
X105595200Y-59485200D01*
X103095200Y-59485200D01*
X102695200Y-59085200D01*
%TO.C,J1*%
X96775200Y-76600200D02*
X96775200Y-83950200D01*
X96775200Y-76600200D02*
X105715200Y-76600200D01*
X96775200Y-83950200D02*
X105715200Y-83950200D01*
X105715200Y-83950200D02*
X105715200Y-76600200D01*
%TO.C,C4*%
X103895200Y-62385200D02*
X104395200Y-62385200D01*
X104395200Y-63385200D01*
X103895200Y-63385200D01*
X103895200Y-62385200D01*
%TO.C,U1*%
X97245200Y-46485200D02*
X97245200Y-54485200D01*
X101245200Y-48485200D02*
X101245200Y-49485200D01*
X101745200Y-48985200D02*
X100745200Y-48985200D01*
X105245200Y-46485200D02*
X97245200Y-46485200D01*
X105245200Y-46485200D02*
X105245200Y-54485200D01*
X105245200Y-54485200D02*
X97245200Y-54485200D01*
%TO.C,R2*%
X101875200Y-73560200D02*
X102415200Y-73560200D01*
X102415200Y-74610200D01*
X101875200Y-74610200D01*
X101875200Y-73560200D01*
%TO.C,U2*%
X98270200Y-57735200D02*
X100645200Y-57735200D01*
X100645200Y-60235200D01*
X97645200Y-60235200D01*
X97645200Y-58360200D01*
X98270200Y-57735200D01*
%TO.C,R1*%
X100075200Y-73560200D02*
X100615200Y-73560200D01*
X100615200Y-74610200D01*
X100075200Y-74610200D01*
X100075200Y-73560200D01*
%TO.C,C10*%
X101295200Y-70985200D02*
X101795200Y-70985200D01*
X101795200Y-71985200D01*
X101295200Y-71985200D01*
X101295200Y-70985200D01*
%TO.C,R6*%
X97075200Y-62360200D02*
X97615200Y-62360200D01*
X97615200Y-63410200D01*
X97075200Y-63410200D01*
X97075200Y-62360200D01*
%TO.C,C6*%
X103365200Y-61185200D02*
X104365200Y-61185200D01*
X104365200Y-61685200D01*
X103365200Y-61685200D01*
X103365200Y-61185200D01*
%TO.C,R8*%
X97275200Y-70960200D02*
X97815200Y-70960200D01*
X97815200Y-72010200D01*
X97275200Y-72010200D01*
X97275200Y-70960200D01*
%TO.C,C7*%
X98645200Y-56235200D02*
X99645200Y-56235200D01*
X99645200Y-56735200D01*
X98645200Y-56735200D01*
X98645200Y-56235200D01*
%TO.C,C2*%
X102495200Y-67385200D02*
X102995200Y-67385200D01*
X102995200Y-68385200D01*
X102495200Y-68385200D01*
X102495200Y-67385200D01*
%TO.C,C1*%
X104495200Y-64985200D02*
X104995200Y-64985200D01*
X104995200Y-65985200D01*
X104495200Y-65985200D01*
X104495200Y-64985200D01*
%TD*%
M02*
