M48
; DRILL file KiCad 10.0.3 date 2026-08-29T19:24:50
; FORMAT={-:-/ absolute / metric / decimal}
; #@! TF.CreationDate,2026-08-29T19:24:50-04:00
; #@! TF.GenerationSoftware,Kicad,Pcbnew,10.0.3
; #@! TF.FileFunction,MixedPlating,1,4
FMAT,2
METRIC
; #@! TA.AperFunction,Plated,PTH,ViaDrill
T1C0.200
; #@! TA.AperFunction,Plated,PTH,ComponentDrill
T2C0.600
; #@! TA.AperFunction,NonPlated,NPTH,ComponentDrill
T3C0.650
%
G90
G05
T1
X96.936Y-65.601
X97.001Y-55.687
X97.027Y-51.936
X97.188Y-55.141
X97.252Y-64.515
X97.332Y-58.831
X97.462Y-70.377
X97.829Y-62.911
X98.05Y-64.517
X98.149Y-70.055
X98.402Y-55.131
X98.696Y-68.447
X99.135Y-54.712
X99.544Y-59.15
X99.544Y-63.968
X100.065Y-57.607
X100.658Y-71.965
X100.758Y-54.714
X100.955Y-59.076
X101.245Y-77.499
X101.245Y-80.935
X101.338Y-75.613
X102.097Y-64.837
X102.676Y-50.166
X103.067Y-69.787
X103.287Y-50.002
X103.385Y-60.805
X104.253Y-67.867
X105.312Y-55.276
X105.468Y-52.959
X105.47Y-52.31
X105.79Y-50.015
X105.864Y-71.664
X105.995Y-53.298
T3
X98.355Y-77.67
X104.135Y-77.67
T2
X96.925Y-76.6G85X96.925Y-77.7
G05
X96.925Y-80.95G85X96.925Y-81.75
G05
X105.565Y-76.6G85X105.565Y-77.7
G05
X105.565Y-80.95G85X105.565Y-81.75
G05
M30
