%TF.GenerationSoftware,KiCad,Pcbnew,10.0.3*%
%TF.CreationDate,2026-08-30T15:30:07-04:00*%
%TF.ProjectId,pen-mixer,70656e2d-6d69-4786-9572-2e6b69636164,v2*%
%TF.SameCoordinates,Original*%
%TF.FileFunction,Copper,L4,Bot*%
%TF.FilePolarity,Positive*%
%FSLAX46Y46*%
G04 Gerber Fmt 4.6, Leading zero omitted, Abs format (unit mm)*
G04 Created by KiCad (PCBNEW 10.0.3) date 2026-08-30 15:30:07*
%MOMM*%
%LPD*%
G01*
G04 APERTURE LIST*
%TA.AperFunction,ComponentPad*%
%ADD10O,1.000000X2.100000*%
%TD*%
%TA.AperFunction,ComponentPad*%
%ADD11O,1.000000X1.800000*%
%TD*%
%TA.AperFunction,SMDPad,CuDef*%
%ADD12R,1.000000X1.000000*%
%TD*%
%TA.AperFunction,SMDPad,CuDef*%
%ADD13R,1.400000X1.200000*%
%TD*%
%TA.AperFunction,ViaPad*%
%ADD14C,0.450000*%
%TD*%
%TA.AperFunction,Conductor*%
%ADD15C,0.150000*%
%TD*%
G04 APERTURE END LIST*
D10*
%TO.P,J1,SH*%
%TO.N,GND*%
X97875200Y-70050200D03*
D11*
X97875200Y-74250200D03*
D10*
X106515200Y-70050200D03*
D11*
X106515200Y-74250200D03*
%TD*%
D12*
%TO.P,TP2,1*%
%TO.N,SWDCLK*%
X101195200Y-53035200D03*
%TD*%
%TO.P,TP5,1*%
%TO.N,+3V3*%
X105195200Y-53035200D03*
%TD*%
D13*
%TO.P,J2,1*%
%TO.N,VBAT*%
X103295200Y-44035200D03*
%TO.P,J2,2*%
%TO.N,GND*%
X101095200Y-44035200D03*
%TD*%
D12*
%TO.P,TP4,1*%
%TO.N,GND*%
X103195200Y-53035200D03*
%TD*%
%TO.P,TP1,1*%
%TO.N,SWDIO*%
X99195200Y-53035200D03*
%TD*%
D14*
%TO.N,+3V3*%
X103992100Y-56462800D03*
%TO.N,GND*%
X107875200Y-68376900D03*
X101342700Y-50026900D03*
X101841800Y-55230700D03*
X107248100Y-66814800D03*
%TO.N,VBAT*%
X101130200Y-56857700D03*
X100147100Y-62172900D03*
X105186300Y-63635200D03*
X98268400Y-67879100D03*
X101925800Y-50027800D03*
%TO.N,VBAT_SENSE*%
X104195200Y-65219700D03*
X102800700Y-54906000D03*
%TO.N,SCL*%
X106426900Y-52251700D03*
X100055400Y-55197300D03*
X104187500Y-61202900D03*
%TO.N,VBUS*%
X107045200Y-58785200D03*
X103232800Y-50164500D03*
X104303900Y-70983600D03*
X105695200Y-64736100D03*
X100232700Y-67115400D03*
%TO.N,LED_A*%
X99252000Y-67677000D03*
X106127800Y-62578100D03*
%TO.N,CC1*%
X96899700Y-68284900D03*
X100945200Y-70391600D03*
%TO.N,USB_DP*%
X102945200Y-70402300D03*
X106379900Y-50314000D03*
%TO.N,USB_DM*%
X102171800Y-68254600D03*
X103964700Y-50149700D03*
%TO.N,IMU_INT1*%
X106261900Y-54676000D03*
X97182900Y-58725700D03*
%TO.N,IMU_INT2*%
X99453600Y-58334300D03*
X106698000Y-54183700D03*
%TO.N,SDA*%
X99751500Y-54708200D03*
X101188200Y-62202200D03*
X98495200Y-57887300D03*
%TO.N,SWDIO*%
X97971100Y-52633100D03*
%TO.N,SWDCLK*%
X98092600Y-54705100D03*
%TD*%
%TO.N,+3V3*%
D15*
X105195200Y-53035200D02*
X105195200Y-53701900D01*
X103992100Y-54905000D02*
X103992100Y-56462800D01*
X105195200Y-53701900D02*
X103992100Y-54905000D01*
%TO.N,GND*%
X103195200Y-53035200D02*
X103195200Y-53701900D01*
X103195200Y-51879400D02*
X103195200Y-53035200D01*
X101342700Y-50026900D02*
X103195200Y-51879400D01*
X103195200Y-53701900D02*
X101841800Y-55055300D01*
X101342700Y-45049400D02*
X101095200Y-44801900D01*
X101841800Y-55055300D02*
X101841800Y-55230700D01*
X101095200Y-44035200D02*
X101095200Y-44801900D01*
X101342700Y-50026900D02*
X101342700Y-45049400D01*
%TO.N,VBAT*%
X103295200Y-44801900D02*
X101925800Y-46171300D01*
X101925800Y-46171300D02*
X101925800Y-50027800D01*
X103295200Y-44035200D02*
X103295200Y-44801900D01*
%TO.N,SWDIO*%
X99195200Y-53035200D02*
X98373200Y-53035200D01*
X98373200Y-53035200D02*
X97971100Y-52633100D01*
%TO.N,SWDCLK*%
X101195200Y-53035200D02*
X100528500Y-53035200D01*
X98858600Y-54705100D02*
X98092600Y-54705100D01*
X100528500Y-53035200D02*
X98858600Y-54705100D01*
%TD*%
%TA.AperFunction,Conductor*%
%TO.N,GND*%
G36*
X101518993Y-49704107D02*
G01*
X101554957Y-49753607D01*
X101554957Y-49814793D01*
X101546538Y-49833701D01*
X101529298Y-49863560D01*
X101529297Y-49863562D01*
X101529297Y-49863563D01*
X101500300Y-49971782D01*
X101500300Y-50083818D01*
X101517970Y-50149763D01*
X101529298Y-50192041D01*
X101585313Y-50289060D01*
X101585315Y-50289063D01*
X101664537Y-50368285D01*
X101664539Y-50368286D01*
X101761559Y-50424301D01*
X101761557Y-50424301D01*
X101761561Y-50424302D01*
X101761563Y-50424303D01*
X101869782Y-50453300D01*
X101869784Y-50453300D01*
X101981816Y-50453300D01*
X101981818Y-50453300D01*
X102090037Y-50424303D01*
X102090039Y-50424301D01*
X102090041Y-50424301D01*
X102118864Y-50407659D01*
X102187063Y-50368285D01*
X102266285Y-50289063D01*
X102322303Y-50192037D01*
X102351300Y-50083818D01*
X102351300Y-49971782D01*
X102322303Y-49863563D01*
X102305061Y-49833700D01*
X102292340Y-49773853D01*
X102317226Y-49717957D01*
X102370214Y-49687364D01*
X102390798Y-49685200D01*
X102871345Y-49685200D01*
X102929536Y-49704107D01*
X102965500Y-49753607D01*
X102965500Y-49814793D01*
X102941350Y-49854201D01*
X102907115Y-49888437D01*
X102892313Y-49903239D01*
X102836298Y-50000258D01*
X102836297Y-50000263D01*
X102807300Y-50108482D01*
X102807300Y-50220518D01*
X102832331Y-50313937D01*
X102836298Y-50328741D01*
X102862577Y-50374256D01*
X102892315Y-50425763D01*
X102971537Y-50504985D01*
X102971539Y-50504986D01*
X103068559Y-50561001D01*
X103068557Y-50561001D01*
X103068561Y-50561002D01*
X103068563Y-50561003D01*
X103176782Y-50590000D01*
X103176784Y-50590000D01*
X103288816Y-50590000D01*
X103288818Y-50590000D01*
X103397037Y-50561003D01*
X103397039Y-50561001D01*
X103397041Y-50561001D01*
X103425864Y-50544359D01*
X103494063Y-50504985D01*
X103536148Y-50462899D01*
X103590663Y-50435124D01*
X103651095Y-50444695D01*
X103676150Y-50462898D01*
X103703437Y-50490185D01*
X103703439Y-50490186D01*
X103800459Y-50546201D01*
X103800457Y-50546201D01*
X103800461Y-50546202D01*
X103800463Y-50546203D01*
X103908682Y-50575200D01*
X103908684Y-50575200D01*
X104020716Y-50575200D01*
X104020718Y-50575200D01*
X104128937Y-50546203D01*
X104128939Y-50546201D01*
X104128941Y-50546201D01*
X104157764Y-50529559D01*
X104225963Y-50490185D01*
X104305185Y-50410963D01*
X104361203Y-50313937D01*
X104376196Y-50257982D01*
X105954400Y-50257982D01*
X105954400Y-50370018D01*
X105965371Y-50410963D01*
X105983398Y-50478241D01*
X106039413Y-50575260D01*
X106039415Y-50575263D01*
X106118637Y-50654485D01*
X106118639Y-50654486D01*
X106215659Y-50710501D01*
X106215657Y-50710501D01*
X106215661Y-50710502D01*
X106215663Y-50710503D01*
X106323882Y-50739500D01*
X106323884Y-50739500D01*
X106435916Y-50739500D01*
X106435918Y-50739500D01*
X106544137Y-50710503D01*
X106544139Y-50710501D01*
X106544141Y-50710501D01*
X106572964Y-50693859D01*
X106641163Y-50654485D01*
X106720385Y-50575263D01*
X106776403Y-50478237D01*
X106805400Y-50370018D01*
X106805400Y-50257982D01*
X106776403Y-50149763D01*
X106776401Y-50149760D01*
X106776401Y-50149758D01*
X106720386Y-50052739D01*
X106720385Y-50052737D01*
X106641163Y-49973515D01*
X106641160Y-49973513D01*
X106544140Y-49917498D01*
X106544142Y-49917498D01*
X106490925Y-49903239D01*
X106435918Y-49888500D01*
X106323882Y-49888500D01*
X106268875Y-49903239D01*
X106215658Y-49917498D01*
X106118639Y-49973513D01*
X106039413Y-50052739D01*
X105983398Y-50149758D01*
X105983397Y-50149763D01*
X105954400Y-50257982D01*
X104376196Y-50257982D01*
X104390200Y-50205718D01*
X104390200Y-50093682D01*
X104361203Y-49985463D01*
X104361201Y-49985460D01*
X104361201Y-49985458D01*
X104305186Y-49888439D01*
X104305185Y-49888437D01*
X104270949Y-49854201D01*
X104243174Y-49799687D01*
X104252745Y-49739255D01*
X104296010Y-49695990D01*
X104340955Y-49685200D01*
X108345700Y-49685200D01*
X108403891Y-49704107D01*
X108439855Y-49753607D01*
X108444700Y-49784200D01*
X108444700Y-57358715D01*
X108425793Y-57416906D01*
X108376293Y-57452870D01*
X108315107Y-57452870D01*
X108296201Y-57444452D01*
X108176985Y-57375623D01*
X108113882Y-57358715D01*
X108024257Y-57334700D01*
X107866143Y-57334700D01*
X107713416Y-57375623D01*
X107576484Y-57454680D01*
X107464680Y-57566484D01*
X107385623Y-57703416D01*
X107344700Y-57856143D01*
X107344700Y-58014257D01*
X107385623Y-58166984D01*
X107464680Y-58303916D01*
X107576484Y-58415720D01*
X107713416Y-58494777D01*
X107866143Y-58535700D01*
X107866145Y-58535700D01*
X108024255Y-58535700D01*
X108024257Y-58535700D01*
X108176984Y-58494777D01*
X108296203Y-58425946D01*
X108356048Y-58413226D01*
X108411944Y-58438113D01*
X108442537Y-58491101D01*
X108444700Y-58511684D01*
X108444700Y-75381959D01*
X108444488Y-75388434D01*
X108429729Y-75613605D01*
X108428039Y-75626444D01*
X108384649Y-75844584D01*
X108381297Y-75857092D01*
X108309808Y-76067693D01*
X108304852Y-76079658D01*
X108206483Y-76279128D01*
X108200009Y-76290342D01*
X108076443Y-76475273D01*
X108068559Y-76485547D01*
X107921917Y-76652760D01*
X107912760Y-76661917D01*
X107745547Y-76808559D01*
X107735273Y-76816443D01*
X107550342Y-76940009D01*
X107539128Y-76946483D01*
X107339658Y-77044852D01*
X107327693Y-77049808D01*
X107117092Y-77121297D01*
X107104584Y-77124649D01*
X106886444Y-77168039D01*
X106873605Y-77169729D01*
X106648434Y-77184488D01*
X106641959Y-77184700D01*
X97748441Y-77184700D01*
X97741966Y-77184488D01*
X97516794Y-77169729D01*
X97503955Y-77168039D01*
X97285815Y-77124649D01*
X97273307Y-77121297D01*
X97062706Y-77049808D01*
X97050741Y-77044852D01*
X96851271Y-76946483D01*
X96840057Y-76940009D01*
X96655126Y-76816443D01*
X96644852Y-76808559D01*
X96477639Y-76661917D01*
X96468482Y-76652760D01*
X96321840Y-76485547D01*
X96313956Y-76475273D01*
X96190390Y-76290342D01*
X96183916Y-76279128D01*
X96169440Y-76249774D01*
X96085543Y-76079650D01*
X96080595Y-76067702D01*
X96009099Y-75857083D01*
X96005752Y-75844594D01*
X95962359Y-75626437D01*
X95960670Y-75613605D01*
X95945912Y-75388434D01*
X95945700Y-75381959D01*
X95945700Y-73776328D01*
X97125200Y-73776328D01*
X97125200Y-74100199D01*
X97125201Y-74100200D01*
X97575200Y-74100200D01*
X97575200Y-74400200D01*
X97125201Y-74400200D01*
X97125200Y-74400201D01*
X97125200Y-74724071D01*
X97154021Y-74868964D01*
X97154023Y-74868970D01*
X97210558Y-75005457D01*
X97292634Y-75128293D01*
X97397106Y-75232765D01*
X97519942Y-75314841D01*
X97656435Y-75371378D01*
X97656434Y-75371378D01*
X97725200Y-75385055D01*
X97725200Y-74910008D01*
X97759404Y-74929756D01*
X97835704Y-74950200D01*
X97914696Y-74950200D01*
X97990996Y-74929756D01*
X98025200Y-74910008D01*
X98025200Y-75385054D01*
X98093965Y-75371378D01*
X98230457Y-75314841D01*
X98353293Y-75232765D01*
X98457765Y-75128293D01*
X98539841Y-75005457D01*
X98596376Y-74868970D01*
X98596378Y-74868964D01*
X98625199Y-74724071D01*
X98625200Y-74724067D01*
X98625200Y-74400201D01*
X98625199Y-74400200D01*
X98175200Y-74400200D01*
X98175200Y-74100200D01*
X98625199Y-74100200D01*
X98625200Y-74100199D01*
X98625200Y-73776332D01*
X98625199Y-73776328D01*
X105765200Y-73776328D01*
X105765200Y-74100199D01*
X105765201Y-74100200D01*
X106215200Y-74100200D01*
X106215200Y-74400200D01*
X105765201Y-74400200D01*
X105765200Y-74400201D01*
X105765200Y-74724071D01*
X105794021Y-74868964D01*
X105794023Y-74868970D01*
X105850558Y-75005457D01*
X105932634Y-75128293D01*
X106037106Y-75232765D01*
X106159942Y-75314841D01*
X106296435Y-75371378D01*
X106296434Y-75371378D01*
X106365200Y-75385055D01*
X106365200Y-74910008D01*
X106399404Y-74929756D01*
X106475704Y-74950200D01*
X106554696Y-74950200D01*
X106630996Y-74929756D01*
X106665200Y-74910008D01*
X106665200Y-75385054D01*
X106733965Y-75371378D01*
X106870457Y-75314841D01*
X106993293Y-75232765D01*
X107097765Y-75128293D01*
X107179841Y-75005457D01*
X107236376Y-74868970D01*
X107236378Y-74868964D01*
X107265199Y-74724071D01*
X107265200Y-74724067D01*
X107265200Y-74400201D01*
X107265199Y-74400200D01*
X106815200Y-74400200D01*
X106815200Y-74100200D01*
X107265199Y-74100200D01*
X107265200Y-74100199D01*
X107265200Y-73776332D01*
X107265199Y-73776328D01*
X107236378Y-73631435D01*
X107236376Y-73631429D01*
X107179841Y-73494942D01*
X107097765Y-73372106D01*
X106993293Y-73267634D01*
X106870457Y-73185558D01*
X106733967Y-73129022D01*
X106665200Y-73115343D01*
X106665200Y-73590391D01*
X106630996Y-73570644D01*
X106554696Y-73550200D01*
X106475704Y-73550200D01*
X106399404Y-73570644D01*
X106365200Y-73590391D01*
X106365200Y-73115343D01*
X106296432Y-73129022D01*
X106159942Y-73185558D01*
X106037106Y-73267634D01*
X105932634Y-73372106D01*
X105850558Y-73494942D01*
X105794023Y-73631429D01*
X105794021Y-73631435D01*
X105765200Y-73776328D01*
X98625199Y-73776328D01*
X98596378Y-73631435D01*
X98596376Y-73631429D01*
X98539841Y-73494942D01*
X98457765Y-73372106D01*
X98353293Y-73267634D01*
X98230457Y-73185558D01*
X98093967Y-73129022D01*
X98025200Y-73115343D01*
X98025200Y-73590391D01*
X97990996Y-73570644D01*
X97914696Y-73550200D01*
X97835704Y-73550200D01*
X97759404Y-73570644D01*
X97725200Y-73590391D01*
X97725200Y-73115343D01*
X97656432Y-73129022D01*
X97519942Y-73185558D01*
X97397106Y-73267634D01*
X97292634Y-73372106D01*
X97210558Y-73494942D01*
X97154023Y-73631429D01*
X97154021Y-73631435D01*
X97125200Y-73776328D01*
X95945700Y-73776328D01*
X95945700Y-69426328D01*
X97125200Y-69426328D01*
X97125200Y-69900199D01*
X97125201Y-69900200D01*
X97575200Y-69900200D01*
X97575200Y-70200200D01*
X97125201Y-70200200D01*
X97125200Y-70200201D01*
X97125200Y-70674071D01*
X97154021Y-70818964D01*
X97154023Y-70818970D01*
X97210558Y-70955457D01*
X97292634Y-71078293D01*
X97397106Y-71182765D01*
X97519942Y-71264841D01*
X97656435Y-71321378D01*
X97656434Y-71321378D01*
X97725200Y-71335055D01*
X97725200Y-70860008D01*
X97759404Y-70879756D01*
X97835704Y-70900200D01*
X97914696Y-70900200D01*
X97990996Y-70879756D01*
X98025200Y-70860008D01*
X98025200Y-71335054D01*
X98093965Y-71321378D01*
X98230457Y-71264841D01*
X98353293Y-71182765D01*
X98457765Y-71078293D01*
X98539841Y-70955457D01*
X98596376Y-70818970D01*
X98596378Y-70818964D01*
X98612153Y-70739658D01*
X98642049Y-70686274D01*
X98697614Y-70660658D01*
X98757624Y-70672595D01*
X98799157Y-70717524D01*
X98804877Y-70733348D01*
X98815510Y-70773032D01*
X98815511Y-70773034D01*
X98815512Y-70773036D01*
X98884695Y-70892865D01*
X98982535Y-70990705D01*
X99102364Y-71059888D01*
X99236017Y-71095700D01*
X99236019Y-71095700D01*
X99374381Y-71095700D01*
X99374383Y-71095700D01*
X99508036Y-71059888D01*
X99627865Y-70990705D01*
X99690988Y-70927582D01*
X103878400Y-70927582D01*
X103878400Y-71039618D01*
X103888763Y-71078293D01*
X103907398Y-71147841D01*
X103963413Y-71244860D01*
X103963415Y-71244863D01*
X104042637Y-71324085D01*
X104042639Y-71324086D01*
X104139659Y-71380101D01*
X104139657Y-71380101D01*
X104139661Y-71380102D01*
X104139663Y-71380103D01*
X104247882Y-71409100D01*
X104247884Y-71409100D01*
X104359916Y-71409100D01*
X104359918Y-71409100D01*
X104468137Y-71380103D01*
X104468139Y-71380101D01*
X104468141Y-71380101D01*
X104496964Y-71363459D01*
X104565163Y-71324085D01*
X104644385Y-71244863D01*
X104700403Y-71147837D01*
X104711797Y-71105311D01*
X104745119Y-71053999D01*
X104802240Y-71032072D01*
X104856920Y-71045198D01*
X104882364Y-71059888D01*
X105016017Y-71095700D01*
X105016019Y-71095700D01*
X105154381Y-71095700D01*
X105154383Y-71095700D01*
X105288036Y-71059888D01*
X105407865Y-70990705D01*
X105505705Y-70892865D01*
X105574888Y-70773036D01*
X105585522Y-70733347D01*
X105618844Y-70682035D01*
X105675966Y-70660108D01*
X105735066Y-70675943D01*
X105773572Y-70723492D01*
X105778246Y-70739657D01*
X105794022Y-70818965D01*
X105794023Y-70818970D01*
X105850558Y-70955457D01*
X105932634Y-71078293D01*
X106037106Y-71182765D01*
X106159942Y-71264841D01*
X106296435Y-71321378D01*
X106296434Y-71321378D01*
X106365200Y-71335055D01*
X106365200Y-70860008D01*
X106399404Y-70879756D01*
X106475704Y-70900200D01*
X106554696Y-70900200D01*
X106630996Y-70879756D01*
X106665200Y-70860008D01*
X106665200Y-71335054D01*
X106733965Y-71321378D01*
X106870457Y-71264841D01*
X106993293Y-71182765D01*
X107097765Y-71078293D01*
X107179841Y-70955457D01*
X107236376Y-70818970D01*
X107236378Y-70818964D01*
X107265199Y-70674071D01*
X107265200Y-70674067D01*
X107265200Y-70200201D01*
X107265199Y-70200200D01*
X106815200Y-70200200D01*
X106815200Y-69900200D01*
X107265199Y-69900200D01*
X107265200Y-69900199D01*
X107265200Y-69426332D01*
X107265199Y-69426328D01*
X107236378Y-69281435D01*
X107236376Y-69281429D01*
X107179841Y-69144942D01*
X107097765Y-69022106D01*
X106993293Y-68917634D01*
X106870457Y-68835558D01*
X106733967Y-68779022D01*
X106665200Y-68765343D01*
X106665200Y-69240391D01*
X106630996Y-69220644D01*
X106554696Y-69200200D01*
X106475704Y-69200200D01*
X106399404Y-69220644D01*
X106365200Y-69240391D01*
X106365200Y-68765343D01*
X106296432Y-68779022D01*
X106159942Y-68835558D01*
X106037106Y-68917634D01*
X105932634Y-69022106D01*
X105850558Y-69144942D01*
X105794023Y-69281429D01*
X105794021Y-69281435D01*
X105765200Y-69426328D01*
X105765200Y-69900199D01*
X105765201Y-69900200D01*
X106215200Y-69900200D01*
X106215200Y-70200200D01*
X105765201Y-70200200D01*
X105765200Y-70200201D01*
X105765200Y-70329111D01*
X105746293Y-70387302D01*
X105696793Y-70423266D01*
X105635607Y-70423266D01*
X105586107Y-70387302D01*
X105576674Y-70370458D01*
X105566144Y-70352219D01*
X105505705Y-70247535D01*
X105407865Y-70149695D01*
X105288036Y-70080512D01*
X105154383Y-70044700D01*
X105016017Y-70044700D01*
X104882364Y-70080512D01*
X104762535Y-70149695D01*
X104664695Y-70247535D01*
X104595512Y-70367364D01*
X104558021Y-70507285D01*
X104555310Y-70506558D01*
X104534003Y-70551190D01*
X104480223Y-70580366D01*
X104436593Y-70578645D01*
X104359918Y-70558100D01*
X104247882Y-70558100D01*
X104181648Y-70575847D01*
X104139658Y-70587098D01*
X104042639Y-70643113D01*
X103963413Y-70722339D01*
X103907398Y-70819358D01*
X103891215Y-70879756D01*
X103878400Y-70927582D01*
X99690988Y-70927582D01*
X99725705Y-70892865D01*
X99794888Y-70773036D01*
X99830700Y-70639383D01*
X99830700Y-70501017D01*
X99794888Y-70367364D01*
X99776539Y-70335582D01*
X100519700Y-70335582D01*
X100519700Y-70447618D01*
X100535493Y-70506558D01*
X100548698Y-70555841D01*
X100599087Y-70643115D01*
X100604715Y-70652863D01*
X100683937Y-70732085D01*
X100683939Y-70732086D01*
X100780959Y-70788101D01*
X100780957Y-70788101D01*
X100780961Y-70788102D01*
X100780963Y-70788103D01*
X100889182Y-70817100D01*
X100889184Y-70817100D01*
X101001216Y-70817100D01*
X101001218Y-70817100D01*
X101109437Y-70788103D01*
X101109439Y-70788101D01*
X101109441Y-70788101D01*
X101138264Y-70771459D01*
X101206463Y-70732085D01*
X101285685Y-70652863D01*
X101335523Y-70566541D01*
X101341701Y-70555841D01*
X101341701Y-70555839D01*
X101341703Y-70555837D01*
X101370700Y-70447618D01*
X101370700Y-70346282D01*
X102519700Y-70346282D01*
X102519700Y-70458318D01*
X102532626Y-70506558D01*
X102548698Y-70566541D01*
X102604713Y-70663560D01*
X102604715Y-70663563D01*
X102683937Y-70742785D01*
X102683939Y-70742786D01*
X102780959Y-70798801D01*
X102780957Y-70798801D01*
X102780961Y-70798802D01*
X102780963Y-70798803D01*
X102889182Y-70827800D01*
X102889184Y-70827800D01*
X103001216Y-70827800D01*
X103001218Y-70827800D01*
X103109437Y-70798803D01*
X103109439Y-70798801D01*
X103109441Y-70798801D01*
X103138264Y-70782159D01*
X103206463Y-70742785D01*
X103285685Y-70663563D01*
X103333719Y-70580366D01*
X103341701Y-70566541D01*
X103341701Y-70566539D01*
X103341703Y-70566537D01*
X103370700Y-70458318D01*
X103370700Y-70346282D01*
X103341703Y-70238063D01*
X103341701Y-70238060D01*
X103341701Y-70238058D01*
X103285686Y-70141039D01*
X103285685Y-70141037D01*
X103206463Y-70061815D01*
X103206460Y-70061813D01*
X103109440Y-70005798D01*
X103109442Y-70005798D01*
X103067451Y-69994547D01*
X103001218Y-69976800D01*
X102889182Y-69976800D01*
X102822948Y-69994547D01*
X102780958Y-70005798D01*
X102683939Y-70061813D01*
X102604713Y-70141039D01*
X102548698Y-70238058D01*
X102548697Y-70238063D01*
X102519700Y-70346282D01*
X101370700Y-70346282D01*
X101370700Y-70335582D01*
X101341703Y-70227363D01*
X101341701Y-70227360D01*
X101341701Y-70227358D01*
X101285686Y-70130339D01*
X101285685Y-70130337D01*
X101206463Y-70051115D01*
X101195352Y-70044700D01*
X101109440Y-69995098D01*
X101109442Y-69995098D01*
X101067451Y-69983847D01*
X101001218Y-69966100D01*
X100889182Y-69966100D01*
X100822948Y-69983847D01*
X100780958Y-69995098D01*
X100683939Y-70051113D01*
X100604713Y-70130339D01*
X100548698Y-70227358D01*
X100548697Y-70227363D01*
X100519700Y-70335582D01*
X99776539Y-70335582D01*
X99725705Y-70247535D01*
X99627865Y-70149695D01*
X99508036Y-70080512D01*
X99374383Y-70044700D01*
X99236017Y-70044700D01*
X99102364Y-70080512D01*
X98982535Y-70149695D01*
X98884695Y-70247535D01*
X98815512Y-70367364D01*
X98815511Y-70367366D01*
X98812268Y-70372984D01*
X98811118Y-70372320D01*
X98775925Y-70413524D01*
X98716429Y-70427806D01*
X98659902Y-70404389D01*
X98627935Y-70352219D01*
X98625200Y-70329111D01*
X98625200Y-70200201D01*
X98625199Y-70200200D01*
X98175200Y-70200200D01*
X98175200Y-69900200D01*
X98625199Y-69900200D01*
X98625200Y-69900199D01*
X98625200Y-69426332D01*
X98625199Y-69426328D01*
X98596378Y-69281435D01*
X98596376Y-69281429D01*
X98539841Y-69144942D01*
X98457765Y-69022106D01*
X98353293Y-68917634D01*
X98230457Y-68835558D01*
X98093967Y-68779022D01*
X98025200Y-68765343D01*
X98025200Y-69240391D01*
X97990996Y-69220644D01*
X97914696Y-69200200D01*
X97835704Y-69200200D01*
X97759404Y-69220644D01*
X97725200Y-69240391D01*
X97725200Y-68765343D01*
X97656432Y-68779022D01*
X97519942Y-68835558D01*
X97397106Y-68917634D01*
X97292634Y-69022106D01*
X97210558Y-69144942D01*
X97154023Y-69281429D01*
X97154021Y-69281435D01*
X97125200Y-69426328D01*
X95945700Y-69426328D01*
X95945700Y-68228882D01*
X96474200Y-68228882D01*
X96474200Y-68340918D01*
X96495078Y-68418837D01*
X96503198Y-68449141D01*
X96541721Y-68515863D01*
X96559215Y-68546163D01*
X96638437Y-68625385D01*
X96638439Y-68625386D01*
X96735459Y-68681401D01*
X96735457Y-68681401D01*
X96735461Y-68681402D01*
X96735463Y-68681403D01*
X96843682Y-68710400D01*
X96843684Y-68710400D01*
X96955716Y-68710400D01*
X96955718Y-68710400D01*
X97063937Y-68681403D01*
X97063939Y-68681401D01*
X97063941Y-68681401D01*
X97116418Y-68651103D01*
X97160963Y-68625385D01*
X97240185Y-68546163D01*
X97296203Y-68449137D01*
X97325200Y-68340918D01*
X97325200Y-68228882D01*
X97296203Y-68120663D01*
X97296201Y-68120660D01*
X97296201Y-68120658D01*
X97240186Y-68023639D01*
X97240185Y-68023637D01*
X97160963Y-67944415D01*
X97160960Y-67944413D01*
X97088069Y-67902329D01*
X97088068Y-67902329D01*
X97063939Y-67888398D01*
X97063938Y-67888397D01*
X97063937Y-67888397D01*
X96955718Y-67859400D01*
X96843682Y-67859400D01*
X96777448Y-67877147D01*
X96735458Y-67888398D01*
X96638439Y-67944413D01*
X96559213Y-68023639D01*
X96503198Y-68120658D01*
X96503197Y-68120663D01*
X96474200Y-68228882D01*
X95945700Y-68228882D01*
X95945700Y-67823082D01*
X97842900Y-67823082D01*
X97842900Y-67935118D01*
X97858500Y-67993337D01*
X97871898Y-68043341D01*
X97916538Y-68120658D01*
X97927915Y-68140363D01*
X98007137Y-68219585D01*
X98007139Y-68219586D01*
X98104159Y-68275601D01*
X98104157Y-68275601D01*
X98104161Y-68275602D01*
X98104163Y-68275603D01*
X98212382Y-68304600D01*
X98212384Y-68304600D01*
X98324416Y-68304600D01*
X98324418Y-68304600D01*
X98432637Y-68275603D01*
X98432639Y-68275601D01*
X98432641Y-68275601D01*
X98461464Y-68258959D01*
X98529663Y-68219585D01*
X98550666Y-68198582D01*
X101746300Y-68198582D01*
X101746300Y-68310618D01*
X101754419Y-68340918D01*
X101775298Y-68418841D01*
X101831313Y-68515860D01*
X101831315Y-68515863D01*
X101910537Y-68595085D01*
X101910539Y-68595086D01*
X102007559Y-68651101D01*
X102007557Y-68651101D01*
X102007561Y-68651102D01*
X102007563Y-68651103D01*
X102115782Y-68680100D01*
X102115784Y-68680100D01*
X102227816Y-68680100D01*
X102227818Y-68680100D01*
X102336037Y-68651103D01*
X102336039Y-68651101D01*
X102336041Y-68651101D01*
X102380582Y-68625385D01*
X102433063Y-68595085D01*
X102512285Y-68515863D01*
X102568303Y-68418837D01*
X102597300Y-68310618D01*
X102597300Y-68198582D01*
X102568303Y-68090363D01*
X102568301Y-68090360D01*
X102568301Y-68090358D01*
X102512286Y-67993339D01*
X102512285Y-67993337D01*
X102433063Y-67914115D01*
X102433060Y-67914113D01*
X102336040Y-67858098D01*
X102336042Y-67858098D01*
X102294051Y-67846847D01*
X102227818Y-67829100D01*
X102115782Y-67829100D01*
X102049548Y-67846847D01*
X102007558Y-67858098D01*
X101910539Y-67914113D01*
X101831313Y-67993339D01*
X101775298Y-68090358D01*
X101767178Y-68120663D01*
X101746300Y-68198582D01*
X98550666Y-68198582D01*
X98608885Y-68140363D01*
X98664903Y-68043337D01*
X98693900Y-67935118D01*
X98693900Y-67930815D01*
X98712807Y-67872624D01*
X98762307Y-67836660D01*
X98823493Y-67836660D01*
X98872993Y-67872624D01*
X98878628Y-67881301D01*
X98911515Y-67938263D01*
X98990737Y-68017485D01*
X98990739Y-68017486D01*
X99087759Y-68073501D01*
X99087757Y-68073501D01*
X99087761Y-68073502D01*
X99087763Y-68073503D01*
X99195982Y-68102500D01*
X99195984Y-68102500D01*
X99308016Y-68102500D01*
X99308018Y-68102500D01*
X99416237Y-68073503D01*
X99416239Y-68073501D01*
X99416241Y-68073501D01*
X99468486Y-68043337D01*
X99513263Y-68017485D01*
X99592485Y-67938263D01*
X99648503Y-67841237D01*
X99677500Y-67733018D01*
X99677500Y-67620982D01*
X99648503Y-67512763D01*
X99648501Y-67512760D01*
X99648501Y-67512758D01*
X99592486Y-67415739D01*
X99592485Y-67415737D01*
X99513263Y-67336515D01*
X99513260Y-67336513D01*
X99416240Y-67280498D01*
X99416242Y-67280498D01*
X99374251Y-67269247D01*
X99308018Y-67251500D01*
X99195982Y-67251500D01*
X99129748Y-67269247D01*
X99087758Y-67280498D01*
X98990739Y-67336513D01*
X98911513Y-67415739D01*
X98855498Y-67512758D01*
X98848570Y-67538615D01*
X98827343Y-67617838D01*
X98826500Y-67620983D01*
X98826500Y-67625284D01*
X98807593Y-67683475D01*
X98758093Y-67719439D01*
X98696907Y-67719439D01*
X98647407Y-67683475D01*
X98641764Y-67674785D01*
X98639174Y-67670299D01*
X98608885Y-67617837D01*
X98529663Y-67538615D01*
X98529660Y-67538613D01*
X98432640Y-67482598D01*
X98432642Y-67482598D01*
X98390651Y-67471347D01*
X98324418Y-67453600D01*
X98212382Y-67453600D01*
X98146148Y-67471347D01*
X98104158Y-67482598D01*
X98007139Y-67538613D01*
X97927913Y-67617839D01*
X97871898Y-67714858D01*
X97871897Y-67714863D01*
X97842900Y-67823082D01*
X95945700Y-67823082D01*
X95945700Y-67059382D01*
X99807200Y-67059382D01*
X99807200Y-67171418D01*
X99828658Y-67251500D01*
X99836198Y-67279641D01*
X99892213Y-67376660D01*
X99892215Y-67376663D01*
X99971437Y-67455885D01*
X99971439Y-67455886D01*
X100068459Y-67511901D01*
X100068457Y-67511901D01*
X100068461Y-67511902D01*
X100068463Y-67511903D01*
X100176682Y-67540900D01*
X100176684Y-67540900D01*
X100288716Y-67540900D01*
X100288718Y-67540900D01*
X100396937Y-67511903D01*
X100396939Y-67511901D01*
X100396941Y-67511901D01*
X100425764Y-67495259D01*
X100493963Y-67455885D01*
X100573185Y-67376663D01*
X100628706Y-67280498D01*
X100629201Y-67279641D01*
X100629201Y-67279639D01*
X100629203Y-67279637D01*
X100658200Y-67171418D01*
X100658200Y-67059382D01*
X100629203Y-66951163D01*
X100629201Y-66951160D01*
X100629201Y-66951158D01*
X100573186Y-66854139D01*
X100573185Y-66854137D01*
X100493963Y-66774915D01*
X100493960Y-66774913D01*
X100396940Y-66718898D01*
X100396942Y-66718898D01*
X100354951Y-66707647D01*
X100288718Y-66689900D01*
X100176682Y-66689900D01*
X100110448Y-66707647D01*
X100068458Y-66718898D01*
X99971439Y-66774913D01*
X99892213Y-66854139D01*
X99836198Y-66951158D01*
X99836197Y-66951163D01*
X99807200Y-67059382D01*
X95945700Y-67059382D01*
X95945700Y-65163682D01*
X103769700Y-65163682D01*
X103769700Y-65275718D01*
X103795272Y-65371155D01*
X103798698Y-65383941D01*
X103854713Y-65480960D01*
X103854715Y-65480963D01*
X103933937Y-65560185D01*
X103933939Y-65560186D01*
X104030959Y-65616201D01*
X104030957Y-65616201D01*
X104030961Y-65616202D01*
X104030963Y-65616203D01*
X104139182Y-65645200D01*
X104139184Y-65645200D01*
X104251216Y-65645200D01*
X104251218Y-65645200D01*
X104359437Y-65616203D01*
X104359439Y-65616201D01*
X104359441Y-65616201D01*
X104388264Y-65599559D01*
X104456463Y-65560185D01*
X104535685Y-65480963D01*
X104591703Y-65383937D01*
X104620700Y-65275718D01*
X104620700Y-65163682D01*
X104591703Y-65055463D01*
X104591701Y-65055460D01*
X104591701Y-65055458D01*
X104535686Y-64958439D01*
X104535685Y-64958437D01*
X104456463Y-64879215D01*
X104456460Y-64879213D01*
X104359440Y-64823198D01*
X104359442Y-64823198D01*
X104317451Y-64811947D01*
X104251218Y-64794200D01*
X104139182Y-64794200D01*
X104072948Y-64811947D01*
X104030958Y-64823198D01*
X103933939Y-64879213D01*
X103854713Y-64958439D01*
X103798698Y-65055458D01*
X103798697Y-65055463D01*
X103769700Y-65163682D01*
X95945700Y-65163682D01*
X95945700Y-64680082D01*
X105269700Y-64680082D01*
X105269700Y-64792118D01*
X105270258Y-64794200D01*
X105298698Y-64900341D01*
X105332242Y-64958439D01*
X105354715Y-64997363D01*
X105433937Y-65076585D01*
X105433939Y-65076586D01*
X105530959Y-65132601D01*
X105530957Y-65132601D01*
X105530961Y-65132602D01*
X105530963Y-65132603D01*
X105639182Y-65161600D01*
X105639184Y-65161600D01*
X105751216Y-65161600D01*
X105751218Y-65161600D01*
X105859437Y-65132603D01*
X105859439Y-65132601D01*
X105859441Y-65132601D01*
X105888264Y-65115959D01*
X105956463Y-65076585D01*
X106035685Y-64997363D01*
X106091703Y-64900337D01*
X106120700Y-64792118D01*
X106120700Y-64680082D01*
X106091703Y-64571863D01*
X106091701Y-64571860D01*
X106091701Y-64571858D01*
X106035686Y-64474839D01*
X106035685Y-64474837D01*
X105956463Y-64395615D01*
X105956460Y-64395613D01*
X105859440Y-64339598D01*
X105859442Y-64339598D01*
X105817451Y-64328347D01*
X105751218Y-64310600D01*
X105639182Y-64310600D01*
X105572948Y-64328347D01*
X105530958Y-64339598D01*
X105433939Y-64395613D01*
X105354713Y-64474839D01*
X105298698Y-64571858D01*
X105298697Y-64571863D01*
X105269700Y-64680082D01*
X95945700Y-64680082D01*
X95945700Y-63579182D01*
X104760800Y-63579182D01*
X104760800Y-63691218D01*
X104786372Y-63786655D01*
X104789798Y-63799441D01*
X104845813Y-63896460D01*
X104845815Y-63896463D01*
X104925037Y-63975685D01*
X104925039Y-63975686D01*
X105022059Y-64031701D01*
X105022057Y-64031701D01*
X105022061Y-64031702D01*
X105022063Y-64031703D01*
X105130282Y-64060700D01*
X105130284Y-64060700D01*
X105242316Y-64060700D01*
X105242318Y-64060700D01*
X105350537Y-64031703D01*
X105350539Y-64031701D01*
X105350541Y-64031701D01*
X105379364Y-64015059D01*
X105447563Y-63975685D01*
X105526785Y-63896463D01*
X105582803Y-63799437D01*
X105611800Y-63691218D01*
X105611800Y-63579182D01*
X105582803Y-63470963D01*
X105582801Y-63470960D01*
X105582801Y-63470958D01*
X105526786Y-63373939D01*
X105526785Y-63373937D01*
X105447563Y-63294715D01*
X105447560Y-63294713D01*
X105350540Y-63238698D01*
X105350542Y-63238698D01*
X105308551Y-63227447D01*
X105242318Y-63209700D01*
X105130282Y-63209700D01*
X105064048Y-63227447D01*
X105022058Y-63238698D01*
X104925039Y-63294713D01*
X104845813Y-63373939D01*
X104789798Y-63470958D01*
X104789797Y-63470963D01*
X104760800Y-63579182D01*
X95945700Y-63579182D01*
X95945700Y-62116882D01*
X99721600Y-62116882D01*
X99721600Y-62228918D01*
X99745158Y-62316837D01*
X99750598Y-62337141D01*
X99806613Y-62434160D01*
X99806615Y-62434163D01*
X99885837Y-62513385D01*
X99918179Y-62532057D01*
X99982859Y-62569401D01*
X99982857Y-62569401D01*
X99982861Y-62569402D01*
X99982863Y-62569403D01*
X100091082Y-62598400D01*
X100091084Y-62598400D01*
X100203116Y-62598400D01*
X100203118Y-62598400D01*
X100311337Y-62569403D01*
X100311339Y-62569401D01*
X100311341Y-62569401D01*
X100357614Y-62542685D01*
X100408363Y-62513385D01*
X100487585Y-62434163D01*
X100543603Y-62337137D01*
X100572600Y-62228918D01*
X100572600Y-62146182D01*
X100762700Y-62146182D01*
X100762700Y-62258218D01*
X100783846Y-62337137D01*
X100791698Y-62366441D01*
X100847713Y-62463460D01*
X100847715Y-62463463D01*
X100926937Y-62542685D01*
X100926939Y-62542686D01*
X101023959Y-62598701D01*
X101023957Y-62598701D01*
X101023961Y-62598702D01*
X101023963Y-62598703D01*
X101132182Y-62627700D01*
X101132184Y-62627700D01*
X101244216Y-62627700D01*
X101244218Y-62627700D01*
X101352437Y-62598703D01*
X101352439Y-62598701D01*
X101352441Y-62598701D01*
X101403186Y-62569403D01*
X101449463Y-62542685D01*
X101470066Y-62522082D01*
X105702300Y-62522082D01*
X105702300Y-62634118D01*
X105727872Y-62729555D01*
X105731298Y-62742341D01*
X105787313Y-62839360D01*
X105787315Y-62839363D01*
X105866537Y-62918585D01*
X105866539Y-62918586D01*
X105963559Y-62974601D01*
X105963557Y-62974601D01*
X105963561Y-62974602D01*
X105963563Y-62974603D01*
X106071782Y-63003600D01*
X106071784Y-63003600D01*
X106183816Y-63003600D01*
X106183818Y-63003600D01*
X106292037Y-62974603D01*
X106292039Y-62974601D01*
X106292041Y-62974601D01*
X106320864Y-62957959D01*
X106389063Y-62918585D01*
X106468285Y-62839363D01*
X106524303Y-62742337D01*
X106553300Y-62634118D01*
X106553300Y-62522082D01*
X106524303Y-62413863D01*
X106524301Y-62413860D01*
X106524301Y-62413858D01*
X106468286Y-62316839D01*
X106468285Y-62316837D01*
X106389063Y-62237615D01*
X106389060Y-62237613D01*
X106292040Y-62181598D01*
X106292042Y-62181598D01*
X106250051Y-62170347D01*
X106183818Y-62152600D01*
X106071782Y-62152600D01*
X106005548Y-62170347D01*
X105963558Y-62181598D01*
X105866539Y-62237613D01*
X105787313Y-62316839D01*
X105731298Y-62413858D01*
X105718008Y-62463459D01*
X105702300Y-62522082D01*
X101470066Y-62522082D01*
X101528685Y-62463463D01*
X101584703Y-62366437D01*
X101613700Y-62258218D01*
X101613700Y-62146182D01*
X101584703Y-62037963D01*
X101584701Y-62037960D01*
X101584701Y-62037958D01*
X101528686Y-61940939D01*
X101528685Y-61940937D01*
X101449463Y-61861715D01*
X101449460Y-61861713D01*
X101352440Y-61805698D01*
X101352442Y-61805698D01*
X101310451Y-61794447D01*
X101244218Y-61776700D01*
X101132182Y-61776700D01*
X101065948Y-61794447D01*
X101023958Y-61805698D01*
X100926939Y-61861713D01*
X100847713Y-61940939D01*
X100791698Y-62037958D01*
X100791697Y-62037963D01*
X100762700Y-62146182D01*
X100572600Y-62146182D01*
X100572600Y-62116882D01*
X100543603Y-62008663D01*
X100543601Y-62008660D01*
X100543601Y-62008658D01*
X100487586Y-61911639D01*
X100487585Y-61911637D01*
X100408363Y-61832415D01*
X100408360Y-61832413D01*
X100311340Y-61776398D01*
X100311342Y-61776398D01*
X100269351Y-61765147D01*
X100203118Y-61747400D01*
X100091082Y-61747400D01*
X100024848Y-61765147D01*
X99982858Y-61776398D01*
X99885839Y-61832413D01*
X99806613Y-61911639D01*
X99750598Y-62008658D01*
X99750597Y-62008663D01*
X99721600Y-62116882D01*
X95945700Y-62116882D01*
X95945700Y-61146882D01*
X103762000Y-61146882D01*
X103762000Y-61258918D01*
X103787572Y-61354355D01*
X103790998Y-61367141D01*
X103847013Y-61464160D01*
X103847015Y-61464163D01*
X103926237Y-61543385D01*
X103926239Y-61543386D01*
X104023259Y-61599401D01*
X104023257Y-61599401D01*
X104023261Y-61599402D01*
X104023263Y-61599403D01*
X104131482Y-61628400D01*
X104131484Y-61628400D01*
X104243516Y-61628400D01*
X104243518Y-61628400D01*
X104351737Y-61599403D01*
X104351739Y-61599401D01*
X104351741Y-61599401D01*
X104380564Y-61582759D01*
X104448763Y-61543385D01*
X104527985Y-61464163D01*
X104584003Y-61367137D01*
X104613000Y-61258918D01*
X104613000Y-61146882D01*
X104584003Y-61038663D01*
X104584001Y-61038660D01*
X104584001Y-61038658D01*
X104527986Y-60941639D01*
X104527985Y-60941637D01*
X104448763Y-60862415D01*
X104448760Y-60862413D01*
X104351740Y-60806398D01*
X104351742Y-60806398D01*
X104309751Y-60795147D01*
X104243518Y-60777400D01*
X104131482Y-60777400D01*
X104065248Y-60795147D01*
X104023258Y-60806398D01*
X103926239Y-60862413D01*
X103847013Y-60941639D01*
X103790998Y-61038658D01*
X103790997Y-61038663D01*
X103762000Y-61146882D01*
X95945700Y-61146882D01*
X95945700Y-58669682D01*
X96757400Y-58669682D01*
X96757400Y-58781718D01*
X96773343Y-58841218D01*
X96786398Y-58889941D01*
X96842413Y-58986960D01*
X96842415Y-58986963D01*
X96921637Y-59066185D01*
X96921639Y-59066186D01*
X97018659Y-59122201D01*
X97018657Y-59122201D01*
X97018661Y-59122202D01*
X97018663Y-59122203D01*
X97126882Y-59151200D01*
X97126884Y-59151200D01*
X97238916Y-59151200D01*
X97238918Y-59151200D01*
X97347137Y-59122203D01*
X97347139Y-59122201D01*
X97347141Y-59122201D01*
X97375964Y-59105559D01*
X97444163Y-59066185D01*
X97523385Y-58986963D01*
X97579403Y-58889937D01*
X97608400Y-58781718D01*
X97608400Y-58669682D01*
X97579403Y-58561463D01*
X97579401Y-58561460D01*
X97579401Y-58561458D01*
X97523386Y-58464439D01*
X97523385Y-58464437D01*
X97444163Y-58385215D01*
X97444160Y-58385213D01*
X97347140Y-58329198D01*
X97347142Y-58329198D01*
X97285942Y-58312800D01*
X97238918Y-58300200D01*
X97126882Y-58300200D01*
X97079858Y-58312800D01*
X97018658Y-58329198D01*
X96921639Y-58385213D01*
X96842413Y-58464439D01*
X96786398Y-58561458D01*
X96786397Y-58561463D01*
X96757400Y-58669682D01*
X95945700Y-58669682D01*
X95945700Y-57831282D01*
X98069700Y-57831282D01*
X98069700Y-57943318D01*
X98088708Y-58014257D01*
X98098698Y-58051541D01*
X98154713Y-58148560D01*
X98154715Y-58148563D01*
X98233937Y-58227785D01*
X98233939Y-58227786D01*
X98330959Y-58283801D01*
X98330957Y-58283801D01*
X98330961Y-58283802D01*
X98330963Y-58283803D01*
X98439182Y-58312800D01*
X98439184Y-58312800D01*
X98551216Y-58312800D01*
X98551218Y-58312800D01*
X98659437Y-58283803D01*
X98659439Y-58283801D01*
X98659441Y-58283801D01*
X98669000Y-58278282D01*
X99028100Y-58278282D01*
X99028100Y-58390318D01*
X99037647Y-58425947D01*
X99057098Y-58498541D01*
X99093424Y-58561458D01*
X99113115Y-58595563D01*
X99192337Y-58674785D01*
X99192339Y-58674786D01*
X99289359Y-58730801D01*
X99289357Y-58730801D01*
X99289361Y-58730802D01*
X99289363Y-58730803D01*
X99397582Y-58759800D01*
X99397584Y-58759800D01*
X99509616Y-58759800D01*
X99509618Y-58759800D01*
X99617837Y-58730803D01*
X99617839Y-58730801D01*
X99617841Y-58730801D01*
X99620645Y-58729182D01*
X106619700Y-58729182D01*
X106619700Y-58841218D01*
X106632754Y-58889937D01*
X106648698Y-58949441D01*
X106704713Y-59046460D01*
X106704715Y-59046463D01*
X106783937Y-59125685D01*
X106783939Y-59125686D01*
X106880959Y-59181701D01*
X106880957Y-59181701D01*
X106880961Y-59181702D01*
X106880963Y-59181703D01*
X106989182Y-59210700D01*
X106989184Y-59210700D01*
X107101216Y-59210700D01*
X107101218Y-59210700D01*
X107209437Y-59181703D01*
X107209439Y-59181701D01*
X107209441Y-59181701D01*
X107238264Y-59165059D01*
X107306463Y-59125685D01*
X107385685Y-59046463D01*
X107441703Y-58949437D01*
X107470700Y-58841218D01*
X107470700Y-58729182D01*
X107441703Y-58620963D01*
X107441701Y-58620960D01*
X107441701Y-58620958D01*
X107385686Y-58523939D01*
X107385685Y-58523937D01*
X107306463Y-58444715D01*
X107306460Y-58444713D01*
X107209440Y-58388698D01*
X107209442Y-58388698D01*
X107167451Y-58377447D01*
X107101218Y-58359700D01*
X106989182Y-58359700D01*
X106922948Y-58377447D01*
X106880958Y-58388698D01*
X106783939Y-58444713D01*
X106704713Y-58523939D01*
X106648698Y-58620958D01*
X106634275Y-58674786D01*
X106619700Y-58729182D01*
X99620645Y-58729182D01*
X99646664Y-58714159D01*
X99714863Y-58674785D01*
X99794085Y-58595563D01*
X99850103Y-58498537D01*
X99879100Y-58390318D01*
X99879100Y-58278282D01*
X99850103Y-58170063D01*
X99850101Y-58170060D01*
X99850101Y-58170058D01*
X99794086Y-58073039D01*
X99794085Y-58073037D01*
X99714863Y-57993815D01*
X99714860Y-57993813D01*
X99617840Y-57937798D01*
X99617837Y-57937797D01*
X99509618Y-57908800D01*
X99397582Y-57908800D01*
X99331348Y-57926547D01*
X99289358Y-57937798D01*
X99192339Y-57993813D01*
X99113113Y-58073039D01*
X99057098Y-58170058D01*
X99057097Y-58170063D01*
X99028100Y-58278282D01*
X98669000Y-58278282D01*
X98688264Y-58267159D01*
X98756463Y-58227785D01*
X98835685Y-58148563D01*
X98891703Y-58051537D01*
X98920700Y-57943318D01*
X98920700Y-57856143D01*
X105544700Y-57856143D01*
X105544700Y-58014257D01*
X105585623Y-58166984D01*
X105664680Y-58303916D01*
X105776484Y-58415720D01*
X105913416Y-58494777D01*
X106066143Y-58535700D01*
X106066145Y-58535700D01*
X106224255Y-58535700D01*
X106224257Y-58535700D01*
X106376984Y-58494777D01*
X106513916Y-58415720D01*
X106625720Y-58303916D01*
X106704777Y-58166984D01*
X106745700Y-58014257D01*
X106745700Y-57856143D01*
X106704777Y-57703416D01*
X106625720Y-57566484D01*
X106513916Y-57454680D01*
X106376984Y-57375623D01*
X106224257Y-57334700D01*
X106066143Y-57334700D01*
X105913416Y-57375623D01*
X105776484Y-57454680D01*
X105664680Y-57566484D01*
X105585623Y-57703416D01*
X105544700Y-57856143D01*
X98920700Y-57856143D01*
X98920700Y-57831282D01*
X98891703Y-57723063D01*
X98891701Y-57723060D01*
X98891701Y-57723058D01*
X98835686Y-57626039D01*
X98835685Y-57626037D01*
X98756463Y-57546815D01*
X98756460Y-57546813D01*
X98659440Y-57490798D01*
X98659442Y-57490798D01*
X98617451Y-57479547D01*
X98551218Y-57461800D01*
X98439182Y-57461800D01*
X98372948Y-57479547D01*
X98330958Y-57490798D01*
X98233939Y-57546813D01*
X98154713Y-57626039D01*
X98098698Y-57723058D01*
X98098697Y-57723063D01*
X98069700Y-57831282D01*
X95945700Y-57831282D01*
X95945700Y-56801682D01*
X100704700Y-56801682D01*
X100704700Y-56913718D01*
X100730272Y-57009155D01*
X100733698Y-57021941D01*
X100789713Y-57118960D01*
X100789715Y-57118963D01*
X100868937Y-57198185D01*
X100868939Y-57198186D01*
X100965959Y-57254201D01*
X100965957Y-57254201D01*
X100965961Y-57254202D01*
X100965963Y-57254203D01*
X101074182Y-57283200D01*
X101074184Y-57283200D01*
X101186216Y-57283200D01*
X101186218Y-57283200D01*
X101294437Y-57254203D01*
X101294439Y-57254201D01*
X101294441Y-57254201D01*
X101323264Y-57237559D01*
X101391463Y-57198185D01*
X101470685Y-57118963D01*
X101526703Y-57021937D01*
X101555700Y-56913718D01*
X101555700Y-56801682D01*
X101526703Y-56693463D01*
X101526701Y-56693460D01*
X101526701Y-56693458D01*
X101470686Y-56596439D01*
X101470685Y-56596437D01*
X101391463Y-56517215D01*
X101391460Y-56517213D01*
X101337448Y-56486029D01*
X101337447Y-56486029D01*
X101294439Y-56461198D01*
X101294438Y-56461197D01*
X101294437Y-56461197D01*
X101186218Y-56432200D01*
X101074182Y-56432200D01*
X101007948Y-56449947D01*
X100965958Y-56461198D01*
X100868939Y-56517213D01*
X100789713Y-56596439D01*
X100733698Y-56693458D01*
X100725498Y-56724063D01*
X100704700Y-56801682D01*
X95945700Y-56801682D01*
X95945700Y-56406782D01*
X103566600Y-56406782D01*
X103566600Y-56518818D01*
X103587398Y-56596437D01*
X103595598Y-56627041D01*
X103651613Y-56724060D01*
X103651615Y-56724063D01*
X103730837Y-56803285D01*
X103730839Y-56803286D01*
X103827859Y-56859301D01*
X103827857Y-56859301D01*
X103827861Y-56859302D01*
X103827863Y-56859303D01*
X103936082Y-56888300D01*
X103936084Y-56888300D01*
X104048116Y-56888300D01*
X104048118Y-56888300D01*
X104156337Y-56859303D01*
X104156339Y-56859301D01*
X104156341Y-56859301D01*
X104185164Y-56842659D01*
X104253363Y-56803285D01*
X104332585Y-56724063D01*
X104388603Y-56627037D01*
X104417600Y-56518818D01*
X104417600Y-56406782D01*
X104388603Y-56298563D01*
X104388601Y-56298560D01*
X104388601Y-56298558D01*
X104332585Y-56201537D01*
X104296596Y-56165547D01*
X104268819Y-56111030D01*
X104267600Y-56095544D01*
X104267600Y-55060123D01*
X104286507Y-55001932D01*
X104296596Y-54990119D01*
X104666733Y-54619982D01*
X105836400Y-54619982D01*
X105836400Y-54732018D01*
X105860477Y-54821875D01*
X105865398Y-54840241D01*
X105920707Y-54936037D01*
X105921415Y-54937263D01*
X106000637Y-55016485D01*
X106029342Y-55033058D01*
X106097659Y-55072501D01*
X106097657Y-55072501D01*
X106097661Y-55072502D01*
X106097663Y-55072503D01*
X106205882Y-55101500D01*
X106205884Y-55101500D01*
X106317916Y-55101500D01*
X106317918Y-55101500D01*
X106426137Y-55072503D01*
X106426139Y-55072501D01*
X106426141Y-55072501D01*
X106467391Y-55048685D01*
X106523163Y-55016485D01*
X106602385Y-54937263D01*
X106658403Y-54840237D01*
X106687400Y-54732018D01*
X106687400Y-54703015D01*
X106706307Y-54644824D01*
X106755807Y-54608860D01*
X106760743Y-54607397D01*
X106862237Y-54580203D01*
X106862240Y-54580201D01*
X106862241Y-54580201D01*
X106891064Y-54563559D01*
X106959263Y-54524185D01*
X107038485Y-54444963D01*
X107094503Y-54347937D01*
X107123500Y-54239718D01*
X107123500Y-54127682D01*
X107094503Y-54019463D01*
X107094501Y-54019460D01*
X107094501Y-54019458D01*
X107038486Y-53922439D01*
X107038485Y-53922437D01*
X106959263Y-53843215D01*
X106941406Y-53832905D01*
X106862240Y-53787198D01*
X106862242Y-53787198D01*
X106804651Y-53771767D01*
X106754018Y-53758200D01*
X106641982Y-53758200D01*
X106591349Y-53771767D01*
X106533758Y-53787198D01*
X106436739Y-53843213D01*
X106357513Y-53922439D01*
X106301498Y-54019458D01*
X106272500Y-54127683D01*
X106272500Y-54156684D01*
X106253593Y-54214875D01*
X106204093Y-54250839D01*
X106199123Y-54252311D01*
X106097658Y-54279498D01*
X106000639Y-54335513D01*
X105921413Y-54414739D01*
X105865398Y-54511758D01*
X105862068Y-54524186D01*
X105836400Y-54619982D01*
X104666733Y-54619982D01*
X104743226Y-54543489D01*
X104842878Y-54443837D01*
X105428757Y-53857959D01*
X105441041Y-53828300D01*
X105454085Y-53796809D01*
X105493824Y-53750286D01*
X105545547Y-53735700D01*
X105714947Y-53735700D01*
X105714948Y-53735700D01*
X105773431Y-53724067D01*
X105839752Y-53679752D01*
X105884067Y-53613431D01*
X105895700Y-53554948D01*
X105895700Y-52552107D01*
X105914607Y-52493916D01*
X105964107Y-52457952D01*
X106025293Y-52457952D01*
X106074793Y-52493916D01*
X106080432Y-52502601D01*
X106086415Y-52512963D01*
X106165637Y-52592185D01*
X106165639Y-52592186D01*
X106262659Y-52648201D01*
X106262657Y-52648201D01*
X106262661Y-52648202D01*
X106262663Y-52648203D01*
X106370882Y-52677200D01*
X106370884Y-52677200D01*
X106482916Y-52677200D01*
X106482918Y-52677200D01*
X106591137Y-52648203D01*
X106591139Y-52648201D01*
X106591141Y-52648201D01*
X106619964Y-52631559D01*
X106688163Y-52592185D01*
X106767385Y-52512963D01*
X106823403Y-52415937D01*
X106852400Y-52307718D01*
X106852400Y-52195682D01*
X106823403Y-52087463D01*
X106823401Y-52087460D01*
X106823401Y-52087458D01*
X106767386Y-51990439D01*
X106767385Y-51990437D01*
X106688163Y-51911215D01*
X106688160Y-51911213D01*
X106591140Y-51855198D01*
X106591142Y-51855198D01*
X106549151Y-51843947D01*
X106482918Y-51826200D01*
X106370882Y-51826200D01*
X106304648Y-51843947D01*
X106262658Y-51855198D01*
X106165639Y-51911213D01*
X106086413Y-51990439D01*
X106030398Y-52087458D01*
X106001400Y-52195683D01*
X106001400Y-52313441D01*
X105982493Y-52371632D01*
X105932993Y-52407596D01*
X105871807Y-52407596D01*
X105847399Y-52395757D01*
X105773432Y-52346334D01*
X105773433Y-52346334D01*
X105773431Y-52346333D01*
X105773428Y-52346332D01*
X105773427Y-52346332D01*
X105714958Y-52334701D01*
X105714948Y-52334700D01*
X104675452Y-52334700D01*
X104675451Y-52334700D01*
X104675441Y-52334701D01*
X104616972Y-52346332D01*
X104616966Y-52346334D01*
X104550651Y-52390645D01*
X104550645Y-52390651D01*
X104506334Y-52456966D01*
X104506332Y-52456972D01*
X104494701Y-52515441D01*
X104494700Y-52515453D01*
X104494700Y-53554946D01*
X104494701Y-53554958D01*
X104506332Y-53613427D01*
X104506334Y-53613433D01*
X104519239Y-53632746D01*
X104550648Y-53679752D01*
X104550651Y-53679754D01*
X104616445Y-53723717D01*
X104654324Y-53771767D01*
X104656726Y-53832905D01*
X104631447Y-53876035D01*
X103836042Y-54671442D01*
X103758546Y-54748938D01*
X103758544Y-54748940D01*
X103758543Y-54748942D01*
X103742494Y-54787687D01*
X103716600Y-54850200D01*
X103716600Y-56095544D01*
X103697693Y-56153735D01*
X103687604Y-56165547D01*
X103651614Y-56201537D01*
X103595598Y-56298558D01*
X103595597Y-56298563D01*
X103566600Y-56406782D01*
X95945700Y-56406782D01*
X95945700Y-52577082D01*
X97545600Y-52577082D01*
X97545600Y-52689118D01*
X97571172Y-52784555D01*
X97574598Y-52797341D01*
X97630613Y-52894360D01*
X97630615Y-52894363D01*
X97709837Y-52973585D01*
X97709839Y-52973586D01*
X97806859Y-53029601D01*
X97806857Y-53029601D01*
X97806861Y-53029602D01*
X97806863Y-53029603D01*
X97915082Y-53058600D01*
X97965976Y-53058600D01*
X98024167Y-53077507D01*
X98035979Y-53087596D01*
X98133584Y-53185200D01*
X98217141Y-53268757D01*
X98246799Y-53281041D01*
X98318400Y-53310700D01*
X98405464Y-53310700D01*
X98415035Y-53312606D01*
X98433625Y-53323022D01*
X98453891Y-53329607D01*
X98459736Y-53337653D01*
X98468412Y-53342514D01*
X98477327Y-53361864D01*
X98489855Y-53379107D01*
X98492255Y-53394263D01*
X98494016Y-53398085D01*
X98493372Y-53401317D01*
X98494700Y-53409700D01*
X98494700Y-53554946D01*
X98494701Y-53554958D01*
X98506332Y-53613427D01*
X98506334Y-53613433D01*
X98519239Y-53632746D01*
X98550648Y-53679752D01*
X98550651Y-53679754D01*
X98604053Y-53715437D01*
X98616969Y-53724067D01*
X98661431Y-53732911D01*
X98675441Y-53735698D01*
X98675446Y-53735698D01*
X98675452Y-53735700D01*
X99199377Y-53735700D01*
X99257568Y-53754607D01*
X99293532Y-53804107D01*
X99293532Y-53865293D01*
X99269381Y-53904704D01*
X98773481Y-54400604D01*
X98718964Y-54428381D01*
X98703477Y-54429600D01*
X98459856Y-54429600D01*
X98401665Y-54410693D01*
X98389853Y-54400604D01*
X98353862Y-54364614D01*
X98256840Y-54308598D01*
X98256842Y-54308598D01*
X98214851Y-54297347D01*
X98148618Y-54279600D01*
X98036582Y-54279600D01*
X97970348Y-54297347D01*
X97928358Y-54308598D01*
X97831339Y-54364613D01*
X97752113Y-54443839D01*
X97696098Y-54540858D01*
X97685556Y-54580201D01*
X97667100Y-54649082D01*
X97667100Y-54761118D01*
X97683380Y-54821875D01*
X97696098Y-54869341D01*
X97749605Y-54962016D01*
X97752115Y-54966363D01*
X97831337Y-55045585D01*
X97856518Y-55060123D01*
X97928359Y-55101601D01*
X97928357Y-55101601D01*
X97928361Y-55101602D01*
X97928363Y-55101603D01*
X98036582Y-55130600D01*
X98036584Y-55130600D01*
X98148616Y-55130600D01*
X98148618Y-55130600D01*
X98256837Y-55101603D01*
X98256839Y-55101601D01*
X98256841Y-55101601D01*
X98290693Y-55082056D01*
X98353863Y-55045585D01*
X98380333Y-55019115D01*
X98389853Y-55009596D01*
X98444370Y-54981819D01*
X98459856Y-54980600D01*
X98913399Y-54980600D01*
X98913400Y-54980600D01*
X99014658Y-54938657D01*
X99092157Y-54861158D01*
X99092156Y-54861158D01*
X99175818Y-54777496D01*
X99230334Y-54749718D01*
X99290767Y-54759289D01*
X99334031Y-54802553D01*
X99341448Y-54821875D01*
X99354996Y-54872436D01*
X99354998Y-54872440D01*
X99409223Y-54966360D01*
X99411015Y-54969463D01*
X99490237Y-55048685D01*
X99580401Y-55100741D01*
X99621341Y-55146209D01*
X99629900Y-55186476D01*
X99629900Y-55253318D01*
X99643079Y-55302503D01*
X99658898Y-55361541D01*
X99714913Y-55458560D01*
X99714915Y-55458563D01*
X99794137Y-55537785D01*
X99794139Y-55537786D01*
X99891159Y-55593801D01*
X99891157Y-55593801D01*
X99891161Y-55593802D01*
X99891163Y-55593803D01*
X99999382Y-55622800D01*
X99999384Y-55622800D01*
X100111416Y-55622800D01*
X100111418Y-55622800D01*
X100219637Y-55593803D01*
X100219639Y-55593801D01*
X100219641Y-55593801D01*
X100248464Y-55577159D01*
X100316663Y-55537785D01*
X100395885Y-55458563D01*
X100451903Y-55361537D01*
X100480900Y-55253318D01*
X100480900Y-55141282D01*
X100451903Y-55033063D01*
X100451901Y-55033060D01*
X100451901Y-55033058D01*
X100395886Y-54936039D01*
X100395885Y-54936037D01*
X100316663Y-54856815D01*
X100304828Y-54849982D01*
X102375200Y-54849982D01*
X102375200Y-54962018D01*
X102389795Y-55016486D01*
X102404198Y-55070241D01*
X102445215Y-55141283D01*
X102460215Y-55167263D01*
X102539437Y-55246485D01*
X102539439Y-55246486D01*
X102636459Y-55302501D01*
X102636457Y-55302501D01*
X102636461Y-55302502D01*
X102636463Y-55302503D01*
X102744682Y-55331500D01*
X102744684Y-55331500D01*
X102856716Y-55331500D01*
X102856718Y-55331500D01*
X102964937Y-55302503D01*
X102964939Y-55302501D01*
X102964941Y-55302501D01*
X102993764Y-55285859D01*
X103061963Y-55246485D01*
X103141185Y-55167263D01*
X103197203Y-55070237D01*
X103226200Y-54962018D01*
X103226200Y-54849982D01*
X103197203Y-54741763D01*
X103197201Y-54741760D01*
X103197201Y-54741758D01*
X103143694Y-54649083D01*
X103141185Y-54644737D01*
X103061963Y-54565515D01*
X103061960Y-54565513D01*
X102964940Y-54509498D01*
X102964942Y-54509498D01*
X102922951Y-54498247D01*
X102856718Y-54480500D01*
X102744682Y-54480500D01*
X102678448Y-54498247D01*
X102636458Y-54509498D01*
X102539439Y-54565513D01*
X102460213Y-54644739D01*
X102404198Y-54741758D01*
X102404197Y-54741763D01*
X102375200Y-54849982D01*
X100304828Y-54849982D01*
X100287949Y-54840237D01*
X100226499Y-54804758D01*
X100185559Y-54759288D01*
X100177000Y-54719022D01*
X100177000Y-54652183D01*
X100177000Y-54652182D01*
X100148003Y-54543963D01*
X100148001Y-54543960D01*
X100148001Y-54543958D01*
X100091986Y-54446939D01*
X100091985Y-54446937D01*
X100012763Y-54367715D01*
X100007392Y-54364614D01*
X99915740Y-54311698D01*
X99915736Y-54311696D01*
X99865175Y-54298148D01*
X99813861Y-54264824D01*
X99791935Y-54207702D01*
X99807771Y-54148602D01*
X99820789Y-54132524D01*
X100354364Y-53598950D01*
X100408880Y-53571174D01*
X100469312Y-53580745D01*
X100506681Y-53613952D01*
X100550648Y-53679752D01*
X100550651Y-53679754D01*
X100604053Y-53715437D01*
X100616969Y-53724067D01*
X100661431Y-53732911D01*
X100675441Y-53735698D01*
X100675446Y-53735698D01*
X100675452Y-53735700D01*
X100675453Y-53735700D01*
X101714947Y-53735700D01*
X101714948Y-53735700D01*
X101773431Y-53724067D01*
X101839752Y-53679752D01*
X101884067Y-53613431D01*
X101895700Y-53554948D01*
X101895700Y-53185201D01*
X102445200Y-53185201D01*
X102445200Y-53559824D01*
X102459706Y-53632746D01*
X102459707Y-53632748D01*
X102514958Y-53715437D01*
X102514962Y-53715441D01*
X102597651Y-53770692D01*
X102597653Y-53770693D01*
X102670575Y-53785199D01*
X102670577Y-53785200D01*
X103045199Y-53785200D01*
X103045200Y-53785199D01*
X103045200Y-53185201D01*
X103345200Y-53185201D01*
X103345200Y-53785199D01*
X103345201Y-53785200D01*
X103719823Y-53785200D01*
X103719824Y-53785199D01*
X103792746Y-53770693D01*
X103792748Y-53770692D01*
X103875437Y-53715441D01*
X103875441Y-53715437D01*
X103930692Y-53632748D01*
X103930693Y-53632746D01*
X103945199Y-53559824D01*
X103945200Y-53559822D01*
X103945200Y-53185201D01*
X103945199Y-53185200D01*
X103345201Y-53185200D01*
X103345200Y-53185201D01*
X103045200Y-53185201D01*
X103045199Y-53185200D01*
X102445201Y-53185200D01*
X102445200Y-53185201D01*
X101895700Y-53185201D01*
X101895700Y-52515452D01*
X101895700Y-52515451D01*
X101895699Y-52515443D01*
X101894731Y-52510575D01*
X102445200Y-52510575D01*
X102445200Y-52885199D01*
X102445201Y-52885200D01*
X103045199Y-52885200D01*
X103045200Y-52885199D01*
X103045200Y-52285201D01*
X103345200Y-52285201D01*
X103345200Y-52885199D01*
X103345201Y-52885200D01*
X103945199Y-52885200D01*
X103945200Y-52885199D01*
X103945200Y-52510577D01*
X103945199Y-52510575D01*
X103930693Y-52437653D01*
X103930692Y-52437651D01*
X103875441Y-52354962D01*
X103875437Y-52354958D01*
X103792748Y-52299707D01*
X103792746Y-52299706D01*
X103719824Y-52285200D01*
X103345201Y-52285200D01*
X103345200Y-52285201D01*
X103045200Y-52285201D01*
X103045199Y-52285200D01*
X102670575Y-52285200D01*
X102597653Y-52299706D01*
X102597651Y-52299707D01*
X102514962Y-52354958D01*
X102514958Y-52354962D01*
X102459707Y-52437651D01*
X102459706Y-52437653D01*
X102445200Y-52510575D01*
X101894731Y-52510575D01*
X101886432Y-52468858D01*
X101884067Y-52456969D01*
X101839752Y-52390648D01*
X101811600Y-52371837D01*
X101773433Y-52346334D01*
X101773431Y-52346333D01*
X101773428Y-52346332D01*
X101773427Y-52346332D01*
X101714958Y-52334701D01*
X101714948Y-52334700D01*
X100675452Y-52334700D01*
X100675451Y-52334700D01*
X100675441Y-52334701D01*
X100616972Y-52346332D01*
X100616966Y-52346334D01*
X100550651Y-52390645D01*
X100550645Y-52390651D01*
X100506334Y-52456966D01*
X100506332Y-52456972D01*
X100494701Y-52515441D01*
X100494700Y-52515453D01*
X100494700Y-52684852D01*
X100486390Y-52710427D01*
X100480112Y-52736579D01*
X100477041Y-52739201D01*
X100475793Y-52743043D01*
X100433586Y-52776316D01*
X100402583Y-52789158D01*
X100402581Y-52789158D01*
X100372441Y-52801642D01*
X100064703Y-53109380D01*
X100010187Y-53137157D01*
X99949755Y-53127586D01*
X99906490Y-53084321D01*
X99895700Y-53039376D01*
X99895700Y-52515453D01*
X99895698Y-52515441D01*
X99888523Y-52479371D01*
X99884067Y-52456969D01*
X99839752Y-52390648D01*
X99811600Y-52371837D01*
X99773433Y-52346334D01*
X99773431Y-52346333D01*
X99773428Y-52346332D01*
X99773427Y-52346332D01*
X99714958Y-52334701D01*
X99714948Y-52334700D01*
X98675452Y-52334700D01*
X98675451Y-52334700D01*
X98675441Y-52334701D01*
X98616972Y-52346332D01*
X98616966Y-52346334D01*
X98550651Y-52390645D01*
X98550644Y-52390652D01*
X98516673Y-52441492D01*
X98468623Y-52479371D01*
X98407484Y-52481771D01*
X98356611Y-52447778D01*
X98348629Y-52436000D01*
X98311585Y-52371837D01*
X98232363Y-52292615D01*
X98219520Y-52285200D01*
X98135340Y-52236598D01*
X98135342Y-52236598D01*
X98093351Y-52225347D01*
X98027118Y-52207600D01*
X97915082Y-52207600D01*
X97848848Y-52225347D01*
X97806858Y-52236598D01*
X97709839Y-52292613D01*
X97630613Y-52371839D01*
X97574598Y-52468858D01*
X97562116Y-52515443D01*
X97545600Y-52577082D01*
X95945700Y-52577082D01*
X95945700Y-49784200D01*
X95964607Y-49726009D01*
X96014107Y-49690045D01*
X96044700Y-49685200D01*
X101460802Y-49685200D01*
X101518993Y-49704107D01*
G37*
%TD.AperFunction*%
%TD*%
M02*
