solid OpenSCAD_Model
  facet normal 0 0 -1
    outer loop
      vertex 31.35 -12.15 7.62939e-07
      vertex 32.95 -13.5 7.62939e-07
      vertex 32.929 -13.8198 7.62939e-07
    endloop
  endfacet
  facet normal 0 0 -1
    outer loop
      vertex 32.95 -13.5 7.62939e-07
      vertex 31.35 -12.15 7.62939e-07
      vertex 32.95 13.5 7.62939e-07
    endloop
  endfacet
  facet normal 0 0 -1
    outer loop
      vertex 31.35 -12.15 7.62939e-07
      vertex 32.929 -13.8198 7.62939e-07
      vertex 32.8665 -14.1341 7.62939e-07
    endloop
  endfacet
  facet normal 0 0 -1
    outer loop
      vertex 31.35 12.15 7.62939e-07
      vertex 32.95 13.5 7.62939e-07
      vertex 31.35 -12.15 7.62939e-07
    endloop
  endfacet
  facet normal 0 0 -1
    outer loop
      vertex 31.35 -12.15 7.62939e-07
      vertex 32.8665 -14.1341 7.62939e-07
      vertex 32.7635 -14.4376 7.62939e-07
    endloop
  endfacet
  facet normal -0 0 -1
    outer loop
      vertex 32.95 13.5 7.62939e-07
      vertex 31.35 12.15 7.62939e-07
      vertex 32.929 13.8198 7.62939e-07
    endloop
  endfacet
  facet normal 0 0 -1
    outer loop
      vertex 31.35 -12.15 7.62939e-07
      vertex 32.7635 -14.4376 7.62939e-07
      vertex 32.6218 -14.725 7.62939e-07
    endloop
  endfacet
  facet normal -0 0 -1
    outer loop
      vertex 32.929 13.8198 7.62939e-07
      vertex 31.35 12.15 7.62939e-07
      vertex 32.8665 14.1341 7.62939e-07
    endloop
  endfacet
  facet normal 0 0 -1
    outer loop
      vertex 31.35 -12.15 7.62939e-07
      vertex 32.6218 -14.725 7.62939e-07
      vertex 32.4437 -14.9915 7.62939e-07
    endloop
  endfacet
  facet normal -0 0 -1
    outer loop
      vertex 32.8665 14.1341 7.62939e-07
      vertex 31.35 12.15 7.62939e-07
      vertex 32.7635 14.4376 7.62939e-07
    endloop
  endfacet
  facet normal 0 0 -1
    outer loop
      vertex 31.35 -12.15 7.62939e-07
      vertex 32.4437 -14.9915 7.62939e-07
      vertex 32.2324 -15.2324 7.62939e-07
    endloop
  endfacet
  facet normal -0 0 -1
    outer loop
      vertex 32.7635 14.4376 7.62939e-07
      vertex 31.35 12.15 7.62939e-07
      vertex 32.6218 14.725 7.62939e-07
    endloop
  endfacet
  facet normal 0 0 -1
    outer loop
      vertex 31.35 -12.15 7.62939e-07
      vertex 32.2324 -15.2324 7.62939e-07
      vertex 31.9915 -15.4437 7.62939e-07
    endloop
  endfacet
  facet normal -0 0 -1
    outer loop
      vertex 32.6218 14.725 7.62939e-07
      vertex 31.35 12.15 7.62939e-07
      vertex 32.4437 14.9915 7.62939e-07
    endloop
  endfacet
  facet normal 0 0 -1
    outer loop
      vertex 31.35 -12.15 7.62939e-07
      vertex 31.9915 -15.4437 7.62939e-07
      vertex 31.725 -15.6218 7.62939e-07
    endloop
  endfacet
  facet normal -0 0 -1
    outer loop
      vertex 32.4437 14.9915 7.62939e-07
      vertex 31.35 12.15 7.62939e-07
      vertex 32.2324 15.2324 7.62939e-07
    endloop
  endfacet
  facet normal 0 0 -1
    outer loop
      vertex 31.35 -12.15 7.62939e-07
      vertex 31.725 -15.6218 7.62939e-07
      vertex 31.4376 -15.7635 7.62939e-07
    endloop
  endfacet
  facet normal -0 0 -1
    outer loop
      vertex 32.2324 15.2324 7.62939e-07
      vertex 31.35 12.15 7.62939e-07
      vertex 31.9915 15.4437 7.62939e-07
    endloop
  endfacet
  facet normal -0 0 -1
    outer loop
      vertex 31.9915 15.4437 7.62939e-07
      vertex 31.35 12.15 7.62939e-07
      vertex 31.725 15.6218 7.62939e-07
    endloop
  endfacet
  facet normal 0 0 -1
    outer loop
      vertex 31.1341 -15.8665 7.62939e-07
      vertex 31.35 -12.15 7.62939e-07
      vertex 31.4376 -15.7635 7.62939e-07
    endloop
  endfacet
  facet normal 0 0 -1
    outer loop
      vertex 30.8198 -15.929 7.62939e-07
      vertex 31.35 -12.15 7.62939e-07
      vertex 31.1341 -15.8665 7.62939e-07
    endloop
  endfacet
  facet normal 0 0 -1
    outer loop
      vertex 30.5 -15.95 7.62939e-07
      vertex 31.35 -12.15 7.62939e-07
      vertex 30.8198 -15.929 7.62939e-07
    endloop
  endfacet
  facet normal 0 0 -1
    outer loop
      vertex -30.5 -15.95 7.62939e-07
      vertex 31.35 -12.15 7.62939e-07
      vertex 30.5 -15.95 7.62939e-07
    endloop
  endfacet
  facet normal 0 0 -1
    outer loop
      vertex -32.95 -13.5 7.62939e-07
      vertex -30.5 -15.95 7.62939e-07
      vertex -30.8198 -15.929 7.62939e-07
    endloop
  endfacet
  facet normal 0 0 -1
    outer loop
      vertex -32.95 -13.5 7.62939e-07
      vertex -30.8198 -15.929 7.62939e-07
      vertex -31.1341 -15.8665 7.62939e-07
    endloop
  endfacet
  facet normal 0 0 -1
    outer loop
      vertex -32.95 -13.5 7.62939e-07
      vertex -31.1341 -15.8665 7.62939e-07
      vertex -31.4376 -15.7635 7.62939e-07
    endloop
  endfacet
  facet normal 0 0 -1
    outer loop
      vertex -32.95 -13.5 7.62939e-07
      vertex -31.4376 -15.7635 7.62939e-07
      vertex -31.725 -15.6218 7.62939e-07
    endloop
  endfacet
  facet normal 0 0 -1
    outer loop
      vertex -32.95 -13.5 7.62939e-07
      vertex -31.725 -15.6218 7.62939e-07
      vertex -31.9915 -15.4437 7.62939e-07
    endloop
  endfacet
  facet normal 0 0 -1
    outer loop
      vertex -32.95 -13.5 7.62939e-07
      vertex -31.9915 -15.4437 7.62939e-07
      vertex -32.2324 -15.2324 7.62939e-07
    endloop
  endfacet
  facet normal 0 0 -1
    outer loop
      vertex -32.95 -13.5 7.62939e-07
      vertex -32.2324 -15.2324 7.62939e-07
      vertex -32.4437 -14.9915 7.62939e-07
    endloop
  endfacet
  facet normal 0 0 -1
    outer loop
      vertex -32.95 -13.5 7.62939e-07
      vertex -32.4437 -14.9915 7.62939e-07
      vertex -32.6218 -14.725 7.62939e-07
    endloop
  endfacet
  facet normal 0 0 -1
    outer loop
      vertex -32.95 -13.5 7.62939e-07
      vertex -32.6218 -14.725 7.62939e-07
      vertex -32.7635 -14.4376 7.62939e-07
    endloop
  endfacet
  facet normal 0 0 -1
    outer loop
      vertex -32.95 -13.5 7.62939e-07
      vertex -32.7635 -14.4376 7.62939e-07
      vertex -32.8665 -14.1341 7.62939e-07
    endloop
  endfacet
  facet normal 0 0 -1
    outer loop
      vertex -32.95 -13.5 7.62939e-07
      vertex -32.8665 -14.1341 7.62939e-07
      vertex -32.929 -13.8198 7.62939e-07
    endloop
  endfacet
  facet normal 0 0 -1
    outer loop
      vertex -30.5 -15.95 7.62939e-07
      vertex -32.95 -13.5 7.62939e-07
      vertex -32.95 -12.15 7.62939e-07
    endloop
  endfacet
  facet normal 0 0 -1
    outer loop
      vertex -30.5 -15.95 7.62939e-07
      vertex -32.95 -12.15 7.62939e-07
      vertex 31.35 -12.15 7.62939e-07
    endloop
  endfacet
  facet normal -0 0 -1
    outer loop
      vertex 31.725 15.6218 7.62939e-07
      vertex 31.35 12.15 7.62939e-07
      vertex 31.4376 15.7635 7.62939e-07
    endloop
  endfacet
  facet normal 0 0 -1
    outer loop
      vertex 31.35 12.15 7.62939e-07
      vertex 31.1341 15.8665 7.62939e-07
      vertex 31.4376 15.7635 7.62939e-07
    endloop
  endfacet
  facet normal 0 0 -1
    outer loop
      vertex 31.35 12.15 7.62939e-07
      vertex 30.8198 15.929 7.62939e-07
      vertex 31.1341 15.8665 7.62939e-07
    endloop
  endfacet
  facet normal 0 0 -1
    outer loop
      vertex 31.35 12.15 7.62939e-07
      vertex 30.5 15.95 7.62939e-07
      vertex 30.8198 15.929 7.62939e-07
    endloop
  endfacet
  facet normal 0 0 -1
    outer loop
      vertex 31.35 12.15 7.62939e-07
      vertex -30.5 15.95 7.62939e-07
      vertex 30.5 15.95 7.62939e-07
    endloop
  endfacet
  facet normal 0 0 -1
    outer loop
      vertex -32.95 12.15 7.62939e-07
      vertex -30.5 15.95 7.62939e-07
      vertex 31.35 12.15 7.62939e-07
    endloop
  endfacet
  facet normal 0 0 -1
    outer loop
      vertex -32.95 13.5 7.62939e-07
      vertex -30.5 15.95 7.62939e-07
      vertex -32.95 12.15 7.62939e-07
    endloop
  endfacet
  facet normal 0 0 -1
    outer loop
      vertex -30.5 15.95 7.62939e-07
      vertex -32.95 13.5 7.62939e-07
      vertex -30.8198 15.929 7.62939e-07
    endloop
  endfacet
  facet normal 0 0 -1
    outer loop
      vertex -30.8198 15.929 7.62939e-07
      vertex -32.95 13.5 7.62939e-07
      vertex -31.1341 15.8665 7.62939e-07
    endloop
  endfacet
  facet normal 0 0 -1
    outer loop
      vertex -31.1341 15.8665 7.62939e-07
      vertex -32.95 13.5 7.62939e-07
      vertex -31.4376 15.7635 7.62939e-07
    endloop
  endfacet
  facet normal 0 0 -1
    outer loop
      vertex -31.4376 15.7635 7.62939e-07
      vertex -32.95 13.5 7.62939e-07
      vertex -31.725 15.6218 7.62939e-07
    endloop
  endfacet
  facet normal 0 0 -1
    outer loop
      vertex -31.725 15.6218 7.62939e-07
      vertex -32.95 13.5 7.62939e-07
      vertex -31.9915 15.4437 7.62939e-07
    endloop
  endfacet
  facet normal 0 0 -1
    outer loop
      vertex -31.9915 15.4437 7.62939e-07
      vertex -32.95 13.5 7.62939e-07
      vertex -32.2324 15.2324 7.62939e-07
    endloop
  endfacet
  facet normal 0 0 -1
    outer loop
      vertex -32.2324 15.2324 7.62939e-07
      vertex -32.95 13.5 7.62939e-07
      vertex -32.4437 14.9915 7.62939e-07
    endloop
  endfacet
  facet normal 0 0 -1
    outer loop
      vertex -32.4437 14.9915 7.62939e-07
      vertex -32.95 13.5 7.62939e-07
      vertex -32.6218 14.725 7.62939e-07
    endloop
  endfacet
  facet normal 0 0 -1
    outer loop
      vertex -32.6218 14.725 7.62939e-07
      vertex -32.95 13.5 7.62939e-07
      vertex -32.7635 14.4376 7.62939e-07
    endloop
  endfacet
  facet normal 0 0 -1
    outer loop
      vertex -32.7635 14.4376 7.62939e-07
      vertex -32.95 13.5 7.62939e-07
      vertex -32.8665 14.1341 7.62939e-07
    endloop
  endfacet
  facet normal 0 0 -1
    outer loop
      vertex -32.8665 14.1341 7.62939e-07
      vertex -32.95 13.5 7.62939e-07
      vertex -32.929 13.8198 7.62939e-07
    endloop
  endfacet
  facet normal -0 0 1
    outer loop
      vertex 31.35 13.65 6.3
      vertex 32.95 13.5 6.3
      vertex 32.929 13.8198 6.3
    endloop
  endfacet
  facet normal 0 0 1
    outer loop
      vertex 32.95 13.5 6.3
      vertex 31.35 13.65 6.3
      vertex 32.95 -13.5 6.3
    endloop
  endfacet
  facet normal 0 0 1
    outer loop
      vertex 31.35 13.65 6.3
      vertex 32.929 13.8198 6.3
      vertex 32.8665 14.1341 6.3
    endloop
  endfacet
  facet normal 0 0 1
    outer loop
      vertex 31.35 -13.65 6.3
      vertex 32.95 -13.5 6.3
      vertex 31.35 13.65 6.3
    endloop
  endfacet
  facet normal 0 0 1
    outer loop
      vertex 31.35 13.65 6.3
      vertex 32.8665 14.1341 6.3
      vertex 32.7635 14.4376 6.3
    endloop
  endfacet
  facet normal 0 0 1
    outer loop
      vertex 32.95 -13.5 6.3
      vertex 31.35 -13.65 6.3
      vertex 32.929 -13.8198 6.3
    endloop
  endfacet
  facet normal 0 0 1
    outer loop
      vertex 31.35 13.65 6.3
      vertex 32.7635 14.4376 6.3
      vertex 32.6218 14.725 6.3
    endloop
  endfacet
  facet normal 0 0 1
    outer loop
      vertex 32.929 -13.8198 6.3
      vertex 31.35 -13.65 6.3
      vertex 32.8665 -14.1341 6.3
    endloop
  endfacet
  facet normal 0 0 1
    outer loop
      vertex 31.35 13.65 6.3
      vertex 32.6218 14.725 6.3
      vertex 32.4437 14.9915 6.3
    endloop
  endfacet
  facet normal 0 0 1
    outer loop
      vertex 32.8665 -14.1341 6.3
      vertex 31.35 -13.65 6.3
      vertex 32.7635 -14.4376 6.3
    endloop
  endfacet
  facet normal 0 0 1
    outer loop
      vertex 31.35 13.65 6.3
      vertex 32.4437 14.9915 6.3
      vertex 32.2324 15.2324 6.3
    endloop
  endfacet
  facet normal 0 0 1
    outer loop
      vertex 32.7635 -14.4376 6.3
      vertex 31.35 -13.65 6.3
      vertex 32.6218 -14.725 6.3
    endloop
  endfacet
  facet normal 0 0 1
    outer loop
      vertex 31.35 13.65 6.3
      vertex 32.2324 15.2324 6.3
      vertex 31.9915 15.4437 6.3
    endloop
  endfacet
  facet normal 0 0 1
    outer loop
      vertex 32.6218 -14.725 6.3
      vertex 31.35 -13.65 6.3
      vertex 32.4437 -14.9915 6.3
    endloop
  endfacet
  facet normal 0 0 1
    outer loop
      vertex 31.35 13.65 6.3
      vertex 31.9915 15.4437 6.3
      vertex 31.725 15.6218 6.3
    endloop
  endfacet
  facet normal 0 0 1
    outer loop
      vertex 32.4437 -14.9915 6.3
      vertex 31.35 -13.65 6.3
      vertex 32.2324 -15.2324 6.3
    endloop
  endfacet
  facet normal 0 0 1
    outer loop
      vertex 31.35 13.65 6.3
      vertex 31.725 15.6218 6.3
      vertex 31.4376 15.7635 6.3
    endloop
  endfacet
  facet normal 0 0 1
    outer loop
      vertex 32.2324 -15.2324 6.3
      vertex 31.35 -13.65 6.3
      vertex 31.9915 -15.4437 6.3
    endloop
  endfacet
  facet normal 0 0 1
    outer loop
      vertex 31.9915 -15.4437 6.3
      vertex 31.35 -13.65 6.3
      vertex 31.725 -15.6218 6.3
    endloop
  endfacet
  facet normal 0 0 1
    outer loop
      vertex 31.1341 15.8665 6.3
      vertex 31.35 13.65 6.3
      vertex 31.4376 15.7635 6.3
    endloop
  endfacet
  facet normal 0 0 1
    outer loop
      vertex 30.8198 15.929 6.3
      vertex 31.35 13.65 6.3
      vertex 31.1341 15.8665 6.3
    endloop
  endfacet
  facet normal 0 0 1
    outer loop
      vertex 30.5 15.95 6.3
      vertex 31.35 13.65 6.3
      vertex 30.8198 15.929 6.3
    endloop
  endfacet
  facet normal -0 0 1
    outer loop
      vertex -30.5 15.95 6.3
      vertex 31.35 13.65 6.3
      vertex 30.5 15.95 6.3
    endloop
  endfacet
  facet normal 0 0 1
    outer loop
      vertex -32.9402 13.65 6.3
      vertex -30.5 15.95 6.3
      vertex -30.8198 15.929 6.3
    endloop
  endfacet
  facet normal 0 0 1
    outer loop
      vertex -32.9402 13.65 6.3
      vertex -30.8198 15.929 6.3
      vertex -31.1341 15.8665 6.3
    endloop
  endfacet
  facet normal 0 0 1
    outer loop
      vertex -32.9402 13.65 6.3
      vertex -31.1341 15.8665 6.3
      vertex -31.4376 15.7635 6.3
    endloop
  endfacet
  facet normal 0 0 1
    outer loop
      vertex -32.9402 13.65 6.3
      vertex -31.4376 15.7635 6.3
      vertex -31.725 15.6218 6.3
    endloop
  endfacet
  facet normal 0 0 1
    outer loop
      vertex -32.9402 13.65 6.3
      vertex -31.725 15.6218 6.3
      vertex -31.9915 15.4437 6.3
    endloop
  endfacet
  facet normal 0 0 1
    outer loop
      vertex -32.9402 13.65 6.3
      vertex -31.9915 15.4437 6.3
      vertex -32.2324 15.2324 6.3
    endloop
  endfacet
  facet normal 0 0 1
    outer loop
      vertex -32.9402 13.65 6.3
      vertex -32.2324 15.2324 6.3
      vertex -32.4437 14.9915 6.3
    endloop
  endfacet
  facet normal 0 0 1
    outer loop
      vertex -32.9402 13.65 6.3
      vertex -32.4437 14.9915 6.3
      vertex -32.6218 14.725 6.3
    endloop
  endfacet
  facet normal 0 0 1
    outer loop
      vertex -32.9402 13.65 6.3
      vertex -32.6218 14.725 6.3
      vertex -32.7635 14.4376 6.3
    endloop
  endfacet
  facet normal 0 0 1
    outer loop
      vertex -32.9402 13.65 6.3
      vertex -32.7635 14.4376 6.3
      vertex -32.8665 14.1341 6.3
    endloop
  endfacet
  facet normal 0 0 1
    outer loop
      vertex -32.9402 13.65 6.3
      vertex -32.8665 14.1341 6.3
      vertex -32.929 13.8198 6.3
    endloop
  endfacet
  facet normal 0 0 1
    outer loop
      vertex -30.5 15.95 6.3
      vertex -32.9402 13.65 6.3
      vertex 31.35 13.65 6.3
    endloop
  endfacet
  facet normal 0 0 1
    outer loop
      vertex 31.725 -15.6218 6.3
      vertex 31.35 -13.65 6.3
      vertex 31.4376 -15.7635 6.3
    endloop
  endfacet
  facet normal 0 0 1
    outer loop
      vertex 31.35 -13.65 6.3
      vertex 31.1341 -15.8665 6.3
      vertex 31.4376 -15.7635 6.3
    endloop
  endfacet
  facet normal 0 0 1
    outer loop
      vertex 31.35 -13.65 6.3
      vertex 30.8198 -15.929 6.3
      vertex 31.1341 -15.8665 6.3
    endloop
  endfacet
  facet normal 0 0 1
    outer loop
      vertex 31.35 -13.65 6.3
      vertex 30.5 -15.95 6.3
      vertex 30.8198 -15.929 6.3
    endloop
  endfacet
  facet normal 0 0 1
    outer loop
      vertex 31.35 -13.65 6.3
      vertex -30.5 -15.95 6.3
      vertex 30.5 -15.95 6.3
    endloop
  endfacet
  facet normal -0 0 1
    outer loop
      vertex -32.9402 -13.65 6.3
      vertex -30.5 -15.95 6.3
      vertex 31.35 -13.65 6.3
    endloop
  endfacet
  facet normal 0 0 1
    outer loop
      vertex -30.5 -15.95 6.3
      vertex -32.9402 -13.65 6.3
      vertex -30.8198 -15.929 6.3
    endloop
  endfacet
  facet normal 0 0 1
    outer loop
      vertex -30.8198 -15.929 6.3
      vertex -32.9402 -13.65 6.3
      vertex -31.1341 -15.8665 6.3
    endloop
  endfacet
  facet normal 0 0 1
    outer loop
      vertex -31.1341 -15.8665 6.3
      vertex -32.9402 -13.65 6.3
      vertex -31.4376 -15.7635 6.3
    endloop
  endfacet
  facet normal 0 0 1
    outer loop
      vertex -31.4376 -15.7635 6.3
      vertex -32.9402 -13.65 6.3
      vertex -31.725 -15.6218 6.3
    endloop
  endfacet
  facet normal 0 0 1
    outer loop
      vertex -31.725 -15.6218 6.3
      vertex -32.9402 -13.65 6.3
      vertex -31.9915 -15.4437 6.3
    endloop
  endfacet
  facet normal 0 0 1
    outer loop
      vertex -31.9915 -15.4437 6.3
      vertex -32.9402 -13.65 6.3
      vertex -32.2324 -15.2324 6.3
    endloop
  endfacet
  facet normal 0 0 1
    outer loop
      vertex -32.2324 -15.2324 6.3
      vertex -32.9402 -13.65 6.3
      vertex -32.4437 -14.9915 6.3
    endloop
  endfacet
  facet normal 0 0 1
    outer loop
      vertex -32.4437 -14.9915 6.3
      vertex -32.9402 -13.65 6.3
      vertex -32.6218 -14.725 6.3
    endloop
  endfacet
  facet normal 0 0 1
    outer loop
      vertex -32.6218 -14.725 6.3
      vertex -32.9402 -13.65 6.3
      vertex -32.7635 -14.4376 6.3
    endloop
  endfacet
  facet normal 0 0 1
    outer loop
      vertex -32.7635 -14.4376 6.3
      vertex -32.9402 -13.65 6.3
      vertex -32.8665 -14.1341 6.3
    endloop
  endfacet
  facet normal 0 0 1
    outer loop
      vertex -32.8665 -14.1341 6.3
      vertex -32.9402 -13.65 6.3
      vertex -32.929 -13.8198 6.3
    endloop
  endfacet
  facet normal 0 -1 0
    outer loop
      vertex -30.45 13.65 1.3
      vertex -32.9402 13.65 6.3
      vertex -31.45 13.65 1.3
    endloop
  endfacet
  facet normal 0 -1 0
    outer loop
      vertex -32.9402 13.65 1
      vertex -31.45 13.65 1.3
      vertex -32.9402 13.65 6.3
    endloop
  endfacet
  facet normal 0 -1 -0
    outer loop
      vertex -31.45 13.65 1.3
      vertex -32.9402 13.65 1
      vertex -31.45 13.65 1
    endloop
  endfacet
  facet normal 0 -1 0
    outer loop
      vertex -32.9402 13.65 6.3
      vertex -30.45 13.65 1.3
      vertex 31.35 13.65 6.3
    endloop
  endfacet
  facet normal 0 -1 0
    outer loop
      vertex 31.35 13.65 1
      vertex -30.45 13.65 1.3
      vertex -30.45 13.65 1
    endloop
  endfacet
  facet normal 0 -1 0
    outer loop
      vertex -30.45 13.65 1.3
      vertex 31.35 13.65 1
      vertex 31.35 13.65 6.3
    endloop
  endfacet
  facet normal 0 0 1
    outer loop
      vertex -32.95 13.5 1
      vertex -31.45 13.65 1
      vertex -32.9402 13.65 1
    endloop
  endfacet
  facet normal 0 0 1
    outer loop
      vertex -31.45 13.65 1
      vertex -32.95 13.5 1
      vertex -31.45 12.15 1
    endloop
  endfacet
  facet normal 0 0 1
    outer loop
      vertex -31.45 12.15 1
      vertex -32.95 13.5 1
      vertex -32.95 12.15 1
    endloop
  endfacet
  facet normal -0 0 1
    outer loop
      vertex -30.45 13.65 1
      vertex 31.35 12.15 1
      vertex 31.35 13.65 1
    endloop
  endfacet
  facet normal 0 0 1
    outer loop
      vertex 31.35 12.15 1
      vertex -30.45 13.65 1
      vertex -30.45 12.15 1
    endloop
  endfacet
  facet normal 0 -1 0
    outer loop
      vertex -32.95 12.15 7.62939e-07
      vertex -31.45 12.15 1
      vertex -32.95 12.15 1
    endloop
  endfacet
  facet normal 0 -1 -0
    outer loop
      vertex -31.45 12.15 1
      vertex -32.95 12.15 7.62939e-07
      vertex -30.45 12.15 1
    endloop
  endfacet
  facet normal 0 -1 0
    outer loop
      vertex 31.35 12.15 7.62939e-07
      vertex -30.45 12.15 1
      vertex -32.95 12.15 7.62939e-07
    endloop
  endfacet
  facet normal 0 -1 0
    outer loop
      vertex -30.45 12.15 1
      vertex 31.35 12.15 7.62939e-07
      vertex 31.35 12.15 1
    endloop
  endfacet
  facet normal 0 -1 0
    outer loop
      vertex -31.45 12.15 1
      vertex -30.45 12.15 1.3
      vertex -31.45 12.15 1.3
    endloop
  endfacet
  facet normal 0 -1 -0
    outer loop
      vertex -30.45 12.15 1.3
      vertex -31.45 12.15 1
      vertex -30.45 12.15 1
    endloop
  endfacet
  facet normal 1 -0 0
    outer loop
      vertex -30.45 12.15 1.3
      vertex -30.45 13.65 1
      vertex -30.45 13.65 1.3
    endloop
  endfacet
  facet normal 1 0 0
    outer loop
      vertex -30.45 13.65 1
      vertex -30.45 12.15 1.3
      vertex -30.45 12.15 1
    endloop
  endfacet
  facet normal -0 0 1
    outer loop
      vertex -31.45 13.65 1.3
      vertex -30.45 12.15 1.3
      vertex -30.45 13.65 1.3
    endloop
  endfacet
  facet normal 0 0 1
    outer loop
      vertex -30.45 12.15 1.3
      vertex -31.45 13.65 1.3
      vertex -31.45 12.15 1.3
    endloop
  endfacet
  facet normal -1 0 0
    outer loop
      vertex -31.45 12.15 1
      vertex -31.45 13.65 1.3
      vertex -31.45 13.65 1
    endloop
  endfacet
  facet normal -1 -0 0
    outer loop
      vertex -31.45 13.65 1.3
      vertex -31.45 12.15 1
      vertex -31.45 12.15 1.3
    endloop
  endfacet
  facet normal 0 1 0
    outer loop
      vertex 31.35 -13.65 6.3
      vertex -30.45 -13.65 1.3
      vertex -32.9402 -13.65 6.3
    endloop
  endfacet
  facet normal 0 1 -0
    outer loop
      vertex 31.35 -13.65 1
      vertex -30.45 -13.65 1.3
      vertex 31.35 -13.65 6.3
    endloop
  endfacet
  facet normal 0 1 0
    outer loop
      vertex -30.45 -13.65 1.3
      vertex 31.35 -13.65 1
      vertex -30.45 -13.65 1
    endloop
  endfacet
  facet normal 0 1 -0
    outer loop
      vertex -31.45 -13.65 1.3
      vertex -32.9402 -13.65 6.3
      vertex -30.45 -13.65 1.3
    endloop
  endfacet
  facet normal 0 1 0
    outer loop
      vertex -32.9402 -13.65 1
      vertex -31.45 -13.65 1.3
      vertex -31.45 -13.65 1
    endloop
  endfacet
  facet normal 0 1 0
    outer loop
      vertex -31.45 -13.65 1.3
      vertex -32.9402 -13.65 1
      vertex -32.9402 -13.65 6.3
    endloop
  endfacet
  facet normal -0 0 1
    outer loop
      vertex -32.95 -13.5 1
      vertex -31.45 -13.65 1
      vertex -31.45 -12.15 1
    endloop
  endfacet
  facet normal 0 0 1
    outer loop
      vertex -32.95 -13.5 1
      vertex -31.45 -12.15 1
      vertex -32.95 -12.15 1
    endloop
  endfacet
  facet normal 0 0 1
    outer loop
      vertex -31.45 -13.65 1
      vertex -32.95 -13.5 1
      vertex -32.9402 -13.65 1
    endloop
  endfacet
  facet normal -0 0 1
    outer loop
      vertex -30.45 -12.15 1
      vertex 31.35 -13.65 1
      vertex 31.35 -12.15 1
    endloop
  endfacet
  facet normal 0 0 1
    outer loop
      vertex 31.35 -13.65 1
      vertex -30.45 -12.15 1
      vertex -30.45 -13.65 1
    endloop
  endfacet
  facet normal 0 1 -0
    outer loop
      vertex 31.35 -12.15 7.62939e-07
      vertex -30.45 -12.15 1
      vertex 31.35 -12.15 1
    endloop
  endfacet
  facet normal 0 1 0
    outer loop
      vertex -32.95 -12.15 7.62939e-07
      vertex -30.45 -12.15 1
      vertex 31.35 -12.15 7.62939e-07
    endloop
  endfacet
  facet normal 0 1 0
    outer loop
      vertex -30.45 -12.15 1
      vertex -32.95 -12.15 7.62939e-07
      vertex -31.45 -12.15 1
    endloop
  endfacet
  facet normal 0 1 0
    outer loop
      vertex -31.45 -12.15 1
      vertex -32.95 -12.15 7.62939e-07
      vertex -32.95 -12.15 1
    endloop
  endfacet
  facet normal 0 1 -0
    outer loop
      vertex -30.45 -12.15 1
      vertex -31.45 -12.15 1.3
      vertex -30.45 -12.15 1.3
    endloop
  endfacet
  facet normal 0 1 0
    outer loop
      vertex -31.45 -12.15 1.3
      vertex -30.45 -12.15 1
      vertex -31.45 -12.15 1
    endloop
  endfacet
  facet normal 1 -0 0
    outer loop
      vertex -30.45 -13.65 1.3
      vertex -30.45 -12.15 1
      vertex -30.45 -12.15 1.3
    endloop
  endfacet
  facet normal 1 0 0
    outer loop
      vertex -30.45 -12.15 1
      vertex -30.45 -13.65 1.3
      vertex -30.45 -13.65 1
    endloop
  endfacet
  facet normal -0 0 1
    outer loop
      vertex -31.45 -12.15 1.3
      vertex -30.45 -13.65 1.3
      vertex -30.45 -12.15 1.3
    endloop
  endfacet
  facet normal 0 0 1
    outer loop
      vertex -30.45 -13.65 1.3
      vertex -31.45 -12.15 1.3
      vertex -31.45 -13.65 1.3
    endloop
  endfacet
  facet normal -1 0 0
    outer loop
      vertex -31.45 -13.65 1
      vertex -31.45 -12.15 1.3
      vertex -31.45 -12.15 1
    endloop
  endfacet
  facet normal -1 -0 0
    outer loop
      vertex -31.45 -12.15 1.3
      vertex -31.45 -13.65 1
      vertex -31.45 -13.65 1.3
    endloop
  endfacet
  facet normal -1 0 0
    outer loop
      vertex 31.35 12.15 7.62939e-07
      vertex 31.35 -12.15 7.62939e-07
      vertex 31.35 12.15 1
    endloop
  endfacet
  facet normal -1 0 0
    outer loop
      vertex 31.35 12.15 1
      vertex 31.35 13.65 6.3
      vertex 31.35 13.65 1
    endloop
  endfacet
  facet normal -1 0 0
    outer loop
      vertex 31.35 -12.15 1
      vertex 31.35 12.15 1
      vertex 31.35 -12.15 7.62939e-07
    endloop
  endfacet
  facet normal -1 0 0
    outer loop
      vertex 31.35 12.15 1
      vertex 31.35 -12.15 1
      vertex 31.35 13.65 6.3
    endloop
  endfacet
  facet normal -1 0 0
    outer loop
      vertex 31.35 -13.65 6.3
      vertex 31.35 -12.15 1
      vertex 31.35 -13.65 1
    endloop
  endfacet
  facet normal -1 0 0
    outer loop
      vertex 31.35 -12.15 1
      vertex 31.35 -13.65 6.3
      vertex 31.35 13.65 6.3
    endloop
  endfacet
  facet normal 0.0655249 0.997851 -0
    outer loop
      vertex 30.8198 15.929 7.62939e-07
      vertex 30.5 15.95 6.3
      vertex 30.8198 15.929 6.3
    endloop
  endfacet
  facet normal 0.0655249 0.997851 0
    outer loop
      vertex 30.5 15.95 6.3
      vertex 30.8198 15.929 7.62939e-07
      vertex 30.5 15.95 7.62939e-07
    endloop
  endfacet
  facet normal -0.997832 0.0658169 0
    outer loop
      vertex -32.929 13.8198 7.62939e-07
      vertex -32.9402 13.65 1
      vertex -32.929 13.8198 6.3
    endloop
  endfacet
  facet normal -0.997851 0.0655249 -4.9799e-05
    outer loop
      vertex -32.95 13.5 7.62939e-07
      vertex -32.9402 13.65 1
      vertex -32.929 13.8198 7.62939e-07
    endloop
  endfacet
  facet normal -0.997873 0.0651943 0
    outer loop
      vertex -32.9402 13.65 1
      vertex -32.95 13.5 7.62939e-07
      vertex -32.95 13.5 1
    endloop
  endfacet
  facet normal -0.997832 0.0658169 0
    outer loop
      vertex -32.929 13.8198 6.3
      vertex -32.9402 13.65 1
      vertex -32.9402 13.65 6.3
    endloop
  endfacet
  facet normal 0.65941 0.751784 -0
    outer loop
      vertex 32.2324 15.2324 7.62939e-07
      vertex 31.9915 15.4437 6.3
      vertex 32.2324 15.2324 6.3
    endloop
  endfacet
  facet normal 0.65941 0.751784 0
    outer loop
      vertex 31.9915 15.4437 6.3
      vertex 32.2324 15.2324 7.62939e-07
      vertex 31.9915 15.4437 7.62939e-07
    endloop
  endfacet
  facet normal -0.980796 -0.195036 0
    outer loop
      vertex -32.8665 -14.1341 7.62939e-07
      vertex -32.929 -13.8198 6.3
      vertex -32.929 -13.8198 7.62939e-07
    endloop
  endfacet
  facet normal -0.980796 -0.195036 0
    outer loop
      vertex -32.929 -13.8198 6.3
      vertex -32.8665 -14.1341 7.62939e-07
      vertex -32.8665 -14.1341 6.3
    endloop
  endfacet
  facet normal 0.831426 0.555636 0
    outer loop
      vertex 32.6218 14.725 6.3
      vertex 32.4437 14.9915 7.62939e-07
      vertex 32.4437 14.9915 6.3
    endloop
  endfacet
  facet normal 0.831426 0.555636 0
    outer loop
      vertex 32.4437 14.9915 7.62939e-07
      vertex 32.6218 14.725 6.3
      vertex 32.6218 14.725 7.62939e-07
    endloop
  endfacet
  facet normal -0.89691 0.442213 0
    outer loop
      vertex -32.7635 14.4376 7.62939e-07
      vertex -32.6218 14.725 6.3
      vertex -32.6218 14.725 7.62939e-07
    endloop
  endfacet
  facet normal -0.89691 0.442213 0
    outer loop
      vertex -32.6218 14.725 6.3
      vertex -32.7635 14.4376 7.62939e-07
      vertex -32.7635 14.4376 6.3
    endloop
  endfacet
  facet normal -1 0 0
    outer loop
      vertex -32.95 -13.5 7.62939e-07
      vertex -32.95 -12.15 1
      vertex -32.95 -12.15 7.62939e-07
    endloop
  endfacet
  facet normal -1 -0 0
    outer loop
      vertex -32.95 -12.15 1
      vertex -32.95 -13.5 7.62939e-07
      vertex -32.95 -13.5 1
    endloop
  endfacet
  facet normal -1 0 0
    outer loop
      vertex -32.95 12.15 7.62939e-07
      vertex -32.95 13.5 1
      vertex -32.95 13.5 7.62939e-07
    endloop
  endfacet
  facet normal -1 -0 0
    outer loop
      vertex -32.95 13.5 1
      vertex -32.95 12.15 7.62939e-07
      vertex -32.95 12.15 1
    endloop
  endfacet
  facet normal -0.0655249 0.997851 0
    outer loop
      vertex -30.5 15.95 7.62939e-07
      vertex -30.8198 15.929 6.3
      vertex -30.5 15.95 6.3
    endloop
  endfacet
  facet normal -0.0655249 0.997851 0
    outer loop
      vertex -30.8198 15.929 6.3
      vertex -30.5 15.95 7.62939e-07
      vertex -30.8198 15.929 7.62939e-07
    endloop
  endfacet
  facet normal 0.980796 -0.195036 0
    outer loop
      vertex 32.8665 -14.1341 6.3
      vertex 32.929 -13.8198 7.62939e-07
      vertex 32.929 -13.8198 6.3
    endloop
  endfacet
  facet normal 0.980796 -0.195036 0
    outer loop
      vertex 32.929 -13.8198 7.62939e-07
      vertex 32.8665 -14.1341 6.3
      vertex 32.8665 -14.1341 7.62939e-07
    endloop
  endfacet
  facet normal 0 1 -0
    outer loop
      vertex 30.5 15.95 7.62939e-07
      vertex -30.5 15.95 6.3
      vertex 30.5 15.95 6.3
    endloop
  endfacet
  facet normal 0 1 0
    outer loop
      vertex -30.5 15.95 6.3
      vertex 30.5 15.95 7.62939e-07
      vertex -30.5 15.95 7.62939e-07
    endloop
  endfacet
  facet normal -0.442213 -0.89691 0
    outer loop
      vertex -31.725 -15.6218 7.62939e-07
      vertex -31.4376 -15.7635 6.3
      vertex -31.725 -15.6218 6.3
    endloop
  endfacet
  facet normal -0.442213 -0.89691 -0
    outer loop
      vertex -31.4376 -15.7635 6.3
      vertex -31.725 -15.6218 7.62939e-07
      vertex -31.4376 -15.7635 7.62939e-07
    endloop
  endfacet
  facet normal 0 -1 0
    outer loop
      vertex -30.5 -15.95 7.62939e-07
      vertex 30.5 -15.95 6.3
      vertex -30.5 -15.95 6.3
    endloop
  endfacet
  facet normal 0 -1 -0
    outer loop
      vertex 30.5 -15.95 6.3
      vertex -30.5 -15.95 7.62939e-07
      vertex 30.5 -15.95 7.62939e-07
    endloop
  endfacet
  facet normal -0.195036 0.980796 0
    outer loop
      vertex -30.8198 15.929 7.62939e-07
      vertex -31.1341 15.8665 6.3
      vertex -30.8198 15.929 6.3
    endloop
  endfacet
  facet normal -0.195036 0.980796 0
    outer loop
      vertex -31.1341 15.8665 6.3
      vertex -30.8198 15.929 7.62939e-07
      vertex -31.1341 15.8665 7.62939e-07
    endloop
  endfacet
  facet normal 0.0655249 -0.997851 0
    outer loop
      vertex 30.5 -15.95 7.62939e-07
      vertex 30.8198 -15.929 6.3
      vertex 30.5 -15.95 6.3
    endloop
  endfacet
  facet normal 0.0655249 -0.997851 0
    outer loop
      vertex 30.8198 -15.929 6.3
      vertex 30.5 -15.95 7.62939e-07
      vertex 30.8198 -15.929 7.62939e-07
    endloop
  endfacet
  facet normal 0.195036 -0.980796 0
    outer loop
      vertex 30.8198 -15.929 7.62939e-07
      vertex 31.1341 -15.8665 6.3
      vertex 30.8198 -15.929 6.3
    endloop
  endfacet
  facet normal 0.195036 -0.980796 0
    outer loop
      vertex 31.1341 -15.8665 6.3
      vertex 30.8198 -15.929 7.62939e-07
      vertex 31.1341 -15.8665 7.62939e-07
    endloop
  endfacet
  facet normal -0.442213 0.89691 0
    outer loop
      vertex -31.4376 15.7635 7.62939e-07
      vertex -31.725 15.6218 6.3
      vertex -31.4376 15.7635 6.3
    endloop
  endfacet
  facet normal -0.442213 0.89691 0
    outer loop
      vertex -31.725 15.6218 6.3
      vertex -31.4376 15.7635 7.62939e-07
      vertex -31.725 15.6218 7.62939e-07
    endloop
  endfacet
  facet normal -0.980796 0.195036 0
    outer loop
      vertex -32.929 13.8198 7.62939e-07
      vertex -32.8665 14.1341 6.3
      vertex -32.8665 14.1341 7.62939e-07
    endloop
  endfacet
  facet normal -0.980796 0.195036 0
    outer loop
      vertex -32.8665 14.1341 6.3
      vertex -32.929 13.8198 7.62939e-07
      vertex -32.929 13.8198 6.3
    endloop
  endfacet
  facet normal -0.195036 -0.980796 0
    outer loop
      vertex -31.1341 -15.8665 7.62939e-07
      vertex -30.8198 -15.929 6.3
      vertex -31.1341 -15.8665 6.3
    endloop
  endfacet
  facet normal -0.195036 -0.980796 -0
    outer loop
      vertex -30.8198 -15.929 6.3
      vertex -31.1341 -15.8665 7.62939e-07
      vertex -30.8198 -15.929 7.62939e-07
    endloop
  endfacet
  facet normal -0.0655249 -0.997851 0
    outer loop
      vertex -30.8198 -15.929 7.62939e-07
      vertex -30.5 -15.95 6.3
      vertex -30.8198 -15.929 6.3
    endloop
  endfacet
  facet normal -0.0655249 -0.997851 -0
    outer loop
      vertex -30.5 -15.95 6.3
      vertex -30.8198 -15.929 7.62939e-07
      vertex -30.5 -15.95 7.62939e-07
    endloop
  endfacet
  facet normal -0.831426 -0.555636 0
    outer loop
      vertex -32.4437 -14.9915 7.62939e-07
      vertex -32.6218 -14.725 6.3
      vertex -32.6218 -14.725 7.62939e-07
    endloop
  endfacet
  facet normal -0.831426 -0.555636 0
    outer loop
      vertex -32.6218 -14.725 6.3
      vertex -32.4437 -14.9915 7.62939e-07
      vertex -32.4437 -14.9915 6.3
    endloop
  endfacet
  facet normal -0.65941 -0.751784 0
    outer loop
      vertex -32.2324 -15.2324 7.62939e-07
      vertex -31.9915 -15.4437 6.3
      vertex -32.2324 -15.2324 6.3
    endloop
  endfacet
  facet normal -0.65941 -0.751784 -0
    outer loop
      vertex -31.9915 -15.4437 6.3
      vertex -32.2324 -15.2324 7.62939e-07
      vertex -31.9915 -15.4437 7.62939e-07
    endloop
  endfacet
  facet normal -0.321371 -0.946953 0
    outer loop
      vertex -31.4376 -15.7635 7.62939e-07
      vertex -31.1341 -15.8665 6.3
      vertex -31.4376 -15.7635 6.3
    endloop
  endfacet
  facet normal -0.321371 -0.946953 -0
    outer loop
      vertex -31.1341 -15.8665 6.3
      vertex -31.4376 -15.7635 7.62939e-07
      vertex -31.1341 -15.8665 7.62939e-07
    endloop
  endfacet
  facet normal -0.751784 -0.65941 0
    outer loop
      vertex -32.2324 -15.2324 7.62939e-07
      vertex -32.4437 -14.9915 6.3
      vertex -32.4437 -14.9915 7.62939e-07
    endloop
  endfacet
  facet normal -0.751784 -0.65941 0
    outer loop
      vertex -32.4437 -14.9915 6.3
      vertex -32.2324 -15.2324 7.62939e-07
      vertex -32.2324 -15.2324 6.3
    endloop
  endfacet
  facet normal -0.89691 -0.442213 0
    outer loop
      vertex -32.6218 -14.725 7.62939e-07
      vertex -32.7635 -14.4376 6.3
      vertex -32.7635 -14.4376 7.62939e-07
    endloop
  endfacet
  facet normal -0.89691 -0.442213 0
    outer loop
      vertex -32.7635 -14.4376 6.3
      vertex -32.6218 -14.725 7.62939e-07
      vertex -32.6218 -14.725 6.3
    endloop
  endfacet
  facet normal -0.997873 -0.0651943 0
    outer loop
      vertex -32.95 -13.5 7.62939e-07
      vertex -32.9402 -13.65 1
      vertex -32.95 -13.5 1
    endloop
  endfacet
  facet normal -0.997851 -0.0655249 -4.9799e-05
    outer loop
      vertex -32.929 -13.8198 7.62939e-07
      vertex -32.9402 -13.65 1
      vertex -32.95 -13.5 7.62939e-07
    endloop
  endfacet
  facet normal -0.997832 -0.0658169 -0
    outer loop
      vertex -32.929 -13.8198 6.3
      vertex -32.9402 -13.65 1
      vertex -32.929 -13.8198 7.62939e-07
    endloop
  endfacet
  facet normal -0.997832 -0.0658169 0
    outer loop
      vertex -32.9402 -13.65 1
      vertex -32.929 -13.8198 6.3
      vertex -32.9402 -13.65 6.3
    endloop
  endfacet
  facet normal 0.321371 -0.946953 0
    outer loop
      vertex 31.1341 -15.8665 7.62939e-07
      vertex 31.4376 -15.7635 6.3
      vertex 31.1341 -15.8665 6.3
    endloop
  endfacet
  facet normal 0.321371 -0.946953 0
    outer loop
      vertex 31.4376 -15.7635 6.3
      vertex 31.1341 -15.8665 7.62939e-07
      vertex 31.4376 -15.7635 7.62939e-07
    endloop
  endfacet
  facet normal -0.555636 -0.831426 0
    outer loop
      vertex -31.9915 -15.4437 7.62939e-07
      vertex -31.725 -15.6218 6.3
      vertex -31.9915 -15.4437 6.3
    endloop
  endfacet
  facet normal -0.555636 -0.831426 -0
    outer loop
      vertex -31.725 -15.6218 6.3
      vertex -31.9915 -15.4437 7.62939e-07
      vertex -31.725 -15.6218 7.62939e-07
    endloop
  endfacet
  facet normal 0.442213 -0.89691 0
    outer loop
      vertex 31.4376 -15.7635 7.62939e-07
      vertex 31.725 -15.6218 6.3
      vertex 31.4376 -15.7635 6.3
    endloop
  endfacet
  facet normal 0.442213 -0.89691 0
    outer loop
      vertex 31.725 -15.6218 6.3
      vertex 31.4376 -15.7635 7.62939e-07
      vertex 31.725 -15.6218 7.62939e-07
    endloop
  endfacet
  facet normal -0.321371 0.946953 0
    outer loop
      vertex -31.1341 15.8665 7.62939e-07
      vertex -31.4376 15.7635 6.3
      vertex -31.1341 15.8665 6.3
    endloop
  endfacet
  facet normal -0.321371 0.946953 0
    outer loop
      vertex -31.4376 15.7635 6.3
      vertex -31.1341 15.8665 7.62939e-07
      vertex -31.4376 15.7635 7.62939e-07
    endloop
  endfacet
  facet normal -0.946953 0.321371 0
    outer loop
      vertex -32.8665 14.1341 7.62939e-07
      vertex -32.7635 14.4376 6.3
      vertex -32.7635 14.4376 7.62939e-07
    endloop
  endfacet
  facet normal -0.946953 0.321371 0
    outer loop
      vertex -32.7635 14.4376 6.3
      vertex -32.8665 14.1341 7.62939e-07
      vertex -32.8665 14.1341 6.3
    endloop
  endfacet
  facet normal 0.555636 0.831426 -0
    outer loop
      vertex 31.9915 15.4437 7.62939e-07
      vertex 31.725 15.6218 6.3
      vertex 31.9915 15.4437 6.3
    endloop
  endfacet
  facet normal 0.555636 0.831426 0
    outer loop
      vertex 31.725 15.6218 6.3
      vertex 31.9915 15.4437 7.62939e-07
      vertex 31.725 15.6218 7.62939e-07
    endloop
  endfacet
  facet normal -0.831426 0.555636 0
    outer loop
      vertex -32.6218 14.725 7.62939e-07
      vertex -32.4437 14.9915 6.3
      vertex -32.4437 14.9915 7.62939e-07
    endloop
  endfacet
  facet normal -0.831426 0.555636 0
    outer loop
      vertex -32.4437 14.9915 6.3
      vertex -32.6218 14.725 7.62939e-07
      vertex -32.6218 14.725 6.3
    endloop
  endfacet
  facet normal -0.946953 -0.321371 0
    outer loop
      vertex -32.7635 -14.4376 7.62939e-07
      vertex -32.8665 -14.1341 6.3
      vertex -32.8665 -14.1341 7.62939e-07
    endloop
  endfacet
  facet normal -0.946953 -0.321371 0
    outer loop
      vertex -32.8665 -14.1341 6.3
      vertex -32.7635 -14.4376 7.62939e-07
      vertex -32.7635 -14.4376 6.3
    endloop
  endfacet
  facet normal 0.997851 0.0655249 0
    outer loop
      vertex 32.95 13.5 6.3
      vertex 32.929 13.8198 7.62939e-07
      vertex 32.929 13.8198 6.3
    endloop
  endfacet
  facet normal 0.997851 0.0655249 0
    outer loop
      vertex 32.929 13.8198 7.62939e-07
      vertex 32.95 13.5 6.3
      vertex 32.95 13.5 7.62939e-07
    endloop
  endfacet
  facet normal 1 -0 0
    outer loop
      vertex 32.95 -13.5 6.3
      vertex 32.95 13.5 7.62939e-07
      vertex 32.95 13.5 6.3
    endloop
  endfacet
  facet normal 1 0 0
    outer loop
      vertex 32.95 13.5 7.62939e-07
      vertex 32.95 -13.5 6.3
      vertex 32.95 -13.5 7.62939e-07
    endloop
  endfacet
  facet normal -0.751784 0.65941 0
    outer loop
      vertex -32.4437 14.9915 7.62939e-07
      vertex -32.2324 15.2324 6.3
      vertex -32.2324 15.2324 7.62939e-07
    endloop
  endfacet
  facet normal -0.751784 0.65941 0
    outer loop
      vertex -32.2324 15.2324 6.3
      vertex -32.4437 14.9915 7.62939e-07
      vertex -32.4437 14.9915 6.3
    endloop
  endfacet
  facet normal 0.751784 -0.65941 0
    outer loop
      vertex 32.2324 -15.2324 6.3
      vertex 32.4437 -14.9915 7.62939e-07
      vertex 32.4437 -14.9915 6.3
    endloop
  endfacet
  facet normal 0.751784 -0.65941 0
    outer loop
      vertex 32.4437 -14.9915 7.62939e-07
      vertex 32.2324 -15.2324 6.3
      vertex 32.2324 -15.2324 7.62939e-07
    endloop
  endfacet
  facet normal 0.89691 -0.442213 0
    outer loop
      vertex 32.6218 -14.725 6.3
      vertex 32.7635 -14.4376 7.62939e-07
      vertex 32.7635 -14.4376 6.3
    endloop
  endfacet
  facet normal 0.89691 -0.442213 0
    outer loop
      vertex 32.7635 -14.4376 7.62939e-07
      vertex 32.6218 -14.725 6.3
      vertex 32.6218 -14.725 7.62939e-07
    endloop
  endfacet
  facet normal 0.321371 0.946953 -0
    outer loop
      vertex 31.4376 15.7635 7.62939e-07
      vertex 31.1341 15.8665 6.3
      vertex 31.4376 15.7635 6.3
    endloop
  endfacet
  facet normal 0.321371 0.946953 0
    outer loop
      vertex 31.1341 15.8665 6.3
      vertex 31.4376 15.7635 7.62939e-07
      vertex 31.1341 15.8665 7.62939e-07
    endloop
  endfacet
  facet normal 0.997851 -0.0655249 0
    outer loop
      vertex 32.929 -13.8198 6.3
      vertex 32.95 -13.5 7.62939e-07
      vertex 32.95 -13.5 6.3
    endloop
  endfacet
  facet normal 0.997851 -0.0655249 0
    outer loop
      vertex 32.95 -13.5 7.62939e-07
      vertex 32.929 -13.8198 6.3
      vertex 32.929 -13.8198 7.62939e-07
    endloop
  endfacet
  facet normal -0.65941 0.751784 0
    outer loop
      vertex -31.9915 15.4437 7.62939e-07
      vertex -32.2324 15.2324 6.3
      vertex -31.9915 15.4437 6.3
    endloop
  endfacet
  facet normal -0.65941 0.751784 0
    outer loop
      vertex -32.2324 15.2324 6.3
      vertex -31.9915 15.4437 7.62939e-07
      vertex -32.2324 15.2324 7.62939e-07
    endloop
  endfacet
  facet normal 0.831426 -0.555636 0
    outer loop
      vertex 32.4437 -14.9915 6.3
      vertex 32.6218 -14.725 7.62939e-07
      vertex 32.6218 -14.725 6.3
    endloop
  endfacet
  facet normal 0.831426 -0.555636 0
    outer loop
      vertex 32.6218 -14.725 7.62939e-07
      vertex 32.4437 -14.9915 6.3
      vertex 32.4437 -14.9915 7.62939e-07
    endloop
  endfacet
  facet normal 0.751784 0.65941 0
    outer loop
      vertex 32.4437 14.9915 6.3
      vertex 32.2324 15.2324 7.62939e-07
      vertex 32.2324 15.2324 6.3
    endloop
  endfacet
  facet normal 0.751784 0.65941 0
    outer loop
      vertex 32.2324 15.2324 7.62939e-07
      vertex 32.4437 14.9915 6.3
      vertex 32.4437 14.9915 7.62939e-07
    endloop
  endfacet
  facet normal 0.442213 0.89691 -0
    outer loop
      vertex 31.725 15.6218 7.62939e-07
      vertex 31.4376 15.7635 6.3
      vertex 31.725 15.6218 6.3
    endloop
  endfacet
  facet normal 0.442213 0.89691 0
    outer loop
      vertex 31.4376 15.7635 6.3
      vertex 31.725 15.6218 7.62939e-07
      vertex 31.4376 15.7635 7.62939e-07
    endloop
  endfacet
  facet normal 0.195036 0.980796 -0
    outer loop
      vertex 31.1341 15.8665 7.62939e-07
      vertex 30.8198 15.929 6.3
      vertex 31.1341 15.8665 6.3
    endloop
  endfacet
  facet normal 0.195036 0.980796 0
    outer loop
      vertex 30.8198 15.929 6.3
      vertex 31.1341 15.8665 7.62939e-07
      vertex 30.8198 15.929 7.62939e-07
    endloop
  endfacet
  facet normal 0.980796 0.195036 0
    outer loop
      vertex 32.929 13.8198 6.3
      vertex 32.8665 14.1341 7.62939e-07
      vertex 32.8665 14.1341 6.3
    endloop
  endfacet
  facet normal 0.980796 0.195036 0
    outer loop
      vertex 32.8665 14.1341 7.62939e-07
      vertex 32.929 13.8198 6.3
      vertex 32.929 13.8198 7.62939e-07
    endloop
  endfacet
  facet normal -0.555636 0.831426 0
    outer loop
      vertex -31.725 15.6218 7.62939e-07
      vertex -31.9915 15.4437 6.3
      vertex -31.725 15.6218 6.3
    endloop
  endfacet
  facet normal -0.555636 0.831426 0
    outer loop
      vertex -31.9915 15.4437 6.3
      vertex -31.725 15.6218 7.62939e-07
      vertex -31.9915 15.4437 7.62939e-07
    endloop
  endfacet
  facet normal 0.946953 0.321371 0
    outer loop
      vertex 32.8665 14.1341 6.3
      vertex 32.7635 14.4376 7.62939e-07
      vertex 32.7635 14.4376 6.3
    endloop
  endfacet
  facet normal 0.946953 0.321371 0
    outer loop
      vertex 32.7635 14.4376 7.62939e-07
      vertex 32.8665 14.1341 6.3
      vertex 32.8665 14.1341 7.62939e-07
    endloop
  endfacet
  facet normal 0.89691 0.442213 0
    outer loop
      vertex 32.7635 14.4376 6.3
      vertex 32.6218 14.725 7.62939e-07
      vertex 32.6218 14.725 6.3
    endloop
  endfacet
  facet normal 0.89691 0.442213 0
    outer loop
      vertex 32.6218 14.725 7.62939e-07
      vertex 32.7635 14.4376 6.3
      vertex 32.7635 14.4376 7.62939e-07
    endloop
  endfacet
  facet normal 0.946953 -0.321371 0
    outer loop
      vertex 32.7635 -14.4376 6.3
      vertex 32.8665 -14.1341 7.62939e-07
      vertex 32.8665 -14.1341 6.3
    endloop
  endfacet
  facet normal 0.946953 -0.321371 0
    outer loop
      vertex 32.8665 -14.1341 7.62939e-07
      vertex 32.7635 -14.4376 6.3
      vertex 32.7635 -14.4376 7.62939e-07
    endloop
  endfacet
  facet normal 0.65941 -0.751784 0
    outer loop
      vertex 31.9915 -15.4437 7.62939e-07
      vertex 32.2324 -15.2324 6.3
      vertex 31.9915 -15.4437 6.3
    endloop
  endfacet
  facet normal 0.65941 -0.751784 0
    outer loop
      vertex 32.2324 -15.2324 6.3
      vertex 31.9915 -15.4437 7.62939e-07
      vertex 32.2324 -15.2324 7.62939e-07
    endloop
  endfacet
  facet normal 0.555636 -0.831426 0
    outer loop
      vertex 31.725 -15.6218 7.62939e-07
      vertex 31.9915 -15.4437 6.3
      vertex 31.725 -15.6218 6.3
    endloop
  endfacet
  facet normal 0.555636 -0.831426 0
    outer loop
      vertex 31.9915 -15.4437 6.3
      vertex 31.725 -15.6218 7.62939e-07
      vertex 31.9915 -15.4437 7.62939e-07
    endloop
  endfacet
endsolid OpenSCAD_Model
